<?xml version="1.0" standalone="no"?>
<!DOCTYPE svg PUBLIC "-//W3C//DTD SVG 1.1//EN" "http://www.w3.org/Graphics/SVG/1.1/DTD/svg11.dtd" >
<svg>
<metadata>
Created by FontForge 20110222 at Thu Jun 26 11:03:17 2014
 By Orthosie Webhosting
Copyright (c) 2012-2013 by Michael Chereda. All rights reserved.
</metadata>
<defs>
<font id="Marta-Bold" horiz-adv-x="809" >
  <font-face 
    font-family="Marta"
    font-weight="700"
    font-stretch="normal"
    units-per-em="1000"
    panose-1="2 0 5 3 6 0 0 2 0 3"
    ascent="750"
    descent="-250"
    x-height="467"
    cap-height="700"
    bbox="-98 -256 2106 941"
    underline-thickness="50"
    underline-position="-50"
    unicode-range="U+0020-FB06"
  />
<missing-glyph horiz-adv-x="300" 
 />
    <glyph glyph-name=".notdef" horiz-adv-x="300" 
 />
    <glyph glyph-name=".null" horiz-adv-x="0" 
 />
    <glyph glyph-name="CR" horiz-adv-x="250" 
 />
    <glyph glyph-name="space" unicode=" " horiz-adv-x="250" 
 />
    <glyph glyph-name="D" unicode="D" horiz-adv-x="735" 
d="M341 629h-84v-558h84c147 0 215 135 215 286c0 150 -68 272 -215 272zM338 0h-292l-10 71l83 31v494l-84 33l10 71h296c249 0 364 -151 364 -345s-117 -355 -367 -355z" />
    <glyph glyph-name="E" unicode="E" horiz-adv-x="613" 
d="M450 629h-193v-229h103l30 81l72 -10v-221l-71 -10l-31 81h-103v-250h197l53 150l71 -10v-211h-531l-10 71l82 31v494l-84 33l11 71h515v-178l-72 -11z" />
    <glyph glyph-name="afii10019" unicode="&#x412;" horiz-adv-x="699" 
d="M257 629v-558h138c65 0 110 67 110 140s-55 135 -132 135h-74v78h42c55 0 99 44 99 99s-29 106 -107 106h-76zM422 0h-375l-11 71l83 31v494l-84 33l11 71h361c103 0 182 -76 182 -168c0 -59 -31 -110 -76 -140c81 -26 141 -102 141 -191c0 -111 -89 -201 -232 -201z" />
    <glyph glyph-name="afii10022" unicode="&#x415;" horiz-adv-x="613" 
d="M450 629h-193v-229h103l30 81l72 -10v-221l-71 -10l-31 81h-103v-250h197l53 150l71 -10v-211h-531l-10 71l82 31v494l-84 33l11 71h515v-178l-72 -11z" />
    <glyph glyph-name="afii10035" unicode="&#x421;" horiz-adv-x="649" 
d="M396 67c29 0 82 5 115 14l51 139l71 -10v-162c-56 -40 -155 -65 -237 -65c-260 0 -366 183 -366 367s122 367 366 367c89 0 162 -21 237 -64v-156l-72 -11l-46 131c-36 10 -86 16 -119 16c-139 0 -216 -89 -216 -278c0 -136 45 -288 216 -288z" />
    <glyph glyph-name="F" unicode="F" horiz-adv-x="574" 
d="M257 629v-229h111l32 81l70 -11v-219l-70 -11l-32 81h-111v-219l114 -31l-10 -71h-314l-11 71l83 32v493l-84 33l10 71h504v-178l-71 -11l-40 118h-181z" />
    <glyph glyph-name="G" unicode="G" horiz-adv-x="757" 
d="M184 355c0 -136 53 -288 225 -288c27 0 70 4 99 12v165l-83 33l11 71h284l12 -71l-85 -34v-195c-55 -40 -155 -65 -237 -65c-259 0 -375 183 -375 367c0 204 152 367 375 367c88 0 163 -22 237 -65v-156l-71 -11l-47 131c-36 10 -86 17 -119 17
c-158 0 -226 -134 -226 -278z" />
    <glyph glyph-name="H" unicode="H" horiz-adv-x="820" 
d="M780 629l-84 -33v-493l83 -32l-11 -71h-284l-10 71l84 31v220h-296v-220l82 -31l-10 -71h-282l-11 71l83 31v494l-84 33l10 71h286l10 -71l-84 -33v-197h296v197l-84 33l10 71h286z" />
    <glyph glyph-name="I" unicode="I" horiz-adv-x="428" 
d="M283 596v-494l85 -31l-12 -71h-284l-12 71l85 31v494l-85 33l12 71h284l12 -71z" />
    <glyph glyph-name="J" unicode="J" horiz-adv-x="396" 
d="M144 197v399l-85 33l12 71h284l11 -71l-85 -33v-423c0 -139 -49 -284 -248 -348l-38 64c135 91 149 203 149 308z" />
    <glyph glyph-name="afii10031" unicode="&#x41d;" horiz-adv-x="820" 
d="M780 629l-84 -33v-493l83 -32l-11 -71h-284l-10 71l84 31v220h-296v-220l82 -31l-10 -71h-282l-11 71l83 31v494l-84 33l10 71h286l10 -71l-84 -33v-197h296v197l-84 33l10 71h286z" />
    <glyph glyph-name="K" unicode="K" horiz-adv-x="728" 
d="M257 596v-492l84 -32l-10 -72h-286l-10 71l84 33v492l-84 34l11 70h285l10 -71zM481 0l9 54l-191 286v53l199 203l-63 33l12 71h241l11 -71c-61 -17 -106 -48 -129 -72l-177 -180l68 -32l164 -242l87 -32l-11 -71h-220z" />
    <glyph glyph-name="L" unicode="L" horiz-adv-x="586" 
d="M45 700h286l11 -71l-85 -33v-525h193l55 150l71 -10v-211h-531l-10 71l84 32v493l-84 33z" />
    <glyph glyph-name="M" unicode="M" horiz-adv-x="965" 
d="M665 487l-178 -487l-75 -17l-175 479l-45 -359l81 -32l-10 -71h-222l-12 71l85 32l58 493l-83 33l11 71h201l162 -437v-100l198 537h206l12 -71l-84 -33l48 -494l83 -31l-10 -71h-283l-10 71l81 31z" />
    <glyph glyph-name="N" unicode="N" horiz-adv-x="746" 
d="M25 71l83 32v493l-84 33l10 71h208l281 -415l36 -104v415l-83 33l10 71h223l10 -71l-83 -33v-596l-83 -17l-368 549v-430l83 -31l-11 -71h-221z" />
    <glyph glyph-name="O" unicode="O" 
d="M405 717c223 0 344 -161 344 -367s-105 -367 -344 -367s-345 183 -345 367s122 367 345 367zM405 633c-128 0 -195 -89 -195 -278s65 -288 195 -288c131 0 196 104 196 288s-68 278 -196 278z" />
    <glyph glyph-name="P" unicode="P" horiz-adv-x="634" 
d="M259 629v-527l114 -31l-11 -71h-314l-11 71l84 31v494l-86 33l12 71h330c150 0 227 -88 227 -222c0 -162 -123 -215 -263 -215h-40v78h43c78 0 125 68 125 137c0 83 -34 151 -123 151h-87z" />
    <glyph glyph-name="Q" unicode="Q" 
d="M600 355c0 184 -68 278 -196 278s-195 -89 -195 -278s65 -288 195 -288c108 0 196 104 196 288zM748 350c0 -125 -61 -313 -273 -393c84 0 102 -40 162 -40c16 0 37 6 67 26l45 -36l-106 -100c-110 0 -136 67 -223 67c-64 0 -121 -18 -182 -44l-40 68
c62 30 116 60 154 89c-212 18 -292 188 -292 363c0 184 121 367 344 367s344 -161 344 -367z" />
    <glyph glyph-name="R" unicode="R" horiz-adv-x="690" 
d="M258 629v-526l83 -32l-11 -71h-282l-11 71l82 31v494l-84 33l12 71h345c150 0 231 -77 231 -201c0 -109 -111 -186 -208 -186l66 -34l100 -177l87 -31l-11 -71h-219l10 55l-148 258v63h64c77 0 125 65 125 123c0 73 -44 130 -133 130h-98z" />
    <glyph glyph-name="S" unicode="S" horiz-adv-x="582" 
d="M50 527c0 127 116 190 244 190c78 0 152 -27 214 -64v-156l-72 -11l-47 134c-27 8 -65 13 -95 13c-73 0 -118 -33 -118 -89c0 -73 119 -112 157 -131c105 -44 205 -110 205 -230c0 -116 -85 -200 -264 -200c-82 0 -165 25 -221 65v162l71 10l51 -131
c23 -11 66 -22 92 -22c81 0 146 31 146 85c0 79 -119 118 -188 152c-77 38 -175 83 -175 223z" />
    <glyph glyph-name="afii10028" unicode="&#x41a;" horiz-adv-x="728" 
d="M257 596v-492l84 -32l-10 -72h-286l-10 71l84 33v492l-84 34l11 70h285l10 -71zM481 0l9 54l-191 286v53l199 203l-63 33l12 71h241l11 -71c-61 -17 -106 -48 -129 -72l-177 -180l68 -32l164 -242l87 -32l-11 -71h-220z" />
    <glyph glyph-name="afii10030" unicode="&#x41c;" horiz-adv-x="965" 
d="M665 487l-178 -487l-75 -17l-175 479l-45 -359l81 -32l-10 -71h-222l-12 71l85 32l58 493l-83 33l11 71h201l162 -437v-100l198 537h206l12 -71l-84 -33l48 -494l83 -31l-10 -71h-283l-10 71l81 31z" />
    <glyph glyph-name="afii10032" unicode="&#x41e;" 
d="M405 717c223 0 344 -161 344 -367s-105 -367 -344 -367s-345 183 -345 367s122 367 345 367zM405 633c-128 0 -195 -89 -195 -278s65 -288 195 -288c131 0 196 104 196 288s-68 278 -196 278z" />
    <glyph glyph-name="afii10034" unicode="&#x420;" horiz-adv-x="634" 
d="M259 629v-527l114 -31l-11 -71h-314l-11 71l84 31v494l-86 33l12 71h330c150 0 227 -88 227 -222c0 -162 -123 -215 -263 -215h-40v78h43c78 0 125 68 125 137c0 83 -34 151 -123 151h-87z" />
    <glyph glyph-name="T" unicode="T" horiz-adv-x="679" 
d="M40 496v204h599v-204l-71 -11l-53 144h-107v-527l84 -31l-10 -71h-286l-10 71l84 31v527h-106l-53 -144z" />
    <glyph glyph-name="U" unicode="U" horiz-adv-x="750" 
d="M391 -17c-138 0 -277 55 -277 316v297l-84 33l10 71h286l10 -71l-84 -33v-303c0 -160 50 -226 155 -226c106 0 168 75 168 224v305l-86 33l12 71h224l10 -71l-84 -33v-297c0 -259 -131 -316 -260 -316z" />
    <glyph glyph-name="V" unicode="V" horiz-adv-x="718" 
d="M624 596l-219 -596l-77 -17l-234 613l-89 33l12 71h291l11 -71l-77 -33l130 -333v-117l171 450l-79 33l12 71h226l11 -71z" />
    <glyph glyph-name="W" unicode="W" horiz-adv-x="1036" 
d="M663 -17l-126 402v119l-159 -504l-98 -17l-188 613l-88 33l10 71h289l12 -71l-81 -33l101 -316v-140l177 560l70 17l136 -437v-135l147 451l-80 33l11 71h226l11 -71l-89 -33l-185 -596z" />
    <glyph glyph-name="X" unicode="X" horiz-adv-x="697" 
d="M343 278l-145 -176l69 -31l-11 -71h-234l-11 71l86 31l183 223l-183 271l-87 33l11 71h304l10 -71l-73 -33l92 -128v-45l143 173l-67 33l10 71h237l10 -71l-90 -33l-181 -224l182 -270l87 -31l-11 -71h-302l-11 71l72 31l-90 126v50z" />
    <glyph glyph-name="Y" unicode="Y" horiz-adv-x="685" 
d="M291 102v155l-198 339l-88 33l11 71h299l11 -72l-75 -32l106 -176v-63l144 239l-73 33l10 71h231l11 -71l-90 -33l-161 -274v-220l83 -31l-12 -71h-282l-11 71z" />
    <glyph glyph-name="Z" unicode="Z" horiz-adv-x="642" 
d="M175 71h322l54 150l71 -11v-210h-547l-45 71l379 498l76 60h-281l-51 -144l-71 11v204h486l54 -71l-372 -505z" />
    <glyph glyph-name="afii10036" unicode="&#x422;" horiz-adv-x="679" 
d="M40 496v204h599v-204l-71 -11l-53 144h-107v-527l84 -31l-10 -71h-286l-10 71l84 31v527h-106l-53 -144z" />
    <glyph glyph-name="afii10039" unicode="&#x425;" horiz-adv-x="697" 
d="M343 278l-145 -176l69 -31l-11 -71h-234l-11 71l86 31l183 223l-183 271l-87 33l11 71h304l10 -71l-73 -33l92 -128v-45l143 173l-67 33l10 71h237l10 -71l-90 -33l-181 -224l182 -270l87 -31l-11 -71h-302l-11 71l72 31l-90 126v50z" />
    <glyph glyph-name="afii10018" unicode="&#x411;" horiz-adv-x="637" 
d="M482 512l-42 117h-179v-558h46c97 0 140 67 140 151s-44 124 -125 124h-24v79h48c126 0 250 -51 250 -203c0 -121 -55 -222 -249 -222h-297l-11 71l85 31v494l-85 33l12 71h502v-178z" />
    <glyph glyph-name="afii10020" unicode="&#x413;" horiz-adv-x="568" 
d="M249 629v-527l112 -31l-10 -71h-304l-10 71l82 31v494l-84 33l12 71h496v-203l-71 -11l-54 143h-169z" />
    <glyph glyph-name="afii10021" unicode="&#x414;" horiz-adv-x="718" 
d="M589 71h72v-235l-71 -10l-64 174h-376l-65 -174l-71 10v235h66c86 87 121 315 123 525l-85 33l12 71h530l13 -70l-84 -34v-525zM450 71v558h-160c-1 -222 -31 -437 -102 -558h262z" />
    <glyph glyph-name="afii10024" unicode="&#x416;" horiz-adv-x="1020" 
d="M234 56l9 -56h-218l-10 71l86 31l142 227l76 43l-170 182c-26 28 -66 58 -129 75l12 71h247l12 -71l-61 -31l184 -199v-53zM574 102v495l84 32l-13 71h-272l-11 -71l84 -32v-494l-83 -32l10 -71h272l12 71zM786 56l-9 -56h218l10 71l-89 32l-139 226l-76 43l170 182
c26 28 61 56 129 75l-12 71h-247l-12 -71l61 -31l-184 -199v-53z" />
    <glyph glyph-name="afii10025" unicode="&#x417;" horiz-adv-x="572" 
d="M247 -17c-82 0 -167 25 -223 65v162l72 10l46 -132c31 -12 68 -21 105 -21c74 0 126 62 126 150c0 75 -57 129 -136 129h-63v79h45c56 0 120 47 120 109c0 64 -37 99 -93 99c-27 0 -65 -5 -93 -14l-48 -133l-71 11v155c73 42 155 65 212 65c173 0 242 -77 242 -174
c0 -74 -39 -125 -96 -152c72 -28 130 -90 130 -185c0 -117 -87 -223 -275 -223z" />
    <glyph glyph-name="afii10026" unicode="&#x418;" horiz-adv-x="845" 
d="M262 129v-26l84 -32l-12 -71h-282l-10 71l82 31v494l-84 33l12 71h283l13 -71l-86 -34v-252l-30 -110l350 332v32l-84 32l12 71h283l12 -71l-85 -31v-496l84 -31l-11 -71h-283l-10 71l82 31v261l39 105z" />
    <glyph glyph-name="afii10029" unicode="&#x41b;" horiz-adv-x="702" 
d="M295 461c0 -143 -33 -347 -107 -461h-167l-11 70c167 75 197 269 197 426v100l-84 33l11 71h516l12 -71l-84 -33v-494l83 -31l-11 -71h-283l-10 71l83 31v527h-145v-168z" />
    <glyph glyph-name="afii10033" unicode="&#x41f;" horiz-adv-x="810" 
d="M548 103v526h-286v-526l82 -32l-10 -71h-282l-11 71l83 32v493l-84 33l11 71h707l12 -71l-84 -33v-493l82 -32l-10 -71h-282l-11 71z" />
    <glyph glyph-name="afii10037" unicode="&#x423;" horiz-adv-x="574" 
d="M554 598l-197 -494c-18 -45 -40 -94 -82 -121l-147 19l-11 76c54 0 156 29 181 89l4 12l-22 5l-188 414l-87 31l13 71h292l11 -71l-77 -30l97 -207v-113l130 320l-76 30l12 71h224l13 -71z" />
    <glyph glyph-name="afii10038" unicode="&#x424;" horiz-adv-x="895" 
d="M306 717h284l11 -70l-84 -34v-20c18 3 34 4 54 4c173 0 269 -109 269 -241c0 -131 -84 -240 -269 -240c-17 0 -36 1 -54 4v-17l82 -32l-10 -71h-282l-11 71l83 32v17c-18 -3 -37 -4 -55 -4c-183 0 -269 109 -269 240c0 132 97 241 269 241c21 0 37 -1 55 -4v20l-84 34z
M517 517v-321c12 -2 20 -2 29 -2c115 0 160 74 160 166c0 126 -67 159 -160 159c-10 0 -18 0 -29 -2zM379 196v321c-8 1 -22 2 -29 2c-94 0 -160 -33 -160 -159c0 -92 44 -166 161 -166c8 0 16 0 28 2z" />
    <glyph glyph-name="afii10040" unicode="&#x426;" horiz-adv-x="805" 
d="M543 71v525l-84 34l10 71h285l11 -71l-84 -34v-525h82v-235l-71 -10l-65 174h-575l-11 71l83 31v494l-84 34l11 71h285l10 -71l-84 -34v-525h281z" />
    <glyph glyph-name="afii10041" unicode="&#x427;" horiz-adv-x="723" 
d="M243 598v-169c0 -57 55 -82 97 -82c37 0 94 12 121 26v225l-85 31l11 72h285l11 -72l-84 -31v-496l83 -31l-11 -71h-313l-10 71l113 31v183c-37 -13 -96 -20 -130 -20c-112 0 -227 60 -227 173v160l-84 31l13 71h282l12 -71z" />
    <glyph glyph-name="afii10042" unicode="&#x428;" horiz-adv-x="1072" 
d="M809 71v525l-84 33l11 72h284l12 -72l-84 -33v-494l82 -31l-11 -71h-971l-11 71l83 31v494l-84 33l10 72h285l11 -72l-84 -33v-525h207v525l-85 33l11 72h286l10 -72l-84 -33v-525h206z" />
    <glyph glyph-name="afii10043" unicode="&#x429;" horiz-adv-x="1072" 
d="M809 71v525l-84 33l11 72h284l12 -72l-84 -33v-525h82v-235l-71 -10l-64 174h-847l-11 71l83 31v494l-84 33l10 72h285l11 -72l-84 -33v-525h207v525l-85 33l11 72h286l10 -72l-84 -33v-525h206z" />
    <glyph glyph-name="afii10044" unicode="&#x42a;" horiz-adv-x="699" 
d="M186 102v527h-61l-44 -117l-71 10v178h386l12 -71l-84 -31v-527h45c97 0 140 72 140 156c0 85 -52 130 -133 130h-15v77h39c124 0 259 -55 259 -207c0 -121 -57 -227 -249 -227h-296l-11 71z" />
    <glyph glyph-name="afii10045" unicode="&#x42b;" horiz-adv-x="950" 
d="M830 596v-492l85 -33l-11 -71h-285l-11 71l84 32v493l-84 34l11 70h284l12 -70zM120 102v496l-85 31l12 71h284l11 -71l-84 -31v-527h56c95 0 139 67 139 151s-52 124 -134 124h-24v79h48c126 0 259 -51 259 -203c0 -121 -55 -222 -249 -222h-305l-11 71z" />
    <glyph glyph-name="afii10046" unicode="&#x42c;" horiz-adv-x="633" 
d="M120 102v496l-85 31l12 71h283l12 -71l-84 -31v-527h45c97 0 140 72 140 156c0 85 -52 130 -133 130h-15v77h39c124 0 259 -55 259 -207c0 -121 -57 -227 -249 -227h-296l-11 71z" />
    <glyph glyph-name="afii10047" unicode="&#x42d;" horiz-adv-x="692" 
d="M287 67c157 0 207 129 215 255h-130l-33 -82l-70 12v218l70 11l33 -81h129c-14 152 -89 233 -214 233c-30 0 -94 -5 -128 -15l-48 -132l-71 11v155c75 43 158 65 247 65c243 0 365 -183 365 -367s-106 -367 -365 -367c-82 0 -192 26 -247 66v161l71 10l50 -138
c33 -8 98 -15 126 -15z" />
    <glyph glyph-name="afii10048" unicode="&#x42e;" horiz-adv-x="1051" 
d="M692 717c224 0 319 -160 319 -367c0 -206 -80 -367 -319 -367c-227 0 -311 163 -319 337h-111v-218l85 -31l-11 -71h-285l-11 71l84 31v496l-84 31l12 71h284l11 -71l-85 -31v-202h112c15 168 113 321 318 321zM692 633c-128 0 -170 -89 -170 -277
c0 -190 40 -289 170 -289s170 104 170 289c0 183 -42 277 -170 277z" />
    <glyph glyph-name="afii10049" unicode="&#x42f;" horiz-adv-x="690" 
d="M446 103v526h-103c-90 0 -129 -60 -129 -134c0 -59 58 -113 136 -113h53v-64l-168 -263l10 -55h-223l-12 71l93 32l110 178l64 37c-93 4 -197 77 -197 177c0 125 77 205 227 205h350l11 -71l-84 -33v-493l84 -32l-11 -71h-285l-11 71z" />
    <glyph glyph-name="afii10023" unicode="&#x401;" horiz-adv-x="613" 
d="M416 876c35 0 65 -29 65 -65c0 -35 -30 -65 -65 -65s-65 30 -65 65c0 36 30 65 65 65zM228 876c36 0 65 -29 65 -65c0 -35 -29 -65 -65 -65c-35 0 -65 30 -65 65c0 36 30 65 65 65zM450 629h-193v-229h103l30 81l72 -10v-221l-71 -10l-31 81h-103v-250h197l53 150l71 -10
v-211h-531l-10 71l82 31v494l-84 33l11 71h515v-178l-72 -11z" />
    <glyph glyph-name="afii10027" unicode="&#x419;" horiz-adv-x="825" 
d="M586 900l37 -38c-46 -65 -123 -107 -190 -107c-72 0 -134 22 -182 89l63 66h51c20 -36 56 -63 99 -63c47 0 79 13 122 53zM262 129v-26l84 -32l-12 -71h-282l-10 71l82 31v494l-84 33l12 71h283l13 -71l-86 -34v-252l-30 -110l350 332v32l-84 32l12 71h283l12 -71
l-85 -31v-496l84 -31l-11 -71h-283l-10 71l82 31v261l39 105z" />
    <glyph glyph-name="afii10054" unicode="&#x405;" horiz-adv-x="582" 
d="M50 527c0 127 116 190 244 190c78 0 152 -27 214 -64v-156l-72 -11l-47 134c-27 8 -65 13 -95 13c-73 0 -118 -33 -118 -89c0 -73 119 -112 157 -131c105 -44 205 -110 205 -230c0 -116 -85 -200 -264 -200c-82 0 -165 25 -221 65v162l71 10l51 -131
c23 -11 66 -22 92 -22c81 0 146 31 146 85c0 79 -119 118 -188 152c-77 38 -175 83 -175 223z" />
    <glyph glyph-name="afii10058" unicode="&#x409;" horiz-adv-x="963" 
d="M295 461c0 -143 -33 -347 -107 -461h-167l-11 70c167 75 197 269 197 426v102l-84 31l11 71h526l12 -71l-84 -31v-527h45c97 0 140 72 140 156c0 85 -52 130 -133 130h-16v77h40c124 0 259 -55 259 -207c0 -121 -57 -227 -249 -227h-297l-10 71l83 31v527h-155v-168z" />
    <glyph glyph-name="afii10059" unicode="&#x40a;" horiz-adv-x="1069" 
d="M780 629l-83 -31v-527h45c97 0 140 72 140 156c0 85 -52 130 -133 130h-16v77h40c124 0 259 -55 259 -207c0 -121 -57 -227 -249 -227h-299l-10 71l84 31v220h-296v-219l82 -32l-10 -71h-282l-11 71l83 32v494l-84 32l10 71h286l10 -71l-84 -31v-199h296v198l-84 32
l10 71h286z" />
    <glyph glyph-name="afii10062" unicode="&#x40e;" horiz-adv-x="574" 
d="M486 900l37 -38c-46 -65 -123 -107 -190 -107c-72 0 -134 22 -182 89l63 66h51c20 -36 56 -63 99 -63c47 0 79 13 122 53zM554 598l-197 -494c-18 -45 -40 -94 -82 -121l-147 19l-11 76c54 0 156 29 181 89l4 12l-22 5l-188 414l-87 31l13 71h292l11 -71l-77 -30l97 -207
v-113l130 320l-76 30l12 71h224l13 -71z" />
    <glyph glyph-name="afii10055" unicode="&#x406;" horiz-adv-x="428" 
d="M283 596v-494l85 -31l-12 -71h-284l-12 71l85 31v494l-85 33l12 71h284l12 -71z" />
    <glyph glyph-name="afii10057" unicode="&#x408;" horiz-adv-x="396" 
d="M144 197v399l-85 33l12 71h284l11 -71l-85 -33v-423c0 -139 -49 -284 -248 -348l-38 64c135 91 149 203 149 308z" />
    <glyph glyph-name="afii10056" unicode="&#x407;" horiz-adv-x="428" 
d="M308 876c35 0 65 -29 65 -65c0 -35 -30 -65 -65 -65s-65 30 -65 65c0 36 30 65 65 65zM120 876c36 0 65 -29 65 -65c0 -35 -29 -65 -65 -65c-35 0 -65 30 -65 65c0 36 30 65 65 65zM283 596v-494l85 -31l-12 -71h-284l-12 71l85 31v494l-85 33l12 71h284l12 -71z" />
    <glyph glyph-name="a" unicode="a" horiz-adv-x="508" 
d="M68 340v96c58 29 118 42 168 42c129 0 206 -67 206 -188v-207l56 -22l-12 -61h-127l-30 23c-30 -21 -71 -34 -129 -34c-90 0 -169 48 -169 139c0 136 159 167 285 167v35c0 57 -41 85 -85 85c-24 0 -55 -6 -74 -11l-22 -76zM316 102v131c-93 0 -148 -39 -148 -96
s41 -75 69 -75c27 0 62 15 79 40z" />
    <glyph glyph-name="b" unicode="b" horiz-adv-x="572" 
d="M226 396v72c24 7 59 10 79 10c151 0 227 -74 227 -234c0 -153 -94 -255 -256 -255c-83 0 -150 17 -207 52v634h-56l-11 57l134 15l58 -15v-657c21 -8 48 -13 76 -13c72 0 127 73 127 193c0 116 -44 151 -100 151c-17 0 -47 -3 -71 -10z" />
    <glyph glyph-name="c" unicode="c" horiz-adv-x="514" 
d="M313 415c-81 0 -136 -61 -136 -163c0 -105 35 -190 137 -190c44 0 100 16 144 46l34 -51c-49 -45 -117 -68 -183 -68c-180 0 -269 97 -269 244c0 154 113 245 271 245c48 0 108 -13 166 -42v-96l-67 -12l-21 75c-21 8 -57 12 -76 12z" />
    <glyph glyph-name="d" unicode="d" horiz-adv-x="571" 
d="M375 93v293c-21 12 -56 20 -81 20c-78 0 -123 -62 -123 -166c0 -105 50 -178 118 -178c30 0 64 9 86 31zM418 0l-30 23c-22 -18 -66 -34 -105 -34c-161 0 -248 93 -248 241s104 248 253 248c26 0 61 -5 87 -13v210h-54l-11 57l132 15l59 -15v-649l65 -22l-12 -61h-136z
" />
    <glyph glyph-name="e" unicode="e" horiz-adv-x="549" 
d="M180 294h205c2 10 3 20 3 29c0 59 -40 92 -92 92c-65 0 -107 -49 -116 -121zM318 62c51 0 103 12 154 46l34 -51c-64 -52 -127 -68 -193 -68c-190 0 -273 97 -273 245c0 153 113 244 256 244c120 0 218 -64 218 -162c0 -27 -10 -63 -22 -84h-315c2 -100 55 -170 141 -170
z" />
    <glyph glyph-name="f" unicode="f" horiz-adv-x="413" 
d="M311 747c53 0 92 -14 137 -48v-94l-67 -13l-22 83c-10 5 -31 9 -44 9c-44 0 -87 -24 -87 -115v-102h116l-11 -61h-105v-323l94 -22l-12 -61h-260l-12 61l64 22v323h-72l-10 55l82 24v65c0 114 82 197 209 197z" />
    <glyph glyph-name="g" unicode="g" horiz-adv-x="482" 
d="M195 108l88 -31c100 -35 171 -73 171 -157c0 -119 -114 -170 -236 -170c-98 0 -194 34 -194 122c0 53 53 96 106 114l36 -44c-31 -17 -44 -46 -44 -65c0 -31 38 -56 96 -56c56 0 106 30 106 73c0 38 -47 68 -88 81l-102 33c-35 12 -79 34 -79 85l48 80
c-42 30 -61 73 -61 131c0 93 83 174 204 174c29 0 62 -4 88 -11l138 12l-15 -73h-58l45 -28c10 -22 15 -47 15 -74c0 -115 -94 -172 -220 -172c-24 0 -49 2 -70 8l-3 -8c1 -11 12 -19 29 -24zM246 415c-48 0 -85 -35 -85 -108c0 -74 36 -112 85 -112c51 0 92 35 92 114
c0 84 -48 106 -92 106z" />
    <glyph glyph-name="h" unicode="h" horiz-adv-x="602" 
d="M208 83l63 -22l-12 -61h-227l-12 61l62 22v592h-55l-12 57l134 15l59 -15v-280c28 13 81 26 113 26c113 0 188 -50 188 -159v-236l63 -22l-12 -61h-229l-12 61l64 22v250c0 52 -32 72 -69 72c-34 0 -79 -9 -106 -20v-302z" />
    <glyph glyph-name="i" unicode="i" horiz-adv-x="334" 
d="M230 83l64 -22l-12 -61h-230l-12 61l64 22v323h-46l-11 61l122 11l61 -11v-384zM159 697c36 0 65 -29 65 -65c0 -35 -29 -65 -65 -65c-35 0 -65 30 -65 65c0 36 30 65 65 65z" />
    <glyph glyph-name="j" unicode="j" horiz-adv-x="301" 
d="M33 467l135 11l59 -11v-387c0 -136 -38 -264 -238 -330l-34 57c134 88 146 182 146 289v310h-55zM156 697c36 0 65 -29 65 -65c0 -35 -29 -65 -65 -65c-35 0 -65 30 -65 65c0 36 30 65 65 65z" />
    <glyph glyph-name="k" unicode="k" horiz-adv-x="592" 
d="M555 467h-202l-14 -61l50 -22l-128 -123v-39l124 -171l-10 -51h195l12 61l-73 22l-106 150l-60 13l119 113c20 20 53 37 105 47zM230 83l63 -22l-12 -61h-229l-12 61l64 22v592h-44l-12 57l123 15l59 -15v-649z" />
    <glyph glyph-name="l" unicode="l" horiz-adv-x="344" 
d="M235 83l69 -22l-12 -61h-240l-12 61l69 22v592h-52l-11 57l130 15l59 -15v-649z" />
    <glyph glyph-name="m" unicode="m" horiz-adv-x="905" 
d="M516 310v-227l64 -22l-12 -61h-229l-12 61l63 22v244c0 52 -40 79 -79 79c-26 0 -61 -11 -87 -20v-303l63 -22l-12 -61h-228l-12 61l63 22v323h-45l-11 61l125 11l41 -26c33 11 83 26 125 26c54 0 102 -10 131 -37c33 18 93 37 143 37c130 0 199 -60 199 -169v-226
l64 -22l-12 -61h-228l-12 61l63 22v235c0 59 -49 88 -91 88c-37 0 -70 -11 -89 -20c10 -24 15 -46 15 -76z" />
    <glyph glyph-name="n" unicode="n" horiz-adv-x="624" 
d="M311 406c-26 0 -61 -11 -87 -20v-303l64 -22l-11 -61h-231l-11 61l63 22v323h-45l-11 61l128 11l41 -26c33 11 83 26 125 26c116 0 190 -60 190 -169v-226l63 -22l-12 -61h-228l-12 61l63 22v241c0 52 -45 82 -89 82z" />
    <glyph glyph-name="o" unicode="o" horiz-adv-x="579" 
d="M290 478c151 0 249 -91 249 -244s-87 -244 -249 -244c-161 0 -250 95 -250 244s98 244 250 244zM290 415c-74 0 -121 -68 -121 -178s43 -184 121 -184c76 0 122 73 122 184c0 112 -48 178 -122 178z" />
    <glyph glyph-name="p" unicode="p" horiz-adv-x="574" 
d="M236 0v61h19c65 0 142 73 142 193c0 116 -43 152 -99 152c-33 0 -70 -7 -104 -20v-542l64 -22l-12 -61h-228l-12 61l63 22v562h-55l-12 61l134 11l43 -31c31 14 83 31 127 31c142 0 228 -77 228 -231c0 -148 -122 -247 -277 -247h-21z" />
    <glyph glyph-name="q" unicode="q" horiz-adv-x="570" 
d="M379 -156v168c-25 -13 -67 -22 -106 -22c-155 0 -233 84 -233 238c0 148 96 249 257 249c34 0 75 -6 102 -15l42 16l64 -11v-623l63 -22l-12 -61h-244l-12 61zM283 61c31 0 74 14 96 41v291c-23 8 -56 13 -80 13c-73 0 -121 -68 -121 -178c0 -109 47 -167 105 -167z" />
    <glyph glyph-name="r" unicode="r" horiz-adv-x="454" 
d="M444 340l-67 -12l-23 74c-7 2 -26 4 -40 4c-20 0 -61 -9 -90 -20v-303l83 -22l-12 -61h-248l-12 61l63 22v323h-45l-12 61l130 11l41 -26c31 11 83 26 129 26c31 0 65 -7 103 -22v-116z" />
    <glyph glyph-name="s" unicode="s" horiz-adv-x="452" 
d="M213 -10c-44 0 -116 13 -173 41v118l67 13l34 -99c16 -6 51 -10 64 -10c49 0 92 17 92 54c0 32 -54 60 -99 81c-66 31 -156 73 -156 160c0 85 78 130 198 130c55 0 111 -16 154 -42v-96l-68 -12l-21 77c-24 6 -51 10 -75 10c-40 0 -73 -22 -73 -52c0 -39 80 -62 130 -86
c69 -33 125 -65 125 -142c0 -88 -78 -145 -199 -145z" />
    <glyph glyph-name="t" unicode="t" horiz-adv-x="374" 
d="M203 573v-106h132l-12 -61h-120v-289c0 -34 25 -55 43 -55c25 0 58 19 85 48l43 -53c-39 -40 -81 -67 -144 -67c-100 0 -153 59 -153 135v281h-57l-10 55l75 23l43 106z" />
    <glyph glyph-name="u" unicode="u" horiz-adv-x="589" 
d="M384 100v306h-42l-11 59l129 13l50 -15v-380l64 -22l-12 -61h-136l-30 23c-38 -27 -83 -34 -132 -34c-115 0 -182 74 -182 183v234h-41l-11 59l120 13l58 -14v-301c0 -75 50 -101 91 -101c27 0 65 14 85 38z" />
    <glyph glyph-name="v" unicode="v" horiz-adv-x="586" 
d="M505 384l-156 -384l-92 -11l-172 395l-65 22l12 61h234l12 -61l-57 -22l86 -192v-91l124 284l-60 21l12 61h176l12 -61z" />
    <glyph glyph-name="w" unicode="w" horiz-adv-x="831" 
d="M514 -10l-86 267v80l-111 -337l-113 -10l-123 394l-69 22l12 61h233l12 -61l-59 -22l64 -192v-86l117 360l102 13l91 -287v-66l89 258l-60 22l12 61h178l12 -61l-69 -22l-124 -384z" />
    <glyph glyph-name="x" unicode="x" horiz-adv-x="553" 
d="M543 406l-75 -22l-117 -145l111 -156l75 -22l-12 -61h-251l-12 61l51 22l-49 69v37l-88 -106l48 -22l-12 -61h-190l-12 61l76 22l111 137l-112 164l-71 22l12 61h249l12 -61l-51 -22l49 -71v-43l92 114l-55 22l12 61h197z" />
    <glyph glyph-name="y" unicode="y" horiz-adv-x="608" 
d="M524 384l-171 -488c-15 -43 -57 -120 -94 -146l-135 11l-11 60c53 8 135 26 170 116l20 52l-31 11l-181 384l-73 22l12 61h258l12 -61l-77 -22l113 -221v-83l106 304l-68 22l12 61h195l12 -61z" />
    <glyph glyph-name="z" unicode="z" horiz-adv-x="484" 
d="M54 467h356l49 -61l-263 -311l-74 -34h224l31 101l67 -13v-149h-389l-30 61l254 308l71 37h-205l-24 -78l-67 12v127z" />
    <glyph glyph-name="afii10102" unicode="&#x455;" horiz-adv-x="452" 
d="M213 -10c-44 0 -116 13 -173 41v118l67 13l34 -99c16 -6 51 -10 64 -10c49 0 92 17 92 54c0 32 -54 60 -99 81c-66 31 -156 73 -156 160c0 85 78 130 198 130c55 0 111 -16 154 -42v-96l-68 -12l-21 77c-24 6 -51 10 -75 10c-40 0 -73 -22 -73 -52c0 -39 80 -62 130 -86
c69 -33 125 -65 125 -142c0 -88 -78 -145 -199 -145z" />
    <glyph glyph-name="afii10105" unicode="&#x458;" horiz-adv-x="301" 
d="M33 467l135 11l59 -11v-387c0 -136 -38 -264 -238 -330l-34 57c134 88 146 182 146 289v310h-55zM156 697c36 0 65 -29 65 -65c0 -35 -29 -65 -65 -65c-35 0 -65 30 -65 65c0 36 30 65 65 65z" />
    <glyph glyph-name="afii10065" unicode="&#x430;" horiz-adv-x="508" 
d="M68 340v96c58 29 118 42 168 42c129 0 206 -67 206 -188v-207l56 -22l-12 -61h-127l-30 23c-30 -21 -71 -34 -129 -34c-90 0 -169 48 -169 139c0 136 159 167 285 167v35c0 57 -41 85 -85 85c-24 0 -55 -6 -74 -11l-22 -76zM316 102v131c-93 0 -148 -39 -148 -96
s41 -75 69 -75c27 0 62 15 79 40z" />
    <glyph glyph-name="afii10070" unicode="&#x435;" horiz-adv-x="549" 
d="M180 294h205c2 10 3 20 3 29c0 59 -40 92 -92 92c-65 0 -107 -49 -116 -121zM318 62c51 0 103 12 154 46l34 -51c-64 -52 -127 -68 -193 -68c-190 0 -273 97 -273 245c0 153 113 244 256 244c120 0 218 -64 218 -162c0 -27 -10 -63 -22 -84h-315c2 -100 55 -170 141 -170
z" />
    <glyph glyph-name="afii10080" unicode="&#x43e;" horiz-adv-x="579" 
d="M290 478c151 0 249 -91 249 -244s-87 -244 -249 -244c-161 0 -250 95 -250 244s98 244 250 244zM290 415c-74 0 -121 -68 -121 -178s43 -184 121 -184c76 0 122 73 122 184c0 112 -48 178 -122 178z" />
    <glyph glyph-name="afii10082" unicode="&#x440;" horiz-adv-x="574" 
d="M236 0v61h19c65 0 142 73 142 193c0 116 -43 152 -99 152c-33 0 -70 -7 -104 -20v-542l64 -22l-12 -61h-228l-12 61l63 22v562h-55l-12 61l134 11l43 -31c31 14 83 31 127 31c142 0 228 -77 228 -231c0 -148 -122 -247 -277 -247h-21z" />
    <glyph glyph-name="afii10083" unicode="&#x441;" horiz-adv-x="514" 
d="M313 415c-81 0 -136 -61 -136 -163c0 -105 35 -190 137 -190c44 0 100 16 144 46l34 -51c-49 -45 -117 -68 -183 -68c-180 0 -269 97 -269 244c0 154 113 245 271 245c48 0 108 -13 166 -42v-96l-67 -12l-21 75c-21 8 -57 12 -76 12z" />
    <glyph glyph-name="afii10085" unicode="&#x443;" horiz-adv-x="608" 
d="M524 384l-171 -488c-15 -43 -57 -120 -94 -146l-135 11l-11 60c53 8 135 26 170 116l20 52l-31 11l-181 384l-73 22l12 61h258l12 -61l-77 -22l113 -221v-83l106 304l-68 22l12 61h195l12 -61z" />
    <glyph glyph-name="afii10087" unicode="&#x445;" horiz-adv-x="553" 
d="M543 406l-75 -22l-117 -145l111 -156l75 -22l-12 -61h-251l-12 61l51 22l-49 69v37l-88 -106l48 -22l-12 -61h-190l-12 61l76 22l111 137l-112 164l-71 22l12 61h249l12 -61l-51 -22l49 -71v-43l92 114l-55 22l12 61h197z" />
    <glyph glyph-name="afii10103" unicode="&#x456;" horiz-adv-x="334" 
d="M230 83l64 -22l-12 -61h-230l-12 61l64 22v323h-46l-11 61l122 11l61 -11v-384zM159 697c36 0 65 -29 65 -65c0 -35 -29 -65 -65 -65c-35 0 -65 30 -65 65c0 36 30 65 65 65z" />
    <glyph glyph-name="afii10071" unicode="&#x451;" horiz-adv-x="549" 
d="M392 697c35 0 65 -29 65 -65c0 -35 -30 -65 -65 -65s-65 30 -65 65c0 36 30 65 65 65zM204 697c36 0 65 -29 65 -65c0 -35 -29 -65 -65 -65c-35 0 -65 30 -65 65c0 36 30 65 65 65zM180 294h205c2 10 3 20 3 29c0 59 -40 92 -92 92c-65 0 -107 -49 -116 -121zM318 62
c51 0 103 12 154 46l34 -51c-64 -52 -127 -68 -193 -68c-190 0 -273 97 -273 245c0 153 113 244 256 244c120 0 218 -64 218 -162c0 -27 -10 -63 -22 -84h-315c2 -100 55 -170 141 -170z" />
    <glyph glyph-name="afii10104" unicode="&#x457;" horiz-adv-x="334" 
d="M261 697c35 0 65 -29 65 -65c0 -35 -30 -65 -65 -65s-65 30 -65 65c0 36 30 65 65 65zM73 697c36 0 65 -29 65 -65c0 -35 -29 -65 -65 -65c-35 0 -65 30 -65 65c0 36 30 65 65 65zM230 83l64 -21l-12 -62h-230l-12 62l64 21v323h-46l-11 61l122 11l61 -11v-384z" />
    <glyph glyph-name="afii10066" unicode="&#x431;" horiz-adv-x="548" 
d="M274 415c-67 0 -112 -65 -112 -178c0 -101 38 -185 112 -185c71 0 102 82 102 185c0 113 -36 178 -102 178zM274 478c151 0 239 -101 239 -244c0 -144 -88 -245 -239 -245c-163 0 -239 125 -239 272c0 239 50 393 284 435c39 7 71 15 84 54h68
c-12 -130 -52 -154 -197 -188c-62 -15 -108 -44 -125 -83l-5 -43c34 25 88 42 130 42z" />
    <glyph glyph-name="afii10067" unicode="&#x432;" horiz-adv-x="553" 
d="M263 225v63h12c33 0 59 26 59 61c0 34 -26 57 -59 57h-54v-345h75c45 0 81 34 81 80c0 47 -36 84 -81 84h-33zM373 0h-330l-12 61l64 22v301l-65 22l12 61h310c66 0 118 -51 118 -113c0 -35 -20 -71 -48 -92c54 -20 91 -69 91 -128c0 -74 -63 -134 -140 -134z" />
    <glyph glyph-name="afii10068" unicode="&#x433;" horiz-adv-x="441" 
d="M220 406v-323l63 -22l-12 -61h-227l-12 61l63 22v301l-65 22l12 61h379v-127l-68 -12l-22 78h-111z" />
    <glyph glyph-name="afii10069" unicode="&#x434;" horiz-adv-x="552" 
d="M447 61h53v-185l-67 -6l-39 130h-278l-38 -130l-68 12v179h51c53 55 76 187 77 323l-65 22l12 61h415l12 -61l-65 -22v-323zM321 61v345h-104c0 -150 -19 -267 -66 -345h170z" />
    <glyph glyph-name="afii10072" unicode="&#x436;" horiz-adv-x="775" 
d="M239 262l-108 97c-33 30 -65 41 -103 47l12 61h182l12 -61l-40 -22l110 -99h26v99l-57 22l12 61h204l12 -61l-56 -22v-99h26l109 99l-40 22l12 61h182l12 -61c-51 -8 -79 -27 -102 -48l-108 -96l68 -30l88 -149l73 -22l-12 -61h-194l10 52l-102 171l-22 9v-149l63 -22
l-12 -61h-218l-12 61l64 23v148l-22 -9l-103 -171l11 -52h-194l-12 61l73 22l88 149z" />
    <glyph glyph-name="afii10073" unicode="&#x437;" horiz-adv-x="435" 
d="M198 -10c-48 0 -115 13 -173 41v118l68 13l27 -99c18 -7 52 -10 68 -10c47 0 82 40 82 90c0 46 -42 82 -88 82h-47v62h37c33 0 75 28 75 70c0 43 -31 58 -61 58c-19 0 -50 -5 -67 -11l-21 -75l-67 12v95c57 28 119 42 168 42c104 0 174 -52 174 -117
c0 -48 -22 -81 -58 -100c46 -19 81 -61 81 -122c0 -75 -70 -149 -198 -149z" />
    <glyph glyph-name="afii10074" unicode="&#x438;" horiz-adv-x="657" 
d="M225 97v-14l63 -22l-12 -61h-227l-12 61l63 22v301l-65 22l12 61h232l12 -61l-66 -22v-145l-24 -73l231 201v17l-65 22l12 61h231l12 -61l-65 -22v-301l63 -22l-12 -61h-229l-12 61l65 22v142l24 73z" />
    <glyph glyph-name="afii10076" unicode="&#x43a;" horiz-adv-x="562" 
d="M321 467h204l12 -61c-60 -9 -85 -27 -105 -47l-119 -113l60 -13l106 -150l73 -22l-12 -61h-195l10 51l-124 171v39l128 123l-50 22zM200 83l63 -22l-12 -61h-229l-12 61l64 22v323h-52l-12 61l131 15l59 -15v-384z" />
    <glyph glyph-name="afii10077" unicode="&#x43b;" horiz-adv-x="543" 
d="M230 306c0 -78 -23 -228 -74 -306h-134l-12 61c110 21 150 163 150 269v54l-65 22l12 61h389l12 -61l-65 -22v-301l63 -22l-12 -61h-228l-12 61l63 22v323h-87v-100z" />
    <glyph glyph-name="afii10075" unicode="&#x439;" horiz-adv-x="657" 
d="M225 97v-14l63 -22l-12 -61h-227l-12 61l63 22v301l-65 22l12 61h232l12 -61l-66 -22v-145l-24 -73l231 201v17l-65 22l12 61h231l12 -61l-65 -22v-301l63 -22l-12 -61h-229l-12 61l65 22v142l24 73zM492 716l37 -38c-46 -65 -123 -107 -190 -107c-72 0 -134 22 -182 89
l63 66h51c20 -36 56 -63 99 -63c47 0 79 13 122 53z" />
    <glyph glyph-name="afii10078" unicode="&#x43c;" horiz-adv-x="755" 
d="M508 290l-114 -290l-79 -10l-104 256v72l-43 -235l62 -22l-12 -61h-176l-12 61l66 22l47 301l-64 22l12 61h173l101 -250v-80l128 330h176l12 -61l-63 -22l39 -301l66 -22l-12 -61h-230l-12 61l62 22l-23 144v63z" />
    <glyph glyph-name="afii10079" unicode="&#x43d;" horiz-adv-x="652" 
d="M427 274v110l-65 22l12 61h231l12 -61l-64 -22v-301l63 -22l-12 -61h-229l-12 61l64 22v134h-202v-134l63 -22l-12 -61h-227l-12 61l62 22v301l-64 22l12 61h232l12 -61l-66 -22v-110h202z" />
    <glyph glyph-name="afii10081" unicode="&#x43f;" horiz-adv-x="624" 
d="M47 467h530l12 -61l-65 -22v-301l63 -22l-12 -61h-229l-12 61l64 23v322h-172v-323l63 -22l-12 -61h-228l-12 61l63 22v301l-65 22z" />
    <glyph glyph-name="afii10084" unicode="&#x442;" horiz-adv-x="484" 
d="M379 406h-76v-323l62 -22l-12 -61h-228l-12 61l63 22v323h-75l-23 -78l-68 12v127h459v-127l-68 -12z" />
    <glyph glyph-name="afii10086" unicode="&#x444;" horiz-adv-x="728" 
d="M301 61v344c-60 -9 -122 -61 -122 -168c0 -109 61 -167 122 -176zM301 -156v146c-149 6 -261 84 -261 244c0 161 120 227 261 233v208h-45l-10 60l122 12l59 -13v-267c141 -6 261 -72 261 -233c0 -160 -111 -238 -261 -244v-146l63 -22l-12 -61h-228l-12 61zM427 405
v-344c61 9 123 67 123 176c0 107 -64 159 -123 168z" />
    <glyph glyph-name="afii10088" unicode="&#x446;" horiz-adv-x="628" 
d="M528 61h63v-179l-68 -12l-38 130h-438l-12 61l65 22v301l-63 22l12 61h228l12 -61l-63 -22v-323h176v323l-65 22l12 61h230l12 -61l-63 -22v-323z" />
    <glyph glyph-name="afii10089" unicode="&#x447;" horiz-adv-x="580" 
d="M355 384l-60 22l12 61h226l12 -61l-64 -22v-301l63 -22l-12 -61h-228l-12 61l63 23v102c-26 -10 -72 -16 -103 -16c-113 0 -184 56 -184 165v50l-63 21l12 61h224l12 -61l-59 -22v-67c0 -52 29 -80 66 -80c25 0 73 4 95 15v132z" />
    <glyph glyph-name="afii10090" unicode="&#x448;" horiz-adv-x="875" 
d="M828 0h-781l-12 61l65 22v301l-63 22l12 61h228l12 -61l-63 -22v-323h150v323l-64 22l12 61h228l12 -61l-62 -22v-323h147v323l-63 22l12 61h229l12 -61l-64 -22v-301l65 -22z" />
    <glyph glyph-name="afii10091" unicode="&#x449;" horiz-adv-x="875" 
d="M734 0h-687l-12 61l65 22v301l-63 22l12 61h228l12 -61l-63 -22v-323h150v323l-64 22l12 61h228l12 -61l-62 -22v-323h147v323l-63 22l12 61h229l12 -61l-64 -22v-301l65 -22v-185l-67 -6z" />
    <glyph glyph-name="afii10092" unicode="&#x44a;" horiz-adv-x="577" 
d="M313 288h42c73 0 187 -31 187 -148c0 -74 -67 -140 -144 -140h-305l-12 61l63 22v323h-40l-24 -78l-67 12v127h310l12 -61l-65 -22v-323h64c43 0 73 38 73 86c0 47 -30 79 -73 79h-21v62z" />
    <glyph glyph-name="afii10093" unicode="&#x44b;" horiz-adv-x="780" 
d="M298 288c74 0 188 -31 188 -148c0 -74 -68 -140 -145 -140h-292l-12 61l63 22v301l-65 22l12 61h232l12 -61l-65 -22v-323h50c45 0 74 38 74 86c0 47 -29 79 -74 79h-7v62h29zM556 83v301l-63 22l12 61h228l12 -61l-63 -22v-302l63 -21l-12 -61h-228l-12 61z" />
    <glyph glyph-name="afii10094" unicode="&#x44c;" horiz-adv-x="533" 
d="M226 384v-323h64c43 0 73 38 73 86c0 47 -30 79 -73 79h-21v62h42c73 0 187 -31 187 -148c0 -74 -67 -140 -144 -140h-305l-12 61l63 22v301l-65 22l11 61h233l12 -61z" />
    <glyph glyph-name="afii10095" unicode="&#x44d;" horiz-adv-x="507" 
d="M159 206v65h171c-4 92 -59 143 -136 143c-20 0 -53 -3 -75 -11c-6 -22 -16 -54 -21 -75l-68 12v97c58 28 118 40 167 40c158 0 270 -90 270 -244c0 -147 -88 -243 -269 -243c-51 0 -112 14 -168 40v119l68 13l27 -99c18 -7 48 -10 66 -10c88 0 130 69 138 153h-170z" />
    <glyph glyph-name="afii10096" unicode="&#x44e;" horiz-adv-x="819" 
d="M98 83v301l-63 22l12 61h228l12 -61l-63 -22v-113h92c13 127 93 207 231 207c151 0 232 -91 232 -244s-69 -244 -232 -244c-150 0 -224 83 -232 216h-91v-123l63 -22l-12 -61h-228l-12 61zM547 415c-66 0 -94 -68 -94 -178s27 -184 94 -184s95 73 95 184
c0 112 -29 178 -95 178z" />
    <glyph glyph-name="afii10097" unicode="&#x44f;" horiz-adv-x="563" 
d="M311 241v-46l-102 -149l9 -46h-190l-13 61l72 22l57 86l46 26c-63 16 -123 52 -123 128c0 84 54 144 157 144h292l12 -61l-59 -22v-301l57 -22l-12 -61h-215l-12 61l56 22v323h-64c-55 0 -78 -37 -78 -84c0 -39 35 -81 83 -81h27z" />
    <glyph glyph-name="afii10106" unicode="&#x459;" horiz-adv-x="750" 
d="M230 306c0 -78 -23 -228 -74 -306h-134l-12 61c110 21 150 163 150 269v54l-65 22l12 61h389l12 -61l-65 -22v-323h64c43 0 73 38 73 86c0 47 -30 79 -73 79h-21v62h42c73 0 187 -31 187 -148c0 -74 -67 -140 -144 -140h-305l-12 61l63 22v323h-87v-100z" />
    <glyph glyph-name="afii10107" unicode="&#x45a;" horiz-adv-x="855" 
d="M427 274v110l-65 22l12 61h231l12 -61l-64 -22v-323h64c43 0 73 38 73 86c0 47 -30 79 -73 79h-21v62h42c73 0 187 -31 187 -148c0 -74 -67 -140 -144 -140h-306l-12 61l64 22v134h-202v-134l63 -22l-12 -61h-227l-12 61l62 22v301l-64 22l12 61h232l12 -61l-66 -22v-110
h202z" />
    <glyph glyph-name="afii10110" unicode="&#x45e;" horiz-adv-x="608" 
d="M491 716l37 -38c-46 -65 -123 -107 -190 -107c-72 0 -134 22 -182 89l63 66h51c20 -36 56 -63 99 -63c47 0 79 13 122 53zM524 384l-171 -488c-15 -43 -57 -120 -94 -146l-135 11l-11 60c53 8 135 26 170 116l20 52l-31 11l-181 384l-73 22l12 61h258l12 -61l-77 -22
l113 -221v-83l106 304l-68 22l12 61h195l12 -61z" />
    <glyph glyph-name="zero" unicode="0" horiz-adv-x="628" 
d="M316 655c181 0 245 -176 245 -332s-52 -333 -245 -333c-191 0 -250 171 -250 333s69 332 250 332zM316 581c-79 0 -110 -128 -110 -254s34 -263 110 -263s106 136 106 263s-26 254 -106 254z" />
    <glyph glyph-name="one" unicode="1" horiz-adv-x="425" 
d="M62 0l-12 70l110 19v445h-102l-13 70l177 40h68v-555l106 -20l-13 -69h-321z" />
    <glyph glyph-name="two" unicode="2" horiz-adv-x="536" 
d="M264 581c-23 0 -55 -4 -76 -14l-30 -99l-67 13v133c59 28 124 41 176 41c131 0 196 -81 196 -174c0 -200 -253 -271 -286 -374h185l23 69l67 -13v-163h-380v53c0 179 259 258 259 439c0 66 -31 89 -67 89z" />
    <glyph glyph-name="three" unicode="3" horiz-adv-x="546" 
d="M464 590l-172 -198c88 -3 193 -64 193 -192c0 -127 -101 -210 -233 -210c-69 0 -133 25 -188 73l41 61c41 -32 94 -60 142 -60c57 0 109 58 109 133c0 73 -47 109 -129 109l-47 -9l-33 47l198 224l-83 -31h-89l-23 -70l-66 13v164h356z" />
    <glyph glyph-name="four" unicode="4" horiz-adv-x="546" 
d="M268 242v120l43 133l-185 -253h142zM268 169h-219l-36 49l320 437l64 -17v-396h92l-18 -73h-74v-80l105 -20l-13 -69h-318l-12 70l109 19v80z" />
    <glyph glyph-name="five" unicode="5" horiz-adv-x="528" 
d="M185 540l-19 -145c28 15 65 23 96 23c88 0 198 -60 198 -205c0 -146 -102 -223 -234 -223c-67 0 -144 25 -197 73l40 61c45 -35 104 -60 151 -60c58 0 110 48 110 146c0 81 -32 134 -100 134c-37 0 -68 -12 -96 -30l-54 22l40 311h234l22 69l67 -13v-163h-258z" />
    <glyph glyph-name="six" unicode="6" horiz-adv-x="535" 
d="M426 589c-82 -41 -172 -96 -218 -198c30 17 64 26 91 26c93 0 186 -81 186 -201c0 -114 -85 -226 -217 -226c-141 0 -220 106 -220 247c0 224 172 367 342 418zM221 323l-24 40c-12 -36 -23 -78 -23 -125c0 -90 26 -174 94 -174c63 0 91 86 91 154c0 77 -37 125 -73 125
c-17 0 -41 -4 -65 -20z" />
    <glyph glyph-name="seven" unicode="7" horiz-adv-x="496" 
d="M107 0l262 568l-78 -32h-137l-22 -69l-67 13v164h393l23 -54l-252 -539v-51h-122z" />
    <glyph glyph-name="eight" unicode="8" horiz-adv-x="562" 
d="M375 161c0 60 -70 100 -117 127c-37 -27 -70 -66 -70 -127c0 -60 43 -97 93 -97s94 35 94 97zM299 402c30 21 59 58 59 101c0 57 -39 78 -77 78c-35 0 -76 -19 -76 -81c0 -41 51 -75 94 -98zM475 510c0 -67 -56 -118 -105 -150c59 -39 129 -96 129 -194
c0 -112 -111 -176 -218 -176c-106 0 -218 60 -218 171c0 84 69 136 124 171c-59 41 -106 100 -106 165c0 85 78 158 200 158c125 0 194 -70 194 -145z" />
    <glyph glyph-name="nine" unicode="9" horiz-adv-x="529" 
d="M129 55c71 35 140 103 183 187c-27 -12 -59 -21 -81 -21c-99 0 -185 87 -185 208c0 114 83 226 220 226c135 0 219 -88 219 -231c0 -175 -163 -375 -318 -435zM246 295c19 0 42 6 74 25l15 -24c13 39 21 85 21 128c0 101 -28 157 -90 157c-63 0 -90 -76 -90 -155
c0 -75 29 -131 70 -131z" />
    <glyph glyph-name="OE" unicode="&#x152;" horiz-adv-x="1015" 
d="M522 107v488c-30 25 -69 38 -117 38c-128 0 -195 -89 -195 -278s65 -288 195 -288c48 0 87 14 117 40zM980 0h-452c-36 -11 -77 -17 -123 -17c-239 0 -345 183 -345 367s122 367 345 367c43 0 83 -6 118 -17h440v-178l-72 -11l-39 118h-193v-229h103l30 81l72 -10v-221
l-71 -10l-31 81h-103v-250h197l53 150l71 -10v-211z" />
    <glyph glyph-name="ae" unicode="&#xe6;" horiz-adv-x="825" 
d="M594 62c51 0 103 12 154 46l34 -51c-64 -52 -127 -68 -193 -68c-85 0 -148 19 -193 53c-58 -40 -127 -53 -196 -53c-90 0 -169 48 -169 139c0 136 159 167 285 167v35c0 57 -41 85 -85 85c-24 0 -55 -6 -74 -11l-22 -76l-67 12v96c58 29 118 42 168 42
c71 0 126 -20 161 -59c46 38 107 59 175 59c120 0 218 -64 218 -162c0 -27 -10 -63 -22 -84h-315c2 -100 55 -170 141 -170zM316 102v131c-93 0 -148 -39 -148 -96s41 -75 69 -75c27 0 62 15 79 40zM456 294h205c2 10 3 20 3 29c0 59 -40 92 -92 92
c-65 0 -107 -49 -116 -121z" />
    <glyph glyph-name="oe" unicode="&#x153;" horiz-adv-x="921" 
d="M690 62c51 0 103 12 154 46l34 -51c-64 -52 -127 -68 -193 -68c-96 0 -164 24 -208 67c-42 -43 -105 -66 -187 -66c-161 0 -250 95 -250 244s98 244 250 244c80 0 145 -26 188 -72c47 46 114 72 190 72c120 0 218 -64 218 -162c0 -27 -10 -63 -22 -84h-315
c2 -100 55 -170 141 -170zM290 415c-74 0 -121 -68 -121 -178s43 -184 121 -184c76 0 122 73 122 184v8c-3 107 -50 170 -122 170zM552 294h205c2 10 3 20 3 29c0 59 -40 92 -92 92c-65 0 -107 -49 -116 -121z" />
    <glyph glyph-name="AE" unicode="&#xc6;" horiz-adv-x="1009" 
d="M846 629h-203v-229h113l30 81l72 -10v-221l-71 -10l-31 81h-113v-250h207l53 150l71 -10v-211h-541l-10 71l82 31v121h-268l-54 -121l85 -30l-10 -72h-242l-11 71l87 32l270 597h595v-178l-72 -11zM505 596l-84 33l-149 -328h233v295z" />
    <glyph glyph-name="period" unicode="." horiz-adv-x="237" 
d="M117 120c38 0 69 -31 69 -68c0 -38 -31 -69 -69 -69c-37 0 -68 31 -68 69c0 37 31 68 68 68z" />
    <glyph glyph-name="comma" unicode="," horiz-adv-x="237" 
d="M119 120c38 0 68 -31 68 -68c0 -99 -86 -205 -142 -233l-35 36c46 36 77 96 79 145h-15c-15 17 -23 34 -23 52c0 37 30 68 68 68z" />
    <glyph glyph-name="colon" unicode=":" horiz-adv-x="237" 
d="M118 120c38 0 69 -31 69 -68c0 -38 -31 -69 -69 -69c-37 0 -68 31 -68 69c0 37 31 68 68 68zM118 478c38 0 69 -31 69 -68c0 -38 -31 -69 -69 -69c-37 0 -68 31 -68 69c0 37 31 68 68 68z" />
    <glyph glyph-name="semicolon" unicode=";" horiz-adv-x="260" 
d="M141 478c38 0 69 -31 69 -68c0 -38 -31 -69 -69 -69c-37 0 -68 31 -68 69c0 37 31 68 68 68zM141 120c38 0 68 -31 68 -68c0 -99 -86 -205 -142 -233l-35 36c46 36 77 96 79 145h-15c-15 17 -23 34 -23 52c0 37 30 68 68 68z" />
    <glyph glyph-name="exclam" unicode="!" horiz-adv-x="313" 
d="M192 172h-71l-41 528l97 17l56 -17zM157 120c-37 0 -68 -31 -68 -68c0 -38 31 -69 68 -69c38 0 69 31 69 69c0 37 -31 68 -69 68z" />
    <glyph glyph-name="question" unicode="?" horiz-adv-x="417" 
d="M226 172h-74c-29 38 -36 99 -36 139c0 128 162 164 162 265c0 43 -35 70 -80 70c-22 0 -46 -12 -61 -24c-8 -24 -19 -59 -25 -81l-62 12v99c41 39 90 65 146 65c112 0 191 -48 191 -155c0 -158 -180 -185 -180 -295c0 -19 4 -46 19 -95zM198 120c-37 0 -68 -31 -68 -68
c0 -38 31 -69 68 -69c38 0 69 31 69 69c0 37 -31 68 -69 68z" />
    <glyph glyph-name="asterisk" unicode="*" horiz-adv-x="486" 
d="M97 637c30 -36 67 -69 101 -85c-12 33 -25 72 -25 102c0 14 0 27 1 42l85 21l49 -23c-24 -41 -41 -88 -46 -127c36 29 79 58 125 70l49 -74l-11 -49c-32 5 -52 7 -72 7c-18 0 -36 -2 -63 -6c41 -29 81 -67 106 -109l-59 -67l-50 -3c-4 47 -14 94 -31 126
c-13 -46 -34 -95 -63 -131l-78 30l-35 45c46 21 88 53 115 84c-48 0 -96 3 -145 26l7 85z" />
    <glyph glyph-name="ampersand" unicode="&#x26;" horiz-adv-x="662" 
d="M306 80c90 0 140 66 141 138c-37 -7 -72 -18 -86 -61c-4 1 -24 5 -53 13c19 199 201 111 264 228l59 -16c-12 -93 -52 -127 -98 -143c0 -111 -46 -250 -232 -250c-170 0 -251 78 -251 192c0 78 49 152 118 178c-41 26 -77 78 -77 134c0 91 82 162 203 162
c67 0 127 -22 188 -64v-110l-68 -13l-28 86c-19 12 -48 19 -79 19c-44 0 -90 -29 -90 -84c0 -44 53 -98 97 -98h30v-75h-47c-65 0 -118 -53 -118 -118s61 -118 127 -118z" />
    <glyph glyph-name="parenleft" unicode="(" horiz-adv-x="408" 
d="M388 -163v-80c-249 0 -328 312 -328 517c0 207 96 494 328 494v-80c-138 0 -198 -212 -198 -409s58 -442 198 -442z" />
    <glyph glyph-name="bracketleft" unicode="[" horiz-adv-x="342" 
d="M190 693v-859h112v-76h-232v1010h232v-75h-112z" />
    <glyph glyph-name="braceleft" unicode="{" horiz-adv-x="423" 
d="M331 693c-31 0 -56 -26 -56 -56v-218c0 -73 -28 -115 -79 -139c51 -23 79 -66 79 -138v-252c0 -32 25 -56 56 -56h52v-76h-65c-92 0 -167 76 -167 169v259c0 30 -26 56 -58 56h-33v76h33c32 0 58 25 58 56v226c0 93 75 168 167 168h65v-75h-52z" />
    <glyph glyph-name="parenright" unicode=")" horiz-adv-x="368" 
d="M20 -243v80c140 0 198 245 198 442s-60 409 -198 409v80c232 0 328 -287 328 -494c0 -205 -79 -517 -328 -517z" />
    <glyph glyph-name="braceright" unicode="}" horiz-adv-x="423" 
d="M92 693h-52v75h65c92 0 167 -75 167 -168v-226c0 -31 26 -56 58 -56h33v-76h-33c-32 0 -58 -26 -58 -56v-259c0 -93 -75 -169 -167 -169h-65v76h52c31 0 56 24 56 56v252c0 72 28 115 79 138c-51 24 -79 66 -79 139v218c0 30 -25 56 -56 56z" />
    <glyph glyph-name="bracketright" unicode="]" horiz-adv-x="342" 
d="M152 -166v859h-112v75h232v-1010h-232v76h112z" />
    <glyph glyph-name="quotedblbase" unicode="&#x201e;" horiz-adv-x="422" 
d="M132 120c38 0 68 -31 68 -68c0 -99 -86 -205 -142 -233l-35 36c46 36 77 96 79 145h-15c-15 17 -23 34 -23 52c0 37 30 68 68 68zM304 120c38 0 68 -31 68 -68c0 -99 -86 -205 -142 -233l-35 36c46 36 77 96 79 145h-15c-15 17 -23 34 -23 52c0 37 30 68 68 68z" />
    <glyph glyph-name="quotedblright" unicode="&#x201d;" horiz-adv-x="469" 
d="M159 776c38 0 68 -31 68 -68c0 -99 -86 -205 -142 -233l-35 36c46 36 77 96 79 145h-15c-15 17 -23 34 -23 52c0 37 30 68 68 68zM331 776c38 0 68 -31 68 -68c0 -99 -86 -205 -142 -233l-35 36c46 36 77 96 79 145h-15c-15 17 -23 34 -23 52c0 37 30 68 68 68z" />
    <glyph glyph-name="quotedblleft" unicode="&#x201c;" horiz-adv-x="469" 
d="M310 475c-38 0 -68 31 -68 68c0 99 86 205 142 233l35 -36c-46 -36 -77 -96 -79 -145h15c15 -17 23 -34 23 -52c0 -37 -30 -68 -68 -68zM138 475c-38 0 -68 31 -68 68c0 99 86 205 142 233l35 -36c-46 -36 -77 -96 -79 -145h15c15 -17 23 -34 23 -52
c0 -37 -30 -68 -68 -68z" />
    <glyph glyph-name="quoteright" unicode="&#x2019;" horiz-adv-x="297" 
d="M159 776c38 0 68 -31 68 -68c0 -99 -86 -205 -142 -233l-35 36c46 36 77 96 79 145h-15c-15 17 -23 34 -23 52c0 37 30 68 68 68z" />
    <glyph glyph-name="quoteleft" unicode="&#x2018;" horiz-adv-x="297" 
d="M138 475c-38 0 -68 31 -68 68c0 99 86 205 142 233l35 -36c-46 -36 -77 -96 -79 -145h15c15 -17 23 -34 23 -52c0 -37 -30 -68 -68 -68z" />
    <glyph glyph-name="exclamdown" unicode="&#xa1;" horiz-adv-x="313" 
d="M121 289h71l41 -528l-97 -17l-56 17zM156 341c-38 0 -69 31 -69 68c0 38 31 69 69 69c37 0 68 -31 68 -69c0 -37 -31 -68 -68 -68z" />
    <glyph glyph-name="questiondown" unicode="&#xbf;" horiz-adv-x="407" 
d="M203 289h74c29 -38 36 -99 36 -139c0 -128 -162 -164 -162 -265c0 -43 35 -70 80 -70c22 0 46 12 61 24c8 24 19 59 25 81l62 -12v-99c-41 -39 -90 -65 -146 -65c-112 0 -191 48 -191 155c0 158 180 185 180 295c0 19 -4 46 -19 95zM231 341c-38 0 -69 31 -69 68
c0 38 31 69 69 69c37 0 68 -31 68 -69c0 -37 -31 -68 -68 -68z" />
    <glyph glyph-name="percent" unicode="%" horiz-adv-x="881" 
d="M675 386c124 0 167 -92 167 -200c0 -106 -34 -203 -167 -203s-170 92 -170 203c0 112 46 200 170 200zM675 319c-47 0 -58 -52 -58 -130c0 -79 13 -139 58 -139c44 0 55 59 55 139c0 79 -9 130 -55 130zM663 717h81l-534 -734h-82zM209 717c124 0 167 -92 167 -200
c0 -106 -34 -203 -167 -203s-170 92 -170 203c0 112 46 200 170 200zM209 650c-47 0 -58 -52 -58 -130c0 -79 13 -139 58 -139c44 0 55 59 55 139c0 79 -9 130 -55 130z" />
    <glyph glyph-name="perthousand" unicode="&#x2030;" horiz-adv-x="1280" 
d="M676 386c124 0 167 -92 167 -200c0 -106 -34 -203 -167 -203s-170 92 -170 203c0 112 46 200 170 200zM676 319c-47 0 -58 -52 -58 -130c0 -79 13 -139 58 -139c44 0 55 59 55 139c0 79 -9 130 -55 130zM664 717h81l-534 -734h-82zM210 717c124 0 167 -92 167 -200
c0 -106 -34 -203 -167 -203s-170 92 -170 203c0 112 46 200 170 200zM210 650c-47 0 -58 -52 -58 -130c0 -79 13 -139 58 -139c44 0 55 59 55 139c0 79 -9 130 -55 130zM1073 386c124 0 167 -92 167 -200c0 -106 -34 -203 -167 -203s-170 92 -170 203c0 112 46 200 170 200z
M1073 319c-47 0 -58 -52 -58 -130c0 -79 13 -139 58 -139c44 0 55 59 55 139c0 79 -9 130 -55 130z" />
    <glyph glyph-name="dieresis" unicode="&#xa8;" horiz-adv-x="418" 
d="M303 876c35 0 65 -29 65 -65c0 -35 -30 -65 -65 -65s-65 30 -65 65c0 36 30 65 65 65zM115 876c36 0 65 -29 65 -65c0 -35 -29 -65 -65 -65c-35 0 -65 30 -65 65c0 36 30 65 65 65z" />
    <glyph glyph-name="Ydieresis" unicode="&#x178;" horiz-adv-x="685" 
d="M291 102v155l-198 339l-88 33l11 71h299l11 -72l-75 -32l106 -176v-63l144 239l-73 33l10 71h231l11 -71l-90 -33l-161 -274v-220l83 -31l-12 -71h-282l-11 71zM446 876c35 0 65 -29 65 -65c0 -35 -30 -65 -65 -65s-65 30 -65 65c0 36 30 65 65 65zM258 876
c36 0 65 -29 65 -65c0 -35 -29 -65 -65 -65c-35 0 -65 30 -65 65c0 36 30 65 65 65z" />
    <glyph glyph-name="dollar" unicode="$" horiz-adv-x="581" 
d="M260 -9l-16 -84h-54l17 93c-53 12 -101 32 -120 47v143l65 12l44 -115c8 -2 17 -4 27 -6l37 195c-83 38 -166 95 -166 191c0 123 103 185 217 185c7 0 13 0 20 -1l13 66h53l-14 -74c43 -10 84 -28 118 -48v-139l-65 -11l-41 109c-8 2 -17 5 -27 7l-36 -188
c107 -55 196 -98 196 -197c0 -115 -77 -187 -235 -187c-11 0 -22 1 -33 2zM276 75h12c69 0 119 20 119 71c0 47 -52 85 -97 108zM315 567h-4c-62 0 -95 -35 -95 -80c0 -34 27 -63 67 -87z" />
    <glyph glyph-name="plus" unicode="+" horiz-adv-x="625" 
d="M357 18h-89v208h-208l11 86h197v206h89v-206h208l-15 -86h-193v-208z" />
    <glyph glyph-name="hyphen" unicode="-" horiz-adv-x="423" 
d="M50 226l12 87h311l-11 -87h-312z" />
    <glyph glyph-name="equal" unicode="=" horiz-adv-x="637" 
d="M557 430l-13 -83h-464l12 83h465zM557 242l-13 -83h-464l12 83h465z" />
    <glyph glyph-name="afii61352" unicode="&#x2116;" horiz-adv-x="1124" 
d="M770 165v77h304v-77h-304zM922 297c-113 0 -168 68 -168 174s62 173 168 173c105 0 167 -65 167 -173c0 -109 -55 -174 -167 -174zM922 584c-45 0 -70 -39 -70 -111c0 -74 24 -117 70 -117s69 42 69 117c0 73 -24 111 -69 111zM36 71l83 32v493l-84 33l10 71h208
l281 -415l36 -104v415l-83 33l10 71h223l10 -71l-83 -33v-596l-83 -17l-368 549v-430l83 -31l-11 -71h-221z" />
    <glyph glyph-name="asciitilde" unicode="~" horiz-adv-x="616" 
d="M519 357l42 -36c-42 -74 -98 -105 -163 -105c-71 0 -133 41 -200 41c-41 0 -78 -26 -97 -47l-46 30c43 71 94 111 174 111c62 0 135 -38 198 -38c30 0 67 20 92 44z" />
    <glyph glyph-name="bar" unicode="|" horiz-adv-x="290" 
d="M179 717v-956h-79v956h79z" />
    <glyph glyph-name="bullet" unicode="&#x2022;" horiz-adv-x="432" 
d="M215 478c65 0 117 -52 117 -115c0 -66 -52 -117 -117 -117s-115 51 -115 117c0 63 50 115 115 115z" />
    <glyph glyph-name="asciicircum" unicode="^" horiz-adv-x="571" 
d="M333 768l200 -310l-55 -31l-193 210l-195 -210l-52 31l195 310h100z" />
    <glyph glyph-name="endash" unicode="&#x2013;" horiz-adv-x="560" 
d="M30 220l12 88h488l-11 -88h-489z" />
    <glyph glyph-name="emdash" unicode="&#x2014;" horiz-adv-x="764" 
d="M30 220l12 88h692l-11 -88h-693z" />
    <glyph glyph-name="greater" unicode="&#x3e;" horiz-adv-x="607" 
d="M500 251l-374 -186l-35 58l246 172l-247 173l36 56l391 -200z" />
    <glyph glyph-name="less" unicode="&#x3c;" horiz-adv-x="607" 
d="M481 65l-374 186l-17 73l391 200l36 -56l-247 -173l246 -172z" />
    <glyph glyph-name="guillemotright" unicode="&#xbb;" horiz-adv-x="547" 
d="M269 226l-178 -128l-31 35l103 120l-103 122l32 35l191 -135zM475 218l-228 -154l-33 46l146 143l-146 145l33 45l240 -162z" />
    <glyph glyph-name="guillemotleft" unicode="&#xab;" horiz-adv-x="547" 
d="M456 98l-178 128l-14 49l191 135l32 -35l-103 -122l103 -120zM300 64l-228 154l-12 63l240 162l33 -45l-146 -145l146 -143z" />
    <glyph glyph-name="guilsinglright" unicode="&#x203a;" horiz-adv-x="365" 
d="M290 217l-198 -128l-32 36l120 131l-120 126l32 36l213 -138z" />
    <glyph glyph-name="guilsinglleft" unicode="&#x2039;" horiz-adv-x="365" 
d="M273 89l-198 128l-15 63l213 138l32 -36l-120 -126l120 -131z" />
    <glyph glyph-name="slash" unicode="/" horiz-adv-x="520" 
d="M529 768l-450 -898h-69l-22 11l450 896h72z" />
    <glyph glyph-name="backslash" unicode="\" horiz-adv-x="520" 
d="M441 -130l-450 898l19 9h72l450 -896l-22 -11h-69z" />
    <glyph glyph-name="ellipsis" unicode="&#x2026;" horiz-adv-x="663" 
d="M331 120c38 0 69 -31 69 -68c0 -38 -31 -69 -69 -69c-37 0 -68 31 -68 69c0 37 31 68 68 68zM544 120c38 0 69 -31 69 -68c0 -38 -31 -69 -69 -69c-37 0 -68 31 -68 69c0 37 31 68 68 68zM118 120c38 0 69 -31 69 -68c0 -38 -31 -69 -69 -69c-37 0 -68 31 -68 69
c0 37 31 68 68 68z" />
    <glyph glyph-name="edieresis" unicode="&#xeb;" horiz-adv-x="549" 
d="M392 697c35 0 65 -29 65 -65c0 -35 -30 -65 -65 -65s-65 30 -65 65c0 36 30 65 65 65zM204 697c36 0 65 -29 65 -65c0 -35 -29 -65 -65 -65c-35 0 -65 30 -65 65c0 36 30 65 65 65zM180 294h205c2 10 3 20 3 29c0 59 -40 92 -92 92c-65 0 -107 -49 -116 -121zM318 62
c51 0 103 12 154 46l34 -51c-64 -52 -127 -68 -193 -68c-190 0 -273 97 -273 245c0 153 113 244 256 244c120 0 218 -64 218 -162c0 -27 -10 -63 -22 -84h-315c2 -100 55 -170 141 -170z" />
    <glyph glyph-name="adieresis" unicode="&#xe4;" horiz-adv-x="508" 
d="M335 697c35 0 65 -29 65 -65c0 -35 -30 -65 -65 -65s-65 30 -65 65c0 36 30 65 65 65zM147 697c36 0 65 -29 65 -65c0 -35 -29 -65 -65 -65c-35 0 -65 30 -65 65c0 36 30 65 65 65zM68 340v96c58 29 118 42 168 42c129 0 206 -67 206 -188v-207l56 -22l-12 -61h-127
l-30 23c-30 -21 -71 -34 -129 -34c-90 0 -169 48 -169 139c0 136 159 167 285 167v35c0 57 -41 85 -85 85c-24 0 -55 -6 -74 -11l-22 -76zM316 102v131c-93 0 -148 -39 -148 -96s41 -75 69 -75c27 0 62 15 79 40z" />
    <glyph glyph-name="Adieresis" unicode="&#xc4;" horiz-adv-x="761" 
d="M479 876c35 0 65 -29 65 -65c0 -35 -30 -65 -65 -65s-65 30 -65 65c0 36 30 65 65 65zM291 876c36 0 65 -29 65 -65c0 -35 -29 -65 -65 -65c-35 0 -65 30 -65 65c0 36 30 65 65 65zM332 700l109 17l224 -614l88 -32l-11 -71h-291l-11 71l79 32l-45 120h-234l-48 -120
l94 -31l-10 -72h-250l-11 71l87 32zM445 301l-63 170v114l-112 -284h175z" />
    <glyph glyph-name="Edieresis" unicode="&#xcb;" horiz-adv-x="613" 
d="M416 876c35 0 65 -29 65 -65c0 -35 -30 -65 -65 -65s-65 30 -65 65c0 36 30 65 65 65zM228 876c36 0 65 -29 65 -65c0 -35 -29 -65 -65 -65c-35 0 -65 30 -65 65c0 36 30 65 65 65zM450 629h-193v-229h103l30 81l72 -10v-221l-71 -10l-31 81h-103v-250h197l53 150l71 -10
v-211h-531l-10 71l82 31v494l-84 33l11 71h515v-178l-72 -11z" />
    <glyph glyph-name="Odieresis" unicode="&#xd6;" 
d="M498 876c35 0 65 -29 65 -65c0 -35 -30 -65 -65 -65s-65 30 -65 65c0 36 30 65 65 65zM310 876c36 0 65 -29 65 -65c0 -35 -29 -65 -65 -65c-35 0 -65 30 -65 65c0 36 30 65 65 65zM405 717c223 0 344 -161 344 -367s-105 -367 -344 -367s-345 183 -345 367
s122 367 345 367zM405 633c-128 0 -195 -89 -195 -278s65 -288 195 -288c131 0 196 104 196 288s-68 278 -196 278z" />
    <glyph glyph-name="Udieresis" unicode="&#xdc;" horiz-adv-x="750" 
d="M498 876c35 0 65 -29 65 -65c0 -35 -30 -65 -65 -65s-65 30 -65 65c0 36 30 65 65 65zM310 876c36 0 65 -29 65 -65c0 -35 -29 -65 -65 -65c-35 0 -65 30 -65 65c0 36 30 65 65 65zM391 -17c-138 0 -277 55 -277 316v297l-84 33l10 71h286l10 -71l-84 -33v-303
c0 -160 50 -226 155 -226c106 0 168 75 168 224v305l-86 33l12 71h224l10 -71l-84 -33v-297c0 -259 -131 -316 -260 -316z" />
    <glyph glyph-name="idieresis" unicode="&#xef;" horiz-adv-x="334" 
d="M261 697c35 0 65 -29 65 -65c0 -35 -30 -65 -65 -65s-65 30 -65 65c0 36 30 65 65 65zM73 697c36 0 65 -29 65 -65c0 -35 -29 -65 -65 -65c-35 0 -65 30 -65 65c0 36 30 65 65 65zM230 83l64 -21l-12 -62h-230l-12 62l64 21v323h-46l-11 61l122 11l61 -11v-384z" />
    <glyph glyph-name="odieresis" unicode="&#xf6;" horiz-adv-x="579" 
d="M383 697c35 0 65 -29 65 -65c0 -35 -30 -65 -65 -65s-65 30 -65 65c0 36 30 65 65 65zM195 697c36 0 65 -29 65 -65c0 -35 -29 -65 -65 -65c-35 0 -65 30 -65 65c0 36 30 65 65 65zM290 478c151 0 249 -91 249 -244s-87 -244 -249 -244c-161 0 -250 95 -250 244
s98 244 250 244zM290 415c-74 0 -121 -68 -121 -178s43 -184 121 -184c76 0 122 73 122 184c0 112 -48 178 -122 178z" />
    <glyph glyph-name="udieresis" unicode="&#xfc;" horiz-adv-x="589" 
d="M383 697c35 0 65 -29 65 -65c0 -35 -30 -65 -65 -65s-65 30 -65 65c0 36 30 65 65 65zM195 697c36 0 65 -29 65 -65c0 -35 -29 -65 -65 -65c-35 0 -65 30 -65 65c0 36 30 65 65 65zM384 100v306h-42l-11 59l129 13l50 -15v-380l64 -22l-12 -61h-136l-30 23
c-38 -27 -83 -34 -132 -34c-115 0 -182 74 -182 183v234h-41l-11 59l120 13l58 -14v-301c0 -75 50 -101 91 -101c27 0 65 14 85 38z" />
    <glyph glyph-name="ydieresis" unicode="&#xff;" horiz-adv-x="608" 
d="M411 697c35 0 65 -29 65 -65c0 -35 -30 -65 -65 -65s-65 30 -65 65c0 36 30 65 65 65zM223 697c36 0 65 -29 65 -65c0 -35 -29 -65 -65 -65c-35 0 -65 30 -65 65c0 36 30 65 65 65zM524 384l-171 -488c-15 -43 -57 -120 -94 -146l-135 11l-11 60c53 8 135 26 170 116
l20 52l-31 11l-181 384l-73 22l12 61h258l12 -61l-77 -22l113 -221v-83l106 304l-68 22l12 61h195l12 -61z" />
    <glyph glyph-name="Idieresis" unicode="&#xcf;" horiz-adv-x="428" 
d="M308 876c35 0 65 -29 65 -65c0 -35 -30 -65 -65 -65s-65 30 -65 65c0 36 30 65 65 65zM120 876c36 0 65 -29 65 -65c0 -35 -29 -65 -65 -65c-35 0 -65 30 -65 65c0 36 30 65 65 65zM283 596v-494l85 -31l-12 -71h-284l-12 71l85 31v494l-85 33l12 71h284l12 -71z" />
    <glyph glyph-name="breve" unicode="&#x2d8;" horiz-adv-x="384" 
d="M186 842c52 0 98 19 129 57l37 -25c-21 -58 -80 -119 -166 -119c-85 0 -144 61 -165 119l36 25c31 -38 78 -57 129 -57z" />
    <glyph glyph-name="section" unicode="&#xa7;" horiz-adv-x="528" 
d="M200 590c0 -49 58 -81 113 -104c73 -29 150 -62 150 -157c0 -60 -36 -104 -70 -133c36 -28 70 -67 70 -124c0 -112 -82 -174 -197 -174c-77 0 -120 27 -180 63v137l69 10l46 -117c26 -9 35 -12 66 -12c46 0 72 34 72 70c0 48 -57 75 -112 98c-73 30 -150 63 -150 159
c0 58 39 102 71 130c-39 27 -71 71 -71 131c0 112 82 166 197 166c77 0 120 -27 180 -63v-126l-68 -11l-46 108c-22 9 -45 13 -67 13c-46 0 -73 -29 -73 -64zM346 305c0 39 -79 70 -127 93c-10 -16 -25 -42 -25 -68c0 -40 78 -72 129 -93c10 16 23 42 23 68z" />
    <glyph glyph-name="paragraph" unicode="&#xb6;" horiz-adv-x="566" 
d="M270 588v-326c-133 0 -230 51 -230 194c0 122 97 202 211 202h273l12 -65l-83 -31v-369c0 -146 -54 -311 -237 -367l-37 62c133 88 146 208 146 309v391h-55z" />
    <glyph glyph-name="cyrbreve" unicode="&#xf6d4;" horiz-adv-x="413" 
d="M358 900l37 -38c-46 -65 -123 -107 -190 -107c-72 0 -134 22 -182 89l63 66h51c20 -36 56 -63 99 -63c47 0 79 13 122 53z" />
    <glyph glyph-name="ring" unicode="&#x2da;" horiz-adv-x="277" 
d="M134 930c64 0 110 -32 110 -97s-43 -95 -110 -95s-110 31 -110 95c0 65 49 97 110 97zM134 889c-22 0 -37 -26 -37 -55s14 -55 37 -55s37 26 37 55c0 30 -15 55 -37 55z" />
    <glyph glyph-name="tilde" unicode="&#x2dc;" horiz-adv-x="444" 
d="M301 563h-36l-100 50l-83 -52l-32 21l93 115h34l100 -40l87 42l30 -21z" />
    <glyph glyph-name="Atilde" unicode="&#xc3;" horiz-adv-x="761" 
d="M489 756h-36l-100 50l-83 -52l-32 21l93 115h34l100 -40l87 42l30 -21zM332 700l109 17l224 -614l88 -32l-11 -71h-291l-11 71l79 32l-45 120h-234l-48 -120l94 -31l-10 -72h-250l-11 71l87 32zM445 301l-63 170v114l-112 -284h175z" />
    <glyph glyph-name="Aring" unicode="&#xc5;" horiz-adv-x="761" 
d="M387 930c64 0 110 -32 110 -97s-43 -95 -110 -95s-110 31 -110 95c0 65 49 97 110 97zM387 889c-22 0 -37 -26 -37 -55s14 -55 37 -55s37 26 37 55c0 30 -15 55 -37 55zM441 717l-109 -17l-230 -597l-87 -32l11 -71h250l10 72l-94 31l48 120h234l45 -120l-79 -32l11 -71
h291l11 71l-88 32zM382 471l63 -170h-175l112 284v-114z" />
    <glyph glyph-name="atilde" unicode="&#xe3;" horiz-adv-x="508" 
d="M331 563h-36l-100 50l-83 -52l-32 21l93 115h34l100 -40l87 42l30 -21zM68 340v96c58 29 118 42 168 42c129 0 206 -67 206 -188v-207l56 -22l-12 -61h-127l-30 23c-30 -21 -71 -34 -129 -34c-90 0 -169 48 -169 139c0 136 159 167 285 167v35c0 57 -41 85 -85 85
c-24 0 -55 -6 -74 -11l-22 -76zM316 102v131c-93 0 -148 -39 -148 -96s41 -75 69 -75c27 0 62 15 79 40z" />
    <glyph glyph-name="ntilde" unicode="&#xf1;" horiz-adv-x="624" 
d="M380 563h-36l-100 50l-83 -52l-32 21l93 115h34l100 -40l87 42l30 -21zM311 406c-26 0 -61 -11 -87 -20v-303l64 -22l-11 -61h-231l-11 61l63 22v323h-45l-11 61l128 11l41 -26c33 11 83 26 125 26c116 0 190 -60 190 -169v-226l63 -22l-12 -61h-228l-12 61l63 22v241
c0 52 -45 82 -89 82z" />
    <glyph glyph-name="otilde" unicode="&#xf5;" horiz-adv-x="579" 
d="M368 563h-36l-100 50l-83 -52l-32 21l93 115h34l100 -40l87 42l30 -21zM290 478c151 0 249 -91 249 -244s-87 -244 -249 -244c-161 0 -250 95 -250 244s98 244 250 244zM290 415c-74 0 -121 -68 -121 -178s43 -184 121 -184c76 0 122 73 122 184c0 112 -48 178 -122 178z
" />
    <glyph glyph-name="Ntilde" unicode="&#xd1;" horiz-adv-x="746" 
d="M479 756h-36l-100 50l-83 -52l-32 21l93 115h34l100 -40l87 42l30 -21zM25 71l83 32v493l-84 33l10 71h208l281 -415l36 -104v415l-83 33l10 71h223l10 -71l-83 -33v-596l-83 -17l-368 549v-430l83 -31l-11 -71h-221z" />
    <glyph glyph-name="Otilde" unicode="&#xd5;" 
d="M483 756h-36l-100 50l-83 -52l-32 21l93 115h34l100 -40l87 42l30 -21zM405 717c223 0 344 -161 344 -367s-105 -367 -344 -367s-345 183 -345 367s122 367 345 367zM405 633c-128 0 -195 -89 -195 -278s65 -288 195 -288c131 0 196 104 196 288s-68 278 -196 278z" />
    <glyph glyph-name="aring" unicode="&#xe5;" horiz-adv-x="508" 
d="M247 737c64 0 110 -32 110 -97s-43 -95 -110 -95s-110 31 -110 95c0 65 49 97 110 97zM247 696c-22 0 -37 -26 -37 -55s14 -55 37 -55s37 26 37 55c0 30 -15 55 -37 55zM68 436v-96l67 -12l22 76c19 5 50 11 74 11c44 0 85 -28 85 -85v-35c-126 0 -285 -31 -285 -167
c0 -91 79 -139 169 -139c58 0 99 13 129 34l30 -23h127l12 61l-56 22v207c0 121 -77 188 -206 188c-50 0 -110 -13 -168 -42zM316 233v-131c-17 -25 -52 -40 -79 -40c-28 0 -69 18 -69 75s55 96 148 96z" />
    <glyph glyph-name="circumflex" unicode="&#x2c6;" horiz-adv-x="400" 
d="M234 928l116 -170l-32 -21l-118 98l-120 -98l-30 21l115 170h69z" />
    <glyph glyph-name="Acircumflex" unicode="&#xc2;" horiz-adv-x="761" 
d="M425 928l116 -170l-32 -21l-118 98l-120 -98l-30 21l115 170h69zM441 717l-109 -17l-230 -597l-87 -32l11 -71h250l10 72l-94 31l48 120h234l45 -120l-79 -32l11 -71h291l11 71l-88 32zM382 471l63 -170h-175l112 284v-114z" />
    <glyph glyph-name="Ecircumflex" unicode="&#xca;" horiz-adv-x="613" 
d="M362 928l116 -170l-32 -21l-118 98l-120 -98l-30 21l115 170h69zM257 629h193l39 -118l72 11v178h-515l-11 -71l84 -33v-494l-82 -31l10 -71h531v211l-71 10l-53 -150h-197v250h103l31 -81l71 10v221l-72 10l-30 -81h-103v229z" />
    <glyph glyph-name="Icircumflex" unicode="&#xce;" horiz-adv-x="428" 
d="M248 928l116 -170l-32 -21l-118 98l-120 -98l-30 21l115 170h69zM283 102v494l85 33l-12 71h-284l-12 -71l85 -33v-494l-85 -31l12 -71h284l12 71z" />
    <glyph glyph-name="Ocircumflex" unicode="&#xd4;" 
d="M438 928l116 -170l-32 -21l-118 98l-120 -98l-30 21l115 170h69zM405 717c223 0 344 -161 344 -367s-105 -367 -344 -367s-345 183 -345 367s122 367 345 367zM405 633c-128 0 -195 -89 -195 -278s65 -288 195 -288c131 0 196 104 196 288s-68 278 -196 278z" />
    <glyph glyph-name="Ucircumflex" unicode="&#xdb;" horiz-adv-x="750" 
d="M446 928l116 -170l-32 -21l-118 98l-120 -98l-30 21l115 170h69zM391 -17c129 0 260 57 260 316v297l84 33l-10 71h-224l-12 -71l86 -33v-305c0 -149 -62 -224 -168 -224c-105 0 -155 66 -155 226v303l84 33l-10 71h-286l-10 -71l84 -33v-297c0 -261 139 -316 277 -316z
" />
    <glyph glyph-name="ocircumflex" unicode="&#xf4;" horiz-adv-x="579" 
d="M323 735l116 -170l-32 -21l-118 98l-120 -98l-30 21l115 170h69zM290 478c151 0 249 -91 249 -244s-87 -244 -249 -244c-161 0 -250 95 -250 244s98 244 250 244zM290 415c-74 0 -121 -68 -121 -178s43 -184 121 -184c76 0 122 73 122 184c0 112 -48 178 -122 178z" />
    <glyph glyph-name="icircumflex" unicode="&#xee;" horiz-adv-x="334" 
d="M201 735l116 -170l-32 -21l-118 98l-120 -98l-30 21l115 170h69zM294 62l-64 21v384l-61 11l-122 -11l11 -61h46v-323l-64 -21l12 -62h230z" />
    <glyph glyph-name="ecircumflex" unicode="&#xea;" horiz-adv-x="549" 
d="M330 735l116 -170l-32 -21l-118 98l-120 -98l-30 21l115 170h69zM385 294h-205c9 72 51 121 116 121c52 0 92 -33 92 -92c0 -9 -1 -19 -3 -29zM318 62c-86 0 -139 70 -141 170h315c12 21 22 57 22 84c0 98 -98 162 -218 162c-143 0 -256 -91 -256 -244
c0 -148 83 -245 273 -245c66 0 129 16 193 68l-34 51c-51 -34 -103 -46 -154 -46z" />
    <glyph glyph-name="acircumflex" unicode="&#xe2;" horiz-adv-x="508" 
d="M276 735l116 -170l-32 -21l-118 98l-120 -98l-30 21l115 170h69zM68 436v-96l67 -12l22 76c19 5 50 11 74 11c44 0 85 -28 85 -85v-35c-126 0 -285 -31 -285 -167c0 -91 79 -139 169 -139c58 0 99 13 129 34l30 -23h127l12 61l-56 22v207c0 121 -77 188 -206 188
c-50 0 -110 -13 -168 -42zM316 233v-131c-17 -25 -52 -40 -79 -40c-28 0 -69 18 -69 75s55 96 148 96z" />
    <glyph glyph-name="ucircumflex" unicode="&#xfb;" horiz-adv-x="589" 
d="M339 735l116 -170l-32 -21l-118 98l-120 -98l-30 21l115 170h69zM384 406v-306c-20 -24 -58 -38 -85 -38c-41 0 -91 26 -91 101v301l-58 14l-120 -13l11 -59h41v-234c0 -109 67 -183 182 -183c49 0 94 7 132 34l30 -23h136l12 61l-64 22v380l-50 15l-129 -13l11 -59h42z
" />
    <glyph glyph-name="caron" unicode="&#x2c7;" horiz-adv-x="400" 
d="M350 907l-116 -170h-69l-115 170l30 21l120 -98l118 98z" />
    <glyph glyph-name="Zcaron" unicode="&#x17d;" horiz-adv-x="642" 
d="M175 71h322l54 150l71 -11v-210h-547l-45 71l379 498l76 60h-281l-51 -144l-71 11v204h486l54 -71l-372 -505zM505 907l-116 -170h-69l-115 170l30 21l120 -98l118 98z" />
    <glyph glyph-name="Scaron" unicode="&#x160;" horiz-adv-x="582" 
d="M50 527c0 127 116 190 244 190c78 0 152 -27 214 -64v-156l-72 -11l-47 134c-27 8 -65 13 -95 13c-73 0 -118 -33 -118 -89c0 -73 119 -112 157 -131c105 -44 205 -110 205 -230c0 -116 -85 -200 -264 -200c-82 0 -165 25 -221 65v162l71 10l51 -131
c23 -11 66 -22 92 -22c81 0 146 31 146 85c0 79 -119 118 -188 152c-77 38 -175 83 -175 223zM435 907l-116 -170h-69l-115 170l30 21l120 -98l118 98z" />
    <glyph glyph-name="scaron" unicode="&#x161;" horiz-adv-x="452" 
d="M369 714l-116 -170h-69l-115 170l30 21l120 -98l118 98zM213 -10c-44 0 -116 13 -173 41v118l67 13l34 -99c16 -6 51 -10 64 -10c49 0 92 17 92 54c0 32 -54 60 -99 81c-66 31 -156 73 -156 160c0 85 78 130 198 130c55 0 111 -16 154 -42v-96l-68 -12l-21 77
c-24 6 -51 10 -75 10c-40 0 -73 -22 -73 -52c0 -39 80 -62 130 -86c69 -33 125 -65 125 -142c0 -88 -78 -145 -199 -145z" />
    <glyph glyph-name="acute" unicode="&#xb4;" horiz-adv-x="288" 
d="M251 870l-176 -112l-29 27l124 156z" />
    <glyph glyph-name="zcaron" unicode="&#x17e;" horiz-adv-x="484" 
d="M399 714l-116 -170h-69l-115 170l30 21l120 -98l118 98zM54 467h356l49 -61l-263 -311l-74 -34h224l31 101l67 -13v-149h-389l-30 61l254 308l71 37h-205l-24 -78l-67 12v127z" />
    <glyph glyph-name="Aacute" unicode="&#xc1;" horiz-adv-x="761" 
d="M534 870l-176 -112l-29 27l124 156zM332 700l109 17l224 -614l88 -32l-11 -71h-291l-11 71l79 32l-45 120h-234l-48 -120l94 -31l-10 -72h-250l-11 71l87 32zM445 301l-63 170v114l-112 -284h175z" />
    <glyph glyph-name="Eacute" unicode="&#xc9;" horiz-adv-x="613" 
d="M477 870l-176 -112l-29 27l124 156zM450 629h-193v-229h103l30 81l72 -10v-221l-71 -10l-31 81h-103v-250h197l53 150l71 -10v-211h-531l-10 71l82 31v494l-84 33l11 71h515v-178l-72 -11z" />
    <glyph glyph-name="Iacute" unicode="&#xcd;" horiz-adv-x="428" 
d="M362 870l-176 -112l-29 27l124 156zM283 596v-494l85 -31l-12 -71h-284l-12 71l85 31v494l-85 33l12 71h284l12 -71z" />
    <glyph glyph-name="Oacute" unicode="&#xd3;" 
d="M554 870l-176 -112l-29 27l124 156zM405 717c223 0 344 -161 344 -367s-105 -367 -344 -367s-345 183 -345 367s122 367 345 367zM405 633c-128 0 -195 -89 -195 -278s65 -288 195 -288c131 0 196 104 196 288s-68 278 -196 278z" />
    <glyph glyph-name="Uacute" unicode="&#xda;" horiz-adv-x="750" 
d="M569 870l-176 -112l-29 27l124 156zM391 -17c-138 0 -277 55 -277 316v297l-84 33l10 71h286l10 -71l-84 -33v-303c0 -160 50 -226 155 -226c106 0 168 75 168 224v305l-86 33l12 71h224l10 -71l-84 -33v-297c0 -259 -131 -316 -260 -316z" />
    <glyph glyph-name="Yacute" unicode="&#xdd;" horiz-adv-x="685" 
d="M519 870l-176 -112l-29 27l124 156zM291 102v155l-198 339l-88 33l11 71h299l11 -72l-75 -32l106 -176v-63l144 239l-73 33l10 71h231l11 -71l-90 -33l-161 -274v-220l83 -31l-12 -71h-282l-11 71z" />
    <glyph glyph-name="aacute" unicode="&#xe1;" horiz-adv-x="508" 
d="M366 719l-126 -158l-44 23l73 182zM68 340v96c58 29 118 42 168 42c129 0 206 -67 206 -188v-207l56 -22l-12 -61h-127l-30 23c-30 -21 -71 -34 -129 -34c-90 0 -169 48 -169 139c0 136 159 167 285 167v35c0 57 -41 85 -85 85c-24 0 -55 -6 -74 -11l-22 -76zM316 102
v131c-93 0 -148 -39 -148 -96s41 -75 69 -75c27 0 62 15 79 40z" />
    <glyph glyph-name="eacute" unicode="&#xe9;" horiz-adv-x="549" 
d="M424 719l-126 -158l-44 23l73 182zM180 294h205c2 10 3 20 3 29c0 59 -40 92 -92 92c-65 0 -107 -49 -116 -121zM318 62c51 0 103 12 154 46l34 -51c-64 -52 -127 -68 -193 -68c-190 0 -273 97 -273 245c0 153 113 244 256 244c120 0 218 -64 218 -162
c0 -27 -10 -63 -22 -84h-315c2 -100 55 -170 141 -170z" />
    <glyph glyph-name="iacute" unicode="&#xed;" horiz-adv-x="334" 
d="M271 719l-126 -158l-44 23l73 182zM230 83l64 -21l-12 -62h-230l-12 62l64 21v323h-46l-11 61l122 11l61 -11v-384z" />
    <glyph glyph-name="oacute" unicode="&#xf3;" horiz-adv-x="579" 
d="M429 719l-126 -158l-44 23l73 182zM290 478c151 0 249 -91 249 -244s-87 -244 -249 -244c-161 0 -250 95 -250 244s98 244 250 244zM290 415c-74 0 -121 -68 -121 -178s43 -184 121 -184c76 0 122 73 122 184c0 112 -48 178 -122 178z" />
    <glyph glyph-name="uacute" unicode="&#xfa;" horiz-adv-x="589" 
d="M427 719l-126 -158l-44 23l73 182zM384 100v306h-42l-11 59l129 13l50 -15v-380l64 -22l-12 -61h-136l-30 23c-38 -27 -83 -34 -132 -34c-115 0 -182 74 -182 183v234h-41l-11 59l120 13l58 -14v-301c0 -75 50 -101 91 -101c27 0 65 14 85 38z" />
    <glyph glyph-name="yacute" unicode="&#xfd;" horiz-adv-x="608" 
d="M438 719l-126 -158l-44 23l73 182zM524 384l-171 -488c-15 -43 -57 -120 -94 -146l-135 11l-11 60c53 8 135 26 170 116l20 52l-31 11l-181 384l-73 22l12 61h258l12 -61l-77 -22l113 -221v-83l106 304l-68 22l12 61h195l12 -61z" />
    <glyph glyph-name="grave" unicode="`" horiz-adv-x="288" 
d="M218 758l-176 112l81 71l124 -156z" />
    <glyph glyph-name="Agrave" unicode="&#xc0;" horiz-adv-x="761" 
d="M422 758l-176 112l81 71l124 -156zM441 717l-109 -17l-230 -597l-87 -32l11 -71h250l10 72l-94 31l48 120h234l45 -120l-79 -32l11 -71h291l11 71l-88 32zM382 471l63 -170h-175l112 284v-114z" />
    <glyph glyph-name="Egrave" unicode="&#xc8;" horiz-adv-x="613" 
d="M358 758l-176 112l81 71l124 -156zM257 629h193l39 -118l72 11v178h-515l-11 -71l84 -33v-494l-82 -31l10 -71h531v211l-71 10l-53 -150h-197v250h103l31 -81l71 10v221l-72 10l-30 -81h-103v229z" />
    <glyph glyph-name="Igrave" unicode="&#xcc;" horiz-adv-x="428" 
d="M236 758l-176 112l81 71l124 -156zM283 102v494l85 33l-12 71h-284l-12 -71l85 -33v-494l-85 -31l12 -71h284l12 71z" />
    <glyph glyph-name="Ograve" unicode="&#xd2;" 
d="M436 758l-176 112l81 71l124 -156zM405 717c223 0 344 -161 344 -367s-105 -367 -344 -367s-345 183 -345 367s122 367 345 367zM405 633c-128 0 -195 -89 -195 -278s65 -288 195 -288c131 0 196 104 196 288s-68 278 -196 278z" />
    <glyph glyph-name="Ugrave" unicode="&#xd9;" horiz-adv-x="750" 
d="M436 758l-176 112l81 71l124 -156zM391 -17c129 0 260 57 260 316v297l84 33l-10 71h-224l-12 -71l86 -33v-305c0 -149 -62 -224 -168 -224c-105 0 -155 66 -155 226v303l84 33l-10 71h-286l-10 -71l84 -33v-297c0 -261 139 -316 277 -316z" />
    <glyph glyph-name="agrave" unicode="&#xe0;" horiz-adv-x="508" 
d="M237 561l-126 158l97 47l73 -182zM68 436v-96l67 -12l22 76c19 5 50 11 74 11c44 0 85 -28 85 -85v-35c-126 0 -285 -31 -285 -167c0 -91 79 -139 169 -139c58 0 99 13 129 34l30 -23h127l12 61l-56 22v207c0 121 -77 188 -206 188c-50 0 -110 -13 -168 -42zM316 233
v-131c-17 -25 -52 -40 -79 -40c-28 0 -69 18 -69 75s55 96 148 96z" />
    <glyph glyph-name="egrave" unicode="&#xe8;" horiz-adv-x="549" 
d="M300 561l-126 158l97 47l73 -182zM385 294h-205c9 72 51 121 116 121c52 0 92 -33 92 -92c0 -9 -1 -19 -3 -29zM318 62c-86 0 -139 70 -141 170h315c12 21 22 57 22 84c0 98 -98 162 -218 162c-143 0 -256 -91 -256 -244c0 -148 83 -245 273 -245c66 0 129 16 193 68
l-34 51c-51 -34 -103 -46 -154 -46z" />
    <glyph glyph-name="igrave" unicode="&#xec;" horiz-adv-x="334" 
d="M167 561l-126 158l97 47l73 -182zM294 62l-64 21v384l-61 11l-122 -11l11 -61h46v-323l-64 -21l12 -62h230z" />
    <glyph glyph-name="ograve" unicode="&#xf2;" horiz-adv-x="579" 
d="M300 561l-126 158l97 47l73 -182zM290 478c151 0 249 -91 249 -244s-87 -244 -249 -244c-161 0 -250 95 -250 244s98 244 250 244zM290 415c-74 0 -121 -68 -121 -178s43 -184 121 -184c76 0 122 73 122 184c0 112 -48 178 -122 178z" />
    <glyph glyph-name="ugrave" unicode="&#xf9;" horiz-adv-x="589" 
d="M312 561l-126 158l97 47l73 -182zM384 406v-306c-20 -24 -58 -38 -85 -38c-41 0 -91 26 -91 101v301l-58 14l-120 -13l11 -59h41v-234c0 -109 67 -183 182 -183c49 0 94 7 132 34l30 -23h136l12 61l-64 22v380l-50 15l-129 -13l11 -59h42z" />
    <glyph glyph-name="periodcentered" unicode="&#xb7;" horiz-adv-x="237" 
d="M118 413c38 0 68 -31 68 -69c0 -37 -30 -68 -68 -68c-37 0 -68 31 -68 68c0 38 31 69 68 69z" />
    <glyph glyph-name="trademark" unicode="&#x2122;" horiz-adv-x="851" 
d="M50 601v99h292v-99l-34 -6l-26 70h-52v-256l41 -15l-5 -35h-139l-5 35l41 15v256h-52l-26 -70zM674 596l-87 -237l-36 -8l-86 233l-21 -175l39 -15l-5 -35h-108l-6 35l42 15l28 240l-41 16l6 35h98l79 -213v-49l96 262h100l6 -35l-41 -16l24 -240l40 -15l-5 -35h-138
l-4 35l39 15z" />
    <glyph glyph-name="brokenbar" unicode="&#xa6;" horiz-adv-x="279" 
d="M179 163v-402h-79v402h79zM179 717v-402h-79v402h79z" />
    <glyph glyph-name="plusminus" unicode="&#xb1;" horiz-adv-x="615" 
d="M547 1h-492l12 83h492zM350 126h-88v171h-207l12 86h195v169h88v-169h210l-15 -86h-195v-171z" />
    <glyph glyph-name="Thorn" unicode="&#xde;" horiz-adv-x="611" 
d="M252 596v-33h84c149 0 235 -78 235 -213c0 -163 -121 -206 -261 -206h-58v-42l85 -31l-12 -71h-280l-11 71l85 31v494l-85 33l11 71h280l12 -71zM310 485h-58v-264h57c77 0 126 63 126 132c0 82 -36 132 -125 132z" />
    <glyph glyph-name="uniF644" unicode="&#xf644;" horiz-adv-x="548" 
d="M274 478c149 0 221 -91 221 -245s-61 -243 -221 -243c-159 0 -221 94 -221 243s73 245 221 245zM274 407c-64 0 -96 -65 -96 -170c0 -106 31 -176 96 -176c66 0 96 69 96 176c0 105 -31 170 -96 170z" />
    <glyph glyph-name="uniF645" unicode="&#xf645;" horiz-adv-x="390" 
d="M59 0l-13 67l95 20v278h-82l-13 63l150 39h69v-380l98 -20l-12 -67h-292z" />
    <glyph glyph-name="uniF646" unicode="&#xf646;" horiz-adv-x="460" 
d="M218 407c-17 0 -42 -8 -59 -19l-19 -74l-67 13v108c59 28 107 43 159 43c95 0 159 -35 159 -127c0 -153 -225 -186 -251 -269l64 27h109l24 58l62 -12v-155h-342v91c34 132 209 160 209 265c0 38 -18 51 -48 51z" />
    <glyph glyph-name="uniF647" unicode="&#xf647;" horiz-adv-x="501" 
d="M227 -59c55 0 107 43 107 126c0 80 -50 103 -114 103l-41 -8l-29 38l155 177l-67 -21h-82l-18 -65l-67 13v163h319l33 -54l-147 -167c73 -5 182 -46 182 -173c0 -134 -105 -203 -229 -203c-56 0 -110 13 -165 40v125l65 12l26 -94c18 -6 49 -12 72 -12z" />
    <glyph glyph-name="uniF648" unicode="&#xf648;" horiz-adv-x="498" 
d="M250 53h-211l-34 48l310 377l58 -16v-328h96l-20 -81h-76v-156l-123 -27v183zM250 134v76l28 116l-157 -192h129z" />
    <glyph glyph-name="uniF649" unicode="&#xf649;" horiz-adv-x="493" 
d="M185 -59c59 0 130 45 130 134c0 73 -55 104 -107 104c-28 0 -61 -7 -95 -29l-55 23l41 294h227l21 73l67 -13v-173h-249l-16 -107c31 12 59 17 93 17c96 0 199 -64 199 -188c0 -133 -114 -206 -246 -206c-49 0 -105 13 -160 40v135l65 12l27 -104c19 -7 42 -12 58 -12z
" />
    <glyph glyph-name="uniF64A" unicode="&#xf64a;" horiz-adv-x="497" 
d="M397 541c-85 -40 -169 -100 -210 -196c36 22 73 31 101 31c94 0 170 -63 170 -183c0 -111 -79 -203 -210 -203c-130 0 -211 80 -211 223c0 199 157 339 327 390zM198 289l-18 36c-11 -32 -18 -69 -18 -111c0 -76 28 -153 85 -153c58 0 90 71 90 133c0 67 -33 111 -70 111
c-17 0 -38 -2 -69 -16z" />
    <glyph glyph-name="uniF64B" unicode="&#xf64b;" horiz-adv-x="458" 
d="M95 -130l240 506l-72 -23h-129l-19 -62l-67 13v163h365l32 -51l-231 -488v-58h-119z" />
    <glyph glyph-name="uniF64C" unicode="&#xf64c;" horiz-adv-x="500" 
d="M336 156c0 46 -68 99 -108 115c-31 -23 -62 -72 -62 -114c0 -58 40 -96 85 -96s85 41 85 95zM183 459c0 -47 50 -82 85 -98c22 16 49 61 49 104c0 39 -22 67 -67 67c-41 0 -67 -25 -67 -73zM433 455c0 -59 -53 -107 -89 -129c54 -34 107 -78 107 -165
c0 -114 -93 -171 -201 -171s-200 51 -200 167c0 70 50 121 104 148c-52 35 -86 87 -86 150c0 87 65 148 182 148c118 0 183 -63 183 -148z" />
    <glyph glyph-name="uniF64D" unicode="&#xf64d;" horiz-adv-x="482" 
d="M110 -66c72 36 135 99 173 176c-22 -14 -47 -22 -74 -22c-93 0 -173 65 -173 186c0 116 74 204 206 204c131 0 203 -64 203 -208c0 -175 -142 -340 -297 -400zM225 159c18 0 33 2 58 23l21 -21c10 33 16 69 16 108c0 87 -25 138 -78 138s-81 -67 -81 -134
c0 -66 28 -114 64 -114z" />
    <glyph glyph-name="numbersign" unicode="#" horiz-adv-x="668" 
d="M393 700l-85 -223h147l92 234h76l12 -11l-85 -223h91v-78h-121l-41 -106h134v-79h-165l-88 -225h-80l-11 11l83 214h-146l-88 -225h-79l-12 11l83 214h-77v79h109l41 106h-122v78h152l93 234h75zM278 399l-41 -106h146l42 106h-147z" />
    <glyph glyph-name="quotedbl" unicode="&#x22;" horiz-adv-x="357" 
d="M119 422h-53l-37 278l83 17l45 -17zM290 422h-53l-37 278l83 17l45 -17z" />
    <glyph glyph-name="quotesingle" unicode="'" horiz-adv-x="186" 
d="M119 422h-53l-37 278l83 17l45 -17z" />
    <glyph glyph-name="at" unicode="@" horiz-adv-x="1009" 
d="M676 129c64 0 150 69 150 211c0 175 -137 282 -294 282c-215 0 -350 -167 -350 -356c0 -214 186 -314 320 -314c64 0 151 9 227 50l27 -63c-93 -51 -176 -66 -261 -66c-226 0 -405 168 -405 393c0 263 200 436 439 436c205 0 390 -139 390 -361
c0 -171 -118 -290 -263 -290c-48 0 -86 9 -107 53c-27 -18 -55 -28 -104 -28c-75 0 -140 61 -140 173c0 158 101 238 207 238c26 0 48 -2 71 -8l36 8l59 -12l-30 -318c0 -19 5 -28 28 -28zM537 180l22 237c-16 7 -28 9 -44 9c-40 0 -91 -43 -91 -168c0 -77 30 -107 54 -107
c22 0 45 10 59 29z" />
    <glyph glyph-name="underscore" unicode="_" horiz-adv-x="499" 
d="M0 -140l12 88h487l-11 -88h-488z" />
    <glyph glyph-name="quotesinglbase" unicode="&#x201a;" horiz-adv-x="250" 
d="M132 120c38 0 68 -31 68 -68c0 -99 -86 -205 -142 -233l-35 36c46 36 77 96 79 145h-15c-15 17 -23 34 -23 52c0 37 30 68 68 68z" />
    <glyph glyph-name="Euro" unicode="&#x20ac;" horiz-adv-x="633" 
d="M31 407h76c25 136 117 245 302 245c87 0 150 -24 212 -62v-143l-69 -11l-47 110c-26 14 -59 24 -96 24c-85 0 -131 -79 -153 -163h202l-12 -51h-199c-1 -11 -1 -22 -1 -32c0 -18 0 -35 2 -52h210l-12 -51h-189c19 -83 65 -148 152 -148c28 0 72 8 96 23l47 109l69 -10
v-142c-62 -38 -126 -63 -212 -63c-179 0 -270 101 -299 231h-93l13 51h72c-1 16 -2 34 -2 51c0 11 0 22 1 33h-84z" />
    <glyph glyph-name="yen" unicode="&#xa5;" horiz-adv-x="660" 
d="M77 407h108l-85 131l-90 39l13 64h289l12 -64l-74 -32l84 -142v-61l143 203l-76 32l13 64h225l11 -64l-89 -38l-92 -132h121v-52h-157l-29 -43v-44h186v-52h-186v-128l82 -20l-12 -68h-277l-12 68l84 21v127h-192v52h192v9l-51 78h-141v52z" />
    <glyph glyph-name="cent" unicode="&#xa2;" horiz-adv-x="610" 
d="M445 601l-26 -111c38 -8 74 -22 96 -32v-104l-64 -13l-20 69c-8 2 -18 5 -29 6l-81 -344c10 -2 21 -3 33 -3c20 0 55 4 77 11l20 69l64 -13v-107c-55 -27 -116 -39 -163 -39c-17 0 -34 1 -49 4l-24 -104h-54l27 116c-93 32 -152 114 -152 238c0 154 94 254 252 254
c5 0 10 0 15 -1l25 104h53zM228 246c0 -65 14 -117 46 -147l75 321c-78 -2 -121 -63 -121 -174z" />
    <glyph glyph-name="oslash" unicode="&#xf8;" horiz-adv-x="579" 
d="M290 478c44 0 83 -8 117 -23l19 29h48l8 -7l-31 -47c56 -41 88 -109 88 -196c0 -153 -87 -244 -249 -244c-45 0 -84 7 -118 21l-21 -32h-46l-9 9l32 48c-58 42 -88 111 -88 198c0 149 98 244 250 244zM412 237c0 42 -7 78 -19 106l-174 -262c19 -18 42 -28 71 -28
c76 0 122 73 122 184zM290 415c-74 0 -121 -68 -121 -178c0 -43 6 -81 19 -111l173 261c-19 18 -43 28 -71 28z" />
    <glyph glyph-name="Oslash" unicode="&#xd8;" 
d="M405 717c60 0 112 -12 157 -33l25 42h57l9 -9l-38 -65c88 -65 134 -175 134 -302c0 -206 -105 -367 -344 -367c-62 0 -115 13 -160 34l-22 -39h-54l-12 11l35 60c-90 70 -132 185 -132 301c0 184 122 367 345 367zM601 355c0 86 -15 152 -44 198l-263 -452
c30 -23 66 -34 111 -34c131 0 196 104 196 288zM405 633c-128 0 -195 -89 -195 -278c0 -88 14 -156 42 -204l262 450c-30 21 -66 32 -109 32z" />
    <glyph glyph-name="thorn" unicode="&#xfe;" horiz-adv-x="578" 
d="M195 724v-266c30 11 76 19 108 19c151 0 235 -80 235 -234c0 -148 -129 -243 -272 -243h-28v53h22c65 0 141 81 141 201c0 121 -49 152 -106 152c-29 0 -66 -7 -100 -20v-548l63 -20l-11 -57h-230l-11 57l63 20v827h-55l-12 60l134 12z" />
    <glyph glyph-name="germandbls" unicode="&#xdf;" horiz-adv-x="656" 
d="M311 747c160 0 215 -93 215 -152c0 -124 -138 -107 -138 -184c0 -93 228 -124 228 -265c0 -88 -54 -156 -174 -156c-43 0 -94 13 -150 40v126l64 12l32 -92c16 -5 34 -9 47 -9c46 0 70 28 70 62c0 103 -227 125 -227 266c0 123 125 108 125 204c0 36 -34 68 -92 68
c-80 0 -96 -55 -96 -131v-536h-173l-12 64l61 20v335h-60l-11 64l71 24v20c0 112 63 220 220 220z" />
    <glyph glyph-name="florin" unicode="&#x192;" horiz-adv-x="466" 
d="M245 336v-240c0 -136 -37 -281 -232 -346l-37 63c133 89 147 197 147 299v224h-71l-13 70h84v53c0 93 69 178 194 178c52 0 94 -15 129 -44v-104l-64 -13l-22 79c-10 4 -27 8 -39 8c-41 0 -76 -28 -76 -120v-37h125l-13 -70h-112z" />
    <glyph glyph-name="degree" unicode="&#xb0;" horiz-adv-x="387" 
d="M195 717c71 0 132 -56 132 -134c0 -73 -60 -133 -132 -133c-79 0 -135 62 -135 133c0 73 60 134 135 134zM195 642c-34 0 -59 -26 -59 -59s26 -57 59 -57c30 0 57 25 57 57c0 33 -27 59 -57 59z" />
    <glyph glyph-name="C" unicode="C" horiz-adv-x="649" 
d="M396 67c29 0 82 5 115 14l51 139l71 -10v-162c-56 -40 -155 -65 -237 -65c-260 0 -366 183 -366 367s122 367 366 367c89 0 162 -21 237 -64v-156l-72 -11l-46 131c-36 10 -86 16 -119 16c-139 0 -216 -89 -216 -278c0 -136 45 -288 216 -288z" />
    <glyph glyph-name="Eth" unicode="&#xd0;" horiz-adv-x="735" 
d="M338 0h-292l-10 71l83 31v228h-83v52h83v214l-84 33l10 71h296c249 0 364 -151 364 -345s-117 -355 -367 -355zM341 629h-84v-247h144v-52h-144v-259h84c147 0 215 135 215 286c0 150 -68 272 -215 272z" />
    <glyph glyph-name="sterling" unicode="&#xa3;" horiz-adv-x="457" 
d="M4 312h82v99c1 180 115 241 215 241c62 0 103 -19 146 -47v-105l-65 -12l-23 72c-15 7 -34 10 -54 10c-47 0 -93 -42 -93 -124v-134h164v-53h-164c0 -60 -50 -140 -92 -173l77 23h241v-109h-434v88c35 28 82 68 82 173h-82v51z" />
    <glyph glyph-name="currency" unicode="&#xa4;" horiz-adv-x="561" 
d="M421 220l59 -59l-57 -58l-61 60c-24 -13 -51 -20 -82 -20c-30 0 -55 5 -81 21l-60 -60l-59 56l59 60c-12 24 -20 53 -20 84c0 30 8 57 21 82c-18 18 -44 43 -59 59l56 60l60 -61c24 14 54 23 83 23c31 0 58 -7 84 -22l59 59l58 -57l-60 -60c15 -25 22 -54 22 -83
c0 -32 -7 -59 -22 -84zM200 304c0 -45 35 -80 80 -80c46 0 82 35 82 80s-36 82 -82 82c-45 0 -80 -37 -80 -82z" />
    <glyph glyph-name="copyright" unicode="&#xa9;" horiz-adv-x="839" 
d="M55 352c0 202 163 365 363 365c202 0 366 -163 366 -365c0 -200 -167 -362 -369 -362c-200 0 -360 162 -360 362zM146 352c0 -160 109 -280 269 -280c163 0 278 120 278 280c0 164 -112 283 -275 283c-160 0 -272 -119 -272 -283zM426 184c18 0 49 3 69 8l30 82l42 -6
v-96c-33 -23 -92 -38 -141 -38c-153 0 -216 108 -216 217s72 218 216 218c53 0 96 -13 141 -38v-92l-43 -7l-27 78c-21 6 -51 9 -71 9c-82 0 -127 -53 -127 -165c0 -80 26 -170 127 -170z" />
    <glyph glyph-name="onequarter" unicode="&#xbc;" horiz-adv-x="802" 
d="M649 717h71l-534 -734h-72zM82 322l-7 42l66 12v268h-61l-8 43l107 23h41v-334l64 -13l-8 -41h-194zM577 146v72l27 81l-112 -153h85zM577 102h-131l-22 30l193 263l39 -10v-239h55l-11 -44h-44v-48l63 -13l-8 -41h-192l-6 42l64 12v48z" />
    <glyph glyph-name="onehalf" unicode="&#xbd;" horiz-adv-x="806" 
d="M640 351c-13 0 -32 -3 -45 -9l-18 -60l-41 8v80c36 17 75 25 106 25c80 0 118 -49 118 -105c0 -120 -152 -163 -172 -225h111l15 41l40 -8v-98h-229v32c0 107 156 156 156 265c0 39 -19 54 -41 54zM649 717h71l-534 -734h-72zM82 322l-7 42l66 12v268h-61l-8 43l107 23
h41v-334l64 -13l-8 -41h-194z" />
    <glyph glyph-name="threequarters" unicode="&#xbe;" horiz-adv-x="747" 
d="M291 678l-105 -119c54 -2 117 -40 117 -116c0 -77 -60 -127 -140 -127c-41 0 -81 15 -113 44l24 37c25 -19 56 -37 86 -37c34 0 66 36 66 81c0 44 -29 66 -78 66l-28 -6l-21 28l120 136l-50 -19h-54l-14 -42l-39 8v98h214zM624 717h71l-534 -734h-72zM552 146v72l27 81
l-112 -153h85zM552 102h-131l-22 30l193 263l39 -10v-239h55l-11 -44h-44v-48l63 -13l-8 -41h-192l-6 42l64 12v48z" />
    <glyph glyph-name="ordmasculine" unicode="&#xba;" horiz-adv-x="354" 
d="M177 612c92 0 152 -55 152 -149c0 -93 -53 -148 -152 -148c-98 0 -152 58 -152 148c0 91 60 149 152 149zM177 574c-45 0 -73 -42 -73 -109s26 -112 73 -112c46 0 74 45 74 112c0 68 -29 109 -74 109z" />
    <glyph glyph-name="onesuperior" unicode="&#xb9;" horiz-adv-x="312" 
d="M60 322l-7 42l66 12v268h-61l-8 43l107 23h41v-334l64 -13l-8 -41h-194z" />
    <glyph glyph-name="twosuperior" unicode="&#xb2;" horiz-adv-x="275" 
d="M135 673c-13 0 -32 -3 -45 -9l-18 -60l-41 8v80c36 17 75 25 106 25c80 0 118 -49 118 -105c0 -120 -152 -163 -172 -225h111l15 41l40 -8v-98h-229v32c0 107 156 156 156 265c0 39 -19 54 -41 54z" />
    <glyph glyph-name="threesuperior" unicode="&#xb3;" horiz-adv-x="308" 
d="M266 678l-105 -119c54 -2 117 -40 117 -116c0 -77 -60 -127 -140 -127c-41 0 -81 15 -113 44l24 37c25 -19 56 -37 86 -37c34 0 66 36 66 81c0 44 -29 66 -78 66l-28 -6l-21 28l120 136l-50 -19h-54l-14 -42l-39 8v98h214z" />
    <glyph glyph-name="ordfeminine" unicode="&#xaa;" horiz-adv-x="305" 
d="M39 529v59c36 17 72 25 103 25c78 0 125 -41 125 -114v-126l34 -13l-7 -38h-78l-18 14c-18 -13 -43 -21 -78 -21c-55 0 -103 30 -103 85c0 83 97 102 173 102v21c0 35 -25 52 -52 52c-14 0 -33 -4 -45 -7l-13 -46zM190 384v80c-56 0 -90 -24 -90 -59c0 -34 25 -45 42 -45
s38 9 48 24z" />
    <glyph glyph-name="registered" unicode="&#xae;" horiz-adv-x="839" 
d="M55 352c0 202 163 365 363 365c202 0 366 -163 366 -365c0 -200 -167 -362 -369 -362c-200 0 -360 162 -360 362zM381 519v-316l51 -18l-7 -43h-170l-6 43l49 18v296l-50 20l7 42h208c89 0 138 -45 138 -120c0 -65 -67 -112 -125 -112l40 -21l59 -105l65 -22
c34 47 53 105 53 171c0 164 -112 283 -275 283c-160 0 -272 -119 -272 -283c0 -160 109 -280 269 -280c76 0 141 26 190 70h-115l6 33l-90 154v39h39c47 0 75 39 75 73c0 44 -26 78 -79 78h-60z" />
    <glyph glyph-name="multiply" unicode="&#xd7;" horiz-adv-x="560" 
d="M397 124l-128 128l-128 -128l-65 59l131 131l-130 130l62 62l130 -130l130 130l62 -62l-130 -130l130 -131z" />
    <glyph glyph-name="cedilla" unicode="&#xb8;" horiz-adv-x="448" 
d="M183 -221l-20 56c52 0 82 20 82 47c0 17 -10 31 -29 31h-30v102h62v-54c33 -2 82 -21 82 -74c0 -81 -87 -108 -147 -108z" />
    <glyph glyph-name="ccedilla" unicode="&#xe7;" horiz-adv-x="514" 
d="M313 415c-81 0 -136 -61 -136 -163c0 -105 35 -190 137 -190c44 0 100 16 144 46l34 -51c-46 -42 -107 -65 -168 -68v-28c33 -2 82 -21 82 -74c0 -81 -87 -108 -147 -108l-20 56c52 0 82 20 82 47c0 17 -10 31 -29 31h-30v79c-149 15 -222 107 -222 241
c0 154 113 245 271 245c48 0 108 -13 166 -42v-96l-67 -12l-21 75c-21 8 -57 12 -76 12z" />
    <glyph glyph-name="Ccedilla" unicode="&#xc7;" horiz-adv-x="649" 
d="M396 67c29 0 82 5 115 14l51 139l71 -10v-162c-51 -36 -137 -60 -213 -64v-23c33 -2 82 -21 82 -74c0 -81 -87 -108 -147 -108l-20 56c52 0 82 20 82 47c0 17 -10 31 -29 31h-30v72c-233 16 -328 190 -328 365c0 184 122 367 366 367c89 0 162 -21 237 -64v-156l-72 -11
l-46 131c-36 10 -86 16 -119 16c-139 0 -216 -89 -216 -278c0 -136 45 -288 216 -288z" />
    <glyph glyph-name="mu" unicode="&#xb5;" horiz-adv-x="572" 
d="M133 478l58 -14v-301c0 -75 50 -101 91 -101c27 0 65 14 85 38v306h-42l-11 59l129 13l50 -15v-380l64 -21l-12 -62h-136l-30 23c-38 -27 -83 -34 -132 -34c-38 0 -70 8 -97 22l41 -75v-92l64 -22l-12 -61h-230l-11 61l63 22v562h-41l-11 59z" />
    <glyph glyph-name="dagger" unicode="&#x2020;" horiz-adv-x="516" 
d="M309 428l-23 -558h-59l-19 558l-160 -32l-18 88l23 47l154 -35l-19 204l88 17l52 -17l-20 -204l160 32l18 -88l-23 -47z" />
    <glyph glyph-name="daggerdbl" unicode="&#x2021;" horiz-adv-x="516" 
d="M309 428l-11 -263l128 20l18 -48l-23 -47l-125 23l-10 -243h-59l-8 241l-131 -20l-18 58l23 37l124 -23l-9 265l-160 -32l-18 88l23 47l154 -35l-19 204l88 17l52 -17l-20 -204l160 32l18 -88l-23 -47z" />
    <glyph glyph-name="uni00AD" unicode="&#xad;" horiz-adv-x="389" 
d="M42 274l12 92h293l-11 -92h-294z" />
    <glyph glyph-name="logicalnot" unicode="&#xac;" horiz-adv-x="552" 
d="M58 274l14 92h422v-248h-94v156h-342z" />
    <glyph glyph-name="divide" unicode="&#xf7;" horiz-adv-x="624" 
d="M309 554c38 0 69 -30 69 -68s-31 -68 -69 -68c-37 0 -68 30 -68 68s31 68 68 68zM309 230c38 0 69 -31 69 -68c0 -38 -31 -69 -69 -69c-37 0 -68 31 -68 69c0 37 31 68 68 68zM58 286l10 80h498l-10 -80h-498z" />
    <glyph glyph-name="eth" unicode="&#xf0;" horiz-adv-x="563" 
d="M445 732l-105 -75c111 -96 182 -230 182 -406c0 -157 -88 -261 -239 -261c-150 0 -239 100 -239 244c0 147 94 243 245 243c21 0 53 -2 73 -8c-19 46 -55 92 -98 134l-114 -80l-39 44l107 76c-34 28 -71 53 -107 73l28 61c55 -22 106 -49 152 -82l115 82zM284 53
c76 1 112 97 112 197c0 52 -6 103 -17 144c-22 13 -59 20 -85 20c-71 0 -115 -90 -115 -179s43 -180 105 -182z" />
    <glyph glyph-name="Amacron" unicode="&#x100;" horiz-adv-x="761" 
d="M217 763v66h341v-66h-341zM441 717l-109 -17l-230 -597l-87 -32l11 -71h250l10 72l-94 31l48 120h234l45 -120l-79 -32l11 -71h291l11 71l-88 32zM382 471l63 -170h-175l112 284v-114z" />
    <glyph glyph-name="amacron" unicode="&#x101;" horiz-adv-x="508" 
d="M77 580v66h341v-66h-341zM68 436v-96l67 -12l22 76c19 5 50 11 74 11c44 0 85 -28 85 -85v-35c-126 0 -285 -31 -285 -167c0 -91 79 -139 169 -139c58 0 99 13 129 34l30 -23h127l12 61l-56 22v207c0 121 -77 188 -206 188c-50 0 -110 -13 -168 -42zM316 233v-131
c-17 -25 -52 -40 -79 -40c-28 0 -69 18 -69 75s55 96 148 96z" />
    <glyph glyph-name="Abreve" unicode="&#x102;" horiz-adv-x="761" 
d="M386 842c52 0 98 19 129 57l37 -25c-21 -58 -80 -119 -166 -119c-85 0 -144 61 -165 119l36 25c31 -38 78 -57 129 -57zM332 700l109 17l224 -614l88 -32l-11 -71h-291l-11 71l79 32l-45 120h-234l-48 -120l94 -31l-10 -72h-250l-11 71l87 32zM445 301l-63 170v114
l-112 -284h175z" />
    <glyph glyph-name="abreve" unicode="&#x103;" horiz-adv-x="508" 
d="M256 658c52 0 98 19 129 57l37 -25c-21 -58 -80 -119 -166 -119c-85 0 -144 61 -165 119l36 25c31 -38 78 -57 129 -57zM68 340v96c58 29 118 42 168 42c129 0 206 -67 206 -188v-207l56 -22l-12 -61h-127l-30 23c-30 -21 -71 -34 -129 -34c-90 0 -169 48 -169 139
c0 136 159 167 285 167v35c0 57 -41 85 -85 85c-24 0 -55 -6 -74 -11l-22 -76zM316 102v131c-93 0 -148 -39 -148 -96s41 -75 69 -75c27 0 62 15 79 40z" />
    <glyph glyph-name="macron" unicode="&#xaf;" horiz-adv-x="522" 
d="M90 763v66h341v-66h-341z" />
    <glyph glyph-name="Aogonek" unicode="&#x104;" horiz-adv-x="761" 
d="M332 700l109 17l224 -614l88 -32l-11 -71c-54 -26 -88 -56 -88 -85c0 -25 17 -33 41 -33c12 0 21 2 31 5l17 -72c-31 -11 -61 -12 -69 -12c-60 0 -102 38 -102 96c0 51 39 81 76 101h-197l-11 71l79 32l-45 120h-234l-48 -120l94 -31l-10 -72h-250l-11 71l87 32zM445 301
l-63 170v114l-112 -284h175z" />
    <glyph glyph-name="aogonek" unicode="&#x105;" horiz-adv-x="508" 
d="M68 340v96c58 29 118 42 168 42c129 0 206 -67 206 -188v-207l56 -22l-12 -61c-54 -26 -88 -56 -88 -85c0 -25 17 -33 41 -33c12 0 21 2 31 5l17 -72c-31 -11 -61 -12 -69 -12c-60 0 -102 38 -102 96c0 51 39 81 76 101h-33l-30 23c-30 -21 -71 -34 -129 -34
c-90 0 -169 48 -169 139c0 136 159 167 285 167v35c0 57 -41 85 -85 85c-24 0 -55 -6 -74 -11l-22 -76zM316 102v131c-93 0 -148 -39 -148 -96s41 -75 69 -75c27 0 62 15 79 40z" />
    <glyph glyph-name="Cacute" unicode="&#x106;" horiz-adv-x="649" 
d="M396 67c29 0 82 5 115 14l51 139l71 -10v-162c-56 -40 -155 -65 -237 -65c-260 0 -366 183 -366 367s122 367 366 367c89 0 162 -21 237 -64v-156l-72 -11l-46 131c-36 10 -86 16 -119 16c-139 0 -216 -89 -216 -278c0 -136 45 -288 216 -288zM560 870l-176 -112l-29 27
l124 156z" />
    <glyph glyph-name="cacute" unicode="&#x107;" horiz-adv-x="514" 
d="M429 719l-126 -158l-44 23l73 182zM313 415c-81 0 -136 -61 -136 -163c0 -105 35 -190 137 -190c44 0 100 16 144 46l34 -51c-49 -45 -117 -68 -183 -68c-180 0 -269 97 -269 244c0 154 113 245 271 245c48 0 108 -13 166 -42v-96l-67 -12l-21 75c-21 8 -57 12 -76 12z
" />
    <glyph glyph-name="ogonek" unicode="&#x2db;" horiz-adv-x="215" 
d="M126 15l63 -15c-54 -26 -88 -56 -88 -85c0 -25 17 -33 41 -33c12 0 21 2 31 5l17 -72c-31 -11 -61 -12 -69 -12c-60 0 -102 38 -102 96c0 66 66 97 107 116z" />
    <glyph glyph-name="Ccircumflex" unicode="&#x108;" horiz-adv-x="649" 
d="M429 928l116 -170l-32 -21l-118 98l-120 -98l-30 21l115 170h69zM396 67c-171 0 -216 152 -216 288c0 189 77 278 216 278c33 0 83 -6 119 -16l46 -131l72 11v156c-75 43 -148 64 -237 64c-244 0 -366 -183 -366 -367s106 -367 366 -367c82 0 181 25 237 65v162l-71 10
l-51 -139c-33 -9 -86 -14 -115 -14z" />
    <glyph glyph-name="ccircumflex" unicode="&#x109;" horiz-adv-x="514" 
d="M317 735l116 -170l-32 -21l-118 98l-120 -98l-30 21l115 170h69zM313 415c19 0 55 -4 76 -12l21 -75l67 12v96c-58 29 -118 42 -166 42c-158 0 -271 -91 -271 -245c0 -147 89 -244 269 -244c66 0 134 23 183 68l-34 51c-44 -30 -100 -46 -144 -46
c-102 0 -137 85 -137 190c0 102 55 163 136 163z" />
    <glyph glyph-name="Cdotaccent" unicode="&#x10a;" horiz-adv-x="649" 
d="M398 875c36 0 65 -29 65 -65c0 -35 -29 -65 -65 -65c-34 0 -65 30 -65 65c0 36 31 65 65 65zM396 67c29 0 82 5 115 14l51 139l71 -10v-162c-56 -40 -155 -65 -237 -65c-260 0 -366 183 -366 367s122 367 366 367c89 0 162 -21 237 -64v-156l-72 -11l-46 131
c-36 10 -86 16 -119 16c-139 0 -216 -89 -216 -278c0 -136 45 -288 216 -288z" />
    <glyph glyph-name="cdotaccent" unicode="&#x10b;" horiz-adv-x="514" 
d="M307 697c36 0 65 -29 65 -65c0 -35 -29 -65 -65 -65c-34 0 -65 30 -65 65c0 36 31 65 65 65zM313 415c-81 0 -136 -61 -136 -163c0 -105 35 -190 137 -190c44 0 100 16 144 46l34 -51c-49 -45 -117 -68 -183 -68c-180 0 -269 97 -269 244c0 154 113 245 271 245
c48 0 108 -13 166 -42v-96l-67 -12l-21 75c-21 8 -57 12 -76 12z" />
    <glyph glyph-name="Ccaron" unicode="&#x10c;" horiz-adv-x="649" 
d="M545 907l-116 -170h-69l-115 170l30 21l120 -98l118 98zM396 67c29 0 82 5 115 14l51 139l71 -10v-162c-56 -40 -155 -65 -237 -65c-260 0 -366 183 -366 367s122 367 366 367c89 0 162 -21 237 -64v-156l-72 -11l-46 131c-36 10 -86 16 -119 16
c-139 0 -216 -89 -216 -278c0 -136 45 -288 216 -288z" />
    <glyph glyph-name="ccaron" unicode="&#x10d;" horiz-adv-x="514" 
d="M438 714l-116 -170h-69l-115 170l30 21l120 -98l118 98zM313 415c-81 0 -136 -61 -136 -163c0 -105 35 -190 137 -190c44 0 100 16 144 46l34 -51c-49 -45 -117 -68 -183 -68c-180 0 -269 97 -269 244c0 154 113 245 271 245c48 0 108 -13 166 -42v-96l-67 -12l-21 75
c-21 8 -57 12 -76 12z" />
    <glyph glyph-name="dotaccent" unicode="&#x2d9;" horiz-adv-x="181" 
d="M92 697c36 0 65 -29 65 -65c0 -35 -29 -65 -65 -65c-34 0 -65 30 -65 65c0 36 31 65 65 65z" />
    <glyph glyph-name="Dcaron" unicode="&#x10e;" horiz-adv-x="735" 
d="M341 629h-84v-558h84c147 0 215 135 215 286c0 150 -68 272 -215 272zM338 0h-292l-10 71l83 31v494l-84 33l10 71h296c249 0 364 -151 364 -345s-117 -355 -367 -355zM460 907l-116 -170h-69l-115 170l30 21l120 -98l118 98z" />
    <glyph glyph-name="dcaron" unicode="&#x10f;" horiz-adv-x="571" 
d="M599 697c-31 0 -55 -25 -55 -56c0 -15 7 -29 18 -42h17c-3 -21 -15 -44 -38 -62l28 -28c43 22 85 65 85 132c0 32 -24 56 -55 56zM375 93v293c-21 12 -56 20 -81 20c-78 0 -123 -62 -123 -166c0 -105 50 -178 118 -178c30 0 64 9 86 31zM418 0l-30 23
c-22 -18 -66 -34 -105 -34c-161 0 -248 93 -248 241s104 248 253 248c26 0 61 -5 87 -13v210h-54l-11 57l132 15l59 -15v-649l65 -22l-12 -61h-136z" />
    <glyph glyph-name="Dcroat" unicode="&#x110;" horiz-adv-x="735" 
d="M338 0h-292l-10 71l83 31v228h-83v52h83v214l-84 33l10 71h296c249 0 364 -151 364 -345s-117 -355 -367 -355zM341 629h-84v-247h144v-52h-144v-259h84c147 0 215 135 215 286c0 150 -68 272 -215 272z" />
    <glyph glyph-name="dcroat" unicode="&#x111;" horiz-adv-x="571" 
d="M418 0l-30 23c-22 -18 -66 -34 -105 -34c-161 0 -248 93 -248 241s104 248 253 248c26 0 61 -5 87 -13v95h-184v51h184v64h-54l-11 57l132 15l59 -15v-121h67v-51h-67v-477l65 -22l-12 -61h-136zM375 93v293c-21 12 -56 20 -81 20c-78 0 -123 -62 -123 -166
c0 -105 50 -178 118 -178c30 0 64 9 86 31z" />
    <glyph glyph-name="Emacron" unicode="&#x112;" horiz-adv-x="613" 
d="M143 763v66h341v-66h-341zM257 629h193l39 -118l72 11v178h-515l-11 -71l84 -33v-494l-82 -31l10 -71h531v211l-71 10l-53 -150h-197v250h103l31 -81l71 10v221l-72 10l-30 -81h-103v229z" />
    <glyph glyph-name="emacron" unicode="&#x113;" horiz-adv-x="549" 
d="M116 580v66h341v-66h-341zM385 294h-205c9 72 51 121 116 121c52 0 92 -33 92 -92c0 -9 -1 -19 -3 -29zM318 62c-86 0 -139 70 -141 170h315c12 21 22 57 22 84c0 98 -98 162 -218 162c-143 0 -256 -91 -256 -244c0 -148 83 -245 273 -245c66 0 129 16 193 68l-34 51
c-51 -34 -103 -46 -154 -46z" />
    <glyph glyph-name="Ebreve" unicode="&#x114;" horiz-adv-x="613" 
d="M315 842c52 0 98 19 129 57l37 -25c-21 -58 -80 -119 -166 -119c-85 0 -144 61 -165 119l36 25c31 -38 78 -57 129 -57zM450 629h-193v-229h103l30 81l72 -10v-221l-71 -10l-31 81h-103v-250h197l53 150l71 -10v-211h-531l-10 71l82 31v494l-84 33l11 71h515v-178
l-72 -11z" />
    <glyph glyph-name="ebreve" unicode="&#x115;" horiz-adv-x="549" 
d="M291 658c52 0 98 19 129 57l37 -25c-21 -58 -80 -119 -166 -119c-85 0 -144 61 -165 119l36 25c31 -38 78 -57 129 -57zM180 294h205c2 10 3 20 3 29c0 59 -40 92 -92 92c-65 0 -107 -49 -116 -121zM318 62c51 0 103 12 154 46l34 -51c-64 -52 -127 -68 -193 -68
c-190 0 -273 97 -273 245c0 153 113 244 256 244c120 0 218 -64 218 -162c0 -27 -10 -63 -22 -84h-315c2 -100 55 -170 141 -170z" />
    <glyph glyph-name="Edotaccent" unicode="&#x116;" horiz-adv-x="613" 
d="M317 875c36 0 65 -29 65 -65c0 -35 -29 -65 -65 -65c-34 0 -65 30 -65 65c0 36 31 65 65 65zM450 629h-193v-229h103l30 81l72 -10v-221l-71 -10l-31 81h-103v-250h197l53 150l71 -10v-211h-531l-10 71l82 31v494l-84 33l11 71h515v-178l-72 -11z" />
    <glyph glyph-name="edotaccent" unicode="&#x117;" horiz-adv-x="549" 
d="M294 697c36 0 65 -29 65 -65c0 -35 -29 -65 -65 -65c-34 0 -65 30 -65 65c0 36 31 65 65 65zM180 294h205c2 10 3 20 3 29c0 59 -40 92 -92 92c-65 0 -107 -49 -116 -121zM318 62c51 0 103 12 154 46l34 -51c-64 -52 -127 -68 -193 -68c-190 0 -273 97 -273 245
c0 153 113 244 256 244c120 0 218 -64 218 -162c0 -27 -10 -63 -22 -84h-315c2 -100 55 -170 141 -170z" />
    <glyph glyph-name="Eogonek" unicode="&#x118;" horiz-adv-x="613" 
d="M450 629h-193v-229h103l30 81l72 -10v-221l-71 -10l-31 81h-103v-250h197l53 150l71 -10v-211c-54 -26 -88 -56 -88 -85c0 -25 17 -33 41 -33c12 0 21 2 31 5l17 -72c-31 -11 -61 -12 -69 -12c-60 0 -102 38 -102 96c0 51 39 81 76 101h-437l-10 71l82 31v494l-84 33
l11 71h515v-178l-72 -11z" />
    <glyph glyph-name="eogonek" unicode="&#x119;" horiz-adv-x="549" 
d="M318 62c51 0 103 12 154 46l34 -51c-37 -30 -73 -48 -110 -58c-53 -26 -86 -55 -86 -84c0 -25 17 -33 41 -33c12 0 21 2 31 5l17 -72c-31 -11 -61 -12 -69 -12c-60 0 -102 38 -102 96c0 43 27 71 58 91c-171 9 -246 103 -246 244c0 153 113 244 256 244
c120 0 218 -64 218 -162c0 -27 -10 -63 -22 -84h-315c2 -100 55 -170 141 -170zM180 294h205c2 10 3 20 3 29c0 59 -40 92 -92 92c-65 0 -107 -49 -116 -121z" />
    <glyph glyph-name="Ecaron" unicode="&#x11a;" horiz-adv-x="613" 
d="M474 907l-116 -170h-69l-115 170l30 21l120 -98l118 98zM450 629h-193v-229h103l30 81l72 -10v-221l-71 -10l-31 81h-103v-250h197l53 150l71 -10v-211h-531l-10 71l82 31v494l-84 33l11 71h515v-178l-72 -11z" />
    <glyph glyph-name="ecaron" unicode="&#x11b;" horiz-adv-x="549" 
d="M180 294h205c2 10 3 20 3 29c0 59 -40 92 -92 92c-65 0 -107 -49 -116 -121zM318 62c51 0 103 12 154 46l34 -51c-64 -52 -127 -68 -193 -68c-190 0 -273 97 -273 245c0 153 113 244 256 244c120 0 218 -64 218 -162c0 -27 -10 -63 -22 -84h-315c2 -100 55 -170 141 -170
zM446 714l-116 -170h-69l-115 170l30 21l120 -98l118 98z" />
    <glyph glyph-name="Gcircumflex" unicode="&#x11c;" horiz-adv-x="757" 
d="M446 928l116 -170l-32 -21l-118 98l-120 -98l-30 21l115 170h69zM184 355c0 144 68 278 226 278c33 0 83 -7 119 -17l47 -131l71 11v156c-74 43 -149 65 -237 65c-223 0 -375 -163 -375 -367c0 -184 116 -367 375 -367c82 0 182 25 237 65v195l85 34l-12 71h-284l-11 -71
l83 -33v-165c-29 -8 -72 -12 -99 -12c-172 0 -225 152 -225 288z" />
    <glyph glyph-name="gcircumflex" unicode="&#x11d;" horiz-adv-x="482" 
d="M290 735l116 -170l-32 -21l-118 98l-120 -98l-30 21l115 170h69zM195 108l88 -31c100 -35 171 -73 171 -157c0 -119 -114 -170 -236 -170c-98 0 -194 34 -194 122c0 53 53 96 106 114l36 -44c-31 -17 -44 -46 -44 -65c0 -31 38 -56 96 -56c56 0 106 30 106 73
c0 38 -47 68 -88 81l-102 33c-35 12 -79 34 -79 85l48 80c-42 30 -61 73 -61 131c0 93 83 174 204 174c29 0 62 -4 88 -11l138 12l-15 -73h-58l45 -28c10 -22 15 -47 15 -74c0 -115 -94 -172 -220 -172c-24 0 -49 2 -70 8l-3 -8c1 -11 12 -19 29 -24zM246 415
c-48 0 -85 -35 -85 -108c0 -74 36 -112 85 -112c51 0 92 35 92 114c0 84 -48 106 -92 106z" />
    <glyph glyph-name="Gbreve" unicode="&#x11e;" horiz-adv-x="757" 
d="M410 842c52 0 98 19 129 57l37 -25c-21 -58 -80 -119 -166 -119c-85 0 -144 61 -165 119l36 25c31 -38 78 -57 129 -57zM184 355c0 -136 53 -288 225 -288c27 0 70 4 99 12v165l-83 33l11 71h284l12 -71l-85 -34v-195c-55 -40 -155 -65 -237 -65
c-259 0 -375 183 -375 367c0 204 152 367 375 367c88 0 163 -22 237 -65v-156l-71 -11l-47 131c-36 10 -86 17 -119 17c-158 0 -226 -134 -226 -278z" />
    <glyph glyph-name="gbreve" unicode="&#x11f;" horiz-adv-x="482" 
d="M242 658c52 0 98 19 129 57l37 -25c-21 -58 -80 -119 -166 -119c-85 0 -144 61 -165 119l36 25c31 -38 78 -57 129 -57zM195 108l88 -31c100 -35 171 -73 171 -157c0 -119 -114 -170 -236 -170c-98 0 -194 34 -194 122c0 53 53 96 106 114l36 -44
c-31 -17 -44 -46 -44 -65c0 -31 38 -56 96 -56c56 0 106 30 106 73c0 38 -47 68 -88 81l-102 33c-35 12 -79 34 -79 85l48 80c-42 30 -61 73 -61 131c0 93 83 174 204 174c29 0 62 -4 88 -11l138 12l-15 -73h-58l45 -28c10 -22 15 -47 15 -74c0 -115 -94 -172 -220 -172
c-24 0 -49 2 -70 8l-3 -8c1 -11 12 -19 29 -24zM246 415c-48 0 -85 -35 -85 -108c0 -74 36 -112 85 -112c51 0 92 35 92 114c0 84 -48 106 -92 106z" />
    <glyph glyph-name="Gdotaccent" unicode="&#x120;" horiz-adv-x="757" 
d="M411 875c36 0 65 -29 65 -65c0 -35 -29 -65 -65 -65c-34 0 -65 30 -65 65c0 36 31 65 65 65zM184 355c0 -136 53 -288 225 -288c27 0 70 4 99 12v165l-83 33l11 71h284l12 -71l-85 -34v-195c-55 -40 -155 -65 -237 -65c-259 0 -375 183 -375 367c0 204 152 367 375 367
c88 0 163 -22 237 -65v-156l-71 -11l-47 131c-36 10 -86 17 -119 17c-158 0 -226 -134 -226 -278z" />
    <glyph glyph-name="gdotaccent" unicode="&#x121;" horiz-adv-x="482" 
d="M244 697c36 0 65 -29 65 -65c0 -35 -29 -65 -65 -65c-34 0 -65 30 -65 65c0 36 31 65 65 65zM195 108l88 -31c100 -35 171 -73 171 -157c0 -119 -114 -170 -236 -170c-98 0 -194 34 -194 122c0 53 53 96 106 114l36 -44c-31 -17 -44 -46 -44 -65c0 -31 38 -56 96 -56
c56 0 106 30 106 73c0 38 -47 68 -88 81l-102 33c-35 12 -79 34 -79 85l48 80c-42 30 -61 73 -61 131c0 93 83 174 204 174c29 0 62 -4 88 -11l138 12l-15 -73h-58l45 -28c10 -22 15 -47 15 -74c0 -115 -94 -172 -220 -172c-24 0 -49 2 -70 8l-3 -8c1 -11 12 -19 29 -24z
M246 415c-48 0 -85 -35 -85 -108c0 -74 36 -112 85 -112c51 0 92 35 92 114c0 84 -48 106 -92 106z" />
    <glyph glyph-name="commaaccent" horiz-adv-x="153" 
d="M77 585c31 0 55 -24 55 -56c0 -67 -42 -110 -85 -132l-28 28c23 18 35 41 38 62h-17c-11 13 -18 27 -18 42c0 31 24 56 55 56z" />
    <glyph glyph-name="Gcommaaccen" unicode="&#x122;" horiz-adv-x="757" 
d="M415 -36c31 0 55 -24 55 -56c0 -67 -42 -110 -85 -132l-28 28c23 18 35 41 38 62h-17c-11 13 -18 27 -18 42c0 31 24 56 55 56zM184 355c0 -136 53 -288 225 -288c27 0 70 4 99 12v165l-83 33l11 71h284l12 -71l-85 -34v-195c-55 -40 -155 -65 -237 -65
c-259 0 -375 183 -375 367c0 204 152 367 375 367c88 0 163 -22 237 -65v-156l-71 -11l-47 131c-36 10 -86 17 -119 17c-158 0 -226 -134 -226 -278z" />
    <glyph glyph-name="gcommaaccent" unicode="&#x123;" horiz-adv-x="482" 
d="M244 529c-31 0 -55 24 -55 56c0 67 42 110 85 132l28 -28c-23 -18 -35 -41 -38 -62h17c11 -13 18 -27 18 -42c0 -31 -24 -56 -55 -56zM195 108l88 -31c100 -35 171 -73 171 -157c0 -119 -114 -170 -236 -170c-98 0 -194 34 -194 122c0 53 53 96 106 114l36 -44
c-31 -17 -44 -46 -44 -65c0 -31 38 -56 96 -56c56 0 106 30 106 73c0 38 -47 68 -88 81l-102 33c-35 12 -79 34 -79 85l48 80c-42 30 -61 73 -61 131c0 93 83 174 204 174c29 0 62 -4 88 -11l138 12l-15 -73h-58l45 -28c10 -22 15 -47 15 -74c0 -115 -94 -172 -220 -172
c-24 0 -49 2 -70 8l-3 -8c1 -11 12 -19 29 -24zM246 415c-48 0 -85 -35 -85 -108c0 -74 36 -112 85 -112c51 0 92 35 92 114c0 84 -48 106 -92 106z" />
    <glyph glyph-name="Hcircumflex" unicode="&#x124;" horiz-adv-x="820" 
d="M444 928l116 -170l-32 -21l-118 98l-120 -98l-30 21l115 170h69zM696 596l84 33l-10 71h-286l-10 -71l84 -33v-197h-296v197l84 33l-10 71h-286l-10 -71l84 -33v-494l-83 -31l11 -71h282l10 71l-82 31v220h296v-220l-84 -31l10 -71h284l11 71l-83 32v493z" />
    <glyph glyph-name="hcircumflex" unicode="&#x125;" horiz-adv-x="602" 
d="M155 928l116 -170l-32 -21l-118 98l-120 -98l-30 21l115 170h69zM208 83l63 -22l-12 -61h-227l-12 61l62 22v592h-55l-12 57l134 15l59 -15v-280c28 13 81 26 113 26c113 0 188 -50 188 -159v-236l63 -22l-12 -61h-229l-12 61l64 22v250c0 52 -32 72 -69 72
c-34 0 -79 -9 -106 -20v-302z" />
    <glyph glyph-name="Hbar" unicode="&#x126;" horiz-adv-x="820" 
d="M780 629l-84 -33v-68h84v-52h-84v-373l83 -32l-11 -71h-284l-10 71l84 31v220h-296v-220l82 -31l-10 -71h-282l-11 71l83 31v374h-84v52h84v68l-84 33l10 71h286l10 -71l-84 -33v-68h296v68l-84 33l10 71h286zM262 399h296v77h-296v-77z" />
    <glyph glyph-name="hbar" unicode="&#x127;" horiz-adv-x="602" 
d="M208 83l63 -22l-12 -61h-227l-12 61l62 22v476h-67v52h67v64h-55l-12 57l134 15l59 -15v-121h156v-52h-156v-107c28 13 81 26 113 26c113 0 188 -50 188 -159v-236l63 -22l-12 -61h-229l-12 61l64 22v250c0 52 -32 72 -69 72c-34 0 -79 -9 -106 -20v-302z" />
    <glyph glyph-name="Itilde" unicode="&#x128;" horiz-adv-x="428" 
d="M303 756h-36l-100 50l-83 -52l-32 21l93 115h34l100 -40l87 42l30 -21zM283 596v-494l85 -31l-12 -71h-284l-12 71l85 31v494l-85 33l12 71h284l12 -71z" />
    <glyph glyph-name="itilde" unicode="&#x129;" horiz-adv-x="334" 
d="M246 563h-36l-100 50l-83 -52l-32 21l93 115h34l100 -40l87 42l30 -21zM230 83l64 -21l-12 -62h-230l-12 62l64 21v323h-46l-11 61l122 11l61 -11v-384z" />
    <glyph glyph-name="uni012A" unicode="&#x12a;" horiz-adv-x="428" 
d="M44 763v66h341v-66h-341zM283 102v494l85 33l-12 71h-284l-12 -71l85 -33v-494l-85 -31l12 -71h284l12 71z" />
    <glyph glyph-name="imacron" unicode="&#x12b;" horiz-adv-x="334" 
d="M-3 580v66h341v-66h-341zM294 62l-64 21v384l-61 11l-122 -11l11 -61h46v-323l-64 -21l12 -62h230z" />
    <glyph glyph-name="Ibreve" unicode="&#x12c;" horiz-adv-x="428" 
d="M214 842c52 0 98 19 129 57l37 -25c-21 -58 -80 -119 -166 -119c-85 0 -144 61 -165 119l36 25c31 -38 78 -57 129 -57zM283 596v-494l85 -31l-12 -71h-284l-12 71l85 31v494l-85 33l12 71h284l12 -71z" />
    <glyph glyph-name="uni012D" unicode="&#x12d;" horiz-adv-x="334" 
d="M230 83l64 -21l-12 -62h-230l-12 62l64 21v323h-46l-11 61l122 11l61 -11v-384zM168 658c52 0 98 19 129 57l37 -25c-21 -58 -80 -119 -166 -119c-85 0 -144 61 -165 119l36 25c31 -38 78 -57 129 -57z" />
    <glyph glyph-name="Iogonek" unicode="&#x12e;" horiz-adv-x="428" 
d="M217 15l63 -15c-54 -26 -88 -56 -88 -85c0 -25 17 -33 41 -33c12 0 21 2 31 5l17 -72c-31 -11 -61 -12 -69 -12c-60 0 -102 38 -102 96c0 66 66 97 107 116zM283 596v-494l85 -31l-12 -71h-284l-12 71l85 31v494l-85 33l12 71h284l12 -71z" />
    <glyph glyph-name="iogonek" unicode="&#x12f;" horiz-adv-x="334" 
d="M181 15l63 -15c-54 -26 -88 -56 -88 -85c0 -25 17 -33 41 -33c12 0 21 2 31 5l17 -72c-31 -11 -61 -12 -69 -12c-60 0 -102 38 -102 96c0 66 66 97 107 116zM230 83l64 -22l-12 -61h-230l-12 61l64 22v323h-46l-11 61l122 11l61 -11v-384zM159 697c36 0 65 -29 65 -65
c0 -35 -29 -65 -65 -65c-35 0 -65 30 -65 65c0 36 30 65 65 65z" />
    <glyph glyph-name="Idotaccent" unicode="&#x130;" horiz-adv-x="428" 
d="M214 875c36 0 65 -29 65 -65c0 -35 -29 -65 -65 -65c-34 0 -65 30 -65 65c0 36 31 65 65 65zM283 596v-494l85 -31l-12 -71h-284l-12 71l85 31v494l-85 33l12 71h284l12 -71z" />
    <glyph glyph-name="dotlessi" unicode="&#x131;" horiz-adv-x="334" 
d="M230 83l64 -21l-12 -62h-230l-12 62l64 21v323h-46l-11 61l122 11l61 -11v-384z" />
    <glyph glyph-name="Jcircumflex" unicode="&#x134;" horiz-adv-x="396" 
d="M240 928l116 -170l-32 -21l-118 98l-120 -98l-30 21l115 170h69zM144 596v-399c0 -105 -14 -217 -149 -308l38 -64c199 64 248 209 248 348v423l85 33l-11 71h-284l-12 -71z" />
    <glyph glyph-name="jcircumflex" unicode="&#x135;" horiz-adv-x="301" 
d="M181 735l116 -170l-32 -21l-118 98l-120 -98l-30 21l115 170h69zM33 467l135 11l59 -11v-387c0 -136 -38 -264 -238 -330l-34 57c134 88 146 182 146 289v310h-55z" />
    <glyph glyph-name="Kcommaaccent" unicode="&#x136;" horiz-adv-x="728" 
d="M404 -36c31 0 55 -24 55 -56c0 -67 -42 -110 -85 -132l-28 28c23 18 35 41 38 62h-17c-11 13 -18 27 -18 42c0 31 24 56 55 56zM257 596v-492l84 -32l-10 -72h-286l-10 71l84 33v492l-84 34l11 70h285l10 -71zM481 0l9 54l-191 286v53l199 203l-63 33l12 71h241l11 -71
c-61 -17 -106 -48 -129 -72l-177 -180l68 -32l164 -242l87 -32l-11 -71h-220z" />
    <glyph glyph-name="kcommaaccent" unicode="&#x137;" horiz-adv-x="592" 
d="M320 -36c-31 0 -55 -25 -55 -56c0 -15 7 -29 18 -42h17c-3 -21 -15 -44 -38 -62l28 -28c43 22 85 65 85 132c0 32 -24 56 -55 56zM555 467h-202l-14 -61l50 -22l-128 -123v-39l124 -171l-10 -51h195l12 61l-73 22l-106 150l-60 13l119 113c20 20 53 37 105 47zM230 83
l63 -22l-12 -61h-229l-12 61l64 22v592h-44l-12 57l123 15l59 -15v-649z" />
    <glyph glyph-name="kgreenlandic" unicode="&#x138;" horiz-adv-x="592" 
d="M555 467h-202l-14 -61l50 -22l-128 -123v-39l124 -171l-10 -51h195l12 62l-73 21l-106 150l-60 13l119 113c20 20 45 38 105 47zM230 83l63 -21l-12 -62h-229l-12 62l64 21v327h-44l-12 57l123 15l59 -15v-384z" />
    <glyph glyph-name="Lacute" unicode="&#x139;" horiz-adv-x="586" 
d="M45 700h286l11 -71l-85 -33v-525h193l55 150l71 -10v-211h-531l-10 71l84 32v493l-84 33zM382 870l-176 -112l-29 27l124 156z" />
    <glyph glyph-name="lacute" unicode="&#x13a;" horiz-adv-x="344" 
d="M299 870l-176 -112l-29 27l124 156zM235 83l69 -22l-12 -61h-240l-12 61l69 22v592h-52l-11 57l130 15l59 -15v-649z" />
    <glyph glyph-name="Lcommaaccent" unicode="&#x13b;" horiz-adv-x="586" 
d="M320 -36c-31 0 -55 -25 -55 -56c0 -15 7 -29 18 -42h17c-3 -21 -15 -44 -38 -62l28 -28c43 22 85 65 85 132c0 32 -24 56 -55 56zM45 700h286l11 -71l-85 -33v-525h193l55 150l71 -10v-211h-531l-10 71l84 32v493l-84 33z" />
    <glyph glyph-name="lcommaaccent" unicode="&#x13c;" horiz-adv-x="344" 
d="M174 -36c-31 0 -55 -25 -55 -56c0 -15 7 -29 18 -42h17c-3 -21 -15 -44 -38 -62l28 -28c43 22 85 65 85 132c0 32 -24 56 -55 56zM235 83l69 -22l-12 -61h-240l-12 61l69 22v592h-52l-11 57l130 15l59 -15v-649z" />
    <glyph glyph-name="Lcaron" unicode="&#x13d;" horiz-adv-x="586" 
d="M439 585c-31 0 -55 -25 -55 -56c0 -15 7 -29 18 -42h17c-3 -21 -15 -44 -38 -62l28 -28c43 22 85 65 85 132c0 32 -24 56 -55 56zM45 700h286l11 -71l-85 -33v-525h193l55 150l71 -10v-211h-531l-10 71l84 32v493l-84 33z" />
    <glyph glyph-name="lcaron" unicode="&#x13e;" horiz-adv-x="344" 
d="M336 687c-31 0 -55 -25 -55 -56c0 -15 7 -29 18 -42h17c-3 -21 -15 -44 -38 -62l28 -28c43 22 85 65 85 132c0 32 -24 56 -55 56zM235 83l69 -22l-12 -61h-240l-12 61l69 22v592h-52l-11 57l130 15l59 -15v-649z" />
    <glyph glyph-name="Ldot" unicode="&#x13f;" horiz-adv-x="586" 
d="M431 467c-34 0 -65 -29 -65 -65c0 -35 31 -65 65 -65c36 0 65 30 65 65c0 36 -29 65 -65 65zM45 700h286l11 -71l-85 -33v-525h193l55 150l71 -10v-211h-531l-10 71l84 32v493l-84 33z" />
    <glyph glyph-name="ldot" unicode="&#x140;" horiz-adv-x="344" 
d="M345 467c-34 0 -65 -29 -65 -65c0 -35 31 -65 65 -65c36 0 65 30 65 65c0 36 -29 65 -65 65zM235 83l69 -22l-12 -61h-240l-12 61l69 22v592h-52l-11 57l130 15l59 -15v-649z" />
    <glyph glyph-name="Lslash" unicode="&#x141;" horiz-adv-x="586" 
d="M45 700h286l11 -71l-85 -33v-157l72 28v-72l-72 -28v-296h193l55 150l71 -10v-211h-531l-10 71l84 32v212l-84 -31v72l84 31v209l-84 33z" />
    <glyph glyph-name="lslash" unicode="&#x142;" horiz-adv-x="344" 
d="M235 83l69 -22l-12 -61h-240l-12 61l69 22v232l-84 -31v72l84 31v288h-52l-11 57l130 15l59 -15v-297l84 32v-72l-84 -32v-280z" />
    <glyph glyph-name="Nacute" unicode="&#x143;" horiz-adv-x="746" 
d="M557 870l-176 -112l-29 27l124 156zM25 71l83 32v493l-84 33l10 71h208l281 -415l36 -104v415l-83 33l10 71h223l10 -71l-83 -33v-596l-83 -17l-368 549v-430l83 -31l-11 -71h-221z" />
    <glyph glyph-name="nacute" unicode="&#x144;" horiz-adv-x="624" 
d="M421 719l-126 -158l-44 23l73 182zM311 406c-26 0 -61 -11 -87 -20v-303l64 -22l-11 -61h-231l-11 61l63 22v323h-45l-11 61l128 11l41 -26c33 11 83 26 125 26c116 0 190 -60 190 -169v-226l63 -22l-12 -61h-228l-12 61l63 22v241c0 52 -45 82 -89 82z" />
    <glyph glyph-name="Ncommaaccent" unicode="&#x145;" horiz-adv-x="746" 
d="M388 -36c31 0 55 -24 55 -56c0 -67 -42 -110 -85 -132l-28 28c23 18 35 41 38 62h-17c-11 13 -18 27 -18 42c0 31 24 56 55 56zM25 71l83 32v493l-84 33l10 71h208l281 -415l36 -104v415l-83 33l10 71h223l10 -71l-83 -33v-596l-83 -17l-368 549v-430l83 -31l-11 -71
h-221z" />
    <glyph glyph-name="ncommaaccent" unicode="&#x146;" horiz-adv-x="624" 
d="M312 -36c-31 0 -55 -25 -55 -56c0 -15 7 -29 18 -42h17c-3 -21 -15 -44 -38 -62l28 -28c43 22 85 65 85 132c0 32 -24 56 -55 56zM311 406c-26 0 -61 -11 -87 -20v-303l64 -22l-11 -61h-231l-11 61l63 22v323h-45l-11 61l128 11l41 -26c33 11 83 26 125 26
c116 0 190 -60 190 -169v-226l63 -22l-12 -61h-228l-12 61l63 22v241c0 52 -45 82 -89 82z" />
    <glyph glyph-name="Ncaron" unicode="&#x147;" horiz-adv-x="746" 
d="M528 907l-116 -170h-69l-115 170l30 21l120 -98l118 98zM25 71l83 32v493l-84 33l10 71h208l281 -415l36 -104v415l-83 33l10 71h223l10 -71l-83 -33v-596l-83 -17l-368 549v-430l83 -31l-11 -71h-221z" />
    <glyph glyph-name="ncaron" unicode="&#x148;" horiz-adv-x="624" 
d="M459 714l-116 -170h-69l-115 170l30 21l120 -98l118 98zM311 406c-26 0 -61 -11 -87 -20v-303l64 -22l-11 -61h-231l-11 61l63 22v323h-45l-11 61l128 11l41 -26c33 11 83 26 125 26c116 0 190 -60 190 -169v-226l63 -22l-12 -61h-228l-12 61l63 22v241
c0 52 -45 82 -89 82z" />
    <glyph glyph-name="napostrophe" unicode="&#x149;" horiz-adv-x="624" 
d="M-40 585c31 0 55 -24 55 -56c0 -67 -42 -110 -85 -132l-28 28c23 18 35 41 38 62h-17c-11 13 -18 27 -18 42c0 31 24 56 55 56zM311 406c-26 0 -61 -11 -87 -20v-303l64 -22l-11 -61h-231l-11 61l63 22v323h-45l-11 61l128 11l41 -26c33 11 83 26 125 26
c116 0 190 -60 190 -169v-226l63 -22l-12 -61h-228l-12 61l63 22v241c0 52 -45 82 -89 82z" />
    <glyph glyph-name="Eng" unicode="&#x14a;" horiz-adv-x="784" 
d="M25 71l83 32v493l-84 33l10 71h208l271 -400l46 -143v439l-83 33l10 71h253l10 -71l-83 -33v-423c0 -139 -19 -284 -218 -348l-38 64c60 41 96 85 118 131l-343 512v-430l83 -31l-11 -71h-221z" />
    <glyph glyph-name="eng" unicode="&#x14b;" horiz-adv-x="600" 
d="M400 324c0 52 -45 82 -89 82c-26 0 -61 -11 -87 -20v-303l64 -22l-11 -61h-231l-11 61l63 22v323h-45l-11 61l128 11l41 -26c33 11 83 26 125 26c116 0 190 -60 190 -169v-229c0 -136 -38 -264 -238 -330l-34 57c128 85 146 175 146 276v241z" />
    <glyph glyph-name="Omacron" unicode="&#x14c;" 
d="M234 763v66h341v-66h-341zM405 717c223 0 344 -161 344 -367s-105 -367 -344 -367s-345 183 -345 367s122 367 345 367zM405 633c-128 0 -195 -89 -195 -278s65 -288 195 -288c131 0 196 104 196 288s-68 278 -196 278z" />
    <glyph glyph-name="omacron" unicode="&#x14d;" horiz-adv-x="579" 
d="M119 580v66h341v-66h-341zM290 478c151 0 249 -91 249 -244s-87 -244 -249 -244c-161 0 -250 95 -250 244s98 244 250 244zM290 415c-74 0 -121 -68 -121 -178s43 -184 121 -184c76 0 122 73 122 184c0 112 -48 178 -122 178z" />
    <glyph glyph-name="Obreve" unicode="&#x14e;" 
d="M404 842c52 0 98 19 129 57l37 -25c-21 -58 -80 -119 -166 -119c-85 0 -144 61 -165 119l36 25c31 -38 78 -57 129 -57zM405 717c223 0 344 -161 344 -367s-105 -367 -344 -367s-345 183 -345 367s122 367 345 367zM405 633c-128 0 -195 -89 -195 -278s65 -288 195 -288
c131 0 196 104 196 288s-68 278 -196 278z" />
    <glyph glyph-name="obreve" unicode="&#x14f;" horiz-adv-x="579" 
d="M289 658c52 0 98 19 129 57l37 -25c-21 -58 -80 -119 -166 -119c-85 0 -144 61 -165 119l36 25c31 -38 78 -57 129 -57zM290 478c151 0 249 -91 249 -244s-87 -244 -249 -244c-161 0 -250 95 -250 244s98 244 250 244zM290 415c-74 0 -121 -68 -121 -178
s43 -184 121 -184c76 0 122 73 122 184c0 112 -48 178 -122 178z" />
    <glyph glyph-name="hungarumlaut" unicode="&#x2dd;" horiz-adv-x="385" 
d="M387 870l-176 -112l-29 27l124 156zM218 870l-176 -112l-29 27l124 156z" />
    <glyph glyph-name="Ohungarumlaut" unicode="&#x150;" 
d="M656 870l-176 -112l-29 27l124 156zM487 870l-176 -112l-29 27l124 156zM405 717c223 0 344 -161 344 -367s-105 -367 -344 -367s-345 183 -345 367s122 367 345 367zM405 633c-128 0 -195 -89 -195 -278s65 -288 195 -288c131 0 196 104 196 288s-68 278 -196 278z" />
    <glyph glyph-name="ohungarumlaut" unicode="&#x151;" horiz-adv-x="579" 
d="M347 719l-126 -158l-44 23l73 182zM494 719l-126 -158l-44 23l73 182zM290 478c151 0 249 -91 249 -244s-87 -244 -249 -244c-161 0 -250 95 -250 244s98 244 250 244zM290 415c-74 0 -121 -68 -121 -178s43 -184 121 -184c76 0 122 73 122 184c0 112 -48 178 -122 178z
" />
    <glyph glyph-name="Racute" unicode="&#x154;" horiz-adv-x="690" 
d="M499 870l-176 -112l-29 27l124 156zM258 629v-526l83 -32l-11 -71h-282l-11 71l82 31v494l-84 33l12 71h345c150 0 231 -77 231 -201c0 -109 -111 -186 -208 -186l66 -34l100 -177l87 -31l-11 -71h-219l10 55l-148 258v63h64c77 0 125 65 125 123c0 73 -44 130 -133 130
h-98z" />
    <glyph glyph-name="racute" unicode="&#x155;" horiz-adv-x="454" 
d="M357 719l-126 -158l-44 23l73 182zM444 340l-67 -12l-23 74c-7 2 -26 4 -40 4c-20 0 -61 -9 -90 -20v-303l83 -22l-12 -61h-248l-12 61l63 22v323h-45l-12 61l130 11l41 -26c31 11 83 26 129 26c31 0 65 -7 103 -22v-116z" />
    <glyph glyph-name="Rcommaaccent" unicode="&#x156;" horiz-adv-x="690" 
d="M378 -36c-31 0 -55 -25 -55 -56c0 -15 7 -29 18 -42h17c-3 -21 -15 -44 -38 -62l28 -28c43 22 85 65 85 132c0 32 -24 56 -55 56zM258 629v-526l83 -32l-11 -71h-282l-11 71l82 31v494l-84 33l12 71h345c150 0 231 -77 231 -201c0 -109 -111 -186 -208 -186l66 -34
l100 -177l87 -31l-11 -71h-219l10 55l-148 258v63h64c77 0 125 65 125 123c0 73 -44 130 -133 130h-98z" />
    <glyph glyph-name="rcommaaccent" unicode="&#x157;" horiz-adv-x="454" 
d="M194 -36c-31 0 -55 -25 -55 -56c0 -15 7 -29 18 -42h17c-3 -21 -15 -44 -38 -62l28 -28c43 22 85 65 85 132c0 32 -24 56 -55 56zM444 340l-67 -12l-23 74c-7 2 -26 4 -40 4c-20 0 -61 -9 -90 -20v-303l83 -22l-12 -61h-248l-12 61l63 22v323h-45l-12 61l130 11l41 -26
c31 11 83 26 129 26c31 0 65 -7 103 -22v-116z" />
    <glyph glyph-name="Sacute" unicode="&#x15a;" horiz-adv-x="582" 
d="M439 870l-176 -112l-29 27l124 156zM50 527c0 127 116 190 244 190c78 0 152 -27 214 -64v-156l-72 -11l-47 134c-27 8 -65 13 -95 13c-73 0 -118 -33 -118 -89c0 -73 119 -112 157 -131c105 -44 205 -110 205 -230c0 -116 -85 -200 -264 -200c-82 0 -165 25 -221 65v162
l71 10l51 -131c23 -11 66 -22 92 -22c81 0 146 31 146 85c0 79 -119 118 -188 152c-77 38 -175 83 -175 223z" />
    <glyph glyph-name="sacute" unicode="&#x15b;" horiz-adv-x="452" 
d="M345 719l-126 -158l-44 23l73 182zM213 -10c-44 0 -116 13 -173 41v118l67 13l34 -99c16 -6 51 -10 64 -10c49 0 92 17 92 54c0 32 -54 60 -99 81c-66 31 -156 73 -156 160c0 85 78 130 198 130c55 0 111 -16 154 -42v-96l-68 -12l-21 77c-24 6 -51 10 -75 10
c-40 0 -73 -22 -73 -52c0 -39 80 -62 130 -86c69 -33 125 -65 125 -142c0 -88 -78 -145 -199 -145z" />
    <glyph glyph-name="Scircumflex" unicode="&#x15c;" horiz-adv-x="582" 
d="M325 928l116 -170l-32 -21l-118 98l-120 -98l-30 21l115 170h69zM50 527c0 -140 98 -185 175 -223c69 -34 188 -73 188 -152c0 -54 -65 -85 -146 -85c-26 0 -69 11 -92 22l-51 131l-71 -10v-162c56 -40 139 -65 221 -65c179 0 264 84 264 200c0 120 -100 186 -205 230
c-38 19 -157 58 -157 131c0 56 45 89 118 89c30 0 68 -5 95 -13l47 -134l72 11v156c-62 37 -136 64 -214 64c-128 0 -244 -63 -244 -190z" />
    <glyph glyph-name="scircumflex" unicode="&#x15d;" horiz-adv-x="452" 
d="M213 -10c121 0 199 57 199 145c0 77 -56 109 -125 142c-50 24 -130 47 -130 86c0 30 33 52 73 52c24 0 51 -4 75 -10l21 -77l68 12v96c-43 26 -99 42 -154 42c-120 0 -198 -45 -198 -130c0 -87 90 -129 156 -160c45 -21 99 -49 99 -81c0 -37 -43 -54 -92 -54
c-13 0 -48 4 -64 10l-34 99l-67 -13v-118c57 -28 129 -41 173 -41zM253 735l116 -170l-32 -21l-118 98l-120 -98l-30 21l115 170h69z" />
    <glyph glyph-name="Scedilla" unicode="&#x15e;" horiz-adv-x="582" 
d="M50 527c0 127 116 190 244 190c78 0 152 -27 214 -64v-156l-72 -11l-47 134c-27 8 -65 13 -95 13c-73 0 -118 -33 -118 -89c0 -73 119 -112 157 -131c105 -44 205 -110 205 -230c0 -108 -74 -187 -227 -198v-24c33 -2 82 -21 82 -74c0 -81 -87 -108 -147 -108l-20 56
c52 0 82 20 82 47c0 17 -10 31 -29 31h-30v71c-74 4 -146 28 -196 64v162l71 10l51 -131c23 -11 66 -22 92 -22c81 0 146 31 146 85c0 79 -119 118 -188 152c-77 38 -175 83 -175 223z" />
    <glyph glyph-name="scedilla" unicode="&#x15f;" horiz-adv-x="452" 
d="M177 -221l-20 56c52 0 82 20 82 47c0 17 -10 31 -29 31h-30v79c-43 5 -96 17 -140 39v118l67 13l34 -99c16 -6 51 -10 64 -10c49 0 92 17 92 54c0 32 -54 60 -99 81c-66 31 -156 73 -156 160c0 85 78 130 198 130c55 0 111 -16 154 -42v-96l-68 -12l-21 77
c-24 6 -51 10 -75 10c-40 0 -73 -22 -73 -52c0 -39 80 -62 130 -86c69 -33 125 -65 125 -142c0 -81 -66 -135 -170 -144v-30c33 -2 82 -21 82 -74c0 -81 -87 -108 -147 -108z" />
    <glyph glyph-name="Rcaron" unicode="&#x158;" horiz-adv-x="690" 
d="M472 907l-116 -170h-69l-115 170l30 21l120 -98l118 98zM258 629v-526l83 -32l-11 -71h-282l-11 71l82 31v494l-84 33l12 71h345c150 0 231 -77 231 -201c0 -109 -111 -186 -208 -186l66 -34l100 -177l87 -31l-11 -71h-219l10 55l-148 258v63h64c77 0 125 65 125 123
c0 73 -44 130 -133 130h-98z" />
    <glyph glyph-name="rcaron" unicode="&#x159;" horiz-adv-x="454" 
d="M375 714l-116 -170h-69l-115 170l30 21l120 -98l118 98zM444 340l-67 -12l-23 74c-7 2 -26 4 -40 4c-20 0 -61 -9 -90 -20v-303l83 -22l-12 -61h-248l-12 61l63 22v323h-45l-12 61l130 11l41 -26c31 11 83 26 129 26c31 0 65 -7 103 -22v-116z" />
    <glyph glyph-name="Tcommaaccent" unicode="&#x162;" horiz-adv-x="679" 
d="M40 496v204h599v-204l-71 -11l-53 144h-107v-527l84 -31l-10 -71h-119v-39c33 -2 82 -21 82 -74c0 -81 -87 -108 -147 -108l-20 56c52 0 82 20 82 47c0 17 -10 31 -29 31h-30v87h-105l-10 71l84 31v527h-106l-53 -144z" />
    <glyph glyph-name="tcommaaccent" unicode="&#x163;" horiz-adv-x="374" 
d="M203 573v-106h132l-12 -61h-120v-289c0 -34 25 -55 43 -55c25 0 58 19 85 48l43 -53c-39 -40 -81 -67 -144 -67c-8 0 -15 1 -22 1v-30c33 -2 82 -21 82 -74c0 -81 -87 -108 -147 -108l-20 56c52 0 82 20 82 47c0 17 -10 31 -29 31h-30v95c-46 23 -69 66 -69 117v281h-57
l-10 55l75 23l43 106z" />
    <glyph glyph-name="Tcaron" unicode="&#x164;" horiz-adv-x="679" 
d="M489 907l-116 -170h-69l-115 170l30 21l120 -98l118 98zM40 496v204h599v-204l-71 -11l-53 144h-107v-527l84 -31l-10 -71h-286l-10 71l84 31v527h-106l-53 -144z" />
    <glyph glyph-name="tcaron" unicode="&#x165;" horiz-adv-x="374" 
d="M203 573v-106h132l-12 -61h-120v-289c0 -34 25 -55 43 -55c25 0 58 19 85 48l43 -53c-39 -40 -81 -67 -144 -67c-100 0 -153 59 -153 135v281h-57l-10 55l75 23l43 106zM398 687c31 0 55 -24 55 -56c0 -67 -42 -110 -85 -132l-28 28c23 18 35 41 38 62h-17
c-11 13 -18 27 -18 42c0 31 24 56 55 56z" />
    <glyph glyph-name="Tbar" unicode="&#x166;" horiz-adv-x="679" 
d="M40 496v204h599v-204l-71 -11l-53 144h-107v-259h164v-51h-164v-217l84 -31l-10 -71h-286l-10 71l84 31v217h-152v51h152v259h-106l-53 -144z" />
    <glyph glyph-name="tbar" unicode="&#x167;" horiz-adv-x="374" 
d="M203 573v-106h132l-12 -61h-120v-117h131v-51h-131v-121c0 -34 25 -55 43 -55c25 0 58 19 85 48l43 -53c-39 -40 -81 -67 -144 -67c-100 0 -153 59 -153 135v113h-68v51h68v117h-57l-10 55l75 23l43 106z" />
    <glyph glyph-name="Utilde" unicode="&#x168;" horiz-adv-x="750" 
d="M492 756h-36l-100 50l-83 -52l-32 21l93 115h34l100 -40l87 42l30 -21zM391 -17c-138 0 -277 55 -277 316v297l-84 33l10 71h286l10 -71l-84 -33v-303c0 -160 50 -226 155 -226c106 0 168 75 168 224v305l-86 33l12 71h224l10 -71l-84 -33v-297
c0 -259 -131 -316 -260 -316z" />
    <glyph glyph-name="utilde" unicode="&#x169;" horiz-adv-x="589" 
d="M398 563h-36l-100 50l-83 -52l-32 21l93 115h34l100 -40l87 42l30 -21zM384 100v306h-42l-11 59l129 13l50 -15v-380l64 -22l-12 -61h-136l-30 23c-38 -27 -83 -34 -132 -34c-115 0 -182 74 -182 183v234h-41l-11 59l120 13l58 -14v-301c0 -75 50 -101 91 -101
c27 0 65 14 85 38z" />
    <glyph glyph-name="Umacron" unicode="&#x16a;" horiz-adv-x="750" 
d="M224 763v66h341v-66h-341zM391 -17c129 0 260 57 260 316v297l84 33l-10 71h-224l-12 -71l86 -33v-305c0 -149 -62 -224 -168 -224c-105 0 -155 66 -155 226v303l84 33l-10 71h-286l-10 -71l84 -33v-297c0 -261 139 -316 277 -316z" />
    <glyph glyph-name="umacron" unicode="&#x16b;" horiz-adv-x="589" 
d="M127 580v66h341v-66h-341zM384 406v-306c-20 -24 -58 -38 -85 -38c-41 0 -91 26 -91 101v301l-58 14l-120 -13l11 -59h41v-234c0 -109 67 -183 182 -183c49 0 94 7 132 34l30 -23h136l12 61l-64 22v380l-50 15l-129 -13l11 -59h42z" />
    <glyph glyph-name="Ubreve" unicode="&#x16c;" horiz-adv-x="750" 
d="M404 842c52 0 98 19 129 57l37 -25c-21 -58 -80 -119 -166 -119c-85 0 -144 61 -165 119l36 25c31 -38 78 -57 129 -57zM391 -17c-138 0 -277 55 -277 316v297l-84 33l10 71h286l10 -71l-84 -33v-303c0 -160 50 -226 155 -226c106 0 168 75 168 224v305l-86 33l12 71h224
l10 -71l-84 -33v-297c0 -259 -131 -316 -260 -316z" />
    <glyph glyph-name="ubreve" unicode="&#x16d;" horiz-adv-x="589" 
d="M307 658c52 0 98 19 129 57l37 -25c-21 -58 -80 -119 -166 -119c-85 0 -144 61 -165 119l36 25c31 -38 78 -57 129 -57zM384 100v306h-42l-11 59l129 13l50 -15v-380l64 -22l-12 -61h-136l-30 23c-38 -27 -83 -34 -132 -34c-115 0 -182 74 -182 183v234h-41l-11 59
l120 13l58 -14v-301c0 -75 50 -101 91 -101c27 0 65 14 85 38z" />
    <glyph glyph-name="Uring" unicode="&#x16e;" horiz-adv-x="750" 
d="M407 930c64 0 110 -32 110 -97s-43 -95 -110 -95s-110 31 -110 95c0 65 49 97 110 97zM407 889c-22 0 -37 -26 -37 -55s14 -55 37 -55s37 26 37 55c0 30 -15 55 -37 55zM391 -17c129 0 260 57 260 316v297l84 33l-10 71h-224l-12 -71l86 -33v-305
c0 -149 -62 -224 -168 -224c-105 0 -155 66 -155 226v303l84 33l-10 71h-286l-10 -71l84 -33v-297c0 -261 139 -316 277 -316z" />
    <glyph glyph-name="uring" unicode="&#x16f;" horiz-adv-x="589" 
d="M303 737c64 0 110 -32 110 -97s-43 -95 -110 -95s-110 31 -110 95c0 65 49 97 110 97zM303 696c-22 0 -37 -26 -37 -55s14 -55 37 -55s37 26 37 55c0 30 -15 55 -37 55zM384 406v-306c-20 -24 -58 -38 -85 -38c-41 0 -91 26 -91 101v301l-58 14l-120 -13l11 -59h41v-234
c0 -109 67 -183 182 -183c49 0 94 7 132 34l30 -23h136l12 61l-64 22v380l-50 15l-129 -13l11 -59h42z" />
    <glyph glyph-name="Uhungarumlaut" unicode="&#x170;" horiz-adv-x="750" 
d="M649 870l-176 -112l-29 27l124 156zM480 870l-176 -112l-29 27l124 156zM391 -17c-138 0 -277 55 -277 316v297l-84 33l10 71h286l10 -71l-84 -33v-303c0 -160 50 -226 155 -226c106 0 168 75 168 224v305l-86 33l12 71h224l10 -71l-84 -33v-297
c0 -259 -131 -316 -260 -316z" />
    <glyph glyph-name="uhungarumlaut" unicode="&#x171;" horiz-adv-x="589" 
d="M350 719l-126 -158l-44 23l73 182zM497 719l-126 -158l-44 23l73 182zM384 100v306h-42l-11 59l129 13l50 -15v-380l64 -22l-12 -61h-136l-30 23c-38 -27 -83 -34 -132 -34c-115 0 -182 74 -182 183v234h-41l-11 59l120 13l58 -14v-301c0 -75 50 -101 91 -101
c27 0 65 14 85 38z" />
    <glyph glyph-name="Uogonek" unicode="&#x172;" horiz-adv-x="750" 
d="M408 -85c0 -25 17 -33 41 -33c12 0 21 2 31 5l17 -72c-31 -11 -61 -12 -69 -12c-60 0 -102 38 -102 96c0 39 22 66 49 85c-133 4 -261 64 -261 315v297l-84 33l10 71h286l10 -71l-84 -33v-303c0 -160 50 -226 155 -226c106 0 168 75 168 224v305l-86 33l12 71h224l10 -71
l-84 -33v-297c0 -190 -71 -271 -159 -301c-52 -25 -84 -54 -84 -83z" />
    <glyph glyph-name="uogonek" unicode="&#x173;" horiz-adv-x="589" 
d="M384 100v306h-42l-11 59l129 13l50 -15v-380l64 -22l-12 -61c-54 -26 -88 -56 -88 -85c0 -25 17 -33 41 -33c12 0 21 2 31 5l17 -72c-31 -11 -61 -12 -69 -12c-60 0 -102 38 -102 96c0 51 39 81 76 101h-42l-30 23c-38 -27 -83 -34 -132 -34c-115 0 -182 74 -182 183v234
h-41l-11 59l120 13l58 -14v-301c0 -75 50 -101 91 -101c27 0 65 14 85 38z" />
    <glyph glyph-name="Wcircumflex" unicode="&#x174;" horiz-adv-x="1036" 
d="M577 928l116 -170l-32 -21l-118 98l-120 -98l-30 21l115 170h69zM537 385l126 -402l96 17l185 596l89 33l-11 71h-226l-11 -71l80 -33l-147 -451v135l-136 437l-70 -17l-177 -560v140l-101 316l81 33l-12 71h-289l-10 -71l88 -33l188 -613l98 17l159 504v-119z" />
    <glyph glyph-name="wcircumflex" unicode="&#x175;" horiz-adv-x="831" 
d="M468 735l116 -170l-32 -21l-118 98l-120 -98l-30 21l115 170h69zM514 -10l-86 267v80l-111 -337l-113 -10l-123 394l-69 22l12 61h233l12 -61l-59 -22l64 -192v-86l117 360l102 13l91 -287v-66l89 258l-60 22l12 61h178l12 -61l-69 -22l-124 -384z" />
    <glyph glyph-name="Ycircumflex" unicode="&#x176;" horiz-adv-x="685" 
d="M397 928l116 -170l-32 -21l-118 98l-120 -98l-30 21l115 170h69zM291 257v-155l-84 -31l11 -71h282l12 71l-83 31v220l161 274l90 33l-11 71h-231l-10 -71l73 -33l-144 -239v63l-106 176l75 32l-11 72h-299l-11 -71l88 -33z" />
    <glyph glyph-name="ycircumflex" unicode="&#x177;" horiz-adv-x="608" 
d="M357 735l116 -170l-32 -21l-118 98l-120 -98l-30 21l115 170h69zM524 384l-171 -488c-15 -43 -57 -120 -94 -146l-135 11l-11 60c53 8 135 26 170 116l20 52l-31 11l-181 384l-73 22l12 61h258l12 -61l-77 -22l113 -221v-83l106 304l-68 22l12 61h195l12 -61z" />
    <glyph glyph-name="Zacute" unicode="&#x179;" horiz-adv-x="637" 
d="M506 870l-176 -112l-29 27l124 156zM166 71h322l54 150l71 -11v-210h-547l-45 71l379 498l76 60h-281l-51 -144l-71 11v204h486l54 -71l-372 -505z" />
    <glyph glyph-name="zacute" unicode="&#x17a;" horiz-adv-x="484" 
d="M374 719l-126 -158l-44 23l73 182zM54 467h356l49 -61l-263 -311l-74 -34h224l31 101l67 -13v-149h-389l-30 61l254 308l71 37h-205l-24 -78l-67 12v127z" />
    <glyph glyph-name="Zdotaccent" unicode="&#x17b;" horiz-adv-x="637" 
d="M339 875c36 0 65 -29 65 -65c0 -35 -29 -65 -65 -65c-34 0 -65 30 -65 65c0 36 31 65 65 65zM166 71h322l54 150l71 -11v-210h-547l-45 71l379 498l76 60h-281l-51 -144l-71 11v204h486l54 -71l-372 -505z" />
    <glyph glyph-name="zdotaccent" unicode="&#x17c;" horiz-adv-x="484" 
d="M254 697c36 0 65 -29 65 -65c0 -35 -29 -65 -65 -65c-34 0 -65 30 -65 65c0 36 31 65 65 65zM54 467h356l49 -61l-263 -311l-74 -34h224l31 101l67 -13v-149h-389l-30 61l254 308l71 37h-205l-24 -78l-67 12v127z" />
    <glyph glyph-name="longs" unicode="&#x17f;" horiz-adv-x="413" 
d="M311 747c53 0 92 -14 137 -48v-94l-67 -13l-22 83c-10 5 -31 9 -44 9c-44 0 -87 -24 -87 -115v-486l84 -21l-12 -62h-250l-12 62l64 21v322h-72l-10 56l82 24v65c0 114 82 197 209 197z" />
    <glyph glyph-name="AEacute" unicode="&#x1fc;" horiz-adv-x="1009" 
d="M846 629h-203v-229h113l30 81l72 -10v-221l-71 -10l-31 81h-113v-250h207l53 150l71 -10v-211h-541l-10 71l82 31v121h-268l-54 -121l85 -30l-10 -72h-242l-11 71l87 32l270 597h595v-178l-72 -11zM505 596l-84 33l-149 -328h233v295zM759 870l-176 -112l-29 27l124 156z
" />
    <glyph glyph-name="aeacute" unicode="&#x1fd;" horiz-adv-x="823" 
d="M592 62c51 0 103 12 154 46l34 -51c-64 -52 -127 -68 -193 -68c-85 0 -148 19 -193 53c-58 -40 -127 -53 -196 -53c-90 0 -169 48 -169 139c0 136 159 167 285 167v35c0 57 -41 85 -85 85c-24 0 -55 -6 -74 -11l-22 -76l-67 12v96c58 29 118 42 168 42
c71 0 126 -20 161 -59c46 38 107 59 175 59c120 0 218 -64 218 -162c0 -27 -10 -63 -22 -84h-315c2 -100 55 -170 141 -170zM314 102v131c-93 0 -148 -39 -148 -96s41 -75 69 -75c27 0 62 15 79 40zM454 294h205c2 10 3 20 3 29c0 59 -40 92 -92 92
c-65 0 -107 -49 -116 -121zM573 719l-126 -158l-44 23l73 182z" />
    <glyph glyph-name="Oslashacute" unicode="&#x1fe;" 
d="M405 717c60 0 112 -12 157 -33l25 42h57l9 -9l-38 -65c88 -65 134 -175 134 -302c0 -206 -105 -367 -344 -367c-62 0 -115 13 -160 34l-22 -39h-54l-12 11l35 60c-90 70 -132 185 -132 301c0 184 122 367 345 367zM601 355c0 86 -15 152 -44 198l-263 -452
c30 -23 66 -34 111 -34c131 0 196 104 196 288zM405 633c-128 0 -195 -89 -195 -278c0 -88 14 -156 42 -204l262 450c-30 21 -66 32 -109 32zM554 870l-176 -112l-29 27l124 156z" />
    <glyph glyph-name="oslashacute" unicode="&#x1ff;" horiz-adv-x="579" 
d="M290 478c44 0 83 -8 117 -23l19 29h48l8 -7l-31 -47c56 -41 88 -109 88 -196c0 -153 -87 -244 -249 -244c-45 0 -84 7 -118 21l-21 -32h-46l-9 9l32 48c-58 42 -88 111 -88 198c0 149 98 244 250 244zM412 237c0 42 -7 78 -19 106l-174 -262c19 -18 42 -28 71 -28
c76 0 122 73 122 184zM290 415c-74 0 -121 -68 -121 -178c0 -43 6 -81 19 -111l173 261c-19 18 -43 28 -71 28zM429 719l-126 -158l-44 23l73 182z" />
    <glyph glyph-name="uni0200" unicode="&#x200;" horiz-adv-x="761" 
d="M326 758l-176 112l81 71l124 -156zM495 758l-176 112l81 71l124 -156zM441 717l-109 -17l-230 -597l-87 -32l11 -71h250l10 72l-94 31l48 120h234l45 -120l-79 -32l11 -71h291l11 71l-88 32zM382 471l63 -170h-175l112 284v-114z" />
    <glyph glyph-name="uni0201" unicode="&#x201;" horiz-adv-x="508" 
d="M310 561l-126 158l97 47l73 -182zM163 561l-126 158l97 47l73 -182zM68 436v-96l67 -12l22 76c19 5 50 11 74 11c44 0 85 -28 85 -85v-35c-126 0 -285 -31 -285 -167c0 -91 79 -139 169 -139c58 0 99 13 129 34l30 -23h127l12 61l-56 22v207c0 121 -77 188 -206 188
c-50 0 -110 -13 -168 -42zM316 233v-131c-17 -25 -52 -40 -79 -40c-28 0 -69 18 -69 75s55 96 148 96z" />
    <glyph glyph-name="uni0202" unicode="&#x202;" horiz-adv-x="738" 
d="M415 928l116 -170l-32 -21l-118 98l-120 -98l-30 21l115 170h69zM441 717l-109 -17l-230 -597l-87 -32l11 -71h250l10 72l-94 31l48 120h234l45 -120l-79 -32l11 -71h291l11 71l-88 32zM382 471l63 -170h-175l112 284v-114z" />
    <glyph glyph-name="uni0203" unicode="&#x203;" horiz-adv-x="508" 
d="M276 735l116 -170l-32 -21l-118 98l-120 -98l-30 21l115 170h69zM68 436v-96l67 -12l22 76c19 5 50 11 74 11c44 0 85 -28 85 -85v-35c-126 0 -285 -31 -285 -167c0 -91 79 -139 169 -139c58 0 99 13 129 34l30 -23h127l12 61l-56 22v207c0 121 -77 188 -206 188
c-50 0 -110 -13 -168 -42zM316 233v-131c-17 -25 -52 -40 -79 -40c-28 0 -69 18 -69 75s55 96 148 96z" />
    <glyph glyph-name="uni0204" unicode="&#x204;" horiz-adv-x="613" 
d="M264 758l-176 112l81 71l124 -156zM433 758l-176 112l81 71l124 -156zM257 629h193l39 -118l72 11v178h-515l-11 -71l84 -33v-494l-82 -31l10 -71h531v211l-71 10l-53 -150h-197v250h103l31 -81l71 10v221l-72 10l-30 -81h-103v229z" />
    <glyph glyph-name="uni0205" unicode="&#x205;" horiz-adv-x="549" 
d="M355 561l-126 158l97 47l73 -182zM208 561l-126 158l97 47l73 -182zM385 294h-205c9 72 51 121 116 121c52 0 92 -33 92 -92c0 -9 -1 -19 -3 -29zM318 62c-86 0 -139 70 -141 170h315c12 21 22 57 22 84c0 98 -98 162 -218 162c-143 0 -256 -91 -256 -244
c0 -148 83 -245 273 -245c66 0 129 16 193 68l-34 51c-51 -34 -103 -46 -154 -46z" />
    <glyph glyph-name="uni0206" unicode="&#x206;" horiz-adv-x="613" 
d="M257 629h193l39 -118l72 11v178h-515l-11 -71l84 -33v-494l-82 -31l10 -71h531v211l-71 10l-53 -150h-197v250h103l31 -81l71 10v221l-72 10l-30 -81h-103v229zM362 928l116 -170l-32 -21l-118 98l-120 -98l-30 21l115 170h69z" />
    <glyph glyph-name="uni0207" unicode="&#x207;" horiz-adv-x="549" 
d="M330 735l116 -170l-32 -21l-118 98l-120 -98l-30 21l115 170h69zM385 294h-205c9 72 51 121 116 121c52 0 92 -33 92 -92c0 -9 -1 -19 -3 -29zM318 62c-86 0 -139 70 -141 170h315c12 21 22 57 22 84c0 98 -98 162 -218 162c-143 0 -256 -91 -256 -244
c0 -148 83 -245 273 -245c66 0 129 16 193 68l-34 51c-51 -34 -103 -46 -154 -46z" />
    <glyph glyph-name="uni0208" unicode="&#x208;" horiz-adv-x="428" 
d="M135 758l-176 112l81 71l124 -156zM304 758l-176 112l81 71l124 -156zM283 102v494l85 33l-12 71h-284l-12 -71l85 -33v-494l-85 -31l12 -71h284l12 71z" />
    <glyph glyph-name="uni0209" unicode="&#x209;" horiz-adv-x="334" 
d="M221 561l-126 158l97 47l73 -182zM74 561l-126 158l97 47l73 -182zM294 62l-64 21v384l-61 11l-122 -11l11 -61h46v-323l-64 -21l12 -62h230z" />
    <glyph glyph-name="uni020A" unicode="&#x20a;" horiz-adv-x="428" 
d="M248 928l116 -170l-32 -21l-118 98l-120 -98l-30 21l115 170h69zM283 102v494l85 33l-12 71h-284l-12 -71l85 -33v-494l-85 -31l12 -71h284l12 71z" />
    <glyph glyph-name="uni020B" unicode="&#x20b;" horiz-adv-x="334" 
d="M200 735l116 -170l-32 -21l-118 98l-120 -98l-30 21l115 170h69zM294 62l-64 21v384l-61 11l-122 -11l11 -61h46v-323l-64 -21l12 -62h230z" />
    <glyph glyph-name="uni020C" unicode="&#x20c;" 
d="M326 758l-176 112l81 71l124 -156zM495 758l-176 112l81 71l124 -156zM405 717c223 0 344 -161 344 -367s-105 -367 -344 -367s-345 183 -345 367s122 367 345 367zM405 633c-128 0 -195 -89 -195 -278s65 -288 195 -288c131 0 196 104 196 288s-68 278 -196 278z" />
    <glyph glyph-name="uni020D" unicode="&#x20d;" horiz-adv-x="579" 
d="M350 561l-126 158l97 47l73 -182zM203 561l-126 158l97 47l73 -182zM290 478c151 0 249 -91 249 -244s-87 -244 -249 -244c-161 0 -250 95 -250 244s98 244 250 244zM290 415c-74 0 -121 -68 -121 -178s43 -184 121 -184c76 0 122 73 122 184c0 112 -48 178 -122 178z
" />
    <glyph glyph-name="uni020E" unicode="&#x20e;" 
d="M438 928l116 -170l-32 -21l-118 98l-120 -98l-30 21l115 170h69zM405 717c223 0 344 -161 344 -367s-105 -367 -344 -367s-345 183 -345 367s122 367 345 367zM405 633c-128 0 -195 -89 -195 -278s65 -288 195 -288c131 0 196 104 196 288s-68 278 -196 278z" />
    <glyph glyph-name="uni020F" unicode="&#x20f;" horiz-adv-x="579" 
d="M323 735l116 -170l-32 -21l-118 98l-120 -98l-30 21l115 170h69zM290 478c151 0 249 -91 249 -244s-87 -244 -249 -244c-161 0 -250 95 -250 244s98 244 250 244zM290 415c-74 0 -121 -68 -121 -178s43 -184 121 -184c76 0 122 73 122 184c0 112 -48 178 -122 178z" />
    <glyph glyph-name="uni0212" unicode="&#x212;" horiz-adv-x="690" 
d="M258 629v-526l83 -32l-11 -71h-282l-11 71l82 31v494l-84 33l12 71h345c150 0 231 -77 231 -201c0 -109 -111 -186 -208 -186l66 -34l100 -177l87 -31l-11 -71h-219l10 55l-148 258v63h64c77 0 125 65 125 123c0 73 -44 130 -133 130h-98zM326 928l116 -170l-32 -21
l-118 98l-120 -98l-30 21l115 170h69z" />
    <glyph glyph-name="uni0213" unicode="&#x213;" horiz-adv-x="454" 
d="M267 735l116 -170l-32 -21l-118 98l-120 -98l-30 21l115 170h69zM444 340l-67 -12l-23 74c-7 2 -26 4 -40 4c-20 0 -61 -9 -90 -20v-303l83 -22l-12 -61h-248l-12 61l63 22v323h-45l-12 61l130 11l41 -26c31 11 83 26 129 26c31 0 65 -7 103 -22v-116z" />
    <glyph glyph-name="uni0214" unicode="&#x214;" horiz-adv-x="750" 
d="M330 758l-176 112l81 71l124 -156zM499 758l-176 112l81 71l124 -156zM391 -17c129 0 260 57 260 316v297l84 33l-10 71h-224l-12 -71l86 -33v-305c0 -149 -62 -224 -168 -224c-105 0 -155 66 -155 226v303l84 33l-10 71h-286l-10 -71l84 -33v-297
c0 -261 139 -316 277 -316z" />
    <glyph glyph-name="uni0215" unicode="&#x215;" horiz-adv-x="589" 
d="M371 561l-126 158l97 47l73 -182zM224 561l-126 158l97 47l73 -182zM384 406v-306c-20 -24 -58 -38 -85 -38c-41 0 -91 26 -91 101v301l-58 14l-120 -13l11 -59h41v-234c0 -109 67 -183 182 -183c49 0 94 7 132 34l30 -23h136l12 61l-64 22v380l-50 15l-129 -13l11 -59
h42z" />
    <glyph glyph-name="uni0216" unicode="&#x216;" horiz-adv-x="750" 
d="M432 928l116 -170l-32 -21l-118 98l-120 -98l-30 21l115 170h69zM391 -17c129 0 260 57 260 316v297l84 33l-10 71h-224l-12 -71l86 -33v-305c0 -149 -62 -224 -168 -224c-105 0 -155 66 -155 226v303l84 33l-10 71h-286l-10 -71l84 -33v-297c0 -261 139 -316 277 -316z
" />
    <glyph glyph-name="uni0217" unicode="&#x217;" horiz-adv-x="589" 
d="M332 735l116 -170l-32 -21l-118 98l-120 -98l-30 21l115 170h69zM384 406v-306c-20 -24 -58 -38 -85 -38c-41 0 -91 26 -91 101v301l-58 14l-120 -13l11 -59h41v-234c0 -109 67 -183 182 -183c49 0 94 7 132 34l30 -23h136l12 61l-64 22v380l-50 15l-129 -13l11 -59h42z
" />
    <glyph glyph-name="Scommaaccent" unicode="&#x218;" horiz-adv-x="582" 
d="M302 -36c31 0 55 -24 55 -56c0 -67 -42 -110 -85 -132l-28 28c23 18 35 41 38 62h-17c-11 13 -18 27 -18 42c0 31 24 56 55 56zM50 527c0 127 116 190 244 190c78 0 152 -27 214 -64v-156l-72 -11l-47 134c-27 8 -65 13 -95 13c-73 0 -118 -33 -118 -89
c0 -73 119 -112 157 -131c105 -44 205 -110 205 -230c0 -116 -85 -200 -264 -200c-82 0 -165 25 -221 65v162l71 10l51 -131c23 -11 66 -22 92 -22c81 0 146 31 146 85c0 79 -119 118 -188 152c-77 38 -175 83 -175 223z" />
    <glyph glyph-name="scommaaccent" unicode="&#x219;" horiz-adv-x="452" 
d="M218 -36c31 0 55 -24 55 -56c0 -67 -42 -110 -85 -132l-28 28c23 18 35 41 38 62h-17c-11 13 -18 27 -18 42c0 31 24 56 55 56zM213 -10c-44 0 -116 13 -173 41v118l67 13l34 -99c16 -6 51 -10 64 -10c49 0 92 17 92 54c0 32 -54 60 -99 81c-66 31 -156 73 -156 160
c0 85 78 130 198 130c55 0 111 -16 154 -42v-96l-68 -12l-21 77c-24 6 -51 10 -75 10c-40 0 -73 -22 -73 -52c0 -39 80 -62 130 -86c69 -33 125 -65 125 -142c0 -88 -78 -145 -199 -145z" />
    <glyph glyph-name="uni021A" unicode="&#x21a;" horiz-adv-x="679" 
d="M341 -36c31 0 55 -24 55 -56c0 -67 -42 -110 -85 -132l-28 28c23 18 35 41 38 62h-17c-11 13 -18 27 -18 42c0 31 24 56 55 56zM40 496v204h599v-204l-71 -11l-53 144h-107v-527l84 -31l-10 -71h-286l-10 71l84 31v527h-106l-53 -144z" />
    <glyph glyph-name="uni021B" unicode="&#x21b;" horiz-adv-x="374" 
d="M196 -36c31 0 55 -24 55 -56c0 -67 -42 -110 -85 -132l-28 28c23 18 35 41 38 62h-17c-11 13 -18 27 -18 42c0 31 24 56 55 56zM203 573v-106h132l-12 -61h-120v-289c0 -34 25 -55 43 -55c25 0 58 19 85 48l43 -53c-39 -40 -81 -67 -144 -67c-100 0 -153 59 -153 135v281
h-57l-10 55l75 23l43 106z" />
    <glyph glyph-name="dotlessj" unicode="&#x237;" horiz-adv-x="301" 
d="M33 467l135 11l59 -11v-387c0 -136 -38 -264 -238 -330l-34 57c134 88 146 182 146 289v310h-55z" />
    <glyph glyph-name="dblgrave" horiz-adv-x="387" 
d="M170 758l-176 112l81 71l124 -156zM339 758l-176 112l81 71l124 -156z" />
    <glyph glyph-name="uni0210" unicode="&#x210;" horiz-adv-x="690" 
d="M223 758l-176 112l81 71l124 -156zM392 758l-176 112l81 71l124 -156zM258 629v-526l83 -32l-11 -71h-282l-11 71l82 31v494l-84 33l12 71h345c150 0 231 -77 231 -201c0 -109 -111 -186 -208 -186l66 -34l100 -177l87 -31l-11 -71h-219l10 55l-148 258v63h64
c77 0 125 65 125 123c0 73 -44 130 -133 130h-98z" />
    <glyph glyph-name="uni0211" unicode="&#x211;" horiz-adv-x="454" 
d="M320 561l-126 158l97 47l73 -182zM173 561l-126 158l97 47l73 -182zM444 340l-67 -12l-23 74c-7 2 -26 4 -40 4c-20 0 -61 -9 -90 -20v-303l83 -22l-12 -61h-248l-12 61l63 22v323h-45l-12 61l130 11l41 -26c31 11 83 26 129 26c31 0 65 -7 103 -22v-116z" />
    <glyph glyph-name="uni0400" unicode="&#x400;" horiz-adv-x="613" 
d="M358 758l-176 112l81 71l124 -156zM257 629h193l39 -118l72 11v178h-515l-11 -71l84 -33v-494l-82 -31l10 -71h531v211l-71 10l-53 -150h-197v250h103l31 -81l71 10v221l-72 10l-30 -81h-103v229z" />
    <glyph glyph-name="afii10051" unicode="&#x402;" horiz-adv-x="757" 
d="M40 506v194h599v-194l-71 -11l-53 134h-107v-190c31 13 69 19 105 19c115 0 204 -60 204 -172v-193c0 -139 -39 -269 -243 -337l-34 58c136 90 145 186 145 295v192c0 52 -40 83 -80 83c-29 0 -71 -8 -97 -19v-263l84 -31l-10 -71h-285l-11 71l84 31v527h-106l-53 -133z
" />
    <glyph glyph-name="afii10052" unicode="&#x403;" horiz-adv-x="568" 
d="M249 629v-527l83 -31l-11 -71h-274l-10 71l82 31v496l-84 31l12 71h496v-203l-71 -11l-54 143h-169zM447 870l-176 -112l-29 27l124 156z" />
    <glyph glyph-name="afii10053" unicode="&#x404;" horiz-adv-x="707" 
d="M436 67c28 0 82 7 115 15l51 139l71 -10v-161c-55 -40 -155 -67 -237 -67c-260 0 -376 183 -376 367s132 367 376 367c88 0 162 -22 237 -65v-155l-72 -11l-47 134c-35 8 -87 14 -118 14c-125 0 -211 -82 -224 -234h139l32 81l70 -11v-218l-70 -12l-32 82h-140
c6 -126 67 -255 225 -255z" />
    <glyph glyph-name="afii10060" unicode="&#x40b;" horiz-adv-x="820" 
d="M40 496v204h599v-204l-71 -11l-53 144h-107v-214c40 19 82 33 124 33c115 0 204 -60 204 -172v-193l64 -22l-11 -61h-179l-9 47v244c0 52 -38 83 -77 83c-32 0 -82 -17 -116 -32v-240l84 -31l-10 -71h-286l-10 71l84 31v527h-106l-53 -144z" />
    <glyph glyph-name="afii10061" unicode="&#x40c;" horiz-adv-x="728" 
d="M538 870l-176 -112l-29 27l124 156zM257 596v-492l84 -32l-10 -72h-286l-10 71l84 33v492l-84 34l11 70h285l10 -71zM481 0l9 54l-191 286v53l199 203l-63 33l12 71h241l11 -71c-61 -17 -106 -48 -129 -72l-177 -180l68 -32l164 -242l87 -32l-11 -71h-220z" />
    <glyph glyph-name="uni040D" unicode="&#x40d;" horiz-adv-x="845" 
d="M262 103v26l359 339l-39 -105v-261l-82 -31l10 -71h283l11 71l-84 31v496l85 31l-12 71h-283l-12 -71l84 -31v-33l-350 -332l30 110v254l86 32l-13 71h-283l-12 -71l84 -31v-496l-82 -31l10 -71h282l12 71zM443 758l-176 112l81 71l124 -156z" />
    <glyph glyph-name="afii10145" unicode="&#x40f;" horiz-adv-x="805" 
d="M359 -174l-28 174h-279l-11 71l83 31v494l-84 34l11 71h285l10 -71l-84 -34v-525h281v525l-84 34l10 71h285l11 -71l-84 -34v-493l82 -32l-10 -71h-293l-27 -174h-74z" />
    <glyph glyph-name="uni0450" unicode="&#x450;" horiz-adv-x="549" 
d="M300 561l-126 158l97 47l73 -182zM385 294h-205c9 72 51 121 116 121c52 0 92 -33 92 -92c0 -9 -1 -19 -3 -29zM318 62c-86 0 -139 70 -141 170h315c12 21 22 57 22 84c0 98 -98 162 -218 162c-143 0 -256 -91 -256 -244c0 -148 83 -245 273 -245c66 0 129 16 193 68
l-34 51c-51 -34 -103 -46 -154 -46z" />
    <glyph glyph-name="afii10099" unicode="&#x452;" horiz-adv-x="580" 
d="M373 574h-163v-115c30 13 68 18 103 18c151 0 227 -99 227 -257c0 -163 -77 -413 -266 -470l-33 56c126 84 166 241 166 424c0 142 -45 175 -102 175c-39 0 -72 -9 -95 -19v-303l63 -22l-11 -61h-231l-10 61l63 22v491h-68v42h68v59h-55l-13 60l135 12l59 -13v-118h163
v-42z" />
    <glyph glyph-name="afii10100" unicode="&#x453;" horiz-adv-x="441" 
d="M327 719l-126 -158l-44 23l73 182zM220 406v-323l63 -22l-12 -61h-227l-12 61l63 22v301l-65 22l12 61h379v-127l-68 -12l-22 78h-111z" />
    <glyph glyph-name="afii10101" unicode="&#x454;" horiz-adv-x="495" 
d="M295 -10c-181 0 -279 96 -279 243c0 154 122 244 280 244c49 0 99 -12 157 -40v-97l-68 -12l-21 75c-21 8 -46 11 -66 11c-76 0 -141 -51 -145 -143h181v-65h-180c8 -83 58 -144 147 -144c44 0 84 22 130 51l37 -56c-49 -45 -107 -67 -173 -67z" />
    <glyph glyph-name="afii10108" unicode="&#x45b;" horiz-adv-x="607" 
d="M211 606h158v-51h-158v-96c31 8 69 18 103 18c113 0 200 -59 200 -168v-226l63 -22l-10 -61h-176l-8 46v282c0 52 -37 78 -81 78c-39 0 -69 -11 -91 -20v-303l63 -22l-10 -61h-231l-10 61l63 22v472h-70v51h70v69h-56l-12 60l134 12l59 -13v-128z" />
    <glyph glyph-name="afii10109" unicode="&#x45c;" horiz-adv-x="562" 
d="M416 719l-126 -158l-44 23l73 182zM321 467h204l12 -61c-60 -9 -85 -27 -105 -47l-119 -113l60 -13l106 -150l73 -22l-12 -61h-195l10 51l-124 171v39l128 123l-50 22zM200 83l63 -22l-12 -61h-229l-12 61l64 22v323h-52l-12 61l131 15l59 -15v-384z" />
    <glyph glyph-name="uni045D" unicode="&#x45d;" horiz-adv-x="657" 
d="M225 83v14l231 201l-24 -73v-142l-65 -21l11 -62h232l10 62l-63 21v301l65 22l-10 61h-235l-10 -61l65 -22v-17l-231 -201l24 73v145l66 22l-11 61h-235l-10 -61l65 -22v-301l-63 -21l10 -62h230l11 62zM306 561l-126 158l97 47l73 -182z" />
    <glyph glyph-name="afii10193" unicode="&#x45f;" horiz-adv-x="628" 
d="M258 0h-213l-10 61l65 22v308l-63 20l10 56h231l11 -56l-63 -20v-329h176v329l-65 20l12 56h232l10 -56l-63 -20v-308l65 -22l-10 -61h-211l-19 -130h-76z" />
    <glyph glyph-name="afii10146" unicode="&#x462;" horiz-adv-x="715" 
d="M10 419v163h192v30l-84 34l11 70h283l12 -70l-84 -34v-30h213v-163l-68 -13l-43 109h-102v-444h46c96 0 139 39 139 122c0 82 -52 104 -133 104h-6v71h29c126 0 260 -21 260 -175c0 -122 -57 -193 -249 -193h-298l-9 71l83 31v413h-81l-43 -109z" />
    <glyph glyph-name="afii10194" unicode="&#x463;" horiz-adv-x="597" 
d="M378 406h-79v-345h53c44 0 73 38 73 86c0 47 -29 79 -73 79h-10v62h36c75 0 184 -31 184 -148c0 -74 -63 -140 -139 -140h-302l-11 61l63 22v323h-73l-23 -78l-67 12v127h163v208h-55l-11 60l133 12l59 -13v-267h170v-127l-68 -12z" />
    <glyph glyph-name="afii10147" unicode="&#x472;" 
d="M405 717c223 0 344 -161 344 -367s-105 -367 -344 -367s-345 183 -345 367s122 367 345 367zM405 633c-128 0 -195 -89 -195 -278v-7c32 31 70 48 121 48c59 0 129 -37 189 -37c26 0 56 15 80 34c-9 159 -76 240 -195 240zM301 306c-35 0 -67 -20 -86 -39
c18 -132 82 -200 190 -200c119 0 183 85 194 238c-31 -27 -68 -38 -107 -38c-67 0 -127 39 -191 39z" />
    <glyph glyph-name="afii10195" unicode="&#x473;" horiz-adv-x="579" 
d="M290 478c151 0 249 -91 249 -244s-87 -244 -249 -244c-161 0 -250 95 -250 244s98 244 250 244zM290 415c-72 0 -119 -65 -121 -169c20 18 43 27 73 27c37 0 82 -22 120 -22c14 0 33 9 48 20c-9 91 -54 144 -120 144zM224 213c-21 0 -40 -11 -52 -22
c10 -84 51 -138 118 -138c70 0 115 62 121 160c-20 -17 -42 -24 -66 -24c-44 0 -81 24 -121 24z" />
    <glyph glyph-name="afii10148" unicode="&#x474;" horiz-adv-x="711" 
d="M619 582l-214 -582l-80 -10l-231 606l-89 33l12 71h291l11 -71l-77 -33l130 -335v-113l179 473c26 70 104 95 155 95v-67c-7 0 -62 -1 -87 -67z" />
    <glyph glyph-name="afii10196" unicode="&#x475;" horiz-adv-x="569" 
d="M477 372l-139 -372l-92 -12l-159 396l-67 22l11 61h237l10 -61l-54 -22l75 -192v-93l109 288c22 57 84 87 134 94l12 -63c-35 -5 -69 -24 -77 -46z" />
    <glyph glyph-name="afii10050" unicode="&#x490;" horiz-adv-x="545" 
d="M545 623h-294v-520l83 -32l-11 -71h-276l-10 71l82 31v494l-84 34l12 70h373l54 143l71 -10v-210z" />
    <glyph glyph-name="afii10098" unicode="&#x491;" horiz-adv-x="432" 
d="M412 411h-191v-328l63 -21l-10 -62h-231l-11 62l63 21v301l-65 27l11 56h281l23 80l67 -12v-124z" />
    <glyph glyph-name="uni0492" unicode="&#x492;" horiz-adv-x="568" 
d="M249 629v-259h143v-53h-143v-215l112 -31l-10 -71h-304l-10 71l82 31v215h-84v53h84v226l-84 33l12 71h496v-203l-71 -11l-54 143h-169z" />
    <glyph glyph-name="uni0493" unicode="&#x493;" horiz-adv-x="441" 
d="M220 406v-132h112v-51h-112v-140l63 -22l-12 -61h-227l-12 61l63 22v140h-65v51h65v110l-65 22l12 61h379v-127l-68 -12l-22 78h-111z" />
    <glyph glyph-name="uni0496" unicode="&#x496;" horiz-adv-x="1020" 
d="M777 0l9 56l-180 290v53l184 199l-61 31l12 71h247l12 -71c-68 -19 -103 -47 -129 -75l-170 -182l76 -43l139 -226l89 -32v-235l-71 -10l-64 174h-93zM574 597v-495l83 -31l-12 -71h-272l-10 71l83 32v494l-84 32l11 71h272l13 -71zM234 56l9 -56h-218l-10 71l86 31
l142 227l76 43l-170 182c-26 28 -66 58 -129 75l12 71h247l12 -71l-61 -31l184 -199v-53z" />
    <glyph glyph-name="uni0497" unicode="&#x497;" horiz-adv-x="775" 
d="M239 262l-108 97c-33 30 -65 41 -103 47l12 61h182l12 -61l-40 -22l110 -99h26v99l-57 22l12 61h204l12 -61l-56 -22v-99h26l109 99l-40 22l12 61h182l12 -61c-51 -8 -79 -27 -102 -48l-108 -96l68 -30l88 -149l73 -21v-186l-67 -6l-39 130h-100l10 52l-102 171l-22 9
v-149l63 -22l-12 -61h-218l-12 61l64 23v148l-22 -9l-103 -171l11 -52h-194l-12 61l73 22l88 149z" />
    <glyph glyph-name="uni0498" unicode="&#x498;" horiz-adv-x="572" 
d="M188 -221l-20 56c52 0 82 20 82 47c0 17 -10 31 -29 31h-30v74c-63 8 -124 30 -167 61v162l72 10l46 -132c31 -12 68 -21 105 -21c74 0 126 62 126 150c0 75 -57 129 -136 129h-63v79h45c56 0 120 47 120 109c0 64 -37 99 -93 99c-27 0 -65 -5 -93 -14l-48 -133l-71 11
v155c73 42 155 65 212 65c173 0 242 -77 242 -174c0 -74 -39 -125 -96 -152c72 -28 130 -90 130 -185c0 -116 -85 -221 -269 -223v-22c33 -2 82 -21 82 -74c0 -81 -87 -108 -147 -108z" />
    <glyph glyph-name="uni0499" unicode="&#x499;" horiz-adv-x="435" 
d="M143 -221l-20 56c52 0 82 20 82 47c0 17 -10 31 -29 31h-30v81c-39 6 -82 18 -121 37v118l68 13l27 -99c18 -7 52 -10 68 -10c47 0 82 40 82 90c0 46 -42 82 -88 82h-47v62h37c33 0 75 28 75 70c0 43 -31 58 -61 58c-19 0 -50 -5 -67 -11l-21 -75l-67 12v95
c57 28 119 42 168 42c104 0 174 -52 174 -117c0 -48 -22 -81 -58 -100c46 -19 81 -61 81 -122c0 -73 -67 -145 -188 -149v-29c33 -2 82 -21 82 -74c0 -81 -87 -108 -147 -108z" />
    <glyph glyph-name="uni049A" unicode="&#x49a;" horiz-adv-x="728" 
d="M481 0l9 54l-191 286v53l199 203l-63 33l12 71h241l11 -71c-61 -17 -106 -48 -129 -72l-177 -180l68 -32l164 -242l87 -32v-235l-71 -10l-64 174h-96zM257 596v-492l84 -32l-10 -72h-286l-10 71l84 33v492l-84 34l11 70h285l10 -71z" />
    <glyph glyph-name="uni049B" unicode="&#x49b;" horiz-adv-x="562" 
d="M321 467h204l12 -61c-60 -9 -85 -27 -105 -47l-119 -113l60 -13l106 -150l72 -22v-185l-66 -6l-39 130h-101l10 51l-124 171v39l128 123l-50 22zM200 83l63 -22l-12 -61h-229l-12 61l64 22v323h-52l-12 61l131 15l59 -15v-384z" />
    <glyph glyph-name="uni049C" unicode="&#x49c;" horiz-adv-x="764" 
d="M364 298v-128h-59v391h59v-140l173 177l-65 31l12 71h241l11 -71c-56 -12 -106 -48 -129 -72l-177 -180l68 -32l164 -243l87 -31l-11 -71h-220l9 54zM257 598v-495l84 -31l-10 -72h-286l-10 71l84 32v494l-84 32l11 71h285l10 -71z" />
    <glyph glyph-name="uni049D" unicode="&#x49d;" horiz-adv-x="597" 
d="M226 102v299h52v-129l116 112l-50 22l12 61h204l12 -61c-60 -9 -85 -27 -105 -47l-119 -113l60 -13l106 -150l73 -22l-12 -61h-195l10 51l-112 154v-103h-52zM195 83l63 -22l-12 -61h-229l-12 61l64 22v323h-52l-12 61l131 15l59 -15v-384z" />
    <glyph glyph-name="uni04A0" unicode="&#x4a0;" horiz-adv-x="728" 
d="M119 629h-61l-44 -117l-71 10v178h388l10 -71l-84 -31v-494l84 -31l-10 -73h-286l-10 72l84 32v525zM490 54l-9 -54h220l11 71l-90 36l-161 238l-68 32l177 180c23 24 68 55 129 72l-11 71h-241l-12 -71l63 -33l-199 -203v-53z" />
    <glyph glyph-name="uni04A1" unicode="&#x4a1;" horiz-adv-x="632" 
d="M270 83l63 -22l-12 -61h-229l-12 61l64 22v323h-40l-24 -78l-67 12v127h310l12 -61l-65 -22v-301zM391 467h204l12 -61c-60 -9 -85 -27 -105 -47l-119 -113l60 -13l106 -150l73 -22l-12 -61h-195l10 51l-124 171v39l128 123l-50 22z" />
    <glyph glyph-name="uni04A2" unicode="&#x4a2;" horiz-adv-x="820" 
d="M780 629l-84 -33v-493l82 -32v-235l-70 -10l-64 174h-160l-10 71l84 31v220h-296v-220l82 -31l-10 -71h-282l-11 71l83 31v494l-84 33l10 71h286l10 -71l-84 -33v-197h296v197l-84 33l10 71h286z" />
    <glyph glyph-name="uni04A3" unicode="&#x4a3;" horiz-adv-x="652" 
d="M510 0h-137l-10 63l64 21v133h-202v-134l63 -20l-11 -63h-230l-10 63l62 20v301l-64 20l10 63h235l11 -63l-66 -20v-110h202v110l-65 20l10 63h235l10 -63l-64 -20v-301l63 -20v-187l-67 -6z" />
    <glyph glyph-name="uni04AA" unicode="&#x4aa;" horiz-adv-x="649" 
d="M396 67c29 0 82 5 115 14l51 139l71 -10v-162c-29 -21 -68 -37 -111 -48c-54 -26 -88 -56 -88 -85c0 -25 17 -33 41 -33c12 0 21 2 31 5l17 -72c-31 -11 -61 -12 -69 -12c-60 0 -102 38 -102 96c0 38 22 65 48 84h-4c-260 0 -366 183 -366 367s122 367 366 367
c89 0 162 -21 237 -64v-156l-72 -11l-46 131c-36 10 -86 16 -119 16c-139 0 -216 -89 -216 -278c0 -136 45 -288 216 -288z" />
    <glyph glyph-name="uni04AB" unicode="&#x4ab;" horiz-adv-x="514" 
d="M313 415c-81 0 -136 -61 -136 -163c0 -105 35 -190 137 -190c44 0 100 16 144 46l34 -51c-30 -27 -66 -46 -104 -57c-54 -26 -88 -56 -88 -85c0 -25 17 -33 41 -33c12 0 21 2 31 5l17 -72c-31 -11 -61 -12 -69 -12c-60 0 -102 38 -102 96c0 43 28 72 59 91
c-159 11 -237 105 -237 243c0 154 113 245 271 245c48 0 108 -13 166 -42v-96l-67 -12l-21 75c-21 8 -57 12 -76 12z" />
    <glyph glyph-name="uni04AE" unicode="&#x4ae;" horiz-adv-x="685" 
d="M291 102v155l-198 339l-88 33l11 71h299l11 -72l-75 -32l106 -176v-63l144 239l-73 33l10 71h231l11 -71l-90 -33l-161 -274v-220l83 -31l-12 -71h-282l-11 71z" />
    <glyph glyph-name="uni04AF" unicode="&#x4af;" horiz-adv-x="625" 
d="M541 382l-147 -355v-183l63 -22l-10 -61h-237l-11 61l63 22v175l-170 365l-72 22l11 61h239l10 -61l-55 -22l107 -214v-93l130 307l-57 22l11 61h184l10 -61z" />
    <glyph glyph-name="uni04B0" unicode="&#x4b0;" horiz-adv-x="685" 
d="M429 300h141v-52h-141v-146l83 -31l-12 -71h-282l-11 71l84 31v146h-175v52h150l-173 296l-88 33l11 71h299l11 -72l-75 -32l106 -176v-63l144 239l-73 33l10 71h231l11 -71l-90 -33l-161 -274v-22z" />
    <glyph glyph-name="uni04B1" unicode="&#x4b1;" horiz-adv-x="625" 
d="M541 382l-137 -330h141v-52h-151v-156l63 -22l-10 -61h-237l-11 61l63 22v156h-151v52h135l-154 332l-72 22l11 61h239l10 -61l-55 -22l107 -214v-93l130 307l-57 22l11 61h184l10 -61z" />
    <glyph glyph-name="uni04B2" unicode="&#x4b2;" horiz-adv-x="697" 
d="M343 278l-145 -176l69 -31l-11 -71h-234l-11 71l86 31l183 223l-183 271l-87 33l11 71h304l10 -71l-73 -33l92 -128v-45l143 173l-67 33l10 71h237l10 -71l-90 -33l-181 -224l182 -270l86 -31v-235l-70 -10l-64 174h-178l-11 71l72 31l-90 126v50z" />
    <glyph glyph-name="uni04B3" unicode="&#x4b3;" horiz-adv-x="553" 
d="M543 406l-75 -22l-117 -145l111 -156l75 -21v-186l-67 -6l-39 130h-157l-12 61l51 22l-49 69v37l-88 -106l48 -22l-12 -61h-190l-12 61l76 22l111 137l-112 164l-71 22l12 61h249l12 -61l-51 -22l49 -71v-43l92 114l-55 22l12 61h197z" />
    <glyph glyph-name="uni04B8" unicode="&#x4b8;" horiz-adv-x="723" 
d="M243 598v-169c0 -52 45 -77 85 -82v214h59v-210c28 5 57 13 74 22v225l-85 31l11 72h285l11 -72l-84 -31v-496l83 -31l-11 -71h-313l-10 71l113 31v183c-21 -7 -48 -13 -74 -16v-99h-59v95c-111 1 -224 61 -224 173v160l-84 31l13 71h282l12 -71z" />
    <glyph glyph-name="uni04B9" unicode="&#x4b9;" horiz-adv-x="590" 
d="M355 384l-60 22l12 61h226l12 -61l-64 -22v-301l63 -22l-12 -61h-228l-12 61l63 23v102c-16 -6 -39 -11 -62 -14v-70h-52v68c-107 3 -173 59 -173 165v50l-63 21l12 61h224l12 -61l-59 -22v-67c0 -43 19 -70 47 -78v142h52v-143c22 2 48 7 62 14v132z" />
    <glyph glyph-name="uni04BA" unicode="&#x4ba;" horiz-adv-x="623" 
d="M280 634l-64 -20v-198c30 11 76 18 113 18c118 0 218 -60 218 -184v-164l64 -21l-12 -65h-237l-13 65l65 22v189c0 55 -53 76 -93 76c-31 0 -77 -7 -105 -16v-250l64 -21l-12 -65h-231l-12 66l64 20v528l-64 20l12 66h231z" />
    <glyph glyph-name="uni04BB" unicode="&#x4bb;" horiz-adv-x="602" 
d="M208 83l63 -22l-12 -61h-227l-12 61l62 22v592h-55l-12 57l134 15l59 -15v-280c28 13 81 26 113 26c113 0 188 -50 188 -159v-236l63 -22l-12 -61h-229l-12 61l64 22v250c0 52 -32 72 -69 72c-34 0 -79 -9 -106 -20v-302z" />
    <glyph glyph-name="uni04D0" unicode="&#x4d0;" horiz-adv-x="761" 
d="M386 842c52 0 98 19 129 57l37 -25c-21 -58 -80 -119 -166 -119c-85 0 -144 61 -165 119l36 25c31 -38 78 -57 129 -57zM332 700l109 17l224 -614l88 -32l-11 -71h-291l-11 71l79 32l-45 120h-234l-48 -120l94 -31l-10 -72h-250l-11 71l87 32zM445 301l-63 170v114
l-112 -284h175z" />
    <glyph glyph-name="uni04D1" unicode="&#x4d1;" horiz-adv-x="508" 
d="M256 658c52 0 98 19 129 57l37 -25c-21 -58 -80 -119 -166 -119c-85 0 -144 61 -165 119l36 25c31 -38 78 -57 129 -57zM68 340v96c58 29 118 42 168 42c129 0 206 -67 206 -188v-207l56 -22l-12 -61h-127l-30 23c-30 -21 -71 -34 -129 -34c-90 0 -169 48 -169 139
c0 136 159 167 285 167v35c0 57 -41 85 -85 85c-24 0 -55 -6 -74 -11l-22 -76zM316 102v131c-93 0 -148 -39 -148 -96s41 -75 69 -75c27 0 62 15 79 40z" />
    <glyph glyph-name="uni04D2" unicode="&#x4d2;" horiz-adv-x="761" 
d="M479 876c35 0 65 -29 65 -65c0 -35 -30 -65 -65 -65s-65 30 -65 65c0 36 30 65 65 65zM291 876c36 0 65 -29 65 -65c0 -35 -29 -65 -65 -65c-35 0 -65 30 -65 65c0 36 30 65 65 65zM332 700l109 17l224 -614l88 -32l-11 -71h-291l-11 71l79 32l-45 120h-234l-48 -120
l94 -31l-10 -72h-250l-11 71l87 32zM445 301l-63 170v114l-112 -284h175z" />
    <glyph glyph-name="uni04D3" unicode="&#x4d3;" horiz-adv-x="508" 
d="M335 697c35 0 65 -29 65 -65c0 -35 -30 -65 -65 -65s-65 30 -65 65c0 36 30 65 65 65zM147 697c36 0 65 -29 65 -65c0 -35 -29 -65 -65 -65c-35 0 -65 30 -65 65c0 36 30 65 65 65zM68 340v96c58 29 118 42 168 42c129 0 206 -67 206 -188v-207l56 -22l-12 -61h-127
l-30 23c-30 -21 -71 -34 -129 -34c-90 0 -169 48 -169 139c0 136 159 167 285 167v35c0 57 -41 85 -85 85c-24 0 -55 -6 -74 -11l-22 -76zM316 102v131c-93 0 -148 -39 -148 -96s41 -75 69 -75c27 0 62 15 79 40z" />
    <glyph glyph-name="uni04D6" unicode="&#x4d6;" horiz-adv-x="613" 
d="M315 842c52 0 98 19 129 57l37 -25c-21 -58 -80 -119 -166 -119c-85 0 -144 61 -165 119l36 25c31 -38 78 -57 129 -57zM450 629h-193v-229h103l30 81l72 -10v-221l-71 -10l-31 81h-103v-250h197l53 150l71 -10v-211h-531l-10 71l82 31v494l-84 33l11 71h515v-178
l-72 -11z" />
    <glyph glyph-name="uni04D7" unicode="&#x4d7;" horiz-adv-x="549" 
d="M291 658c52 0 98 19 129 57l37 -25c-21 -58 -80 -119 -166 -119c-85 0 -144 61 -165 119l36 25c31 -38 78 -57 129 -57zM180 294h205c2 10 3 20 3 29c0 59 -40 92 -92 92c-65 0 -107 -49 -116 -121zM318 62c51 0 103 12 154 46l34 -51c-64 -52 -127 -68 -193 -68
c-190 0 -273 97 -273 245c0 153 113 244 256 244c120 0 218 -64 218 -162c0 -27 -10 -63 -22 -84h-315c2 -100 55 -170 141 -170z" />
    <glyph glyph-name="uni04D8" unicode="&#x4d8;" horiz-adv-x="756" 
d="M542 307h-319c-10 -23 -17 -51 -17 -78c0 -89 62 -162 170 -162c114 0 164 120 166 240zM696 350c0 -231 -108 -367 -320 -367c-190 0 -316 88 -316 257c0 60 25 119 46 157h439c-6 146 -90 236 -205 236c-33 0 -91 -6 -128 -14l-47 -133l-71 11v156c75 43 157 64 246 64
c244 0 356 -183 356 -367z" />
    <glyph glyph-name="afii10846" unicode="&#x4d9;" horiz-adv-x="531" 
d="M352 204h-180c-5 -13 -10 -34 -10 -51c0 -57 37 -91 89 -91c62 0 99 68 101 142zM70 266h284c0 90 -43 149 -122 149c-21 0 -62 -2 -85 -11l-21 -75l-67 12v96c58 29 128 41 176 41c159 0 256 -91 256 -245c0 -153 -97 -243 -240 -243c-120 0 -211 57 -211 171
c0 27 16 80 30 105z" />
    <glyph glyph-name="uni04DA" unicode="&#x4da;" horiz-adv-x="756" 
d="M542 307h-319c-10 -23 -17 -51 -17 -78c0 -89 62 -162 170 -162c114 0 164 120 166 240zM696 350c0 -231 -108 -367 -320 -367c-190 0 -316 88 -316 257c0 60 25 119 46 157h439c-6 146 -90 236 -205 236c-33 0 -91 -6 -128 -14l-47 -133l-71 11v156c75 43 157 64 246 64
c244 0 356 -183 356 -367zM432 876c35 0 65 -29 65 -65c0 -35 -30 -65 -65 -65s-65 30 -65 65c0 36 30 65 65 65zM244 876c36 0 65 -29 65 -65c0 -35 -29 -65 -65 -65c-35 0 -65 30 -65 65c0 36 30 65 65 65z" />
    <glyph glyph-name="uni04DB" unicode="&#x4db;" horiz-adv-x="531" 
d="M352 204h-180c-5 -13 -10 -34 -10 -51c0 -57 37 -91 89 -91c62 0 99 68 101 142zM70 266h284c0 90 -43 149 -122 149c-21 0 -62 -2 -85 -11l-21 -75l-67 12v96c58 29 128 41 176 41c159 0 256 -91 256 -245c0 -153 -97 -243 -240 -243c-120 0 -211 57 -211 171
c0 27 16 80 30 105zM335 697c35 0 65 -29 65 -65c0 -35 -30 -65 -65 -65s-65 30 -65 65c0 36 30 65 65 65zM147 697c36 0 65 -29 65 -65c0 -35 -29 -65 -65 -65c-35 0 -65 30 -65 65c0 36 30 65 65 65z" />
    <glyph glyph-name="uni04DC" unicode="&#x4dc;" horiz-adv-x="1020" 
d="M604 876c35 0 65 -29 65 -65c0 -35 -30 -65 -65 -65s-65 30 -65 65c0 36 30 65 65 65zM416 876c36 0 65 -29 65 -65c0 -35 -29 -65 -65 -65c-35 0 -65 30 -65 65c0 36 30 65 65 65zM234 56l9 -56h-218l-10 71l86 31l142 227l76 43l-170 182c-26 28 -66 58 -129 75l12 71
h247l12 -71l-61 -31l184 -199v-53zM574 597v-495l83 -31l-12 -71h-272l-10 71l83 32v494l-84 32l11 71h272l13 -71zM777 0l9 56l-180 290v53l184 199l-61 31l12 71h247l12 -71c-68 -19 -103 -47 -129 -75l-170 -182l76 -43l139 -226l89 -32l-10 -71h-218z" />
    <glyph glyph-name="uni04DD" unicode="&#x4dd;" horiz-adv-x="775" 
d="M481 697c35 0 65 -29 65 -65c0 -35 -30 -65 -65 -65s-65 30 -65 65c0 36 30 65 65 65zM293 697c36 0 65 -29 65 -65c0 -35 -29 -65 -65 -65c-35 0 -65 30 -65 65c0 36 30 65 65 65zM239 262l-108 97c-33 30 -65 41 -103 47l12 61h182l12 -61l-40 -22l110 -99h26v99
l-57 22l12 61h204l12 -61l-56 -22v-99h26l109 99l-40 22l12 61h182l12 -61c-51 -8 -79 -27 -102 -48l-108 -96l68 -30l88 -149l73 -22l-12 -61h-194l10 52l-102 171l-22 9v-149l63 -22l-12 -61h-218l-12 61l64 23v148l-22 -9l-103 -171l11 -52h-194l-12 61l73 22l88 149z
" />
    <glyph glyph-name="uni04DE" unicode="&#x4de;" horiz-adv-x="572" 
d="M338 876c35 0 65 -29 65 -65c0 -35 -30 -65 -65 -65s-65 30 -65 65c0 36 30 65 65 65zM150 876c36 0 65 -29 65 -65c0 -35 -29 -65 -65 -65c-35 0 -65 30 -65 65c0 36 30 65 65 65zM247 -17c-82 0 -167 25 -223 65v162l72 10l46 -132c31 -12 68 -21 105 -21
c74 0 126 62 126 150c0 75 -57 129 -136 129h-63v79h45c56 0 120 47 120 109c0 64 -37 99 -93 99c-27 0 -65 -5 -93 -14l-48 -133l-71 11v155c73 42 155 65 212 65c173 0 242 -77 242 -174c0 -74 -39 -125 -96 -152c72 -28 130 -90 130 -185c0 -117 -87 -223 -275 -223z" />
    <glyph glyph-name="uni04DF" unicode="&#x4df;" horiz-adv-x="435" 
d="M291 697c35 0 65 -29 65 -65c0 -35 -30 -65 -65 -65s-65 30 -65 65c0 36 30 65 65 65zM103 697c36 0 65 -29 65 -65c0 -35 -29 -65 -65 -65c-35 0 -65 30 -65 65c0 36 30 65 65 65zM198 -10c-48 0 -115 13 -173 41v118l68 13l27 -99c18 -7 52 -10 68 -10
c47 0 82 40 82 90c0 46 -42 82 -88 82h-47v62h37c33 0 75 28 75 70c0 43 -31 58 -61 58c-19 0 -50 -5 -67 -11l-21 -75l-67 12v95c57 28 119 42 168 42c104 0 174 -52 174 -117c0 -48 -22 -81 -58 -100c46 -19 81 -61 81 -122c0 -75 -70 -149 -198 -149z" />
    <glyph glyph-name="uni04E2" unicode="&#x4e2;" horiz-adv-x="845" 
d="M262 103v26l359 339l-39 -105v-261l-82 -31l10 -71h283l11 71l-84 31v496l85 31l-12 71h-283l-12 -71l84 -31v-33l-350 -332l30 110v254l86 32l-13 71h-283l-12 -71l84 -31v-496l-82 -31l10 -71h282l12 71zM252 763v66h341v-66h-341z" />
    <glyph glyph-name="uni04E3" unicode="&#x4e3;" horiz-adv-x="657" 
d="M158 580v66h341v-66h-341zM225 83v14l231 201l-24 -73v-142l-65 -22l12 -61h229l12 61l-63 22v301l65 22l-12 61h-231l-12 -61l65 -22v-17l-231 -201l24 73v145l66 22l-12 61h-232l-12 -61l65 -22v-301l-63 -22l12 -61h227l12 61z" />
    <glyph glyph-name="uni04E4" unicode="&#x4e4;" horiz-adv-x="845" 
d="M262 129v-26l84 -32l-12 -71h-282l-10 71l82 31v496l-84 31l12 71h283l13 -71l-86 -32v-254l-30 -110l350 332v33l-84 31l12 71h283l12 -71l-85 -31v-496l84 -31l-11 -71h-283l-10 71l82 31v261l39 105zM516 876c35 0 65 -29 65 -65c0 -35 -30 -65 -65 -65s-65 30 -65 65
c0 36 30 65 65 65zM328 876c36 0 65 -29 65 -65c0 -35 -29 -65 -65 -65c-35 0 -65 30 -65 65c0 36 30 65 65 65z" />
    <glyph glyph-name="uni04E5" unicode="&#x4e5;" horiz-adv-x="657" 
d="M422 697c35 0 65 -29 65 -65c0 -35 -30 -65 -65 -65s-65 30 -65 65c0 36 30 65 65 65zM234 697c36 0 65 -29 65 -65c0 -35 -29 -65 -65 -65c-35 0 -65 30 -65 65c0 36 30 65 65 65zM225 97v-14l63 -22l-12 -61h-227l-12 61l63 22v301l-65 22l12 61h232l12 -61l-66 -22
v-145l-24 -73l231 201v17l-65 22l12 61h231l12 -61l-65 -22v-301l63 -22l-12 -61h-229l-12 61l65 22v142l24 73z" />
    <glyph glyph-name="uni04E6" unicode="&#x4e6;" 
d="M498 876c35 0 65 -29 65 -65c0 -35 -30 -65 -65 -65s-65 30 -65 65c0 36 30 65 65 65zM310 876c36 0 65 -29 65 -65c0 -35 -29 -65 -65 -65c-35 0 -65 30 -65 65c0 36 30 65 65 65zM405 717c223 0 344 -161 344 -367s-105 -367 -344 -367s-345 183 -345 367
s122 367 345 367zM405 633c-128 0 -195 -89 -195 -278s65 -288 195 -288c131 0 196 104 196 288s-68 278 -196 278z" />
    <glyph glyph-name="uni04E7" unicode="&#x4e7;" horiz-adv-x="579" 
d="M383 697c35 0 65 -29 65 -65c0 -35 -30 -65 -65 -65s-65 30 -65 65c0 36 30 65 65 65zM195 697c36 0 65 -29 65 -65c0 -35 -29 -65 -65 -65c-35 0 -65 30 -65 65c0 36 30 65 65 65zM290 478c151 0 249 -91 249 -244s-87 -244 -249 -244c-161 0 -250 95 -250 244
s98 244 250 244zM290 415c-74 0 -121 -68 -121 -178s43 -184 121 -184c76 0 122 73 122 184c0 112 -48 178 -122 178z" />
    <glyph glyph-name="uni04E8" unicode="&#x4e8;" 
d="M405 717c223 0 344 -161 344 -367s-105 -367 -344 -367s-345 183 -345 367s122 367 345 367zM600 325h-390c7 -170 72 -258 195 -258s188 93 195 258zM210 377h390c-5 169 -72 256 -195 256s-190 -82 -195 -256z" />
    <glyph glyph-name="uni04E9" unicode="&#x4e9;" horiz-adv-x="579" 
d="M290 478c151 0 249 -91 249 -244s-87 -244 -249 -244c-161 0 -250 95 -250 244s98 244 250 244zM411 210h-241c6 -95 48 -157 120 -157c69 0 114 61 121 157zM170 262h241c-7 97 -53 153 -121 153s-114 -58 -120 -153z" />
    <glyph glyph-name="uni04EA" unicode="&#x4ea;" 
d="M405 717c223 0 344 -161 344 -367s-105 -367 -344 -367s-345 183 -345 367s122 367 345 367zM600 325h-390c7 -170 72 -258 195 -258s188 93 195 258zM210 377h390c-5 169 -72 256 -195 256s-190 -82 -195 -256zM498 876c35 0 65 -29 65 -65c0 -35 -30 -65 -65 -65
s-65 30 -65 65c0 36 30 65 65 65zM310 876c36 0 65 -29 65 -65c0 -35 -29 -65 -65 -65c-35 0 -65 30 -65 65c0 36 30 65 65 65z" />
    <glyph glyph-name="uni04EB" unicode="&#x4eb;" horiz-adv-x="579" 
d="M290 478c151 0 249 -91 249 -244s-87 -244 -249 -244c-161 0 -250 95 -250 244s98 244 250 244zM411 210h-241c6 -95 48 -157 120 -157c69 0 114 61 121 157zM170 262h241c-7 97 -53 153 -121 153s-114 -58 -120 -153zM383 697c35 0 65 -29 65 -65c0 -35 -30 -65 -65 -65
s-65 30 -65 65c0 36 30 65 65 65zM195 697c36 0 65 -29 65 -65c0 -35 -29 -65 -65 -65c-35 0 -65 30 -65 65c0 36 30 65 65 65z" />
    <glyph glyph-name="uni04EC" unicode="&#x4ec;" horiz-adv-x="692" 
d="M287 67c157 0 207 129 215 255h-130l-33 -82l-70 12v218l70 11l33 -81h129c-14 152 -89 233 -214 233c-30 0 -94 -5 -128 -15l-48 -132l-71 11v155c75 43 158 65 247 65c243 0 365 -183 365 -367s-106 -367 -365 -367c-82 0 -192 26 -247 66v161l71 10l50 -138
c33 -8 98 -15 126 -15zM375 876c35 0 65 -29 65 -65c0 -35 -30 -65 -65 -65s-65 30 -65 65c0 36 30 65 65 65zM187 876c36 0 65 -29 65 -65c0 -35 -29 -65 -65 -65c-35 0 -65 30 -65 65c0 36 30 65 65 65z" />
    <glyph glyph-name="uni04ED" unicode="&#x4ed;" horiz-adv-x="507" 
d="M159 206v65h171c-4 92 -59 143 -136 143c-20 0 -53 -3 -75 -11c-6 -22 -16 -54 -21 -75l-68 12v97c58 28 118 40 167 40c158 0 270 -90 270 -244c0 -147 -88 -243 -269 -243c-51 0 -112 14 -168 40v119l68 13l27 -99c18 -7 48 -10 66 -10c88 0 130 69 138 153h-170z
M298 697c35 0 65 -29 65 -65c0 -35 -30 -65 -65 -65s-65 30 -65 65c0 36 30 65 65 65zM110 697c36 0 65 -29 65 -65c0 -35 -29 -65 -65 -65c-35 0 -65 30 -65 65c0 36 30 65 65 65z" />
    <glyph glyph-name="uni04EE" unicode="&#x4ee;" horiz-adv-x="574" 
d="M171 763v66h341v-66h-341zM554 598l-197 -494c-18 -45 -40 -94 -82 -121l-147 19l-11 76c54 0 156 29 181 89l4 12l-22 5l-188 414l-87 31l13 71h292l11 -71l-77 -30l97 -207v-113l130 320l-76 30l12 71h224l13 -71z" />
    <glyph glyph-name="uni04EF" unicode="&#x4ef;" horiz-adv-x="608" 
d="M150 580v66h341v-66h-341zM524 384l-171 -488c-15 -43 -57 -120 -94 -146l-135 11l-11 60c53 8 135 26 170 116l20 52l-31 11l-181 384l-73 22l12 61h258l12 -61l-77 -22l113 -221v-83l106 304l-68 22l12 61h195l12 -61z" />
    <glyph glyph-name="uni04F0" unicode="&#x4f0;" horiz-adv-x="574" 
d="M416 876c35 0 65 -29 65 -65c0 -35 -30 -65 -65 -65s-65 30 -65 65c0 36 30 65 65 65zM228 876c36 0 65 -29 65 -65c0 -35 -29 -65 -65 -65c-35 0 -65 30 -65 65c0 36 30 65 65 65zM554 598l-197 -494c-18 -45 -40 -94 -82 -121l-147 19l-11 76c54 0 156 29 181 89l4 12
l-22 5l-188 414l-87 31l13 71h292l11 -71l-77 -30l97 -207v-113l130 320l-76 30l12 71h224l13 -71z" />
    <glyph glyph-name="uni04F1" unicode="&#x4f1;" horiz-adv-x="608" 
d="M411 697c35 0 65 -29 65 -65c0 -35 -30 -65 -65 -65s-65 30 -65 65c0 36 30 65 65 65zM223 697c36 0 65 -29 65 -65c0 -35 -29 -65 -65 -65c-35 0 -65 30 -65 65c0 36 30 65 65 65zM524 384l-171 -488c-15 -43 -57 -120 -94 -146l-135 11l-11 60c53 8 135 26 170 116
l20 52l-31 11l-181 384l-73 22l12 61h258l12 -61l-77 -22l113 -221v-83l106 304l-68 22l12 61h195l12 -61z" />
    <glyph glyph-name="uni04F2" unicode="&#x4f2;" horiz-adv-x="574" 
d="M560 870l-176 -112l-29 27l124 156zM391 870l-176 -112l-29 27l124 156zM554 598l-197 -494c-18 -45 -40 -94 -82 -121l-147 19l-11 76c54 0 156 29 181 89l4 12l-22 5l-188 414l-87 31l13 71h292l11 -71l-77 -30l97 -207v-113l130 320l-76 30l12 71h224l13 -71z" />
    <glyph glyph-name="uni04F3" unicode="&#x4f3;" horiz-adv-x="608" 
d="M367 719l-126 -158l-44 23l73 182zM514 719l-126 -158l-44 23l73 182zM524 384l-171 -488c-15 -43 -57 -120 -94 -146l-135 11l-11 60c53 8 135 26 170 116l20 52l-31 11l-181 384l-73 22l12 61h258l12 -61l-77 -22l113 -221v-83l106 304l-68 22l12 61h195l12 -61z" />
    <glyph glyph-name="uni04F4" unicode="&#x4f4;" horiz-adv-x="723" 
d="M448 876c35 0 65 -29 65 -65c0 -35 -30 -65 -65 -65s-65 30 -65 65c0 36 30 65 65 65zM260 876c36 0 65 -29 65 -65c0 -35 -29 -65 -65 -65c-35 0 -65 30 -65 65c0 36 30 65 65 65zM243 598v-169c0 -57 55 -82 97 -82c37 0 94 12 121 26v225l-85 31l11 72h285l11 -72
l-84 -31v-496l83 -31l-11 -71h-313l-10 71l113 31v183c-37 -13 -96 -20 -130 -20c-112 0 -227 60 -227 173v160l-84 31l13 71h282l12 -71z" />
    <glyph glyph-name="uni04F5" unicode="&#x4f5;" horiz-adv-x="580" 
d="M384 697c35 0 65 -29 65 -65c0 -35 -30 -65 -65 -65s-65 30 -65 65c0 36 30 65 65 65zM196 697c36 0 65 -29 65 -65c0 -35 -29 -65 -65 -65c-35 0 -65 30 -65 65c0 36 30 65 65 65zM355 384l-60 22l12 61h226l12 -61l-64 -22v-301l63 -22l-12 -61h-228l-12 61l63 23v102
c-26 -10 -72 -16 -103 -16c-113 0 -184 56 -184 165v50l-63 21l12 61h224l12 -61l-59 -22v-67c0 -52 29 -80 66 -80c25 0 73 4 95 15v132z" />
    <glyph glyph-name="uni04F8" unicode="&#x4f8;" horiz-adv-x="950" 
d="M569 876c35 0 65 -29 65 -65c0 -35 -30 -65 -65 -65s-65 30 -65 65c0 36 30 65 65 65zM381 876c36 0 65 -29 65 -65c0 -35 -29 -65 -65 -65c-35 0 -65 30 -65 65c0 36 30 65 65 65zM830 596v-492l85 -33l-11 -71h-285l-11 71l84 32v493l-84 34l11 70h284l12 -70zM120 102
v496l-85 31l12 71h284l11 -71l-84 -31v-527h56c95 0 139 67 139 151s-52 124 -134 124h-24v79h48c126 0 259 -51 259 -203c0 -121 -55 -222 -249 -222h-305l-11 71z" />
    <glyph glyph-name="uni04F9" unicode="&#x4f9;" horiz-adv-x="780" 
d="M298 288c74 0 188 -31 188 -148c0 -74 -68 -140 -145 -140h-292l-12 61l63 22v301l-65 22l12 61h232l12 -61l-65 -22v-323h50c45 0 74 38 74 86c0 47 -29 79 -74 79h-7v62h29zM556 83v301l-63 22l12 61h228l12 -61l-63 -22v-302l63 -21l-12 -61h-228l-12 61zM492 697
c35 0 65 -29 65 -65c0 -35 -30 -65 -65 -65s-65 30 -65 65c0 36 30 65 65 65zM304 697c36 0 65 -29 65 -65c0 -35 -29 -65 -65 -65c-35 0 -65 30 -65 65c0 36 30 65 65 65z" />
    <glyph glyph-name="Wgrave" unicode="&#x1e80;" horiz-adv-x="1036" 
d="M590 758l-176 112l81 71l124 -156zM537 385l126 -402l96 17l185 596l89 33l-11 71h-226l-11 -71l80 -33l-147 -451v135l-136 437l-70 -17l-177 -560v140l-101 316l81 33l-12 71h-289l-10 -71l88 -33l188 -613l98 17l159 504v-119z" />
    <glyph glyph-name="wgrave" unicode="&#x1e81;" horiz-adv-x="831" 
d="M419 561l-126 158l97 47l73 -182zM514 -10l-86 267v80l-111 -337l-113 -10l-123 394l-69 22l12 61h233l12 -61l-59 -22l64 -192v-86l117 360l102 13l91 -287v-66l89 258l-60 22l12 61h178l12 -61l-69 -22l-124 -384z" />
    <glyph glyph-name="Wacute" unicode="&#x1e82;" horiz-adv-x="1036" 
d="M698 870l-176 -112l-29 27l124 156zM663 -17l-126 402v119l-159 -504l-98 -17l-188 613l-88 33l10 71h289l12 -71l-81 -33l101 -316v-140l177 560l70 17l136 -437v-135l147 451l-80 33l11 71h226l11 -71l-89 -33l-185 -596z" />
    <glyph glyph-name="wacute" unicode="&#x1e83;" horiz-adv-x="831" 
d="M553 719l-126 -158l-44 23l73 182zM514 -10l-86 267v80l-111 -337l-113 -10l-123 394l-69 22l12 61h233l12 -61l-59 -22l64 -192v-86l117 360l102 13l91 -287v-66l89 258l-60 22l12 61h178l12 -61l-69 -22l-124 -384z" />
    <glyph glyph-name="Wdieresis" unicode="&#x1e84;" horiz-adv-x="1036" 
d="M637 876c35 0 65 -29 65 -65c0 -35 -30 -65 -65 -65s-65 30 -65 65c0 36 30 65 65 65zM449 876c36 0 65 -29 65 -65c0 -35 -29 -65 -65 -65c-35 0 -65 30 -65 65c0 36 30 65 65 65zM663 -17l-126 402v119l-159 -504l-98 -17l-188 613l-88 33l10 71h289l12 -71l-81 -33
l101 -316v-140l177 560l70 17l136 -437v-135l147 451l-80 33l11 71h226l11 -71l-89 -33l-185 -596z" />
    <glyph glyph-name="wdieresis" unicode="&#x1e85;" horiz-adv-x="831" 
d="M520 697c35 0 65 -29 65 -65c0 -35 -30 -65 -65 -65s-65 30 -65 65c0 36 30 65 65 65zM332 697c36 0 65 -29 65 -65c0 -35 -29 -65 -65 -65c-35 0 -65 30 -65 65c0 36 30 65 65 65zM514 -10l-86 267v80l-111 -337l-113 -10l-123 394l-69 22l12 61h233l12 -61l-59 -22
l64 -192v-86l117 360l102 13l91 -287v-66l89 258l-60 22l12 61h178l12 -61l-69 -22l-124 -384z" />
    <glyph glyph-name="Ygrave" unicode="&#x1ef2;" horiz-adv-x="685" 
d="M291 257v-155l-84 -31l11 -71h282l12 71l-83 31v220l161 274l90 33l-11 71h-231l-10 -71l73 -33l-144 -239v63l-106 176l75 32l-11 72h-299l-11 -71l88 -33zM370 758l-176 112l81 71l124 -156z" />
    <glyph glyph-name="ygrave" unicode="&#x1ef3;" horiz-adv-x="608" 
d="M317 561l-126 158l97 47l73 -182zM524 384l-171 -488c-15 -43 -57 -120 -94 -146l-135 11l-11 60c53 8 135 26 170 116l20 52l-31 11l-181 384l-73 22l12 61h258l12 -61l-77 -22l113 -221v-83l106 304l-68 22l12 61h195l12 -61z" />
    <glyph glyph-name="onedotenleader" unicode="&#x2024;" horiz-adv-x="210" 
d="M104 120c38 0 69 -31 69 -68c0 -38 -31 -69 -69 -69c-37 0 -68 31 -68 69c0 37 31 68 68 68z" />
    <glyph glyph-name="twodotenleader" unicode="&#x2025;" horiz-adv-x="420" 
d="M311 120c38 0 69 -31 69 -68c0 -38 -31 -69 -69 -69c-37 0 -68 31 -68 69c0 37 31 68 68 68zM108 120c38 0 69 -31 69 -68c0 -38 -31 -69 -69 -69c-37 0 -68 31 -68 69c0 37 31 68 68 68z" />
    <glyph glyph-name="franc" unicode="&#x20a3;" horiz-adv-x="908" 
d="M243 576v-210h92l29 74l64 -10v-200l-64 -10l-29 74h-92v-201l105 -28l-9 -65h-288l-10 65l76 29v452l-77 30l9 65h462v-163l-65 -10l-37 108h-166zM883 311l-61 -11l-21 68c-6 2 -24 4 -37 4c-18 0 -56 -8 -82 -19v-277l76 -20l-11 -56h-227l-11 56l58 20v296h-42
l-11 56l119 10l38 -24c28 10 76 24 118 24c28 0 60 -7 94 -20v-107z" />
    <glyph glyph-name="dblS" unicode="&#xf485;" horiz-adv-x="1148" 
d="M616 527c0 127 116 190 244 190c78 0 152 -27 214 -64v-156l-72 -11l-47 134c-27 8 -65 13 -95 13c-73 0 -118 -33 -118 -89c0 -73 119 -112 157 -131c105 -44 205 -110 205 -230c0 -116 -85 -200 -264 -200c-82 0 -165 25 -221 65v162l71 10l51 -131
c23 -11 66 -22 92 -22c81 0 146 31 146 85c0 79 -119 118 -188 152c-77 38 -175 83 -175 223zM50 527c0 127 116 190 244 190c78 0 152 -27 214 -64v-156l-72 -11l-47 134c-27 8 -65 13 -95 13c-73 0 -118 -33 -118 -89c0 -73 119 -112 157 -131c105 -44 205 -110 205 -230
c0 -116 -85 -200 -264 -200c-82 0 -165 25 -221 65v162l71 10l51 -131c23 -11 66 -22 92 -22c81 0 146 31 146 85c0 79 -119 118 -188 152c-77 38 -175 83 -175 223z" />
    <glyph glyph-name="longs_t" unicode="&#xfb05;" horiz-adv-x="722" 
d="M333 747c152 0 240 -65 240 -172c0 -52 -12 -86 -22 -108h132l-12 -61h-120v-289c0 -34 25 -55 43 -55c25 0 58 19 85 48l43 -53c-39 -40 -81 -67 -144 -67c-100 0 -153 59 -153 135v281h-57l-11 61c62 19 97 67 97 118c0 66 -43 99 -122 99c-56 0 -104 -29 -104 -116
v-485l84 -21l-12 -62h-250l-12 62l64 21v322h-72l-10 56l82 24v63c0 114 88 199 231 199z" />
    <glyph glyph-name="f_f_j" unicode="&#xe1f9;" horiz-adv-x="1087" 
d="M509 467v33c0 114 70 247 269 247c97 0 232 -23 232 -111c0 -38 -31 -69 -69 -69c-37 0 -68 31 -68 69l1 13c-28 29 -62 35 -101 35c-81 0 -138 -74 -138 -165v-52h377v-387c0 -136 -38 -264 -238 -330l-34 57c134 88 146 182 146 289v310h-251v-323l84 -22l-12 -61h-250
l-12 61l64 22v323h-281v-323l94 -22l-12 -61h-260l-12 61l64 22v323h-72l-10 55l82 24v65c0 114 82 197 209 197c53 0 92 -14 137 -48v-94l-67 -13l-22 83c-10 5 -31 9 -44 9c-44 0 -87 -24 -87 -115v-102h281z" />
    <glyph glyph-name="centigrade" unicode="&#x2103;" horiz-adv-x="985" 
d="M198 718c69 0 130 -56 130 -133c0 -71 -59 -130 -130 -130c-77 0 -133 61 -133 130c0 73 60 133 133 133zM198 650c-37 0 -65 -28 -65 -65c0 -35 29 -63 65 -63c34 0 63 28 63 63c0 37 -29 65 -63 65zM732 67c29 0 82 5 115 14l51 139l71 -10v-162
c-56 -40 -155 -65 -237 -65c-260 0 -366 183 -366 367s122 367 366 367c89 0 162 -21 237 -64v-156l-72 -11l-46 131c-36 10 -86 16 -119 16c-139 0 -216 -89 -216 -278c0 -136 45 -288 216 -288z" />
    <glyph glyph-name="fahrenheit" unicode="&#x2109;" horiz-adv-x="911" 
d="M594 629v-229h111l32 81l70 -11v-219l-70 -11l-32 81h-111v-219l114 -31l-10 -71h-314l-11 71l83 32v493l-84 33l10 71h504v-178l-71 -11l-40 118h-181zM198 717c69 0 130 -56 130 -133c0 -71 -59 -130 -130 -130c-77 0 -133 61 -133 130c0 73 60 133 133 133zM198 649
c-37 0 -65 -28 -65 -65c0 -35 29 -63 65 -63c34 0 63 28 63 63c0 37 -29 65 -63 65z" />
    <glyph glyph-name="slashedzero" unicode="&#xe23f;" horiz-adv-x="628" 
d="M316 655c181 0 245 -176 245 -332s-52 -333 -245 -333c-191 0 -250 171 -250 333s69 332 250 332zM215 219l177 304c-17 37 -42 58 -76 58c-79 0 -110 -128 -110 -254c0 -37 3 -73 9 -108zM412 446l-177 -307c18 -46 44 -75 81 -75c76 0 106 136 106 263
c0 42 -3 81 -10 119z" />
    <glyph glyph-name="hryvnia" unicode="&#x20b4;" horiz-adv-x="558" 
d="M76 407h245c21 22 35 47 35 79c0 42 -34 77 -97 77c-27 0 -63 -4 -84 -13l-23 -75l-72 14v106c56 28 128 46 178 46c148 0 224 -52 224 -164c0 -26 -4 -50 -12 -70h78l-12 -51h-93c-26 -35 -62 -62 -99 -84h154l-12 -51h-229c-41 -26 -70 -52 -70 -89
c0 -39 42 -64 95 -64c19 0 68 4 93 11l37 103l74 -12v-133c-65 -32 -161 -47 -210 -47c-124 0 -214 30 -214 147c0 33 8 60 22 84h-67l13 51h97c37 33 85 58 127 84h-192z" />
    <glyph glyph-name="ampersand.alt" horiz-adv-x="702" 
d="M273 316c-65 0 -108 -53 -108 -118s52 -118 117 -118c40 0 97 21 118 42v194h-127zM278 -11c-171 0 -241 78 -241 192c0 78 39 152 107 178c-40 29 -66 71 -66 134c0 91 77 162 210 162c67 0 127 -22 188 -64v-110l-69 -13l-27 86c-19 12 -49 19 -79 19
c-44 0 -98 -23 -98 -84c0 -65 44 -98 88 -98h357l-12 -75h-112v-197c0 -32 14 -50 32 -50c26 0 49 18 73 45l46 -55c-40 -42 -74 -70 -135 -70c-48 0 -83 14 -106 39c-33 -23 -98 -39 -156 -39z" />
    <glyph glyph-name="uni04D5" unicode="&#x4d5;" horiz-adv-x="823" 
d="M592 62c51 0 103 12 154 46l34 -51c-64 -52 -127 -68 -193 -68c-85 0 -148 19 -193 53c-58 -40 -127 -53 -196 -53c-90 0 -169 48 -169 139c0 136 159 167 285 167v35c0 57 -41 85 -85 85c-24 0 -55 -6 -74 -11l-22 -76l-67 12v96c58 29 118 42 168 42
c71 0 126 -20 161 -59c46 38 107 59 175 59c120 0 218 -64 218 -162c0 -27 -10 -63 -22 -84h-315c2 -100 55 -170 141 -170zM314 102v131c-93 0 -148 -39 -148 -96s41 -75 69 -75c27 0 62 15 79 40zM454 294h205c2 10 3 20 3 29c0 59 -40 92 -92 92
c-65 0 -107 -49 -116 -121z" />
    <glyph glyph-name="uni04D4" unicode="&#x4d4;" horiz-adv-x="1009" 
d="M846 629h-203v-229h113l30 81l72 -10v-221l-71 -10l-31 81h-113v-250h207l53 150l71 -10v-211h-541l-10 71l82 31v121h-268l-54 -121l85 -30l-10 -72h-242l-11 71l87 32l270 597h595v-178l-72 -11zM505 596l-84 33l-149 -328h233v295z" />
    <glyph glyph-name="i_j.cyr" horiz-adv-x="989" 
d="M225 97v-14l63 -22l-12 -61h-227l-12 61l63 22v301l-65 22l12 61h232l12 -61l-66 -22v-145l-24 -73l231 201v17l-65 22l12 61h231l12 -61l-65 -22v-115l-24 -103l231 201v17l-65 22l12 61h231l12 -61l-65 -22v-301l63 -22l-12 -61h-229l-12 61l65 22v142l24 73l-231 -201
v-14l63 -22l-12 -61h-229l-12 61l65 22v142l24 73zM805 716l37 -38c-46 -65 -123 -107 -190 -107c-72 0 -134 22 -182 89l63 66h51c20 -36 56 -63 99 -63c47 0 79 13 122 53z" />
    <glyph glyph-name="i_n.cyr" horiz-adv-x="989" 
d="M225 97v-14l63 -22l-12 -61h-227l-12 61l63 22v301l-65 22l12 61h232l12 -61l-66 -22v-145l-24 -73l231 201v17l-65 22l12 61h231l12 -61l-65 -22v-110h202v110l-65 22l12 61h231l12 -61l-64 -22v-301l63 -22l-12 -61h-229l-12 61l64 22v134h-202v-134l63 -22l-12 -61
h-229l-12 61l65 22v142l24 73z" />
    <glyph glyph-name="w_w_w" horiz-adv-x="2122" 
d="M514 -10l-86 267v80l-111 -337l-113 -10l-123 394l-69 22l12 61h233l12 -61l-59 -22l64 -192v-86l117 360l102 13l91 -287v-66l116 341h128l91 -275v-86l117 360l102 13l91 -287v-66l116 341h129l91 -275v-86l117 360l102 13l91 -287v-66l89 258l-60 22l12 61h178l12 -61
l-69 -22l-124 -384l-108 -10l-86 267v80l-111 -337l-113 -10l-114 362l-114 -352l-108 -10l-86 267v80l-111 -337l-113 -10l-113 362l-114 -352z" />
    <glyph glyph-name="n_n.cyr" horiz-adv-x="985" 
d="M427 274v110l-65 22l12 61h231l12 -61l-64 -22v-110h202v110l-65 22l12 61h231l12 -61l-64 -22v-301l63 -22l-12 -61h-229l-12 61l64 22v134h-202v-134l63 -22l-12 -61h-229l-12 61l64 22v134h-202v-134l63 -22l-12 -61h-227l-12 61l62 22v301l-64 22l12 61h232l12 -61
l-66 -22v-110h202z" />
    <glyph glyph-name="a_l.cyr.001" horiz-adv-x="1051" 
d="M442 290v-158c0 -65 50 -71 76 -71c99 0 150 108 150 269v54l-65 22l12 61h389l12 -61l-65 -22v-301l63 -22l-12 -61h-228l-12 61l63 22v323h-87v-100c0 -136 -35 -316 -238 -316c-69 0 -125 10 -171 33c-30 -21 -71 -34 -129 -34c-90 0 -169 48 -169 139
c0 136 159 167 285 167v35c0 57 -41 85 -85 85c-24 0 -55 -6 -74 -11l-22 -76l-67 12v96c58 29 118 42 168 42c129 0 206 -67 206 -188zM316 102v131c-93 0 -148 -39 -148 -96s41 -75 69 -75c27 0 62 15 79 40z" />
    <glyph glyph-name="P_K.cyr" horiz-adv-x="1157" 
d="M548 102v527h-286v-527l82 -31l-10 -71h-282l-11 71l83 31v496l-84 31l11 71h707l12 -71l-84 -31v-496l82 -31l-10 -71h-282l-11 71zM910 0l9 54l-191 286v53l199 203l-63 33l12 71h241l11 -71c-61 -17 -106 -48 -129 -72l-177 -180l68 -32l161 -238l90 -36l-11 -71h-220
z" />
    <glyph glyph-name="i_i.ukr" horiz-adv-x="659" 
d="M586 697c35 0 65 -29 65 -65c0 -35 -30 -65 -65 -65s-65 30 -65 65c0 36 30 65 65 65zM330 697c36 0 65 -29 65 -65c0 -35 -29 -65 -65 -65c-35 0 -65 30 -65 65c0 36 30 65 65 65zM555 83l64 -21l-12 -62h-230l-12 62l64 21v323h-46l-11 61l122 11l61 -11v-384zM73 697
c36 0 65 -29 65 -65c0 -35 -29 -65 -65 -65c-35 0 -65 30 -65 65c0 36 30 65 65 65zM230 83l64 -21l-12 -62h-230l-12 62l64 21v323h-46l-11 61l122 11l61 -11v-384z" />
    <glyph glyph-name="O_O" horiz-adv-x="1350" 
d="M405 717c123 0 216 -50 273 -129c59 76 149 129 268 129c223 0 344 -161 344 -367s-105 -367 -344 -367c-124 0 -212 49 -268 121c-55 -75 -145 -121 -273 -121c-239 0 -345 183 -345 367s122 367 345 367zM405 633c-128 0 -195 -89 -195 -278s65 -288 195 -288
c131 0 196 104 196 288s-68 278 -196 278zM946 633c-128 0 -195 -89 -195 -278s65 -288 195 -288c131 0 196 104 196 288s-68 278 -196 278z" />
    <glyph glyph-name="k_k.cyr" horiz-adv-x="862" 
d="M321 467h204l12 -61c-60 -9 -85 -27 -105 -47l-119 -113l60 -13l106 -150l73 -22l-12 -61h-195l10 51l-124 171v39l128 123l-50 22zM200 83l63 -22l-12 -61h-229l-12 61l64 22v323h-52l-12 61l131 15l59 -15v-384zM611 467h204l12 -61c-60 -9 -85 -27 -105 -47l-119 -113
l60 -13l106 -150l73 -22l-12 -61h-195l10 51l-124 171v39l128 123l-50 22z" />
    <glyph glyph-name="O_C" horiz-adv-x="1220" 
d="M967 67c29 0 82 5 115 14l51 139l71 -10v-162c-56 -40 -155 -65 -237 -65c-136 0 -229 49 -288 123c-55 -76 -145 -123 -274 -123c-239 0 -345 183 -345 367s122 367 345 367c124 0 217 -50 274 -130c61 77 157 130 288 130c89 0 162 -21 237 -64v-156l-72 -11l-46 131
c-36 10 -86 16 -119 16c-139 0 -216 -89 -216 -278c0 -136 45 -288 216 -288zM405 633c-128 0 -195 -89 -195 -278s65 -288 195 -288s195 102 196 283v5c0 184 -68 278 -196 278z" />
    <glyph glyph-name="A_A" horiz-adv-x="1230" 
d="M327 699l109 18l166 -454v-78l199 514l109 18l225 -615l87 -31l-11 -71h-291l-11 71l79 31l-45 121h-234l-48 -121l87 -31l-11 -71h-291l-11 71l79 31l-45 121h-234l-48 -121l94 -30l-10 -72h-250l-11 71l87 32zM440 301l-63 170v114l-112 -284h175zM914 301l-63 170v114
l-112 -284h175z" />
    <glyph glyph-name="O_Q" horiz-adv-x="1350" 
d="M1289 350c0 -125 -61 -313 -273 -393c84 0 102 -40 162 -40c16 0 37 6 67 26l45 -36l-106 -100c-110 0 -136 67 -223 67c-64 0 -121 -18 -182 -44l-40 68c62 30 116 60 154 89c-101 9 -172 51 -218 112c-56 -72 -145 -116 -270 -116c-239 0 -345 183 -345 367
s122 367 345 367c123 0 216 -50 273 -129c58 77 148 129 267 129c223 0 344 -161 344 -367zM405 633c-128 0 -195 -89 -195 -278s65 -288 195 -288c131 0 196 104 196 288s-68 278 -196 278zM1141 355c0 184 -68 278 -196 278s-195 -89 -195 -278s65 -288 195 -288
c108 0 196 104 196 288z" />
    <glyph glyph-name="n_m" horiz-adv-x="1207" 
d="M818 310v-227l64 -22l-12 -61h-229l-12 61l63 22v244c0 52 -40 79 -79 79c-24 0 -71 -14 -101 -24c9 -21 14 -46 14 -73v-226l63 -22l-12 -61h-228l-12 61l63 22v241c0 52 -45 82 -89 82c-26 0 -61 -11 -87 -20v-303l64 -22l-11 -61h-231l-11 61l63 22v323h-45l-11 61
l128 11l41 -26c33 11 83 26 125 26c57 0 104 -15 137 -42c47 25 113 42 162 42c54 0 102 -10 131 -37c33 18 93 37 143 37c130 0 199 -60 199 -169v-226l64 -22l-12 -61h-228l-12 61l63 22v235c0 59 -49 88 -91 88c-37 0 -70 -11 -89 -20c10 -24 15 -46 15 -76z" />
    <glyph glyph-name="m_m" horiz-adv-x="1487" 
d="M516 310v-227l64 -22l-12 -61h-229l-12 61l63 22v244c0 52 -40 79 -79 79c-26 0 -61 -11 -87 -20v-303l63 -22l-12 -61h-228l-12 61l63 22v323h-45l-11 61l125 11l41 -26c33 11 83 26 125 26c54 0 102 -10 131 -37c33 18 93 37 143 37c62 0 111 -14 144 -41
c44 21 123 41 164 41c54 0 102 -10 131 -37c33 18 93 37 143 37c130 0 199 -60 199 -169v-226l64 -22l-12 -61h-228l-12 61l63 22v235c0 59 -49 88 -91 88c-37 0 -70 -11 -89 -20c10 -24 15 -46 15 -76v-227l64 -22l-12 -61h-229l-12 61l63 22v244c0 52 -40 79 -79 79
c-36 0 -73 -13 -100 -26c8 -21 13 -45 13 -71v-226l64 -22l-12 -61h-228l-12 61l63 22v235c0 59 -49 88 -91 88c-37 0 -70 -11 -89 -20c10 -24 15 -46 15 -76z" />
    <glyph glyph-name="ruble.cyr" horiz-adv-x="586" 
d="M382 207v-51h-142v-63l105 -28l-11 -65h-287l-10 65l77 28v63h-77v51h77v67h-77v51h77v221l-79 30l11 65h302c138 0 208 -67 208 -189c0 -149 -113 -178 -241 -178h-29v51h32c71 0 114 64 114 127c0 76 -31 124 -112 124h-80v-369h142z" />
    <glyph glyph-name="ya.cyr" horiz-adv-x="439" 
d="M30 215h379v-67h-379v67zM248 485v-33l-72 -105l6 -32h-133l-9 43l50 15l40 61l33 18c-45 12 -87 37 -87 91c0 59 38 101 111 101h205l9 -43l-42 -15v-213l40 -15l-8 -43h-152l-8 43l39 15v228h-45c-38 0 -55 -26 -55 -59c0 -28 25 -57 59 -57h19z" />
    <glyph glyph-name="a_ya.cyr.001" horiz-adv-x="799" 
d="M30 215h739v-67h-739v67zM67 555v68c40 21 82 29 117 29c90 0 146 -47 146 -131v-147l39 -16l-9 -43h-91l-19 17c-21 -15 -50 -23 -90 -23c-65 0 -120 33 -120 97c0 96 112 117 201 117v24c0 42 -28 61 -62 61c-15 0 -36 -5 -50 -7l-16 -54zM241 387v92
c-66 0 -104 -26 -104 -67c0 -40 29 -52 49 -52c18 0 43 10 55 27zM609 486v-33l-72 -105l7 -33h-134l-10 43l51 16l42 61l30 18c-43 12 -87 37 -87 90c0 60 40 101 112 101h205l9 -43l-42 -14v-213l39 -16l-8 -43h-150l-10 43l40 16v227h-44c-39 0 -56 -24 -56 -58
c0 -28 25 -57 58 -57h20z" />
    <glyph glyph-name="e.cyr" horiz-adv-x="412" 
d="M138 523h143c2 7 3 14 3 20c0 42 -28 65 -65 65c-46 0 -75 -35 -81 -85zM235 360c35 0 72 9 108 32l23 -35c-45 -37 -89 -48 -135 -48c-133 0 -191 68 -191 172c0 107 79 171 179 171c84 0 153 -45 153 -114c0 -19 -7 -44 -15 -59h-221c1 -70 38 -119 99 -119zM30 215
h352v-67h-352v67z" />
    <glyph glyph-name="o_e.cyr" horiz-adv-x="815" 
d="M217 652c106 0 175 -64 175 -171s-61 -171 -175 -171c-113 0 -175 66 -175 171c0 104 69 171 175 171zM217 608c-52 0 -85 -48 -85 -125s31 -129 85 -129s86 51 86 129c0 79 -34 125 -86 125zM684 523h-143c6 50 35 85 81 85c37 0 65 -23 65 -65c0 -6 -1 -13 -3 -20z
M638 360c-61 0 -98 49 -99 119h221c8 15 15 40 15 59c0 69 -69 114 -153 114c-100 0 -179 -64 -179 -171c0 -104 58 -172 191 -172c46 0 90 11 135 48l-23 35c-36 -23 -73 -32 -108 -32zM30 215h755v-67h-755v67z" />
    <glyph glyph-name="o_i.cyr" horiz-adv-x="882" 
d="M217 652c105 0 175 -64 175 -171c0 -108 -63 -172 -175 -172c-115 0 -177 67 -177 172s69 171 177 171zM217 608c-52 0 -87 -48 -87 -125c0 -78 31 -130 87 -130c53 0 85 51 85 130c0 78 -34 125 -85 125zM563 384v-10l44 -17l-8 -42h-159l-9 42l43 17v211l-44 16l7 43
h164l9 -43l-47 -16v-101l-16 -50l162 141v10l-46 16l9 43h161l9 -43l-46 -16v-211l45 -17l-9 -42h-160l-9 42l46 17v100l16 52zM752 820l26 -27c-34 -46 -88 -75 -135 -75c-50 0 -94 16 -128 63l44 46h36c15 -25 40 -45 69 -45c34 0 56 10 88 38zM30 215h822v-67h-822v67z
" />
    <glyph glyph-name="i.cyr" horiz-adv-x="491" 
d="M172 384v-10l44 -17l-8 -42h-159l-9 42l43 17v211l-44 16l7 43h164l9 -43l-47 -16v-101l-16 -50l162 141v10l-46 16l9 43h161l9 -43l-46 -16v-211l45 -17l-9 -42h-160l-9 42l46 17v100l16 52zM361 820l26 -27c-34 -46 -88 -75 -135 -75c-50 0 -94 16 -128 63l44 46h36
c15 -25 40 -45 69 -45c34 0 56 10 88 38zM30 215h431v-67h-431v67z" />
    <glyph glyph-name="i_i.cyr" horiz-adv-x="1039" 
d="M720 384v-10l44 -17l-8 -42h-159l-9 42l43 17v211l-44 16l7 43h164l9 -43l-47 -16v-101l-16 -50l162 141v10l-46 16l9 43h161l9 -43l-46 -16v-211l45 -17l-9 -42h-160l-9 42l46 17v100l16 52zM909 820l26 -27c-34 -46 -88 -75 -135 -75c-50 0 -94 16 -128 63l44 46h36
c15 -25 40 -45 69 -45c34 0 56 10 88 38zM30 215h979v-67h-979v67zM224 518c52 0 132 -22 132 -104c0 -53 -48 -99 -102 -99h-205l-9 43l44 15v213l-45 15l8 43h163l9 -43l-46 -15v-228h35c32 0 52 27 52 61c0 33 -20 55 -52 55h-5v44h21zM406 373v213l-45 15l9 43h160
l9 -43l-45 -15v-213l45 -15l-9 -43h-160l-9 43z" />
    <glyph glyph-name="e_e.cyr" horiz-adv-x="789" 
d="M515 523h143c2 7 3 14 3 20c0 42 -28 65 -65 65c-46 0 -75 -35 -81 -85zM612 360c35 0 72 9 108 32l23 -35c-45 -37 -89 -48 -135 -48c-133 0 -191 68 -191 172c0 107 79 171 179 171c84 0 153 -45 153 -114c0 -19 -7 -44 -15 -59h-221c1 -70 38 -119 99 -119zM30 215
h729v-67h-729v67zM137 523h143c2 7 3 14 3 20c0 42 -28 65 -65 65c-46 0 -75 -35 -81 -85zM234 360c35 0 72 9 108 32l23 -35c-45 -37 -89 -48 -135 -48c-133 0 -191 68 -191 172c0 107 79 171 179 171c84 0 153 -45 153 -114c0 -19 -7 -44 -15 -59h-221
c1 -70 38 -119 99 -119z" />
    <glyph glyph-name="ya_ya.cyr" horiz-adv-x="827" 
d="M30 215h767v-67h-767v67zM637 486v-33l-72 -105l7 -33h-134l-10 43l51 16l42 61l30 18c-43 12 -87 37 -87 90c0 60 40 101 112 101h205l9 -43l-42 -14v-213l39 -16l-8 -43h-150l-10 43l40 16v227h-44c-39 0 -56 -24 -56 -58c0 -28 25 -57 58 -57h20zM249 486v-33
l-72 -105l7 -33h-134l-10 43l51 16l42 61l30 18c-43 12 -87 37 -87 90c0 60 40 101 112 101h205l9 -43l-42 -14v-213l39 -16l-8 -43h-150l-10 43l40 16v227h-44c-39 0 -56 -24 -56 -58c0 -28 25 -57 58 -57h20z" />
    <glyph glyph-name="i_i" horiz-adv-x="944" 
d="M625 384v-10l44 -17l-8 -42h-159l-9 42l43 17v211l-44 16l7 43h164l9 -43l-47 -16v-101l-16 -50l162 141v10l-46 16l9 43h161l9 -43l-46 -16v-211l45 -17l-9 -42h-160l-9 42l46 17v100l16 52zM814 820l26 -27c-34 -46 -88 -75 -135 -75c-50 0 -94 16 -128 63l44 46h36
c15 -25 40 -45 69 -45c34 0 56 10 88 38zM30 215h884v-67h-884v67zM172 384v-10l44 -17l-8 -42h-159l-9 42l43 17v211l-44 16l7 43h164l9 -43l-47 -16v-101l-16 -50l162 141v10l-46 16l9 43h161l9 -43l-46 -16v-211l45 -17l-9 -42h-160l-9 42l46 17v100l16 52z" />
    <glyph glyph-name="s_t_ord" horiz-adv-x="645" 
d="M485 719v-75h93l-9 -42h-84v-204c0 -24 17 -38 30 -38c18 0 41 13 60 33l30 -37c-27 -28 -57 -47 -101 -47c-71 0 -108 41 -108 95v198h-40l-7 38l53 16l30 75zM160 309c-31 0 -82 9 -122 29v83l47 9l24 -70c12 -4 36 -7 45 -7c35 0 65 12 65 38c0 23 -38 42 -70 57
c-46 22 -109 51 -109 113c0 59 55 91 139 91c39 0 78 -11 108 -30v-67l-47 -8l-15 54c-17 4 -36 7 -53 7c-28 0 -51 -16 -51 -37c0 -27 56 -43 91 -60c49 -24 88 -46 88 -100c0 -62 -55 -102 -140 -102zM30 215h585v-67h-585v67z" />
    <glyph glyph-name="n_d_ord" horiz-adv-x="838" 
d="M211 601c-19 0 -44 -7 -62 -13v-215l45 -15l-8 -43h-162l-8 43l44 15v228h-32l-7 44l90 7l29 -19c23 9 58 19 88 19c82 0 135 -43 135 -119v-160l43 -15l-9 -43h-160l-8 43l44 15v171c0 37 -32 57 -62 57zM678 381v207c-16 7 -40 13 -57 13c-56 0 -88 -43 -88 -117
s35 -125 85 -125c20 0 43 6 60 22zM707 315l-21 16c-14 -13 -46 -24 -73 -24c-113 0 -175 65 -175 170s74 175 179 175c18 0 42 -3 61 -8v147h-38l-8 40l93 11l41 -11v-458l46 -15l-9 -43h-96zM6 215h816v-67h-816v67z" />
    <glyph glyph-name="r_d_ord" horiz-adv-x="783" 
d="M609 381v207c-16 7 -40 13 -57 13c-56 0 -88 -43 -88 -117s35 -125 85 -125c20 0 43 6 60 22zM638 315l-21 16c-14 -13 -46 -24 -73 -24c-113 0 -175 65 -175 170s74 175 179 175c18 0 42 -3 61 -8v147h-38l-8 40l93 11l41 -11v-458l46 -15l-9 -43h-96zM30 215h723v-67
h-723v67zM328 555l-48 -9l-16 52c-5 2 -18 3 -28 3c-14 0 -43 -6 -63 -14v-213l58 -16l-8 -43h-175l-8 43l44 16v227h-32l-8 43l91 8l29 -18c22 7 59 18 91 18c22 0 46 -5 73 -16v-81z" />
    <glyph glyph-name="e_r_ord" horiz-adv-x="747" 
d="M138 523h143c2 7 3 14 3 20c0 42 -28 65 -65 65c-46 0 -75 -35 -81 -85zM235 360c35 0 72 9 108 32l23 -35c-45 -37 -89 -48 -135 -48c-133 0 -191 68 -191 172c0 107 79 171 179 171c84 0 153 -45 153 -114c0 -19 -7 -44 -15 -59h-221c1 -70 38 -119 99 -119zM707 555
l-48 -9l-16 52c-5 2 -18 3 -28 3c-14 0 -43 -6 -63 -14v-213l58 -16l-8 -43h-175l-8 43l44 16v227h-32l-8 43l91 8l29 -18c22 7 59 18 91 18c22 0 46 -5 73 -16v-81zM30 215h687v-67h-687v67z" />
    <glyph glyph-name="e_r_e_ord" horiz-adv-x="1117" 
d="M138 523h143c2 7 3 14 3 20c0 42 -28 65 -65 65c-46 0 -75 -35 -81 -85zM235 360c35 0 72 9 108 32l23 -35c-45 -37 -89 -48 -135 -48c-133 0 -191 68 -191 172c0 107 79 171 179 171c84 0 153 -45 153 -114c0 -19 -7 -44 -15 -59h-221c1 -70 38 -119 99 -119zM707 555
l-48 -9l-16 52c-5 2 -18 3 -28 3c-14 0 -43 -6 -63 -14v-213l58 -16l-8 -43h-175l-8 43l44 16v227h-32l-8 43l91 8l29 -18c22 7 59 18 91 18c22 0 46 -5 73 -16v-81zM30 215h1057v-67h-1057v67zM843 523h143c2 7 3 14 3 20c0 42 -28 65 -65 65c-46 0 -75 -35 -81 -85z
M940 360c35 0 72 9 108 32l23 -35c-45 -37 -89 -48 -135 -48c-133 0 -191 68 -191 172c0 107 79 171 179 171c84 0 153 -45 153 -114c0 -19 -7 -44 -15 -59h-221c1 -70 38 -119 99 -119z" />
    <glyph glyph-name="e_m_ord" horiz-adv-x="1046" 
d="M138 523h143c2 7 3 14 3 20c0 42 -28 65 -65 65c-46 0 -75 -35 -81 -85zM235 360c35 0 72 9 108 32l23 -35c-45 -37 -89 -48 -135 -48c-133 0 -191 68 -191 172c0 107 79 171 179 171c84 0 153 -45 153 -114c0 -19 -7 -44 -15 -59h-221c1 -70 38 -119 99 -119zM30 215
h986v-67h-986v67zM756 534v-160l45 -16l-8 -43h-161l-9 43l45 16v172c0 36 -29 55 -56 55c-18 0 -43 -8 -61 -14v-213l44 -16l-8 -43h-161l-8 43l44 16v227h-32l-7 43l88 8l28 -18c24 8 59 18 88 18c39 0 72 -7 93 -26c23 13 65 26 100 26c92 0 141 -42 141 -119v-159
l45 -16l-9 -43h-160l-9 43l45 16v165c0 42 -35 62 -65 62c-26 0 -49 -8 -62 -14c7 -17 10 -32 10 -53z" />
    <glyph glyph-name="e_m_e_ord" horiz-adv-x="1392" 
d="M1118 523h143c2 7 3 14 3 20c0 42 -28 65 -65 65c-46 0 -75 -35 -81 -85zM1215 360c35 0 72 9 108 32l23 -35c-45 -37 -89 -48 -135 -48c-133 0 -191 68 -191 172c0 107 79 171 179 171c84 0 153 -45 153 -114c0 -19 -7 -44 -15 -59h-221c1 -70 38 -119 99 -119zM30 215
h1332v-67h-1332v67zM756 534v-160l45 -16l-8 -43h-161l-9 43l45 16v172c0 36 -29 55 -56 55c-18 0 -43 -8 -61 -14v-213l44 -16l-8 -43h-161l-8 43l44 16v227h-32l-7 43l88 8l28 -18c24 8 59 18 88 18c39 0 72 -7 93 -26c23 13 65 26 100 26c92 0 141 -42 141 -119v-159
l45 -16l-9 -43h-160l-9 43l45 16v165c0 42 -35 62 -65 62c-26 0 -49 -8 -62 -14c7 -17 10 -32 10 -53zM138 523h143c2 7 3 14 3 20c0 42 -28 65 -65 65c-46 0 -75 -35 -81 -85zM235 360c35 0 72 9 108 32l23 -35c-45 -37 -89 -48 -135 -48c-133 0 -191 68 -191 172
c0 107 79 171 179 171c84 0 153 -45 153 -114c0 -19 -7 -44 -15 -59h-221c1 -70 38 -119 99 -119z" />
    <glyph glyph-name="t_h_ord" horiz-adv-x="754" 
d="M174 644v75l-53 12l-30 -75l-53 -16l7 -38h40v-198c0 -54 37 -95 108 -95c44 0 74 19 101 47l-30 37c-19 -20 -42 -33 -60 -33c-13 0 -30 14 -30 38v204h84l9 42h-93zM30 215h694v-67h-694v67zM467 373l45 -15l-9 -43h-159l-9 43l44 15v417h-39l-8 40l94 11l41 -11v-197
c20 9 57 19 80 19c79 0 132 -36 132 -112v-167l45 -15l-9 -43h-161l-8 43l45 15v176c0 37 -23 51 -49 51c-24 0 -56 -6 -75 -14v-213z" />
    <glyph glyph-name="A" unicode="A" horiz-adv-x="761" 
d="M332 700l109 17l224 -614l88 -32l-11 -71h-291l-11 71l79 32l-45 120h-234l-48 -120l94 -31l-10 -72h-250l-11 71l87 32zM445 301l-63 170v114l-112 -284h175z" />
    <glyph glyph-name="heart" unicode="&#x2665;" horiz-adv-x="714" 
d="M357 45c0 0 -302 129 -302 380c0 174 159 174 159 174c85 0 143 -69 143 -69s60 69 143 69c0 0 159 0 159 -174c0 -251 -302 -380 -302 -380z" />
    <glyph glyph-name="arrowleft" unicode="&#x2190;" horiz-adv-x="863" 
d="M390 73l-298 171l-10 47l307 183l36 -47l-179 -155l178 -152zM356 310h446v-82h-446v82z" />
    <glyph glyph-name="arrowup" unicode="&#x2191;" horiz-adv-x="443" 
d="M26 412l171 298l47 10l183 -307l-47 -36l-155 179l-152 -178zM263 446v-446h-82v446h82z" />
    <glyph glyph-name="arrowright" unicode="&#x2192;" horiz-adv-x="863" 
d="M771 244l-298 -171l-34 47l178 152l-179 155l36 47l307 -183zM61 310h446v-82h-446v82z" />
    <glyph glyph-name="arrowdown" unicode="&#x2193;" horiz-adv-x="443" 
d="M197 10l-171 298l47 34l152 -178l155 179l47 -36l-183 -307zM263 720v-446h-82v446h82z" />
    <glyph glyph-name="information" unicode="&#xe389;" horiz-adv-x="839" 
d="M55 352c0 202 163 365 363 365c202 0 366 -163 366 -365c0 -200 -167 -362 -369 -362c-200 0 -360 162 -360 362zM146 352c0 -160 109 -280 269 -280c163 0 278 120 278 280c0 164 -112 283 -275 283c-160 0 -272 -119 -272 -283zM507 155l-45 16v272l-43 8l-87 -8l8 -43
h33v-229l-46 -16l9 -43h163zM412 606c-25 0 -46 -21 -46 -46s21 -46 46 -46s46 21 46 46s-21 46 -46 46z" />
    <glyph glyph-name="published" unicode="&#x2117;" horiz-adv-x="839" 
d="M55 352c0 202 163 365 363 365c202 0 366 -163 366 -365c0 -200 -167 -362 -369 -362c-200 0 -360 162 -360 362zM146 352c0 -160 109 -280 269 -280c163 0 278 120 278 280c0 164 -112 283 -275 283c-160 0 -272 -119 -272 -283zM398 518v-315l68 -18l-6 -43h-188l-6 43
l50 18v296l-52 19l8 43h197c89 0 136 -53 136 -133c0 -97 -74 -128 -158 -128h-24v46h26c46 0 75 41 75 82c0 50 -20 90 -74 90h-52z" />
    <glyph glyph-name="L_A" horiz-adv-x="1180" 
d="M751 699l109 18l225 -615l87 -31l-11 -71h-291l-11 71l79 31l-45 121h-326zM864 301l-63 170v114l-110 -284h173zM45 700h286l11 -71l-85 -33v-525h177l87 32l32 84h95l-72 -187h-531l-10 71l84 31v494l-84 33z" />
    <glyph glyph-name="f_i" unicode="&#xfb01;" horiz-adv-x="709" 
d="M473 632l1 13c-26 30 -64 39 -108 39c-81 0 -138 -74 -138 -165v-52h377v-384l64 -22l-12 -61h-230l-12 61l64 22v323h-251v-323l84 -22l-12 -61h-250l-12 61l64 22v323h-72l-10 55l82 24v15c0 114 70 247 269 247c97 0 232 -27 232 -115c0 -35 -29 -65 -65 -65
c-35 0 -65 30 -65 65z" />
    <glyph glyph-name="f_j" unicode="&#xe1f8;" horiz-adv-x="680" 
d="M473 632l1 13c-31 32 -69 39 -108 39c-81 0 -138 -74 -138 -165v-52h377v-387c0 -136 -38 -264 -238 -330l-34 57c134 88 146 182 146 289v310h-251v-323l84 -22l-12 -61h-250l-12 61l64 22v323h-72l-10 55l82 24v15c0 114 70 247 269 247c97 0 232 -27 232 -115
c0 -35 -29 -65 -65 -65c-35 0 -65 30 -65 65z" />
    <glyph glyph-name="f_l" unicode="&#xfb02;" horiz-adv-x="759" 
d="M650 83l69 -22l-12 -61h-240l-12 61l69 22v558c-38 29 -91 43 -147 43c-67 0 -149 -43 -149 -160v-57h116l-11 -61h-105v-323l94 -22l-12 -61h-260l-12 61l64 22v323h-72l-10 55l82 24v24c0 121 92 238 279 238c92 0 163 -12 269 -48v-616z" />
    <glyph glyph-name="f_f_i" unicode="&#xfb03;" horiz-adv-x="1116" 
d="M509 467v33c0 114 70 247 269 247c97 0 232 -27 232 -115c0 -35 -29 -65 -65 -65c-35 0 -65 30 -65 65l1 13c-26 30 -64 39 -108 39c-81 0 -138 -74 -138 -165v-52h377v-384l64 -22l-12 -61h-230l-12 61l64 22v323h-251v-323l84 -22l-12 -61h-250l-12 61l64 22v323h-281
v-323l94 -22l-12 -61h-260l-12 61l64 22v323h-72l-10 55l82 24v65c0 114 82 197 209 197c53 0 92 -14 137 -48v-94l-67 -13l-22 83c-10 5 -31 9 -44 9c-44 0 -87 -24 -87 -115v-102h281z" />
    <glyph glyph-name="f_k" horiz-adv-x="1001" 
d="M639 83l63 -22l-12 -61h-229l-12 61l64 22v558c-38 29 -82 43 -138 43c-67 0 -147 -43 -147 -160v-57h116l-11 -61h-105v-323l94 -22l-12 -61h-260l-12 61l64 22v323h-72l-10 55l82 24v24c0 121 116 238 277 238c92 0 155 -12 260 -48v-616zM964 467h-202l-14 -61l50 -22
l-128 -123v-39l124 -171l-10 -51h195l12 61l-73 22l-106 150l-60 13l119 113c20 20 53 37 105 47z" />
    <glyph glyph-name="t_t" horiz-adv-x="738" 
d="M203 573v-106h239l50 123l75 -17v-106h132l-12 -61h-120v-289c0 -34 25 -55 43 -55c25 0 58 19 85 48l43 -53c-39 -40 -81 -67 -144 -67c-100 0 -153 59 -153 135v281h-238v-289c0 -34 25 -55 43 -55c25 0 58 19 85 48l43 -53c-39 -40 -81 -67 -144 -67
c-100 0 -153 59 -153 135v281h-57l-10 55l75 23l43 106z" />
    <glyph glyph-name="s_k" horiz-adv-x="1048" 
d="M394 436v-96l-68 -12l-21 77c-24 6 -51 10 -75 10c-40 0 -73 -22 -73 -52c0 -39 80 -62 130 -86c69 -33 125 -65 125 -142c0 -88 -78 -145 -199 -145c-44 0 -116 13 -173 41v118l67 13l34 -99c16 -6 51 -10 64 -10c49 0 92 17 92 54c0 32 -54 60 -99 81
c-66 31 -156 73 -156 160c0 85 78 130 198 130c13 0 27 -1 40 -3l-57 42c-9 19 -14 40 -14 63c0 94 68 167 207 167c92 0 165 -12 270 -48v-616l63 -22l-12 -61h-229l-12 61l64 22v558c-38 29 -92 43 -148 43c-64 0 -133 -24 -133 -102c0 -55 65 -114 115 -146zM809 467h202
l12 -61c-52 -10 -85 -27 -105 -47l-119 -113l60 -13l106 -150l73 -22l-12 -61h-195l10 51l-124 171v39l128 123l-50 22z" />
    </font>
</defs>
</svg>
