<?xml version="1.0" standalone="no"?>
<!DOCTYPE svg PUBLIC "-//W3C//DTD SVG 1.1//EN" "http://www.w3.org/Graphics/SVG/1.1/DTD/svg11.dtd" >
<svg xmlns="http://www.w3.org/2000/svg">
<metadata></metadata>
<defs>
<font id="martaitalic" horiz-adv-x="1611" >
<font-face units-per-em="2048" ascent="1536" descent="-512" />
<missing-glyph horiz-adv-x="512" />
<glyph horiz-adv-x="2048" />
<glyph horiz-adv-x="2048" />
<glyph unicode="&#xd;" horiz-adv-x="2048" />
<glyph unicode=" "  horiz-adv-x="512" />
<glyph unicode="&#x09;" horiz-adv-x="512" />
<glyph unicode="&#xa0;" horiz-adv-x="512" />
<glyph unicode="!" horiz-adv-x="487" d="M164 1434l162 34l80 -34l-74 -1092h-94zM174 76q0 -46 32.5 -78.5t78.5 -32.5t78 32.5t32 78.5t-32 78t-78 32t-78.5 -32t-32.5 -78z" />
<glyph unicode="&#x22;" horiz-adv-x="643" d="M59 1434l138 34l57 -34l-70 -570h-57zM389 1434l137 34l58 -34l-70 -570h-57z" />
<glyph unicode="#" horiz-adv-x="1255" d="M55 0l185 475h-148v94h184l125 318h-247v92h282l178 455h97l18 -19l-170 -436h348l178 455h97l18 -19l-170 -436h154v-92h-191l-123 -318h252v-94h-288l-193 -498h-90l-25 23l185 475h-349l-192 -498h-90zM399 569h349l124 318h-350z" />
<glyph unicode="$" horiz-adv-x="1124" d="M178 971q0 90 33 160.5t90.5 114.5t133 66.5t163.5 22.5q40 0 78 -6l31 139h94l-35 -157q89 -25 190 -84v-252l-77 -12l-86 229q-26 10 -48 16l-102 -473q157 -71 221 -117q151 -108 152 -266q0 -180 -111.5 -277.5t-347.5 -97.5q-17 0 -74 5l-37 -172h-96l39 186 q-121 27 -205 90v262l78 14l92 -241q30 -10 60 -19l104 488q-8 4 -22 11.5t-17 8.5q-44 22 -70 36t-67 39.5t-65.5 51.5t-49.5 60.5t-37 78.5t-12 95zM367 1016q0 -76 46.5 -132t143.5 -108l96 449q-18 2 -57 2q-118 0 -173.5 -57t-55.5 -154zM506 88q14 -2 41 -2 q282 0 282 201q0 50 -17 90.5t-51.5 72.5t-69.5 53.5t-87 47.5z" />
<glyph unicode="%" horiz-adv-x="1720" d="M80 1065q0 87 18.5 158t57 127t104.5 87t156 31q89 0 154.5 -32t102.5 -89t54.5 -127t17.5 -155q0 -420 -329 -420q-336 0 -336 420zM246 1071q0 -358 170 -358q48 0 81 27t50.5 77.5t25 111.5t7.5 142t-6.5 137t-24 102t-50.5 68.5t-83 22.5t-84 -23t-52.5 -68.5 t-26 -102.5t-7.5 -136zM295 -35l1096 1503h104l-1094 -1503h-106zM975 385q0 87 18.5 158t57 127t104.5 87t156 31q89 0 154.5 -32t102.5 -89t54.5 -127t17.5 -155q0 -420 -329 -420q-336 0 -336 420zM1141 391q0 -358 170 -358q48 0 81 27t50.5 77.5t25 111.5t7.5 142 t-6.5 137t-24 102t-50.5 68.5t-83 22.5t-84 -23t-52.5 -68.5t-26 -102.5t-7.5 -136z" />
<glyph unicode="&#x26;" horiz-adv-x="1333" d="M102 362q0 143 80 252.5t211 124.5v21q-90 30 -144 101t-54 171q0 135 110.5 222t292.5 87q101 0 182 -29t172 -93v-189l-84 -16l-55 170q-83 57 -186 57q-98 0 -167 -55t-69 -162q0 -89 73.5 -162.5t162.5 -73.5h24v-86h-63q-124 0 -202.5 -87.5t-78.5 -215.5 q0 -126 87.5 -213.5t213.5 -87.5q82 0 148.5 31.5t107 84t62 115.5t22.5 130v57q-40 -6 -57 -9.5t-51.5 -11t-52 -16.5t-40.5 -23t-37 -33t-22 -44q-7 2 -22 5t-23 5q10 77 46 131.5t85 83t106 47.5t114 30.5t104.5 26t80.5 41t40 68.5l51 -16q-14 -116 -69.5 -174.5 t-143.5 -85.5v-82q0 -41 -5.5 -83t-19.5 -90.5t-36 -91.5t-58.5 -83.5t-82.5 -69.5t-112 -46.5t-145 -17.5q-253 0 -374.5 102.5t-121.5 282.5z" />
<glyph unicode="'" horiz-adv-x="395" d="M100 1434l138 34l57 -34l-70 -570h-57z" />
<glyph unicode="(" horiz-adv-x="788" d="M123 569q0 97 10.5 194.5t34 197t57.5 188.5t85 167t114 135t146 89.5t178 32.5v-96q-111 0 -194 -74.5t-130.5 -203.5t-70.5 -284t-23 -335q0 -143 13 -278t44.5 -264.5t78.5 -225.5t119.5 -154.5t162.5 -58.5v-97q-102 0 -188.5 36.5t-149.5 98t-113 147t-82 180.5 t-53.5 201.5t-30 205.5t-8.5 198z" />
<glyph unicode=")" horiz-adv-x="788" d="M41 -401q90 0 162.5 58.5t119.5 154.5t78.5 225.5t44.5 264.5t13 278q0 180 -23 335t-70.5 284t-130.5 203.5t-194 74.5v96q95 0 178 -32.5t146 -89.5t114 -135t85 -167t57.5 -188.5t34 -197t10.5 -194.5q0 -99 -8.5 -198t-30 -205.5t-53.5 -201.5t-82 -180.5t-113 -147 t-149.5 -98t-188.5 -36.5v97z" />
<glyph unicode="*" horiz-adv-x="980" d="M102 1085q0 13 5 76t6 66q47 41 51 45q101 -119 248 -172q2 -19 10 -68q-50 -4 -72 -4q-125 0 -248 57zM197 805q149 70 233 194l68 -6q-25 -162 -136 -297q-14 4 -73 24t-60 23q-1 0 -8 14t-14.5 30t-9.5 18zM375 1368q0 2 4 64q126 36 137 36q53 -30 59 -32 q-79 -140 -79 -291q-10 -5 -60 -35q-61 128 -61 258zM516 1124q117 120 281 162q9 -11 45.5 -61.5t36.5 -53.5q-9 -61 -11 -67q-65 10 -112 10q-94 0 -189 -33zM524 989q10 18 31 60q144 -80 229 -230q-8 -11 -47 -60t-43 -50q-59 -7 -67 -7q-11 156 -103 287z" />
<glyph unicode="+" horiz-adv-x="1273" d="M123 502l16 110h443v457h114v-457h455l-18 -110h-437v-461h-114v461h-459z" />
<glyph unicode="," horiz-adv-x="489" d="M82 -330q68 53 115 150t47 180h-49q-29 32 -29 76q0 46 32 78t78 32t78.5 -32t32.5 -78q0 -92 -45.5 -188.5t-103.5 -161t-113 -97.5z" />
<glyph unicode="-" horiz-adv-x="831" d="M102 502l17 112h610l-16 -112h-611z" />
<glyph unicode="." horiz-adv-x="407" d="M82 76q0 45 33 77.5t78 32.5q46 0 79 -32t33 -78t-33 -78.5t-79 -32.5q-45 0 -78 33t-33 78z" />
<glyph unicode="/" horiz-adv-x="993" d="M-25 -244l922 1835h96l19 -18l-922 -1839h-90z" />
<glyph unicode="0" horiz-adv-x="1284" d="M135 662q0 87 12.5 168.5t37.5 158.5t66.5 140.5t96.5 111t131.5 74t167.5 26.5q90 0 165.5 -27.5t129 -76.5t94 -113t64.5 -141.5t35.5 -157t11.5 -163.5q0 -104 -13.5 -197t-49 -184.5t-90.5 -157t-144 -106t-203 -40.5q-115 0 -204.5 39t-146.5 103.5t-94 155 t-52 185.5t-15 202zM365 670q0 -116 16.5 -222t49.5 -195t88.5 -141.5t127.5 -52.5t126.5 52t85.5 141t46 194t15 224q0 120 -14 221t-44.5 186.5t-85 134t-129.5 48.5t-131 -49t-88 -134t-47.5 -187t-15.5 -220z" />
<glyph unicode="1" horiz-adv-x="837" d="M92 1239l357 80h100v-1196l229 -43l-16 -80h-643l-15 80l238 43v1034h-233z" />
<glyph unicode="2" horiz-adv-x="1083" d="M147 0v78q0 82 31.5 158t82.5 136t112 117.5t122 114t112 114t82.5 128.5t31.5 147q0 108 -55.5 177t-133.5 69q-94 0 -182 -43l-59 -182l-80 16v234q161 77 328 77q190 0 292.5 -99.5t102.5 -246.5q0 -89 -33 -170t-87 -143t-119.5 -119t-133.5 -107.5t-126 -97 t-100.5 -99t-53.5 -103.5h501l47 147l80 -16v-287h-762z" />
<glyph unicode="3" horiz-adv-x="1097" d="M131 104l49 74q155 -98 303 -98q115 0 199 91.5t84 225.5q0 132 -85.5 207.5t-244.5 75.5l-82 -16l-39 55l449 479l-131 -37h-322l-47 -147l-80 16v289h701l35 -80l-453 -471l106 23q55 0 110 -14.5t107.5 -46t93 -76.5t65 -110t24.5 -141q0 -126 -63 -224t-171 -150 t-243 -52q-223 0 -365 127z" />
<glyph unicode="4" horiz-adv-x="1083" d="M27 444l657 897l82 -22v-862h195l-19 -80h-176v-254l227 -43l-16 -80h-637l-14 80l235 43v254h-485zM147 457h414v450l35 168z" />
<glyph unicode="5" horiz-adv-x="1040" d="M59 104l50 74q155 -98 301 -98q117 0 200.5 90.5t83.5 232.5q0 89 -28 159.5t-89 115t-147 45.5q-51 0 -94.5 -16.5t-99.5 -47.5l-76 31l84 629h493l47 147l80 -16v-289h-551l-49 -391q110 55 238 55q68 0 137.5 -28.5t128.5 -79.5t96 -131.5t37 -175.5 q0 -198 -135 -315.5t-344 -117.5q-224 0 -363 127z" />
<glyph unicode="6" horiz-adv-x="1089" d="M98 485q0 138 40 261.5t106.5 216.5t157.5 169.5t189 126.5t206 82l43 -79q-64 -32 -108.5 -56.5t-105 -65.5t-102 -81.5t-86 -100.5t-71.5 -126t-44.5 -155t-17.5 -190q0 -115 24.5 -204.5t80.5 -146t137 -56.5q60 0 106.5 32.5t73.5 86.5t40 116t13 129 q0 144 -49 221.5t-129 77.5q-77 0 -147 -32l-27 67q43 28 104 48t105 20q142 0 246 -114.5t104 -291.5q0 -118 -53 -223t-155.5 -172.5t-231.5 -67.5q-197 0 -323 144t-126 364z" />
<glyph unicode="7" horiz-adv-x="958" d="M133 1030v289h760l35 -80l-535 -1159v-80h-166l527 1161h-494l-47 -147z" />
<glyph unicode="8" horiz-adv-x="1099" d="M129 311q0 155 148 272q41 32 143 95q-118 65 -185 158t-67 202q0 130 102.5 216.5t280.5 86.5q179 0 280 -83t101 -201q0 -53 -23 -101t-68 -90t-79.5 -67t-89.5 -60q51 -31 84 -53.5t78.5 -63t71.5 -80t45.5 -97.5t19.5 -123q0 -107 -60.5 -187.5t-154.5 -119 t-205 -38.5q-112 0 -206 36.5t-155 114t-61 183.5zM324 311q0 -112 61 -171.5t166 -59.5q102 0 164.5 62.5t62.5 166.5q0 168 -280 324q-86 -54 -130 -130t-44 -192zM362 1044q0 -78 56.5 -136.5t150.5 -110.5l27 -15q143 90 143 262q0 96 -52 145.5t-136 49.5 q-82 0 -135.5 -47.5t-53.5 -147.5z" />
<glyph unicode="9" horiz-adv-x="1071" d="M94 891q0 118 53.5 220t156 166t231.5 64q201 0 323.5 -122.5t122.5 -337.5q0 -135 -57 -280t-149 -266t-209 -216.5t-234 -141.5l-43 76q94 46 181.5 129.5t155.5 190.5t109 239.5t41 266.5q0 171 -59.5 265.5t-181.5 94.5q-80 0 -134.5 -54t-77 -131t-22.5 -169 q0 -140 54.5 -218.5t136.5 -80.5q77 0 147 32l27 -67q-43 -28 -104 -48t-105 -20q-69 0 -134.5 30t-116 82t-81.5 129.5t-31 166.5z" />
<glyph unicode=":" horiz-adv-x="428" d="M82 76q0 45 33 77.5t78 32.5q46 0 79 -32t33 -78t-33 -78.5t-79 -32.5q-45 0 -78 33t-33 78zM82 868q0 45 33 78t78 33q46 0 79 -32.5t33 -78.5t-33 -78t-79 -32q-45 0 -78 32.5t-33 77.5z" />
<glyph unicode=";" horiz-adv-x="509" d="M82 -330q68 53 115 150t47 180h-49q-29 32 -29 76q0 46 32 78t78 32t78.5 -32t32.5 -78q0 -92 -45.5 -188.5t-103.5 -161t-113 -97.5zM164 868q0 46 33 78.5t77 32.5q46 0 79.5 -32.5t33.5 -78.5q0 -45 -33.5 -77.5t-79.5 -32.5q-45 0 -77.5 32.5t-32.5 77.5z" />
<glyph unicode="&#x3c;" horiz-adv-x="1212" d="M184 657l807 414l37 -59l-612 -398l612 -395l-37 -61l-780 387z" />
<glyph unicode="=" horiz-adv-x="1292" d="M164 377l16 102h948l-16 -102h-948zM164 727l16 102h948l-16 -102h-948z" />
<glyph unicode="&#x3e;" horiz-adv-x="1212" d="M184 219l613 395l-613 398l37 59l807 -414l-27 -112l-780 -387z" />
<glyph unicode="?" horiz-adv-x="913" d="M102 1180v168q123 120 285 120q172 0 277.5 -86t105.5 -239q0 -237 -197 -363q-101 -65 -146.5 -128.5t-45.5 -147.5q0 -56 20 -162h-92q-59 136 -59 264q0 100 52.5 185t150.5 143q49 29 81.5 61t48 66.5t21.5 65.5t6 69q0 88 -62.5 142.5t-156.5 54.5q-90 0 -172 -70 l-49 -158zM266 76q0 -46 32.5 -78.5t78.5 -32.5t78 32.5t32 78.5t-32 78t-78 32t-78.5 -32t-32.5 -78z" />
<glyph unicode="@" horiz-adv-x="2039" d="M184 551q0 205 67.5 372.5t186.5 278.5t282.5 171.5t354.5 60.5q129 0 247 -34t214.5 -99.5t168 -156.5t111 -212t39.5 -258q0 -266 -136.5 -425t-360.5 -159q-171 0 -221 141q-59 -44 -111.5 -64t-136.5 -20q-114 0 -192.5 92t-78.5 253q0 117 35 212t94 154t133 90 t156 31q91 0 154 -18l82 18l88 -18l-62 -670q0 -58 21 -83.5t82 -25.5q64 0 121.5 28.5t105.5 85.5t76.5 153.5t28.5 220.5q0 203 -85.5 356t-232.5 233t-334 80q-185 0 -333 -61t-243.5 -167.5t-146.5 -249.5t-51 -310q0 -146 43.5 -268t114.5 -203.5t164 -138t190 -82 t195 -25.5q288 0 463 94l28 -65q-123 -69 -241.5 -96t-264.5 -27q-177 0 -329 60.5t-258.5 166.5t-167 257t-60.5 327zM801 510q0 -137 49 -208t111 -71q53 0 99 24.5t73 72.5l51 559q-69 39 -140 39q-44 0 -84.5 -22.5t-77.5 -69t-59 -130.5t-22 -194z" />
<glyph unicode="A" horiz-adv-x="1511" d="M31 86l176 68l473 1280l178 34l461 -1314l176 -68l-16 -86h-557l-15 86l176 68l-114 329h-537l-117 -329l211 -68l-14 -86h-467zM465 569h473l-207 602v105z" />
<glyph unicode="B" horiz-adv-x="1384" d="M72 1348l14 86h702q150 0 251.5 -94.5t101.5 -229.5q0 -114 -71.5 -202t-180.5 -113v-9q163 0 278 -115t115 -278q0 -167 -126.5 -280t-334.5 -113h-731l-16 86l176 68v1126zM467 86h295q122 0 201 96t79 234q0 137 -93.5 235.5t-233.5 98.5h-142v86h72q106 0 181 75 t75 181q0 115 -65.5 185.5t-206.5 70.5h-162v-1262z" />
<glyph unicode="C" horiz-adv-x="1273" d="M61 717q0 116 27.5 224t86 204t143 167.5t206 113.5t267.5 42q55 0 107.5 -4t117.5 -19t112.5 -39t80 -67.5t32.5 -101.5q0 -73 -52.5 -117.5t-129.5 -44.5l-64 268q-125 25 -204 25q-247 0 -367.5 -157t-120.5 -484q0 -103 11.5 -188.5t44 -172.5t85 -146t141 -96.5 t206.5 -37.5q79 0 191.5 21t191.5 69l67 -90q-76 -55 -199 -88t-251 -33q-155 0 -280 42t-207.5 113t-138 168.5t-80 204.5t-24.5 224z" />
<glyph unicode="D" horiz-adv-x="1454" d="M72 1348l14 86h559q150 0 274 -35.5t211 -99t147 -152t88 -194t28 -226.5q0 -152 -46.5 -281.5t-137 -230t-237 -158t-333.5 -57.5h-551l-14 86l176 68v1126zM467 86h178q127 0 225.5 51.5t159.5 141t92 204.5t31 248t-31 243.5t-92 195t-159.5 131.5t-225.5 47h-178 v-1262z" />
<glyph unicode="E" horiz-adv-x="1189" d="M72 1348l16 86h993v-308l-86 -16l-86 238h-442v-543h250l63 172l86 -14v-404l-86 -14l-63 172h-250v-631h453l112 307l86 -14v-379h-1028l-14 86l174 68v1126z" />
<glyph unicode="F" horiz-adv-x="1107" d="M72 1348l14 86h971v-308l-86 -16l-86 238h-418v-543h266l68 172l84 -14v-404l-84 -14l-68 172h-266v-563l178 -68l-14 -86h-541l-16 86l176 68v1126z" />
<glyph unicode="G" horiz-adv-x="1501" d="M72 717q0 210 90.5 380t262.5 270.5t396 100.5q45 0 89.5 -3t101 -11.5t104 -25t88.5 -41t64.5 -63t23.5 -87.5q0 -73 -52.5 -117.5t-129.5 -44.5l-63 268q-125 25 -226 25q-109 0 -196 -35t-145 -94.5t-96.5 -142.5t-55.5 -174.5t-17 -194.5q0 -101 13.5 -188.5t49 -173 t91 -145.5t146 -97t208.5 -37q112 0 234 29v403l-176 70l14 86h543l16 -86l-178 -70v-432q-76 -55 -200 -88t-251 -33q-155 0 -282 42t-212.5 113.5t-143.5 168.5t-84.5 204t-26.5 224z" />
<glyph unicode="H" horiz-adv-x="1644" d="M82 1348l14 86h545l14 -86l-178 -68v-498h690v498l-178 68l15 86h544l15 -86l-179 -68v-1126l175 -68l-15 -86h-540l-15 86l178 68v542h-690v-542l174 -68l-14 -86h-537l-16 86l176 68v1126z" />
<glyph unicode="I" horiz-adv-x="821" d="M123 86l180 68v1126l-180 68l16 86h543l16 -86l-180 -68v-1126l180 -68l-16 -86h-543z" />
<glyph unicode="J" horiz-adv-x="753" d="M-10 -283q81 54 139.5 121t90.5 130.5t50 143t22.5 142t4.5 145.5v881l-178 68l16 86h541l16 -86l-180 -68v-934q0 -548 -477 -704z" />
<glyph unicode="K" horiz-adv-x="1394" d="M72 88l178 66v1126l-178 70l14 84h545l14 -86l-178 -68v-1126l178 -66l-14 -88h-545zM553 707v86l477 487l-178 70l14 84h453l14 -84l-65 -27q-113 -45 -197 -129l-409 -418l149 -65l373 -555l178 -70l-16 -86h-392l15 86z" />
<glyph unicode="L" horiz-adv-x="1134" d="M72 86l178 68v1126l-178 68l14 86h545l14 -86l-178 -68v-1194h442l119 307l86 -14v-379h-1028z" />
<glyph unicode="M" horiz-adv-x="1947" d="M59 86l177 68l120 1126l-178 68l15 86h370l361 -1061v-150l454 1211h381l17 -86l-179 -68l97 -1126l174 -68l-15 -86h-538l-15 86l175 68l-91 1046l-452 -1200l-101 -35l-401 1188l-106 -999l174 -68l-15 -86h-407z" />
<glyph unicode="N" horiz-adv-x="1476" d="M49 1348l14 86h392l706 -1119v965l-176 68l14 86h408l14 -86l-176 -68v-1280l-121 -35l-811 1286v-1097l174 -68l-14 -86h-405l-17 86l176 68v1126z" />
<glyph unicode="O" d="M123 717q0 115 27 223.5t83 204.5t135.5 168t192.5 113.5t246 41.5q167 0 298 -57.5t214 -159.5t126.5 -237.5t43.5 -296.5q0 -130 -24 -241.5t-76.5 -206.5t-131 -162t-193 -104.5t-257.5 -37.5q-142 0 -258.5 42t-194 113.5t-131 168.5t-77 204t-23.5 224zM365 727 q0 -333 106 -497t336 -164q228 0 335 167.5t107 493.5q0 323 -107.5 482t-334.5 159q-229 0 -335.5 -155.5t-106.5 -485.5z" />
<glyph unicode="P" horiz-adv-x="1234" d="M72 1348l16 86h635q218 0 334.5 -118.5t116.5 -322.5q0 -93 -28.5 -166.5t-76.5 -121t-116.5 -79t-144 -44.5t-163.5 -13h-90v86h96q93 0 165.5 49.5t109.5 126t37 162.5q0 163 -75 259t-233 96h-186v-1194l178 -68l-16 -86h-541l-14 86l176 68v1126z" />
<glyph unicode="Q" d="M123 717q0 115 27 223.5t83 204.5t135.5 168t192.5 113.5t246 41.5q167 0 298 -57.5t214 -159.5t126.5 -237.5t43.5 -296.5q0 -95 -16 -180.5t-64 -186.5t-125.5 -189t-209.5 -178.5t-308 -164.5l6 -15q108 23 172 23q71 0 142 -22t128.5 -44t96.5 -22q69 0 143 47 l35 -29l-184 -174q-56 0 -118 23t-108 50t-111 50t-128 23q-176 0 -377 -86l-45 77q232 117 385 246q-142 1 -257.5 43t-193 113t-130 168t-76 204t-23.5 224zM365 727q0 -333 106 -497t336 -164q198 0 320 175t122 486q0 323 -107.5 482t-334.5 159q-229 0 -335.5 -155.5 t-106.5 -485.5z" />
<glyph unicode="R" horiz-adv-x="1331" d="M72 1348l16 86h645q218 0 328 -103.5t110 -290.5q0 -120 -61.5 -212t-159.5 -138.5t-213 -46.5l107 -53l266 -436l176 -68l-14 -86h-389l16 86l-344 561v86h96q70 0 130 27t99 71t61 98.5t22 110.5q0 144 -74.5 226t-233.5 82h-188v-1194l176 -68l-14 -86h-539l-14 86 l174 68v1126z" />
<glyph unicode="S" horiz-adv-x="1124" d="M102 1100q0 91 36.5 162.5t101 115.5t148 67t181.5 23q31 0 58 -1t69.5 -6t77 -13t72.5 -24t63.5 -37.5t42.5 -55t17 -74.5q0 -73 -53 -117t-130 -44l-63 247q-83 25 -156 25q-131 0 -202.5 -73t-71.5 -181q0 -27 11 -53.5t25.5 -47t42.5 -44t48.5 -38.5t57.5 -36 t55 -30.5t56.5 -28t47.5 -23.5q75 -38 125 -67t106.5 -72.5t89 -87t54.5 -103.5t22 -129q0 -178 -125.5 -283.5t-384.5 -105.5q-40 0 -86 4.5t-107 19.5t-108.5 39t-80.5 68t-33 101q0 141 182 141l63 -248q80 -24 156 -24q154 0 245 63.5t91 179.5q0 43 -21.5 83t-50.5 69 t-79.5 61t-85.5 50t-93 46t-80 39q-127 65 -178 105q-142 110 -155 297q-1 20 -1 41z" />
<glyph unicode="T" horiz-adv-x="1335" d="M82 1069v365h1171v-365l-86 -14l-112 293h-279v-1194l178 -68l-14 -86h-545l-14 86l178 68v1194h-278l-113 -293z" />
<glyph unicode="U" horiz-adv-x="1486" d="M61 1348l15 86h545l14 -86l-178 -68v-664q0 -283 81.5 -406.5t272.5 -123.5q383 0 383 526v668l-180 68l16 86h412l14 -86l-178 -68v-674q0 -153 -28 -269t-73 -185.5t-112 -112.5t-135.5 -58.5t-151.5 -15.5q-90 0 -163.5 15.5t-145.5 58t-120.5 112.5t-78.5 185.5 t-30 269.5v674z" />
<glyph unicode="V" horiz-adv-x="1419" d="M10 1348l17 86h557l16 -86l-178 -68l342 -938v-123l377 1061l-180 68l16 86h416l16 -86l-178 -68l-455 -1280l-106 -35l-480 1315z" />
<glyph unicode="W" horiz-adv-x="2066" d="M8 1346l15 88h552l17 -88l-178 -68l272 -938v-143l367 1237l90 34l327 -1128v-143l322 1081l-178 68l14 88h416l16 -88l-180 -68l-379 -1278l-147 -35l-295 1024v160l-340 -1149l-150 -35l-383 1313z" />
<glyph unicode="X" horiz-adv-x="1374" d="M20 1346l17 88h584l14 -86l-178 -70l274 -430l332 430l-176 70l14 86h438l15 -86l-178 -70l-394 -510l392 -614l176 -68l-17 -86h-581l-15 84l176 70l-274 430l-330 -432l178 -68l-14 -84h-436l-14 84l174 70l393 508l-393 616z" />
<glyph unicode="Y" horiz-adv-x="1349" d="M10 1346l17 88h573l16 -88l-180 -68l277 -496v-133l348 629l-178 68l14 88h426l16 -88l-180 -68l-338 -612v-512l176 -70l-16 -84h-541l-14 84l178 70v374l-416 750z" />
<glyph unicode="Z" horiz-adv-x="1232" d="M61 84l867 1264h-586l-106 -293l-86 14v365h970l72 -86l-868 -1264h669l113 309l86 -16v-377h-1077z" />
<glyph unicode="[" horiz-adv-x="659" d="M143 -496v2069h435v-86h-250v-1897h250v-86h-435z" />
<glyph unicode="\" horiz-adv-x="993" d="M-18 1573l18 18h96l922 -1835l-25 -22h-90z" />
<glyph unicode="]" horiz-adv-x="659" d="M82 -410h250v1897h-250v86h434v-2069h-434v86z" />
<glyph unicode="^" horiz-adv-x="1171" d="M78 924l416 649l155 33l445 -682l-84 -21l-424 524l-424 -524z" />
<glyph unicode="_" horiz-adv-x="1017" d="M0 -287l16 113h1002l-17 -113h-1001z" />
<glyph unicode="`" horiz-adv-x="729" d="M190 1485l183 20l139 -327l-41 -21z" />
<glyph unicode="a" horiz-adv-x="1044" d="M63 428q0 142 36.5 250t101.5 172.5t148 96.5t183 32q117 0 179 -33l120 33l72 -23v-788q0 -45 31.5 -69.5t81.5 -24.5v-74q-47 -23 -113 -23q-61 0 -110.5 37t-69.5 117q-34 -71 -104.5 -112.5t-147.5 -41.5q-79 0 -149 25t-129.5 76t-94.5 141t-35 209zM262 438 q0 -102 19.5 -176t53.5 -113.5t72.5 -57t84.5 -17.5q87 0 153 82t66 243v457q-48 27 -84.5 37t-83.5 10q-41 0 -79.5 -14t-76 -48t-64.5 -86t-44 -133.5t-17 -183.5z" />
<glyph unicode="b" horiz-adv-x="1093" d="M4 1434v73q135 23 205 23q32 0 55 -10t33 -24t15.5 -28t5.5 -24l1 -10v-512l-40 -197q36 111 124.5 182.5t198.5 71.5q187 0 298.5 -121t111.5 -332q0 -249 -123.5 -399t-339.5 -150q-257 0 -422 97v1360h-123zM319 117q81 -43 216 -43q94 0 157 62t90 160t27 226 q0 189 -62 285t-174 96q-41 0 -83.5 -23.5t-81.5 -69.5t-64 -127.5t-25 -184.5v-381z" />
<glyph unicode="c" horiz-adv-x="960" d="M63 477q0 235 142.5 368.5t384.5 133.5q80 0 145.5 -17t109.5 -55.5t44 -93.5q0 -41 -31 -71.5t-74 -30.5l-63 168q-63 24 -125 24q-153 0 -235 -101t-82 -284q0 -78 8.5 -141t30.5 -121t57 -97t91.5 -62t131.5 -23q73 0 135.5 23.5t134.5 68.5l47 -68 q-133 -121 -329 -121q-263 0 -393 132.5t-130 367.5z" />
<glyph unicode="d" horiz-adv-x="1083" d="M72 434q0 154 47.5 275.5t146 195.5t234.5 74q113 0 196.5 -60t118.5 -155l-47 215v455h-123v73q135 23 205 23q32 0 55 -10t33 -24t16 -28t6 -24l1 -10v-1266q0 -45 31 -69.5t81 -24.5v-74q-47 -23 -112 -23q-62 0 -115.5 37.5t-73.5 116.5q-34 -71 -104.5 -112.5 t-147.5 -41.5q-448 0 -448 457zM285 430q0 -184 67.5 -279.5t196.5 -95.5q85 0 152 90.5t67 253.5v125q0 94 -24 167t-62 112.5t-77.5 59.5t-76.5 20q-64 0 -112 -35.5t-76 -99t-41.5 -143t-13.5 -175.5z" />
<glyph unicode="e" horiz-adv-x="1021" d="M72 479q0 232 136 366t355 134q398 0 398 -289q0 -73 -36.5 -127.5t-96.5 -88t-148.5 -54t-179.5 -28t-203 -7.5q23 -145 103.5 -228t215.5 -83q147 0 293 92l47 -68q-65 -59 -157.5 -90t-194.5 -31q-264 0 -398 133.5t-134 368.5zM289 457q204 2 341.5 74t137.5 184 q0 188 -213 188q-128 0 -197 -112.5t-69 -294.5v-39z" />
<glyph unicode="f" horiz-adv-x="761" d="M-147 -420q0 39 29 65.5t69 26.5l49 -94q62 27 102.5 75t60 116t26 133t6.5 153v828h-140l-14 73l154 50v104q0 87 26.5 163t75.5 133.5t124.5 90.5t166.5 33q120 0 183 -36.5t63 -119.5q0 -46 -33.5 -77t-77.5 -31l-57 168q-31 20 -70 20q-96 0 -152.5 -73t-56.5 -230 v-195h248l-14 -73h-234v-883q0 -110 -36 -206.5t-96 -163t-139.5 -104.5t-164.5 -38q-40 0 -69 26.5t-29 65.5z" />
<glyph unicode="g" horiz-adv-x="1083" d="M72 424q0 257 132.5 406t364.5 149q115 0 199 -33l121 33l72 -23v-1065q0 -90 -25.5 -160.5t-68 -115.5t-103 -74t-126 -41t-142.5 -12q-100 0 -182 28.5t-133.5 88t-51.5 141.5q0 72 57.5 131.5t130.5 85.5l41 -61q-44 -24 -70 -64t-26 -80q0 -69 63.5 -122.5 t170.5 -53.5q58 0 103.5 13t85.5 43.5t61.5 89t21.5 141.5v154l41 233q-37 -114 -126 -185t-212 -71q-191 0 -295 103.5t-104 320.5zM285 434q0 -338 229 -338q41 0 83.5 23.5t81.5 70t64 128t25 184.5v362q-123 39 -195 39q-132 0 -210 -121t-78 -348z" />
<glyph unicode="h" horiz-adv-x="1122" d="M20 1434v73q135 23 205 23q32 0 55 -10t33 -24t16 -28t7 -24v-10v-508l-37 -195q34 120 114.5 184t176.5 64q169 0 259.5 -86.5t90.5 -249.5v-475q0 -45 35 -69.5t86 -24.5v-74q-48 -23 -137 -23q-69 0 -122.5 45t-53.5 142v532q0 187 -177 187q-31 0 -60 -8.5t-62 -32.5 t-57 -62.5t-40 -103.5t-16 -150v-526h-193v1434h-123z" />
<glyph unicode="i" horiz-adv-x="569" d="M82 883v73q135 23 205 23q32 0 55 -10t33 -24t15.5 -28t5.5 -24l1 -10v-883h-192v883h-123zM184 1317q0 46 32.5 78t78.5 32q45 0 78 -32.5t33 -77.5t-33 -78t-78 -33q-46 0 -78.5 32.5t-32.5 78.5z" />
<glyph unicode="j" horiz-adv-x="571" d="M-92 -436q69 46 121 95t85 101.5t54.5 102.5t31.5 110.5t13.5 111t3.5 118.5v680h-125v73q135 23 207 23q32 0 55 -10t33 -24t16 -28t7 -24v-10v-715q0 -93 -10.5 -169t-40 -157t-79 -143.5t-132.5 -118t-195 -92.5zM197 1317q0 46 32 78t78 32q45 0 78 -32.5t33 -77.5 t-33 -78t-78 -33q-46 0 -78 32.5t-32 78.5z" />
<glyph unicode="k" horiz-adv-x="1024" d="M31 1434v73q135 23 205 23q32 0 55 -10t33 -24t15.5 -28t6.5 -24v-10v-551l-39 -164q39 114 137.5 187t198.5 73q126 0 184 -53.5t58 -137.5q0 -43 -21.5 -82.5t-56 -67t-76 -51t-82.5 -38t-75.5 -24.5t-55.5 -15l-22 -4l143 -39l246 -350q14 -19 43.5 -30t52.5 -12 l23 -1v-74q-57 -23 -127 -23q-131 0 -197 97l-270 385v73q27 9 59 21t82 37t88.5 52t67 65t28.5 77q0 60 -33 89.5t-88 29.5q-28 0 -61.5 -15t-70.5 -49t-67 -82t-49.5 -121.5t-19.5 -160.5v-475h-192v1434h-123z" />
<glyph unicode="l" horiz-adv-x="600" d="M82 1434v73q135 23 205 23q32 0 55 -10t33 -24t15.5 -28t5.5 -24l1 -10v-1266q0 -45 35 -69.5t86 -24.5v-74q-48 -23 -137 -23q-69 0 -122.5 45t-53.5 142v1270h-123z" />
<glyph unicode="m" horiz-adv-x="1761" d="M72 883v73q135 23 204 23q32 0 55 -10t33 -24t16 -28t6 -24l1 -10v-142q31 110 111.5 174t167.5 64q247 0 292 -234q32 108 116 171t175 63q166 0 243 -97.5t77 -269.5v-444q0 -45 35 -69.5t86 -24.5v-74q-48 -23 -138 -23q-69 0 -122.5 45t-53.5 142v465q0 116 -44 185 t-128 69q-39 0 -77.5 -22.5t-72 -66t-54.5 -117t-21 -165.5v-512h-193v674q0 91 -48.5 150t-121.5 59q-86 0 -157.5 -113.5t-71.5 -314.5v-455h-192v883h-123z" />
<glyph unicode="n" horiz-adv-x="1193" d="M72 883v73q135 23 204 23q32 0 55 -10t33 -24t16 -28t6 -24l1 -10v-142q37 103 125.5 170.5t171.5 67.5q162 0 239.5 -95t77.5 -270v-446q0 -45 35 -69.5t86 -24.5v-74q-48 -23 -137 -23q-69 0 -122.5 45t-53.5 142v502q0 99 -45 158t-121 59q-41 0 -84 -25t-82.5 -74 t-64.5 -135t-25 -194v-455h-192v883h-123z" />
<glyph unicode="o" horiz-adv-x="1126" d="M82 479q0 232 127.5 366t353.5 134q227 0 354 -132t127 -368q0 -241 -120.5 -371.5t-360.5 -130.5q-238 0 -359.5 133t-121.5 369zM281 485q0 -195 76 -313.5t206 -118.5t206.5 118t76.5 314q0 195 -76.5 306.5t-206.5 111.5q-128 0 -205 -113t-77 -305z" />
<glyph unicode="p" horiz-adv-x="1097" d="M4 883v73q135 23 205 23q32 0 55 -13t33 -31.5t15.5 -36.5t5.5 -31l1 -13v-113q38 104 134 171t182 67q381 0 381 -430q0 -151 -69.5 -276.5t-194 -199t-277.5 -73.5h-90v76h86q126 0 227 142t101 345q0 95 -15 160t-44.5 99t-65 47.5t-84.5 13.5q-39 0 -84 -27 t-88 -77.5t-71 -136t-28 -187.5v-777q0 -45 35 -69.5t86 -24.5v-73q-48 -23 -137 -23q-69 0 -122.5 44.5t-53.5 141.5v1209h-123z" />
<glyph unicode="q" horiz-adv-x="1107" d="M82 467q0 233 130 372.5t368 139.5q136 0 198 -33l121 33l72 -23v-1278q0 -45 35 -69.5t86 -24.5v-73q-48 -23 -138 -23q-69 0 -122.5 44.5t-53.5 141.5v326l45 242q-35 -115 -122 -190t-199 -75q-225 0 -322.5 122.5t-97.5 367.5zM301 467q0 -188 57.5 -290.5 t151.5 -102.5q48 0 93.5 24t85.5 72t64.5 132.5t24.5 193.5v360q-48 27 -84.5 37t-83.5 10q-138 0 -223.5 -121t-85.5 -315z" />
<glyph unicode="r" horiz-adv-x="845" d="M82 883v73q135 23 197 23q32 0 55 -13t33 -31.5t15.5 -36.5t5.5 -31l1 -13v-113q38 106 123 172t168 66q74 0 109.5 -34t35.5 -85q0 -46 -33.5 -77t-82.5 -31l-58 131q-39 0 -83 -27t-84.5 -77.5t-67.5 -135.5t-27 -188v-455h-192v883h-115z" />
<glyph unicode="s" horiz-adv-x="851" d="M82 147q0 39 29 66t69 27l49 -140q29 -19 74 -32t78 -13q100 0 162.5 42t62.5 114q0 18 -7 35.5t-16.5 30.5t-29 28t-33 24.5t-41.5 23.5t-41.5 20t-46 20t-43.5 19q-61 28 -100 51t-79.5 58t-60.5 81.5t-20 104.5q0 124 100.5 198t268.5 74q80 0 145.5 -17t109.5 -55.5 t44 -93.5q0 -41 -31 -71.5t-74 -30.5l-63 168q-63 24 -142 24q-89 0 -142.5 -36.5t-53.5 -90.5q0 -26 8.5 -49t28 -43t36 -33.5t48 -29.5t48 -23.5t50.5 -22.5q39 -16 63 -27t59.5 -29.5t57.5 -35t47.5 -40.5t40 -49.5t24 -58.5t9.5 -71q0 -132 -98.5 -209.5t-274.5 -77.5 q-315 0 -315 170z" />
<glyph unicode="t" horiz-adv-x="667" d="M20 956l146 45l86 216l94 -23v-238h268l-14 -73h-254v-658q0 -70 32.5 -110.5t80.5 -40.5q91 0 162 78l47 -56q-58 -62 -110.5 -90.5t-133.5 -28.5q-135 0 -202.5 73t-67.5 192v641h-119z" />
<glyph unicode="u" horiz-adv-x="1116" d="M61 883v73q13 2 51 8.5t73 10.5t65 4q32 0 55 -10t33 -24t15.5 -28t6.5 -24v-10v-580q0 -116 54 -182t147 -66q78 0 144.5 94.5t66.5 256.5v550l121 23l72 -23v-788q0 -45 34.5 -69.5t85.5 -24.5v-74q-47 -23 -112 -23q-63 0 -118 37.5t-75 116.5q-43 -72 -113.5 -113 t-148.5 -41q-169 0 -259.5 92.5t-90.5 274.5v539h-107z" />
<glyph unicode="v" horiz-adv-x="1007" d="M20 883v73q135 23 197 23q32 0 55 -10t33 -24t16 -28t7 -24v-10v-574q0 -129 64.5 -191.5t170.5 -62.5q33 0 67 12t70.5 42t64.5 73.5t46 112.5t18 154q0 122 -33.5 234.5t-101.5 150.5l-55 -82q-47 0 -80 32.5t-33 79.5t33 81t80 34q61 0 112 -39.5t82.5 -97.5t53 -129 t30.5 -131t9 -105q0 -125 -24.5 -217t-63 -145.5t-97 -85t-116 -42t-131.5 -10.5q-162 0 -260.5 101.5t-98.5 249.5v555h-115z" />
<glyph unicode="w" horiz-adv-x="1576" d="M20 883v73q135 23 197 23q32 0 55 -10t33 -24t16 -28t7 -24v-10v-580q0 -116 53.5 -182t146.5 -66q78 0 133.5 77t55.5 239v512h-115v73q135 23 197 23q32 0 55 -10t33 -24t15.5 -28t5.5 -24l1 -10v-578q0 -67 20.5 -117t54 -78t71 -41.5t78.5 -13.5q33 0 67 12t70.5 42 t64.5 73.5t46 112.5t18 154q0 120 -35.5 233.5t-103.5 151.5l-56 -82q-47 0 -79.5 32.5t-32.5 79.5q0 48 32.5 81.5t79.5 33.5q60 0 111 -39t83 -98t55 -129.5t32.5 -130.5t9.5 -105q0 -125 -24.5 -217t-63 -145.5t-97 -85t-116 -42t-131.5 -10.5q-228 0 -307 164 q-41 -82 -114 -123t-157 -41q-169 0 -259.5 92.5t-90.5 274.5v539h-115z" />
<glyph unicode="x" horiz-adv-x="1028" d="M20 92q0 47 34 80t81 33l64 -113q52 37 109.5 162.5t80.5 237.5l-256 391h-113v73q7 1 36.5 6.5t46.5 8t44.5 5.5t51.5 3q42 0 76 -19.5t48.5 -38t24.5 -38.5l176 -262q57 140 147 249t179 109q47 0 82 -34t35 -81t-33.5 -79.5t-81.5 -32.5l-64 112q-53 -37 -110 -134.5 t-90 -201.5l254 -372q30 -44 55.5 -63t69.5 -19v-74q-48 -23 -136 -23q-101 0 -165 97l-213 323q-50 -170 -137 -295t-179 -125q-47 0 -82 34t-35 81z" />
<glyph unicode="y" horiz-adv-x="1075" d="M10 885v73q13 2 51 8.5t73 10.5t65 4q32 0 55 -10t33 -24t15.5 -28t5.5 -24l1 -10v-580q0 -66 18.5 -113.5t49 -71.5t62.5 -34t67 -10q40 0 83 24t82 70.5t64 128t25 182.5v475l121 23l71 -23v-1044q0 -90 -25 -162.5t-68 -120.5t-103 -80.5t-127 -46.5t-142 -14 q-155 0 -258.5 67t-103.5 189q0 72 55.5 129.5t128.5 83.5l41 -61q-44 -24 -68 -62t-24 -78q0 -67 60 -113t169 -46q56 0 103 16t86.5 50.5t61.5 96t22 144.5v119l41 233q-36 -113 -125 -184.5t-205 -71.5q-168 0 -261 90t-93 254v541h-107z" />
<glyph unicode="z" horiz-adv-x="933" d="M51 55l555 725q-20 50 -86 86.5t-137 36.5q-58 0 -121 -24l-59 -127q-43 0 -72 29.5t-29 72.5q0 62 76.5 93.5t200.5 31.5q88 0 158.5 -22t109.5 -54l137 76l99 -76l-564 -725q20 -49 89 -86t141 -37q86 0 153 43l50 140q40 0 69 -27t29 -66q0 -87 -73 -127.5t-222 -40.5 q-93 0 -164.5 22.5t-111.5 55.5l-129 -78z" />
<glyph unicode="{" horiz-adv-x="839" d="M123 539v86h33q69 0 118.5 48.5t49.5 117.5v448q0 138 97 236t234 98h103v-86h-74q-69 0 -117.5 -49t-48.5 -117v-430q0 -129 -57 -200.5t-174 -98.5v-19q117 -27 174 -98.5t57 -200.5v-518q0 -69 48.5 -117.5t117.5 -48.5h74v-86h-103q-137 0 -234 98t-97 236v535 q0 68 -49.5 117t-118.5 49h-33z" />
<glyph unicode="|" horiz-adv-x="552" d="M205 -489v1957h121v-1957h-121z" />
<glyph unicode="}" horiz-adv-x="839" d="M82 -410h74q69 0 117.5 48.5t48.5 117.5v518q0 129 57 200.5t174 98.5v19q-117 27 -174 98.5t-57 200.5v430q0 68 -48.5 117t-117.5 49h-74v86h102q137 0 234.5 -98t97.5 -236v-448q0 -69 49.5 -117.5t118.5 -48.5h33v-86h-33q-69 0 -118.5 -49t-49.5 -117v-535 q0 -138 -97.5 -236t-234.5 -98h-102v86z" />
<glyph unicode="~" horiz-adv-x="1245" d="M113 506q60 97 137 144.5t194 47.5q72 0 224 -42t217 -42q57 0 114 24t93 60q7 -7 22 -18.5t19 -15.5q-106 -185 -312 -185q-84 0 -230 46t-214 46q-72 0 -131 -27.5t-92 -64.5z" />
<glyph unicode="&#xa2;" horiz-adv-x="1196" d="M205 502q0 242 128 380t367 138h25l45 211h94l-47 -221q92 -19 184 -64v-170l-73 -16l-41 129q-43 15 -90 24l-176 -825q33 -8 86 -8q75 0 180 33l41 131l73 -17v-178q-150 -72 -301 -72q-56 0 -102 9l-45 -211h-96l49 231q-148 51 -224.5 179t-76.5 317zM420 506 q0 -283 112 -375l170 791q-151 -1 -216.5 -102t-65.5 -314z" />
<glyph unicode="&#xa3;" horiz-adv-x="931" d="M8 0v135q28 23 48 42t45.5 54t42 74t29 99t15.5 131h-180v86h182v196q0 108 26 196.5t69 147t100.5 99t118 58t123.5 17.5q89 0 153 -22t131 -66v-174l-75 -16l-45 143q-62 35 -154 35q-98 0 -173 -95.5t-75 -244.5v-274h361v-86h-363q-12 -113 -77 -214.5t-163 -175.5 l7 -10l202 25h535v-160h-883z" />
<glyph unicode="&#xa5;" horiz-adv-x="1327" d="M20 1235l17 78h579l15 -78l-178 -78l245 -397v-135l330 532l-182 78l16 78h430l15 -78l-181 -78l-194 -323h258v-86h-311l-70 -117v-82h381v-86h-381v-338l176 -45l-14 -80h-547l-14 80l180 45v338h-451v86h451v10l-123 189h-328v86h273l-209 323z" />
<glyph unicode="&#xa8;" horiz-adv-x="1017" d="M201 1317q0 45 32.5 77.5t77.5 32.5q46 0 78.5 -32t32.5 -78t-32.5 -78.5t-78.5 -32.5q-45 0 -77.5 33t-32.5 78zM567 1317q0 46 32.5 78t78.5 32q45 0 77.5 -32.5t32.5 -77.5t-33 -78t-77 -33q-46 0 -78.5 32.5t-32.5 78.5z" />
<glyph unicode="&#xa9;" horiz-adv-x="1716" d="M113 719q0 153 58.5 291.5t158 238.5t237 159.5t289.5 59.5t290.5 -59.5t238.5 -159.5t159.5 -239t59.5 -291q0 -151 -59.5 -288.5t-159.5 -237t-238.5 -158t-290.5 -58.5t-289.5 58.5t-237 158t-158 237t-58.5 288.5zM246 719q0 -179 76.5 -322t216 -225t317.5 -82 q271 0 442.5 178.5t171.5 450.5q0 182 -76.5 327t-217 227.5t-320.5 82.5q-178 0 -317.5 -82.5t-216 -227.5t-76.5 -327zM446 721q0 85 28.5 163t82.5 141.5t140.5 101.5t193.5 38q144 0 268 -71v-166l-51 -8l-57 129q-79 24 -160 24q-145 0 -213 -84t-68 -264 q0 -60 6 -108.5t24.5 -96.5t48.5 -80.5t81.5 -52.5t120.5 -20q82 0 156 22l61 141l51 -10v-174q-44 -32 -118.5 -52t-149.5 -20q-91 0 -166 25t-126 67.5t-86 100t-51 121.5t-16 133z" />
<glyph unicode="&#xab;" horiz-adv-x="1034" d="M123 565l477 342l33 -55l-332 -330l332 -327l-33 -56l-457 328zM512 555l367 297l32 -55l-231 -275l231 -272l-32 -55l-349 288z" />
<glyph unicode="&#xad;" horiz-adv-x="831" d="M102 502l17 112h610l-16 -112h-611z" />
<glyph unicode="&#xae;" horiz-adv-x="1716" d="M113 719q0 153 58.5 291.5t158 238.5t237 159.5t289.5 59.5t290.5 -59.5t238.5 -159.5t159.5 -239t59.5 -291q0 -151 -59.5 -288.5t-159.5 -237t-238.5 -158t-290.5 -58.5t-289.5 58.5t-237 158t-158 237t-58.5 288.5zM246 719q0 -179 76.5 -322t216 -225t317.5 -82 q271 0 442.5 178.5t171.5 450.5q0 182 -76.5 327t-217 227.5t-320.5 82.5q-178 0 -317.5 -82.5t-216 -227.5t-76.5 -327zM508 1098l8 51h387q130 0 196 -62t66 -174q0 -106 -77 -171.5t-183 -65.5l76 -33l164 -260l106 -41l-8 -51h-244l11 51l-213 317v76h57q83 0 129.5 53 t46.5 125q0 88 -39 133.5t-133 45.5h-108v-709l100 -41l-8 -51h-324l-8 51l98 41v674z" />
<glyph unicode="&#xb4;" horiz-adv-x="546" d="M106 1178l140 327l182 -20l-281 -328z" />
<glyph unicode="&#xb8;" horiz-adv-x="917" d="M369 -393q85 0 132.5 36.5t47.5 96.5q0 40 -27.5 59t-62.5 19h-39v182h74v-94q70 0 124 -39t54 -113q0 -51 -21 -89.5t-52 -60.5t-74 -35.5t-80 -17.5t-76 -4v60z" />
<glyph unicode="&#xbb;" horiz-adv-x="1034" d="M123 250l231 272l-231 275l33 55l366 -297l-18 -72l-348 -288zM401 195l332 327l-332 330l33 55l477 -342l-20 -98l-457 -328z" />
<glyph unicode="&#xc0;" horiz-adv-x="1511" d="M31 86l14 -86h467l14 86l-211 68l117 329h537l114 -329l-176 -68l15 -86h557l16 86l-176 68l-461 1314l-178 -34l-473 -1280zM465 569l266 707v-105l207 -602h-473zM492 1880l194 21l223 -328l-41 -21z" />
<glyph unicode="&#xc1;" horiz-adv-x="1511" d="M31 86l176 68l473 1280l178 34l461 -1314l176 -68l-16 -86h-557l-15 86l176 68l-114 329h-537l-117 -329l211 -68l-14 -86h-467zM465 569h473l-207 602v105zM641 1573l223 328l195 -21l-377 -328z" />
<glyph unicode="&#xc2;" horiz-adv-x="1511" d="M31 86l14 -86h467l14 86l-211 68l117 329h537l114 -329l-176 -68l15 -86h557l16 86l-176 68l-461 1314l-178 -34l-473 -1280zM465 569l266 707v-105l207 -602h-473zM504 1573l223 328h121l223 -328l-41 -21l-242 217l-243 -217z" />
<glyph unicode="&#xc3;" horiz-adv-x="1511" d="M31 86l176 68l473 1280l178 34l461 -1314l176 -68l-16 -86h-557l-15 86l176 68l-114 329h-537l-117 -329l211 -68l-14 -86h-467zM465 569h473l-207 602v105zM471 1591q23 100 79 166t146 66q55 0 100.5 -23t82 -46t69.5 -23q97 0 125 92h78q-31 -232 -205 -232 q-51 0 -95 23t-81.5 46t-73.5 23q-101 0 -139 -92h-86z" />
<glyph unicode="&#xc4;" horiz-adv-x="1511" d="M31 86l176 68l473 1280l178 34l461 -1314l176 -68l-16 -86h-557l-15 86l176 68l-114 329h-537l-117 -329l211 -68l-14 -86h-467zM465 569h473l-207 602v105zM473 1683q0 45 33 78t78 33q46 0 78 -32.5t32 -78.5t-32 -78t-78 -32q-45 0 -78 32.5t-33 77.5zM840 1683 q0 46 32 78.5t78 32.5q45 0 78 -33t33 -78t-33 -77.5t-78 -32.5q-46 0 -78 32t-32 78z" />
<glyph unicode="&#xc5;" horiz-adv-x="1511" d="M31 86l14 -86h467l14 86l-211 68l117 329h537l114 -329l-176 -68l15 -86h557l16 86l-176 68l-461 1314l-178 -34l-473 -1280zM465 569l266 707v-105l207 -602h-473zM580 1708q0 90 59 143.5t149 53.5q92 0 150.5 -53t58.5 -144q0 -92 -56 -144.5t-153 -52.5 q-95 0 -151.5 53t-56.5 144zM678 1710q0 -61 30 -101t80 -40q52 0 82.5 39.5t30.5 101.5q0 63 -31 100t-82 37q-49 0 -79.5 -37.5t-30.5 -99.5z" />
<glyph unicode="&#xc6;" horiz-adv-x="1878" d="M10 86l176 68l578 1280h1005v-308l-86 -16l-86 238h-442v-543h250l63 172l86 -14v-404l-86 -14l-63 172h-250v-631h453l112 307l86 -14v-379h-1028l-14 86l174 68v329h-483l-146 -329l166 -68l-14 -86h-436zM492 569h444v731l-92 48z" />
<glyph unicode="&#xc7;" horiz-adv-x="1335" d="M123 717q0 116 27.5 224t86 204t142.5 167.5t205.5 113.5t267.5 42q45 0 88 -3t97.5 -11.5t99 -25t83.5 -41t61 -63t22 -87.5q0 -73 -53 -117.5t-130 -44.5l-63 268q-125 25 -205 25q-247 0 -367 -157t-120 -484q0 -72 5.5 -135t20 -129.5t38 -120.5t61.5 -102.5 t88 -81.5t119.5 -52.5t154.5 -19.5q79 0 191.5 21t191.5 69l68 -90q-76 -55 -199.5 -88t-251.5 -33q-19 0 -51 4v-63q70 0 124 -39t54 -113q0 -51 -21 -89.5t-52 -60.5t-74 -35.5t-80 -17.5t-76 -4v60q85 0 132.5 36.5t47.5 96.5q0 40 -27.5 59t-62.5 19h-39v155 q-128 15 -231.5 64.5t-172 120t-114.5 162.5t-66 190.5t-20 206.5z" />
<glyph unicode="&#xc8;" horiz-adv-x="1189" d="M72 1348l178 -68v-1126l-174 -68l14 -86h1028v379l-86 14l-112 -307h-453v631h250l63 -172l86 14v404l-86 14l-63 -172h-250v543h442l86 -238l86 16v308h-993zM303 1880l195 21l223 -328l-41 -21z" />
<glyph unicode="&#xc9;" horiz-adv-x="1189" d="M72 1348l16 86h993v-308l-86 -16l-86 238h-442v-543h250l63 172l86 -14v-404l-86 -14l-63 172h-250v-631h453l112 307l86 -14v-379h-1028l-14 86l174 68v1126zM502 1573l223 328l195 -21l-377 -328z" />
<glyph unicode="&#xca;" horiz-adv-x="1189" d="M72 1348l16 86h993v-308l-86 -16l-86 238h-442v-543h250l63 172l86 -14v-404l-86 -14l-63 172h-250v-631h453l112 307l86 -14v-379h-1028l-14 86l174 68v1126zM317 1573l224 328h121l223 -328l-41 -21l-244 217l-242 -217z" />
<glyph unicode="&#xcb;" horiz-adv-x="1189" d="M72 1348l16 86h993v-308l-86 -16l-86 238h-442v-543h250l63 172l86 -14v-404l-86 -14l-63 172h-250v-631h453l112 307l86 -14v-379h-1028l-14 86l174 68v1126zM262 1698q0 52 37 88.5t88 36.5q53 0 89 -36.5t36 -88.5t-36 -88.5t-89 -36.5q-51 0 -88 36.5t-37 88.5z M678 1698q0 52 36 88.5t89 36.5q51 0 88 -36.5t37 -88.5t-37 -88.5t-88 -36.5q-53 0 -89 36.5t-36 88.5z" />
<glyph unicode="&#xcc;" horiz-adv-x="821" d="M100 1880l195 21l223 -328l-41 -21zM123 86l16 -86h543l16 86l-180 68v1126l180 68l-16 86h-543l-16 -86l180 -68v-1126z" />
<glyph unicode="&#xcd;" horiz-adv-x="821" d="M123 86l180 68v1126l-180 68l16 86h543l16 -86l-180 -68v-1126l180 -68l-16 -86h-543zM303 1573l223 328l195 -21l-377 -328z" />
<glyph unicode="&#xce;" horiz-adv-x="821" d="M123 86l16 -86h543l16 86l-180 68v1126l180 68l-16 86h-543l-16 -86l180 -68v-1126zM125 1573l223 328h121l223 -328l-41 -21l-241 217l-244 -217z" />
<glyph unicode="&#xcf;" horiz-adv-x="821" d="M104 1683q0 45 33 78t78 33q46 0 78.5 -32.5t32.5 -78.5t-32.5 -78t-78.5 -32q-45 0 -78 32.5t-33 77.5zM123 86l180 68v1126l-180 68l16 86h543l16 -86l-180 -68v-1126l180 -68l-16 -86h-543zM471 1683q0 46 32.5 78.5t78.5 32.5q44 0 77 -33t33 -78t-32.5 -77.5 t-77.5 -32.5q-46 0 -78.5 32t-32.5 78z" />
<glyph unicode="&#xd0;" horiz-adv-x="1454" d="M72 696v86h178v498l-178 68l14 86h559q150 0 274 -35.5t211 -99t147 -152t88 -194t28 -226.5q0 -152 -46.5 -281.5t-137 -230t-237 -158t-333.5 -57.5h-551l-14 86l176 68v542h-178zM467 86h178q127 0 225.5 51.5t159.5 141t92 204.5t31 248t-31 243.5t-92 195 t-159.5 131.5t-225.5 47h-178v-566h354v-86h-354v-610z" />
<glyph unicode="&#xd1;" horiz-adv-x="1476" d="M49 1348l14 86h392l706 -1119v965l-176 68l14 86h408l14 -86l-176 -68v-1280l-121 -35l-811 1286v-1097l174 -68l-14 -86h-405l-17 86l176 68v1126zM451 1591q23 100 79 166t146 66q55 0 100.5 -23t82 -46t69.5 -23q97 0 125 92h77q-31 -232 -204 -232q-51 0 -95 23 t-81.5 46t-73.5 23q-101 0 -139 -92h-86z" />
<glyph unicode="&#xd2;" d="M123 717q0 115 27 223.5t83 204.5t135.5 168t192.5 113.5t246 41.5q167 0 298 -57.5t214 -159.5t126.5 -237.5t43.5 -296.5q0 -130 -24 -241.5t-76.5 -206.5t-131 -162t-193 -104.5t-257.5 -37.5q-142 0 -258.5 42t-194 113.5t-131 168.5t-77 204t-23.5 224zM365 727 q0 -333 106 -497t336 -164q228 0 335 167.5t107 493.5q0 323 -107.5 482t-334.5 159q-229 0 -335.5 -155.5t-106.5 -485.5zM473 1882l195 21l223 -328l-41 -21z" />
<glyph unicode="&#xd3;" d="M123 717q0 115 27 223.5t83 204.5t135.5 168t192.5 113.5t246 41.5q167 0 298 -57.5t214 -159.5t126.5 -237.5t43.5 -296.5q0 -130 -24 -241.5t-76.5 -206.5t-131 -162t-193 -104.5t-257.5 -37.5q-142 0 -258.5 42t-194 113.5t-131 168.5t-77 204t-23.5 224zM365 727 q0 -333 106 -497t336 -164q228 0 335 167.5t107 493.5q0 323 -107.5 482t-334.5 159q-229 0 -335.5 -155.5t-106.5 -485.5zM723 1573l223 328l195 -21l-377 -328z" />
<glyph unicode="&#xd4;" d="M123 717q0 115 27 223.5t83 204.5t135.5 168t192.5 113.5t246 41.5q167 0 298 -57.5t214 -159.5t126.5 -237.5t43.5 -296.5q0 -130 -24 -241.5t-76.5 -206.5t-131 -162t-193 -104.5t-257.5 -37.5q-142 0 -258.5 42t-194 113.5t-131 168.5t-77 204t-23.5 224zM365 727 q0 -333 106 -497t336 -164q228 0 335 167.5t107 493.5q0 323 -107.5 482t-334.5 159q-229 0 -335.5 -155.5t-106.5 -485.5zM522 1573l223 328h121l224 -328l-41 -21l-244 217l-242 -217z" />
<glyph unicode="&#xd5;" d="M123 717q0 115 27 223.5t83 204.5t135.5 168t192.5 113.5t246 41.5q167 0 298 -57.5t214 -159.5t126.5 -237.5t43.5 -296.5q0 -130 -24 -241.5t-76.5 -206.5t-131 -162t-193 -104.5t-257.5 -37.5q-142 0 -258.5 42t-194 113.5t-131 168.5t-77 204t-23.5 224zM365 727 q0 -333 106 -497t336 -164q228 0 335 167.5t107 493.5q0 323 -107.5 482t-334.5 159q-229 0 -335.5 -155.5t-106.5 -485.5zM475 1591q23 100 79 166t146 66q55 0 100.5 -23t82 -46t69.5 -23q97 0 125 92h78q-31 -232 -205 -232q-51 0 -95 23t-81.5 46t-73.5 23 q-101 0 -139 -92h-86z" />
<glyph unicode="&#xd6;" d="M123 717q0 115 27 223.5t83 204.5t135.5 168t192.5 113.5t246 41.5q167 0 298 -57.5t214 -159.5t126.5 -237.5t43.5 -296.5q0 -130 -24 -241.5t-76.5 -206.5t-131 -162t-193 -104.5t-257.5 -37.5q-142 0 -258.5 42t-194 113.5t-131 168.5t-77 204t-23.5 224zM365 727 q0 -333 106 -497t336 -164q228 0 335 167.5t107 493.5q0 323 -107.5 482t-334.5 159q-229 0 -335.5 -155.5t-106.5 -485.5zM508 1683q0 45 33 78t77 33q46 0 78.5 -32.5t32.5 -78.5t-32.5 -78t-78.5 -32q-45 0 -77.5 32.5t-32.5 77.5zM874 1683q0 46 32.5 78.5t78.5 32.5 q45 0 78 -33t33 -78t-33 -77.5t-78 -32.5q-46 0 -78.5 32t-32.5 78z" />
<glyph unicode="&#xd8;" d="M123 717q0 115 27 223.5t83 204.5t135.5 168t192.5 113.5t246 41.5q177 0 317 -67l52 86h96l18 -19l-71 -122q133 -98 201.5 -262t68.5 -367q0 -130 -24 -241.5t-76.5 -206.5t-131 -162t-193 -104.5t-257.5 -37.5q-199 0 -346 80l-51 -90h-91l-24 22l76 129 q-125 103 -186.5 263.5t-61.5 347.5zM365 727q0 -318 94 -469l598 1024q-132 86 -250 86q-229 0 -335.5 -155.5t-106.5 -485.5zM535 170q124 -104 272 -104q228 0 335 167.5t107 493.5q0 330 -112 477z" />
<glyph unicode="&#xd9;" horiz-adv-x="1486" d="M61 1348l179 -68v-674q0 -154 30 -269.5t78.5 -185.5t120.5 -112.5t145.5 -58t163.5 -15.5q83 0 151.5 15.5t135.5 58.5t112 112.5t73 185.5t28 269v674l178 68l-14 86h-412l-16 -86l180 -68v-668q0 -526 -383 -526q-191 0 -272.5 123.5t-81.5 406.5v664l178 68l-14 86 h-545zM459 1880l194 21l224 -328l-41 -21z" />
<glyph unicode="&#xda;" horiz-adv-x="1486" d="M61 1348l15 86h545l14 -86l-178 -68v-664q0 -283 81.5 -406.5t272.5 -123.5q383 0 383 526v668l-180 68l16 86h412l14 -86l-178 -68v-674q0 -153 -28 -269t-73 -185.5t-112 -112.5t-135.5 -58.5t-151.5 -15.5q-90 0 -163.5 15.5t-145.5 58t-120.5 112.5t-78.5 185.5 t-30 269.5v674zM684 1573l223 328l195 -21l-377 -328z" />
<glyph unicode="&#xdb;" horiz-adv-x="1486" d="M61 1348l15 86h545l14 -86l-178 -68v-664q0 -283 81.5 -406.5t272.5 -123.5q383 0 383 526v668l-180 68l16 86h412l14 -86l-178 -68v-674q0 -153 -28 -269t-73 -185.5t-112 -112.5t-135.5 -58.5t-151.5 -15.5q-90 0 -163.5 15.5t-145.5 58t-120.5 112.5t-78.5 185.5 t-30 269.5v674zM535 1573l223 328h121l223 -328l-41 -21l-244 217l-242 -217z" />
<glyph unicode="&#xdc;" horiz-adv-x="1486" d="M61 1348l15 86h545l14 -86l-178 -68v-664q0 -283 81.5 -406.5t272.5 -123.5q383 0 383 526v668l-180 68l16 86h412l14 -86l-178 -68v-674q0 -153 -28 -269t-73 -185.5t-112 -112.5t-135.5 -58.5t-151.5 -15.5q-90 0 -163.5 15.5t-145.5 58t-120.5 112.5t-78.5 185.5 t-30 269.5v674zM524 1683q0 45 33 78t78 33q46 0 78 -32.5t32 -78.5t-32 -78t-78 -32q-45 0 -78 32.5t-33 77.5zM891 1683q0 46 32 78.5t78 32.5q45 0 78 -33t33 -78t-33 -77.5t-78 -32.5q-46 0 -78 32t-32 78z" />
<glyph unicode="&#xdd;" horiz-adv-x="1349" d="M10 1346l17 88h573l16 -88l-180 -68l277 -496v-133l348 629l-178 68l14 88h426l16 -88l-180 -68l-338 -612v-512l176 -70l-16 -84h-541l-14 84l178 70v374l-416 750zM629 1573l223 328l195 -21l-377 -328z" />
<glyph unicode="&#xde;" horiz-adv-x="1183" d="M70 86l180 68v1126l-180 68l16 86h532l17 -86l-180 -68v-143h180q223 0 345 -110t122 -310q0 -406 -522 -406h-125v-157l180 -68l-17 -86h-532zM455 397h120q140 0 228 96.5t88 229.5q0 328 -311 328h-125v-654z" />
<glyph unicode="&#xdf;" horiz-adv-x="1320" d="M-147 -420q0 39 29 65.5t69 26.5l49 -94q62 27 102.5 75t60 116t26 133t6.5 153v828h-140l-14 73l154 50v63q0 76 15.5 143t50 126t85.5 101t127 66.5t170 24.5q93 0 166.5 -18t119 -45.5t75.5 -65t41.5 -73.5t11.5 -73q0 -63 -33.5 -112t-81 -82t-95 -64.5t-81 -75 t-33.5 -98.5q0 -27 12 -49.5t38 -42.5t46.5 -32.5t59.5 -32.5t55 -29q54 -31 86 -51t77 -55t70 -68t43.5 -79.5t18.5 -98.5q0 -138 -87.5 -223t-258.5 -85q-315 0 -315 170q0 39 29 66t69 27l49 -140q29 -19 74 -32t78 -13q94 0 146 50.5t52 127.5q0 18 -7.5 37t-17.5 34 t-29.5 33t-33.5 30t-41 30t-41 26.5t-43.5 26t-38.5 23.5q-42 26 -57 35.5t-50 34t-49.5 38.5t-38 40t-33.5 48.5t-18 53.5t-8 65q0 64 22 116t54.5 83.5t71 63.5t71 58.5t54.5 66.5t22 88q0 68 -56.5 119t-166.5 51q-61 0 -106.5 -17.5t-73.5 -46.5t-45 -74t-23 -94 t-6 -112v-1090q0 -110 -36 -206.5t-96 -163t-139.5 -104.5t-164.5 -38q-40 0 -69 26.5t-29 65.5z" />
<glyph unicode="&#xe0;" horiz-adv-x="1044" d="M63 428q0 142 36.5 250t101.5 172.5t148 96.5t183 32q117 0 179 -33l120 33l72 -23v-788q0 -45 31.5 -69.5t81.5 -24.5v-74q-47 -23 -113 -23q-61 0 -110.5 37t-69.5 117q-34 -71 -104.5 -112.5t-147.5 -41.5q-79 0 -149 25t-129.5 76t-94.5 141t-35 209zM262 438 q0 -102 19.5 -176t53.5 -113.5t72.5 -57t84.5 -17.5q87 0 153 82t66 243v457q-48 27 -84.5 37t-83.5 10q-41 0 -79.5 -14t-76 -48t-64.5 -86t-44 -133.5t-17 -183.5zM344 1485l182 20l140 -327l-41 -21z" />
<glyph unicode="&#xe1;" horiz-adv-x="1044" d="M63 428q0 142 36.5 250t101.5 172.5t148 96.5t183 32q117 0 179 -33l120 33l72 -23v-788q0 -45 31.5 -69.5t81.5 -24.5v-74q-47 -23 -113 -23q-61 0 -110.5 37t-69.5 117q-34 -71 -104.5 -112.5t-147.5 -41.5q-79 0 -149 25t-129.5 76t-94.5 141t-35 209zM262 438 q0 -102 19.5 -176t53.5 -113.5t72.5 -57t84.5 -17.5q87 0 153 82t66 243v457q-48 27 -84.5 37t-83.5 10q-41 0 -79.5 -14t-76 -48t-64.5 -86t-44 -133.5t-17 -183.5zM483 1178l140 327l182 -20l-281 -328z" />
<glyph unicode="&#xe2;" horiz-adv-x="1044" d="M63 428q0 142 36.5 250t101.5 172.5t148 96.5t183 32q117 0 179 -33l120 33l72 -23v-788q0 -45 31.5 -69.5t81.5 -24.5v-74q-47 -23 -113 -23q-61 0 -110.5 37t-69.5 117q-34 -71 -104.5 -112.5t-147.5 -41.5q-79 0 -149 25t-129.5 76t-94.5 141t-35 209zM262 438 q0 -102 19.5 -176t53.5 -113.5t72.5 -57t84.5 -17.5q87 0 153 82t66 243v457q-48 27 -84.5 37t-83.5 10q-41 0 -79.5 -14t-76 -48t-64.5 -86t-44 -133.5t-17 -183.5zM297 1178l223 327h121l223 -327l-41 -21l-243 217l-242 -217z" />
<glyph unicode="&#xe3;" horiz-adv-x="1044" d="M63 428q0 142 36.5 250t101.5 172.5t148 96.5t183 32q117 0 179 -33l120 33l72 -23v-788q0 -45 31.5 -69.5t81.5 -24.5v-74q-47 -23 -113 -23q-61 0 -110.5 37t-69.5 117q-34 -71 -104.5 -112.5t-147.5 -41.5q-79 0 -149 25t-129.5 76t-94.5 141t-35 209zM223 1196 q23 100 79.5 165.5t146.5 65.5q43 0 81.5 -14.5t61.5 -31.5t52 -31.5t56 -14.5q97 0 125 92h78q-31 -231 -205 -231q-41 0 -77.5 14.5t-59.5 31.5t-53 31.5t-59 14.5q-102 0 -140 -92h-86zM262 438q0 -102 19.5 -176t53.5 -113.5t72.5 -57t84.5 -17.5q87 0 153 82t66 243 v457q-48 27 -84.5 37t-83.5 10q-41 0 -79.5 -14t-76 -48t-64.5 -86t-44 -133.5t-17 -183.5z" />
<glyph unicode="&#xe4;" horiz-adv-x="1044" d="M63 428q0 142 36.5 250t101.5 172.5t148 96.5t183 32q117 0 179 -33l120 33l72 -23v-788q0 -45 31.5 -69.5t81.5 -24.5v-74q-47 -23 -113 -23q-61 0 -110.5 37t-69.5 117q-34 -71 -104.5 -112.5t-147.5 -41.5q-79 0 -149 25t-129.5 76t-94.5 141t-35 209zM240 1317 q0 45 32.5 77.5t77.5 32.5q46 0 78.5 -32t32.5 -78t-32.5 -78.5t-78.5 -32.5q-44 0 -77 33t-33 78zM262 438q0 -102 19.5 -176t53.5 -113.5t72.5 -57t84.5 -17.5q87 0 153 82t66 243v457q-48 27 -84.5 37t-83.5 10q-41 0 -79.5 -14t-76 -48t-64.5 -86t-44 -133.5t-17 -183.5 zM606 1317q0 46 32.5 78t78.5 32q45 0 77.5 -32.5t32.5 -77.5t-32.5 -78t-77.5 -33q-46 0 -78.5 32.5t-32.5 78.5z" />
<glyph unicode="&#xe5;" horiz-adv-x="1044" d="M63 428q0 142 36.5 250t101.5 172.5t148 96.5t183 32q117 0 179 -33l120 33l72 -23v-788q0 -45 31.5 -69.5t81.5 -24.5v-74q-47 -23 -113 -23q-61 0 -110.5 37t-69.5 117q-34 -71 -104.5 -112.5t-147.5 -41.5q-79 0 -149 25t-129.5 76t-94.5 141t-35 209zM262 438 q0 -102 19.5 -176t53.5 -113.5t72.5 -57t84.5 -17.5q87 0 153 82t66 243v457q-48 27 -84.5 37t-83.5 10q-41 0 -79.5 -14t-76 -48t-64.5 -86t-44 -133.5t-17 -183.5zM340 1313q0 90 59.5 143t149.5 53q93 0 151 -52.5t58 -143.5q0 -92 -56 -144.5t-153 -52.5q-95 0 -152 53 t-57 144zM438 1315q0 -61 30.5 -101t80.5 -40q52 0 82.5 39.5t30.5 101.5q0 63 -31 100t-82 37q-50 0 -80.5 -38t-30.5 -99z" />
<glyph unicode="&#xe6;" horiz-adv-x="1597" d="M59 248q0 69 24 124t69 90t98.5 59.5t123.5 36.5t133 17t136 5v108q0 106 -55.5 160.5t-149.5 54.5q-78 0 -141 -24l-64 -164q-43 0 -73.5 29.5t-30.5 70.5q0 82 88 123t225 41q114 0 199 -36.5t131 -104.5q135 141 367 141q191 0 303 -69.5t112 -219.5q0 -61 -26 -109.5 t-74.5 -81t-109.5 -55.5t-141 -35.5t-159 -18t-172 -5.5q23 -145 104 -228t216 -83q147 0 293 92l47 -68q-65 -59 -158 -90t-198 -31q-301 0 -435 173q-99 -96 -181.5 -134.5t-188.5 -38.5q-135 0 -223.5 71t-88.5 200zM276 268q0 -101 52.5 -147.5t124.5 -46.5 q125 0 190 112v320q-367 0 -367 -238zM864 457q206 2 352 74.5t146 183.5q0 94 -61.5 141t-170.5 47q-128 0 -197 -112.5t-69 -294.5v-39z" />
<glyph unicode="&#xe7;" horiz-adv-x="978" d="M82 477q0 235 142 368.5t384 133.5q80 0 145.5 -17t109.5 -55.5t44 -93.5q0 -41 -30.5 -71.5t-73.5 -30.5l-64 168q-63 24 -125 24q-153 0 -235 -101t-82 -284q0 -78 8.5 -141t30.5 -121t57 -97t91.5 -62t131.5 -23q74 0 136.5 23.5t134.5 68.5l47 -68 q-133 -121 -330 -121h-35v-71q70 0 124.5 -39t54.5 -113q0 -51 -21 -89.5t-52.5 -60.5t-74.5 -35.5t-80 -17.5t-76 -4v60q85 0 133 36.5t48 96.5q0 40 -27.5 59t-62.5 19h-39v168q-210 26 -312 153.5t-102 337.5z" />
<glyph unicode="&#xe8;" horiz-adv-x="1060" d="M82 479q0 232 136 366t355 134q398 0 398 -289q0 -73 -36.5 -127.5t-96.5 -88t-148.5 -54t-179.5 -28t-203 -7.5q23 -145 104 -228t216 -83q147 0 293 92l47 -68q-65 -59 -158 -90t-195 -31q-264 0 -398 133.5t-134 368.5zM299 457q204 2 341.5 74t137.5 184 q0 188 -213 188q-128 0 -197 -112.5t-69 -294.5v-39zM326 1485l182 20l139 -327l-41 -21z" />
<glyph unicode="&#xe9;" horiz-adv-x="1060" d="M82 479q0 232 136 366t355 134q398 0 398 -289q0 -73 -36.5 -127.5t-96.5 -88t-148.5 -54t-179.5 -28t-203 -7.5q23 -145 104 -228t216 -83q147 0 293 92l47 -68q-65 -59 -158 -90t-195 -31q-264 0 -398 133.5t-134 368.5zM299 457q204 2 341.5 74t137.5 184 q0 188 -213 188q-128 0 -197 -112.5t-69 -294.5v-39zM489 1178l140 327l182 -20l-281 -328z" />
<glyph unicode="&#xea;" horiz-adv-x="1060" d="M82 479q0 232 136 366t355 134q398 0 398 -289q0 -73 -36.5 -127.5t-96.5 -88t-148.5 -54t-179.5 -28t-203 -7.5q23 -145 104 -228t216 -83q147 0 293 92l47 -68q-65 -59 -158 -90t-195 -31q-264 0 -398 133.5t-134 368.5zM281 1178l223 327h121l223 -327l-41 -21 l-244 217l-241 -217zM299 457q204 2 341.5 74t137.5 184q0 188 -213 188q-128 0 -197 -112.5t-69 -294.5v-39z" />
<glyph unicode="&#xeb;" horiz-adv-x="1060" d="M82 479q0 232 136 366t355 134q398 0 398 -289q0 -73 -36.5 -127.5t-96.5 -88t-148.5 -54t-179.5 -28t-203 -7.5q23 -145 104 -228t216 -83q147 0 293 92l47 -68q-65 -59 -158 -90t-195 -31q-264 0 -398 133.5t-134 368.5zM264 1317q0 45 33 77.5t78 32.5q46 0 78 -32 t32 -78t-32 -78.5t-78 -32.5q-45 0 -78 33t-33 78zM299 457q204 2 341.5 74t137.5 184q0 188 -213 188q-128 0 -197 -112.5t-69 -294.5v-39zM631 1317q0 46 32 78t78 32q45 0 78 -32.5t33 -77.5t-33 -78t-78 -33q-46 0 -78 32.5t-32 78.5z" />
<glyph unicode="&#xec;" horiz-adv-x="624" d="M82 1485l182 20l139 -327l-41 -21zM94 883v73q135 23 205 23q32 0 55 -10t33 -24t16 -28t7 -24v-10v-883h-193v883h-123z" />
<glyph unicode="&#xed;" horiz-adv-x="624" d="M94 883v73q135 23 205 23q32 0 55 -10t33 -24t16 -28t7 -24v-10v-883h-193v883h-123zM229 1178l140 327l182 -20l-281 -328z" />
<glyph unicode="&#xee;" horiz-adv-x="624" d="M16 1178l224 327h120l224 -327l-41 -21l-244 217l-242 -217zM94 883v73q135 23 205 23q32 0 55 -10t33 -24t16 -28t7 -24v-10v-883h-193v883h-123z" />
<glyph unicode="&#xef;" horiz-adv-x="624" d="M20 1317q0 45 33 77.5t78 32.5q46 0 78.5 -32t32.5 -78t-32.5 -78.5t-78.5 -32.5q-45 0 -78 33t-33 78zM94 883v73q135 23 205 23q32 0 55 -10t33 -24t16 -28t7 -24v-10v-883h-193v883h-123zM387 1317q0 46 32.5 78t78.5 32q45 0 77.5 -32.5t32.5 -77.5t-33 -78t-77 -33 q-46 0 -78.5 32.5t-32.5 78.5z" />
<glyph unicode="&#xf0;" horiz-adv-x="1091" d="M90 479q0 230 124 365t347 135q99 0 201 -45q-79 202 -201 342l-276 -197l-64 82l266 191q-109 97 -235 159l37 80q161 -54 301 -168l235 168l64 -84l-217 -155q153 -149 244.5 -360.5t91.5 -475.5q0 -249 -118.5 -394t-340.5 -145q-220 0 -339.5 137t-119.5 365z M303 481q0 -108 27 -202t84 -158t135 -68q72 0 125 38.5t83 105.5t44 146t14 171q0 182 -43 332q-90 57 -199 57q-88 0 -151 -62.5t-91 -156t-28 -203.5z" />
<glyph unicode="&#xf1;" horiz-adv-x="1193" d="M72 883v73q135 23 204 23q32 0 55 -10t33 -24t16 -28t6 -24l1 -10v-142q37 103 125.5 170.5t171.5 67.5q162 0 239.5 -95t77.5 -270v-446q0 -45 35 -69.5t86 -24.5v-74q-48 -23 -137 -23q-69 0 -122.5 45t-53.5 142v502q0 99 -45 158t-121 59q-41 0 -84 -25t-82.5 -74 t-64.5 -135t-25 -194v-455h-192v883h-123zM250 1196q23 100 79 165.5t146 65.5q55 0 100.5 -23t82 -46t69.5 -23q97 0 125 92h78q-31 -231 -205 -231q-51 0 -95 23t-81.5 46t-73.5 23q-101 0 -139 -92h-86z" />
<glyph unicode="&#xf2;" horiz-adv-x="1126" d="M82 479q0 232 127.5 366t353.5 134q227 0 354 -132t127 -368q0 -241 -120.5 -371.5t-360.5 -130.5q-238 0 -359.5 133t-121.5 369zM281 485q0 -195 76 -313.5t206 -118.5t206.5 118t76.5 314q0 195 -76.5 306.5t-206.5 111.5q-128 0 -205 -113t-77 -305zM348 1485l182 20 l140 -327l-41 -21z" />
<glyph unicode="&#xf3;" horiz-adv-x="1126" d="M82 479q0 232 127.5 366t353.5 134q227 0 354 -132t127 -368q0 -241 -120.5 -371.5t-360.5 -130.5q-238 0 -359.5 133t-121.5 369zM281 485q0 -195 76 -313.5t206 -118.5t206.5 118t76.5 314q0 195 -76.5 306.5t-206.5 111.5q-128 0 -205 -113t-77 -305zM461 1178 l139 327l182 -20l-280 -328z" />
<glyph unicode="&#xf4;" horiz-adv-x="1126" d="M82 479q0 232 127.5 366t353.5 134q227 0 354 -132t127 -368q0 -241 -120.5 -371.5t-360.5 -130.5q-238 0 -359.5 133t-121.5 369zM281 485q0 -195 76 -313.5t206 -118.5t206.5 118t76.5 314q0 195 -76.5 306.5t-206.5 111.5q-128 0 -205 -113t-77 -305zM291 1178 l223 327h121l223 -327l-41 -21l-244 217l-241 -217z" />
<glyph unicode="&#xf5;" horiz-adv-x="1126" d="M82 479q0 232 127.5 366t353.5 134q227 0 354 -132t127 -368q0 -241 -120.5 -371.5t-360.5 -130.5q-238 0 -359.5 133t-121.5 369zM254 1196q23 100 79 165.5t146 65.5q55 0 100.5 -23t82 -46t69.5 -23q97 0 125 92h78q-31 -231 -205 -231q-51 0 -95 23t-81.5 46 t-73.5 23q-101 0 -139 -92h-86zM281 485q0 -195 76 -313.5t206 -118.5t206.5 118t76.5 314q0 195 -76.5 306.5t-206.5 111.5q-128 0 -205 -113t-77 -305z" />
<glyph unicode="&#xf6;" horiz-adv-x="1126" d="M82 479q0 232 127.5 366t353.5 134q227 0 354 -132t127 -368q0 -241 -120.5 -371.5t-360.5 -130.5q-238 0 -359.5 133t-121.5 369zM262 1315q0 45 33 77.5t78 32.5q46 0 78 -32t32 -78t-32 -78.5t-78 -32.5q-45 0 -78 33t-33 78zM281 485q0 -195 76 -313.5t206 -118.5 t206.5 118t76.5 314q0 195 -76.5 306.5t-206.5 111.5q-128 0 -205 -113t-77 -305zM629 1315q0 46 32 78t78 32q45 0 78 -32.5t33 -77.5t-33 -78t-78 -33q-46 0 -78 32.5t-32 78.5z" />
<glyph unicode="&#xf8;" horiz-adv-x="1126" d="M82 479q0 232 127.5 366t353.5 134q140 0 246 -53l43 65h78l16 -14l-65 -98q163 -129 163 -400q0 -241 -120.5 -371.5t-360.5 -130.5q-138 0 -248 50l-47 -70h-73l-19 18l66 99q-160 130 -160 405zM281 485q0 -165 53 -274l407 614q-72 78 -178 78q-128 0 -205 -113 t-77 -305zM385 133q74 -80 178 -80q130 0 206.5 118t76.5 314q0 158 -51 263z" />
<glyph unicode="&#xf9;" horiz-adv-x="1116" d="M61 883v73q13 2 51 8.5t73 10.5t65 4q32 0 55 -10t33 -24t15.5 -28t6.5 -24v-10v-580q0 -116 54 -182t147 -66q78 0 144.5 94.5t66.5 256.5v550l121 23l72 -23v-788q0 -45 34.5 -69.5t85.5 -24.5v-74q-47 -23 -112 -23q-63 0 -118 37.5t-75 116.5q-43 -72 -113.5 -113 t-148.5 -41q-169 0 -259.5 92.5t-90.5 274.5v539h-107zM328 1485l182 20l139 -327l-41 -21z" />
<glyph unicode="&#xfa;" horiz-adv-x="1116" d="M61 883v73q13 2 51 8.5t73 10.5t65 4q32 0 55 -10t33 -24t15.5 -28t6.5 -24v-10v-580q0 -116 54 -182t147 -66q78 0 144.5 94.5t66.5 256.5v550l121 23l72 -23v-788q0 -45 34.5 -69.5t85.5 -24.5v-74q-47 -23 -112 -23q-63 0 -118 37.5t-75 116.5q-43 -72 -113.5 -113 t-148.5 -41q-169 0 -259.5 92.5t-90.5 274.5v539h-107zM465 1178l139 327l182 -20l-280 -328z" />
<glyph unicode="&#xfb;" horiz-adv-x="1116" d="M61 883v73q13 2 51 8.5t73 10.5t65 4q32 0 55 -10t33 -24t15.5 -28t6.5 -24v-10v-580q0 -116 54 -182t147 -66q78 0 144.5 94.5t66.5 256.5v550l121 23l72 -23v-788q0 -45 34.5 -69.5t85.5 -24.5v-74q-47 -23 -112 -23q-63 0 -118 37.5t-75 116.5q-43 -72 -113.5 -113 t-148.5 -41q-169 0 -259.5 92.5t-90.5 274.5v539h-107zM289 1178l223 327h121l223 -327l-41 -21l-242 217l-243 -217z" />
<glyph unicode="&#xfc;" horiz-adv-x="1116" d="M61 883v73q13 2 51 8.5t73 10.5t65 4q32 0 55 -10t33 -24t15.5 -28t6.5 -24v-10v-580q0 -116 54 -182t147 -66q78 0 144.5 94.5t66.5 256.5v550l121 23l72 -23v-788q0 -45 34.5 -69.5t85.5 -24.5v-74q-47 -23 -112 -23q-63 0 -118 37.5t-75 116.5q-43 -72 -113.5 -113 t-148.5 -41q-169 0 -259.5 92.5t-90.5 274.5v539h-107zM279 1317q0 45 32.5 77.5t77.5 32.5q46 0 78.5 -32t32.5 -78t-32.5 -78.5t-78.5 -32.5q-45 0 -77.5 33t-32.5 78zM645 1317q0 46 32.5 78t78.5 32q45 0 77.5 -32.5t32.5 -77.5t-33 -78t-77 -33q-46 0 -78.5 32.5 t-32.5 78.5z" />
<glyph unicode="&#xfd;" horiz-adv-x="1085" d="M82 885v73q13 2 51 8.5t72.5 10.5t64.5 4q32 0 55 -10t33 -24t16 -28t6 -24l1 -10v-580q0 -66 18.5 -113.5t49 -71.5t62.5 -34t67 -10q40 0 82.5 24t81.5 70.5t64 128t25 182.5v475l121 23l72 -23v-1044q0 -90 -25 -162.5t-68 -120.5t-103 -80.5t-127 -46.5t-142 -14 q-155 0 -258.5 67t-103.5 189q0 72 55.5 129.5t128.5 83.5l41 -61q-44 -24 -68 -62t-24 -78q0 -67 60 -113t169 -46q56 0 103 16t86 50.5t61 95.5t22 145v119l41 233q-37 -113 -125 -184.5t-204 -71.5q-168 0 -261.5 90t-93.5 254v541h-106zM555 1178l139 327l183 -20 l-281 -328z" />
<glyph unicode="&#xfe;" horiz-adv-x="1122" d="M20 1434v73q135 23 205 23q32 0 55 -13t33 -31t16 -36.5t7 -31.5v-13v-664q38 104 133.5 171t181.5 67q381 0 381 -430q0 -151 -69 -276.5t-193.5 -199t-277.5 -73.5h-91v76h86q126 0 227 142t101 345q0 95 -15 160t-44.5 99t-65 47.5t-84.5 13.5q-39 0 -84 -27 t-87.5 -77.5t-70.5 -136t-28 -187.5v-777q0 -45 35 -69.5t86 -24.5v-73q-48 -23 -138 -23q-69 0 -122.5 44.5t-53.5 141.5v1760h-123z" />
<glyph unicode="&#xff;" horiz-adv-x="1085" d="M82 885v73q13 2 51 8.5t72.5 10.5t64.5 4q32 0 55 -10t33 -24t16 -28t6 -24l1 -10v-580q0 -66 18.5 -113.5t49 -71.5t62.5 -34t67 -10q40 0 82.5 24t81.5 70.5t64 128t25 182.5v475l121 23l72 -23v-1044q0 -90 -25 -162.5t-68 -120.5t-103 -80.5t-127 -46.5t-142 -14 q-155 0 -258.5 67t-103.5 189q0 72 55.5 129.5t128.5 83.5l41 -61q-44 -24 -68 -62t-24 -78q0 -67 60 -113t169 -46q56 0 103 16t86 50.5t61 95.5t22 145v119l41 233q-37 -113 -125 -184.5t-204 -71.5q-168 0 -261.5 90t-93.5 254v541h-106zM315 1317q0 45 33 77.5t78 32.5 q46 0 78.5 -32t32.5 -78t-32.5 -78.5t-78.5 -32.5q-45 0 -78 33t-33 78zM682 1317q0 46 32.5 78t78.5 32q45 0 77.5 -32.5t32.5 -77.5t-32.5 -78t-77.5 -33q-46 0 -78.5 32.5t-32.5 78.5z" />
<glyph unicode="&#x131;" horiz-adv-x="624" d="M94 883v73q135 23 205 23q32 0 55 -10t33 -24t16 -28t7 -24v-10v-883h-193v883h-123z" />
<glyph unicode="&#x152;" horiz-adv-x="1998" d="M123 717q0 115 27 223.5t83 204.5t135.5 168t192.5 113.5t246 41.5q129 0 235 -34h848v-308l-86 -16l-86 238h-442v-543h250l63 172l86 -14v-404l-86 -14l-63 172h-250v-631h453l112 307l86 -14v-379h-872q-110 -35 -248 -35q-142 0 -258.5 42t-194 113.5t-131 168.5 t-77 204t-23.5 224zM365 727q0 -333 106 -497t336 -164q155 0 252 69v1165q-98 68 -252 68q-229 0 -335.5 -155.5t-106.5 -485.5z" />
<glyph unicode="&#x153;" horiz-adv-x="1806" d="M82 479q0 232 127.5 366t353.5 134q257 0 383 -168q129 168 375 168q191 0 302.5 -69.5t111.5 -219.5q0 -73 -38 -127.5t-100 -88t-153 -54t-184 -28t-205 -7.5q23 -145 103.5 -228t215.5 -83q147 0 293 92l47 -68q-65 -59 -157.5 -90t-194.5 -31q-285 0 -414 160 q-120 -160 -385 -160q-238 0 -359.5 133t-121.5 369zM281 485q0 -195 76 -313.5t206 -118.5q129 0 207 119t78 330q0 186 -78.5 293.5t-206.5 107.5t-205 -113t-77 -305zM1047 457q206 2 351.5 74.5t145.5 183.5q0 94 -61 141t-170 47q-128 0 -197 -112.5t-69 -294.5v-39z " />
<glyph unicode="&#x178;" horiz-adv-x="1349" d="M10 1346l17 88h573l16 -88l-180 -68l277 -496v-133l348 629l-178 68l14 88h426l16 -88l-180 -68l-338 -612v-512l176 -70l-16 -84h-541l-14 84l178 70v374l-416 750zM401 1683q0 45 33 78t78 33q46 0 78.5 -32.5t32.5 -78.5t-32.5 -78t-78.5 -32q-45 0 -78 32.5t-33 77.5 zM768 1683q0 46 32.5 78.5t78.5 32.5q45 0 77.5 -33t32.5 -78t-32.5 -77.5t-77.5 -32.5q-46 0 -78.5 32t-32.5 78z" />
<glyph unicode="&#x192;" horiz-adv-x="919" d="M-49 -436q82 54 141 120.5t91.5 129.5t51.5 142t24 142t5 146v504h-143l-15 73h158v137q0 56 14 110t44 102.5t72.5 85t104 58t134.5 21.5q149 0 246 -78v-176l-74 -16l-43 154q-59 32 -121 32q-188 0 -188 -329v-101h247l-14 -73h-233v-539q0 -94 -10 -173.5t-40 -167 t-79.5 -155.5t-132.5 -128t-195 -97z" />
<glyph unicode="&#x2c6;" horiz-adv-x="765" d="M123 1219l223 327h121l223 -327l-41 -21l-241 217l-244 -217z" />
<glyph unicode="&#x2da;" horiz-adv-x="567" d="M74 1667q0 90 59.5 143.5t149.5 53.5q92 0 150.5 -53t58.5 -144q0 -92 -56 -144.5t-153 -52.5q-95 0 -152 53t-57 144zM172 1669q0 -61 30.5 -101t80.5 -40q52 0 82 39t30 102t-30.5 100t-81.5 37q-50 0 -80.5 -38t-30.5 -99z" />
<glyph unicode="&#x2dc;" horiz-adv-x="1017" d="M168 1196q23 100 79 165.5t146 65.5q55 0 100.5 -23t82 -46t69.5 -23q97 0 125 92h78q-31 -231 -205 -231q-51 0 -95 23t-81.5 46t-73.5 23q-101 0 -139 -92h-86z" />
<glyph unicode="&#x400;" horiz-adv-x="1189" d="M72 1348l178 -68v-1126l-174 -68l14 -86h1028v379l-86 14l-112 -307h-453v631h250l63 -172l86 14v404l-86 14l-63 -172h-250v543h442l86 -238l86 16v308h-993zM315 1880l195 21l223 -328l-41 -21z" />
<glyph unicode="&#x401;" horiz-adv-x="1189" d="M72 1348l16 86h993v-308l-86 -16l-86 238h-442v-543h250l63 172l86 -14v-404l-86 -14l-63 172h-250v-631h453l112 307l86 -14v-379h-1028l-14 86l174 68v1126zM295 1683q0 45 33 78t78 33q46 0 78 -32.5t32 -78.5t-32 -78t-78 -32q-45 0 -78 32.5t-33 77.5zM662 1683 q0 46 32 78.5t78 32.5q45 0 78 -33t33 -78t-33 -77.5t-78 -32.5q-46 0 -78 32t-32 78z" />
<glyph unicode="&#x402;" horiz-adv-x="1474" d="M82 1069v365h1171v-365l-86 -14l-112 293h-279v-476q125 66 244 66q169 0 271 -88t102 -248v-434q0 -93 -10.5 -169t-40 -157t-79 -143.5t-132.5 -118t-195 -92.5l-45 76q69 46 120.5 95t84 102t53 102t30 110.5t12.5 110.5t3 119v430q0 96 -54 152.5t-136 56.5 q-106 0 -228 -56v-632l178 -68l-14 -86h-545l-14 86l178 68v1194h-278l-113 -293z" />
<glyph unicode="&#x403;" horiz-adv-x="1093" d="M72 1350l16 84h954v-363l-86 -14l-114 293h-391v-1196l174 -68l-15 -86h-520l-14 86l174 68v1126zM453 1573l223 328l194 -21l-376 -328z" />
<glyph unicode="&#x404;" horiz-adv-x="1392" d="M123 717q0 115 29.5 223.5t91 205t148.5 168.5t210.5 114t269.5 42q55 0 107.5 -4.5t117.5 -19.5t113 -39t80.5 -68t32.5 -102q0 -73 -52.5 -117.5t-129.5 -44.5l-64 268q-125 25 -205 25q-238 0 -367.5 -145t-139.5 -439h331l68 172l84 -14v-403l-84 -15l-68 172h-331 q2 -97 17 -181t51.5 -164.5t92.5 -137t144.5 -91t201.5 -34.5q81 0 193 20.5t190 67.5l68 -90q-76 -55 -199.5 -88t-251.5 -33q-130 0 -240 29.5t-191 82t-143 123t-99.5 155.5t-56.5 175.5t-19 186.5z" />
<glyph unicode="&#x405;" horiz-adv-x="1124" d="M102 1100q0 91 36.5 162.5t101 115.5t148 67t181.5 23q31 0 58 -1t69.5 -6t77 -13t72.5 -24t63.5 -37.5t42.5 -55t17 -74.5q0 -73 -53 -117t-130 -44l-63 247q-83 25 -156 25q-131 0 -202.5 -73t-71.5 -181q0 -27 11 -53.5t25.5 -47t42.5 -44t48.5 -38.5t57.5 -36 t55 -30.5t56.5 -28t47.5 -23.5q75 -38 125 -67t106.5 -72.5t89 -87t54.5 -103.5t22 -129q0 -178 -125.5 -283.5t-384.5 -105.5q-40 0 -86 4.5t-107 19.5t-108.5 39t-80.5 68t-33 101q0 141 182 141l63 -248q80 -24 156 -24q154 0 245 63.5t91 179.5q0 43 -21.5 83t-50.5 69 t-79.5 61t-85.5 50t-93 46t-80 39q-127 65 -178 105q-142 110 -155 297q-1 20 -1 41z" />
<glyph unicode="&#x406;" horiz-adv-x="821" d="M123 86l180 68v1126l-180 68l16 86h543l16 -86l-180 -68v-1126l180 -68l-16 -86h-543z" />
<glyph unicode="&#x407;" horiz-adv-x="821" d="M100 1683q0 45 33 78t78 33q46 0 78.5 -32.5t32.5 -78.5t-32.5 -78t-78.5 -32q-45 0 -78 32.5t-33 77.5zM123 86l180 68v1126l-180 68l16 86h543l16 -86l-180 -68v-1126l180 -68l-16 -86h-543zM467 1683q0 46 32.5 78.5t78.5 32.5q44 0 77 -33t33 -78t-32.5 -77.5 t-77.5 -32.5q-46 0 -78.5 32t-32.5 78z" />
<glyph unicode="&#x408;" horiz-adv-x="753" d="M-10 -283q81 54 139.5 121t90.5 130.5t50 143t22.5 142t4.5 145.5v881l-178 68l16 86h541l16 -86l-180 -68v-934q0 -548 -477 -704z" />
<glyph unicode="&#x409;" horiz-adv-x="1892" d="M20 86q422 190 422 946v248l-178 70l15 84h991l16 -84l-178 -70v-1194h119q169 0 255.5 101t86.5 264q0 155 -88 238t-242 83h-57v86h108q78 0 151 -13.5t141 -44t118 -76.5t80 -116t30 -157q0 -76 -14.5 -139.5t-50 -122.5t-91 -100t-142.5 -65t-199 -24h-586l-12 86 l176 68v1196h-340v-394q0 -252 -55 -524.5t-158 -431.5h-303z" />
<glyph unicode="&#x40a;" horiz-adv-x="2142" d="M82 1348l14 86h545l14 -86l-178 -68v-469h670v469l-178 68l14 86h545l14 -86l-178 -68v-1194h119q171 0 256.5 94t85.5 254q0 154 -87 229.5t-243 75.5h-57v86h108q79 0 151 -11.5t140.5 -40t118.5 -72t80 -112t30 -155.5q0 -434 -497 -434h-586l-14 86l178 68v571h-670 v-571l174 -68l-14 -86h-537l-16 86l176 68v1126z" />
<glyph unicode="&#x40b;" horiz-adv-x="1566" d="M82 1069v365h1171v-365l-86 -14l-112 293h-279v-476q125 66 244 66q169 0 271 -88t102 -248v-485l133 -43l-15 -74h-309l-14 74v559q0 96 -51.5 152.5t-132.5 56.5q-110 0 -228 -56v-632l178 -68l-14 -86h-545l-14 86l178 68v1194h-278l-113 -293z" />
<glyph unicode="&#x40c;" horiz-adv-x="1394" d="M72 88l178 66v1126l-178 70l14 84h545l14 -86l-178 -68v-1126l178 -66l-14 -88h-545zM553 707v86l477 487l-178 70l14 84h453l14 -84l-65 -27q-113 -45 -197 -129l-409 -418l149 -65l373 -555l178 -70l-16 -86h-392l15 86zM592 1573l223 328l195 -21l-377 -328z" />
<glyph unicode="&#x40d;" horiz-adv-x="1689" d="M84 1350l178 -70v-1126l-174 -68l14 -86h537l16 86l-176 68v110l731 737v-847l-174 -68l15 -86h538l15 86l-177 68v1126l179 70l-15 84h-542l-17 -84l178 -70v-90l-731 -737v827l180 70l-16 84h-543zM496 1880l194 21l223 -328l-41 -21z" />
<glyph unicode="&#x40e;" horiz-adv-x="1267" d="M10 1350l17 84h567l14 -84l-180 -70l258 -666v-79l297 745l-178 70l14 84h422l16 -84l-180 -70l-432 -1081q-74 -185 -149 -234l-271 35l-14 86q44 0 99 14t111.5 40t104 70t68.5 97l29 70l-76 16l-359 887zM262 1729l109 112h80q34 -60 94.5 -97.5t134.5 -37.5 q78 0 130.5 25t121.5 84l43 -48q-70 -83 -169 -138.5t-194 -55.5q-240 0 -350 156z" />
<glyph unicode="&#x40f;" horiz-adv-x="1601" d="M82 1350l16 86h543l14 -86l-178 -70v-1194h647v1194l-178 70l15 86h542l17 -86l-179 -70v-1126l175 -68l-15 -86h-612l-58 -356h-90l-57 356h-584l-14 86l174 68v1126z" />
<glyph unicode="&#x410;" horiz-adv-x="1511" d="M31 86l176 68l473 1280l178 34l461 -1314l176 -68l-16 -86h-557l-15 86l176 68l-114 329h-537l-117 -329l211 -68l-14 -86h-467zM465 569h473l-207 602v105z" />
<glyph unicode="&#x411;" horiz-adv-x="1282" d="M80 86l178 68v1126l-178 70l14 84h1012v-308l-86 -14l-92 236h-455v-1262h141q172 0 258 96t86 258q0 153 -88 231.5t-243 78.5h-78v88h129q79 0 151 -12.5t140.5 -42.5t118.5 -74.5t80 -113.5t30 -155q0 -440 -498 -440h-606z" />
<glyph unicode="&#x412;" horiz-adv-x="1374" d="M72 1348l14 86h702q150 0 251.5 -94.5t101.5 -229.5q0 -114 -71.5 -202t-180.5 -113v-9q163 0 278 -115t115 -278q0 -167 -126.5 -280t-334.5 -113h-731l-16 86l176 68v1126zM467 86h295q122 0 201 96t79 234q0 137 -93.5 235.5t-233.5 98.5h-142v86h72q106 0 181 75 t75 181q0 115 -65.5 185.5t-206.5 70.5h-162v-1262z" />
<glyph unicode="&#x413;" horiz-adv-x="1093" d="M72 1350l16 84h954v-363l-86 -14l-114 293h-391v-1196l174 -68l-15 -86h-520l-14 86l174 68v1126z" />
<glyph unicode="&#x414;" horiz-adv-x="1417" d="M29 86h116q98 93 165.5 290t96.5 425t29 479l-178 70l14 84h1037l16 -84l-178 -70v-1194h158v-428l-86 -14l-138 356h-829l-137 -356l-86 14v428zM289 86h641v1262h-385q0 -420 -62.5 -752t-193.5 -510z" />
<glyph unicode="&#x415;" horiz-adv-x="1189" d="M72 1348l16 86h993v-308l-86 -16l-86 238h-442v-543h250l63 172l86 -14v-404l-86 -14l-63 172h-250v-631h453l112 307l86 -14v-379h-1028l-14 86l174 68v1126z" />
<glyph unicode="&#x416;" horiz-adv-x="1941" d="M31 86l176 68l352 565l125 63l-377 406q-79 89 -207 137l-59 25l16 84h465l15 -84l-170 -70l442 -475v-86l-391 -633l14 -86h-387zM696 1350l15 84h520l16 -84l-178 -70v-1126l176 -68l-16 -86h-516l-15 86l176 68v1126zM1133 719v86l444 475l-178 70l14 84h473l15 -84 l-60 -25q-119 -45 -205 -137l-376 -406l122 -63l355 -565l174 -68l-15 -86h-387l17 86z" />
<glyph unicode="&#x417;" horiz-adv-x="1105" d="M49 86v293l86 14l98 -274q130 -53 236 -53q92 0 160.5 52t100.5 131.5t32 172.5q0 139 -80.5 233.5t-212.5 94.5h-117v88h58q105 0 191.5 92.5t86.5 199.5q0 110 -55.5 175t-165.5 65t-211 -39l-98 -274l-86 14v277q209 122 395 122q125 0 216.5 -25.5t144.5 -72 t77.5 -105.5t24.5 -132q0 -128 -76 -211.5t-201 -114.5v-18q145 -21 248 -126t103 -259q0 -64 -19 -125.5t-61 -119t-102.5 -101t-151.5 -69.5t-201 -26q-124 0 -233 32t-187 89z" />
<glyph unicode="&#x418;" horiz-adv-x="1689" d="M84 1350l16 84h543l16 -84l-180 -70v-827l731 737v90l-178 70l17 84h542l15 -84l-179 -70v-1126l177 -68l-15 -86h-538l-15 86l174 68v847l-731 -737v-110l176 -68l-16 -86h-537l-14 86l174 68v1126z" />
<glyph unicode="&#x419;" horiz-adv-x="1689" d="M84 1350l16 84h543l16 -84l-180 -70v-827l731 737v90l-178 70l17 84h542l15 -84l-179 -70v-1126l177 -68l-15 -86h-538l-15 86l174 68v847l-731 -737v-110l176 -68l-16 -86h-537l-14 86l174 68v1126zM475 1729l109 112h80q34 -60 94.5 -97.5t134.5 -37.5q78 0 130.5 25 t121.5 84l43 -48q-70 -83 -169 -138.5t-194 -55.5q-240 0 -350 156z" />
<glyph unicode="&#x41a;" horiz-adv-x="1394" d="M72 88l178 66v1126l-178 70l14 84h545l14 -86l-178 -68v-1126l178 -66l-14 -88h-545zM553 707v86l477 487l-178 70l14 84h453l14 -84l-65 -27q-113 -45 -197 -129l-409 -418l149 -65l373 -555l178 -70l-16 -86h-392l15 86z" />
<glyph unicode="&#x41b;" horiz-adv-x="1368" d="M20 86q422 190 422 946v248l-178 70l15 84h991l16 -84l-178 -70v-1126l174 -68l-14 -86h-539l-14 86l176 68v1196h-340v-394q0 -252 -55 -524.5t-158 -431.5h-303z" />
<glyph unicode="&#x41c;" horiz-adv-x="1947" d="M59 86l177 68l120 1126l-178 68l15 86h370l361 -1061v-150l454 1211h381l17 -86l-179 -68l97 -1126l174 -68l-15 -86h-538l-15 86l175 68l-91 1046l-452 -1200l-101 -35l-401 1188l-106 -999l174 -68l-15 -86h-407z" />
<glyph unicode="&#x41d;" horiz-adv-x="1644" d="M82 1348l14 86h545l14 -86l-178 -68v-498h690v498l-178 68l15 86h544l15 -86l-179 -68v-1126l175 -68l-15 -86h-540l-15 86l178 68v542h-690v-542l174 -68l-14 -86h-537l-16 86l176 68v1126z" />
<glyph unicode="&#x41e;" d="M123 717q0 115 27 223.5t83 204.5t135.5 168t192.5 113.5t246 41.5q167 0 298 -57.5t214 -159.5t126.5 -237.5t43.5 -296.5q0 -130 -24 -241.5t-76.5 -206.5t-131 -162t-193 -104.5t-257.5 -37.5q-142 0 -258.5 42t-194 113.5t-131 168.5t-77 204t-23.5 224zM365 727 q0 -333 106 -497t336 -164q228 0 335 167.5t107 493.5q0 323 -107.5 482t-334.5 159q-229 0 -335.5 -155.5t-106.5 -485.5z" />
<glyph unicode="&#x41f;" d="M82 1350l14 84h1417l17 -84l-178 -70v-1126l174 -68l-15 -86h-536l-17 86l177 68v1194h-658v-1194l174 -68l-14 -86h-537l-16 86l176 68v1126z" />
<glyph unicode="&#x420;" horiz-adv-x="1234" d="M72 1348l16 86h635q218 0 334.5 -118.5t116.5 -322.5q0 -93 -28.5 -166.5t-76.5 -121t-116.5 -79t-144 -44.5t-163.5 -13h-90v86h96q93 0 165.5 49.5t109.5 126t37 162.5q0 163 -75 259t-233 96h-186v-1194l178 -68l-16 -86h-541l-14 86l176 68v1126z" />
<glyph unicode="&#x421;" horiz-adv-x="1335" d="M123 717q0 116 27.5 224t86 204t142.5 167.5t205.5 113.5t267.5 42q45 0 88 -3t97.5 -11.5t99 -25t83.5 -41t61 -63t22 -87.5q0 -73 -53 -117.5t-130 -44.5l-63 268q-125 25 -205 25q-247 0 -367 -157t-120 -484q0 -72 5.5 -135t20 -129.5t38 -120.5t61.5 -102.5 t88 -81.5t119.5 -52.5t154.5 -19.5q79 0 191.5 21t191.5 69l68 -90q-76 -55 -199.5 -88t-251.5 -33q-155 0 -279.5 42t-207.5 113t-138.5 168.5t-79.5 204t-24 224.5z" />
<glyph unicode="&#x422;" horiz-adv-x="1335" d="M82 1069v365h1171v-365l-86 -14l-112 293h-279v-1194l178 -68l-14 -86h-545l-14 86l178 68v1194h-278l-113 -293z" />
<glyph unicode="&#x423;" horiz-adv-x="1114" d="M10 1350l17 84h567l14 -84l-180 -70l258 -666v-79l297 745l-178 70l14 84h422l16 -84l-180 -70l-432 -1081q-74 -185 -149 -234l-271 35l-14 86q44 0 99 14t111.5 40t104 70t68.5 97l29 70l-76 16l-359 887z" />
<glyph unicode="&#x424;" horiz-adv-x="1800" d="M113 717q0 80 20.5 155.5t63.5 142t103.5 116.5t146 79t186.5 29q89 0 160 -18v94l-179 69l15 84h545l14 -84l-178 -69v-94q70 18 157 18q101 0 187 -29t147 -79t103.5 -116.5t63 -142t20.5 -155.5q0 -102 -30 -192.5t-90.5 -165t-163.5 -118.5t-237 -44q-81 0 -157 18 v-61l174 -68l-15 -86h-536l-17 86l177 68v61q-77 -18 -160 -18q-133 0 -236 44t-163.5 118.5t-90.5 165t-30 192.5zM324 725q0 -69 10.5 -130.5t37 -119.5t67 -99.5t105 -67t146.5 -25.5q41 0 103 10v850q-62 10 -105 10q-364 0 -364 -428zM1010 293q62 -10 102 -10 q101 0 175 37.5t114.5 102.5t59 140t18.5 162q0 428 -367 428q-40 0 -102 -10v-850z" />
<glyph unicode="&#x425;" horiz-adv-x="1374" d="M20 1346l17 88h584l14 -86l-178 -70l274 -430l332 430l-176 70l14 86h438l15 -86l-178 -70l-394 -510l392 -614l176 -68l-17 -86h-581l-15 84l176 70l-274 430l-330 -432l178 -68l-14 -84h-436l-14 84l174 70l393 508l-393 616z" />
<glyph unicode="&#x426;" horiz-adv-x="1601" d="M82 1350l16 86h543l14 -86l-178 -70v-1194h647v1194l-178 70l15 86h542l17 -86l-179 -70v-1194h179v-428l-86 -14l-140 356h-1194l-14 86l174 68v1126z" />
<glyph unicode="&#x427;" horiz-adv-x="1425" d="M41 1350l16 84h543l14 -84l-178 -68v-393q0 -107 69 -163t161 -56q69 0 152 23t130 50v537l-180 70l16 86h543l16 -86l-178 -70v-1126l174 -68l-14 -86h-539l-14 86l176 68v483q-56 -27 -144.5 -45.5t-156.5 -18.5q-84 0 -160.5 22t-136.5 63t-95.5 105.5t-35.5 143.5 v375z" />
<glyph unicode="&#x428;" horiz-adv-x="2179" d="M74 1350l14 86h543l16 -86l-178 -70v-1192h508v1192l-178 70l14 86h545l14 -86l-178 -70v-1192h508v1192l-178 70l14 86h543l16 -86l-178 -70v-1126l174 -68l-14 -86h-1987l-16 86l176 68v1126z" />
<glyph unicode="&#x429;" horiz-adv-x="2179" d="M74 1350l14 86h545l14 -86l-178 -70v-1192h508v1192l-178 70l14 86h545l14 -86l-178 -70v-1192h508v1192l-178 70l14 86h545l14 -86l-178 -70v-1194h178v-428l-86 -14l-137 356h-1782l-16 86l176 68v1126z" />
<glyph unicode="&#x42a;" horiz-adv-x="1359" d="M20 1126v308h717l17 -84l-179 -70v-1194h117q171 0 257.5 101t86.5 264q0 156 -87.5 238.5t-241.5 82.5h-58v86h109q78 0 150.5 -13.5t140.5 -44t118 -76.5t80.5 -116t30.5 -157q0 -75 -14.5 -139t-50.5 -123t-91.5 -100t-142.5 -65t-199 -24h-581l-17 86l176 68v1194 h-159l-93 -236z" />
<glyph unicode="&#x42b;" horiz-adv-x="1845" d="M72 1350l14 84h545l14 -84l-178 -70v-1194h119q171 0 256.5 96t85.5 258q0 153 -87.5 231.5t-242.5 78.5h-55v88h106q79 0 151 -12.5t140.5 -42.5t118.5 -74.5t80 -113.5t30 -155q0 -440 -497 -440h-582l-14 86l174 68v1126zM1200 86l14 -86h545l15 86l-179 68v1126 l179 70l-15 84h-545l-14 -84l178 -70v-1126z" />
<glyph unicode="&#x42c;" horiz-adv-x="1251" d="M72 1350l14 84h543l16 -84l-178 -70v-1194h119q169 0 255.5 101t86.5 264q0 155 -88 238t-242 83h-57v86h108q78 0 151 -13.5t141 -44t118 -76.5t80 -116t30 -157q0 -76 -14.5 -139.5t-50 -122.5t-91 -100t-142.5 -65t-199 -24h-586l-12 86l176 68v1126z" />
<glyph unicode="&#x42d;" horiz-adv-x="1363" d="M82 197q0 141 182 141l64 -248q80 -24 204 -24q113 0 202 37t144.5 96.5t92.5 143.5t52 170t17 183h-331l-68 -172l-84 15v403l84 14l68 -172h331q-21 584 -499 584q-143 0 -267 -39l-98 -272l-86 14v277q110 64 213.5 93t237.5 29q146 0 268.5 -42t208.5 -114 t146.5 -168.5t89 -205t28.5 -223.5q0 -116 -26.5 -223t-85 -204.5t-144 -169t-212.5 -113.5t-282 -42q-41 0 -90 4.5t-115.5 19.5t-118.5 39t-89 68t-37 101z" />
<glyph unicode="&#x42e;" horiz-adv-x="2136" d="M82 86l178 68v1126l-178 70l16 84h543l14 -86l-178 -68v-504h279q6 109 33 209t80 189t126.5 154.5t178.5 103.5t231 38q134 0 242.5 -37.5t183.5 -104.5t125.5 -162t74 -207t23.5 -242q0 -132 -20.5 -241.5t-68 -206t-121 -162.5t-185 -104t-254.5 -38q-139 0 -250 40.5 t-183.5 108.5t-121.5 163t-70.5 197.5t-23.5 217.5h-279v-538l178 -68l-14 -86h-543zM995 729q0 -340 92 -500.5t318 -160.5q115 0 195 42.5t127 129t67.5 205.5t20.5 284q0 329 -93 484t-317 155q-225 0 -317.5 -152t-92.5 -487z" />
<glyph unicode="&#x42f;" horiz-adv-x="1310" d="M20 86l185 68l266 436l150 69q-87 0 -167 24t-145 69t-104 117t-39 161q0 189 115 296.5t335 107.5h633l17 -86l-179 -68v-1126l179 -68l-17 -86h-542l-15 86l178 68v1196h-176q-160 0 -239.5 -87.5t-79.5 -232.5q0 -113 96.5 -199t237.5 -86h73v-86l-364 -573l14 -84 h-397z" />
<glyph unicode="&#x430;" horiz-adv-x="1044" d="M63 428q0 142 36.5 250t101.5 172.5t148 96.5t183 32q117 0 179 -33l120 33l72 -23v-788q0 -45 31.5 -69.5t81.5 -24.5v-74q-47 -23 -113 -23q-61 0 -110.5 37t-69.5 117q-34 -71 -104.5 -112.5t-147.5 -41.5q-79 0 -149 25t-129.5 76t-94.5 141t-35 209zM262 438 q0 -102 19.5 -176t53.5 -113.5t72.5 -57t84.5 -17.5q87 0 153 82t66 243v457q-48 27 -84.5 37t-83.5 10q-41 0 -79.5 -14t-76 -48t-64.5 -86t-44 -133.5t-17 -183.5z" />
<glyph unicode="&#x431;" horiz-adv-x="1060" d="M72 496q0 82 1.5 143t6.5 134.5t15 129t25.5 115.5t40 106t56.5 89.5t76 76.5t98 56q76 32 163 52t136 27.5t91.5 33t60.5 73.5h73q-5 -60 -15 -102t-31.5 -76t-48 -57t-73 -43.5t-97 -35.5t-130.5 -34q-209 -50 -282 -205l-43 -211q46 101 137 156t198 55 q221 0 340 -136.5t119 -363.5q0 -228 -119.5 -365t-339.5 -137q-221 0 -339.5 142t-118.5 377zM266 485q0 -186 69.5 -309t194.5 -123q84 0 139.5 59.5t79 153.5t23.5 219q0 191 -59.5 304.5t-182.5 113.5q-125 0 -194.5 -117t-69.5 -301z" />
<glyph unicode="&#x432;" horiz-adv-x="1028" d="M82 469q0 124 41.5 224t108.5 161t146 93t161 32q178 0 267 -69.5t89 -168.5q0 -77 -44.5 -135.5t-117.5 -75.5q113 -13 188.5 -74t75.5 -171q0 -136 -119.5 -222t-312.5 -86q-241 0 -362 119t-121 373zM281 475q0 -70 15.5 -137t47 -128t89 -98.5t132.5 -37.5 q96 0 156.5 55.5t60.5 167.5q0 88 -62.5 140t-154.5 52h-157v76h131q69 0 109 46t40 118t-44 113t-126 41q-69 0 -118.5 -41t-73.5 -107.5t-34.5 -130.5t-10.5 -129z" />
<glyph unicode="&#x433;" horiz-adv-x="808" d="M82 219q0 37 9.5 71t31.5 64t41.5 52t56.5 49t58.5 41t64.5 40.5t59 36.5q87 55 121.5 107t34.5 117q0 47 -38 77.5t-118 30.5q-100 0 -231 -108l-47 67q127 115 283 115q152 0 233.5 -60.5t81.5 -177.5q0 -182 -199 -313q-24 -16 -68.5 -40t-76 -43t-65 -44.5t-51 -56 t-17.5 -66.5q0 -58 45.5 -91.5t140.5 -33.5q61 0 133 33.5t115 79.5l47 -68q-46 -55 -132.5 -88t-174.5 -33q-177 0 -257.5 59t-80.5 183z" />
<glyph unicode="&#x434;" horiz-adv-x="1081" d="M82 479q0 230 124 365t347 135q99 0 201 -45q-72 181 -200 305.5t-323 210.5l37 80q168 -52 299.5 -137t229.5 -208.5t150 -292.5t52 -376q0 -249 -118 -394t-340 -145q-220 0 -339.5 137t-119.5 365zM295 481q0 -108 27 -202t84 -158t135 -68q72 0 125 38.5t83 105.5 t44 146t14 171q0 182 -43 332q-90 57 -199 57q-88 0 -151 -62.5t-91 -156t-28 -203.5z" />
<glyph unicode="&#x435;" horiz-adv-x="1050" d="M72 479q0 232 136 366t355 134q398 0 398 -289q0 -73 -36.5 -127.5t-96.5 -88t-148.5 -54t-179.5 -28t-203 -7.5q23 -145 103.5 -228t215.5 -83q147 0 293 92l47 -68q-65 -59 -157.5 -90t-194.5 -31q-264 0 -398 133.5t-134 368.5zM289 457q204 2 341.5 74t137.5 184 q0 188 -213 188q-128 0 -197 -112.5t-69 -294.5v-39z" />
<glyph unicode="&#x436;" horiz-adv-x="1619" d="M31 137q0 46 33 77.5t77 31.5l58 -148q28 -24 73 -24q85 0 121.5 108t36.5 316q0 93 -5.5 156.5t-20.5 119t-45 82.5t-76 27q-44 0 -80 -13.5t-54.5 -28t-44.5 -40.5l-57 57q100 121 248 121q167 0 242 -104t81 -334h105v415l98 23l72 -23v-415h104q19 438 346 438 q53 0 101.5 -15t84.5 -53t36 -92q0 -46 -33.5 -77t-77.5 -31l-57 147q-29 25 -74 25q-35 0 -60 -18t-40 -48.5t-23 -84t-11 -112t-3 -143.5q0 -403 168 -403q44 0 80 13.5t53.5 27.5t44.5 41l57 -58q-100 -121 -248 -121q-178 0 -262 120t-84 374h-102v-471h-170v471h-102 q-5 -236 -98 -365t-271 -129q-85 0 -153 40.5t-68 119.5z" />
<glyph unicode="&#x437;" horiz-adv-x="806" d="M61 98l48 68q146 -92 256 -92q94 0 146 57t52 150q0 90 -59 149t-152 59h-61v74h39q71 0 127.5 55.5t56.5 133.5q0 72 -44 111.5t-110 39.5q-57 0 -120 -24l-64 -168q-43 0 -73.5 30.5t-30.5 71.5q0 55 44 93.5t109.5 55.5t145.5 17q152 0 244 -63.5t92 -159.5 q0 -170 -172 -215v-13q93 -12 157 -87.5t64 -180.5q0 -53 -22.5 -102.5t-65.5 -90.5t-115 -65.5t-162 -24.5q-197 0 -330 121z" />
<glyph unicode="&#x438;" horiz-adv-x="1105" d="M41 883v73q13 2 51 8.5t72.5 10.5t64.5 4q32 0 55 -10t33 -24t16 -28t7 -24v-10v-580q0 -116 54 -182t147 -66q78 0 144.5 94.5t66.5 256.5v550l120 23l72 -23v-788q0 -45 35 -69.5t86 -24.5v-74q-47 -23 -113 -23q-62 0 -117 37.5t-75 116.5q-43 -72 -113.5 -113 t-148.5 -41q-170 0 -260.5 92.5t-90.5 274.5v539h-106z" />
<glyph unicode="&#x439;" horiz-adv-x="1126" d="M41 883v73q13 2 51 8.5t72.5 10.5t64.5 4q32 0 55 -10t33 -24t16 -28t7 -24v-10v-580q0 -116 54 -182t147 -66q78 0 144.5 94.5t66.5 256.5v550l120 23l72 -23v-788q0 -45 35 -69.5t86 -24.5v-74q-47 -23 -113 -23q-62 0 -117 37.5t-75 116.5q-43 -72 -113.5 -113 t-148.5 -41q-170 0 -260.5 92.5t-90.5 274.5v539h-106zM229 1333q1 5 4 12.5t17 27t32.5 34.5t54 27t79.5 12q35 -61 95.5 -102t133.5 -41q79 0 139.5 29.5t114.5 86.5l33 -33q-47 -85 -148 -146.5t-204 -61.5q-242 0 -351 155z" />
<glyph unicode="&#x43a;" horiz-adv-x="1038" d="M33 883v73q135 23 207 23q32 0 55 -10t33 -24t15.5 -28t6.5 -24v-10v-883h-192v883h-125zM416 459v69q19 48 58 116t96 147t130.5 133.5t141.5 54.5q47 0 81.5 -34t34.5 -81t-33.5 -79.5t-80.5 -32.5l-64 112q-54 -23 -116.5 -94.5t-103 -138t-58.5 -111.5l143 -53 l244 -350q14 -19 43.5 -30t52.5 -12l23 -1v-74q-57 -23 -127 -23q-131 0 -197 97z" />
<glyph unicode="&#x43b;" horiz-adv-x="983" d="M20 109q0 54 39 92.5t93 38.5l81 -90q84 143 84 452q0 85 21 152t53.5 108.5t76 68.5t86 37.5t85.5 10.5q84 0 192 -23v-788q0 -45 35 -69.5t86 -24.5v-74q-48 -23 -137 -23q-69 0 -122.5 45t-53.5 142v739q-103 0 -165 -74.5t-62 -218.5q0 -71 -8.5 -150.5t-29 -166.5 t-50 -156.5t-77.5 -114.5t-106 -45q-53 0 -87 38.5t-34 93.5z" />
<glyph unicode="&#x43c;" horiz-adv-x="1449" d="M31 109q0 54 38.5 92.5t92.5 38.5l88 -62q58 144 79 285.5t23 357.5q-9 27 -46.5 42.5t-71.5 17.5l-33 2v73q94 23 184 23q58 0 99.5 -28t54.5 -68l213 -647v-86l260 806l137 23l115 -811q6 -45 40.5 -69.5t84.5 -24.5v-74q-48 -23 -136 -23q-65 0 -116.5 44.5 t-65.5 142.5l-76 512l-219 -676l-141 -23l-207 615q-11 -119 -30 -221t-50 -194.5t-79 -146t-107 -53.5q-57 0 -94 34t-37 98z" />
<glyph unicode="&#x43d;" horiz-adv-x="1218" d="M72 883v73q135 23 204 23q32 0 55 -10t33 -24t16 -28t6 -24l1 -10v-340h477v413l121 23l72 -23v-788q0 -45 35 -69.5t86 -24.5v-74q-48 -23 -138 -23q-69 0 -122.5 45t-53.5 142v305h-477v-469h-192v883h-123z" />
<glyph unicode="&#x43e;" horiz-adv-x="1126" d="M82 479q0 232 127.5 366t353.5 134q227 0 354 -132t127 -368q0 -241 -120.5 -371.5t-360.5 -130.5q-238 0 -359.5 133t-121.5 369zM281 485q0 -195 76 -313.5t206 -118.5t206.5 118t76.5 314q0 195 -76.5 306.5t-206.5 111.5q-128 0 -205 -113t-77 -305z" />
<glyph unicode="&#x43f;" horiz-adv-x="1193" d="M72 883v73q135 23 204 23q32 0 55 -10t33 -24t16 -28t6 -24l1 -10v-142q37 103 125.5 170.5t171.5 67.5q162 0 239.5 -95t77.5 -270v-446q0 -45 35 -69.5t86 -24.5v-74q-48 -23 -137 -23q-69 0 -122.5 45t-53.5 142v502q0 99 -45 158t-121 59q-41 0 -84 -25t-82.5 -74 t-64.5 -135t-25 -194v-455h-192v883h-123z" />
<glyph unicode="&#x440;" horiz-adv-x="1134" d="M41 883v73q135 23 205 23q32 0 55 -13t33 -31.5t15.5 -36.5t6.5 -31v-13v-113q38 104 134 171t182 67q381 0 381 -430q0 -151 -69.5 -276.5t-194 -199t-277.5 -73.5h-90v76h86q126 0 227 142t101 345q0 95 -15 160t-44.5 99t-65 47.5t-84.5 13.5q-39 0 -84 -27t-88 -77.5 t-71 -136t-28 -187.5v-777q0 -45 35 -69.5t86 -24.5v-73q-48 -23 -137 -23q-69 0 -122.5 44.5t-53.5 141.5v1209h-123z" />
<glyph unicode="&#x441;" horiz-adv-x="933" d="M82 477q0 235 142 368.5t384 133.5q80 0 145.5 -17t109.5 -55.5t44 -93.5q0 -41 -30.5 -71.5t-73.5 -30.5l-64 168q-63 24 -125 24q-153 0 -235 -101t-82 -284q0 -78 8.5 -141t30.5 -121t57 -97t91.5 -62t131.5 -23q74 0 136.5 23.5t134.5 68.5l47 -68 q-133 -121 -330 -121q-263 0 -392.5 132t-129.5 368z" />
<glyph unicode="&#x442;" horiz-adv-x="1730" d="M72 883v73q135 23 204 23q32 0 55 -10t33 -24t16 -28t6 -24l1 -10v-142q31 110 111.5 174t167.5 64q247 0 292 -234q32 108 116 171t175 63q166 0 243 -97.5t77 -269.5v-444q0 -45 35 -69.5t86 -24.5v-74q-48 -23 -138 -23q-69 0 -122.5 45t-53.5 142v465q0 116 -44 185 t-128 69q-39 0 -77.5 -22.5t-72 -66t-54.5 -117t-21 -165.5v-512h-193v674q0 91 -48.5 150t-121.5 59q-86 0 -157.5 -113.5t-71.5 -314.5v-455h-192v883h-123z" />
<glyph unicode="&#x443;" horiz-adv-x="1085" d="M41 885v73q13 2 51 8.5t72.5 10.5t64.5 4q32 0 55 -10t33 -24t16 -28t7 -24v-10v-580q0 -66 18.5 -113.5t49 -71.5t62.5 -34t67 -10q40 0 83 24t82 70.5t64 128t25 182.5v475l120 23l72 -23v-1044q0 -90 -25 -162.5t-68 -120.5t-103 -80.5t-127 -46.5t-142 -14 q-155 0 -258.5 67t-103.5 189q0 72 55.5 129.5t128.5 83.5l41 -61q-44 -24 -68 -62t-24 -78q0 -67 60 -113t169 -46q56 0 103 16t86.5 50.5t61.5 96t22 144.5v119l40 233q-37 -113 -125 -184.5t-204 -71.5q-168 0 -261.5 90t-93.5 254v541h-106z" />
<glyph unicode="&#x444;" horiz-adv-x="1449" d="M61 459q0 256 110 388t316 132q73 0 142 -27v385h-123v74q135 23 205 23q32 0 55 -10t33 -24t15.5 -28.5t5.5 -24.5l1 -10v-338l-45 -194q17 50 47 86t64.5 54t66.5 26t64 8q178 0 274.5 -118.5t96.5 -342.5q0 -258 -111 -399.5t-315 -141.5q-73 0 -142 27v-326 q0 -45 35 -69.5t86 -24.5v-73q-48 -23 -137 -23q-69 0 -122.5 44.5t-53.5 141.5v283l45 195q-23 -66 -68.5 -107.5t-87.5 -54.5t-86 -13q-176 0 -273.5 127.5t-97.5 354.5zM281 473q0 -420 172 -420q59 0 100 44t58.5 111t17.5 150v490q-60 35 -142 35q-90 0 -148 -104 t-58 -306zM821 109q60 -35 142 -35q89 0 147.5 113t58.5 317q0 194 -39.5 296.5t-132.5 102.5q-59 0 -100 -44t-58.5 -111t-17.5 -150v-489z" />
<glyph unicode="&#x445;" horiz-adv-x="987" d="M20 92q0 47 34 80t81 33l64 -113q52 37 109.5 162.5t80.5 237.5l-256 391h-113v73q7 1 36.5 6.5t46.5 8t44.5 5.5t51.5 3q42 0 76 -19.5t48.5 -38t24.5 -38.5l176 -262q57 140 147 249t179 109q47 0 82 -34t35 -81t-33.5 -79.5t-81.5 -32.5l-64 112q-53 -37 -110 -134.5 t-90 -201.5l254 -372q30 -44 55.5 -63t69.5 -19v-74q-48 -23 -136 -23q-101 0 -165 97l-213 323q-50 -170 -137 -295t-179 -125q-47 0 -82 34t-35 81z" />
<glyph unicode="&#x446;" horiz-adv-x="1126" d="M41 883v73q13 2 51 8.5t72.5 10.5t64.5 4q32 0 55 -10t33 -24t16 -28t7 -24v-10v-580q0 -116 54 -182t147 -66q78 0 144.5 94.5t66.5 256.5v550l120 23l72 -23v-788q0 -45 35 -69.5t86 -24.5v-74q0 -132 -58 -199t-165 -67q-49 0 -115.5 29.5t-128.5 29.5 q-107 0 -166 -59l-29 18q17 40 44 75t78.5 64t113.5 29q61 0 120.5 -23.5t98.5 -23.5q61 0 93.5 31.5t37.5 77.5q-30 -5 -37 -5q-62 0 -117 37.5t-75 116.5q-43 -72 -113.5 -113t-148.5 -41q-170 0 -260.5 92.5t-90.5 274.5v539h-106z" />
<glyph unicode="&#x447;" horiz-adv-x="1062" d="M20 883v73l51 8.5t74.5 10.5t65.5 4q32 0 55 -10t33 -24t16 -28t7 -24v-10v-275q0 -246 161 -246q36 0 70.5 17t65.5 53t50 100.5t19 149.5v274l121 23l72 -23v-788q0 -45 34.5 -69.5t85.5 -24.5v-74q-48 -23 -137 -23q-69 0 -122.5 45t-53.5 142v264q-32 -68 -97 -108.5 t-124 -40.5q-166 0 -253 99t-87 288v217h-107z" />
<glyph unicode="&#x448;" horiz-adv-x="1570" d="M41 883v73q13 2 51 8.5t72.5 10.5t64.5 4q32 0 55 -10t33 -24t16 -28t7 -24v-10v-590q0 -119 34.5 -178.5t117.5 -59.5q81 0 137.5 95t56.5 276v530h193v-671q0 -101 38.5 -165.5t118.5 -64.5q74 0 127.5 92.5t53.5 258.5v550l120 23l72 -23v-788q0 -45 35 -69.5 t86 -24.5v-74q-47 -23 -113 -23q-62 0 -117 37.5t-75 116.5q-35 -73 -97.5 -113.5t-136.5 -40.5q-127 0 -194.5 58t-89.5 176q-24 -110 -95.5 -172t-165.5 -62q-165 0 -232 89.5t-67 267.5v549h-106z" />
<glyph unicode="&#x449;" horiz-adv-x="1570" d="M41 883v73q13 2 51 8.5t72.5 10.5t64.5 4q32 0 55 -10t33 -24t16 -28t7 -24v-10v-590q0 -119 34.5 -178.5t117.5 -59.5q81 0 137.5 95t56.5 276v530h193v-671q0 -101 38.5 -165.5t118.5 -64.5q74 0 127.5 92.5t53.5 258.5v550l120 23l72 -23v-788q0 -45 35 -69.5 t86 -24.5v-74q0 -132 -58 -199t-165 -67q-49 0 -115.5 29.5t-128.5 29.5q-107 0 -166 -59l-29 18q17 40 44 75t78.5 64t113.5 29q61 0 120.5 -23.5t98.5 -23.5q61 0 93.5 31.5t37.5 77.5q-30 -5 -37 -5q-62 0 -117 37.5t-75 116.5q-35 -73 -97.5 -113.5t-136.5 -40.5 q-127 0 -194.5 58t-89.5 176q-24 -110 -95.5 -172t-165.5 -62q-165 0 -232 89.5t-67 267.5v549h-106z" />
<glyph unicode="&#x44a;" horiz-adv-x="1042" d="M10 819q0 71 68 115.5t223 44.5q156 0 156 -111v-559q0 -256 180 -256q79 0 117.5 57t38.5 179q0 90 -50 146.5t-131 56.5q-15 0 -67 -9v70q53 12 104 12q47 0 91.5 -8t91 -28.5t81 -52t56.5 -84t22 -118.5q0 -144 -93.5 -220.5t-260.5 -76.5q-182 0 -277.5 83t-95.5 264 v581q-46 0 -90 -47.5t-53 -146.5q-44 0 -77.5 31t-33.5 77z" />
<glyph unicode="&#x44b;" horiz-adv-x="1417" d="M72 883v73q13 2 51 8.5t72.5 10.5t64.5 4q32 0 55 -10t33 -24t16 -28t6 -24l1 -10v-574q0 -256 180 -256q79 0 117.5 57t38.5 179q0 90 -50 146.5t-131 56.5q-15 0 -67 -9v70q53 12 104 12q47 0 91.5 -8t91 -28.5t81 -52t56.5 -84t22 -118.5q0 -144 -93.5 -220.5 t-260.5 -76.5q-182 0 -277.5 83t-95.5 264v559h-106zM1063 164q0 -97 53.5 -142t122.5 -45q89 0 137 23v74q-51 0 -86 24.5t-35 69.5v788l-71 23l-121 -23v-792z" />
<glyph unicode="&#x44c;" horiz-adv-x="956" d="M72 883v73q13 2 51 8.5t72.5 10.5t64.5 4q32 0 55 -10t33 -24t16 -28t6 -24l1 -10v-574q0 -256 180 -256q77 0 116.5 66t39.5 190q0 90 -50 146.5t-131 56.5q-21 0 -67 -8v69q57 13 104 13t91.5 -8t91 -28.5t81 -52t56.5 -84t22 -118.5q0 -147 -95 -232.5t-259 -85.5 q-182 0 -277.5 83t-95.5 264v559h-106z" />
<glyph unicode="&#x44d;" horiz-adv-x="970" d="M51 147q0 39 29.5 66t69.5 27l49 -121q27 -20 75 -32.5t84 -12.5q154 0 234 105t80 270h-350v79h352q-3 177 -76.5 276t-218.5 99q-133 0 -277 -112l-47 67q133 121 340 121q238 0 366 -131.5t128 -370.5q0 -236 -128.5 -368t-393.5 -132q-316 0 -316 170z" />
<glyph unicode="&#x44e;" horiz-adv-x="1644" d="M98 883v73q13 2 51 8.5t73 10.5t65 4q32 0 55 -10t33 -24t15.5 -28t5.5 -24l1 -10v-355h236q12 212 132.5 331.5t332.5 119.5q225 0 345 -131t120 -369q0 -499 -465 -499q-229 0 -344 122.5t-121 346.5h-236v-449h-192v883h-107zM852 485q0 -203 60 -317.5t186 -114.5 t187 114.5t61 317.5q0 418 -248 418q-125 0 -185.5 -109t-60.5 -309z" />
<glyph unicode="&#x44f;" horiz-adv-x="1019" d="M31 0v74q10 0 26 1t48 12t45 30l159 248l94 47q-112 10 -197 81.5t-85 180.5q0 52 11 95t39.5 83t74.5 67t120.5 43.5t172.5 16.5q58 0 130 -5.5t115 -11.5l43 -6v-788q0 -45 35 -69.5t86 -24.5v-74q-48 -23 -137 -23q-69 0 -122.5 45t-53.5 142v739q-305 0 -305 -231 q0 -89 67.5 -148t153.5 -59h18v-66l-215 -325q-70 -97 -196 -97q-31 0 -63 5.5t-48 11.5z" />
<glyph unicode="&#x450;" horiz-adv-x="1060" d="M82 479q0 232 136 366t355 134q398 0 398 -289q0 -73 -36.5 -127.5t-96.5 -88t-148.5 -54t-179.5 -28t-203 -7.5q23 -145 104 -228t216 -83q147 0 293 92l47 -68q-65 -59 -158 -90t-195 -31q-264 0 -398 133.5t-134 368.5zM299 457q204 2 341.5 74t137.5 184 q0 188 -213 188q-128 0 -197 -112.5t-69 -294.5v-39zM340 1485l182 20l140 -327l-41 -21z" />
<glyph unicode="&#x451;" horiz-adv-x="1060" d="M82 479q0 232 136 366t355 134q398 0 398 -289q0 -73 -36.5 -127.5t-96.5 -88t-148.5 -54t-179.5 -28t-203 -7.5q23 -145 104 -228t216 -83q147 0 293 92l47 -68q-65 -59 -158 -90t-195 -31q-264 0 -398 133.5t-134 368.5zM270 1317q0 45 33 77.5t78 32.5q46 0 78.5 -32 t32.5 -78t-32.5 -78.5t-78.5 -32.5q-45 0 -78 33t-33 78zM299 457q204 2 341.5 74t137.5 184q0 188 -213 188q-128 0 -197 -112.5t-69 -294.5v-39zM637 1317q0 46 32.5 78t78.5 32q45 0 77.5 -32.5t32.5 -77.5t-33 -78t-77 -33q-46 0 -78.5 32.5t-32.5 78.5z" />
<glyph unicode="&#x452;" horiz-adv-x="1124" d="M31 1165v86h143v183h-125l-16 73l241 23l93 -23v-256h366v-86h-366v-252q125 66 243 66q111 0 194.5 -40t135 -114t77 -174t25.5 -225q0 -108 -18 -220t-58.5 -228t-99 -212.5t-146.5 -171.5t-194 -106l-45 76q192 129 272.5 346t80.5 539q0 237 -61 335.5t-179 98.5 q-56 0 -118.5 -16.5t-108.5 -39.5v-710l133 -43l-15 -74h-430l-14 74l133 43v1048h-143z" />
<glyph unicode="&#x453;" horiz-adv-x="835" d="M82 219q0 37 9.5 71t31.5 64t41.5 52t56.5 49t58.5 41t64.5 40.5t59 36.5q87 55 121.5 107t34.5 117q0 47 -38 77.5t-118 30.5q-100 0 -231 -108l-47 67q127 115 283 115q152 0 233.5 -60.5t81.5 -177.5q0 -182 -199 -313q-24 -16 -68.5 -40t-76 -43t-65 -44.5t-51 -56 t-17.5 -66.5q0 -58 45.5 -91.5t140.5 -33.5q61 0 133 33.5t115 79.5l47 -68q-46 -55 -132.5 -88t-174.5 -33q-177 0 -257.5 59t-80.5 183zM328 1178l139 327l182 -20l-280 -328z" />
<glyph unicode="&#x454;" horiz-adv-x="1013" d="M82 477q0 236 141.5 369t382.5 133q80 0 145.5 -17t109.5 -55.5t44 -93.5q0 -41 -30.5 -71.5t-73.5 -30.5l-64 168q-63 24 -125 24q-148 0 -230 -99.5t-85 -275.5h352v-79h-350q5 -85 22.5 -149.5t52.5 -117t96.5 -80.5t147.5 -28q73 0 135 23.5t134 68.5l47 -68 q-133 -121 -330 -121q-265 0 -393.5 132t-128.5 368z" />
<glyph unicode="&#x455;" horiz-adv-x="851" d="M82 147q0 39 29 66t69 27l49 -140q29 -19 74 -32t78 -13q100 0 162.5 42t62.5 114q0 18 -7 35.5t-16.5 30.5t-29 28t-33 24.5t-41.5 23.5t-41.5 20t-46 20t-43.5 19q-61 28 -100 51t-79.5 58t-60.5 81.5t-20 104.5q0 124 100.5 198t268.5 74q80 0 145.5 -17t109.5 -55.5 t44 -93.5q0 -41 -31 -71.5t-74 -30.5l-63 168q-63 24 -142 24q-89 0 -142.5 -36.5t-53.5 -90.5q0 -26 8.5 -49t28 -43t36 -33.5t48 -29.5t48 -23.5t50.5 -22.5q39 -16 63 -27t59.5 -29.5t57.5 -35t47.5 -40.5t40 -49.5t24 -58.5t9.5 -71q0 -132 -98.5 -209.5t-274.5 -77.5 q-315 0 -315 170z" />
<glyph unicode="&#x456;" horiz-adv-x="583" d="M94 883v73q135 23 205 23q32 0 55 -10t33 -24t16 -28t7 -24v-10v-883h-193v883h-123zM197 1317q0 46 32 78t78 32q45 0 78 -32.5t33 -77.5t-33 -78t-78 -33q-46 0 -78 32.5t-32 78.5z" />
<glyph unicode="&#x457;" horiz-adv-x="632" d="M10 1317q0 45 33 77.5t78 32.5q46 0 78 -32t32 -78t-32 -78.5t-78 -32.5q-45 0 -78 33t-33 78zM102 883v73q135 23 205 23q32 0 55 -10t33 -24t16 -28t7 -24v-10v-883h-193v883h-123zM377 1317q0 46 32 78t78 32q45 0 78 -32.5t33 -77.5t-33 -78t-78 -33q-46 0 -78 32.5 t-32 78.5z" />
<glyph unicode="&#x458;" horiz-adv-x="540" d="M-92 -436q69 46 121 95t85 101.5t54.5 102.5t31.5 110.5t13.5 111t3.5 118.5v680h-125v73q135 23 207 23q32 0 55 -10t33 -24t16 -28t7 -24v-10v-715q0 -93 -10.5 -169t-40 -157t-79 -143.5t-132.5 -118t-195 -92.5zM197 1317q0 46 32 78t78 32q45 0 78 -32.5t33 -77.5 t-33 -78t-78 -33q-46 0 -78 32.5t-32 78.5z" />
<glyph unicode="&#x459;" horiz-adv-x="1437" d="M20 109q0 54 39 92.5t93 38.5l81 -90q84 143 84 452q0 85 21 152t53.5 108.5t76 68.5t86 37.5t85.5 10.5q84 0 192 -23v-647q0 -256 181 -256q79 0 117 57t38 179q0 90 -49.5 146.5t-130.5 56.5q-15 0 -67 -9v70q52 12 104 12q47 0 91.5 -8t91 -28.5t81 -52t56.5 -84 t22 -118.5q0 -144 -93.5 -220.5t-260.5 -76.5q-182 0 -277.5 83t-95.5 264v559q-105 0 -166 -65.5t-61 -207.5q0 -71 -8.5 -150.5t-29 -166.5t-50 -156.5t-77.5 -114.5t-106 -45q-53 0 -87 38.5t-34 93.5z" />
<glyph unicode="&#x45a;" horiz-adv-x="1683" d="M72 883v73q135 23 204 23q32 0 55 -10t33 -24t16 -28t6 -24l1 -10v-340h477v413l121 23l72 -23v-647q0 -256 180 -256q77 0 116.5 66t39.5 190q0 90 -50 146.5t-131 56.5q-21 0 -67 -8v69q57 13 104 13t91.5 -8t91 -28.5t81 -52t56.5 -84t22 -118.5q0 -147 -95 -232.5 t-259 -85.5q-182 0 -277.5 83t-95.5 264v145h-477v-469h-192v883h-123z" />
<glyph unicode="&#x45b;" horiz-adv-x="1132" d="M12 1165v86h142v183h-123v73q135 23 205 23q32 0 55 -10t33 -24t15.5 -28t6.5 -24v-10v-183h406v-86h-406v-239l-37 -195q34 120 114.5 184t176.5 64q169 0 259.5 -86.5t90.5 -249.5v-475q0 -45 35 -69.5t86 -24.5v-74q-48 -23 -137 -23q-69 0 -122.5 45t-53.5 142v532 q0 187 -176 187q-31 0 -60.5 -8.5t-62 -32.5t-57 -62.5t-40.5 -103.5t-16 -150v-526h-192v1165h-142z" />
<glyph unicode="&#x45c;" horiz-adv-x="1044" d="M33 883v73q135 23 207 23q32 0 55 -10t33 -24t15.5 -28t6.5 -24v-10v-883h-192v883h-125zM416 459v69q19 48 58 116t96 147t130.5 133.5t141.5 54.5q47 0 81.5 -34t34.5 -81t-33.5 -79.5t-80.5 -32.5l-64 112q-54 -23 -116.5 -94.5t-103 -138t-58.5 -111.5l143 -53 l244 -350q14 -19 43.5 -30t52.5 -12l23 -1v-74q-57 -23 -127 -23q-131 0 -197 97zM477 1178l139 327l183 -20l-281 -328z" />
<glyph unicode="&#x45d;" horiz-adv-x="1136" d="M82 883v73q13 2 51 8.5t72.5 10.5t64.5 4q32 0 55 -10t33 -24t16 -28t6 -24l1 -10v-580q0 -116 54 -182t147 -66q78 0 144.5 94.5t66.5 256.5v550l120 23l72 -23v-788q0 -45 35 -69.5t86 -24.5v-74q-47 -23 -113 -23q-62 0 -117 37.5t-75 116.5q-43 -72 -113.5 -113 t-148.5 -41q-170 0 -260.5 92.5t-90.5 274.5v539h-106zM377 1485l182 20l139 -327l-41 -21z" />
<glyph unicode="&#x45e;" horiz-adv-x="1085" d="M82 885v73q13 2 51 8.5t72.5 10.5t64.5 4q32 0 55 -10t33 -24t16 -28t6 -24l1 -10v-580q0 -66 18.5 -113.5t49 -71.5t62.5 -34t67 -10q40 0 82.5 24t81.5 70.5t64 128t25 182.5v475l121 23l72 -23v-1044q0 -90 -25 -162.5t-68 -120.5t-103 -80.5t-127 -46.5t-142 -14 q-155 0 -258.5 67t-103.5 189q0 72 55.5 129.5t128.5 83.5l41 -61q-44 -24 -68 -62t-24 -78q0 -67 60 -113t169 -46q56 0 103 16t86 50.5t61 95.5t22 145v119l41 233q-37 -113 -125 -184.5t-204 -71.5q-168 0 -261.5 90t-93.5 254v541h-106zM260 1333q1 5 4 12.5t16.5 27 t32.5 34.5t54 27t79 12q35 -61 96 -102t134 -41q79 0 139.5 29.5t114.5 86.5l33 -33q-47 -85 -148.5 -146.5t-204.5 -61.5q-241 0 -350 155z" />
<glyph unicode="&#x45f;" horiz-adv-x="1214" d="M72 74l137 45v721l-133 43l14 73h428l17 -73l-134 -43v-766h412v766l-137 43l16 73h432l15 -73l-133 -43v-721l137 -45l-15 -74h-432l-41 -266h-90l-41 266h-438z" />
<glyph unicode="&#x462;" horiz-adv-x="1415" d="M20 913v304h394v98l-178 69l14 84h543l16 -84l-178 -69v-98h438v-304l-86 -14l-88 231h-264v-1044h119q173 0 257.5 85t84.5 243q0 151 -85 217.5t-245 66.5h-57v86h108q81 0 151.5 -9.5t140 -35t118.5 -66t79.5 -106.5t30.5 -153q0 -95 -24 -167t-79.5 -129.5 t-154.5 -87.5t-239 -30h-586l-12 86l176 68v976h-219l-89 -231z" />
<glyph unicode="&#x463;" horiz-adv-x="1169" d="M20 735v221h334v478h-125l-12 73l238 23l92 -23v-551h348v-221l-76 -14l-49 162h-223v-809h135q89 0 145 61.5t56 153.5q0 91 -55 147t-146 56h-47v73h104q47 0 93.5 -8t95.5 -28.5t86 -52t60.5 -84t23.5 -118.5q0 -110 -77.5 -192t-184.5 -82h-598l-17 76l133 41v766 h-209l-49 -162z" />
<glyph unicode="&#x472;" d="M123 717q0 115 27 223.5t83 204.5t135.5 168t192.5 113.5t246 41.5q167 0 298 -57.5t214 -159.5t126.5 -237.5t43.5 -296.5q0 -130 -24 -241.5t-76.5 -206.5t-131 -162t-193 -104.5t-257.5 -37.5q-142 0 -258.5 42t-194 113.5t-131 168.5t-77 204t-23.5 224zM365 700 q107 117 268 117q71 0 223 -52t217 -52q91 0 174 65q-8 296 -115 443t-325 147q-229 0 -335.5 -155.5t-106.5 -485.5v-27zM367 612q18 -273 124.5 -409.5t315.5 -136.5q424 0 440 608q-101 -96 -237 -96q-68 0 -150 28t-159.5 56t-135.5 28q-107 0 -198 -78z" />
<glyph unicode="&#x473;" horiz-adv-x="1126" d="M82 479q0 232 127.5 366t353.5 134q227 0 354 -132t127 -368q0 -241 -120.5 -371.5t-360.5 -130.5q-238 0 -359.5 133t-121.5 369zM281 477q78 88 184 88q46 0 134.5 -44t129.5 -44q51 0 117 53q-9 174 -85 273.5t-198 99.5q-128 0 -205 -113t-77 -305v-8zM283 416 q14 -164 88.5 -263.5t191.5 -99.5q125 0 202 111t83 295q-80 -80 -160 -80q-52 0 -137 48t-129 48q-38 0 -76 -18t-63 -41z" />
<glyph unicode="&#x474;" horiz-adv-x="1431" d="M10 1348l17 86h557l16 -86l-178 -68l342 -938v-123l381 1071q22 62 70 104.5t95.5 58t94.5 15.5l16 -86q-6 0 -17 -1t-40 -8.5t-54.5 -21.5t-53 -45t-42.5 -73l-438 -1233l-106 -35l-480 1315z" />
<glyph unicode="&#x475;" horiz-adv-x="1146" d="M41 883l16 73h443l14 -73l-131 -43l240 -604v-119l258 686q29 79 91.5 122t127.5 54l16 -74q-51 -8 -98 -40t-64 -74l-297 -791l-139 -23l-344 863z" />
<glyph unicode="&#x490;" horiz-adv-x="974" d="M72 1350l16 84h758l115 292l86 -14v-362h-592v-1196l174 -68l-15 -86h-524l-14 86l174 68v1126z" />
<glyph unicode="&#x491;" horiz-adv-x="815" d="M72 883l14 73h563l49 162l76 -14v-221h-373v-766l134 -43l-15 -74h-430l-14 74l133 43v723z" />
<glyph unicode="&#x492;" horiz-adv-x="1093" d="M72 672v86h178v522l-178 70l16 84h954v-363l-86 -14l-114 293h-391v-592h352v-86h-352v-518l174 -68l-15 -86h-520l-14 86l174 68v518h-178z" />
<glyph unicode="&#x493;" horiz-adv-x="835" d="M72 487v86h137v267l-137 43l14 73h709v-221l-76 -14l-49 162h-269v-310h246v-86h-246v-370l134 -43l-15 -74h-430l-14 74l133 43v370h-137z" />
<glyph unicode="&#x496;" horiz-adv-x="1941" d="M31 86l176 68l352 565l125 63l-377 406q-79 89 -207 137l-59 25l16 84h465l15 -84l-170 -70l442 -475v-86l-391 -633l14 -86h-387zM696 1350l15 84h520l16 -84l-178 -70v-1126l176 -68l-16 -86h-516l-15 86l176 68v1126zM1133 719v86l444 475l-178 70l14 84h473l15 -84 l-60 -25q-119 -45 -205 -137l-376 -406l122 -63l355 -565l174 -68v-428l-86 -14l-139 356h-177l17 86z" />
<glyph unicode="&#x497;" horiz-adv-x="1599" d="M20 137q0 46 33.5 77.5t77.5 31.5l57 -148q28 -24 74 -24q85 0 121.5 108t36.5 316q0 74 -3 127.5t-12.5 104.5t-25.5 83t-43 51t-64 19q-44 0 -80 -13.5t-53.5 -27.5t-44.5 -41l-57 57q100 121 248 121q167 0 242 -104t81 -334h105v415l98 23l72 -23v-415h104 q19 438 346 438q85 0 153 -40.5t68 -119.5q0 -46 -33 -77t-77 -31l-58 147q-29 25 -73 25q-35 0 -60 -18t-40 -48.5t-23 -84t-11 -112t-3 -143.5q0 -403 167 -403q44 0 80 13.5t54.5 28t44.5 40.5l57 -58v-350l-76 -14l-80 258q-54 -15 -92 -15q-178 0 -262 120t-84 374 h-102v-471h-170v471h-103q-5 -236 -97.5 -365t-270.5 -129q-53 0 -101.5 15t-84.5 53t-36 92z" />
<glyph unicode="&#x498;" horiz-adv-x="1105" d="M49 86v293l86 14l98 -274q130 -53 236 -53q92 0 160.5 54t100.5 134.5t32 173.5q0 138 -80.5 230t-212.5 92h-117v88h58q106 0 192 85t86 191q0 112 -56 184t-165 72q-110 0 -211 -39l-98 -274l-86 14v277q209 122 395 122q125 0 216.5 -25.5t144.5 -72t77.5 -105.5 t24.5 -132q0 -128 -76 -211.5t-201 -114.5v-18q145 -21 248 -126t103 -259q0 -64 -19 -125.5t-61 -119t-102.5 -101t-151.5 -69.5t-201 -26q-21 0 -57 4v-63q70 0 124 -39t54 -113q0 -51 -21 -89.5t-52 -60.5t-74 -35.5t-80 -17.5t-76 -4v60q85 0 132.5 36.5t47.5 96.5 q0 40 -27.5 59t-62.5 19h-39v157q-177 28 -289 111z" />
<glyph unicode="&#x499;" horiz-adv-x="782" d="M16 98l47 68q146 -92 256 -92q95 0 147 57t52 150q0 90 -59 149t-152 59h-61v74h39q71 0 127.5 55.5t56.5 133.5q0 72 -44 111.5t-110 39.5q-57 0 -120 -24l-64 -168q-43 0 -73.5 30.5t-30.5 71.5q0 55 44 93.5t109.5 55.5t145.5 17q152 0 244 -63.5t92 -159.5 q0 -86 -46 -140t-127 -75v-13q93 -12 157.5 -87.5t64.5 -180.5q0 -53 -22.5 -102.5t-66 -90.5t-115.5 -65.5t-163 -24.5v-71q70 0 124 -39t54 -113q0 -51 -21 -89.5t-52 -60.5t-74 -35.5t-80 -17.5t-76 -4v60q85 0 132.5 36.5t47.5 96.5q0 40 -27.5 59t-62.5 19h-39v166 q-152 18 -254 114z" />
<glyph unicode="&#x49a;" horiz-adv-x="1394" d="M72 88l178 66v1126l-178 70l14 84h545l14 -86l-178 -68v-1126l178 -66l-14 -88h-545zM553 707v86l477 487l-178 70l14 84h453l14 -84l-65 -27q-113 -45 -197 -129l-409 -418l149 -65l373 -555l178 -70v-428l-86 -14l-139 356h-183l15 86z" />
<glyph unicode="&#x49b;" horiz-adv-x="1044" d="M33 883v73q135 23 207 23q32 0 55 -10t33 -24t15.5 -28t6.5 -24v-10v-883h-192v883h-125zM416 459v69q19 48 58 116t96 147t130.5 133.5t141.5 54.5q47 0 81.5 -34t34.5 -81t-33.5 -79.5t-80.5 -32.5l-64 112q-54 -23 -116.5 -94.5t-103 -138t-58.5 -111.5l143 -53 l244 -350q14 -19 43.5 -30t52.5 -12l23 -1v-326l-76 -14l-76 246q-114 8 -172 94z" />
<glyph unicode="&#x49c;" horiz-adv-x="1382" d="M72 88l178 66v1126l-178 70l14 84h545l14 -86l-178 -68v-1126l178 -66l-14 -88h-545zM553 348v801h86v-268l391 399l-178 70l14 84h453l14 -84l-65 -27q-113 -45 -197 -129l-409 -418l149 -65l373 -555l178 -70l-16 -86h-392l15 86l-330 492v-230h-86z" />
<glyph unicode="&#x49d;" horiz-adv-x="1134" d="M33 883v73q135 23 207 23q32 0 55 -10t33 -24t15.5 -28t6.5 -24v-10v-883h-192v883h-125zM426 209v612h98v-252q21 45 49.5 94t71 107t86.5 103t97.5 75.5t103.5 30.5q47 0 82 -34t35 -81t-33.5 -79.5t-81.5 -32.5l-64 112q-54 -23 -116.5 -94.5t-103 -138t-58.5 -111.5 l143 -53l244 -350q14 -19 43.5 -30t52.5 -12l23 -1v-74q-57 -23 -127 -23q-131 0 -197 97l-250 358v-223h-98z" />
<glyph unicode="&#x4a0;" horiz-adv-x="1490" d="M20 1126v308h719l15 -84l-179 -70v-1126l179 -66l-15 -88h-544l-15 88l178 66v1194h-159l-93 -236zM662 707v86l477 487l-178 70l14 84h452l15 -84l-66 -27q-111 -44 -196 -129l-410 -418l150 -65l372 -555l178 -70l-16 -86h-391l14 86z" />
<glyph unicode="&#x4a1;" horiz-adv-x="1157" d="M16 819q0 71 68 115.5t223 44.5q156 0 156 -111v-868h-193v903q-46 0 -90 -46.5t-53 -145.5q-44 0 -77.5 31t-33.5 77zM528 459v69q19 48 58 116t96 147t130.5 133.5t141.5 54.5q47 0 82 -34t35 -81t-33.5 -79.5t-81.5 -32.5l-63 112q-54 -23 -116.5 -94.5t-103.5 -138 t-59 -111.5l144 -53l243 -350q14 -19 43.5 -30t52.5 -12l23 -1v-74q-57 -23 -127 -23q-130 0 -196 97z" />
<glyph unicode="&#x4a2;" horiz-adv-x="1644" d="M82 1348l14 86h545l14 -86l-178 -68v-498h690v498l-178 68l15 86h544l15 -86l-179 -68v-1126l175 -68v-428l-86 -14l-140 356h-329l-15 86l178 68v542h-690v-542l174 -68l-14 -86h-537l-16 86l176 68v1126z" />
<glyph unicode="&#x4a3;" horiz-adv-x="1218" d="M72 883v73q135 23 204 23q32 0 55 -10t33 -24t16 -28t6 -24l1 -10v-340h477v413l121 23l72 -23v-788q0 -45 35 -69.5t86 -24.5v-326l-76 -14l-76 243q-66 5 -114 50t-48 137v305h-477v-469h-192v883h-123z" />
<glyph unicode="&#x4aa;" horiz-adv-x="1335" d="M123 717q0 116 27.5 224t86 204t142.5 167.5t205.5 113.5t267.5 42q45 0 88 -3t97.5 -11.5t99 -25t83.5 -41t61 -63t22 -87.5q0 -73 -53 -117.5t-130 -44.5l-63 268q-125 25 -205 25q-247 0 -367 -157t-120 -484q0 -72 5.5 -135t20 -129.5t38 -120.5t61.5 -102.5 t88 -81.5t119.5 -52.5t154.5 -19.5q79 0 191.5 21t191.5 69l68 -90q-71 -52 -184 -84t-234 -37q-92 -69 -92 -155q0 -103 118 -103q42 0 66 8v-102q-61 -16 -113 -16q-84 0 -137 49.5t-53 128.5q0 112 110 192q-140 9 -253 55.5t-188 117.5t-125.5 166t-72.5 197t-22 214z " />
<glyph unicode="&#x4ab;" horiz-adv-x="978" d="M82 477q0 235 142 368.5t384 133.5q80 0 145.5 -17t109.5 -55.5t44 -93.5q0 -41 -30.5 -71.5t-73.5 -30.5l-64 168q-63 24 -125 24q-153 0 -235 -101t-82 -284q0 -78 8.5 -141t30.5 -121t57 -97t91.5 -62t131.5 -23q74 0 136.5 23.5t134.5 68.5l47 -68 q-121 -109 -293 -118q-106 -75 -106 -170q0 -103 118 -103q42 0 66 8v-102q-61 -16 -113 -16q-84 0 -137 49.5t-53 128.5q0 114 123 205q-231 17 -344 146.5t-113 350.5z" />
<glyph unicode="&#x4ae;" horiz-adv-x="1349" d="M10 1346l17 88h573l16 -88l-180 -68l277 -496v-133l348 629l-178 68l14 88h426l16 -88l-180 -68l-338 -612v-512l176 -70l-16 -84h-541l-14 84l178 70v374l-416 750z" />
<glyph unicode="&#x4af;" horiz-adv-x="1048" d="M20 883v73q10 2 36.5 7t43.5 8t43 5.5t50 2.5q40 0 73.5 -18.5t47.5 -34t34 -43.5q59 -80 136.5 -276t113.5 -361v-135q82 113 162.5 306.5t103.5 368.5v170l123 23q-5 -154 -41 -309t-89.5 -277.5t-103 -211t-96.5 -150.5v-353q0 -45 35 -69.5t86 -24.5v-73 q-48 -23 -137 -23q-69 0 -122.5 44.5t-53.5 141.5v441q-68 226 -172.5 462t-159.5 306h-113z" />
<glyph unicode="&#x4b0;" horiz-adv-x="1349" d="M10 1346l17 88h573l16 -88l-180 -68l277 -496v-133l348 629l-178 68l14 88h426l16 -88l-180 -68l-338 -612v-52h338v-86h-338v-374l176 -70l-16 -84h-541l-14 84l178 70v374h-375v86h326l-367 664z" />
<glyph unicode="&#x4b1;" horiz-adv-x="1202" d="M94 883v73q10 2 36 7t43 8t43 5.5t50 2.5q30 0 55.5 -9t45.5 -26.5t30 -29t25 -31.5q59 -80 136.5 -276t113.5 -361v-135q82 113 162.5 306.5t103.5 368.5v170l123 23q-4 -138 -33.5 -277t-75 -254t-90 -202.5t-92.5 -159.5h324v-86h-363v-322q0 -45 35 -69.5t86 -24.5 v-73q-48 -23 -137 -23q-69 0 -122.5 44.5t-53.5 141.5v326h-334v86h334v27q-68 227 -172 463.5t-160 306.5h-113z" />
<glyph unicode="&#x4b2;" horiz-adv-x="1374" d="M20 1346l17 88h584l14 -86l-178 -70l274 -430l332 430l-176 70l14 86h438l15 -86l-178 -70l-394 -510l392 -614l176 -68v-428l-86 -14l-140 356h-372l-15 84l176 70l-274 430l-330 -432l178 -68l-14 -84h-436l-14 84l174 70l393 508l-393 616z" />
<glyph unicode="&#x4b3;" horiz-adv-x="1062" d="M43 92q0 47 34 80t81 33l63 -113q52 37 109 154t88 237l-262 400h-113v73q8 1 37 6.5t45.5 8.5t44 5.5t51.5 2.5q42 0 76.5 -19.5t49 -38t24.5 -38.5l186 -277q27 67 59.5 128.5t73.5 118.5t88.5 91.5t93.5 34.5q47 0 82 -34t35 -81t-33.5 -79.5t-81.5 -32.5l-63 112 q-55 -39 -115 -133t-92 -194l260 -381q30 -44 55.5 -63t69.5 -19v-326l-76 -14l-75 243q-94 8 -150 97l-221 336q-26 -76 -56.5 -145.5t-70 -138t-86.5 -109t-94 -40.5t-82 34t-35 81z" />
<glyph unicode="&#x4b8;" horiz-adv-x="1425" d="M41 1350l16 84h543l14 -84l-178 -68v-393q0 -107 69 -163t161 -56q27 0 41 2v477h86v-463q92 21 155 57v537l-180 70l16 86h543l16 -86l-178 -70v-1126l174 -68l-14 -86h-539l-14 86l176 68v483q-59 -29 -155 -49v-240h-86v227q-23 -2 -60 -2q-84 0 -160.5 22t-136.5 63 t-95.5 105.5t-35.5 143.5v375z" />
<glyph unicode="&#x4b9;" horiz-adv-x="1124" d="M37 883v73q13 2 51.5 8.5t73.5 10.5t65 4q32 0 55 -10t33 -24t16 -28t7 -24v-10v-275q0 -231 139 -246v418h86v-405q61 28 101.5 103.5t40.5 203.5v274l120 23l72 -23v-788q0 -45 35 -69.5t86 -24.5v-74q-48 -23 -137 -23q-69 0 -122.5 45t-53.5 142v264 q-46 -93 -142 -133v-148h-86v132q-163 2 -248.5 101t-85.5 286v217h-106z" />
<glyph unicode="&#x4ba;" horiz-adv-x="1275" d="M82 74l133 43v1200l-133 43l14 74h430l15 -74l-133 -43v-516q128 57 264 57q183 0 296 -91.5t113 -266.5v-383l133 -43l-14 -74h-442l-17 74l136 43v440q0 102 -66 153.5t-156 51.5q-123 0 -247 -47v-598l133 -43l-15 -74h-430z" />
<glyph unicode="&#x4bb;" horiz-adv-x="1132" d="M31 1434v73q135 23 205 23q32 0 55 -10t33 -24t15.5 -28t6.5 -24v-10v-508l-37 -195q34 120 114.5 184t176.5 64q169 0 259.5 -86.5t90.5 -249.5v-475q0 -45 35 -69.5t86 -24.5v-74q-48 -23 -137 -23q-69 0 -122.5 45t-53.5 142v532q0 187 -176 187q-31 0 -60.5 -8.5 t-62 -32.5t-57 -62.5t-40.5 -103.5t-16 -150v-526h-192v1434h-123z" />
<glyph unicode="&#x4d0;" horiz-adv-x="1511" d="M31 86l176 68l473 1280l178 34l461 -1314l176 -68l-16 -86h-557l-15 86l176 68l-114 329h-537l-117 -329l211 -68l-14 -86h-467zM446 1798l37 25q97 -117 287 -117t287 117l37 -25q-33 -89 -119 -154t-205 -65t-205 65t-119 154zM465 569h473l-207 602v105z" />
<glyph unicode="&#x4d1;" horiz-adv-x="1044" d="M63 428q0 142 36.5 250t101.5 172.5t148 96.5t183 32q117 0 179 -33l120 33l72 -23v-788q0 -45 31.5 -69.5t81.5 -24.5v-74q-47 -23 -113 -23q-61 0 -110.5 37t-69.5 117q-34 -71 -104.5 -112.5t-147.5 -41.5q-79 0 -149 25t-129.5 76t-94.5 141t-35 209zM233 1409l37 25 q97 -117 287 -117t287 117l37 -25q-33 -89 -119 -154t-205 -65t-205 65t-119 154zM262 438q0 -102 19.5 -176t53.5 -113.5t72.5 -57t84.5 -17.5q87 0 153 82t66 243v457q-48 27 -84.5 37t-83.5 10q-41 0 -79.5 -14t-76 -48t-64.5 -86t-44 -133.5t-17 -183.5z" />
<glyph unicode="&#x4d2;" horiz-adv-x="1511" d="M31 86l176 68l473 1280l178 34l461 -1314l176 -68l-16 -86h-557l-15 86l176 68l-114 329h-537l-117 -329l211 -68l-14 -86h-467zM465 569h473l-207 602v105zM473 1683q0 45 33 78t78 33q46 0 78 -32.5t32 -78.5t-32 -78t-78 -32q-45 0 -78 32.5t-33 77.5zM840 1683 q0 46 32 78.5t78 32.5q45 0 78 -33t33 -78t-33 -77.5t-78 -32.5q-46 0 -78 32t-32 78z" />
<glyph unicode="&#x4d3;" horiz-adv-x="1044" d="M63 428q0 142 36.5 250t101.5 172.5t148 96.5t183 32q117 0 179 -33l120 33l72 -23v-788q0 -45 31.5 -69.5t81.5 -24.5v-74q-47 -23 -113 -23q-61 0 -110.5 37t-69.5 117q-34 -71 -104.5 -112.5t-147.5 -41.5q-79 0 -149 25t-129.5 76t-94.5 141t-35 209zM240 1317 q0 45 32.5 77.5t77.5 32.5q46 0 78.5 -32t32.5 -78t-32.5 -78.5t-78.5 -32.5q-44 0 -77 33t-33 78zM262 438q0 -102 19.5 -176t53.5 -113.5t72.5 -57t84.5 -17.5q87 0 153 82t66 243v457q-48 27 -84.5 37t-83.5 10q-41 0 -79.5 -14t-76 -48t-64.5 -86t-44 -133.5t-17 -183.5 zM606 1317q0 46 32.5 78t78.5 32q45 0 77.5 -32.5t32.5 -77.5t-32.5 -78t-77.5 -33q-46 0 -78.5 32.5t-32.5 78.5z" />
<glyph unicode="&#x4d4;" horiz-adv-x="1878" d="M10 86l176 68l578 1280h1005v-308l-86 -16l-86 238h-442v-543h250l63 172l86 -14v-404l-86 -14l-63 172h-250v-631h453l112 307l86 -14v-379h-1028l-14 86l174 68v329h-483l-146 -329l166 -68l-14 -86h-436zM492 569h444v731l-92 48z" />
<glyph unicode="&#x4d5;" horiz-adv-x="1601" d="M63 248q0 69 24 124t69 90t98.5 59.5t123.5 36.5t133 17t136 5v108q0 106 -55.5 160.5t-149.5 54.5q-78 0 -141 -24l-63 -164q-43 0 -74 29.5t-31 70.5q0 82 88 123t225 41q114 0 199 -36.5t131 -104.5q135 141 367 141q191 0 303.5 -69.5t112.5 -219.5q0 -61 -26 -109.5 t-74.5 -81t-109.5 -55.5t-141 -35.5t-159 -18t-172 -5.5q23 -145 103.5 -228t215.5 -83q147 0 293 92l47 -68q-65 -59 -158 -90t-198 -31q-301 0 -435 173q-99 -96 -181.5 -134.5t-188.5 -38.5q-135 0 -223.5 71t-88.5 200zM281 268q0 -101 52 -147.5t124 -46.5 q125 0 190 112v320q-366 0 -366 -238zM868 457q206 2 352 74.5t146 183.5q0 94 -61 141t-170 47q-128 0 -197.5 -113t-69.5 -294v-39z" />
<glyph unicode="&#x4d6;" horiz-adv-x="1189" d="M72 1348l16 86h993v-308l-86 -16l-86 238h-442v-543h250l63 172l86 -14v-404l-86 -14l-63 172h-250v-631h453l112 307l86 -14v-379h-1028l-14 86l174 68v1126zM254 1798l37 25q97 -117 287 -117q189 0 286 117l37 -25q-33 -89 -118.5 -154t-204.5 -65t-205 65t-119 154z " />
<glyph unicode="&#x4d7;" horiz-adv-x="1060" d="M82 479q0 232 136 366t355 134q398 0 398 -289q0 -73 -36.5 -127.5t-96.5 -88t-148.5 -54t-179.5 -28t-203 -7.5q23 -145 104 -228t216 -83q147 0 293 92l47 -68q-65 -59 -158 -90t-195 -31q-264 0 -398 133.5t-134 368.5zM252 1409l37 25q97 -117 286 -117 q190 0 287 117l37 -25q-33 -89 -119 -154t-205 -65t-204.5 65t-118.5 154zM299 457q204 2 341.5 74t137.5 184q0 188 -213 188q-128 0 -197 -112.5t-69 -294.5v-39z" />
<glyph unicode="&#x4d8;" horiz-adv-x="1499" d="M123 479q0 140 84 299h923q0 275 -124 432.5t-338 157.5q-153 0 -287 -39l-98 -274l-86 14v279q206 120 471 120q145 0 265 -42t201 -113t136.5 -168t80.5 -204t25 -224q0 -362 -157.5 -557t-473.5 -195q-295 0 -458.5 131.5t-163.5 382.5zM358 455q0 -170 99.5 -279.5 t287.5 -109.5q82 0 148 35t108 93t70.5 137t40.5 162t12 173h-714q-52 -104 -52 -211z" />
<glyph unicode="&#x4d9;" horiz-adv-x="1071" d="M82 266q0 73 38.5 127.5t101 87.5t154.5 53.5t184.5 28t205.5 8.5q-20 151 -97 241.5t-210 90.5q-85 0 -165.5 -30t-141.5 -82l-48 67q133 121 353 121q264 0 398 -133.5t134 -368.5q0 -232 -136 -366t-355 -134q-191 0 -303.5 69.5t-112.5 219.5zM274 252 q0 -178 232 -178q129 0 197.5 104t68.5 283q0 27 -2 39q-136 -2 -247.5 -31.5t-180 -86t-68.5 -130.5z" />
<glyph unicode="&#x4da;" horiz-adv-x="1499" d="M123 479q0 140 84 299h923q0 275 -124 432.5t-338 157.5q-153 0 -287 -39l-98 -274l-86 14v279q206 120 471 120q145 0 265 -42t201 -113t136.5 -168t80.5 -204t25 -224q0 -362 -157.5 -557t-473.5 -195q-295 0 -458.5 131.5t-163.5 382.5zM358 455q0 -170 99.5 -279.5 t287.5 -109.5q82 0 148 35t108 93t70.5 137t40.5 162t12 173h-714q-52 -104 -52 -211zM416 1683q0 45 33 78t77 33q46 0 78.5 -32.5t32.5 -78.5t-32.5 -78t-78.5 -32q-45 0 -77.5 32.5t-32.5 77.5zM782 1683q0 46 32.5 78.5t78.5 32.5q45 0 78 -33t33 -78t-33 -77.5 t-78 -32.5q-46 0 -78.5 32t-32.5 78z" />
<glyph unicode="&#x4db;" horiz-adv-x="1071" d="M82 266q0 73 38.5 127.5t101 87.5t154.5 53.5t184.5 28t205.5 8.5q-20 151 -97 241.5t-210 90.5q-85 0 -165.5 -30t-141.5 -82l-48 67q133 121 353 121q264 0 398 -133.5t134 -368.5q0 -232 -136 -366t-355 -134q-191 0 -303.5 69.5t-112.5 219.5zM164 1317 q0 45 32.5 77.5t77.5 32.5q46 0 78.5 -32t32.5 -78t-32.5 -78.5t-78.5 -32.5q-44 0 -77 33t-33 78zM274 252q0 -178 232 -178q129 0 197.5 104t68.5 283q0 27 -2 39q-136 -2 -247.5 -31.5t-180 -86t-68.5 -130.5zM530 1317q0 46 32.5 78t78.5 32q45 0 78 -32.5t33 -77.5 t-33 -78t-78 -33q-46 0 -78.5 32.5t-32.5 78.5z" />
<glyph unicode="&#x4dc;" horiz-adv-x="1941" d="M31 86l176 68l352 565l125 63l-377 406q-79 89 -207 137l-59 25l16 84h465l15 -84l-170 -70l442 -475v-86l-391 -633l14 -86h-387zM662 1683q0 45 33 78t77 33q46 0 78.5 -32.5t32.5 -78.5t-32.5 -78t-78.5 -32q-45 0 -77.5 32.5t-32.5 77.5zM696 1350l15 84h520l16 -84 l-178 -70v-1126l176 -68l-16 -86h-516l-15 86l176 68v1126zM1028 1683q0 46 32.5 78.5t78.5 32.5q45 0 77.5 -33t32.5 -78t-32.5 -77.5t-77.5 -32.5q-46 0 -78.5 32t-32.5 78zM1133 719v86l444 475l-178 70l14 84h473l15 -84l-60 -25q-119 -45 -205 -137l-376 -406l122 -63 l355 -565l174 -68l-15 -86h-387l17 86z" />
<glyph unicode="&#x4dd;" horiz-adv-x="1599" d="M20 137q0 46 33.5 77.5t77.5 31.5l57 -148q28 -24 74 -24q85 0 121.5 108t36.5 316q0 74 -3 127.5t-12.5 104.5t-25.5 83t-43 51t-64 19q-44 0 -80 -13.5t-53.5 -27.5t-44.5 -41l-57 57q100 121 248 121q167 0 242 -104t81 -334h105v415l98 23l72 -23v-415h104 q19 438 346 438q85 0 153 -40.5t68 -119.5q0 -46 -33 -77t-77 -31l-58 147q-29 25 -73 25q-35 0 -60 -18t-40 -48.5t-23 -84t-11 -112t-3 -143.5q0 -403 167 -403q44 0 80 13.5t54.5 28t44.5 40.5l57 -58q-100 -121 -248 -121q-178 0 -262 120t-84 374h-102v-471h-170v471 h-103q-5 -236 -97.5 -365t-270.5 -129q-53 0 -101.5 15t-84.5 53t-36 92zM504 1317q0 45 32.5 77.5t77.5 32.5q46 0 78.5 -32t32.5 -78t-32.5 -78.5t-78.5 -32.5q-44 0 -77 33t-33 78zM870 1317q0 46 32.5 78t78.5 32q45 0 78 -32.5t33 -77.5t-33 -78t-78 -33 q-46 0 -78.5 32.5t-32.5 78.5z" />
<glyph unicode="&#x4de;" horiz-adv-x="1105" d="M49 86v293l86 14l98 -274q130 -53 236 -53q92 0 160.5 54t100.5 134.5t32 173.5q0 138 -80.5 230t-212.5 92h-117v88h58q106 0 192 85t86 191q0 112 -56 184t-165 72q-110 0 -211 -39l-98 -274l-86 14v277q209 122 395 122q125 0 216.5 -25.5t144.5 -72t77.5 -105.5 t24.5 -132q0 -128 -76 -211.5t-201 -114.5v-18q145 -21 248 -126t103 -259q0 -64 -19 -125.5t-61 -119t-102.5 -101t-151.5 -69.5t-201 -26q-124 0 -233 32t-187 89zM195 1683q0 45 32.5 78t77.5 33q46 0 78.5 -32.5t32.5 -78.5t-32.5 -78t-78.5 -32q-45 0 -77.5 32.5 t-32.5 77.5zM561 1683q0 46 32.5 78.5t78.5 32.5q44 0 77 -33t33 -78t-32.5 -77.5t-77.5 -32.5q-46 0 -78.5 32t-32.5 78z" />
<glyph unicode="&#x4df;" horiz-adv-x="829" d="M16 98l47 68q146 -92 256 -92q95 0 147 57t52 150q0 90 -59 149t-152 59h-61v74h39q71 0 127.5 55.5t56.5 133.5q0 72 -44 111.5t-110 39.5q-57 0 -120 -24l-64 -168q-43 0 -73.5 30.5t-30.5 71.5q0 55 44 93.5t109.5 55.5t145.5 17q152 0 244 -63.5t92 -159.5 q0 -86 -46 -140t-127 -75v-13q93 -12 157.5 -87.5t64.5 -180.5q0 -53 -22.5 -102.5t-65.5 -90.5t-115 -65.5t-162 -24.5q-197 0 -330 121zM92 1317q0 45 33 77.5t78 32.5q46 0 78 -32t32 -78t-32 -78.5t-78 -32.5q-45 0 -78 33t-33 78zM459 1317q0 46 32 78t78 32 q45 0 78 -32.5t33 -77.5t-33 -78t-78 -33q-46 0 -78 32.5t-32 78.5z" />
<glyph unicode="&#x4e2;" horiz-adv-x="1689" d="M84 1350l178 -70v-1126l-174 -68l14 -86h537l16 86l-176 68v110l731 737v-847l-174 -68l15 -86h538l15 86l-177 68v1126l179 70l-15 84h-542l-17 -84l178 -70v-90l-731 -737v827l180 70l-16 84h-543zM492 1591v107h682v-107h-682z" />
<glyph unicode="&#x4e3;" horiz-adv-x="1116" d="M61 883v73q13 2 51 8.5t73 10.5t65 4q32 0 55 -10t33 -24t15.5 -28t6.5 -24v-10v-580q0 -116 54 -182t147 -66q78 0 144.5 94.5t66.5 256.5v550l121 23l72 -23v-788q0 -45 34.5 -69.5t85.5 -24.5v-74q-47 -23 -112 -23q-63 0 -118 37.5t-75 116.5q-43 -72 -113.5 -113 t-148.5 -41q-169 0 -259.5 92.5t-90.5 274.5v539h-107zM219 1217v106h682v-106h-682z" />
<glyph unicode="&#x4e4;" horiz-adv-x="1689" d="M84 1350l16 84h543l16 -84l-180 -70v-827l731 737v90l-178 70l17 84h542l15 -84l-179 -70v-1126l177 -68l-15 -86h-538l-15 86l174 68v847l-731 -737v-110l176 -68l-16 -86h-537l-14 86l174 68v1126zM539 1683q0 45 32.5 78t77.5 33q46 0 78.5 -32.5t32.5 -78.5 t-32.5 -78t-78.5 -32q-45 0 -77.5 32.5t-32.5 77.5zM905 1683q0 46 32.5 78.5t78.5 32.5q44 0 77 -33t33 -78t-32.5 -77.5t-77.5 -32.5q-46 0 -78.5 32t-32.5 78z" />
<glyph unicode="&#x4e5;" horiz-adv-x="1116" d="M61 883v73q13 2 51 8.5t73 10.5t65 4q32 0 55 -10t33 -24t15.5 -28t6.5 -24v-10v-580q0 -116 54 -182t147 -66q78 0 144.5 94.5t66.5 256.5v550l121 23l72 -23v-788q0 -45 34.5 -69.5t85.5 -24.5v-74q-47 -23 -112 -23q-63 0 -118 37.5t-75 116.5q-43 -72 -113.5 -113 t-148.5 -41q-169 0 -259.5 92.5t-90.5 274.5v539h-107zM285 1317q0 45 32.5 77.5t77.5 32.5q46 0 78.5 -32t32.5 -78t-32.5 -78.5t-78.5 -32.5q-45 0 -77.5 33t-32.5 78zM651 1317q0 46 32.5 78t78.5 32q45 0 77.5 -32.5t32.5 -77.5t-33 -78t-77 -33q-46 0 -78.5 32.5 t-32.5 78.5z" />
<glyph unicode="&#x4e6;" d="M123 717q0 115 27 223.5t83 204.5t135.5 168t192.5 113.5t246 41.5q167 0 298 -57.5t214 -159.5t126.5 -237.5t43.5 -296.5q0 -130 -24 -241.5t-76.5 -206.5t-131 -162t-193 -104.5t-257.5 -37.5q-142 0 -258.5 42t-194 113.5t-131 168.5t-77 204t-23.5 224zM365 727 q0 -333 106 -497t336 -164q228 0 335 167.5t107 493.5q0 323 -107.5 482t-334.5 159q-229 0 -335.5 -155.5t-106.5 -485.5zM514 1683q0 45 33 78t78 33q46 0 78 -32.5t32 -78.5t-32 -78t-78 -32q-45 0 -78 32.5t-33 77.5zM881 1683q0 46 32 78.5t78 32.5q45 0 78 -33t33 -78 t-33 -77.5t-78 -32.5q-46 0 -78 32t-32 78z" />
<glyph unicode="&#x4e7;" horiz-adv-x="1126" d="M82 479q0 232 127.5 366t353.5 134q227 0 354 -132t127 -368q0 -241 -120.5 -371.5t-360.5 -130.5q-238 0 -359.5 133t-121.5 369zM260 1317q0 45 33 77.5t78 32.5q46 0 78 -32t32 -78t-32 -78.5t-78 -32.5q-45 0 -78 33t-33 78zM281 485q0 -195 76 -313.5t206 -118.5 t206.5 118t76.5 314q0 195 -76.5 306.5t-206.5 111.5q-128 0 -205 -113t-77 -305zM627 1317q0 46 32 78t78 32q45 0 78 -32.5t33 -77.5t-33 -78t-78 -33q-46 0 -78 32.5t-32 78.5z" />
<glyph unicode="&#x4e8;" d="M123 717q0 115 27 223.5t83 204.5t135.5 168t192.5 113.5t246 41.5q167 0 298 -57.5t214 -159.5t126.5 -237.5t43.5 -296.5q0 -130 -24 -241.5t-76.5 -206.5t-131 -162t-193 -104.5t-257.5 -37.5q-142 0 -258.5 42t-194 113.5t-131 168.5t-77 204t-23.5 224zM365 676 q8 -306 114.5 -458t327.5 -152q219 0 325.5 154.5t114.5 455.5h-882zM365 762h884q-6 304 -114 455t-328 151q-224 0 -330.5 -147.5t-111.5 -458.5z" />
<glyph unicode="&#x4e9;" horiz-adv-x="1126" d="M82 479q0 232 127.5 366t353.5 134q227 0 354 -132t127 -368q0 -241 -120.5 -371.5t-360.5 -130.5q-238 0 -359.5 133t-121.5 369zM281 440q9 -175 84.5 -281t197.5 -106t198 105.5t85 281.5h-565zM281 526h565q-7 176 -84 276.5t-199 100.5q-121 0 -197 -101.5 t-85 -275.5z" />
<glyph unicode="&#x4ea;" d="M123 717q0 115 27 223.5t83 204.5t135.5 168t192.5 113.5t246 41.5q167 0 298 -57.5t214 -159.5t126.5 -237.5t43.5 -296.5q0 -130 -24 -241.5t-76.5 -206.5t-131 -162t-193 -104.5t-257.5 -37.5q-142 0 -258.5 42t-194 113.5t-131 168.5t-77 204t-23.5 224zM365 676 q8 -306 114.5 -458t327.5 -152q219 0 325.5 154.5t114.5 455.5h-882zM365 762h884q-6 304 -114 455t-328 151q-224 0 -330.5 -147.5t-111.5 -458.5zM514 1683q0 45 33 78t78 33q46 0 78 -32.5t32 -78.5t-32 -78t-78 -32q-45 0 -78 32.5t-33 77.5zM881 1683q0 46 32 78.5 t78 32.5q45 0 78 -33t33 -78t-33 -77.5t-78 -32.5q-46 0 -78 32t-32 78z" />
<glyph unicode="&#x4eb;" horiz-adv-x="1126" d="M82 479q0 232 127.5 366t353.5 134q227 0 354 -132t127 -368q0 -241 -120.5 -371.5t-360.5 -130.5q-238 0 -359.5 133t-121.5 369zM272 1317q0 45 33 77.5t78 32.5q46 0 78.5 -32t32.5 -78t-32.5 -78.5t-78.5 -32.5q-45 0 -78 33t-33 78zM281 440q9 -175 84.5 -281 t197.5 -106t198 105.5t85 281.5h-565zM281 526h565q-7 176 -84 276.5t-199 100.5q-121 0 -197 -101.5t-85 -275.5zM639 1317q0 46 32.5 78t78.5 32q45 0 77.5 -32.5t32.5 -77.5t-33 -78t-77 -33q-46 0 -78.5 32.5t-32.5 78.5z" />
<glyph unicode="&#x4ec;" horiz-adv-x="1363" d="M82 197q0 141 182 141l64 -248q80 -24 204 -24q113 0 202 37t144.5 96.5t92.5 143.5t52 170t17 183h-331l-68 -172l-84 15v403l84 14l68 -172h331q-21 584 -499 584q-143 0 -267 -39l-98 -272l-86 14v277q110 64 213.5 93t237.5 29q146 0 268.5 -42t208.5 -114 t146.5 -168.5t89 -205t28.5 -223.5q0 -116 -26.5 -223t-85 -204.5t-144 -169t-212.5 -113.5t-282 -42q-41 0 -90 4.5t-115.5 19.5t-118.5 39t-89 68t-37 101zM248 1683q0 45 33 78t77 33q46 0 78.5 -32.5t32.5 -78.5t-32.5 -78t-78.5 -32q-45 0 -77.5 32.5t-32.5 77.5z M614 1683q0 46 32.5 78.5t78.5 32.5q45 0 78 -33t33 -78t-33 -77.5t-78 -32.5q-46 0 -78.5 32t-32.5 78z" />
<glyph unicode="&#x4ed;" horiz-adv-x="970" d="M51 147q0 39 29.5 66t69.5 27l49 -121q27 -20 75 -32.5t84 -12.5q154 0 234 105t80 270h-350v79h352q-3 177 -76.5 276t-218.5 99q-133 0 -277 -112l-47 67q133 121 340 121q238 0 366 -131.5t128 -370.5q0 -236 -128.5 -368t-393.5 -132q-316 0 -316 170zM104 1317 q0 45 33 77.5t78 32.5q46 0 78.5 -32t32.5 -78t-32.5 -78.5t-78.5 -32.5q-45 0 -78 33t-33 78zM471 1317q0 46 32.5 78t78.5 32q45 0 77.5 -32.5t32.5 -77.5t-33 -78t-77 -33q-46 0 -78.5 32.5t-32.5 78.5z" />
<glyph unicode="&#x4ee;" horiz-adv-x="1267" d="M10 1350l17 84h567l14 -84l-180 -70l258 -666v-79l297 745l-178 70l14 84h422l16 -84l-180 -70l-432 -1081q-74 -185 -149 -234l-271 35l-14 86q44 0 99 14t111.5 40t104 70t68.5 97l29 70l-76 16l-359 887zM287 1591v107h682v-107h-682z" />
<glyph unicode="&#x4ef;" horiz-adv-x="1085" d="M82 885v73q13 2 51 8.5t72.5 10.5t64.5 4q32 0 55 -10t33 -24t16 -28t6 -24l1 -10v-580q0 -66 18.5 -113.5t49 -71.5t62.5 -34t67 -10q40 0 82.5 24t81.5 70.5t64 128t25 182.5v475l121 23l72 -23v-1044q0 -90 -25 -162.5t-68 -120.5t-103 -80.5t-127 -46.5t-142 -14 q-155 0 -258.5 67t-103.5 189q0 72 55.5 129.5t128.5 83.5l41 -61q-44 -24 -68 -62t-24 -78q0 -67 60 -113t169 -46q56 0 103 16t86 50.5t61 95.5t22 145v119l41 233q-37 -113 -125 -184.5t-204 -71.5q-168 0 -261.5 90t-93.5 254v541h-106zM236 1217v106h682v-106h-682z " />
<glyph unicode="&#x4f0;" horiz-adv-x="1267" d="M10 1350l17 84h567l14 -84l-180 -70l258 -666v-79l297 745l-178 70l14 84h422l16 -84l-180 -70l-432 -1081q-74 -185 -149 -234l-271 35l-14 86q44 0 99 14t111.5 40t104 70t68.5 97l29 70l-76 16l-359 887zM356 1683q0 45 33 78t78 33q46 0 78.5 -32.5t32.5 -78.5 t-32.5 -78t-78.5 -32q-45 0 -78 32.5t-33 77.5zM723 1683q0 46 32.5 78.5t78.5 32.5q44 0 77 -33t33 -78t-32.5 -77.5t-77.5 -32.5q-46 0 -78.5 32t-32.5 78z" />
<glyph unicode="&#x4f1;" horiz-adv-x="1085" d="M82 885v73q13 2 51 8.5t72.5 10.5t64.5 4q32 0 55 -10t33 -24t16 -28t6 -24l1 -10v-580q0 -66 18.5 -113.5t49 -71.5t62.5 -34t67 -10q40 0 82.5 24t81.5 70.5t64 128t25 182.5v475l121 23l72 -23v-1044q0 -90 -25 -162.5t-68 -120.5t-103 -80.5t-127 -46.5t-142 -14 q-155 0 -258.5 67t-103.5 189q0 72 55.5 129.5t128.5 83.5l41 -61q-44 -24 -68 -62t-24 -78q0 -67 60 -113t169 -46q56 0 103 16t86 50.5t61 95.5t22 145v119l41 233q-37 -113 -125 -184.5t-204 -71.5q-168 0 -261.5 90t-93.5 254v541h-106zM326 1317q0 45 32.5 77.5 t77.5 32.5q46 0 78.5 -32t32.5 -78t-32.5 -78.5t-78.5 -32.5q-44 0 -77 33t-33 78zM692 1317q0 46 32.5 78t78.5 32q45 0 77.5 -32.5t32.5 -77.5t-32.5 -78t-77.5 -33q-46 0 -78.5 32.5t-32.5 78.5z" />
<glyph unicode="&#x4f2;" horiz-adv-x="1267" d="M10 1350l17 84h567l14 -84l-180 -70l258 -666v-79l297 745l-178 70l14 84h422l16 -84l-180 -70l-432 -1081q-74 -185 -149 -234l-271 35l-14 86q44 0 99 14t111.5 40t104 70t68.5 97l29 70l-76 16l-359 887zM416 1573l223 328l195 -21l-377 -328zM700 1573l224 328 l194 -21l-377 -328z" />
<glyph unicode="&#x4f3;" horiz-adv-x="1085" d="M82 885v73q13 2 51 8.5t72.5 10.5t64.5 4q32 0 55 -10t33 -24t16 -28t6 -24l1 -10v-580q0 -66 18.5 -113.5t49 -71.5t62.5 -34t67 -10q40 0 82.5 24t81.5 70.5t64 128t25 182.5v475l121 23l72 -23v-1044q0 -90 -25 -162.5t-68 -120.5t-103 -80.5t-127 -46.5t-142 -14 q-155 0 -258.5 67t-103.5 189q0 72 55.5 129.5t128.5 83.5l41 -61q-44 -24 -68 -62t-24 -78q0 -67 60 -113t169 -46q56 0 103 16t86 50.5t61 95.5t22 145v119l41 233q-37 -113 -125 -184.5t-204 -71.5q-168 0 -261.5 90t-93.5 254v541h-106zM418 1178l139 327l182 -20 l-280 -328zM674 1178l139 327l182 -20l-280 -328z" />
<glyph unicode="&#x4f4;" horiz-adv-x="1425" d="M41 1350l16 84h543l14 -84l-178 -68v-393q0 -107 69 -163t161 -56q69 0 152 23t130 50v537l-180 70l16 86h543l16 -86l-178 -70v-1126l174 -68l-14 -86h-539l-14 86l176 68v483q-56 -27 -144.5 -45.5t-156.5 -18.5q-84 0 -160.5 22t-136.5 63t-95.5 105.5t-35.5 143.5 v375zM399 1683q0 45 33 78t78 33q46 0 78.5 -32.5t32.5 -78.5t-32.5 -78t-78.5 -32q-45 0 -78 32.5t-33 77.5zM766 1683q0 46 32.5 78.5t78.5 32.5q45 0 77.5 -33t32.5 -78t-32.5 -77.5t-77.5 -32.5q-46 0 -78.5 32t-32.5 78z" />
<glyph unicode="&#x4f5;" horiz-adv-x="1130" d="M37 883v73q13 2 51.5 8.5t73.5 10.5t65 4q32 0 55 -10t33 -24t16 -28t7 -24v-10v-275q0 -246 162 -246q36 0 70.5 17t65.5 53t50 100.5t19 149.5v274l120 23l72 -23v-788q0 -45 35 -69.5t86 -24.5v-74q-48 -23 -137 -23q-69 0 -122.5 45t-53.5 142v264 q-32 -68 -97.5 -108.5t-124.5 -40.5q-166 0 -253 99t-87 288v217h-106zM262 1317q0 45 33 77.5t78 32.5q46 0 78 -32t32 -78t-32 -78.5t-78 -32.5q-45 0 -78 33t-33 78zM629 1317q0 46 32 78t78 32q45 0 78 -32.5t33 -77.5t-33 -78t-78 -33q-46 0 -78 32.5t-32 78.5z" />
<glyph unicode="&#x4f8;" horiz-adv-x="1845" d="M72 1350l14 84h545l14 -84l-178 -70v-1194h119q171 0 256.5 96t85.5 258q0 153 -87.5 231.5t-242.5 78.5h-55v88h106q79 0 151 -12.5t140.5 -42.5t118.5 -74.5t80 -113.5t30 -155q0 -440 -497 -440h-582l-14 86l174 68v1126zM629 1683q0 45 32.5 78t77.5 33 q46 0 78.5 -32.5t32.5 -78.5t-32.5 -78t-78.5 -32q-45 0 -77.5 32.5t-32.5 77.5zM995 1683q0 46 32.5 78.5t78.5 32.5q45 0 78 -33t33 -78t-33 -77.5t-78 -32.5q-46 0 -78.5 32t-32.5 78zM1200 86l178 68v1126l-178 70l14 84h545l15 -84l-179 -70v-1126l179 -68l-15 -86 h-545z" />
<glyph unicode="&#x4f9;" horiz-adv-x="1476" d="M102 883v73q13 2 51 8.5t73 10.5t65 4q32 0 55 -10t33 -24t15.5 -28t5.5 -24l1 -10v-574q0 -256 181 -256q79 0 117 57t38 179q0 90 -49.5 146.5t-130.5 56.5q-16 0 -68 -9v70q53 12 105 12q47 0 91.5 -8t91 -28.5t81 -52t56.5 -84t22 -118.5q0 -144 -93.5 -220.5 t-260.5 -76.5q-182 0 -277.5 83t-95.5 264v559h-107zM446 1317q0 45 33 77.5t78 32.5q46 0 78.5 -32t32.5 -78t-32.5 -78.5t-78.5 -32.5q-45 0 -78 33t-33 78zM813 1317q0 46 32.5 78t78.5 32q45 0 77.5 -32.5t32.5 -77.5t-33 -78t-77 -33q-46 0 -78.5 32.5t-32.5 78.5z M1094 164v792l120 23l72 -23v-788q0 -45 35 -69.5t86 -24.5v-74q-48 -23 -137 -23q-69 0 -122.5 45t-53.5 142z" />
<glyph unicode="&#x2000;" horiz-adv-x="952" />
<glyph unicode="&#x2001;" horiz-adv-x="1905" />
<glyph unicode="&#x2002;" horiz-adv-x="952" />
<glyph unicode="&#x2003;" horiz-adv-x="1905" />
<glyph unicode="&#x2004;" horiz-adv-x="635" />
<glyph unicode="&#x2005;" horiz-adv-x="476" />
<glyph unicode="&#x2006;" horiz-adv-x="317" />
<glyph unicode="&#x2007;" horiz-adv-x="317" />
<glyph unicode="&#x2008;" horiz-adv-x="238" />
<glyph unicode="&#x2009;" horiz-adv-x="381" />
<glyph unicode="&#x200a;" horiz-adv-x="105" />
<glyph unicode="&#x2010;" horiz-adv-x="831" d="M102 502l17 112h610l-16 -112h-611z" />
<glyph unicode="&#x2011;" horiz-adv-x="831" d="M102 502l17 112h610l-16 -112h-611z" />
<glyph unicode="&#x2012;" horiz-adv-x="831" d="M102 502l17 112h610l-16 -112h-611z" />
<glyph unicode="&#x2013;" horiz-adv-x="1140" d="M61 489l17 113h1001l-16 -113h-1002z" />
<glyph unicode="&#x2014;" horiz-adv-x="1597" d="M61 489l17 113h1458l-16 -113h-1459z" />
<glyph unicode="&#x2018;" horiz-adv-x="550" d="M143 1143q0 70 26.5 143.5t67 131.5t85 102.5t84.5 68.5l43 -41q-68 -53 -115 -149.5t-47 -179.5h49q29 -32 29 -76q0 -46 -32.5 -78.5t-78.5 -32.5t-78.5 32.5t-32.5 78.5z" />
<glyph unicode="&#x2019;" horiz-adv-x="550" d="M102 1075q68 53 115 150t47 180h-49q-29 32 -29 76q0 46 32.5 78t78.5 32t78.5 -32t32.5 -78q0 -70 -26.5 -143.5t-67 -132t-85 -103t-84.5 -68.5z" />
<glyph unicode="&#x201a;" horiz-adv-x="454" d="M47 -330q68 53 115 150t47 180h-49q-29 32 -29 76q0 46 32.5 78t78.5 32t78 -32t32 -78q0 -92 -45.5 -188.5t-103.5 -161t-113 -97.5z" />
<glyph unicode="&#x201c;" horiz-adv-x="870" d="M143 1143q0 70 26.5 143.5t67 131.5t85 102.5t84.5 68.5l43 -41q-68 -53 -115 -149.5t-47 -179.5h49q29 -32 29 -76q0 -46 -32.5 -78.5t-78.5 -32.5t-78.5 32.5t-32.5 78.5zM463 1143q0 92 45.5 188t103.5 160.5t113 97.5l43 -41q-68 -53 -115 -149.5t-47 -179.5h49 q29 -32 29 -76q0 -46 -32.5 -78.5t-78.5 -32.5t-78 32.5t-32 78.5z" />
<glyph unicode="&#x201d;" horiz-adv-x="870" d="M143 1073q68 53 115 150t47 180h-49q-29 32 -29 76q0 46 32.5 78t78.5 32t78.5 -32t32.5 -78q0 -70 -26.5 -143.5t-67 -132t-85 -103t-84.5 -68.5zM463 1073q68 53 115 150t47 180h-50q-28 31 -28 76q0 46 32 78t78 32t78.5 -32t32.5 -78q0 -92 -45.5 -188.5t-103.5 -161 t-113 -97.5z" />
<glyph unicode="&#x201e;" horiz-adv-x="774" d="M88 -324q55 63 89.5 150.5t43.5 173.5h-61q-29 29 -29 76q0 44 32.5 77t78.5 33q45 0 77.5 -32.5t32.5 -77.5q0 -116 -67.5 -246t-141.5 -190zM408 -324q55 63 89.5 150.5t43.5 173.5h-62q-28 28 -28 76q0 45 32.5 77.5t77.5 32.5t78 -33t33 -77q0 -116 -67.5 -246 t-141.5 -190z" />
<glyph unicode="&#x2022;" horiz-adv-x="843" d="M205 766q0 90 62.5 152.5t152.5 62.5q92 0 155.5 -62.5t63.5 -152.5q0 -93 -63 -156t-156 -63q-91 0 -153 63t-62 156z" />
<glyph unicode="&#x2026;" horiz-adv-x="1300" d="M102 76q0 45 33 77.5t78 32.5q46 0 79.5 -32.5t33.5 -77.5q0 -46 -33.5 -78.5t-79.5 -32.5q-45 0 -78 33t-33 78zM539 76q0 45 32.5 77.5t77.5 32.5q46 0 79.5 -32.5t33.5 -77.5q0 -46 -33.5 -78.5t-79.5 -32.5q-45 0 -77.5 32.5t-32.5 78.5zM975 76q0 45 32.5 77.5 t77.5 32.5q46 0 79.5 -32.5t33.5 -77.5q0 -46 -33.5 -78.5t-79.5 -32.5q-45 0 -77.5 32.5t-32.5 78.5z" />
<glyph unicode="&#x202f;" horiz-adv-x="381" />
<glyph unicode="&#x2039;" horiz-adv-x="694" d="M123 565l416 307l32 -55l-272 -289l272 -299l-32 -55l-392 293z" />
<glyph unicode="&#x203a;" horiz-adv-x="694" d="M123 229l272 299l-272 289l33 55l415 -307l-24 -98l-391 -293z" />
<glyph unicode="&#x205f;" horiz-adv-x="476" />
<glyph unicode="&#x20ac;" horiz-adv-x="1280" d="M35 453l26 86h166q-4 74 -4 116q0 31 4 93h-192l28 86h175q19 110 62.5 198.5t115.5 157.5t181 107t249 38q128 0 217.5 -29.5t191.5 -91.5v-258l-88 -16l-96 225q-101 68 -225 68q-319 0 -373 -399h465l-25 -86h-446q-2 -29 -2 -91q0 -83 2 -118h471l-25 -86h-434 q28 -187 118 -280t249 -93q128 0 225 65l96 226l88 -15v-256q-104 -63 -193 -93t-216 -30q-136 0 -243.5 35.5t-179.5 100.5t-116 149.5t-65 190.5h-207z" />
<glyph unicode="&#x2122;" horiz-adv-x="1673" d="M102 1255v179h570v-179l-41 -6l-56 129h-135v-567l86 -33l-6 -43h-266l-6 43l86 33v567h-135l-56 -129zM690 778l8 -43h199l10 43l-84 33l47 473l195 -565l61 16l209 576l41 -500l-82 -33l6 -43h263l8 43l-84 33l-47 547l86 35l-8 41h-187l-221 -590v74l-174 516h-182 l-6 -41l81 -35l-53 -547z" />
<glyph unicode="&#x25fc;" horiz-adv-x="983" d="M0 0v983h983v-983h-983z" />
</font>
</defs>
</svg>
