<?xml version="1.0" standalone="no"?>
<!DOCTYPE svg PUBLIC "-//W3C//DTD SVG 1.1//EN" "http://www.w3.org/Graphics/SVG/1.1/DTD/svg11.dtd" >
<svg xmlns="http://www.w3.org/2000/svg">
<metadata></metadata>
<defs>
<font id="candaraitalic" horiz-adv-x="516" >
<font-face units-per-em="2048" ascent="1484" descent="-564" />
<missing-glyph horiz-adv-x="422" />
<glyph horiz-adv-x="422" />
<glyph horiz-adv-x="422" />
<glyph unicode="&#xd;" horiz-adv-x="444" />
<glyph unicode=" "  horiz-adv-x="422" />
<glyph unicode="&#x09;" horiz-adv-x="422" />
<glyph unicode="&#xa0;" horiz-adv-x="422" />
<glyph unicode="!" d="M56 112q0 68 44.5 115.5t112.5 47.5q103 0 103 -110q0 -68 -44.5 -117.5t-112.5 -49.5q-103 0 -103 114zM195 975q0 351 141 351q81 0 81 -115q0 -195 -157 -674h-60q-5 267 -5 438z" />
<glyph unicode="&#x22;" horiz-adv-x="892" d="M192 990q0 242 25 336.5t111 94.5q89 0 89 -107q0 -111 -54.5 -291t-120.5 -321h-37q-13 147 -13 288zM567 990q0 242 25 336.5t111 94.5q89 0 89 -107q0 -111 -54.5 -291t-120.5 -321h-37q-13 147 -13 288z" />
<glyph unicode="#" horiz-adv-x="1033" d="M-7 0q18 40 195 414h-155l14 128h202q19 39 41 84q40 86 76 162h-194l13 128h239q146 317 161 392h122q-12 -41 -176 -392h227q145 319 160 392h121q-11 -39 -175 -392h137l-13 -128h-182q-26 -55 -56 -118q-31 -68 -59 -128h172l-14 -128h-218q-161 -352 -182 -414h-124 q20 39 196 414h-224q-160 -352 -182 -414h-122zM358 542h225q19 41 40 86q41 85 76 160h-227q-26 -57 -56 -120q-31 -67 -58 -126z" />
<glyph unicode="$" horiz-adv-x="909" d="M83 59l45 147q119 -50 259 -50q223 0 223 128q0 93 -180 172q-116 51 -169 97q-85 73 -85 177q0 125 84 201t215 91q21 191 25 306h112q-9 -49 -39 -302q141 -3 223 -29l-44 -145q-99 44 -229 44q-196 0 -196 -130q0 -47 38 -80t141 -77q255 -109 255 -275 q0 -262 -294 -302q-18 -171 -23 -295h-111q9 61 35 289q-153 0 -285 33zM529 1055z" />
<glyph unicode="%" horiz-adv-x="1033" d="M16 10q11 97 438.5 643t438.5 649l112 -10q-10 -89 -437.5 -633t-439.5 -659zM100 1039q0 113 78.5 191t192.5 78q107 0 167 -65q54 -59 54 -148q0 -113 -78.5 -191t-191.5 -78q-107 0 -167 65q-55 59 -55 148zM210 1043q0 -56 29 -93q33 -41 91 -41q68 0 111 57 q40 51 40 121q0 57 -29 95q-32 41 -89 41q-67 0 -112 -58q-41 -54 -41 -122zM404 202q0 113 78.5 191t192.5 78q107 0 167 -65q54 -59 54 -148q0 -113 -78.5 -190.5t-192.5 -77.5q-107 0 -167 65q-54 58 -54 147zM514 207q0 -57 29 -94q33 -41 91 -41q67 0 111 56 q41 51 41 120q0 58 -29 96q-33 42 -90 42q-67 0 -112 -58q-41 -53 -41 -121z" />
<glyph unicode="&#x26;" horiz-adv-x="1326" d="M28 301q0 159 90 280t245 183v7q-145 128 -145 250q0 136 104.5 219.5t242.5 83.5q119 0 202 -63t83 -178q0 -99 -61 -181.5t-155 -120.5l-3 -10q100 -59 290 -277h6q48 73 68 268h180q-4 -40 -67.5 -165.5t-116.5 -179.5v-8q48 -52 138.5 -205.5t90.5 -203.5h-206 q0 33 -51 128.5t-82 133.5h-8q-218 -291 -518 -291q-144 0 -235.5 93t-91.5 237zM206 347q0 -109 65 -172t175 -63q159 0 376 231l2 10q-62 77 -164.5 186.5t-216.5 171.5q-237 -107 -237 -364zM381 1037q0 -123 170 -211q142 63 142 215q0 78 -41 118.5t-101 40.5 q-71 0 -120.5 -46.5t-49.5 -116.5z" />
<glyph unicode="'" horiz-adv-x="490" d="M192 990q0 242 25 336.5t111 94.5q89 0 89 -107q0 -111 -54.5 -291t-120.5 -321h-37q-13 147 -13 288z" />
<glyph unicode="(" horiz-adv-x="723" d="M104 289q0 361 147 708q172 407 458 524l41 -85q-142 -111 -243 -261q-244 -358 -244 -847q0 -472 303 -729l-78 -85q-112 56 -192 152q-192 230 -192 623z" />
<glyph unicode=")" horiz-adv-x="723" d="M-89 -401q142 114 244 264q244 361 244 844q0 472 -304 729l79 85q112 -56 192 -152q192 -230 192 -623q0 -361 -147 -708q-172 -407 -458 -524z" />
<glyph unicode="*" horiz-adv-x="1033" d="M125 1103q0 48 29 86q28 44 66 44q55 0 243 -173l19 12q-20 173 -20 258q0 21 1 34q3 31 40 51q34 19 76 19q87 0 87 -70q0 -79 -112 -296l15 -16q222 140 279 140q35 0 57 -49q17 -39 17 -85q0 -62 -81 -80q-34 -7 -134 -7q-40 0 -128 8l-8 -20q182 -181 182 -238 q0 -42 -48 -82t-89 -40q-78 0 -111 318h-21q-136 -289 -204 -289q-40 0 -78 35.5t-38 76.5q0 72 268 225l-4 23q-105 9 -268 41q-35 7 -35 74z" />
<glyph unicode="+" horiz-adv-x="1033" d="M122 438l12 128h329l37 366h122l-37 -366h326l-12 -128h-329l-37 -366h-122l37 366h-326z" />
<glyph unicode="," d="M-47 -310q93 99 128 182q22 52 31 142q-49 29 -49 102q0 66 46.5 112.5t112.5 46.5q50 0 77 -43q24 -36 24 -89q0 -242 -324 -511zM180 -2z" />
<glyph unicode="-" d="M41 438l23 128l411 15l-25 -129z" />
<glyph unicode="." d="M57 112q0 68 44.5 115.5t112.5 47.5q103 0 103 -110q0 -68 -44.5 -117.5t-112.5 -49.5q-103 0 -103 114z" />
<glyph unicode="/" horiz-adv-x="547" d="M-103 -302q6 65 259.5 816.5t272.5 940.5h141q-7 -69 -260.5 -828.5t-270.5 -928.5h-142z" />
<glyph unicode="0" horiz-adv-x="1095" d="M120 407q0 271 136.5 464t358.5 193q198 0 279 -132.5t81 -299.5q0 -268 -137 -462.5t-359 -194.5q-190 0 -274.5 128t-84.5 304zM285 440q0 -161 60 -246t168 -85q128 0 211.5 137.5t83.5 349.5q0 137 -53 235.5t-173 98.5q-134 0 -215.5 -141.5t-81.5 -348.5z" />
<glyph unicode="1" horiz-adv-x="698" d="M90 777l370 265h98q-43 -323 -72 -606q-23 -212 -37 -436h-178q32 211 56 436q25 243 28 368l-229 -114z" />
<glyph unicode="2" horiz-adv-x="885" d="M40 0l36 155q137 70 325 226.5t188 354.5q0 183 -249 183q-66 0 -192 -14l34 139q74 20 195 20q212 0 298 -84.5t86 -192.5q0 -105 -48 -204.5t-166.5 -208t-316.5 -237.5l-1 -8q271 0 536 12l-36 -141h-689z" />
<glyph unicode="3" horiz-adv-x="950" d="M0 -277q235 25 438.5 132.5t203.5 293.5q0 242 -438 242l33 124q151 0 292.5 61t141.5 183q0 160 -277 160q-115 0 -204 -20l29 138q115 27 285 27t248 -71t78 -175q0 -211 -268 -305l-2 -11q126 -25 195 -112.5t69 -211.5q0 -269 -252 -414t-558 -162z" />
<glyph unicode="4" horiz-adv-x="1021" d="M40 283q3 25 297 390.5t296 381.5h204q-34 -217 -90 -752q86 0 184 11l-37 -162h-162q-20 -187 -40 -482h-171q35 258 59 482h-533zM197 297q162 0 398 6q43 308 73 608h-7q-2 -27 -232 -308.5t-231 -297.5z" />
<glyph unicode="5" horiz-adv-x="939" d="M40 -243q238 19 416.5 122.5t178.5 294.5q0 145 -114.5 200.5t-405.5 55.5q51 212 121 625h583l-23 -159q-190 27 -454 27q-21 -77 -60 -356q535 0 535 -347q0 -263 -236 -418t-526 -167z" />
<glyph unicode="6" horiz-adv-x="1063" d="M100 417q0 392 192.5 646.5t568.5 279.5l4 -120q-250 -27 -379 -155.5t-189 -383.5h10q104 130 314 130q154 0 238 -111.5t84 -264.5q0 -205 -133.5 -343t-341.5 -138q-155 0 -261.5 118t-106.5 342zM278 452q0 -185 59.5 -273t149.5 -88q125 0 204 97.5t79 224.5 q0 113 -69 192t-200 79q-143 0 -217 -95q-6 -57 -6 -137z" />
<glyph unicode="7" horiz-adv-x="922" d="M50 -309q9 105 326 596t329 628q-203 0 -600 -25l23 165h764q-19 -236 -340.5 -768.5t-329.5 -616.5z" />
<glyph unicode="8" horiz-adv-x="1075" d="M100 320q0 273 314 407v11q-165 115 -165 293q0 154 114.5 244.5t273.5 90.5q130 0 224 -74t94 -197q0 -107 -68.5 -195t-173.5 -131v-11q236 -148 236 -359q0 -188 -138 -304t-331 -116q-156 0 -268 91.5t-112 249.5zM259 343q0 -112 70.5 -171.5t171.5 -59.5 q117 0 202 71.5t85 186.5q0 171 -260 312q-114 -39 -191.5 -131.5t-77.5 -207.5zM404 1060q0 -147 198 -252q200 89 200 270q0 84 -54 129t-130 45q-88 0 -151 -53t-63 -139z" />
<glyph unicode="9" horiz-adv-x="1055" d="M100 571q0 205 130.5 349t336.5 144q155 0 261.5 -122t106.5 -353q0 -407 -199 -687.5t-590 -306.5l-17 122q512 37 612 626h-8q-110 -140 -314 -140q-153 0 -236 107.5t-83 260.5zM274 608q0 -115 64 -195t186 -80q142 0 231 116q6 57 6 111q0 181 -64.5 273.5 t-158.5 92.5q-120 0 -192 -97t-72 -221z" />
<glyph unicode=":" d="M57 112q0 68 44.5 115.5t112.5 47.5q103 0 103 -110q0 -68 -44.5 -117.5t-112.5 -49.5q-103 0 -103 114zM129 794q0 68 44.5 115.5t112.5 47.5q103 0 103 -110q0 -68 -44.5 -117.5t-112.5 -49.5q-103 0 -103 114z" />
<glyph unicode=";" d="M-47 -310q93 99 128 182q22 52 31 142q-49 29 -49 102q0 66 46.5 112.5t112.5 46.5q50 0 77 -43q24 -36 24 -89q0 -242 -324 -511zM126 794q0 68 44.5 115.5t112.5 47.5q103 0 103 -110q0 -68 -44.5 -117.5t-112.5 -49.5q-103 0 -103 114zM180 -2z" />
<glyph unicode="&#x3c;" horiz-adv-x="1033" d="M106 469l10 87l744 444l66 -122l-652 -355l-3 -23l579 -351l-91 -124z" />
<glyph unicode="=" horiz-adv-x="1033" d="M99 231l15 128h777l-15 -128h-777zM143 645l14 128h777l-14 -128h-777z" />
<glyph unicode="&#x3e;" horiz-adv-x="1033" d="M106 149l655 353l2 23l-580 353l90 122l653 -444l-10 -87l-744 -444z" />
<glyph unicode="?" horiz-adv-x="723" d="M77 112q0 68 44.5 115.5t112.5 47.5q104 0 104 -110q0 -68 -44.5 -117.5t-112.5 -49.5q-104 0 -104 114zM92 1209l37 126q508 0 508 -277q0 -122 -93 -228q-83 -96 -206 -142l-35 -151h-75l-14 213q260 63 260 260q0 199 -382 199z" />
<glyph unicode="@" horiz-adv-x="1962" d="M112 376q0 435 269 767t700 332q388 0 582.5 -231.5t194.5 -551.5q0 -278 -142 -499.5t-374 -221.5q-99 0 -161.5 57.5t-62.5 159.5q0 10 3 35h-9q-134 -252 -332 -252q-107 0 -163 97.5t-56 239.5q0 245 147 458t384 213q135 0 175 -91h11l22 62l124 21 q-65 -237 -140 -576q-11 -57 -11 -108q0 -180 145 -180q119 0 198 193t79 380q0 269 -150.5 454.5t-475.5 185.5q-355 0 -578.5 -294t-223.5 -658q0 -292 160.5 -488t469.5 -196q148 0 271 45l2 -173q-122 -31 -293 -31q-372 0 -568.5 248t-196.5 603zM716 318 q0 -202 132 -202q107 0 228 192t150 469q-38 58 -138 58q-163 0 -267.5 -171.5t-104.5 -345.5z" />
<glyph unicode="A" horiz-adv-x="1232" d="M-40 0q5 29 315 640q306 606 312 662h220q0 -90 165.5 -653t165.5 -649h-199q0 97 -77 421h-548q-44 -95 -77 -172q-78 -185 -85 -249h-192zM367 552h465q-158 578 -158 624h-9q-3 -31 -298 -624z" />
<glyph unicode="B" horiz-adv-x="1118" d="M88 0q21 141 84 684q37 352 42 618h124q33 0 144.5 3t156.5 3q165 0 266 -70.5t101 -201.5q0 -105 -59 -192q-62 -92 -162 -121v-10q95 -18 164.5 -92.5t69.5 -198.5q0 -220 -175.5 -324t-446.5 -104q-74 0 -309 6zM271 143q55 -9 176 -9q172 0 290 57.5t118 219.5 q0 215 -390 215q-76 0 -154 -6q-28 -267 -40 -477zM325 756q65 -2 121 -2q174 0 262 37q133 57 133 207q0 180 -244 180q-133 0 -235 -15q0 -23 -37 -407z" />
<glyph unicode="C" horiz-adv-x="1010" d="M70 567q0 319 215.5 536t540.5 217q86 0 177 -27l-44 -159q-104 36 -190 36q-239 0 -382 -170.5t-143 -412.5q0 -198 118 -334.5t343 -136.5q92 0 244 43l-27 -149q-169 -37 -260 -37q-297 0 -444.5 173.5t-147.5 420.5z" />
<glyph unicode="D" horiz-adv-x="1211" d="M88 0q21 141 84 684q37 352 42 618h113q38 0 116.5 3t121.5 3q289 0 432.5 -165.5t143.5 -401.5q0 -312 -205 -533.5t-522 -221.5q-99 0 -326 14zM271 136q74 -16 147 -16q253 0 403.5 173.5t150.5 427.5q0 194 -119 323t-363 129q-59 0 -126 -10q-9 -107 -45 -479 q-28 -270 -48 -548z" />
<glyph unicode="E" horiz-adv-x="986" d="M88 0q21 141 85 684q37 352 42 618h727l-23 -149q-258 12 -550 12q-4 -53 -29 -325l-9 -94q252 0 450 12l-17 -149q-208 9 -448 9q-27 -257 -44 -482q316 0 606 15l-25 -151h-765z" />
<glyph unicode="F" horiz-adv-x="931" d="M88 0q22 141 87 684q37 352 40 618h739l-21 -149q-248 12 -568 12q-8 -122 -39 -458q223 0 436 8l-17 -145q-202 8 -433 8q-41 -391 -50 -578h-174z" />
<glyph unicode="G" horiz-adv-x="1163" d="M70 570q0 316 218.5 533t541.5 217q132 0 234 -29l-41 -166q-162 40 -251 40q-237 0 -382.5 -167.5t-145.5 -406.5q0 -201 122.5 -341.5t349.5 -140.5q56 0 151 15q-1 22 -1 53q0 70 10.5 208t10.5 208h172q-10 -60 -37 -279q-7 -63 -13 -287q-171 -54 -339 -54 q-298 0 -449 174.5t-151 422.5z" />
<glyph unicode="H" horiz-adv-x="1225" d="M88 0q25 170 86 684q35 334 42 618h190q-20 -133 -71 -556h575q23 217 35 556h192q-21 -126 -80 -618q-37 -349 -48 -684h-190q22 163 74 620h-568q-23 -222 -46 -620h-191z" />
<glyph unicode="I" horiz-adv-x="494" d="M88 0q23 148 87 684q37 354 39 618h192q-19 -123 -78 -618q-33 -315 -45 -612l-3 -72h-192z" />
<glyph unicode="J" horiz-adv-x="786" d="M-47 -6l29 146q65 -33 128 -33q146 0 219 59q116 95 145 369q48 453 56 767h192q-22 -134 -93 -744q-35 -338 -183 -476q-117 -109 -329 -109q-93 0 -164 21z" />
<glyph unicode="K" horiz-adv-x="1127" d="M88 0q21 141 84 684q37 352 42 618h190q-18 -123 -66 -540h20q44 0 289 258q241 253 241 282h194q0 -30 -225 -256t-331 -300l-2 -11q106 -45 320 -383q196 -310 196 -352h-197q0 17 -88 178q-102 187 -208.5 331t-173.5 144h-48q-25 -234 -50 -653h-187z" />
<glyph unicode="L" horiz-adv-x="931" d="M88 0q18 106 85 684q39 375 44 618h185q-14 -85 -76 -618q-36 -342 -64 -548q232 0 597 11l-23 -147h-748z" />
<glyph unicode="M" horiz-adv-x="1594" d="M44 0q0 35 124 588.5t141 713.5h240q0 -156 100.5 -551t100.5 -532h10q11 107 221 548t220 535h245q-32 -285 -32 -732q0 -351 18 -570h-189q0 526 50 1161h-11q-10 -32 -66.5 -178t-242.5 -524.5t-194 -458.5h-133q0 102 -101.5 534.5t-112.5 497.5t-18 129h-10 q-19 -154 -106 -637.5t-87 -523.5h-167z" />
<glyph unicode="N" horiz-adv-x="1245" d="M77 0q23 149 87 684q37 352 39 618h194q0 -59 248 -498q260 -458 285 -585h8q-6 37 -6 93q0 162 21 362q39 370 42 628h173q-20 -119 -79 -618q-38 -359 -58 -684h-134q0 36 -270 516q-280 499 -308 616h-11q6 -43 6 -122q0 -142 -20 -332q-35 -336 -58 -678h-159z" />
<glyph unicode="O" horiz-adv-x="1318" d="M70 545q0 317 192.5 550t481.5 233q202 0 353 -159.5t151 -424.5q0 -310 -191.5 -546.5t-482.5 -236.5q-204 0 -354 160.5t-150 423.5zM244 555q0 -213 110 -334t262 -121q206 0 333.5 195t127.5 440q0 215 -111 334.5t-263 119.5q-209 0 -334 -192.5t-125 -441.5z" />
<glyph unicode="P" horiz-adv-x="1072" d="M88 0q20 126 86 684q36 344 42 618h144q22 0 126 3t176 3q167 0 266.5 -90t99.5 -225q0 -240 -182 -354t-455 -114q-55 0 -80 2q-25 -235 -30 -527h-193zM323 655q33 -2 81 -2q458 0 458 301q0 224 -308 224q-81 0 -181 -15z" />
<glyph unicode="Q" horiz-adv-x="1318" d="M70 545q0 303 188 543t486 240q202 0 352 -158.5t150 -423.5q0 -226 -102.5 -416.5t-294.5 -294.5v-10q158 -16 220.5 -106t89.5 -353l-180 -8q-31 273 -99.5 338t-307.5 65q-201 0 -351.5 159.5t-150.5 424.5zM244 555q0 -213 110 -334t262 -121q206 0 333.5 195 t127.5 440q0 215 -111 334.5t-263 119.5q-209 0 -334 -192.5t-125 -441.5z" />
<glyph unicode="R" horiz-adv-x="1134" d="M88 0q21 141 84 684q37 352 42 618h142q5 0 90.5 3t169.5 3q180 0 283.5 -81.5t103.5 -219.5q0 -123 -75 -217.5t-198 -136.5v-10q98 -32 161 -156.5t153 -486.5h-180q-56 266 -105 380.5t-113.5 146t-197.5 31.5q-81 0 -137 -2q-34 -323 -38 -556h-185zM325 690 q56 -2 108 -2q400 0 400 285q0 203 -283 203q-109 0 -181 -13q-9 -115 -44 -473z" />
<glyph unicode="S" horiz-adv-x="998" d="M31 10l50 157q134 -58 278 -58q357 0 357 211q0 88 -65 149t-202 128q-154 73 -227.5 152t-73.5 203q0 184 124.5 276t319.5 92q226 0 307 -31l-40 -159q-119 48 -281 48q-277 0 -277 -188q0 -74 56.5 -125t182.5 -111q161 -75 247.5 -165t86.5 -228q0 -394 -530 -394 q-179 0 -313 43z" />
<glyph unicode="T" horiz-adv-x="1033" d="M98 1159l19 143h944l-19 -141q-187 10 -386 10q-20 -161 -54 -487t-52 -684h-185q23 157 85 684q31 291 45 487q-141 0 -397 -12z" />
<glyph unicode="U" horiz-adv-x="1282" d="M124 469q0 87 8 163q22 211 54 670h190q-25 -182 -75 -597q-12 -114 -12 -213q0 -210 68.5 -298.5t218.5 -88.5q181 0 275.5 123.5t131.5 478.5q22 210 38 595h187q-19 -144 -76 -659q-70 -670 -581 -670q-200 0 -313.5 111t-113.5 385z" />
<glyph unicode="V" horiz-adv-x="1153" d="M74 1302h180q0 -130 134 -561t134 -541h10q7 70 250.5 533.5t243.5 568.5h182q0 -97 -323.5 -660.5t-331.5 -641.5h-124q0 126 -177.5 640.5t-177.5 661.5z" />
<glyph unicode="W" horiz-adv-x="1843" d="M74 1302h182q0 -38 105.5 -507.5t105.5 -594.5h10q11 108 219.5 575t208.5 527h167q0 -55 104.5 -524.5t104.5 -577.5h8q10 91 216 548.5t206 553.5h186q0 -76 -290 -657.5t-297 -644.5h-124q0 80 -114.5 517t-123.5 582h-10q-35 -142 -231 -587t-203 -512h-124 q0 102 -153 683.5t-153 618.5z" />
<glyph unicode="X" horiz-adv-x="1155" d="M-52 0q0 29 239 343t292 362v10q-44 59 -183.5 308.5t-139.5 278.5h205q0 -38 102 -235.5t142 -254.5h8q57 64 189.5 263t132.5 227h198q0 -28 -197 -266t-263 -301v-10q64 -75 222 -371.5t158 -353.5h-207q0 50 -124 294t-177 320h-11q-70 -86 -217.5 -327t-147.5 -287 h-221z" />
<glyph unicode="Y" horiz-adv-x="1049" d="M74 1302h194q0 -38 127 -323t127 -382h10q10 93 195.5 377t185.5 328h190q0 -38 -170 -262t-265.5 -365.5t-106.5 -250.5q-21 -200 -21 -424h-191q57 376 57 459q0 122 -65 273.5t-166 344t-101 225.5z" />
<glyph unicode="Z" horiz-adv-x="1000" d="M28 0l21 120q139 176 421 587.5t287 459.5l2 11q-208 0 -593 -25l17 149h775l-21 -124q-125 -161 -399.5 -575t-278.5 -456l-2 -11q196 0 608 27l-21 -163h-816z" />
<glyph unicode="[" horiz-adv-x="723" d="M82 -473q79 612 112 944q21 204 97 1037l458 13l-28 -172q-208 6 -280 6q-79 -627 -105 -884q-15 -139 -76 -800q70 2 296 19l-28 -174z" />
<glyph unicode="\" horiz-adv-x="490" d="M100 1455h151q0 -189 78.5 -940.5t78.5 -816.5h-153q0 169 -77.5 928.5t-77.5 828.5z" />
<glyph unicode="]" horiz-adv-x="723" d="M-92 -486l28 174q210 -6 286 -6q84 714 100 882q15 139 76 802q-70 -2 -297 -19l28 172l446 -11q-93 -758 -112 -944q-21 -203 -97 -1037z" />
<glyph unicode="^" horiz-adv-x="981" d="M29 682l499 735h83l343 -735l-130 -83l-262 645h-23l-397 -645z" />
<glyph unicode="_" horiz-adv-x="1000" d="M-164 -384h1033v-128h-1033v128z" />
<glyph unicode="`" horiz-adv-x="562" d="M143 1410h195q0 -11 69 -159.5t69 -164.5h-114q0 16 -108.5 164t-110.5 160z" />
<glyph unicode="a" horiz-adv-x="980" d="M54 325q0 250 175 435t503 189l44 31l118 15q-91 -508 -91 -739q0 -105 18 -246l-169 -25q-6 89 -6 223h-9q-127 -231 -335 -231q-121 0 -184.5 96.5t-63.5 251.5zM225 344q0 -228 152 -228q106 0 195 152.5t110.5 276t29.5 291.5q-254 -5 -370.5 -138.5t-116.5 -353.5z " />
<glyph unicode="b" horiz-adv-x="1106" d="M96 -10q13 92 87 756q42 400 42 661l190 10q0 -36 -18 -153q-26 -173 -48 -392q-5 -50 -17 -134h8q132 243 362 243q142 0 230 -104.5t88 -281.5q0 -270 -137.5 -446t-372.5 -176q-159 0 -238 66h-8l-27 -39zM280 159q97 -58 188 -58q190 0 285.5 121t95.5 313 q0 308 -217 308q-109 0 -212.5 -137t-119.5 -320z" />
<glyph unicode="c" horiz-adv-x="864" d="M86 417q0 230 149.5 393t406.5 163q113 0 182 -16l-41 -157q-96 31 -199 31q-150 0 -240.5 -116.5t-90.5 -274.5q0 -145 63.5 -234.5t187.5 -89.5q131 0 276 92l-25 -148q-103 -87 -284 -87q-192 0 -294 136q-91 119 -91 308z" />
<glyph unicode="d" horiz-adv-x="1102" d="M86 363q0 272 138 447t372 175q150 0 233 -66h8q21 207 36 488l185 6q0 -26 -34 -216t-60 -449.5t-26 -488.5q0 -135 8 -259l-156 -13q-16 83 -16 233h-8q-132 -243 -362 -243q-142 0 -230 104.5t-88 281.5zM257 423q0 -308 217 -308q109 0 212.5 137t119.5 320l20 227 q-87 58 -188 58q-187 0 -284 -116.5t-97 -317.5z" />
<glyph unicode="e" horiz-adv-x="974" d="M86 406q0 277 161.5 432.5t372.5 155.5q128 0 214 -62t86 -171q0 -135 -125 -205q-159 -90 -542 -97q0 -180 62.5 -261.5t210.5 -81.5q145 0 316 102l-25 -148q-135 -97 -334 -97q-204 0 -300.5 122.5t-96.5 310.5zM262 574q307 6 421 65q78 40 78 118q0 53 -49 81.5 t-126 28.5q-109 0 -202.5 -72t-121.5 -221z" />
<glyph unicode="f" horiz-adv-x="681" d="M16 -372q93 76 131.5 173.5t65.5 372.5t53 623q-58 0 -203 -6l23 147q130 -8 194 -8q28 262 110.5 384t247.5 122q58 0 119 -15l-31 -126q-54 7 -111 7q-89 0 -127.5 -74t-62.5 -298q94 0 264 10l-20 -149q-184 6 -257 6q-28 -367 -52 -685.5t-99 -421.5t-205 -140z M354 958z" />
<glyph unicode="g" horiz-adv-x="1040" d="M-28 -225q0 187 197 270l1 9q-61 33 -61 121q0 104 113 197l1 8q-39 21 -78 86t-39 146q0 177 120.5 273t306.5 96q155 0 247 -66h9q28 98 66 137t103 39q70 0 107 -15l-30 -138q-164 0 -200 -62l-1 -8q44 -74 44 -158q0 -177 -122.5 -278t-305.5 -101q-100 0 -151 20 q-58 -41 -58 -115q0 -52 46.5 -68.5t358.5 -16.5q271 0 271 -210q0 -207 -169 -332.5t-389 -125.5q-210 0 -298.5 77.5t-88.5 214.5zM115 -192q0 -211 261 -211q163 0 276 78.5t113 200.5q0 80 -57.5 103t-260.5 23q-95 0 -196 12q-136 -67 -136 -206zM258 627 q0 -92 57.5 -141.5t156.5 -49.5q109 0 178.5 68t69.5 177q0 95 -63 147q-57 48 -149 48q-110 0 -180 -69.5t-70 -179.5z" />
<glyph unicode="h" horiz-adv-x="1075" d="M96 -10q12 92 84 756q42 400 42 661l190 10q0 -36 -18 -153q-26 -173 -48 -392q-5 -50 -17 -134h8q130 243 358 243q261 0 261 -297q0 -79 -22.5 -322t-22.5 -362l-169 -10q0 44 29 283t29 362q0 117 -42.5 162.5t-133.5 45.5q-109 0 -209.5 -142.5t-117.5 -314.5 q-22 -224 -34 -386z" />
<glyph unicode="i" horiz-adv-x="465" d="M96 -10q23 158 62 467q21 200 21 369q0 71 -4 116l184 27v-8q1 -71 -17 -191q-18 -126 -39 -313q-15 -142 -33 -457zM206 1221q0 58 38 98t96 40q91 0 91 -95q0 -58 -38 -99t-96 -41q-91 0 -91 97z" />
<glyph unicode="j" horiz-adv-x="465" d="M-58 -372q92 75 127 178t73.5 469t38.5 558q0 70 -4 109l182 27q0 -73 -27.5 -275.5t-49 -451.5t-26.5 -298q-34 -323 -275 -392zM205 1221q0 58 39.5 98t97.5 40q89 0 89 -95q0 -58 -38.5 -99t-96.5 -41q-91 0 -91 97z" />
<glyph unicode="k" horiz-adv-x="997" d="M96 -10q16 94 91 756q41 390 41 661l184 10q0 -51 -50 -441.5t-77 -645.5h10q53 125 266.5 355.5t213.5 274.5l206 -6q0 -33 -127.5 -162t-232.5 -215l-1 -10q112 -132 191 -314t79 -253l-181 -10q0 53 -57.5 208.5t-137.5 264.5q-69 -70 -120 -142q-122 -172 -132 -321z " />
<glyph unicode="l" horiz-adv-x="470" d="M96 -15q0 42 33.5 267.5t61.5 493.5q43 409 43 661l182 10q0 -59 -29.5 -267.5t-49.5 -403.5q-49 -467 -59 -741z" />
<glyph unicode="m" horiz-adv-x="1644" d="M96 -10q70 518 70 700q0 105 -16 256l169 25q6 -98 6 -233h8q116 243 337 243q119 0 179 -68.5t59 -174.5h9q124 243 346 243q262 0 262 -297q0 -112 -22.5 -342t-22.5 -342l-169 -10q0 77 28.5 311t28.5 324q0 119 -34.5 168.5t-109.5 49.5q-126 0 -216.5 -132 t-109.5 -325q-24 -244 -24 -386l-169 -10q0 67 29 308t29 327q0 119 -34.5 168.5t-109.5 49.5q-121 0 -214 -138.5t-112 -318.5q-24 -242 -34 -386z" />
<glyph unicode="n" horiz-adv-x="1071" d="M96 -10q70 518 70 700q0 105 -16 256l169 25q6 -88 6 -233h8q130 243 358 243q261 0 261 -297q0 -79 -22.5 -322t-22.5 -362l-169 -10q0 44 29 283t29 362q0 117 -42.5 162.5t-133.5 45.5q-109 0 -209.5 -142.5t-117.5 -314.5q-22 -224 -34 -386z" />
<glyph unicode="o" horiz-adv-x="1085" d="M86 415q0 237 145 408t386 171q159 0 270.5 -118t111.5 -318q0 -241 -145.5 -419t-383.5 -178q-157 0 -270.5 126.5t-113.5 327.5zM255 426q0 -140 64.5 -239.5t185.5 -99.5q147 0 235.5 139.5t88.5 302.5q0 140 -63.5 239.5t-183.5 99.5q-149 0 -238 -139.5t-89 -302.5z " />
<glyph unicode="p" horiz-adv-x="1099" d="M40 -457q126 922 126 1177q0 95 -16 226l169 25q6 -83 6 -233h8q132 243 362 243q142 0 230 -104.5t88 -281.5q0 -271 -138 -446.5t-372 -175.5q-159 0 -233 66h-8q-29 -278 -44 -486zM273 159q97 -58 188 -58q191 0 286 120.5t95 313.5q0 308 -217 308q-108 0 -212 -137 t-120 -320z" />
<glyph unicode="q" horiz-adv-x="1089" d="M86 363q0 270 137.5 446t372.5 176q159 0 233 -66h8l43 31l123 11q-17 -96 -85 -674q-26 -244 -64 -732l-167 -10q14 105 39.5 340.5t47.5 334.5h-8q-132 -243 -362 -243q-142 0 -230 104.5t-88 281.5zM257 423q0 -308 217 -308q106 0 211 137t121 320l20 227 q-89 58 -184 58q-191 0 -288 -117.5t-97 -316.5z" />
<glyph unicode="r" horiz-adv-x="745" d="M96 -10q70 518 70 700q0 105 -16 256l169 25q8 -82 8 -147h8q120 159 257 159q72 0 169 -22l-60 -159q-70 20 -134 20q-229 0 -255 -236q-37 -342 -53 -586z" />
<glyph unicode="s" horiz-adv-x="803" d="M22 6l46 147q118 -44 258 -44q225 0 225 129q0 90 -180 169q-256 112 -256 277q0 143 105 219t257 76q164 0 260 -22l-45 -145q-100 37 -230 37q-194 0 -194 -130q0 -47 37 -79t141 -76q254 -109 254 -277q0 -308 -388 -308q-157 0 -290 27z" />
<glyph unicode="t" horiz-adv-x="761" d="M86 791l21 145q94 -6 164 -6q6 41 43 285l150 16q-18 -102 -47 -301q93 0 266 10l-20 -149q-165 6 -269 6q-52 -336 -52 -481q0 -114 29 -156t98 -42q100 0 209 65l-25 -133q-105 -71 -216 -71q-137 0 -191 67.5t-54 215.5q0 124 57 535q-53 0 -163 -6zM354 958z" />
<glyph unicode="u" horiz-adv-x="1071" d="M119 268q0 79 22.5 321t22.5 361l173 20q0 -43 -31 -286.5t-31 -366.5q0 -117 42.5 -162.5t133.5 -45.5q109 0 209.5 143t117.5 314q24 244 24 384l173 20q-70 -556 -70 -738q0 -105 16 -226l-169 -25q-6 88 -6 233h-8q-130 -243 -358 -243q-261 0 -261 297z" />
<glyph unicode="v" horiz-adv-x="960" d="M86 950l184 11q0 -94 84 -393.5t84 -379.5h8q4 34 156 345t152 417l184 11q0 -99 -239.5 -505t-244.5 -456h-128q0 137 -120 494.5t-120 455.5z" />
<glyph unicode="w" horiz-adv-x="1515" d="M86 950l176 11q0 -85 67 -405t67 -368h10q8 78 159 391t151 371h162q0 -46 78.5 -383t78.5 -379h10q5 52 139 361.5t134 400.5l175 11q0 -90 -209.5 -496.5t-215.5 -464.5h-129q0 39 -65.5 321.5t-95.5 455.5h-8q-67 -180 -204 -461t-141 -316h-130q0 52 -104.5 463 t-104.5 487z" />
<glyph unicode="x" horiz-adv-x="1013" d="M22 -10q0 49 144.5 222t264.5 292v8q-53 71 -161 245t-108 193l205 11q0 -25 63 -162.5t104 -201.5h8q53 59 138 193t85 160l190 11q0 -42 -135 -200t-224 -242v-11q67 -94 184.5 -289t117.5 -219l-207 -10q0 26 -78.5 182t-130.5 241h-6q-56 -70 -155 -226.5t-99 -186.5 z" />
<glyph unicode="y" horiz-adv-x="928" d="M-1 -442l6 140q128 0 229.5 97.5t101.5 221.5q0 152 -125 497t-125 436l196 11q0 -123 78.5 -415.5t78.5 -374.5h11q5 52 144 355t139 424l173 11q0 -128 -207.5 -504t-240.5 -469q-90 -252 -167 -332q-94 -98 -292 -98z" />
<glyph unicode="z" horiz-adv-x="859" d="M34 0l25 145q54 49 298.5 337.5t244.5 323.5v10q-306 0 -479 -12l21 146h661l-27 -146q-79 -82 -302 -351.5t-223 -309.5v-9q287 0 494 17l-21 -151h-692z" />
<glyph unicode="{" horiz-adv-x="723" d="M39 438l16 149q247 54 247 179q0 45 -21 180t-21 197q0 171 149 275q125 87 312 103l24 -124q-335 -49 -335 -299q0 -51 23.5 -175.5t23.5 -161.5q0 -92 -75.5 -165t-167.5 -73v-9q59 0 118 -43q78 -56 78 -155q0 -71 -64 -217.5t-64 -215.5q0 -173 288 -245l-73 -128 q-379 83 -379 296q0 85 64 254t64 242q0 64 -75 102q-58 29 -132 34z" />
<glyph unicode="|" d="M175 1550h163q-11 -742 -11 -1079q0 -329 13 -988h-163q10 659 10 988q0 321 -12 1079z" />
<glyph unicode="}" horiz-adv-x="723" d="M-78 -364q328 56 328 294q0 49 -18.5 174t-18.5 164q0 91 73.5 165.5t166.5 74.5l2 6q-58 0 -117 45q-78 59 -78 158q0 63 59 213.5t59 214.5q0 186 -272 250l62 126q381 -69 381 -300q0 -74 -65 -257.5t-65 -233.5q0 -64 77 -102q58 -29 133 -35l-14 -149 q-243 -49 -243 -183q0 -45 18 -178.5t18 -196.5q0 -167 -145 -269q-120 -84 -310 -107z" />
<glyph unicode="~" horiz-adv-x="981" d="M-8 364q168 262 347 262q65 0 182 -35t178 -35q113 0 206 118l87 -50q-166 -238 -345 -238q-65 0 -169.5 36.5t-165.5 36.5q-113 0 -233 -147z" />
<glyph unicode="&#xa2;" horiz-adv-x="1033" d="M145 477q0 206 131 364t336 191q14 134 22 306h106q-13 -87 -40 -298q99 0 184 -25l-41 -157q-97 35 -200 35q-147 0 -235 -119.5t-88 -270.5q0 -139 80 -235t236 -96q71 0 203 37l-25 -134q-88 -45 -221 -45q-17 -157 -21 -283h-103q7 52 35 289q-176 27 -267.5 152.5 t-91.5 288.5zM644 958z" />
<glyph unicode="&#xa3;" horiz-adv-x="909" d="M60 0l9 93q172 55 172 312q0 43 -4 93q-67 0 -154 -7l16 104q50 -3 138 -3q-2 30 -1 58q0 256 101 392t293 136q58 0 137 -8l-32 -122q-39 10 -97 10q-124 0 -192 -82.5t-68 -319.5q0 -22 1 -64q79 0 205 5l-15 -103q-77 4 -187 4q1 -21 1 -41q0 -253 -142 -338l-1 -10 q203 0 575 23l-31 -132h-724z" />
<glyph unicode="&#xa5;" horiz-adv-x="909" d="M63 382l7 75h272q-9 46 -29 108h-231l8 77q134 -3 196 -3q-45 114 -122 267.5t-76 161.5h194q0 -7 98.5 -241.5t88.5 -323.5h6q10 90 143.5 321.5t134.5 243.5h178q-1 -10 -112 -166t-178 -265q73 2 195 5l-8 -77h-229q-39 -69 -57 -108h274l-7 -75q-171 3 -298 3 q-22 -212 -33 -385h-166q25 206 44 385q-108 0 -293 -3z" />
<glyph unicode="&#xa8;" horiz-adv-x="836" d="M164 1222q0 53 34 90.5t86 37.5q80 0 80 -86q0 -53 -34 -90.5t-86 -37.5q-80 0 -80 86zM520 1224q0 52 35 89t87 37q80 0 80 -86q0 -53 -33 -90.5t-85 -37.5q-84 0 -84 88z" />
<glyph unicode="&#xa9;" horiz-adv-x="1245" d="M24 598q0 249 176.5 425.5t425.5 176.5q248 0 424 -176.5t176 -425.5q0 -248 -175.5 -423t-424.5 -175t-425.5 175t-176.5 423zM116 600q0 -211 149.5 -360.5t360.5 -149.5t359.5 149.5t148.5 360.5t-148.5 360.5t-359.5 149.5t-360.5 -149.5t-149.5 -360.5zM352 575 q0 159 107.5 268t270.5 109q43 0 88 -14l-22 -79q-52 18 -95 18q-120 0 -193 -89q-69 -82 -69 -203q0 -99 59 -167t171 -68q46 0 122 21l-13 -74q-85 -19 -130 -19q-149 0 -222.5 86.5t-73.5 210.5z" />
<glyph unicode="&#xab;" horiz-adv-x="929" d="M70 426l12 124l310 297l72 -66l-246 -293l184 -296l-84 -66zM463 426l12 124l310 297l72 -66l-246 -293l184 -296l-84 -66z" />
<glyph unicode="&#xad;" d="M41 438l23 128l411 15l-25 -129z" />
<glyph unicode="&#xae;" horiz-adv-x="1245" d="M24 758q0 249 176.5 425.5t425.5 176.5q248 0 424 -176.5t176 -425.5q0 -248 -175.5 -423t-424.5 -175t-425.5 175t-176.5 423zM116 760q0 -211 149.5 -360.5t360.5 -149.5t359.5 149.5t148.5 360.5t-148.5 360.5t-359.5 149.5t-360.5 -149.5t-149.5 -360.5zM389 458 q10 70 42 342q18 176 21 309h71q2 0 45 1.5t85 1.5q90 0 141.5 -40.5t51.5 -110.5q0 -130 -136 -177v-5q49 -16 79 -75q33 -65 78 -246h-90q-40 190 -81 239q-33 40 -127 40q-41 0 -69 -1q-17 -162 -19 -278h-92zM507 803q28 -1 54 -1q200 0 200 142q0 102 -141 102 q-55 0 -91 -7q-4 -57 -22 -236z" />
<glyph unicode="&#xb4;" horiz-adv-x="562" d="M110 1086q0 16 102 164.5t102 159.5h205q0 -12 -147.5 -160t-147.5 -164h-114z" />
<glyph unicode="&#xb8;" horiz-adv-x="470" d="M96 -142l64 194l68 -14l-26 -108q164 -57 164 -202q0 -222 -250 -222l-4 92q46 0 79 32.5t33 75.5q0 125 -128 152z" />
<glyph unicode="&#xbb;" horiz-adv-x="929" d="M5 192l246 294l-184 295l84 66l248 -297l-12 -124l-310 -300zM420 192l246 294l-184 295l84 66l248 -297l-12 -124l-310 -300z" />
<glyph unicode="&#xc0;" horiz-adv-x="1232" d="M-40 0q5 29 315 640q306 606 312 662h220q0 -90 165.5 -653t165.5 -649h-199q0 97 -77 421h-548q-44 -95 -77 -172q-78 -185 -85 -249h-192zM367 552h465q-158 578 -158 624h-9q-3 -31 -298 -624zM457 1690h195q0 -11 69 -134.5t69 -139.5h-114q0 16 -108.5 139 t-110.5 135z" />
<glyph unicode="&#xc1;" horiz-adv-x="1232" d="M-40 0q5 29 315 640q306 606 312 662h220q0 -90 165.5 -653t165.5 -649h-199q0 97 -77 421h-548q-44 -95 -77 -172q-78 -185 -85 -249h-192zM367 552h465q-158 578 -158 624h-9q-3 -31 -298 -624zM618 1416q0 16 102 139.5t102 134.5h205q0 -12 -147.5 -135t-147.5 -139 h-114z" />
<glyph unicode="&#xc2;" horiz-adv-x="1232" d="M-40 0q5 29 315 640q306 606 312 662h220q0 -90 165.5 -653t165.5 -649h-199q0 97 -77 421h-548q-44 -95 -77 -172q-78 -185 -85 -249h-192zM367 552h465q-158 578 -158 624h-9q-3 -31 -298 -624zM420 1416q1 13 106 135.5t111 138.5h184q4 -16 77.5 -138.5t73.5 -135.5 h-98q0 13 -157 168q-198 -155 -199 -168h-98z" />
<glyph unicode="&#xc3;" horiz-adv-x="1232" d="M-40 0q5 29 315 640q306 606 312 662h220q0 -90 165.5 -653t165.5 -649h-199q0 97 -77 421h-548q-44 -95 -77 -172q-78 -185 -85 -249h-192zM367 552h465q-158 578 -158 624h-9q-3 -31 -298 -624zM383 1476q129 178 262 178q48 0 118.5 -22t115.5 -22q84 0 176 80l52 -50 q-127 -175 -260 -175q-48 0 -118.5 24t-115.5 24q-84 0 -176 -87z" />
<glyph unicode="&#xc4;" horiz-adv-x="1232" d="M-40 0q5 29 315 640q306 606 312 662h220q0 -90 165.5 -653t165.5 -649h-199q0 97 -77 421h-548q-44 -95 -77 -172q-78 -185 -85 -249h-192zM367 552h465q-158 578 -158 624h-9q-3 -31 -298 -624zM440 1530q0 53 34 90.5t86 37.5q80 0 80 -86q0 -53 -34 -90.5t-86 -37.5 q-80 0 -80 86zM796 1532q0 52 35 89t87 37q80 0 80 -86q0 -53 -33 -90.5t-85 -37.5q-84 0 -84 88z" />
<glyph unicode="&#xc5;" horiz-adv-x="1232" d="M-40 0q5 29 315 640q306 606 312 662h220q0 -90 165.5 -653t165.5 -649h-199q0 97 -77 421h-548q-44 -95 -77 -172q-78 -185 -85 -249h-192zM367 552h465q-158 578 -158 624h-9q-3 -31 -298 -624zM515 1557q0 103 69 163t159 60q82 0 139 -51t57 -145q0 -104 -69 -165 t-159 -61q-82 0 -139 51.5t-57 147.5zM609 1562q0 -57 32 -87.5t78 -30.5q50 0 88 35.5t38 96.5q0 57 -32 87.5t-78 30.5q-50 0 -88 -35.5t-38 -96.5z" />
<glyph unicode="&#xc6;" horiz-adv-x="1599" d="M-40 0q4 36 315.5 636t318.5 666h961l-21 -149q-283 12 -574 12q-4 -53 -29 -325l-8 -94q223 0 473 6l-15 -143q-237 9 -475 9q-27 -257 -41 -482q323 0 622 15l-21 -151h-781q18 118 56 421h-438q-43 -102 -74 -181q-76 -192 -81 -240h-188zM359 552h396q31 292 52 613 h-149q-4 -38 -299 -613z" />
<glyph unicode="&#xc7;" horiz-adv-x="1010" d="M70 567q0 319 215.5 536t540.5 217q86 0 177 -27l-44 -159q-104 36 -190 36q-239 0 -382 -170.5t-143 -412.5q0 -198 118 -334.5t343 -136.5q92 0 244 43l-27 -149q-149 -37 -260 -37q-55 0 -104 6l-12 -49q164 -57 164 -202q0 -222 -250 -222l-4 92q46 0 79 32.5 t33 75.5q0 125 -128 152l44 135q-170 40 -292 183.5t-122 390.5z" />
<glyph unicode="&#xc8;" horiz-adv-x="986" d="M88 0q21 141 85 684q37 352 42 618h727l-23 -149q-258 12 -550 12q-4 -53 -29 -325l-9 -94q252 0 450 12l-17 -149q-208 9 -448 9q-27 -257 -44 -482q316 0 606 15l-25 -151h-765zM400 1690h195q0 -11 69 -134.5t69 -139.5h-114q0 16 -108.5 139t-110.5 135z" />
<glyph unicode="&#xc9;" horiz-adv-x="986" d="M88 0q21 141 85 684q37 352 42 618h727l-23 -149q-258 12 -550 12q-4 -53 -29 -325l-9 -94q252 0 450 12l-17 -149q-208 9 -448 9q-27 -257 -44 -482q316 0 606 15l-25 -151h-765zM526 1416q0 16 102 139.5t102 134.5h205q0 -12 -147.5 -135t-147.5 -139h-114z" />
<glyph unicode="&#xca;" horiz-adv-x="986" d="M88 0q21 141 85 684q37 352 42 618h727l-23 -149q-258 12 -550 12q-4 -53 -29 -325l-9 -94q252 0 450 12l-17 -149q-208 9 -448 9q-27 -257 -44 -482q316 0 606 15l-25 -151h-765zM332 1416q1 13 106 135.5t111 138.5h184q4 -16 77.5 -138.5t73.5 -135.5h-98 q0 13 -157 168q-198 -155 -199 -168h-98z" />
<glyph unicode="&#xcb;" horiz-adv-x="986" d="M88 0q21 141 85 684q37 352 42 618h727l-23 -149q-258 12 -550 12q-4 -53 -29 -325l-9 -94q252 0 450 12l-17 -149q-208 9 -448 9q-27 -257 -44 -482q316 0 606 15l-25 -151h-765zM352 1530q0 53 34 90.5t86 37.5q80 0 80 -86q0 -53 -34 -90.5t-86 -37.5q-80 0 -80 86z M708 1532q0 52 35 89t87 37q80 0 80 -86q0 -53 -33 -90.5t-85 -37.5q-84 0 -84 88z" />
<glyph unicode="&#xcc;" horiz-adv-x="494" d="M96 1690h195q0 -11 69 -134.5t69 -139.5h-114q0 16 -108.5 139t-110.5 135zM103 0q23 148 87 684q37 354 39 618h192q-19 -123 -78 -618q-33 -315 -45 -612l-3 -72h-192z" />
<glyph unicode="&#xcd;" horiz-adv-x="494" d="M103 0q23 148 87 684q37 354 39 618h192q-19 -123 -78 -618q-33 -315 -45 -612l-3 -72h-192zM270 1416q0 16 102 139.5t102 134.5h205q0 -12 -147.5 -135t-147.5 -139h-114z" />
<glyph unicode="&#xce;" horiz-adv-x="494" d="M93 1416q1 13 106 135.5t111 138.5h184q4 -16 77.5 -138.5t73.5 -135.5h-98q0 13 -157 168q-198 -155 -199 -168h-98zM103 0q23 148 87 684q37 354 39 618h192q-19 -123 -78 -618q-33 -315 -45 -612l-3 -72h-192z" />
<glyph unicode="&#xcf;" horiz-adv-x="494" d="M94 1530q0 53 34 90.5t86 37.5q80 0 80 -86q0 -53 -34 -90.5t-86 -37.5q-80 0 -80 86zM103 0q23 148 87 684q37 354 39 618h192q-19 -123 -78 -618q-33 -315 -45 -612l-3 -72h-192zM450 1532q0 52 35 89t87 37q80 0 80 -86q0 -53 -33 -90.5t-85 -37.5q-84 0 -84 88z" />
<glyph unicode="&#xd0;" horiz-adv-x="1211" d="M9 568l25 167q86 -4 143 -4q31 306 37 571h113q39 0 120 3t118 3q289 0 432.5 -165.5t143.5 -402.5q0 -312 -205 -533t-522 -221q-99 0 -328 14l76 585zM272 136q73 -16 146 -16q254 0 404 174t150 429q0 195 -117 322.5t-360 127.5q-59 0 -130 -10q-7 -95 -40 -432 q141 10 374 33l-22 -161q-184 0 -366 -8q-23 -233 -39 -459z" />
<glyph unicode="&#xd1;" horiz-adv-x="1245" d="M77 0q23 149 87 684q37 352 39 618h194q0 -59 248 -498q260 -458 285 -585h8q-6 37 -6 93q0 162 21 362q39 370 42 628h173q-20 -119 -79 -618q-38 -359 -58 -684h-134q0 36 -270 516q-280 499 -308 616h-11q6 -43 6 -122q0 -142 -20 -332q-35 -336 -58 -678h-159z M386 1476q129 178 262 178q48 0 118.5 -22t115.5 -22q84 0 176 80l52 -50q-127 -175 -260 -175q-48 0 -118.5 24t-115.5 24q-84 0 -176 -87z" />
<glyph unicode="&#xd2;" horiz-adv-x="1318" d="M70 545q0 317 192.5 550t481.5 233q202 0 353 -159.5t151 -424.5q0 -310 -191.5 -546.5t-482.5 -236.5q-204 0 -354 160.5t-150 423.5zM244 555q0 -213 110 -334t262 -121q206 0 333.5 195t127.5 440q0 215 -111 334.5t-263 119.5q-209 0 -334 -192.5t-125 -441.5z M525 1690h195q0 -11 69 -134.5t69 -139.5h-114q0 16 -108.5 139t-110.5 135z" />
<glyph unicode="&#xd3;" horiz-adv-x="1318" d="M70 545q0 317 192.5 550t481.5 233q202 0 353 -159.5t151 -424.5q0 -310 -191.5 -546.5t-482.5 -236.5q-204 0 -354 160.5t-150 423.5zM244 555q0 -213 110 -334t262 -121q206 0 333.5 195t127.5 440q0 215 -111 334.5t-263 119.5q-209 0 -334 -192.5t-125 -441.5z M711 1416q0 16 102 139.5t102 134.5h205q0 -12 -147.5 -135t-147.5 -139h-114z" />
<glyph unicode="&#xd4;" horiz-adv-x="1318" d="M70 545q0 317 192.5 550t481.5 233q202 0 353 -159.5t151 -424.5q0 -310 -191.5 -546.5t-482.5 -236.5q-204 0 -354 160.5t-150 423.5zM244 555q0 -213 110 -334t262 -121q206 0 333.5 195t127.5 440q0 215 -111 334.5t-263 119.5q-209 0 -334 -192.5t-125 -441.5z M514 1416q1 13 106 135.5t111 138.5h184q4 -16 77.5 -138.5t73.5 -135.5h-98q0 13 -157 168q-198 -155 -199 -168h-98z" />
<glyph unicode="&#xd5;" horiz-adv-x="1318" d="M70 545q0 317 192.5 550t481.5 233q202 0 353 -159.5t151 -424.5q0 -310 -191.5 -546.5t-482.5 -236.5q-204 0 -354 160.5t-150 423.5zM244 555q0 -213 110 -334t262 -121q206 0 333.5 195t127.5 440q0 215 -111 334.5t-263 119.5q-209 0 -334 -192.5t-125 -441.5z M441 1476q129 178 262 178q48 0 118.5 -22t115.5 -22q84 0 176 80l52 -50q-127 -175 -260 -175q-48 0 -118.5 24t-115.5 24q-84 0 -176 -87z" />
<glyph unicode="&#xd6;" horiz-adv-x="1318" d="M70 545q0 317 192.5 550t481.5 233q202 0 353 -159.5t151 -424.5q0 -310 -191.5 -546.5t-482.5 -236.5q-204 0 -354 160.5t-150 423.5zM244 555q0 -213 110 -334t262 -121q206 0 333.5 195t127.5 440q0 215 -111 334.5t-263 119.5q-209 0 -334 -192.5t-125 -441.5z M518 1530q0 53 34 90.5t86 37.5q80 0 80 -86q0 -53 -34 -90.5t-86 -37.5q-80 0 -80 86zM874 1532q0 52 35 89t87 37q80 0 80 -86q0 -53 -33 -90.5t-85 -37.5q-84 0 -84 88z" />
<glyph unicode="&#xd8;" horiz-adv-x="1318" d="M-29 -83q4 45 201 264q-102 147 -102 364q0 317 192.5 550t481.5 233q196 0 344 -151q135 154 137 176l113 -31q-3 -37 -179 -234q89 -141 89 -344q0 -310 -191.5 -546.5t-482.5 -236.5q-186 0 -327 133q-163 -182 -165 -208zM244 558q0 -143 49 -245q267 288 454 491 t233 253q-7 8 -14 15q-111 120 -263 120q-207 0 -333 -192.5t-126 -441.5zM359 218q108 -115 257 -115q207 0 334 193.5t127 441.5q0 125 -38 218q-259 -283 -450.5 -489.5t-229.5 -248.5z" />
<glyph unicode="&#xd9;" horiz-adv-x="1282" d="M124 469q0 87 8 163q22 211 54 670h190q-25 -182 -75 -597q-12 -114 -12 -213q0 -210 68.5 -298.5t218.5 -88.5q181 0 275.5 123.5t131.5 478.5q22 210 38 595h187q-19 -144 -76 -659q-70 -670 -581 -670q-200 0 -313.5 111t-113.5 385zM471 1690h195q0 -11 69 -134.5 t69 -139.5h-114q0 16 -108.5 139t-110.5 135z" />
<glyph unicode="&#xda;" horiz-adv-x="1282" d="M124 469q0 87 8 163q22 211 54 670h190q-25 -182 -75 -597q-12 -114 -12 -213q0 -210 68.5 -298.5t218.5 -88.5q181 0 275.5 123.5t131.5 478.5q22 210 38 595h187q-19 -144 -76 -659q-70 -670 -581 -670q-200 0 -313.5 111t-113.5 385zM660 1416q0 16 102 139.5 t102 134.5h205q0 -12 -147.5 -135t-147.5 -139h-114z" />
<glyph unicode="&#xdb;" horiz-adv-x="1282" d="M124 469q0 87 8 163q22 211 54 670h190q-25 -182 -75 -597q-12 -114 -12 -213q0 -210 68.5 -298.5t218.5 -88.5q181 0 275.5 123.5t131.5 478.5q22 210 38 595h187q-19 -144 -76 -659q-70 -670 -581 -670q-200 0 -313.5 111t-113.5 385zM452 1416q1 13 106 135.5 t111 138.5h184q4 -16 77.5 -138.5t73.5 -135.5h-98q0 13 -157 168q-198 -155 -199 -168h-98z" />
<glyph unicode="&#xdc;" horiz-adv-x="1282" d="M124 469q0 87 8 163q22 211 54 670h190q-25 -182 -75 -597q-12 -114 -12 -213q0 -210 68.5 -298.5t218.5 -88.5q181 0 275.5 123.5t131.5 478.5q22 210 38 595h187q-19 -144 -76 -659q-70 -670 -581 -670q-200 0 -313.5 111t-113.5 385zM457 1530q0 53 34 90.5t86 37.5 q80 0 80 -86q0 -53 -34 -90.5t-86 -37.5q-80 0 -80 86zM813 1532q0 52 35 89t87 37q80 0 80 -86q0 -53 -33 -90.5t-85 -37.5q-84 0 -84 88z" />
<glyph unicode="&#xdd;" horiz-adv-x="1049" d="M74 1302h194q0 -38 127 -323t127 -382h10q10 93 195.5 377t185.5 328h190q0 -38 -170 -262t-265.5 -365.5t-106.5 -250.5q-21 -200 -21 -424h-191q57 376 57 459q0 122 -65 273.5t-166 344t-101 225.5zM518 1416q0 16 102 139.5t102 134.5h205q0 -12 -147.5 -135 t-147.5 -139h-114z" />
<glyph unicode="&#xde;" horiz-adv-x="1057" d="M88 0q22 157 84 690q32 309 44 612h187q-17 -118 -25 -181q119 6 267 6q167 0 267.5 -90.5t100.5 -225.5q0 -236 -179 -351.5t-458 -115.5h-82q-19 -157 -19 -344h-187zM309 472h80q457 0 457 302q0 223 -308 223q-83 0 -178 -15q-10 -69 -51 -510z" />
<glyph unicode="&#xdf;" horiz-adv-x="1046" d="M-56 -372q93 76 131.5 173.5t65.5 372.5t47 529.5t69.5 420t167 239t266.5 73.5q139 0 220 -60.5t81 -160.5q0 -97 -75 -187l-138 -140q-75 -80 -75 -151q0 -77 126 -191q150 -135 150 -277q0 -146 -111 -223q-98 -67 -252 -67q-119 0 -197 23l40 128q80 -31 180 -31 q193 0 193 129q0 80 -125 198q-151 143 -151 258q0 94 76 187l142 148q76 86 76 163q0 122 -184 122q-157 0 -229.5 -107t-99 -437t-50.5 -648.5t-99 -421.5t-205 -140z" />
<glyph unicode="&#xe0;" horiz-adv-x="980" d="M54 325q0 250 175 435t503 189l44 31l118 15q-91 -508 -91 -739q0 -105 18 -246l-169 -25q-6 89 -6 223h-9q-127 -231 -335 -231q-121 0 -184.5 96.5t-63.5 251.5zM225 344q0 -228 152 -228q106 0 195 152.5t110.5 276t29.5 291.5q-254 -5 -370.5 -138.5t-116.5 -353.5z M333 1410h195q0 -11 69 -159.5t69 -164.5h-114q0 16 -108.5 164t-110.5 160z" />
<glyph unicode="&#xe1;" horiz-adv-x="980" d="M54 325q0 250 175 435t503 189l44 31l118 15q-91 -508 -91 -739q0 -105 18 -246l-169 -25q-6 89 -6 223h-9q-127 -231 -335 -231q-121 0 -184.5 96.5t-63.5 251.5zM225 344q0 -228 152 -228q106 0 195 152.5t110.5 276t29.5 291.5q-254 -5 -370.5 -138.5t-116.5 -353.5z M480 1086q0 16 102 164.5t102 159.5h205q0 -12 -147.5 -160t-147.5 -164h-114z" />
<glyph unicode="&#xe2;" horiz-adv-x="980" d="M54 325q0 250 175 435t503 189l44 31l118 15q-91 -508 -91 -739q0 -105 18 -246l-169 -25q-6 89 -6 223h-9q-127 -231 -335 -231q-121 0 -184.5 96.5t-63.5 251.5zM225 344q0 -228 152 -228q106 0 195 152.5t110.5 276t29.5 291.5q-254 -5 -370.5 -138.5t-116.5 -353.5z M284 1086q1 13 106 160.5t111 163.5h184q4 -16 77.5 -163.5t73.5 -160.5h-98q0 13 -157 208q-198 -195 -199 -208h-98z" />
<glyph unicode="&#xe3;" horiz-adv-x="980" d="M54 325q0 250 175 435t503 189l44 31l118 15q-91 -508 -91 -739q0 -105 18 -246l-169 -25q-6 89 -6 223h-9q-127 -231 -335 -231q-121 0 -184.5 96.5t-63.5 251.5zM225 344q0 -228 152 -228q106 0 195 152.5t110.5 276t29.5 291.5q-254 -5 -370.5 -138.5t-116.5 -353.5z M278 1133q129 211 262 211q48 0 118.5 -22t115.5 -22q84 0 176 92l52 -50q-127 -187 -260 -187q-48 0 -118.5 24t-115.5 24q-84 0 -176 -120z" />
<glyph unicode="&#xe4;" horiz-adv-x="980" d="M54 325q0 250 175 435t503 189l44 31l118 15q-91 -508 -91 -739q0 -105 18 -246l-169 -25q-6 89 -6 223h-9q-127 -231 -335 -231q-121 0 -184.5 96.5t-63.5 251.5zM225 344q0 -228 152 -228q106 0 195 152.5t110.5 276t29.5 291.5q-254 -5 -370.5 -138.5t-116.5 -353.5z M324 1222q0 53 34 90.5t86 37.5q80 0 80 -86q0 -53 -34 -90.5t-86 -37.5q-80 0 -80 86zM680 1224q0 52 35 89t87 37q80 0 80 -86q0 -53 -33 -90.5t-85 -37.5q-84 0 -84 88z" />
<glyph unicode="&#xe5;" horiz-adv-x="980" d="M54 325q0 250 175 435t503 189l44 31l118 15q-91 -508 -91 -739q0 -105 18 -246l-169 -25q-6 89 -6 223h-9q-127 -231 -335 -231q-121 0 -184.5 96.5t-63.5 251.5zM225 344q0 -228 152 -228q106 0 195 152.5t110.5 276t29.5 291.5q-254 -5 -370.5 -138.5t-116.5 -353.5z M393 1258q0 103 69 163t159 60q82 0 139 -51t57 -145q0 -104 -69 -165t-159 -61q-82 0 -139 51.5t-57 147.5zM487 1263q0 -57 32 -87.5t78 -30.5q50 0 88 35.5t38 96.5q0 57 -32 87.5t-78 30.5q-50 0 -88 -35.5t-38 -96.5z" />
<glyph unicode="&#xe6;" horiz-adv-x="1547" d="M54 325q0 244 171 430.5t507 193.5l44 31l118 15l-18 -104h10q140 103 307 103q128 0 214 -62t86 -171q0 -135 -125 -205q-159 -90 -542 -97q0 -184 63.5 -263.5t209.5 -79.5q145 0 316 102l-25 -148q-135 -97 -334 -97q-303 0 -378 245h-10q-158 -241 -366 -241 q-121 0 -184.5 96.5t-63.5 251.5zM225 344q0 -228 152 -228q113 0 197.5 145t106.5 276t31 299q-253 -3 -370 -138.5t-117 -353.5zM835 574q307 6 421 65q78 40 78 118q0 49 -50.5 79.5t-124.5 30.5q-109 0 -202.5 -72t-121.5 -221z" />
<glyph unicode="&#xe7;" horiz-adv-x="864" d="M86 417q0 221 146 388.5t410 167.5q113 0 182 -16l-41 -157q-96 31 -199 31q-154 0 -242.5 -118.5t-88.5 -272.5q0 -139 61.5 -231.5t189.5 -92.5q131 0 276 92l-25 -148q-103 -87 -284 -87q-16 0 -32 1l-10 -44q164 -57 164 -202q0 -222 -250 -222l-4 92q46 0 79 32.5 t33 75.5q0 125 -128 152l42 127q-117 28 -198 135.5t-81 296.5z" />
<glyph unicode="&#xe8;" horiz-adv-x="974" d="M86 406q0 277 161.5 432.5t372.5 155.5q128 0 214 -62t86 -171q0 -135 -125 -205q-159 -90 -542 -97q0 -180 62.5 -261.5t210.5 -81.5q145 0 316 102l-25 -148q-135 -97 -334 -97q-204 0 -300.5 122.5t-96.5 310.5zM262 574q307 6 421 65q78 40 78 118q0 53 -49 81.5 t-126 28.5q-109 0 -202.5 -72t-121.5 -221zM333 1410h195q0 -11 69 -159.5t69 -164.5h-114q0 16 -108.5 164t-110.5 160z" />
<glyph unicode="&#xe9;" horiz-adv-x="974" d="M86 406q0 277 161.5 432.5t372.5 155.5q128 0 214 -62t86 -171q0 -135 -125 -205q-159 -90 -542 -97q0 -180 62.5 -261.5t210.5 -81.5q145 0 316 102l-25 -148q-135 -97 -334 -97q-204 0 -300.5 122.5t-96.5 310.5zM262 574q307 6 421 65q78 40 78 118q0 53 -49 81.5 t-126 28.5q-109 0 -202.5 -72t-121.5 -221zM505 1086q0 16 102 164.5t102 159.5h205q0 -12 -147.5 -160t-147.5 -164h-114z" />
<glyph unicode="&#xea;" horiz-adv-x="974" d="M86 406q0 277 161.5 432.5t372.5 155.5q128 0 214 -62t86 -171q0 -135 -125 -205q-159 -90 -542 -97q0 -180 62.5 -261.5t210.5 -81.5q145 0 316 102l-25 -148q-135 -97 -334 -97q-204 0 -300.5 122.5t-96.5 310.5zM262 574q307 6 421 65q78 40 78 118q0 53 -49 81.5 t-126 28.5q-109 0 -202.5 -72t-121.5 -221zM299 1086q1 13 106 160.5t111 163.5h184q4 -16 77.5 -163.5t73.5 -160.5h-98q0 13 -157 208q-198 -195 -199 -208h-98z" />
<glyph unicode="&#xeb;" horiz-adv-x="974" d="M86 406q0 277 161.5 432.5t372.5 155.5q128 0 214 -62t86 -171q0 -135 -125 -205q-159 -90 -542 -97q0 -180 62.5 -261.5t210.5 -81.5q145 0 316 102l-25 -148q-135 -97 -334 -97q-204 0 -300.5 122.5t-96.5 310.5zM262 574q307 6 421 65q78 40 78 118q0 53 -49 81.5 t-126 28.5q-109 0 -202.5 -72t-121.5 -221zM314 1222q0 53 34 90.5t86 37.5q80 0 80 -86q0 -53 -34 -90.5t-86 -37.5q-80 0 -80 86zM670 1224q0 52 35 89t87 37q80 0 80 -86q0 -53 -33 -90.5t-85 -37.5q-84 0 -84 88z" />
<glyph unicode="&#xec;" horiz-adv-x="465" d="M34 1410h195q0 -11 69 -159.5t69 -164.5h-114q0 16 -108.5 164t-110.5 160zM96 -10q23 158 62 467q21 200 21 369q0 71 -4 116l184 27q0 -63 -22 -241q-34 -267 -34 -271q-15 -142 -33 -457z" />
<glyph unicode="&#xed;" horiz-adv-x="465" d="M96 -10q23 158 62 467q21 200 21 369q0 71 -4 116l184 27q0 -63 -22 -241q-34 -267 -34 -271q-15 -142 -33 -457zM198 1086q0 16 102 164.5t102 159.5h205q0 -12 -147.5 -160t-147.5 -164h-114z" />
<glyph unicode="&#xee;" horiz-adv-x="465" d="M15 1086q1 13 106 160.5t111 163.5h184q4 -16 77.5 -163.5t73.5 -160.5h-98q0 13 -157 208q-198 -195 -199 -208h-98zM96 -10q23 158 62 467q21 200 21 369q0 71 -4 116l184 27q0 -63 -22 -241q-34 -267 -34 -271q-15 -142 -33 -457z" />
<glyph unicode="&#xef;" horiz-adv-x="465" d="M17 1221q0 53 34 90.5t86 37.5q80 0 80 -86q0 -53 -34 -90.5t-86 -37.5q-80 0 -80 86zM96 -10q23 158 62 467q21 200 21 369q0 71 -4 116l184 27q0 -63 -22 -241q-34 -267 -34 -271q-15 -142 -33 -457zM373 1223q0 52 35 89t87 37q80 0 80 -86q0 -53 -33 -90.5t-85 -37.5 q-84 0 -84 88z" />
<glyph unicode="&#xf0;" horiz-adv-x="1092" d="M86 382q0 213 134.5 385.5t347.5 172.5q134 0 236 -70h10q-36 164 -124 283q-74 -47 -160 -114l-62 119q46 15 168 71q-54 73 -113 124l98 85q44 -28 151 -136q83 48 192 124l62 -124q-50 -22 -193 -83q150 -211 150 -513q0 -304 -124 -524.5t-388 -220.5 q-188 0 -286.5 121.5t-98.5 299.5zM255 402q0 -130 66.5 -217t183.5 -87q160 0 241 191t81 447q-103 72 -257 72q-140 0 -227.5 -125t-87.5 -281z" />
<glyph unicode="&#xf1;" horiz-adv-x="1071" d="M96 -10q70 518 70 700q0 105 -16 256l169 25q6 -88 6 -233h8q130 243 358 243q261 0 261 -297q0 -79 -22.5 -322t-22.5 -362l-169 -10q0 44 29 283t29 362q0 117 -42.5 162.5t-133.5 45.5q-109 0 -209.5 -142.5t-117.5 -314.5q-22 -224 -34 -386zM278 1133 q129 211 262 211q48 0 118.5 -22t115.5 -22q84 0 176 92l52 -50q-127 -187 -260 -187q-48 0 -118.5 24t-115.5 24q-84 0 -176 -120z" />
<glyph unicode="&#xf2;" horiz-adv-x="1085" d="M86 415q0 237 145 408t386 171q159 0 270.5 -118t111.5 -318q0 -241 -145.5 -419t-383.5 -178q-157 0 -270.5 126.5t-113.5 327.5zM255 426q0 -140 64.5 -239.5t185.5 -99.5q147 0 235.5 139.5t88.5 302.5q0 140 -63.5 239.5t-183.5 99.5q-149 0 -238 -139.5t-89 -302.5z M333 1410h195q0 -11 69 -159.5t69 -164.5h-114q0 16 -108.5 164t-110.5 160z" />
<glyph unicode="&#xf3;" horiz-adv-x="1085" d="M86 415q0 237 145 408t386 171q159 0 270.5 -118t111.5 -318q0 -241 -145.5 -419t-383.5 -178q-157 0 -270.5 126.5t-113.5 327.5zM255 426q0 -140 64.5 -239.5t185.5 -99.5q147 0 235.5 139.5t88.5 302.5q0 140 -63.5 239.5t-183.5 99.5q-149 0 -238 -139.5t-89 -302.5z M525 1086q0 16 102 164.5t102 159.5h205q0 -12 -147.5 -160t-147.5 -164h-114z" />
<glyph unicode="&#xf4;" horiz-adv-x="1085" d="M86 415q0 237 145 408t386 171q159 0 270.5 -118t111.5 -318q0 -241 -145.5 -419t-383.5 -178q-157 0 -270.5 126.5t-113.5 327.5zM255 426q0 -140 64.5 -239.5t185.5 -99.5q147 0 235.5 139.5t88.5 302.5q0 140 -63.5 239.5t-183.5 99.5q-149 0 -238 -139.5t-89 -302.5z M364 1086q1 13 106 160.5t111 163.5h184q4 -16 77.5 -163.5t73.5 -160.5h-98q0 13 -157 208q-198 -195 -199 -208h-98z" />
<glyph unicode="&#xf5;" horiz-adv-x="1085" d="M86 415q0 237 145 408t386 171q159 0 270.5 -118t111.5 -318q0 -241 -145.5 -419t-383.5 -178q-157 0 -270.5 126.5t-113.5 327.5zM255 426q0 -140 64.5 -239.5t185.5 -99.5q147 0 235.5 139.5t88.5 302.5q0 140 -63.5 239.5t-183.5 99.5q-149 0 -238 -139.5t-89 -302.5z M288 1133q129 211 262 211q48 0 118.5 -22t115.5 -22q84 0 176 92l52 -50q-127 -187 -260 -187q-48 0 -118.5 24t-115.5 24q-84 0 -176 -120z" />
<glyph unicode="&#xf6;" horiz-adv-x="1085" d="M86 415q0 237 145 408t386 171q159 0 270.5 -118t111.5 -318q0 -241 -145.5 -419t-383.5 -178q-157 0 -270.5 126.5t-113.5 327.5zM255 426q0 -140 64.5 -239.5t185.5 -99.5q147 0 235.5 139.5t88.5 302.5q0 140 -63.5 239.5t-183.5 99.5q-149 0 -238 -139.5t-89 -302.5z M354 1222q0 53 34 90.5t86 37.5q80 0 80 -86q0 -53 -34 -90.5t-86 -37.5q-80 0 -80 86zM710 1224q0 52 35 89t87 37q80 0 80 -86q0 -53 -33 -90.5t-85 -37.5q-84 0 -84 88z" />
<glyph unicode="&#xf8;" horiz-adv-x="1085" d="M-22 -83q4 38 164 208q-66 102 -66 262q0 241 145 424t382 183q175 0 282 -118q104 111 106 136l84 -31q-3 -32 -139 -179q52 -98 52 -238q0 -241 -145 -422t-382 -181q-156 0 -260 95q-141 -146 -143 -170zM243 429q0 -92 29 -170q173 172 492 492q-68 117 -196 117 q-150 0 -237.5 -140t-87.5 -299zM317 176q68 -89 178 -89q150 0 236.5 140t86.5 298q0 72 -17 135q-168 -167 -484 -484z" />
<glyph unicode="&#xf9;" horiz-adv-x="1071" d="M119 268q0 79 22.5 321t22.5 361l173 20q0 -43 -31 -286.5t-31 -366.5q0 -117 42.5 -162.5t133.5 -45.5q109 0 209.5 143t117.5 314q24 244 24 384l173 20q-70 -556 -70 -738q0 -105 16 -226l-169 -25q-6 88 -6 233h-8q-130 -243 -358 -243q-261 0 -261 297zM333 1410 h195q0 -11 69 -159.5t69 -164.5h-114q0 16 -108.5 164t-110.5 160z" />
<glyph unicode="&#xfa;" horiz-adv-x="1071" d="M119 268q0 79 22.5 321t22.5 361l173 20q0 -43 -31 -286.5t-31 -366.5q0 -117 42.5 -162.5t133.5 -45.5q109 0 209.5 143t117.5 314q24 244 24 384l173 20q-70 -556 -70 -738q0 -105 16 -226l-169 -25q-6 88 -6 233h-8q-130 -243 -358 -243q-261 0 -261 297zM505 1086 q0 16 102 164.5t102 159.5h205q0 -12 -147.5 -160t-147.5 -164h-114z" />
<glyph unicode="&#xfb;" horiz-adv-x="1071" d="M119 268q0 79 22.5 321t22.5 361l173 20q0 -43 -31 -286.5t-31 -366.5q0 -117 42.5 -162.5t133.5 -45.5q109 0 209.5 143t117.5 314q24 244 24 384l173 20q-70 -556 -70 -738q0 -105 16 -226l-169 -25q-6 88 -6 233h-8q-130 -243 -358 -243q-261 0 -261 297zM309 1086 q1 13 106 160.5t111 163.5h184q4 -16 77.5 -163.5t73.5 -160.5h-98q0 13 -157 208q-198 -195 -199 -208h-98z" />
<glyph unicode="&#xfc;" horiz-adv-x="1071" d="M119 268q0 79 22.5 321t22.5 361l173 20q0 -43 -31 -286.5t-31 -366.5q0 -117 42.5 -162.5t133.5 -45.5q109 0 209.5 143t117.5 314q24 244 24 384l173 20q-70 -556 -70 -738q0 -105 16 -226l-169 -25q-6 88 -6 233h-8q-130 -243 -358 -243q-261 0 -261 297zM324 1222 q0 53 34 90.5t86 37.5q80 0 80 -86q0 -53 -34 -90.5t-86 -37.5q-80 0 -80 86zM680 1224q0 52 35 89t87 37q80 0 80 -86q0 -53 -33 -90.5t-85 -37.5q-84 0 -84 88z" />
<glyph unicode="&#xfd;" horiz-adv-x="928" d="M-1 -442l6 140q128 0 229.5 97.5t101.5 221.5q0 152 -125 497t-125 436l196 11q0 -123 78.5 -415.5t78.5 -374.5h11q5 52 144 355t139 424l173 11q0 -128 -207.5 -504t-240.5 -469q-90 -252 -167 -332q-94 -98 -292 -98zM435 1086q0 16 102 164.5t102 159.5h205 q0 -12 -147.5 -160t-147.5 -164h-114z" />
<glyph unicode="&#xfe;" horiz-adv-x="1099" d="M40 -457q32 219 138 1203q40 410 40 661l190 10q0 -19 -19 -156q-26 -187 -47 -389q-5 -50 -17 -134h8q132 243 362 243q142 0 230 -104.5t88 -281.5q0 -270 -137.5 -446t-372.5 -176q-159 0 -233 66h-8q-29 -278 -44 -496h-178zM273 159q97 -58 188 -58q192 0 286.5 121 t94.5 313q0 308 -217 308q-108 0 -210 -135q-106 -139 -122 -322z" />
<glyph unicode="&#xff;" horiz-adv-x="928" d="M-1 -442l6 140q128 0 229.5 97.5t101.5 221.5q0 152 -125 497t-125 436l196 11q0 -123 78.5 -415.5t78.5 -374.5h11q5 52 144 355t139 424l173 11q0 -128 -207.5 -504t-240.5 -469q-90 -252 -167 -332q-94 -98 -292 -98zM258 1222q0 53 34 90.5t86 37.5q80 0 80 -86 q0 -53 -34 -90.5t-86 -37.5q-80 0 -80 86zM614 1224q0 52 35 89t87 37q80 0 80 -86q0 -53 -33 -90.5t-85 -37.5q-84 0 -84 88z" />
<glyph unicode="&#x131;" horiz-adv-x="465" d="M96 -10q23 158 62 467q21 200 21 369q0 71 -4 116l184 27q0 -63 -22 -241q-34 -267 -34 -271q-15 -142 -33 -457z" />
<glyph unicode="&#x152;" horiz-adv-x="1736" d="M70 547q0 297 171 527q189 254 480 254q114 0 261 -26h710l-22 -149q-328 12 -571 12q-5 -67 -41 -419q194 0 475 6l-16 -143q-233 9 -471 9q-27 -257 -40 -482q225 0 618 15l-23 -151h-774q-141 -37 -265 -37q-248 0 -379 184q-113 158 -113 400zM252 572 q0 -195 85 -324q93 -143 258 -143q149 0 244 40q18 139 64 539q22 213 41 475q-113 33 -254 33q-211 0 -335 -214q-103 -179 -103 -406z" />
<glyph unicode="&#x153;" horiz-adv-x="1678" d="M86 415q0 238 145.5 408.5t385.5 170.5q203 0 296 -194h6q157 194 405 194q128 0 211 -60q89 -64 89 -173q0 -135 -125 -205q-159 -90 -542 -97q0 -167 57.5 -255t215.5 -88q145 0 316 102l-25 -148q-135 -97 -334 -97q-244 0 -342 185h-10q-137 -197 -365 -197 q-157 0 -270.5 126.5t-113.5 327.5zM255 426q0 -140 64.5 -239.5t185.5 -99.5q150 0 232 140t82 302q0 143 -59 241t-178 98q-151 0 -239 -141t-88 -301zM966 574q307 6 421 65q78 40 78 118q0 49 -50.5 79.5t-124.5 30.5q-109 0 -202.5 -72t-121.5 -221z" />
<glyph unicode="&#x178;" horiz-adv-x="1049" d="M74 1302h194q0 -38 127 -323t127 -382h10q10 93 195.5 377t185.5 328h190q0 -38 -170 -262t-265.5 -365.5t-106.5 -250.5q-21 -200 -21 -424h-191q57 376 57 459q0 122 -65 273.5t-166 344t-101 225.5zM333 1530q0 53 34 90.5t86 37.5q80 0 80 -86q0 -53 -34 -90.5 t-86 -37.5q-80 0 -80 86zM689 1532q0 52 35 89t87 37q80 0 80 -86q0 -53 -33 -90.5t-85 -37.5q-84 0 -84 88z" />
<glyph unicode="&#x192;" horiz-adv-x="1033" d="M27 -367q123 67 166.5 117t71 118t54.5 170q53 206 136 697q-61 0 -174 -4l10 93q63 -4 182 -4q54 308 143 410.5t264 102.5q28 0 97 -19l-33 -134q-48 8 -87 8q-111 0 -152 -62.5t-87 -305.5q97 0 246 4l-15 -93q-98 4 -244 4q-85 -537 -158 -782q-37 -122 -75 -202 t-99 -137t-209 -91zM554 958z" />
<glyph unicode="&#x2c6;" horiz-adv-x="782" d="M124 1086q1 13 106 160.5t111 163.5h184q4 -16 77.5 -163.5t73.5 -160.5h-98q0 13 -157 208q-198 -195 -199 -208h-98z" />
<glyph unicode="&#x2da;" horiz-adv-x="610" d="M103 1258q0 103 69 163t159 60q82 0 139 -51t57 -145q0 -104 -69 -165t-159 -61q-82 0 -139 51.5t-57 147.5zM197 1263q0 -57 32 -87.5t78 -30.5q50 0 88 35.5t38 96.5q0 57 -32 87.5t-78 30.5q-50 0 -88 -35.5t-38 -96.5z" />
<glyph unicode="&#x2dc;" horiz-adv-x="884" d="M122 1133q129 211 262 211q48 0 118.5 -22t115.5 -22q84 0 176 92l52 -50q-127 -187 -260 -187q-48 0 -118.5 24t-115.5 24q-84 0 -176 -120z" />
<glyph unicode="&#x400;" horiz-adv-x="986" d="M88 0q21 141 85 684q37 352 42 618h727l-23 -149q-258 12 -550 12q-4 -53 -29 -325l-9 -94q252 0 450 12l-17 -149q-208 9 -448 9q-27 -257 -44 -482q316 0 606 15l-25 -151h-765zM414 1690h195q0 -11 69 -134.5t69 -139.5h-114q0 16 -108.5 139t-110.5 135z" />
<glyph unicode="&#x401;" horiz-adv-x="986" d="M88 0q21 141 85 684q37 352 42 618h727l-23 -149q-258 12 -550 12q-4 -53 -29 -325l-9 -94q252 0 450 12l-17 -149q-208 9 -448 9q-27 -257 -44 -482q316 0 606 15l-25 -151h-765zM368 1530q0 53 34 90.5t86 37.5q80 0 80 -86q0 -53 -34 -90.5t-86 -37.5q-80 0 -80 86z M724 1532q0 52 35 89t87 37q80 0 80 -86q0 -53 -33 -90.5t-85 -37.5q-84 0 -84 88z" />
<glyph unicode="&#x402;" horiz-adv-x="1234" d="M98 1159l19 143h934l-18 -141q-212 10 -410 10q-17 -110 -51 -420q42 5 101 5q199 0 324 -60q171 -82 171 -267q0 -222 -153 -333.5t-403 -111.5l1 130q392 0 392 302q0 210 -372 210q-27 0 -74 -6q-28 -267 -58 -620h-174q23 157 84 684q31 291 45 487q-141 0 -358 -12z " />
<glyph unicode="&#x403;" horiz-adv-x="923" d="M88 0q17 107 76 618q46 437 51 684h738l-21 -157q-336 10 -568 10q-10 -147 -46 -537q-43 -409 -43 -618h-187zM528 1416q0 16 102 139.5t102 134.5h205q0 -12 -147.5 -135t-147.5 -139h-114z" />
<glyph unicode="&#x404;" horiz-adv-x="1069" d="M70 525q0 368 180.5 581.5t529.5 213.5q150 0 275 -27l-40 -153q-141 40 -281 40q-385 0 -473 -423q205 0 546 3l-16 -152q-294 9 -538 9q-4 -64 -4 -97q0 -207 84 -307.5t296 -100.5q154 0 335 51l-29 -153q-169 -37 -348 -37q-517 0 -517 552z" />
<glyph unicode="&#x405;" horiz-adv-x="998" d="M31 10l50 157q134 -58 278 -58q357 0 357 211q0 88 -65 149t-202 128q-154 73 -227.5 152t-73.5 203q0 184 124.5 276t319.5 92q226 0 307 -31l-40 -159q-119 48 -281 48q-277 0 -277 -188q0 -74 56.5 -125t182.5 -111q161 -75 247.5 -165t86.5 -228q0 -394 -530 -394 q-179 0 -313 43z" />
<glyph unicode="&#x406;" horiz-adv-x="494" d="M88 0q23 148 87 684q37 354 39 618h192q-19 -123 -78 -618q-33 -315 -45 -612l-3 -72h-192z" />
<glyph unicode="&#x407;" horiz-adv-x="494" d="M86 1530q0 53 34 90.5t86 37.5q80 0 80 -86q0 -53 -34 -90.5t-86 -37.5q-80 0 -80 86zM88 0q23 148 87 684q37 354 39 618h192q-19 -123 -78 -618q-33 -315 -45 -612l-3 -72h-192zM442 1532q0 52 35 89t87 37q80 0 80 -86q0 -53 -33 -90.5t-85 -37.5q-84 0 -84 88z" />
<glyph unicode="&#x408;" horiz-adv-x="786" d="M-47 -6l29 146q65 -33 128 -33q146 0 219 59q116 95 145 369q48 453 56 767h192q-22 -134 -93 -744q-35 -338 -183 -476q-117 -109 -329 -109q-93 0 -164 21z" />
<glyph unicode="&#x409;" horiz-adv-x="1656" d="M-10 -17l10 180q26 6 62.5 43.5t79.5 97.5t90.5 138.5t94 167t91.5 182.5t83 185t67.5 174.5t46.5 150.5h454q-19 -103 -74 -551q41 5 100 5q219 0 357 -78.5t138 -248.5q0 -219 -171.5 -327t-431.5 -108q-74 0 -230 6q18 126 79 657q31 299 61 519h-187 q-12 -47 -39 -122.5t-65.5 -167t-84.5 -193t-98 -200.5t-108 -189.5t-111 -160.5t-109.5 -113t-104.5 -47zM939 133q43 -9 103 -9q177 0 281.5 68.5t104.5 223.5q0 210 -372 210q-27 0 -75 -6q-28 -268 -42 -487z" />
<glyph unicode="&#x40a;" horiz-adv-x="1634" d="M88 0q24 170 86 684q34 334 42 618h189q-20 -133 -70 -556h484q23 217 36 556h191q-18 -110 -73 -551q41 5 103 5q217 0 354.5 -78t137.5 -249q0 -219 -171 -327t-421 -108q-85 0 -248 6q24 163 78 620h-482q-23 -222 -46 -620h-190zM917 133q43 -9 89 -9q198 0 299 69.5 t101 222.5q0 210 -372 210q-27 0 -75 -6q-28 -268 -42 -487z" />
<glyph unicode="&#x40b;" horiz-adv-x="1265" d="M97 1159l20 143h934l-20 -141q-211 10 -410 10q-23 -171 -50 -430q119 15 263 15q343 0 343 -237q0 -79 -15.5 -188.5t-29.5 -330.5h-182q31 166 45.5 270.5t14.5 183.5q0 172 -215 172q-113 0 -238 -16q-27 -257 -46 -610h-184q47 341 83 684q31 291 46 487 q-141 0 -359 -12z" />
<glyph unicode="&#x40c;" horiz-adv-x="1144" d="M88 0q22 141 86 684q37 352 41 618h189q-20 -140 -70 -574q65 -3 86 -3q160 0 274 111.5t192 387.5q14 50 36 78h172q-13 -28 -46 -109q-85 -229 -169 -340.5t-198 -166.5l-1 -11q111 -43 171 -151t125 -404q8 -37 28 -120h-194q-5 17 -18 86q-41 302 -121.5 406.5 t-263.5 104.5q-56 0 -87 -3q-37 -348 -43 -594h-189zM592 1416q0 16 102 139.5t102 134.5h205q0 -12 -147.5 -135t-147.5 -139h-114z" />
<glyph unicode="&#x40d;" horiz-adv-x="1272" d="M88 0q21 119 81 618q38 359 45 684h189q-19 -122 -77 -606q-18 -172 -49 -382h11q49 100 417 509q334 371 345 479h134q-23 -149 -86 -684q-37 -353 -41 -618h-190q15 79 71 556q18 170 51 432h-9q-44 -100 -409 -511q-340 -383 -350 -477h-133zM513 1690h195 q0 -11 69 -134.5t69 -139.5h-114q0 16 -108.5 139t-110.5 135z" />
<glyph unicode="&#x40e;" horiz-adv-x="1075" d="M60 -29l7 141q160 10 243.5 62t169.5 192q0 89 -185 503t-183 433h197q-3 -30 137 -373t140 -386h9q95 178 213 418.5t129 340.5h173q-6 -57 -179 -402.5t-306.5 -557t-246 -291.5t-318.5 -80zM336 1670l156 19q37 -202 192 -202q146 0 284 241l86 -51 q-167 -296 -403 -296q-279 0 -315 289z" />
<glyph unicode="&#x40f;" horiz-adv-x="1190" d="M88 0q21 148 75 609q32 303 52 693h185q-19 -126 -80 -657l-53 -509h548l52 492q43 410 51 674h184q-26 -187 -85 -693q-29 -280 -42 -609h-367q-28 -132 -71 -415h-109q13 127 21 415h-361z" />
<glyph unicode="&#x410;" horiz-adv-x="1232" d="M-40 0q5 29 315 640q306 606 312 662h220q0 -90 165.5 -653t165.5 -649h-199q0 97 -77 421h-548q-44 -95 -77 -172q-78 -185 -85 -249h-192zM367 552h465q-158 578 -158 624h-9q-3 -31 -298 -624z" />
<glyph unicode="&#x411;" horiz-adv-x="1085" d="M88 0q22 141 86 684q37 352 40 618h805l-20 -149q-343 12 -635 12q-19 -237 -24 -292q-6 -64 -10 -117q83 4 156 4q513 0 513 -330q0 -217 -167 -326.5t-455 -109.5q-74 0 -289 6zM271 143q35 -9 136 -9q216 0 322 65t106 212q0 215 -390 215q-76 0 -132 -6 q-28 -267 -42 -477z" />
<glyph unicode="&#x412;" horiz-adv-x="1118" d="M88 0q21 141 84 684q37 352 42 618h124q33 0 144.5 3t156.5 3q165 0 266 -70.5t101 -201.5q0 -105 -59 -192q-62 -92 -162 -121v-10q95 -18 164.5 -92.5t69.5 -198.5q0 -220 -175.5 -324t-446.5 -104q-74 0 -309 6zM271 143q55 -9 176 -9q172 0 290 57.5t118 219.5 q0 215 -390 215q-76 0 -154 -6q-28 -267 -40 -477zM325 756q65 -2 121 -2q174 0 262 37q133 57 133 207q0 180 -244 180q-133 0 -235 -15q0 -23 -37 -407z" />
<glyph unicode="&#x413;" horiz-adv-x="923" d="M88 0q17 107 76 618q46 437 51 684h738l-21 -157q-336 10 -568 10q-10 -147 -46 -537q-43 -409 -43 -618h-187z" />
<glyph unicode="&#x414;" horiz-adv-x="1270" d="M-60 -415q11 103 28.5 296.5t23.5 254.5h91q217 520 569 1166h484q-21 -148 -75 -610q-31 -294 -32 -556h175q-6 -59 -53.5 -253t-58.5 -298h-113q13 127 41 420q-151 10 -448 10q-253 0 -428 -10q-41 -142 -96 -420h-108zM236 136h624q8 128 43 521q31 299 51 519h-228 q-361 -673 -490 -1040z" />
<glyph unicode="&#x415;" horiz-adv-x="986" d="M88 0q21 141 85 684q37 352 42 618h727l-23 -149q-258 12 -550 12q-4 -53 -29 -325l-9 -94q252 0 450 12l-17 -149q-208 9 -448 9q-27 -257 -44 -482q316 0 606 15l-25 -151h-765z" />
<glyph unicode="&#x416;" horiz-adv-x="1676" d="M20 0l53 120q138 321 213 415.5t200 139.5l1 11q-106 56 -163.5 160t-96.5 347q-8 50 -24 109h173q8 -12 20 -78q20 -280 111.5 -389.5t253.5 -109.5q10 0 17 3q31 295 40 574h183q-19 -140 -69 -574q10 -3 20 -3q160 0 273.5 111.5t191.5 387.5q14 50 36 78h173 q-13 -28 -46 -109q-85 -229 -169 -340.5t-198 -166.5l-1 -11q110 -43 171 -153t125 -402q8 -37 28 -120h-192q-5 17 -18 86q-41 302 -122.5 406.5t-264.5 104.5q-13 0 -22 -3q-37 -348 -43 -594h-182q18 123 72 594q-18 3 -31 3q-187 0 -282.5 -95.5t-206.5 -415.5 q-17 -49 -37 -86h-187z" />
<glyph unicode="&#x417;" horiz-adv-x="1076" d="M51 31l40 159q174 -81 365 -81q158 0 253.5 70.5t95.5 207.5q0 222 -372 222q-81 0 -150 -4l37 149q54 -5 152 -5q141 0 241 62t100 191q0 176 -256 176q-184 0 -339 -60l41 155q117 47 370 47q170 0 259.5 -77t89.5 -205q0 -108 -67 -194t-173 -121l-1 -10 q110 -23 171 -105.5t61 -196.5q0 -205 -150.5 -324.5t-378.5 -119.5q-232 0 -389 64z" />
<glyph unicode="&#x418;" horiz-adv-x="1272" d="M88 0q21 119 81 618q38 359 45 684h189q-19 -122 -77 -606q-18 -172 -49 -382h11q49 100 417 509q334 371 345 479h134q-23 -149 -86 -684q-37 -353 -41 -618h-190q15 79 71 556q18 170 51 432h-9q-44 -100 -409 -511q-340 -383 -350 -477h-133z" />
<glyph unicode="&#x419;" horiz-adv-x="1272" d="M88 0q21 119 81 618q38 359 45 684h189q-19 -122 -77 -606q-18 -172 -49 -382h11q49 100 417 509q334 371 345 479h134q-23 -149 -86 -684q-37 -353 -41 -618h-190q15 79 71 556q18 170 51 432h-9q-44 -100 -409 -511q-340 -383 -350 -477h-133zM432 1670l156 19 q37 -202 192 -202q146 0 284 241l86 -51q-167 -296 -403 -296q-279 0 -315 289z" />
<glyph unicode="&#x41a;" horiz-adv-x="1144" d="M88 0q22 141 86 684q37 352 41 618h189q-20 -140 -70 -574q65 -3 86 -3q160 0 274 111.5t192 387.5q14 50 36 78h172q-13 -28 -46 -109q-85 -229 -169 -340.5t-198 -166.5l-1 -11q111 -43 171 -151t125 -404q8 -37 28 -120h-194q-5 17 -18 86q-41 302 -121.5 406.5 t-263.5 104.5q-56 0 -87 -3q-37 -348 -43 -594h-189z" />
<glyph unicode="&#x41b;" horiz-adv-x="1204" d="M-10 -17l10 180q26 6 62.5 43.5t79.5 97.5t90.5 138.5t94 167t91.5 182.5t83 185t67.5 174.5t46.5 150.5h501q-36 -319 -66 -610q-39 -366 -51 -692h-185q39 280 79 657q31 299 51 519h-234q-12 -47 -39 -122.5t-65.5 -167t-84.5 -193t-98 -200.5t-108 -189.5 t-111 -160.5t-109.5 -113t-104.5 -47z" />
<glyph unicode="&#x41c;" horiz-adv-x="1594" d="M44 0q0 35 124 588.5t141 713.5h240q0 -156 100.5 -551t100.5 -532h10q11 107 221 548t220 535h245q-32 -285 -32 -732q0 -351 18 -570h-189q0 526 50 1161h-11q-10 -32 -66.5 -178t-242.5 -524.5t-194 -458.5h-133q0 102 -101.5 534.5t-112.5 497.5t-18 129h-10 q-19 -154 -106 -637.5t-87 -523.5h-167z" />
<glyph unicode="&#x41d;" horiz-adv-x="1225" d="M88 0q25 170 86 684q35 334 42 618h190q-20 -133 -71 -556h575q23 217 35 556h192q-21 -126 -80 -618q-37 -349 -48 -684h-190q22 163 74 620h-568q-23 -222 -46 -620h-191z" />
<glyph unicode="&#x41e;" horiz-adv-x="1318" d="M70 545q0 317 192.5 550t481.5 233q202 0 353 -159.5t151 -424.5q0 -310 -191.5 -546.5t-482.5 -236.5q-204 0 -354 160.5t-150 423.5zM244 555q0 -213 110 -334t262 -121q206 0 333.5 195t127.5 440q0 215 -111 334.5t-263 119.5q-209 0 -334 -192.5t-125 -441.5z" />
<glyph unicode="&#x41f;" horiz-adv-x="1169" d="M88 0q24 169 83 662q32 301 33 640h877q-21 -148 -75 -610q-32 -303 -51 -692h-184q18 126 78 657q31 299 60 519h-549q-2 -94 -37 -502q-43 -410 -51 -674h-184z" />
<glyph unicode="&#x420;" horiz-adv-x="1072" d="M88 0q20 126 86 684q36 344 42 618h144q22 0 126 3t176 3q167 0 266.5 -90t99.5 -225q0 -240 -182 -354t-455 -114q-55 0 -80 2q-25 -235 -30 -527h-193zM323 655q33 -2 81 -2q458 0 458 301q0 224 -308 224q-81 0 -181 -15z" />
<glyph unicode="&#x421;" horiz-adv-x="1010" d="M70 567q0 319 215.5 536t540.5 217q86 0 177 -27l-44 -159q-104 36 -190 36q-239 0 -382 -170.5t-143 -412.5q0 -198 118 -334.5t343 -136.5q92 0 244 43l-27 -149q-169 -37 -260 -37q-297 0 -444.5 173.5t-147.5 420.5z" />
<glyph unicode="&#x422;" horiz-adv-x="1033" d="M98 1159l19 143h944l-19 -141q-187 10 -386 10q-20 -161 -54 -487t-52 -684h-185q23 157 85 684q31 291 45 487q-141 0 -397 -12z" />
<glyph unicode="&#x423;" horiz-adv-x="1075" d="M60 -29l7 141q160 10 243.5 62t169.5 192q0 89 -185 503t-183 433h197q-3 -30 137 -373t140 -386h9q95 178 213 418.5t129 340.5h173q-6 -57 -179 -402.5t-306.5 -557t-246 -291.5t-318.5 -80z" />
<glyph unicode="&#x424;" horiz-adv-x="1353" d="M70 633q0 247 158.5 390t421.5 166q8 102 7 164h172q-4 -28 -23 -164q248 -16 362.5 -132.5t114.5 -290.5q0 -247 -158.5 -389t-421.5 -167q-10 -125 -12 -210h-171l28 210q-248 15 -363 132t-115 291zM232 644q0 -279 332 -315q10 83 40 349q19 184 38 392 q-410 -36 -410 -426zM712 329q414 36 414 426q0 279 -337 315q-11 -83 -41 -349q-19 -184 -36 -392z" />
<glyph unicode="&#x425;" horiz-adv-x="1155" d="M-52 0q0 29 239 343t292 362v10q-44 59 -183.5 308.5t-139.5 278.5h205q0 -38 102 -235.5t142 -254.5h8q57 64 189.5 263t132.5 227h198q0 -28 -197 -266t-263 -301v-10q64 -75 222 -371.5t158 -353.5h-207q0 50 -124 294t-177 320h-11q-70 -86 -217.5 -327t-147.5 -287 h-221z" />
<glyph unicode="&#x426;" horiz-adv-x="1187" d="M88 0q21 148 75 609q32 303 52 693h185q-18 -126 -79 -657l-53 -509h508l52 492q36 342 48 621l2 53h185q-25 -187 -84 -693q-27 -259 -33 -473h175q-6 -61 -48.5 -254.5t-53.5 -296.5h-118q13 127 41 415h-854z" />
<glyph unicode="&#x427;" horiz-adv-x="1126" d="M111 895q0 63 7 130q12 116 21 277h176q-12 -58 -35 -214q-9 -86 -9 -142q0 -169 77 -223q58 -40 229 -40q135 0 232 30q36 338 38 589h191q-20 -123 -79 -618q-33 -314 -45 -611l-3 -73h-191q20 120 75 583q-145 -33 -280 -33q-209 0 -286 47q-118 71 -118 298z" />
<glyph unicode="&#x428;" horiz-adv-x="1692" d="M88 0q21 148 75 609q32 303 51 693h185q-18 -126 -79 -657l-56 -509h447q11 89 55 492q43 410 51 674h185q-19 -126 -80 -657q-31 -299 -48 -509h446q8 89 49 492q43 410 51 674h184q-25 -187 -84 -693q-29 -280 -42 -609h-1390z" />
<glyph unicode="&#x429;" horiz-adv-x="1744" d="M101 0q21 148 75 609q32 303 52 693h185q-18 -126 -79 -657l-53 -509h447l52 492q36 342 50 674h185q-18 -126 -79 -657l-53 -509h447l52 492q43 410 51 674h184q-25 -187 -84 -693q-17 -164 -32 -473h177q-6 -60 -49 -254t-54 -297h-117q13 127 40 415h-1397z" />
<glyph unicode="&#x42a;" horiz-adv-x="1310" d="M98 1159l19 143h567q-15 -87 -66 -505q60 5 122 5q504 0 504 -343q0 -228 -176 -346.5t-420 -118.5q-107 0 -281 6q22 141 86 684q31 299 63 487q-138 0 -418 -12zM555 143q51 -9 93 -9q432 0 432 309q0 224 -380 224q-44 0 -97 -6q-28 -267 -48 -518z" />
<glyph unicode="&#x42b;" horiz-adv-x="1494" d="M88 0q22 141 86 684q37 352 41 618h190q-15 -87 -66 -505q63 5 122 5q204 0 333 -69q169 -90 169 -285q0 -226 -171.5 -340t-443.5 -114q-74 0 -260 6zM276 143q47 -9 93 -9q431 0 431 299q0 234 -378 234q-49 0 -98 -6q-28 -267 -48 -518zM1089 0q23 148 86 684 q37 354 41 618h190q-20 -123 -79 -618q-35 -331 -47 -684h-191z" />
<glyph unicode="&#x42c;" horiz-adv-x="1067" d="M88 0q21 141 85 684q37 352 42 618h190q-15 -87 -66 -505q100 5 179 5q203 0 343 -86t140 -268q0 -221 -169.5 -337.5t-446.5 -116.5q-74 0 -297 6zM280 143q58 -9 126 -9q431 0 431 299q0 234 -379 234q-76 0 -134 -6q-28 -267 -44 -518z" />
<glyph unicode="&#x42d;" horiz-adv-x="1106" d="M22 0l39 153q153 -39 293 -39q220 0 349 136.5t158 360.5q-245 0 -548 -3l16 150q301 -8 547 -8q0 432 -409 432q-127 0 -315 -52l30 153q168 37 327 37q527 0 527 -540q0 -361 -186 -584t-534 -223q-150 0 -294 27z" />
<glyph unicode="&#x42e;" horiz-adv-x="1765" d="M88 0q23 148 86 684q37 354 41 618h190q-17 -110 -71 -556h248q64 278 240 430t388 152q203 0 344 -153.5t141 -419.5q0 -317 -179.5 -555.5t-475.5 -238.5q-231 0 -357.5 161t-126.5 409q0 30 5 89h-240q-30 -297 -40 -567l-2 -53h-191zM723 549q0 -216 102.5 -331 t255.5 -115q203 0 322.5 205.5t119.5 440.5q0 217 -102 330t-252 113q-202 0 -324 -201t-122 -442z" />
<glyph unicode="&#x42f;" horiz-adv-x="1161" d="M0 0q15 30 47 100q125 290 193 378.5t184 122.5l1 11q-247 67 -247 316q0 380 504 380q69 0 143 -3t115 -3h133q-20 -119 -79 -618q-39 -374 -47 -684h-187q17 104 70 556q-62 2 -143 2q-174 0 -267.5 -93.5t-199.5 -398.5q-18 -53 -30 -66h-190zM344 928 q0 -240 373 -240q80 0 127 2q24 225 38 473q-143 13 -227 13q-161 0 -236 -56t-75 -192z" />
<glyph unicode="&#x430;" horiz-adv-x="980" d="M54 325q0 250 175 435t503 189l44 31l118 15q-91 -508 -91 -739q0 -105 18 -246l-169 -25q-6 89 -6 223h-9q-127 -231 -335 -231q-121 0 -184.5 96.5t-63.5 251.5zM225 344q0 -228 152 -228q106 0 195 152.5t110.5 276t29.5 291.5q-254 -5 -370.5 -138.5t-116.5 -353.5z " />
<glyph unicode="&#x431;" horiz-adv-x="1101" d="M96 398q0 310 95.5 561t220.5 316q146 76 400 109q131 17 248 37l-26 -163q-55 -7 -257 -34q-191 -26 -264 -57q-103 -43 -160 -148.5t-100 -339.5h8q157 256 427 256q144 0 236 -105t92 -281q0 -257 -153 -422.5t-393 -165.5q-189 0 -281.5 128t-92.5 309zM264 385 q0 -118 61.5 -208t168.5 -90q176 0 268 129t92 300q0 123 -59.5 202t-166.5 79q-157 0 -260.5 -127.5t-103.5 -284.5zM675 958z" />
<glyph unicode="&#x432;" horiz-adv-x="994" d="M86 278q0 716 522 716q300 0 300 -223q0 -86 -51.5 -146.5t-131.5 -87.5v-10q170 -54 170 -212q0 -166 -132 -254t-326 -88q-351 0 -351 305zM240 317q0 -228 243 -228q112 0 182 52.5t70 161.5q0 162 -278 162q-92 0 -206 -21q-11 -37 -11 -127zM264 564q305 6 397.5 55 t92.5 138q0 120 -177 120q-262 0 -313 -313z" />
<glyph unicode="&#x433;" horiz-adv-x="787" d="M52 213q0 127 89 209q58 54 223 134q119 58 158 94q46 42 46 107q0 95 -182 95q-123 0 -246 -74l25 148q121 56 234 56q336 0 336 -208q0 -100 -81 -177q-68 -64 -235 -147q-117 -58 -158 -100q-45 -47 -45 -119q0 -125 160 -125q131 0 296 92l-25 -148 q-103 -74 -284 -74q-131 0 -221 63t-90 174z" />
<glyph unicode="&#x434;" horiz-adv-x="1099" d="M86 368q0 216 125 390t331 174q186 0 283 -83h10q-15 245 -113.5 335t-302.5 90q-71 0 -140 -26l18 139q86 30 162 30q534 0 534 -659q0 -340 -136.5 -568.5t-396.5 -228.5q-189 0 -281.5 115.5t-92.5 291.5zM249 386q0 -124 56 -211.5t169 -87.5q184 0 273 189t89 455 q-125 80 -292 80q-142 0 -218.5 -126t-76.5 -299zM515 958z" />
<glyph unicode="&#x435;" horiz-adv-x="974" d="M86 406q0 277 161.5 432.5t372.5 155.5q128 0 214 -62t86 -171q0 -135 -125 -205q-159 -90 -542 -97q0 -180 62.5 -261.5t210.5 -81.5q145 0 316 102l-25 -148q-135 -97 -334 -97q-204 0 -300.5 122.5t-96.5 310.5zM262 574q307 6 421 65q78 40 78 118q0 53 -49 81.5 t-126 28.5q-109 0 -202.5 -72t-121.5 -221z" />
<glyph unicode="&#x436;" horiz-adv-x="1693" d="M32 -1l41 147q40 -18 75 -18q105 0 171 93q78 110 78 319q0 300 -148 300q-74 0 -168 -48l25 138q75 53 186 53q120 0 183 -94.5t63 -253.5t-57 -280l6 -5l168 212q143 181 154 246q7 44 6 142l167 10q0 -20 -35 -230q-41 -239 -55 -375h10q43 116 380 467 q43 76 121.5 118.5t152.5 42.5q66 0 105 -18l-41 -147q-40 18 -75 18q-105 0 -171 -93q-78 -110 -78 -319q0 -300 148 -300q81 0 168 48l-25 -138q-75 -53 -186 -53q-120 0 -183 94.5t-63 253.5t57 266l-6 6l-168 -212q-143 -181 -154 -247q-7 -44 -6 -142l-167 -10 q0 21 35 230q41 238 55 375h-10q-34 -93 -380 -453q-39 -78 -118.5 -119.5t-155.5 -41.5q-66 0 -105 18z" />
<glyph unicode="&#x437;" horiz-adv-x="861" d="M32 44l30 135q133 -80 285 -80q259 0 259 186q0 145 -270 145q-86 0 -153 -6l30 132q71 -6 130 -6q107 0 193.5 44.5t86.5 135.5q0 118 -207 118q-131 0 -278 -75l26 140q105 70 286 70q137 0 231 -55t94 -161q0 -171 -171 -242l-1 -10q155 -56 155 -219 q0 -154 -120.5 -238.5t-303.5 -84.5q-171 0 -302 71z" />
<glyph unicode="&#x438;" horiz-adv-x="1071" d="M119 268q0 79 22.5 321t22.5 361l173 20q0 -43 -31 -286.5t-31 -366.5q0 -117 42.5 -162.5t133.5 -45.5q109 0 209.5 143t117.5 314q24 244 24 384l173 20q-70 -556 -70 -738q0 -105 16 -226l-169 -25q-6 88 -6 233h-8q-130 -243 -358 -243q-261 0 -261 297z" />
<glyph unicode="&#x439;" horiz-adv-x="1071" d="M119 268q0 79 22.5 321t22.5 361l173 20q0 -43 -31 -286.5t-31 -366.5q0 -117 42.5 -162.5t133.5 -45.5q109 0 209.5 143t117.5 314q24 244 24 384l173 20q-70 -556 -70 -738q0 -105 16 -226l-169 -25q-6 88 -6 233h-8q-130 -243 -358 -243q-261 0 -261 297zM273 1378 l156 19q37 -202 192 -202q146 0 284 241l86 -51q-167 -296 -403 -296q-279 0 -315 289z" />
<glyph unicode="&#x43a;" horiz-adv-x="997" d="M96 -10q16 95 62 467q21 200 21 368q0 71 -3 117l183 28q0 -54 -24.5 -248t-45.5 -392h10q40 96 263.5 339.5t223.5 290.5l196 -6q0 -34 -140.5 -176t-218.5 -201l-1 -10q105 -127 187.5 -318.5t82.5 -248.5l-181 -10q0 43 -52.5 194t-142.5 284q-79 -72 -159.5 -195.5 t-90.5 -272.5z" />
<glyph unicode="&#x43b;" horiz-adv-x="1004" d="M-12 -17l8 160q124 73 256.5 366t201.5 367t223 74h101l130 19q-16 -93 -66 -512q-27 -258 -35 -457l-165 -10q0 24 21 159q27 170 41 308q21 203 31 368h-69q-77 0 -127 -45.5t-206 -409t-345 -387.5z" />
<glyph unicode="&#x43c;" horiz-adv-x="1355" d="M-12 -17l8 160q155 105 251.5 406t96.5 391l213 20q0 -46 57.5 -346.5t57.5 -423.5h11q8 78 160.5 371.5t161.5 378.5l231 20q-47 -447 -47 -960l-160 -10q0 117 21.5 407.5t38.5 406.5h-12q-21 -59 -195.5 -404t-179.5 -390l-140 -20q0 173 -56.5 474t-58.5 340h-12 q-36 -253 -155 -523.5t-292 -297.5z" />
<glyph unicode="&#x43d;" horiz-adv-x="1042" d="M96 -10q16 95 61 467q21 200 21 368q0 71 -3 122l168 22q0 -48 -35 -441h10q11 50 74 50q26 0 144.5 -5t147.5 -5q77 0 93 96q2 13 5 160q0 71 -7 123l169 22q0 -83 -38 -442q-34 -328 -41 -527l-169 -10q0 34 25.5 188.5t37.5 301.5h-10q-6 -50 -68 -50q-29 0 -148.5 5 t-143.5 5q-66 0 -84 -61q-21 -68 -41 -379z" />
<glyph unicode="&#x43e;" horiz-adv-x="1085" d="M86 415q0 237 145 408t386 171q159 0 270.5 -118t111.5 -318q0 -241 -145.5 -419t-383.5 -178q-157 0 -270.5 126.5t-113.5 327.5zM255 426q0 -140 64.5 -239.5t185.5 -99.5q147 0 235.5 139.5t88.5 302.5q0 140 -63.5 239.5t-183.5 99.5q-149 0 -238 -139.5t-89 -302.5z " />
<glyph unicode="&#x43f;" horiz-adv-x="1071" d="M96 -10q70 518 70 700q0 105 -16 256l169 25q6 -88 6 -233h8q130 243 358 243q261 0 261 -297q0 -79 -22.5 -322t-22.5 -362l-169 -10q0 44 29 283t29 362q0 117 -42.5 162.5t-133.5 45.5q-109 0 -209.5 -142.5t-117.5 -314.5q-22 -224 -34 -386z" />
<glyph unicode="&#x440;" horiz-adv-x="1099" d="M40 -457q126 922 126 1177q0 95 -16 226l169 25q6 -83 6 -233h8q132 243 362 243q142 0 230 -104.5t88 -281.5q0 -271 -138 -446.5t-372 -175.5q-159 0 -233 66h-8q-29 -278 -44 -486zM273 159q97 -58 188 -58q191 0 286 120.5t95 313.5q0 308 -217 308q-108 0 -212 -137 t-120 -320z" />
<glyph unicode="&#x441;" horiz-adv-x="864" d="M86 417q0 230 149.5 393t406.5 163q113 0 182 -16l-41 -157q-96 31 -199 31q-150 0 -240.5 -116.5t-90.5 -274.5q0 -145 63.5 -234.5t187.5 -89.5q131 0 276 92l-25 -148q-103 -87 -284 -87q-192 0 -294 136q-91 119 -91 308z" />
<glyph unicode="&#x442;" horiz-adv-x="1581" d="M96 -10q70 515 70 700q0 105 -16 256l169 25q6 -74 6 -233h8q144 243 347 243q210 0 210 -243h9q144 243 346 243q124 0 170.5 -72t46.5 -213q0 -97 -21.5 -335t-21.5 -361l-174 -10q0 41 29.5 285t29.5 330q0 136 -30.5 187t-89.5 51q-116 0 -211 -149.5t-111 -307.5 q-21 -214 -21 -386l-173 -10q0 43 33.5 292t33.5 323q0 138 -31 188t-89 50q-114 0 -210 -148.5t-112 -308.5q-24 -245 -34 -386z" />
<glyph unicode="&#x443;" horiz-adv-x="928" d="M-1 -442l6 140q128 0 229.5 97.5t101.5 221.5q0 152 -125 497t-125 436l196 11q0 -123 78.5 -415.5t78.5 -374.5h11q5 52 144 355t139 424l173 11q0 -128 -207.5 -504t-240.5 -469q-90 -252 -167 -332q-94 -98 -292 -98z" />
<glyph unicode="&#x444;" horiz-adv-x="1433" d="M86 369q0 275 171 441.5t421 180.5q42 380 300 412l40 -78q-100 -42 -137 -116q-44 -89 -63 -327h8q77 109 248 109q133 0 203 -103t70 -275q0 -275 -171.5 -441.5t-420.5 -180.5q-24 -204 -85 -309q-73 -121 -214 -142l-40 78q90 65 128 141q57 112 72 341h-9 q-77 -109 -248 -109q-133 0 -203 103t-70 275zM248 377q0 -115 47.5 -181.5t119.5 -66.5q95 0 151.5 51.5t63.5 128.5q8 91 42 566q-196 -8 -310 -133.5t-114 -364.5zM761 107q196 8 310 133.5t114 364.5q0 115 -47.5 181.5t-119.5 66.5q-95 0 -151.5 -51.5t-63.5 -128.5 q-8 -91 -42 -566z" />
<glyph unicode="&#x445;" horiz-adv-x="1013" d="M22 -10q0 49 144.5 222t264.5 292v8q-53 71 -161 245t-108 193l205 11q0 -25 63 -162.5t104 -201.5h8q53 59 138 193t85 160l190 11q0 -42 -135 -200t-224 -242v-11q67 -94 184.5 -289t117.5 -219l-207 -10q0 26 -78.5 182t-130.5 241h-6q-56 -70 -155 -226.5t-99 -186.5 z" />
<glyph unicode="&#x446;" horiz-adv-x="1086" d="M119 258q0 89 22.5 331t22.5 361l173 20q0 -42 -31 -286t-31 -367q0 -120 34 -164t122 -44q107 0 197 140.5t110 316.5q24 209 24 384l173 20q-73 -526 -73 -708q0 -126 72 -126q54 0 106 12q-31 -96 -70 -250t-45 -308l-153 -10q14 177 118 420l1 10q-41 -10 -71 -10 q-61 0 -87.5 48t-26.5 166h-8q-110 -243 -338 -243q-136 0 -188.5 74.5t-52.5 212.5z" />
<glyph unicode="&#x447;" horiz-adv-x="970" d="M96 590q0 98 16 360l173 20q0 -24 -18.5 -147t-18.5 -187q0 -99 28.5 -139t92.5 -40q141 0 228 115.5t97 240.5q4 67 2 127l178 31q-15 -95 -65 -514q-27 -258 -35 -457l-169 -10q0 17 22 152q29 178 52 389h-8q-134 -213 -342 -213q-233 0 -233 272z" />
<glyph unicode="&#x448;" horiz-adv-x="1578" d="M119 256q0 97 21.5 335t21.5 351l174 28q0 -49 -32 -293t-32 -330q0 -136 30.5 -187t94.5 -51q116 0 211 149.5t111 307.5q21 214 21 384l173 21q0 -52 -36 -301t-36 -323q0 -138 31 -188t94 -50q114 0 210 148.5t112 308.5q24 245 24 384l170 20q-72 -523 -72 -708 q0 -105 8 -256l-156 -25q-6 74 -6 233h-8q-144 -243 -347 -243q-210 0 -210 243h-9q-144 -243 -346 -243q-124 0 -170.5 72t-46.5 213z" />
<glyph unicode="&#x449;" horiz-adv-x="1636" d="M119 256q0 97 21.5 335t21.5 351l174 28q0 -49 -32 -293t-32 -330q0 -136 30.5 -187t94.5 -51q116 0 211 149.5t111 307.5q14 143 14 384l180 20q0 -52 -36 -300.5t-36 -322.5q0 -138 31 -188t94 -50q113 0 210 150.5t112 306.5q24 245 24 384l170 20q-71 -523 -71 -708 q0 -126 73 -126q54 0 106 12q-31 -96 -70 -250t-45 -308l-153 -10q14 177 118 420l1 10q-41 -10 -71 -10q-61 0 -87.5 48t-26.5 166h-8q-144 -243 -347 -243q-210 0 -210 243h-9q-144 -243 -346 -243q-124 0 -170.5 72t-46.5 213z" />
<glyph unicode="&#x44a;" horiz-adv-x="1061" d="M22 804l21 144q254 0 589 21q0 -52 -54.5 -177.5t-79.5 -201.5h10q68 28 135 28q360 0 360 -293q0 -164 -136 -258t-287 -94q-131 0 -216 62.5t-85 192.5q0 127 54.5 305t124.5 288v10q-247 -27 -436 -27zM430 277q0 -178 189 -178q81 0 156.5 55.5t75.5 158.5 q0 186 -273 186q-58 0 -115 -16q-33 -94 -33 -206z" />
<glyph unicode="&#x44b;" horiz-adv-x="1271" d="M119 228q0 79 22.5 341t22.5 381l179 20q-15 -94 -50 -380h10q75 29 145 29q187 0 291 -68t104 -226q0 -159 -134 -255.5t-289 -96.5q-131 0 -216 62.5t-85 192.5zM270 277q0 -178 189 -178q86 0 159 56.5t73 157.5q0 186 -273 186q-58 0 -135 -16q-13 -94 -13 -206z M917 -10q16 95 62 467q20 190 20 368q0 71 -3 117l179 27q0 -49 -20.5 -210t-35.5 -302q-27 -258 -34 -457z" />
<glyph unicode="&#x44c;" horiz-adv-x="933" d="M119 228q0 79 22.5 341t22.5 381l179 20q-15 -94 -50 -380h10q92 29 177 29q192 0 293.5 -68.5t101.5 -225.5q0 -166 -133 -259t-322 -93q-131 0 -216 62.5t-85 192.5zM270 277q0 -178 199 -178q104 0 179 54t75 160q0 186 -273 186q-75 0 -167 -16q-13 -94 -13 -206z " />
<glyph unicode="&#x44d;" horiz-adv-x="920" d="M24 34l33 151q115 -78 290 -78q134 0 219.5 91.5t102.5 227.5q-208 0 -438 -8l22 150q225 -10 430 -10q-13 284 -279 284q-131 0 -291 -97l25 148q133 90 294 90q402 0 402 -410q0 -259 -140 -429.5t-399 -170.5q-151 0 -271 61z" />
<glyph unicode="&#x44e;" horiz-adv-x="1475" d="M96 -10q16 95 62 467q21 200 21 368q0 71 -3 117l174 27q-5 -87 -39 -401h229q52 204 188 315t298 111q156 0 259.5 -115.5t103.5 -314.5q0 -242 -139 -422.5t-373 -180.5q-359 0 -359 479h-220q-26 -250 -32 -440zM678 417q0 -139 58.5 -234.5t176.5 -95.5 q147 0 229.5 142t82.5 309q0 139 -58.5 234.5t-175.5 95.5q-149 0 -231 -139.5t-82 -311.5z" />
<glyph unicode="&#x44f;" horiz-adv-x="996" d="M-12 -17l8 160q132 10 336 281v10q-204 68 -204 261q0 146 113 223t343 77q303 0 303 -248q0 -79 -34 -332.5t-34 -414.5l-169 -10q0 56 21 212.5t31 218.5q-118 -20 -241 -20q-227 -407 -473 -418zM280 707q0 -186 233 -186q107 0 202 20q24 78 24 157q0 95 -43 134 t-150 39q-164 0 -215 -47.5t-51 -116.5z" />
<glyph unicode="&#x450;" horiz-adv-x="974" d="M86 406q0 277 161.5 432.5t372.5 155.5q128 0 214 -62t86 -171q0 -135 -125 -205q-159 -90 -542 -97q0 -180 62.5 -261.5t210.5 -81.5q145 0 316 102l-25 -148q-135 -97 -334 -97q-204 0 -300.5 122.5t-96.5 310.5zM262 574q307 6 421 65q78 40 78 118q0 53 -49 81.5 t-126 28.5q-109 0 -202.5 -72t-121.5 -221zM370 1410h195q0 -11 69 -159.5t69 -164.5h-114q0 16 -108.5 164t-110.5 160z" />
<glyph unicode="&#x451;" horiz-adv-x="974" d="M86 406q0 277 161.5 432.5t372.5 155.5q128 0 214 -62t86 -171q0 -135 -125 -205q-159 -90 -542 -97q0 -180 62.5 -261.5t210.5 -81.5q145 0 316 102l-25 -148q-135 -97 -334 -97q-204 0 -300.5 122.5t-96.5 310.5zM262 574q307 6 421 65q78 40 78 118q0 53 -49 81.5 t-126 28.5q-109 0 -202.5 -72t-121.5 -221zM343 1222q0 53 34 90.5t86 37.5q80 0 80 -86q0 -53 -34 -90.5t-86 -37.5q-80 0 -80 86zM699 1224q0 52 35 89t87 37q80 0 80 -86q0 -53 -33 -90.5t-85 -37.5q-84 0 -84 88z" />
<glyph unicode="&#x452;" horiz-adv-x="1072" d="M73 1081l18 107h124q5 121 7 219l182 10l-28 -229h312l-18 -107h-308l-45 -406h8q122 212 358 212q270 0 270 -398q0 -291 -143 -572q-156 -306 -382 -374l-25 122q166 58 281 311q105 232 105 469q0 304 -177 304q-115 0 -215 -141q-94 -132 -109 -285 q-12 -125 -28 -323l-166 -10q15 119 85 756q22 214 28 335h-134zM595 958z" />
<glyph unicode="&#x453;" horiz-adv-x="787" d="M52 213q0 127 89 209q58 54 223 134q119 58 158 94q46 42 46 107q0 95 -182 95q-123 0 -246 -74l25 148q121 56 234 56q336 0 336 -208q0 -100 -81 -177q-68 -64 -235 -147q-117 -58 -158 -100q-45 -47 -45 -119q0 -125 160 -125q131 0 296 92l-25 -148 q-103 -74 -284 -74q-131 0 -221 63t-90 174zM411 1086q0 16 102 164.5t102 159.5h205q0 -12 -147.5 -160t-147.5 -164h-114z" />
<glyph unicode="&#x454;" horiz-adv-x="898" d="M86 377q0 274 139 440t401 166q151 0 232 -31l-33 -150q-86 47 -261 47q-234 0 -310 -287q207 1 470 8l-21 -140q-253 10 -461 10q0 -166 59.5 -246t214.5 -80q131 0 291 102l-25 -148q-133 -95 -294 -95q-402 0 -402 404z" />
<glyph unicode="&#x455;" horiz-adv-x="803" d="M22 6l46 147q118 -44 258 -44q225 0 225 129q0 90 -180 169q-256 112 -256 277q0 143 105 219t257 76q164 0 260 -22l-45 -145q-100 37 -230 37q-194 0 -194 -130q0 -47 37 -79t141 -76q254 -109 254 -277q0 -308 -388 -308q-157 0 -290 27z" />
<glyph unicode="&#x456;" horiz-adv-x="465" d="M96 -10q23 158 62 467q21 200 21 369q0 71 -4 116l184 27q1 -72 -17.5 -198.5t-38.5 -313.5q-15 -142 -33 -457zM206 1221q0 58 38 98t96 40q91 0 91 -95q0 -58 -38 -99t-96 -41q-91 0 -91 97z" />
<glyph unicode="&#x457;" horiz-adv-x="465" d="M17 1222q0 53 34 90.5t86 37.5q80 0 80 -86q0 -53 -34 -90.5t-86 -37.5q-80 0 -80 86zM96 -10q23 158 62 467q21 200 21 369q0 71 -4 116l184 27q0 -63 -22 -241q-34 -267 -34 -271q-15 -142 -33 -457zM373 1224q0 52 35 89t87 37q80 0 80 -86q0 -53 -33 -90.5t-85 -37.5 q-84 0 -84 88z" />
<glyph unicode="&#x458;" horiz-adv-x="465" d="M-58 -372q92 75 127 178t73.5 469t38.5 558q0 70 -4 109l182 27q0 -73 -27.5 -275.5t-49 -451.5t-26.5 -298q-34 -323 -275 -392zM205 1221q0 58 39.5 98t97.5 40q89 0 89 -95q0 -58 -38.5 -99t-96.5 -41q-91 0 -91 97z" />
<glyph unicode="&#x459;" horiz-adv-x="1431" d="M-12 -17l8 160q124 73 256.5 366t201.5 367t223 74h76l130 19q-15 -94 -50 -379h10q65 29 135 29q190 0 292.5 -66t102.5 -228q0 -161 -132 -256.5t-281 -95.5q-131 0 -216 63.5t-85 191.5q0 175 51 597h-44q-77 0 -127 -45.5t-206 -409t-345 -387.5zM810 277 q0 -178 189 -178q95 0 158.5 53.5t63.5 160.5q0 186 -273 186q-58 0 -125 -16q-13 -94 -13 -206z" />
<glyph unicode="&#x45a;" horiz-adv-x="1470" d="M96 -10q16 95 62 467q21 200 21 362q0 75 -4 123l181 27q0 -36 -46 -441h10q11 50 74 50q26 0 123 -5t126 -5q77 0 93 96q2 13 5 160q0 71 -7 118l188 28q0 -31 -20 -157.5t-30 -222.5h10q65 29 135 29q194 0 294.5 -69.5t100.5 -224.5q0 -158 -130.5 -255t-282.5 -97 q-131 0 -216 62.5t-85 192.5q0 86 20 252h-10q-6 -50 -68 -50q-29 0 -127 5t-122 5q-66 0 -85 -62q-20 -68 -40 -378zM849 277q0 -178 189 -178q95 0 158.5 53.5t63.5 160.5q0 186 -273 186q-58 0 -125 -16q-13 -94 -13 -206z" />
<glyph unicode="&#x45b;" horiz-adv-x="1050" d="M73 1081l18 107h124q5 121 7 219l182 10l-28 -229h312l-18 -107h-308l-45 -406h8q102 212 338 212q135 0 201.5 -78t66.5 -207q0 -105 -31.5 -318t-31.5 -284l-169 -10q0 35 34.5 234t34.5 277q0 139 -36.5 193.5t-139.5 54.5q-109 0 -198 -127t-106 -299 q-12 -125 -28 -323l-166 -10q15 119 85 756q23 214 28 335h-134z" />
<glyph unicode="&#x45c;" horiz-adv-x="997" d="M96 -10q16 95 62 467q21 200 21 368q0 71 -3 117l183 28q0 -54 -24.5 -248t-45.5 -392h10q40 96 263.5 339.5t223.5 290.5l196 -6q0 -34 -140.5 -176t-218.5 -201l-1 -10q105 -127 187.5 -318.5t82.5 -248.5l-181 -10q0 43 -52.5 194t-142.5 284q-79 -72 -159.5 -195.5 t-90.5 -272.5zM502 1086q0 16 102 164.5t102 159.5h205q0 -12 -147.5 -160t-147.5 -164h-114z" />
<glyph unicode="&#x45d;" horiz-adv-x="1071" d="M119 268q0 79 22.5 321t22.5 361l173 20q0 -43 -31 -286.5t-31 -366.5q0 -117 42.5 -162.5t133.5 -45.5q109 0 209.5 143t117.5 314q24 244 24 384l173 20q-70 -556 -70 -738q0 -105 16 -226l-169 -25q-6 88 -6 233h-8q-130 -243 -358 -243q-261 0 -261 297zM331 1410 h195q0 -11 69 -159.5t69 -164.5h-114q0 16 -108.5 164t-110.5 160z" />
<glyph unicode="&#x45e;" horiz-adv-x="928" d="M-1 -442l6 140q128 0 229.5 97.5t101.5 221.5q0 152 -125 497t-125 436l196 11q0 -123 78.5 -415.5t78.5 -374.5h11q5 52 144 355t139 424l173 11q0 -128 -207.5 -504t-240.5 -469q-90 -252 -167 -332q-94 -98 -292 -98zM218 1378l156 19q37 -202 192 -202q146 0 284 241 l86 -51q-167 -296 -403 -296q-279 0 -315 289z" />
<glyph unicode="&#x45f;" horiz-adv-x="1031" d="M119 268q0 79 22.5 321t22.5 361l171 20q0 -42 -30 -286t-30 -367q0 -120 34 -164t122 -44q107 0 197 140.5t110 316.5q24 209 24 384l173 20q-72 -526 -72 -708q0 -105 18 -256l-169 -25q-6 88 -6 233h-8q-110 -243 -338 -243q-144 0 -192.5 79t-48.5 218zM269 -420 q12 149 119 342h106q-19 -50 -43 -137.5t-29 -194.5z" />
<glyph unicode="&#x462;" horiz-adv-x="1276" d="M63 1039l21 143h360q20 192 23 244h180q-3 -23 -31 -244h430l-19 -141q-139 4 -426 10q-13 -79 -37 -295q58 4 124 4q248 0 374 -73.5t126 -240.5q0 -221 -170.5 -336.5t-440.5 -115.5q-84 0 -263 6q22 141 87 684q16 151 34 367q-155 -2 -372 -12zM502 143q39 -9 133 -9 q182 0 286 66t104 211q0 215 -390 215q-49 0 -87 -6q-28 -267 -46 -477zM538 1302z" />
<glyph unicode="&#x463;" horiz-adv-x="1048" d="M22 822l20 135q187 -5 246 -7q12 112 23 457l189 10q-17 -68 -70 -467q85 0 380 7l-19 -137q-295 6 -376 6q-11 -67 -32 -236h10q97 29 192 29q197 0 301 -66t104 -228q0 -165 -131.5 -258.5t-343.5 -93.5q-131 0 -216 62.5t-85 192.5q0 176 59 598q-64 0 -251 -4z M354 958zM360 277q0 -178 229 -178q104 0 179 54t75 160q0 186 -273 186q-100 0 -197 -16q-13 -94 -13 -206z" />
<glyph unicode="&#x472;" horiz-adv-x="1318" d="M70 541q0 304 188 545.5t486 241.5q200 0 352 -156.5t152 -423.5q0 -303 -188 -545t-486 -242q-200 0 -352 156.5t-152 423.5zM232 553q0 -214 112.5 -332t271.5 -118q153 0 288.5 141t168.5 371h-839q-2 -26 -2 -62zM255 741h827q-2 220 -114 335.5t-265 115.5 q-145 0 -273 -120t-175 -331z" />
<glyph unicode="&#x473;" horiz-adv-x="1085" d="M86 390q0 251 148 427.5t383 176.5q159 0 270.5 -116t111.5 -316q0 -241 -146.5 -421t-384.5 -180q-159 0 -270.5 115t-111.5 314zM238 418q0 -132 65 -231.5t200 -99.5q140 0 229.5 108.5t108.5 249.5h-603v-27zM259 561h582q-12 144 -73.5 225.5t-185.5 81.5 q-125 0 -207.5 -82t-115.5 -225z" />
<glyph unicode="&#x474;" horiz-adv-x="1135" d="M74 1302h180q0 -78 111.5 -555.5t111.5 -546.5h9q5 46 31 128t59 168t75 181t90.5 187t100 176.5t105.5 149.5t106.5 105t103.5 44l-10 -180q-26 -6 -63 -43.5t-80 -97.5t-90.5 -138.5t-94 -167t-91.5 -182.5t-83 -185t-73.5 -184.5t-42.5 -160.5h-146q-1 77 -155 647 t-154 655z" />
<glyph unicode="&#x475;" horiz-adv-x="963" d="M74 950l184 10q0 -48 75.5 -386t73.5 -386h9q5 48 102 261t168 317t142 162.5t135 58.5l-7 -160q-24 -2 -63 -33t-81.5 -85.5t-88 -129t-91 -163.5t-103.5 -216t-65 -200h-169q-1 70 -111 489.5t-110 460.5z" />
<glyph unicode="&#x490;" horiz-adv-x="923" d="M88 0q17 107 76 618q46 437 51 684h588q17 86 43 268h127q-6 -56 -20.5 -213.5t-20.5 -211.5q-336 10 -568 10q-10 -147 -46 -537q-43 -409 -43 -618h-187z" />
<glyph unicode="&#x491;" horiz-adv-x="812" d="M96 -10q16 95 61 467q31 293 38 493h486q52 208 52 279h118q0 -37 -41 -427q-219 18 -478 18q-8 -98 -34 -363q-27 -258 -34 -457z" />
<glyph unicode="&#x2000;" horiz-adv-x="890" />
<glyph unicode="&#x2001;" horiz-adv-x="1780" />
<glyph unicode="&#x2002;" horiz-adv-x="890" />
<glyph unicode="&#x2003;" horiz-adv-x="1780" />
<glyph unicode="&#x2004;" horiz-adv-x="593" />
<glyph unicode="&#x2005;" horiz-adv-x="445" />
<glyph unicode="&#x2006;" horiz-adv-x="296" />
<glyph unicode="&#x2007;" horiz-adv-x="296" />
<glyph unicode="&#x2008;" horiz-adv-x="222" />
<glyph unicode="&#x2009;" horiz-adv-x="356" />
<glyph unicode="&#x200a;" horiz-adv-x="98" />
<glyph unicode="&#x2010;" d="M41 438l23 128l411 15l-25 -129z" />
<glyph unicode="&#x2011;" d="M41 438l23 128l411 15l-25 -129z" />
<glyph unicode="&#x2012;" d="M41 438l23 128l411 15l-25 -129z" />
<glyph unicode="&#x2013;" horiz-adv-x="1024" d="M62 440l12 128h894l-13 -128h-893z" />
<glyph unicode="&#x2014;" horiz-adv-x="2048" d="M-5 440l13 128h2045l-13 -128h-2045z" />
<glyph unicode="&#x2018;" d="M110 925q0 254 322 521l48 -67q-93 -99 -128 -182q-22 -52 -31 -142q51 -30 51 -103q0 -65 -47.5 -111t-113.5 -46q-50 0 -77 42q-24 36 -24 88zM240 1072z" />
<glyph unicode="&#x2019;" d="M112 851q93 99 128 182q22 53 31 143q-52 30 -52 103q0 65 47.5 111t113.5 46q50 0 77 -42q24 -36 24 -88q0 -254 -322 -521zM350 1159z" />
<glyph unicode="&#x201a;" d="M-47 -310q93 99 128 182q22 52 31 142q-49 29 -49 102q0 66 46.5 112.5t112.5 46.5q50 0 77 -43q24 -36 24 -89q0 -242 -324 -511zM180 -2z" />
<glyph unicode="&#x201c;" horiz-adv-x="1033" d="M110 925q0 254 322 521l48 -67q-93 -99 -128 -182q-22 -52 -31 -142q51 -30 51 -103q0 -65 -47.5 -111t-113.5 -46q-50 0 -77 42q-24 36 -24 88zM240 1072zM598 925q0 254 322 521l48 -67q-93 -99 -128 -182q-22 -52 -31 -142q51 -30 51 -103q0 -65 -47.5 -111 t-113.5 -46q-50 0 -77 42q-24 36 -24 88zM728 1072z" />
<glyph unicode="&#x201d;" horiz-adv-x="1033" d="M112 851q93 99 128 182q22 53 31 143q-52 30 -52 103q0 65 47.5 111t113.5 46q50 0 77 -42q24 -36 24 -88q0 -254 -322 -521zM350 1159zM582 851q93 99 128 182q22 53 31 143q-52 30 -52 103q0 65 47.5 111t113.5 46q50 0 77 -42q24 -36 24 -88q0 -254 -322 -521z M820 1159z" />
<glyph unicode="&#x201e;" horiz-adv-x="1033" d="M-47 -310q93 99 128 182q22 52 31 142q-49 29 -49 102q0 66 46.5 112.5t112.5 46.5q50 0 77 -43q24 -36 24 -89q0 -242 -324 -511zM180 -2zM456 -310q93 99 128 182q22 52 31 142q-49 29 -49 102q0 66 46.5 112.5t112.5 46.5q50 0 77 -43q24 -36 24 -89q0 -242 -324 -511 zM683 -2z" />
<glyph unicode="&#x2022;" horiz-adv-x="1351" d="M385 612q0 148 89 251.5t237 103.5q104 0 180 -83t76 -217q0 -148 -88.5 -250.5t-237.5 -102.5q-104 0 -180 82t-76 216z" />
<glyph unicode="&#x2026;" horiz-adv-x="2048" d="M153 112q0 68 44.5 115.5t112.5 47.5q103 0 103 -110q0 -68 -44.5 -117.5t-112.5 -49.5q-103 0 -103 114zM741 112q0 68 44.5 115.5t112.5 47.5q103 0 103 -110q0 -68 -44.5 -117.5t-112.5 -49.5q-103 0 -103 114zM1329 112q0 68 44.5 115.5t112.5 47.5q103 0 103 -110 q0 -68 -44.5 -117.5t-112.5 -49.5q-103 0 -103 114z" />
<glyph unicode="&#x202f;" horiz-adv-x="356" />
<glyph unicode="&#x2039;" d="M70 426l12 124l310 297l72 -66l-246 -293l184 -296l-84 -66z" />
<glyph unicode="&#x203a;" d="M5 192l246 294l-184 295l84 66l248 -297l-12 -124l-310 -300z" />
<glyph unicode="&#x205f;" horiz-adv-x="445" />
<glyph unicode="&#x20ac;" horiz-adv-x="909" d="M38 433l27 80h84q5 49 17 96h-109l26 79h103q65 207 185.5 302.5t292.5 95.5q116 0 177 -20l-38 -139q-83 28 -185 28q-205 0 -277 -267q205 0 409 6l-23 -85h-402q-8 -49 -9 -96h385l-25 -86q-178 6 -359 6q-5 -143 63 -235q63 -89 161 -89q103 0 210 36l-22 -129 q-107 -38 -223 -38q-165 0 -264.5 121t-98.5 334h-105z" />
<glyph unicode="&#x2122;" horiz-adv-x="1294" d="M44 1311l10 71h472l-10 -70q-94 5 -194 5l-26 -244q-17 -163 -26 -342h-92q11 79 42 342q15 146 23 244q-71 0 -199 -6zM528 731q0 18 60 288q64 283 72 363h120q0 -78 50.5 -275.5t50.5 -265.5h5q5 53 110 273.5t110 267.5h128q-15 -143 -15 -321q0 -64 1.5 -176.5 t1.5 -153.5h-95q0 263 25 581h-5q-5 -16 -25 -70q-37 -92 -142 -307q-81 -164 -85 -204h-66q0 51 -46 247q-56 236 -60 264q-7 37 -10 70h-5q-10 -77 -56 -331q-41 -230 -41 -250h-83z" />
<glyph unicode="&#x25fc;" horiz-adv-x="960" d="M0 0v960h960v-960h-960z" />
</font>
</defs>
</svg>
