<?xml version="1.0" standalone="no"?>
<!DOCTYPE svg PUBLIC "-//W3C//DTD SVG 1.1//EN" "http://www.w3.org/Graphics/SVG/1.1/DTD/svg11.dtd" >
<svg>
<metadata>
Created by FontForge 20120731 at Wed Nov 26 11:53:02 2014
 By Orthosie Webhosting
Copyright (c) 1992 Miles Inc. All rights reserved.
</metadata>
<defs>
<font id="CoronetRegular" horiz-adv-x="831" >
  <font-face 
    font-family="CoronetRegular"
    font-weight="400"
    font-stretch="normal"
    units-per-em="2048"
    panose-1="3 3 5 2 4 4 6 7 6 5"
    ascent="1638"
    descent="-410"
    x-height="470"
    cap-height="1541"
    bbox="-1030 -798.031 2875 1938"
    underline-thickness="104"
    underline-position="-354"
    unicode-range="U+0020-FB04"
  />
<missing-glyph horiz-adv-x="1020" 
d="M75 0v1452h870v-1452h-870zM331 256h358v940h-358v-940z" />
    <glyph glyph-name=".notdef" horiz-adv-x="1020" 
d="M75 0v1452h870v-1452h-870zM331 256h358v940h-358v-940z" />
    <glyph glyph-name=".null" horiz-adv-x="0" 
 />
    <glyph glyph-name="nonmarkingreturn" horiz-adv-x="415" 
 />
    <glyph glyph-name="space" unicode=" " horiz-adv-x="415" 
 />
    <glyph glyph-name="exclam" unicode="!" horiz-adv-x="378" 
d="M460 68q-4 -77 -82 -83q-77 6 -83 83q6 76 83 82q78 -6 82 -82zM686 1467q7 25 12 33q8 11 35 21l61 23l19 4q20 1 23 -30l-3 -17l-365 -1136l-10 -12l-13 2l-17 5l-7 4l-4 7l1 18z" />
    <glyph glyph-name="quotedbl" unicode="&#x22;" horiz-adv-x="566" 
d="M710 1461h29l9 -12l-8 -22l-148 -414l-7 -11l-15 -5l-27 -6l-11 -2l-7 4l-3 8l4 20l99 418l5 15l4 4q4 3 28 3h48zM928 1461h29l8 -12l-8 -22l-147 -414l-7 -11l-16 -5l-27 -6l-11 -2l-7 4l-2 8l4 20l98 418l5 14l5 5q4 3 28 3h48z" />
    <glyph glyph-name="numbersign" unicode="#" 
d="M446 492l5 11l7 5l22 2h138l48 167h-138l-14 1l-7 5l-2 7l2 11l6 21q2 8 10 11l22 3h138l51 182l7 20q4 9 14 9h6l7 -5l3 -9l-2 -15l-52 -182h105l52 182l4 15l8 8l9 3q15 0 15 -14l-3 -12l-51 -182h145l17 -3l2 -11l-9 -30q-3 -10 -10 -12l-18 -3h-144l-49 -167h146
l15 -3l3 -15l-4 -16q-5 -16 -12 -21t-19 -4h-146l-58 -198l-5 -18l-8 -8l-9 -2q-7 -1 -11 4l-4 8l3 16l58 198h-103l-59 -198l-6 -18l-7 -8l-10 -2l-11 4q-5 2 -4 8l4 16l58 198h-138l-15 1l-6 4l-2 6l2 14zM805 677h-104l-49 -167h104z" />
    <glyph glyph-name="dollar" unicode="$" 
d="M665 396v0l-38 9q-42 11 -74 35q-37 25 -53 61q-25 47 -24 106q2 125 81.5 213.5t218.5 114.5l32 5l25 93l6 20l8 10l10 4q16 1 19 -16l-2 -18l-23 -87l41 1q54 0 115 -9q50 -8 57 -30v-18l-10 -48l-7 -16l-8 -5l-7 1l-17 12q-60 50 -135 56l-44 2l-88 -340v0l49 -13
q49 -14 89 -44q75 -57 76 -164q1 -190 -179 -286q-63 -35 -135 -49l-49 -9l-47 -180l-5 -17q-2 -7 -8 -10l-11 -3q-16 -2 -19 15l2 17l46 176l-37 2q-67 7 -152 24q-56 10 -87 22l-19 10l-7 10q0 16 4 32l9 35q3 18 18 21l10 -1l23 -13q43 -31 91 -50q68 -30 131 -35l31 -2z
M705 390v0l-92 -350l53 10q48 9 92 30.5t77 57.5q48 48 49 117q2 96 -84 119q-41 11 -95 16v0zM709 561v0l86 331l-49 -5q-80 -12 -134 -71q-58 -62 -58 -138q-2 -62 47 -89q22 -12 56 -19z" />
    <glyph glyph-name="percent" unicode="%" horiz-adv-x="1058" 
d="M989 858q-31 -6 -66 -6q-39 0 -70 7l-27 7l10 -24q9 -29 10 -59q-2 -112 -67 -216q-78 -124 -180 -124q-67 0 -110 53q-36 45 -34 118q-1 61 22 120q30 80 90 139q76 74 147 74q30 0 54 -11l43 -20q33 -17 118 -19q72 0 104 21l19 13l16 9l21 7q12 0 21 -9l9 -13l1 -13
q-2 -12 -14 -31l-536 -858l-14 -20q-16 -17 -36 -18q-12 -1 -21 8l-8 11l-2 11q0 8 9 22l9 15l508 812zM530 561q-4 -77 63 -73q40 1 75 42q22 23 37 51q33 55 51 133q15 60 15 107q2 80 -61 81q-52 1 -107 -106q-27 -52 -45 -102q-28 -76 -28 -133zM862 367q91 123 185 122
q63 -2 101 -54q34 -47 34 -112q-2 -108 -68 -216q-77 -124 -180 -122q-69 0 -107 50.5t-36 118.5q1 118 71 213zM866 104q-4 -77 61 -74q43 1 78 43q102 115 102 287q2 84 -60 84q-61 -3 -128 -147q-53 -114 -53 -193z" />
    <glyph glyph-name="ampersand" unicode="&#x26;" horiz-adv-x="1586" 
d="M1526 494l2 -33q-2 -161 -142 -290q-113 -104 -286 -164q-156 -56 -319 -54q-96 -1 -182 24q-108 29 -174 111q-69 87 -68 195q-1 128 90 223q61 63 199 147q67 42 99 57.5t33 35.5l-4 8l-12 9q-18 7 -44 15q-192 49 -192 163q0 85 79 194q62 85 151 150q194 141 396 140
q56 1 107 -32q55 -36 54 -93q0 -86 -69 -181q-98 -137 -136 -139q-9 -1 -24 9l-46 27l-8 8l-2 7q0 10 13 19l81 62q129 98 132 197l-3 18q-23 48 -98 48q-159 0 -335 -138q-196 -153 -196 -298q-1 -72 131 -123q118 -46 121 -100q0 -37 -44 -68l-90 -61q-128 -82 -187 -125
q-102 -72 -100 -177q-2 -146 195 -211q84 -29 184 -28q118 0 241 41q108 35 197 100q161 114 162 278q2 72 -48 95q-21 8 -54 9q-54 -1 -106 -16q-146 -43 -142 -146q0 -53 51 -98l33 -28l11 -13l-13 -12l-51 -27l-12 -5l-11 3l-17 15q-50 58 -50 134q0 129 103 212
q89 72 229 74l160 -8l91 -3q109 1 161 39q78 55 78 144q-3 97 -84 146l-24 11q-16 6 -28 6l-26 -2l-32 -7l-6 -2l-11 7l4 11l20 28q11 14 29 15l19 -3l30 -6q77 -15 122 -74t46 -134q0 -52 -23 -104q-24 -57 -66 -95q-62 -58 -214 -73l-88 -12z" />
    <glyph glyph-name="quotesingle" unicode="'" horiz-adv-x="340" 
d="M723 1461h29l8 -12l-7 -22l-148 -414l-7 -11l-16 -5l-27 -6l-11 -2l-7 4l-2 8l4 20l99 418l5 15l4 4q4 3 28 3h48z" />
    <glyph glyph-name="parenleft" unicode="(" horiz-adv-x="415" 
d="M381 529q90 282 342 663l149 216q40 59 78 102q10 12 23 13l11 -3q5 -5 6 -12q-1 -10 -10 -23l-47 -75l-114 -189q-80 -132 -151 -285q-70 -147 -127 -312q-62 -171 -111 -363q-104 -395 -103 -722q0 -36 -3 -41l-6 -6l-10 -2q-40 0 -40 303q-2 379 113 736z" />
    <glyph glyph-name="parenright" unicode=")" horiz-adv-x="415" 
d="M430 60q-68 -118 -147 -238q-62 -93 -149 -216q-40 -57 -78 -102q-12 -14 -23 -14l-11 3q-6 4 -6 12q0 9 10 24l47 75l114 188q161 267 280 603q121 344 172 644q16 95 30 249q10 106 10 182q-1 41 3 46l6 5l10 2q21 -2 27 -67q4 -40 6 -79q6 -83 7 -158
q1 -619 -308 -1159z" />
    <glyph glyph-name="asterisk" unicode="*" 
d="M789 1306q16 15 42 22l42 10q20 3 37 12l11 10l-8 8l-14 4l-43 9q-27 5 -34 11l-6 7l-1 11q2 23 29 41l15 8h9q6 -2 15 -12l21 -32l17 -24l7 -5l6 -1l6 2l5 6l5 17l5 63q0 21 13 34q13 16 36 16q12 0 19 -4l9 -9l2 -11q-1 -14 -12 -28l-19 -26l-26 -34q-9 -11 -9 -19
l5 -8l10 1l59 43l31 20q24 16 35 16q22 -2 22 -29q-2 -39 -48 -46l-43 -9l-32 -7q-15 -3 -21 -6l-4 -13l5 -4l14 -4l44 -7q21 -4 33 -10l8 -8l3 -10q0 -14 -11 -28l-17 -17q-13 -10 -22 -10l-12 4l-15 13l-22 33l-14 18l-9 5l-6 -1l-6 -4q-7 -11 -8 -26l-1 -39
q-2 -17 -6 -33q-13 -35 -42 -36q-27 1 -27 21q-2 10 7 23l18 32l26 41l6 10v6l-6 5q-6 0 -12 -6l-33 -24l-42 -33q-20 -18 -35 -17q-29 2 -26 29q-1 15 15 29z" />
    <glyph glyph-name="plus" unicode="+" horiz-adv-x="1058" 
d="M759 535l3 20l5 7l7 2h33l8 -3l5 -7l1 -19v-222h221l22 -1l8 -12v-33q0 -17 -13 -16h-17h-221v-216v-21l-14 -14h-33l-8 3l-5 7l-2 25v216h-221l-21 2l-6 5l-3 9v33l10 11l20 2h221v222z" />
    <glyph glyph-name="comma" unicode="," horiz-adv-x="415" 
d="M383 -10q-64 16 -68 80q4 78 80 82q83 -4 87 -102q-2 -77 -89 -177q-67 -75 -151 -130l-11 -4q-8 0 -13 6l-4 11l6 9l22 20q85 74 145 164l22 36z" />
    <glyph glyph-name="hyphen" unicode="-" horiz-adv-x="415" 
d="M254 262l4 10l5 5q5 3 21 3h288q15 0 21 -4l4 -14l-9 -37q-4 -13 -10 -18t-21 -4h-291q-20 -1 -21 12l1 10z" />
    <glyph glyph-name="period" unicode="." horiz-adv-x="415" 
d="M484 68q-6 -78 -84 -84q-78 6 -84 84q6 78 84 84q78 -6 84 -84z" />
    <glyph glyph-name="slash" unicode="/" horiz-adv-x="415" 
d="M907 1507l15 27q9 13 26 14l10 -2q6 -4 11 -10l3 -10l-4 -19l-7 -15l-753 -1468l-18 -32q-6 -8 -19 -7q-12 0 -20 7l-8 9l-2 8l5 13l18 35z" />
    <glyph glyph-name="zero" unicode="0" 
d="M454 709q153 237 352 238q49 0 95 -22q149 -70 152 -304q0 -174 -87 -332q-93 -170 -227 -256q-74 -49 -150 -48q-116 1 -193 97q-66 82 -67 210q-1 225 125 417zM442 249q1 -46 16 -103q26 -108 134 -110q110 1 196 167q55 104 94 217q57 165 58 305q0 166 -134 171
q-105 0 -203 -142q-70 -103 -110 -231q-52 -162 -51 -274z" />
    <glyph glyph-name="one" unicode="1" 
d="M661 646l-41 -46l-13 -10l-19 11l-12 13l-2 5l8 16l45 56l92 112l90 123q15 19 31 21l18 -1l25 -4l8 -11l-8 -30l-268 -865q-4 -13 -12 -22q-10 -12 -26 -14l-50 -9l-40 -6l-9 4l-3 7l5 17l7 22l242 688z" />
    <glyph glyph-name="two" unicode="2" 
d="M704 104l100 -2l71 -2q20 -1 31 -5l8 -7l3 -7q0 -8 -10 -29l-23 -51q-4 -11 -18 -13l-26 -1l-69 5l-123 4l-132 3l-108 1h-68q-26 -1 -34 13l-3 9q0 15 17 29l39 26l118 72q82 54 162 122q296 251 295 451q1 69 -40.5 121.5t-116.5 52.5q-91 -1 -172 -78
q-64 -61 -100 -161l-11 -26l-10 -13l-7 -4l-20 5l-49 18l-9 6l-4 8q-1 41 67 125q34 44 76 80q48 42 107 66.5t124 24.5q111 0 192 -71q87 -77 86 -184q-1 -77 -35 -142q-42 -80 -111 -150q-84 -88 -175 -151l-180 -122l-33 -22v0z" />
    <glyph glyph-name="three" unicode="3" 
d="M799 482q40 -14 76 -38q90 -61 91 -158q0 -70 -41 -127q-60 -86 -172 -132q-107 -43 -214 -42q-142 1 -265 55l-19 11l-5 7l1 16l10 61l4 18l12 15l6 -1l11 -6l45 -34q123 -92 241 -91q112 -2 190 73q83 80 83 187q0 65 -47 115q-41 44 -114 44q-26 0 -45 -5l-32 -3
l-11 5q-4 3 -5 10l2 10l7 10l14 9l127 59q71 34 125 97q62 73 64 144q1 44 -33 74.5t-76 30.5q-115 1 -244 -141l-30 -31q-17 -16 -30 -16q-9 -1 -19 7l-34 22l-11 11l-2 11q4 26 70 78q38 29 91 55q108 53 205 55q88 1 150 -43q77 -55 76 -133q-1 -114 -130 -187l-109 -57
l-61 -31v0z" />
    <glyph glyph-name="four" unicode="4" 
d="M904 804l13 32q7 11 25 21l50 26l15 5q18 1 19 -22q0 -12 -5 -24l-12 -39l-156 -516h124l22 -2l9 -8l-1 -9l-22 -59l-7 -14q-6 -8 -11 -10l-21 -2h-120l-53 -152l-8 -26q-7 -11 -18 -15l-72 -33l-20 -7l-8 1q-8 2 -11 9l-1 12l9 28l57 183h-281h-71q-60 0 -66 15l-3 11
q-1 19 23 48l28 38l442 640l22 29l16 10l18 5l27 4l16 2l10 -4l4 -7q-1 -15 -11 -29l-19 -25l-478 -633v0h352z" />
    <glyph glyph-name="five" unicode="5" 
d="M569 547v0l30 8l48 12q34 6 73 7q112 0 179 -54q78 -62 79 -166q1 -124 -99 -224q-93 -91 -214 -126q-67 -20 -159 -19q-166 -2 -271 52l-19 14l-4 9l4 15l9 32l5 11l7 7l6 2l14 -6q128 -84 249 -85q130 0 239 106q51 49 85.5 113.5t34.5 133.5q-1 59 -43 95.5t-101 38.5
q-87 -1 -202 -67q-11 -7 -18 -6q-16 -2 -16 15l4 14l10 31l137 386l10 22q8 12 22 15h27l140 -1l142 1q23 0 30 -3l9 -8l3 -11l-3 -19l-18 -62q-2 -8 -8 -12q-7 -5 -14 -6h-26l-281 16v0z" />
    <glyph glyph-name="six" unicode="6" 
d="M507 657q142 177 299 295l72 50q12 8 19 8q18 -1 18 -19q-1 -13 -14 -26l-67 -64q-56 -54 -116 -125q-50 -58 -91 -119q-106 -154 -154 -309q-25 -78 -24 -139q0 -64 33 -114q39 -59 99 -59q111 -2 219 148q102 144 103 252q-1 50 -30 85q-32 40 -80 40q-82 -1 -183 -127
l-45 -55q-9 -11 -22 -11l-11 2q-9 4 -8 15q0 8 9 20l21 29l40 51q33 39 70 69q71 58 156 58q82 -2 138.5 -61.5t57.5 -141.5q0 -73 -35 -147q-55 -116 -156 -192q-114 -85 -230 -85q-118 1 -191 92q-70 86 -68 205q2 165 171 375z" />
    <glyph glyph-name="seven" unicode="7" 
d="M930 777l10 19l3 12q-1 8 -7 12v0q-15 8 -38 8l-157 -1l-154 -6l-125 -10h-14q-21 0 -19 20l6 18l31 60l10 14q14 10 74 10l213 -1l262 1q23 0 33 -6l8 -9l2 -9q-3 -14 -27 -58l-16 -28l-230 -408q-161 -291 -196 -363l-13 -27l-14 -21q-11 -10 -22 -12l-49 -6l-21 -1
l-11 5q-5 3 -4 12q0 10 8 23l17 27z" />
    <glyph glyph-name="eight" unicode="8" 
d="M546 531q-66 59 -66 157q-1 67 27 116q34 65 123 106q77 35 161 37q102 -1 181 -55q90 -61 91 -160q-1 -166 -187 -227l-42 -13l47 -33q97 -75 97 -187q0 -126 -117 -215q-95 -73 -238 -72q-125 2 -200 58q-91 69 -90 182q-1 55 26 108q18 40 49 69q45 45 103 71l71 28z
M641 464l-37 -13q-177 -65 -181 -228q1 -88 65 -141q56 -47 150 -46q95 1 165 52q83 62 85 148q1 110 -193 202zM774 521l53 19q146 56 146 191q-2 80 -56.5 122t-131.5 43q-86 -2 -147 -50q-69 -55 -68 -134q2 -101 151 -169z" />
    <glyph glyph-name="nine" unicode="9" 
d="M478 808q63 63 144.5 100.5t159.5 38.5q121 -2 196 -94q69 -87 69 -209q-3 -277 -404 -635q-69 -64 -135 -105q-11 -7 -20 -7q-18 1 -18 16q-1 12 17 27q107 95 208 231q65 89 107 165.5t76 162.5q56 142 56 245q-2 67 -34 112q-40 55 -100 55q-116 1 -231 -166
q-98 -144 -97 -273q-1 -55 30 -94q35 -46 86 -45q70 0 149 58l46 38l10 7l9 -1l9 -6l10 -12l-8 -14l-32 -25l-69 -43q-67 -38 -141 -38q-95 -1 -156 72q-57 69 -56 166q-1 156 119 273z" />
    <glyph glyph-name="colon" unicode=":" horiz-adv-x="415" 
d="M483 68q-6 -77 -83 -83q-78 6 -84 83q6 78 84 84q77 -6 83 -84zM577 401q-6 -77 -83 -83q-78 6 -84 83q6 78 84 84q77 -6 83 -84z" />
    <glyph glyph-name="semicolon" unicode=";" horiz-adv-x="415" 
d="M382 -10q-64 16 -68 80q4 78 80 82q83 -4 87 -102q-3 -77 -89 -177q-67 -75 -151 -130l-11 -4q-8 0 -13 6l-4 11l6 9l22 20q85 74 145 164l22 36zM577 401q-6 -77 -83 -83q-78 6 -84 83q6 78 84 84q77 -6 83 -84z" />
    <glyph glyph-name="less" unicode="&#x3c;" horiz-adv-x="2039" 
d="M1852 1235v-136l-1059 -492l1059 -479v-137l-1225 544v144z" />
    <glyph glyph-name="equal" unicode="=" horiz-adv-x="1058" 
d="M1071 187l-4 -10l-9 -6l-17 -1h-502l-21 3l-6 5l-3 9v32l10 10l20 3h502l22 -1l8 -12v-32zM1071 340l-4 -10l-9 -6l-17 -1h-502l-21 3l-6 5l-3 9v31l10 11l20 3h502l22 -1l6 -4l2 -9v-31z" />
    <glyph glyph-name="greater" unicode="&#x3e;" horiz-adv-x="2039" 
d="M1852 679v-144l-1225 -544v137l1049 479l-1049 492v136z" />
    <glyph glyph-name="question" unicode="?" horiz-adv-x="604" 
d="M532 68q-6 -77 -84 -83q-77 6 -83 83q6 78 83 84q78 -6 84 -84zM496 1026l-17 30q-1 19 17 45q52 80 122 147q109 107 213 108q46 0 89 -22q109 -54 110 -177q0 -134 -110 -268q-32 -37 -117 -126q-212 -217 -292 -407q-12 -26 -22 -42q-8 -10 -15 -11l-8 1l-7 7l-3 9
l3 14l16 49l32 93q56 149 129 256q53 78 182 223q66 74 113 137q44 58 44 110q1 35 -31 67t-69 32q-80 0 -183 -120q-49 -57 -71 -93l-61 -100l-15 -19l-8 -3l-20 22z" />
    <glyph glyph-name="at" unicode="@" horiz-adv-x="1058" 
d="M947 -150q-50 -38 -84 -58q-114 -70 -231 -68q-150 0 -238 121q-74 100 -73 263q0 243 173 446q192 225 416 227q192 0 254 -160q21 -55 21 -117q-1 -153 -81 -314q-101 -205 -232 -205q-60 1 -79 45l-12 31l-24 -26q-51 -51 -121 -51q-118 -2 -119 144q0 174 160 351
q74 87 156 86q82 -2 112 -71l11 -31l20 30l77 -14l-16 -30l-51 -89l-49 -92q-32 -60 -41 -88l-23 -62q-8 -22 -8 -37q1 -29 22 -28q30 -4 86 85q36 57 59 111q54 125 55 245q-2 96 -45 151q-53 68 -139 68q-83 0 -154 -41q-147 -85 -239 -248t-91 -332q-2 -116 54 -202
q67 -100 178 -98q57 -1 110 21q41 16 86 41l39 22l61 -26v0zM615 113q-1 -62 49 -61q51 -3 97 66q27 40 54 97l35 78q18 45 29 79q12 40 12 70q-1 58 -45 55q-58 0 -125 -115q-107 -174 -106 -269z" />
    <glyph glyph-name="A" unicode="A" horiz-adv-x="1813" 
d="M1310 351q-147 -163 -320 -269q-210 -127 -544 -129q-136 -1 -237 47l-13 9l-4 8l1 5l4 8l34 41l13 9l13 2q9 -3 24 -10q116 -70 283 -69q113 -1 218 33q119 38 213 107q133 98 257 241q114 130 240 307q88 124 201 296l160 244l147 213q43 62 89 98q15 12 28 12
q54 0 56 -113q0 -68 -15 -150q-25 -135 -80 -321l-95 -308l-29 -91l-29 -93h26l57 4l12 -4l6 -8l-1 -9l-5 -7q-7 -5 -29 -6l-47 -4h-28l-155 -444h-74l-10 28q-35 88 -98 199q-63 110 -115 175l-54 64v0zM1473 458l44 -57q35 -49 77 -112q46 -71 69 -121l33 -80l112 353h-85
q-84 2 -250 17v0zM1439 509v0l30 -6q104 -19 241 -21h109l147 477l65 221q40 137 59 243l1 21l-6 17l-28 -25q-68 -95 -126 -187l-218 -339q-47 -74 -179 -264z" />
    <glyph glyph-name="B" unicode="B" horiz-adv-x="1095" 
d="M772 963q-78 -272 -153 -469q-41 -107 -82.5 -189.5t-90.5 -155.5q-47 -68 -89 -115l-63 -62q-21 -20 -35 -19q-19 0 -27 39l-6 53q-1 47 9 100q14 91 42 179q73 238 225 466q54 82 114 161l81 102v0l24 97l38 148l33 135q3 18 9 25q5 6 21 16l67 37l21 12l8 -3l4 -6
l-1 -18l-84 -300v0l114 102q263 222 421 225q72 -2 119 -54t47 -122q1 -139 -133 -312q-88 -112 -254 -230q-74 -53 -118 -73q-28 -13 -44 -26l-8 -9l-2 -7q0 -8 10 -17l16 -11l77 -32q48 -19 89 -46q49 -33 81 -84q35 -57 35 -114q-3 -126 -114 -249q-94 -106 -227 -147
q-103 -31 -270 -34l-159 -3l-33 1l-20 6l-6 6l7 16l45 54q11 13 32 14l27 -1h57l108 -3q203 0 292 41q165 75 165 230q-2 127 -128 196l-74 37l-52 25q-55 28 -54 71q0 40 57 72l44 26q195 118 295 235q163 189 163 336q1 111 -104 115q-52 0 -103 -26q-83 -42 -167 -105
q-108 -81 -269 -238v0zM657 909v0l-66 -92q-63 -90 -110 -179q-46 -84 -90.5 -190.5t-68.5 -191.5q-27 -91 -37 -173v-27l5 -10l10 5l10 15l39 65l50 90q49 96 92 195q83 192 144 409z" />
    <glyph glyph-name="C" unicode="C" horiz-adv-x="1133" 
d="M1086 1062q4 15 14 23l22 12q141 57 228 112q167 105 169 183q-1 79 -128 81q-51 0 -99 -13q-321 -87 -590 -427q-275 -346 -276 -671q0 -156 99.5 -258t255.5 -101q94 -1 194 31q131 41 228 103l37 23l13 4q10 -1 17 -11l6 -16l-1 -8l-14 -11l-82 -48q-53 -31 -130 -59
q-70 -26 -140 -40q-87 -19 -168 -18q-133 0 -235 58q-112 63 -149 186q-28 84 -27 180q-2 325 269 666q254 318 578 435q66 24 124 35q51 10 104 10q77 -2 118 -34q55 -42 55 -107q0 -125 -187 -262q-132 -96 -295 -150l-23 -2l-8 6l-2 8l6 21z" />
    <glyph glyph-name="D" unicode="D" horiz-adv-x="1813" 
d="M840 67q-156 -67 -290 -67q-74 0 -145 18q-110 27 -110 81q-1 50 92 93q63 28 133 41q45 8 100 8q109 -2 309 -51v0l22 21q86 83 136 178q56 103 113 252l101 269l87 249l30 86v0l-86 61q-175 112 -383 158q-82 18 -159 18q-49 0 -94 -13q-115 -31 -113 -115
q0 -54 85 -173l61 -81l42 -48l7 -14l-4 -9l-16 -10l-38 -15l-18 -4q-12 1 -23 11l-34 45l-64 92q-59 86 -57 178q-2 109 113 167q76 37 210 39q92 0 203 -19q186 -33 338 -119l69 -42v0l12 31l23 72q5 17 19 26l21 10l66 28l17 4l9 -9l-13 -39l-69 -190v0l48 -41
q379 -329 383 -685q0 -154 -78 -282q-81 -132 -213 -200q-71 -38 -169.5 -57.5t-192.5 -19.5q-113 0 -215 26q-68 16 -148 44l-63 21v0zM391 96l29 -16q23 -12 55 -19q44 -13 83 -11q52 -1 128 17q55 11 91 27l26 12v0l-44 15q-99 28 -177 27q-104 -1 -166 -36zM998 166v0
l66 -20q84 -25 169 -38q91 -16 171 -15q240 0 375 130q55 52 79 129q19 59 19 130q-2 179 -103 359t-225 299l-45 40v0l-42 -120l-41 -121q-138 -407 -226 -546q-49 -77 -113 -145z" />
    <glyph glyph-name="E" unicode="E" horiz-adv-x="1171" 
d="M1281 109q-5 -18 -12 -26q-9 -10 -31 -18l-106 -36l-122 -34q-162 -41 -304 -42q-181 -1 -284 55q-143 77 -145 238q1 166 166 354q74 83 148 138q63 44 146 86l96 49q12 7 21 16q4 3 4 10l-1 5l-8 12l-24 27q-74 78 -73 136q-1 60 28 108q66 115 214 205q131 79 278 113
q80 18 158 18q193 0 197 -127q-2 -79 -87 -233l-50 -84l-16 -21l-8 -3l-17 14l-26 43q-12 19 -12 28q-2 7 10 22q50 76 89 156q21 43 21 78q-5 80 -108 77q-93 0 -221 -50q-114 -45 -193 -116q-52 -46 -94 -103q-68 -91 -67 -160q2 -43 37 -111l21 -43q10 -25 11 -48
q-2 -46 -57 -80l-91 -53q-74 -41 -134 -86q-81 -59 -142 -135q-119 -148 -120 -291q1 -92 74 -148q63 -48 163 -46q100 -1 212 27q123 30 225 74l175 76l51 22q9 5 19 5l7 -4l2 -8l-4 -21z" />
    <glyph glyph-name="F" unicode="F" horiz-adv-x="1322" 
d="M1314 533q59 129 132 391q75 268 102 401l18 92l-134 7q-130 6 -244 6l-149 -3q-184 -8 -284 -34q-142 -36 -144 -99q1 -53 94 -102q77 -40 137 -48l129 -21l22 -5l16 -9l-16 -23l-39 -38q-15 -15 -32 -14l-17 3l-70 19q-285 80 -283 222q-2 82 94 137q67 38 136 56
q168 42 455 51l183 1q148 0 227 -7l49 -6l-50 -248q-61 -276 -151 -557q-34 -107 -63 -174l-11 -24h121q18 0 24 -3l6 -6v-11l-9 -35l-6 -12l-6 -5l-22 -1h-140l-12 -24q-68 -135 -154 -226q-70 -76 -158 -130q-161 -101 -354 -101q-208 1 -367 91l-12 14l4 7l11 13l26 25
q14 14 23 14l11 -4l28 -20q34 -26 141 -63q76 -26 152 -27q200 0 344 132q82 74 134 173l51 100l13 26h-192q-30 -1 -35 3l-5 15l9 35q3 9 9 16q3 4 10 4h39h197z" />
    <glyph glyph-name="G" unicode="G" horiz-adv-x="1171" 
d="M1016 11q-133 -60 -247 -58q-201 0 -332 123q-62 56 -88.5 131.5t-24.5 155.5q1 399 356 768q162 168 340 267q220 122 412 125q184 -3 187 -150q1 -108 -118 -248q-91 -109 -205 -188l-45 -29q-14 -9 -20 -8q-9 0 -27 13l-39 27l-17 15l-2 8l12 15l103 71q81 53 175 147
q124 122 124 188q0 88 -125 89q-137 -2 -271 -69q-122 -59 -240 -156q-211 -171 -344 -398q-158 -271 -160 -498q1 -163 114 -262q48 -45 114 -66q60 -22 125 -21q80 0 163 33q61 23 111 63l35 29l15 48l23 89q11 45 25 79q45 111 149 115q38 2 38 -25l-4 -12l-20 -25
q-31 -37 -76 -176l-47 -161l-49 -173q-31 -103 -80 -177q-152 -238 -452 -236q-219 1 -253 33q-5 5 -6 20l-7 63l4 16l15 -2l41 -19q59 -30 132 -47q59 -15 119 -14q199 1 290 175q73 138 126 336z" />
    <glyph glyph-name="H" unicode="H" horiz-adv-x="1851" 
d="M1206 365q-169 -291 -436 -366q-89 -26 -183 -25q-94 -1 -193 25q-126 33 -180 71l-11 13l10 18l17 22l17 21q8 8 15 9q5 0 16 -7l60 -39q149 -85 312 -83q74 -1 137 20q234 74 425 533q57 136 90 236l120 355q59 176 79 260q3 17 9 23q4 5 25 12l59 21l25 5l8 -14
l-3 -23l-132 -386l-129 -372l-28 -73l-39 -84v0l53 -21q138 -48 337 -55l135 1l152 536l128 464q4 17 10 23q4 5 25 12l58 21l20 6l6 -1l8 -14l-3 -24l-86 -287l-219 -738l44 1l48 3l26 2h15l5 -7l-5 -14l-5 -10q-3 -5 -10 -8l-14 -3l-67 -2l-48 -4l-126 -418h-57l-13 24
q-54 97 -103 165q-120 159 -257 257l-75 50v0zM1412 458l79 -69q43 -40 86.5 -90.5t93.5 -120.5l49 -70l90 313l-57 -1l-111 6l-115 11z" />
    <glyph glyph-name="I" unicode="I" horiz-adv-x="1171" 
d="M1092 500q-148 124 -149 350q-2 232 182 496q39 57 87 107q67 70 124 70q119 -3 118 -198q0 -95 -19.5 -207t-52 -231.5t-78.5 -244.5l-65 -167v0l40 -9q34 -8 78 -10l27 -2l14 -3l5 -3l1 -17q-4 -12 -12 -15l-21 -2l-111 16l-36 5v0l-27 -54q-45 -91 -98 -164
q-188 -265 -516 -264q-133 -1 -302 51q-44 12 -74 32l-12 10l-3 6q-2 9 8 23l20 35l16 17l22 -10q19 -14 58 -31l102 -45q92 -39 188 -38q106 -1 194 47q79 41 135 111q85 105 152 246l33 71v0zM1140 519v0l47 109q38 95 84 240l56 185q66 224 68 341l-4 42q-10 44 -47 46
q-44 -3 -92 -74q-44 -64 -80 -137q-45 -85 -69 -154q-63 -178 -64 -327q-1 -73 25 -149.5t64 -111.5z" />
    <glyph glyph-name="J" unicode="J" horiz-adv-x="1020" 
d="M1095 623q193 499 191 757q0 90 -44 93q-39 1 -103 -111q-47 -83 -67 -139q-53 -138 -54 -348q-1 -94 23 -163l14 -29l13 -25l-3 -9l-36 -38l-34 -32l-23 -14l-10 17q-40 105 -40 252q-1 91 18 193q28 164 104 290q124 204 220 206q117 -2 118 -210q-1 -97 -18 -211
t-50 -232q-27 -95 -79 -236l-72 -191v0h39q14 0 23 -4l8 -7l2 -9l-7 -17l-23 -38q-6 -11 -16 -14q-11 -5 -26 -4h-39v0l-66 -127q-69 -131 -124 -216q-63 -99 -133 -180q-104 -123 -221 -205q-82 -59 -171 -97q-74 -33 -136 -32q-73 0 -118 57q-38 48 -38 128q-1 47 14 98
q56 203 297 399q201 162 448 226q46 12 143 29v0zM979 337v0l-28 -3q-125 -19 -271 -90q-179 -86 -317 -238q-186 -203 -187 -342q-2 -47 23 -82q29 -40 74 -39q24 -1 52 10q39 14 81 37q86 46 159 110q82 70 145 156q116 158 218 367z" />
    <glyph glyph-name="K" unicode="K" horiz-adv-x="1813" 
d="M240 71q14 12 22 13q7 -1 25 -12q100 -68 294 -69q199 0 363 175q90 95 158 217q119 211 221 581l59 217l53 192l13 43l12 31q6 10 24 20l68 36q14 8 23 8l9 -5q4 -5 4 -11l-5 -22l-11 -36l-56 -190l-82 -295q-41 -148 -99 -300q-64 -170 -132 -285
q-105 -179 -294.5 -302t-400.5 -124q-163 0 -292 46l-24 15l1 8l13 17zM1805 5l-11 -5h-9q-8 3 -17 13l-157 177l-175 202q-98 114 -99 150q-1 16 25 42l80 88l336 395q134 160 343 392l36 40q10 12 23 17q17 6 42 7h57l18 -3l6 -6l-1 -12q-10 -16 -23 -27l-40 -34
l-731 -766l-53 -59q-20 -24 -19 -39q-1 -17 20 -42q66 -86 160 -184q243 -260 248 -288l-2 -8l-9 -11z" />
    <glyph glyph-name="L" unicode="L" horiz-adv-x="1397" 
d="M979 280q49 90 118 326q48 167 80 260q46 137 104 260q130 273 308 371q46 26 96 26q130 -1 129 -186q-1 -78 -36 -206q-49 -175 -70 -195q-8 -8 -20 -10l-52 -13l-15 -2l-9 6l2 17l71 174q30 73 51 152q18 71 19 120q1 96 -65 93q-30 0 -58 -19q-107 -71 -180 -214
q-43 -80 -76 -174l-81 -243l-59 -179q-47 -140 -93 -249q-36 -85 -84 -149l-32 -40v0l84 -31q111 -43 170 -57q51 -15 122 -27l67 -11l18 -6l-7 -21l-43 -60l-15 -16l-9 -4l-16 3l-53 14q-93 22 -184 56q-73 25 -156 63l-49 22v0l-38 -31q-86 -68 -173 -102
q-116 -45 -241 -45q-100 0 -180 33q-106 44 -107 135q-2 124 147 171q77 25 160 25q150 0 360 -62l67 -21v0zM884 154v0l-65 20q-171 51 -321 50q-36 0 -68 -5q-155 -24 -154 -110q-3 -104 219 -106q100 -1 203 38q77 29 137 73z" />
    <glyph glyph-name="M" unicode="M" horiz-adv-x="1699" 
d="M751 437l74 145l125 232l113 201q59 103 120 193q128 190 214 245q35 24 73 23q47 -1 77 -47q24 -37 23 -90q-2 -109 -55 -259l-96 -257l-96 -263l-81 -221l-62 -178v0l102 182l128 245l145 263l137 240q136 225 212 291q37 33 78 32q54 -1 91 -53q25 -35 24 -104
q-2 -172 -97 -441l-155 -435q-41 -122 -83 -259l-46 -148q-31 -90 -39 -130l-7 -17l-22 9l-56 49q-16 12 -15 25l3 19l69 208l94 271q71 208 152 412l75 197q68 196 68 287q0 60 -46 60q-47 -1 -114 -97q-149 -214 -298 -490l-130 -249q-82 -157 -131 -246l-91 -154
q-32 -52 -64 -91q-30 -38 -59 -37q-43 -1 -42 57q-1 79 82 310l103 268l109 285l88 233q36 91 56 156q10 32 10 65q-2 52 -37 52q-25 0 -46 -17q-36 -26 -67 -65q-163 -191 -381 -595l-133 -251l-146 -281l-80 -154l-30 -63h-115l28 68q32 78 72 195l85 252l75 229l64 216
l49 185q41 168 42 263q1 79 -43 80q-39 -1 -98 -80q-54 -72 -88 -145q-49 -102 -96 -232l-21 -57l-9 -15l-20 13l-30 28q-16 14 -15 22l2 15l19 57q34 91 76 169q149 278 272 275q110 -1 110 -211q1 -194 -135 -621l-74 -221l-59 -174z" />
    <glyph glyph-name="N" unicode="N" horiz-adv-x="1208" 
d="M744 389l102 196l123 224q151 272 266 433q164 233 296 234q58 1 92 -59q25 -45 25 -110q-2 -125 -66 -331l-80 -254l-120 -369l-22 -77q-76 -290 -124 -431l-12 -18l-16 11l-56 47q-9 8 -14 18l-2 8l2 13l18 57l137 424l209 607l57 185q28 92 30 163q1 64 -52 66
q-111 -1 -313 -300q-42 -61 -132 -219l-144 -252l-147 -278l-123 -226l-76 -151h-102l14 44l61 197l78 258l70 255l67 244l73 282l27 115q6 29 6 59q0 12 -4 22l-8 12l-8 3l-8 -3l-16 -16l-28 -38l-50 -78q-112 -191 -170 -330l-71 -163l-15 -18l-17 13l-36 45
q-13 14 -12 25l4 16q54 129 169 331q152 266 247 266q61 -2 76 -93q6 -36 6 -64q-1 -127 -98 -492l-73 -258l-57 -193l-57 -193z" />
    <glyph glyph-name="O" unicode="O" horiz-adv-x="1397" 
d="M633 1170q276 350 612 353q144 -2 257 -99q103 -87 156 -231q41 -114 41 -237q-1 -278 -158 -535.5t-398 -389.5q-142 -79 -297 -78q-94 0 -182 40q-83 35 -146 106q-142 155 -143 403q-3 335 258 668zM471 479q-1 -189 80 -315q104 -163 270 -161q231 1 442 205
q170 164 265 421q74 199 75 390q0 174 -84 303q-98 151 -263 151q-321 -1 -564 -351q-220 -318 -221 -643z" />
    <glyph glyph-name="P" unicode="P" horiz-adv-x="1095" 
d="M664 998q108 211 227 333q184 190 347 192q113 -4 191 -87q69 -86 73 -200q-4 -260 -223 -528q-181 -217 -471 -332q-96 -38 -162 -54l-103 -26l-19 -1l-5 5l-2 9q1 11 7 26l23 51q4 11 11 14l10 1l80 2q295 37 479 253q73 84 129 188q60 110 95 233q29 104 30 188
q0 83 -41 139q-50 70 -124 69q-168 -3 -382 -284q-69 -90 -127 -198.5t-111 -240.5q-39 -95 -94 -251l-75 -217l-78 -244q-51 -167 -85 -271l-13 -22l-23 14l-54 47l-17 17v6l5 17l38 107l68 196l50 155l89 295q54 192 93 366l60 299q23 119 31 184q1 16 7 25q4 6 14 12
l53 29q16 8 30 9l9 -5l5 -11l-1 -17l-57 -342q-16 -90 -64 -306z" />
    <glyph glyph-name="Q" unicode="Q" horiz-adv-x="1397" 
d="M1122 14q30 -41 48 -59q44 -48 101 -76q43 -23 94 -37l18 -7l5 -5v-9l-9 -14l-49 -46q-15 -13 -32 -14l-21 3q-118 36 -221 166l-47 62v0l-8 -1v0l-14 -5q-57 -20 -127 -19q-222 1 -360 167q-125 149 -125 382q-1 95 22 192q17 78 52 162q108 265 307 448
q237 217 489 219q206 -2 337 -187q118 -164 117 -377q-1 -192 -79 -382.5t-210 -330.5q-97 -103 -249 -206l-39 -26v0v0zM980 25v0l-9 14l-47 75q-29 46 -84 89q-44 34 -84 34q-39 -1 -68.5 -31.5t-29.5 -68.5q-2 -39 27 -72q47 -60 159 -62q62 -2 123 18zM1087 70v0l16 10
q234 149 364 406q135 268 136 531q-1 177 -84 305q-98 152 -265 151q-139 0 -266 -73q-291 -166 -441 -552q-30 -76 -47 -147q-29 -117 -29 -223q0 -228 84 -339q10 -17 45 -47l18 -17l-10 21q-9 22 -9 54q0 77 48 128.5t126 51.5q77 -1 138 -50q63 -52 119 -131l47 -66z
" />
    <glyph glyph-name="R" unicode="R" horiz-adv-x="1171" 
d="M563 653q54 101 103 180q424 694 723 690q102 -2 158 -77q52 -72 54 -172q0 -82 -31 -168q-34 -98 -100 -188q-97 -135 -242 -227q-165 -105 -305 -127l-217 -36l-16 -5l-8 -7l-3 -10q-1 -9 5 -15l20 -22l62 -60q98 -97 150 -143l185 -165l82 -73l20 -23l-16 -15l-66 -29
q-18 -9 -25 -8q-8 0 -22 12l-63 56l-132 120q-143 128 -241 234q-55 59 -55 110q0 49 46 67q27 11 85 24q291 66 485 229q98 82 179 201q95 141 118 243q9 41 9 83q-4 140 -122 141q-47 0 -84 -15q-93 -36 -169 -107q-197 -180 -448 -600q-73 -120 -134 -241
q-57 -110 -121 -248q-98 -207 -122 -281l-9 -19l-13 -9q-6 -1 -19 9l-52 33q-11 6 -11 17l2 14l25 59q33 71 62 148l133 369q86 239 110 324l72 285l40 168l17 79q2 14 9 22q5 5 16 11l63 27l19 5l7 -4l4 -10l-2 -21l-25 -112q-11 -49 -75 -267l-60 -204l-72 -211l-38 -110
l-36 -106z" />
    <glyph glyph-name="S" unicode="S" horiz-adv-x="1360" 
d="M260 144l12 12l10 3q6 0 21 -9q51 -34 143 -63q111 -38 223 -59q126 -26 250 -25q166 -1 294 65q169 88 171 233q0 54 -21 101q-28 62 -72 105q-45 43 -119 100q-89 66 -171 136q-89 72 -145 147q-63 79 -62 170q1 211 257 342q113 58 243.5 89.5t244.5 31.5
q77 0 151 -16q143 -31 142 -146q-3 -136 -182 -279q-43 -35 -89 -64q-28 -19 -43 -18q-8 -1 -31 11l-64 30l-14 16l3 6l14 11l61 31q38 17 90 49q60 35 109 76q88 71 87 137q-4 105 -233 106q-77 0 -164 -18q-106 -22 -199 -64q-111 -51 -183 -116q-106 -95 -104 -181
q-1 -59 38 -113q67 -95 236 -215q102 -75 159 -121q98 -85 140 -196q17 -47 17 -98q0 -102 -69 -197q-58 -78 -166 -128q-157 -73 -413 -73q-255 -2 -493 70q-55 16 -102 43l-17 14l13 26z" />
    <glyph glyph-name="T" unicode="T" horiz-adv-x="1208" 
d="M1430 1424q-130 6 -245 6l-148 -3q-419 -14 -427 -133q1 -97 231 -150q44 -11 128 -21l19 -3l20 -9l-16 -25l-39 -38q-15 -15 -32 -14l-17 3l-70 19q-285 80 -283 222q-2 82 94 137q67 38 136 56q168 42 455 51l183 1q148 0 227 -7l49 -6l-50 -248q-181 -822 -421 -1077
q-217 -235 -500 -232q-43 -1 -92 6q-185 22 -287 85l-12 14l4 7l11 13l26 25q14 14 23 14l11 -4l28 -20q33 -26 140 -63q77 -26 152 -27q220 -1 372 161q106 113 208 360q139 337 237 801l18 92z" />
    <glyph glyph-name="U" unicode="U" horiz-adv-x="1284" 
d="M1351 647q-361 -700 -649 -694q-87 0 -140.5 54.5t-52.5 143.5q0 91 24.5 193.5t59.5 219.5l72 237l63 198l61 189l65 208q7 27 8 49q0 14 -8 27l-12 13l-9 3q-31 1 -71 -65q-67 -108 -89 -152l-112 -227l-14 -20l-7 -4l-19 14l-28 31q-13 14 -13 26q-1 11 13 34l38 71
q40 79 96 152q140 189 249 190q84 -3 82 -120q0 -99 -100 -412l-95 -280q-61 -174 -89 -269q-68 -223 -69 -330q0 -57 33 -89q37 -36 88 -35q119 0 227 118q76 81 155 203q315 487 524 1124q6 18 13 24q5 3 26 4h55q24 -1 25 -23l-3 -14l-101 -298l-136 -449
q-91 -306 -118 -413l-44 -176l-65 -254l-5 -15l-7 -6l-9 -1l-16 6l-59 25l-11 8q-5 5 -4 13l1 13q29 165 105 406l102 329l70 221z" />
    <glyph glyph-name="V" unicode="V" horiz-adv-x="1284" 
d="M504 1096l-7 18l4 19l25 51l65 127q47 92 108 154q52 57 109 58q43 -1 76 -48q26 -38 34 -86q9 -60 10 -134q0 -121 -12 -227l-41 -316l-34 -260q-16 -128 -18 -178l-4 -94q1 -173 76 -177q81 1 235 185q95 113 176 251q92 157 200 435q99 258 144 458l26 121q2 13 8 20
q5 7 17 12l71 33l23 5l4 -14l-4 -21l-73 -251q-96 -326 -285 -692q-218 -423 -472 -568q-43 -25 -82 -24q-62 -1 -101.5 47t-51.5 107.5t-11 143.5q-1 94 17 240l31 235l43 329q21 180 22 307q-1 78 -14 101l-8 8l-10 2q-40 -2 -121 -165q-42 -81 -53 -112l-62 -157l-11 -17
l-17 18z" />
    <glyph glyph-name="W" unicode="W" horiz-adv-x="1851" 
d="M1297 929q-63 -147 -135 -297q-86 -178 -164 -306q-154 -257 -280 -352q-28 -22 -52 -21q-60 0 -62 134q0 90 12 200q12 122 34 267l39 273l37 274q16 134 23 237l6 74l-2 40q-5 21 -21 21q-21 -2 -41 -44q-40 -75 -65 -144q-23 -60 -43 -135l-29 -115l-8 -34l-14 -22
l-16 22l-20 91l-4 27q1 40 75 194q97 210 179 210q77 0 96 -131q8 -59 9 -106q0 -93 -16 -225q-19 -162 -46 -346l-31 -209q-36 -232 -56 -398l-3 -40l3 -15l10 -7l14 4q11 7 20 16l55 67q86 111 153 223q75 123 176 337q87 183 141 315q78 187 117 319l47 157l7 21
q4 12 12 16l19 2h40l20 -4l2 -9v-5l-5 -31l-30 -207l-52 -329q-24 -151 -46 -337q-32 -247 -31 -382q3 -213 67 -216q57 1 190 143q75 81 151 199q176 271 314 645q60 161 94 299q19 78 30 148q5 28 12 38l29 17l45 23l20 5l9 -35l-3 -33q-128 -641 -558 -1222
q-70 -94 -141 -159q-57 -53 -122 -89q-52 -30 -93 -29q-81 -1 -121 113q-24 69 -23 174q0 196 30 420l34 234l28 196v0z" />
    <glyph glyph-name="X" unicode="X" horiz-adv-x="1171" 
d="M746 1471l-3 15q2 21 22 24l53 11l14 2l11 -2q11 -7 15 -22l154 -617v0l299 370l190 239l20 21q11 9 26 10l28 1h54q27 -2 28 -17l-6 -12l-13 -12q-77 -62 -256 -269q-117 -134 -354 -386v0l45 -171l83 -309q44 -171 77 -253l30 -89l2 -15l-2 -9q-5 -7 -20 -10l-62 -15
l-13 -3l-8 4l-10 12q-10 16 -15 39q-68 247 -133 508l-56 222v0q-406 -458 -620 -710q-18 -20 -27 -24q-9 -5 -34 -4h-63l-22 11l13 16l20 18q286 273 715 751v0z" />
    <glyph glyph-name="Y" unicode="Y" horiz-adv-x="1246" 
d="M1497 1002q-171 -312 -331 -551q-93 -139 -178 -240q-80 -97 -180 -174q-56 -44 -109 -68q-35 -17 -73 -16q-129 2 -125 149q1 155 96 467q53 178 158 492l95 290q20 62 20 94q0 12 -4 19l-8 8l-10 1q-14 -2 -27 -16l-44 -49q-66 -77 -116 -160q-61 -99 -104 -198
l-13 -28l-10 -12l-17 13l-30 49q-7 9 -6 16l5 16q44 94 107 181q59 83 127 158q72 80 124 80q83 0 85 -130q0 -39 -6 -83q-9 -69 -25 -126q-28 -103 -83 -275l-73 -242l-75 -262q-43 -152 -60 -233q-11 -49 -10 -98q1 -72 47 -71q203 3 713 857l118 204q62 112 99 205
l66 162q5 10 10 14q5 3 21 7l48 9h20l7 -5l3 -7l-2 -19l-87 -302l-79 -259l-75 -239q-78 -243 -122 -371q-68 -196 -159 -354q-150 -260 -415 -331q-92 -25 -198 -24q-59 -1 -120 5l-38 6l-16 9l5 19l19 46l7 11l6 3l16 -4q40 -19 89 -29q69 -16 135 -16q88 -1 153 30
q140 66 235 235q58 103 139 310q93 239 220 642l89 284z" />
    <glyph glyph-name="Z" unicode="Z" horiz-adv-x="1397" 
d="M493 103l247 10l212 5l249 -1l183 -5l73 -5l24 -10v-7l-7 -16l-9 -14l-38 -62q-11 -17 -28 -19l-23 1l-79 8q-134 9 -257 12h-231l-251 -4q-111 -3 -218 -11l-93 -6q-53 -2 -50 32q-2 59 197 247q69 66 174 151.5t225 177.5l286 210q236 170 344 256q153 121 299 258
l57 54v0l-74 20q-90 21 -230 32q-172 13 -335 13q-191 -2 -287 -19q-229 -41 -232 -137q-1 -81 208 -135q66 -18 118 -22l70 -7l21 -7l-9 -26l-36 -52q-15 -20 -27 -20l-16 1l-73 17q-313 89 -315 230q-2 75 89 153q59 51 163 80q128 36 364 37q110 0 241 -9t226 -23
q85 -13 163 -33.5t76 -57.5q-1 -33 -95 -126q-63 -65 -156 -146q-118 -105 -249 -206q-117 -92 -372 -276q-233 -169 -349 -261q-127 -100 -220 -189l-101 -99v0z" />
    <glyph glyph-name="bracketleft" unicode="[" horiz-adv-x="415" 
d="M677 1523h304l-15 -55h-188l-542 -1938h188l-15 -55h-304z" />
    <glyph glyph-name="backslash" unicode="\" horiz-adv-x="415" 
d="M426 1504l1 24q5 17 29 20q17 1 27 -16l4 -28l74 -1469l1 -13q-2 -39 -30 -37q-32 1 -31 29l-1 21z" />
    <glyph glyph-name="bracketright" unicode="]" horiz-adv-x="415" 
d="M51 -470h188l543 1938h-188l15 55h302l-573 -2048h-302z" />
    <glyph glyph-name="asciicircum" unicode="^" horiz-adv-x="1020" 
d="M832 1209q-125 -113 -290 -189l-69 -27v94l78 62q182 157 268 353l14 34h105l13 -33q85 -195 269 -354l78 -62v-94l-68 27q-61 26 -144 80q-94 60 -147 109q-19 16 -53 53v0z" />
    <glyph glyph-name="underscore" unicode="_" horiz-adv-x="1020" 
d="M1024 -417v-105h-1024v105h1024z" />
    <glyph glyph-name="grave" unicode="`" 
d="M842 603l12 -13l-5 -8l-17 2l-28 3l-21 5l-22 11l-201 145l-16 14l5 7h17h69q18 -1 27 -3q8 -3 19 -13z" />
    <glyph glyph-name="a" unicode="a" horiz-adv-x="680" 
d="M574 138l-58 -68q-79 -83 -154 -85q-43 -1 -74 34q-25 29 -26 78q-1 42 13 80q44 128 134 212q38 37 91 63q42 22 87 30l48 3l44 -6q16 -4 17 -17l-5 -15l-17 -33l-16 10q-36 19 -62 19q-67 -1 -129 -93q-51 -76 -76 -145l-17 -52q-7 -25 -7 -48q0 -52 46 -52
q49 0 108 71l48 62q28 38 63 98l66 114l26 50l9 15q6 7 23 7h36l11 -1l8 -4l4 -5q0 -14 -4 -23l-10 -26l-50 -139l-40 -116l-16 -53l-2 -16q0 -32 25 -34q39 2 89 55l25 25l14 12l11 6l8 -4l3 -10q-3 -11 -14 -23l-61 -64q-63 -66 -125 -65q-73 -3 -72 77q0 35 12 83l15 56z
" />
    <glyph glyph-name="b" unicode="b" horiz-adv-x="642" 
d="M469 337q121 149 206 148q59 0 97.5 -40.5t37.5 -101.5q0 -140 -140 -245q-146 -113 -271 -113q-101 2 -100 91q0 26 7 54l17 63l135 473l193 658l9 27q5 12 17 19l20 8l59 16l18 6q16 -5 16 -21l-5 -20l-12 -36l-159 -515l-145 -471v0zM379 65q-1 -37 37 -38
q52 0 128 66q51 45 93 114q30 47 52 102q16 38 16 64q0 32 -16 50.5t-42 19.5q-44 -1 -95 -64l-49 -65l-47 -68q-29 -42 -46 -76q-14 -26 -23 -58t-8 -47z" />
    <glyph glyph-name="c" unicode="c" horiz-adv-x="529" 
d="M709 384l-4 -14l-12 -7l-9 7l-27 29q-44 44 -83 44q-69 0 -132 -94q-47 -70 -69 -152q-12 -40 -11 -69q3 -77 67 -75q26 -1 64 16l59 28q42 21 80 47l14 6l11 -6l4 -10q-1 -7 -7 -13l-25 -23q-140 -115 -246 -113q-58 1 -92 39t-34 93q0 72 45 160q40 77 106 131
q87 75 190 77q34 0 70 -6q55 -9 55 -33l-3 -23z" />
    <glyph glyph-name="d" unicode="d" horiz-adv-x="680" 
d="M540 70q-74 -86 -156 -85q-130 2 -129 139q-2 126 119 248q111 113 252 113q30 -1 57 -6l23 -6l119 401l127 432l12 28q7 12 20 19l19 10l62 31l17 6q16 -3 18 -21l-1 -10l-19 -53l-43 -126l-75 -224l-77 -252l-81 -256l-65 -216l-36 -121q-7 -20 -6 -37q0 -28 27 -31
q19 -1 39 15l62 52l37 35l15 10l6 -3l6 -6l1 -6q-4 -30 -89 -104q-68 -61 -119 -61q-75 2 -74 93l2 39l6 48zM693 431l-23 6q-25 6 -48 6q-102 0 -183 -107.5t-79 -205.5q-3 -84 65 -84q39 0 86 47q29 27 55 63q59 78 103 200z" />
    <glyph glyph-name="e" unicode="e" horiz-adv-x="529" 
d="M360 86q13 -58 75 -59q67 1 164 77l62 55q9 8 18 9l9 -3q4 -4 4 -10l-4 -12q-65 -91 -186 -137q-29 -12 -55 -17t-51 -4q-141 1 -143 126q-1 119 112 244.5t238 129.5q43 0 75.5 -26.5t32.5 -71.5q1 -130 -247 -240l-106 -46zM359 143l51 23q169 80 193 188l3 33
q-1 44 -25 53l-16 3q-35 -1 -68 -41l-38 -55l-45 -77l-30 -64z" />
    <glyph glyph-name="f" unicode="f" horiz-adv-x="453" 
d="M319 232l-31 8l-12 8l12 14q46 35 71 60l19 22v0l53 180l82 282q34 111 80 236t87 209q34 71 76 142q35 60 74 104q44 52 92 51q58 0 61 -136q-1 -94 -14 -176q-17 -104 -63 -214q-50 -123 -120 -240q-67 -111 -152 -227l-123 -158v0l-38 -119v0l39 10q49 13 88 38l66 40
l15 9l9 4l10 -3q4 -4 4 -9q1 -28 -78 -65q-67 -35 -105 -46l-57 -15v0l-66 -233q-39 -137 -64 -210l-49 -147l-18 -57l-11 -28q-14 -28 -29 -33l-82 -34l-27 -9q-9 -2 -11 5l-3 12l5 17q11 22 60 160l62 174l66 204l53 166v0zM552 543v0l44 58q109 151 218 414
q118 280 128 450l-2 23l-9 18l-13 -6q-36 -24 -154 -321q-49 -122 -103 -290z" />
    <glyph glyph-name="g" unicode="g" horiz-adv-x="642" 
d="M637 219v0l-94 -113q-102 -123 -168 -121q-55 0 -87 38.5t-31 90.5q-2 81 61 179q55 85 137 134q92 55 209 58q125 1 123 -38l-4 -15l-8 -18l-20 9l-35 14q-21 5 -46 6q-89 0 -172 -74q-43 -38 -75 -86q-65 -96 -65 -176q-2 -54 40 -54q33 -1 63 22q48 35 87 85l63 85
q39 57 56.5 91.5t39.5 36.5l16 -2l24 -4l15 -4l6 -5l2 -6l-3 -15l-20 -72q-17 -63 -61 -188v0l64 51l16 11l5 1l12 -9l4 -10q-2 -10 -13 -19l-99 -84v0l-12 -31l-49 -132q-12 -34 -43 -99.5t-66 -118.5q-31 -50 -75 -86q-69 -60 -134 -61q-39 0 -64 25.5t-23 62.5
q0 87 101 196q77 84 189 173l55 42v0zM537 -70v0l-43 -34l-79 -70q-111 -107 -144 -173q-18 -33 -17 -71q2 -51 39 -50q40 -1 86 71l49 86l59 120l38 88z" />
    <glyph glyph-name="h" unicode="h" horiz-adv-x="680" 
d="M475 292q151 193 223 193q90 1 94 -116q-4 -50 -18 -97l-35 -85l-40 -86l-13 -25l-7 -20l2 -14q7 -17 30 -15q43 -1 135 91l31 31l11 7q12 0 13 -14q0 -11 -10 -22l-46 -47q-92 -88 -172 -88q-82 2 -84 83q0 44 33 126l55 134l22 49q7 18 8 35q-1 30 -29 31
q-16 1 -32 -11l-31 -24q-35 -33 -76 -86q-63 -80 -94 -130q-33 -54 -60 -112q-16 -37 -31 -60q-8 -14 -17 -17q-8 -4 -27 -3h-45q-15 0 -14 13l6 26l8 33l132 465l185 669l28 102l8 24q5 12 17 23l21 13l68 25q18 7 28 7l7 -5l3 -7l-9 -36l-344 -1150z" />
    <glyph glyph-name="i" unicode="i" horiz-adv-x="378" 
d="M472 480l21 5q15 -4 15 -19l-3 -15l-100 -305l-12 -42l-3 -23q3 -30 22 -28l8 1q11 5 24 16l48 46l37 41l20 24l11 8l12 -6l7 -11q0 -6 -7 -14q-30 -36 -64 -71q-41 -43 -76 -70q-40 -33 -80 -32q-67 0 -70 71q-1 32 11 73l28 96l63 205q4 14 13 23q9 8 24 13zM618 705
q-3 -73 -75 -75q-75 3 -77 75q3 73 77 77q71 -3 75 -77z" />
    <glyph glyph-name="j" unicode="j" horiz-adv-x="340" 
d="M377 354l11 45q7 28 16 38l26 15l66 33l22 8q5 -2 9 -5l3 -9q0 -10 -8 -33l-127 -378v0l63 57l20 13l12 -10l5 -9l-2 -7l-12 -13l-93 -81v0l-32 -105l-41 -120q-112 -307 -245 -303q-77 0 -75 70q0 76 80 188q44 64 95 115l83 85l23 24v0zM245 -108v0l-43 -44
q-38 -39 -61 -70l-51 -74q-54 -82 -54 -137q0 -14 6 -23l9 -8l15 -4q49 -3 88 95l28 79l26 75zM612 713q-3 -72 -77 -75q-73 2 -75 75q3 74 75 77q74 -4 77 -77z" />
    <glyph glyph-name="k" unicode="k" horiz-adv-x="642" 
d="M470 287q48 66 99 117q77 78 167 81q93 -2 93 -95q1 -116 -178 -207l-48 -23l21 -21q29 -28 65 -52l48 -33l9 -10l-11 -18l-28 -29q-13 -11 -23 -12q-24 0 -88 61l-71 68q-10 10 -10 19q0 6 7 13l12 8q35 19 76 53q36 29 61 59q52 59 53 114q1 38 -35 37q-54 0 -161 -116
q-67 -72 -117 -163q-28 -51 -40 -85l-10 -29q-6 -17 -13 -21q-5 -4 -21 -3h-44l-21 2l-6 8l6 26l359 1277l6 20q5 14 15 21l16 8l71 31l19 7l8 -13l-4 -18l-345 -1171z" />
    <glyph glyph-name="l" unicode="l" horiz-adv-x="415" 
d="M313 283q-9 -7 -14 -6q-17 -2 -15 19q-1 7 4 12l11 11l68 61v0l34 117q67 231 96 321q33 104 71 201q41 110 89 210q34 74 73 144q96 177 159 175q31 0 50 -39q10 -31 14 -65q-4 -171 -83 -364q-39 -95 -132 -250l-81 -129l-83 -117l-49 -70v0l-53 -160
q-33 -108 -57 -221l-6 -44q1 -14 5 -22l11 -10l14 -4q12 1 24 6l28 16l39 30l36 31l32 28l11 7q4 -1 8 -4l4 -10q0 -11 -10 -22l-46 -47l-57 -50q-70 -55 -121 -53q-82 -1 -83 86q-1 58 20 136l27 105v0zM549 600v0l30 42q59 84 113 182q61 110 114 236q99 234 106 383
l-2 17q-4 21 -21 20q-50 -7 -168 -325l-51 -153l-34 -109l-59 -196z" />
    <glyph glyph-name="m" unicode="m" horiz-adv-x="944" 
d="M732 218q46 79 79 125l57 75q57 67 102 67q38 -1 63.5 -33t25.5 -71q-1 -30 -7 -58l-27 -101q-26 -90 -37 -117q-8 -20 -8 -34q-1 -16 17 -18q14 0 35 15l49 38l36 33l20 21l12 7l11 -7l7 -10q2 -21 -70 -80q-63 -54 -99 -73q-22 -13 -50 -12q-71 1 -69 61q0 22 9 54
l13 49q33 126 59 200q13 38 14 67q-1 21 -21 25q-24 0 -66 -57l-61 -90l-72 -113l-57 -100l-45 -78q-9 -15 -16 -17l-20 -1h-61q-19 -2 -20 18l4 17l33 80l53 140l40 117q9 30 10 50q-1 33 -30 34q-30 1 -62 -45l-58 -83l-74 -118q-38 -65 -57 -103l-42 -86q-9 -13 -16 -18
q-6 -4 -19 -3h-50l-7 7l3 21l4 16l107 398l5 18q2 10 11 15l16 7l59 15l14 3l8 -4l3 -7l-5 -21l-79 -263l64 98l76 108q66 89 121 89q78 0 79 -91q-1 -69 -36 -180l-24 -74z" />
    <glyph glyph-name="n" unicode="n" horiz-adv-x="642" 
d="M469 283l72 100q74 100 137 102q38 -1 65 -28t26 -63q-1 -42 -16 -86l-31 -81l-50 -127l-5 -21q0 -26 24 -26q14 0 34 14l49 39l37 34l20 20l11 7l12 -6l5 -6l1 -5q1 -23 -94 -100q-82 -66 -119 -65q-77 1 -75 66q0 36 20 91l31 88l31 88l21 59q6 17 7 32q0 27 -28 32
q-29 -1 -62 -43l-49 -66l-82 -119q-36 -54 -68 -119q-23 -48 -42 -76q-7 -12 -16 -15l-19 -3h-50l-7 7l3 20l4 15l107 386l5 18q4 9 10 14l17 7l59 15l14 3l7 -4l3 -7l-4 -21l-79 -261z" />
    <glyph glyph-name="o" unicode="o" horiz-adv-x="566" 
d="M361 368q118 118 233 117q67 -1 106 -41q46 -46 45 -105q0 -94 -66 -190q-60 -88 -150 -134q-60 -31 -123 -30q-65 0 -111.5 40.5t-45.5 106.5q-1 123 112 236zM354 96q0 -20 8 -38l11 -17l15 -10q9 -5 21 -4q123 -1 209 240q22 62 22 107q0 64 -67 69q-77 0 -156 -141
q-64 -113 -63 -206z" />
    <glyph glyph-name="p" unicode="p" horiz-adv-x="642" 
d="M444 269q21 44 44 84.5t55 73.5q52 56 125 58q65 1 110 -48q41 -46 42 -113q-2 -126 -79 -228q-85 -113 -209 -111q-35 -1 -70 10q-57 14 -56 42q0 9 7 19l8 9l20 -10l37 -18q21 -10 36 -10q70 -1 133 113q47 82 63 171q5 27 5 55q0 75 -64 77q-84 -1 -167 -161l-58 -121
q-68 -154 -121 -326l-52 -167l-43 -126l-7 -19q-6 -10 -12 -14l-14 -5l-55 -14h-8l-10 4l-4 6l1 12l64 207l80 271l78 267l44 144q5 15 13 27l10 11l9 7l77 35l11 4q4 -1 8 -4l4 -10l-2 -14l-35 -100l-52 -165z" />
    <glyph glyph-name="q" unicode="q" horiz-adv-x="680" 
d="M540 75q-85 -90 -166 -90q-50 1 -84 36t-34 85q0 99 83 206q130 172 346 173q104 2 108 -34l-2 -10l-9 -8l-13 -3l-17 3l-22 5q-26 5 -48 5q-119 -1 -216 -110q-110 -124 -105 -220q1 -61 57 -60q84 -2 193 153l54 86l38 63l13 16q8 6 18 7h33l14 -1l7 -5l2 -8l-5 -15
l-27 -73l-51 -137l-33 -97v0l19 8q79 35 143 96l22 21q7 6 16 7l11 -10q0 -9 -6 -16l-27 -30q-36 -33 -70 -59l-59 -39l4 -38l5 -81q-1 -48 -8 -94q-10 -60 -32 -116q-78 -201 -201 -201q-31 -2 -56 19t-25 55q0 25 15 73l34 107q18 56 60 167l51 134l38 104v0zM661 7v0
l-15 -37l-45 -120l-48 -144l-25 -77l-8 -31l-5 -20q1 -18 21 -20q62 8 117 145q37 92 38 189q0 66 -20 102z" />
    <glyph glyph-name="r" unicode="r" horiz-adv-x="453" 
d="M426 256l56 96q77 132 137 133q57 -3 55 -107l-2 -45q-2 -23 -7 -34l-10 -12l-19 -15l-47 -29q-13 -9 -19 -8l-7 5l-1 4l1 6l7 20l14 40q8 23 9 40v12l-1 8l-5 9l-9 3l-10 -3q-43 -33 -120 -169q-52 -91 -74 -147l-20 -48l-5 -9q-6 -7 -12 -6h-18h-38l-17 2l-6 4l-2 7
l2 11l22 72l37 134l27 121l11 61q1 18 6 25q3 7 15 12l22 9l48 18l25 9l9 -9l-4 -15l-14 -37l-35 -107l-35 -116z" />
    <glyph glyph-name="s" unicode="s" horiz-adv-x="453" 
d="M335 247l-22 -21q-9 -10 -15 -10l-12 6q-5 4 -4 12l4 12l16 19l147 157l19 22l11 22l14 37q26 72 84 73q41 -2 40 -40l-3 -17q-7 -14 -19 -25l-23 -22l-32 -33l21 -39l21 -43q15 -36 25 -76.5t10 -75.5q0 -38 -14 -76q-48 -144 -225 -144q-53 -1 -91 18q-57 29 -56 68
l2 12q14 27 47 27q42 0 77 -38l29 -29q17 -17 43 -16q69 3 81 104l2 45q0 53 -9 106l-16 74l-10 39v0z" />
    <glyph glyph-name="t" unicode="t" horiz-adv-x="378" 
d="M499 906q6 20 14 29q7 6 24 11l37 9l25 3q12 -2 19 -8l4 -10q0 -11 -12 -49l-86 -287h116l18 -7l-2 -17l-6 -15q-5 -7 -10 -9l-18 -2h-110l-98 -306l-31 -109q-12 -36 -11 -59q1 -28 24 -27q34 -1 87 46l58 53q13 12 22 12l6 -2l7 -6l4 -10v-7l-6 -12q-14 -20 -37 -39
l-56 -49q-65 -54 -127 -54q-84 2 -82 87q0 39 14 93l21 78l96 311h-57l-15 1l-5 8l5 16l7 16q2 4 8 7l12 2h57z" />
    <glyph glyph-name="u" unicode="u" horiz-adv-x="680" 
d="M628 254l-42 -68q-123 -203 -213 -201q-38 -1 -59 26t-20 59q-1 40 16 105l31 125l39 127l10 27q5 9 24 14l47 14l16 3q5 0 9 -4l3 -8l-2 -11l-13 -39l-34 -107l-59 -195q-12 -37 -11 -63q0 -24 28 -29l16 3q20 9 43 35l51 62q33 46 70 104l80 143l35 66l10 16l12 9l17 3
h45l17 -3l7 -6l2 -10l-3 -15l-9 -30l-30 -89l-41 -134l-18 -64l-4 -28q0 -39 29 -38q13 1 30 12l48 39l38 33q11 10 19 11l7 -3l7 -11q-1 -8 -11 -19l-39 -38l-51 -45q-60 -48 -99 -47q-68 -1 -69 83q-1 32 12 81l23 86l24 79z" />
    <glyph glyph-name="v" unicode="v" horiz-adv-x="529" 
d="M429 478l28 7l9 -5l3 -10l-3 -16l-9 -27l-31 -79l-35 -107l-28 -95l-7 -35l-3 -36q1 -43 37 -48q100 5 214 276l37 87l21 56q3 15 9 21t18 9l42 7l10 2q18 -2 17 -20l-2 -13l-7 -20q-32 -82 -88 -169q-36 -58 -76 -111q-129 -170 -218 -167q-93 1 -96 98q0 39 11 91
l29 120l39 125l8 21l9 14q6 5 18 10z" />
    <glyph glyph-name="w" unicode="w" 
d="M548 164q-116 -178 -192 -179q-83 1 -85 98q-1 30 11 78l26 108q19 70 48 160l7 19q3 10 10 15q6 5 20 8l56 12l9 2l7 -4l3 -11l-3 -16l-40 -113l-25 -85l-30 -108q-15 -52 -14 -78q0 -20 6 -30l10 -10l12 -3q29 2 65 51q28 36 55 80q32 51 58 104l40 85l32 77l11 28
q6 11 13 17q6 3 22 7l48 8l7 1q18 0 19 -24l-5 -15l-20 -69l-39 -133l-24 -91q-10 -43 -10 -69q1 -54 42 -57q66 1 144 146q52 98 71 200l15 73q2 12 10 21q5 7 17 9l42 7l10 2q18 -2 17 -21l-2 -12l-6 -22q-22 -83 -76 -187q-135 -260 -270 -258q-92 2 -92 138l4 65l7 44v0
z" />
    <glyph glyph-name="x" unicode="x" horiz-adv-x="453" 
d="M573 26l2 -19l-5 -5l-9 -2h-18h-42l-11 1q-14 1 -19 7q-8 6 -11 23l-32 160v0l-165 -174l-17 -15l-19 -2h-23l-15 2l-9 14l13 15l222 206v0l-55 218l-2 14l3 7l6 3l20 2l47 4h15q11 -3 17 -11l5 -13l30 -126v0l104 136l9 7l13 3l28 4h11l12 -10q0 -8 -5 -15l-7 -9
l-156 -169v0z" />
    <glyph glyph-name="y" unicode="y" horiz-adv-x="604" 
d="M645 308v0l-51 -82l-42 -66q-114 -174 -200 -173q-40 -1 -61 32.5t-19 71.5q-1 34 10 78l24 94l31 109l19 62q3 12 10 19q6 8 21 13l50 17l15 2l9 -4l5 -8l-3 -23l-15 -47l-66 -205l-24 -80q-10 -36 -10 -56q0 -28 32 -33q29 -2 60 36l54 70q40 58 67 102l58 99l45 81
l21 39q6 11 16 15l25 6l24 5l20 3l11 -4l4 -8l-9 -35l-104 -369v0l65 59l14 11l6 1l12 -9l5 -10l-2 -5l-13 -14l-95 -87v0l-36 -99l-41 -121q-29 -84 -71 -160q-79 -148 -177 -145q-72 1 -73 73q0 74 80 185q37 52 93 113l83 87l25 25v0zM515 -111v0l-40 -41l-57 -63
q-110 -137 -111 -218q0 -14 6 -23l9 -8l15 -4q51 -2 90 95l28 80l26 76z" />
    <glyph glyph-name="z" unicode="z" horiz-adv-x="453" 
d="M411 90l106 3l76 4l15 -1l10 -6l3 -9l-8 -20l-15 -33l-7 -13q-6 -6 -19 -8l-45 -5l-120 -2l-135 7q-19 0 -28 6l-8 8l-2 9q0 12 12 23l25 25l53 51l56 56l209 197v0l-63 -2l-87 -4l-49 -3h-25l-9 4l-4 6q-1 11 6 23l22 41q6 11 17 16q11 4 53 5l105 2l90 -3l44 -4l15 -5
q6 -6 7 -14q0 -10 -5 -17l-16 -19l-90 -87l-246 -231v0h57z" />
    <glyph glyph-name="braceleft" unicode="{" horiz-adv-x="906" 
d="M777 -470q-111 21 -184 80q-94 76 -94 173q0 128 94 307q75 144 76 257q-2 69 -93 121l-76 42l16 50q59 15 104 33q136 53 167 227q16 88 21 191q6 144 27 216q22 77 94 150q64 65 150 106q60 29 120 43q50 12 124 24l-8 -50l-99 -30q-71 -24 -123 -67q-73 -59 -101 -129
q-44 -113 -54 -284t-51 -256q-52 -104 -243 -171l-86 -29v0l76 -38l68 -38q95 -60 97 -146q0 -106 -88 -265q-81 -148 -81 -261q0 -130 150 -192l75 -27l-1 -50z" />
    <glyph glyph-name="bar" unicode="|" horiz-adv-x="1020" 
d="M803 1536v-2048h-105v2048h105z" />
    <glyph glyph-name="braceright" unicode="}" horiz-adv-x="906" 
d="M695 1537q109 -22 183 -82q95 -75 96 -171q-1 -127 -95 -305q-76 -144 -76 -256q1 -68 93 -120l76 -43l-16 -50q-60 -17 -103 -34q-137 -54 -168 -226q-17 -90 -21 -194q-7 -142 -27 -216q-22 -81 -94 -151q-65 -65 -150 -105q-61 -30 -120 -43q-51 -13 -124 -24l8 50
l99 30q170 60 224 196q45 114 53.5 286t51.5 257q27 56 98 101q63 41 145 70l87 29v0l-77 39l-68 38q-97 61 -97 145q-2 106 88 264q81 147 82 259q-1 65 -48 119q-43 49 -103 73l-75 27l1 50z" />
    <glyph glyph-name="asciitilde" unicode="~" horiz-adv-x="2039" 
d="M1904 655q-21 -46 -40 -77q-98 -168 -285 -168q-71 0 -166 22l-161 40l-144 40q-116 32 -183 33q-106 1 -228 -96l-33 -28l-31 33l48 69q39 56 84 91q94 79 218 81q92 -1 220 -37l135 -39q68 -20 146 -38q89 -22 146 -21q107 -3 202 90l38 41z" />
    <glyph glyph-name="nonbreakingspace" unicode="&#xa0;" horiz-adv-x="415" 
 />
    <glyph glyph-name="exclamdown" unicode="&#xa1;" horiz-adv-x="378" 
d="M147 682q4 77 82 83q77 -6 83 -83q-6 -76 -83 -82q-78 6 -82 82zM-79 -717q-7 -25 -12 -33q-8 -11 -35 -21l-61 -23l-19 -4q-20 -1 -23 30l3 17l365 1136l10 12l13 -2l17 -5l7 -4l4 -7l-1 -18z" />
    <glyph glyph-name="cent" unicode="&#xa2;" 
d="M602 246q-134 14 -133 141q1 103 74 212q38 58 85 98t105 54l37 8l32 96l10 22q5 9 21 8q10 -1 17 -6l6 -15l-4 -12l-29 -88l19 -1q39 -4 69 -16l13 -9l5 -9q0 -13 -6 -32l-11 -36l-15 -19l-15 11q-30 29 -56 42l-23 8l-124 -377l33 14q38 18 89 52l47 36q10 7 17 9
q19 1 18 -17q-1 -14 -14 -27l-52 -48q-67 -57 -133 -82l-30 -10l-60 -182l-7 -16l-18 -4q-16 0 -21 5l-5 9l5 20l54 161v0zM627 326l125 377l-28 -14q-66 -42 -101 -139q-34 -83 -35 -156q0 -43 25 -62z" />
    <glyph glyph-name="sterling" unicode="&#xa3;" 
d="M478 429h-16l-5 8q-1 7 5 14l16 22q9 13 16 16q6 3 33 3h152l23 88q24 80 73 158q39 65 91 120q35 39 77 66q34 23 67 23q92 -3 92 -126q0 -33 -5 -55q-11 -51 -33 -108l-10 -19q-6 -5 -16 -8l-47 -10l-16 -2l-8 5l-3 9l3 13l33 65q31 61 49 127q6 22 6 42q-2 20 -17 29
l-14 2q-27 -3 -55 -27q-35 -30 -60 -63q-32 -41 -52 -91q-26 -59 -39 -123l-21 -115h128l21 -11l-6 -13l-15 -26q-6 -8 -12 -11l-16 -2h-109l-20 -74q-17 -56 -42.5 -101.5t-70.5 -96.5l-17 -19v0l56 -23q56 -23 87 -29l94 -19l18 -7q3 -3 5 -8l-8 -16l-31 -38
q-7 -8 -14 -11l-11 -2l-21 3l-61 17q-40 14 -93 38l-74 36v0q-72 -43 -131 -67q-63 -25 -129 -27q-136 2 -138 99q2 59 61 98q53 34 116 33q49 0 97 -13l99 -31v0l12 15q35 44 57 105q16 43 28 93l10 45h-189zM510 116v0l-74 27q-47 14 -90 15q-109 -1 -112 -73
q6 -62 84 -64q53 2 99 28q43 26 93 67v0z" />
    <glyph glyph-name="currency" unicode="&#xa4;" 
d="M368 818l106 -107v0l35 26q34 22 84 36t99 14t97.5 -13.5t84.5 -36.5l36 -26v0l106 107l50 -50l-107 -106v0l18 -26q55 -87 56 -190q0 -60 -17 -111q-15 -43 -41 -83l-16 -23v0l106 -106l-48 -49l-107 107v0l-31 -21q-86 -55 -187 -56q-110 1 -188 56l-30 21v0l-107 -107
l-49 49l106 106v0l-16 23q-57 83 -58 196q0 101 56 188l18 26v0l-106 106zM422 446q0 -114 79 -192.5t191 -77.5q110 -1 189.5 78.5t79.5 191.5q0 110 -79 189.5t-189 79.5q-109 0 -190 -78.5t-81 -190.5z" />
    <glyph glyph-name="yen" unicode="&#xa5;" 
d="M491 -119h-24l-11 9l5 13l18 23q8 12 17 15q9 4 37 4h168v0l48 88q52 99 103 212l90 213l94 229l-146 -203l-103 -135q-351 -441 -513 -440q-37 -2 -60 26t-22 65q0 54 30 141l43 121q23 64 83 201l89 206l86 199q15 38 16 61q-1 23 -18 23q-28 1 -94 -62l-53 -56
l-12 -13l-11 -6q-6 -1 -13 6l-23 17l-5 5l-1 6l5 11l16 16l71 62q32 25 68 40q23 10 47 10q83 -1 82 -105q0 -56 -17 -105q-20 -57 -54 -136l-80 -192l-105 -264l-41 -107q-11 -28 -10 -48q-1 -31 31 -32q83 -2 339 291l114 133q100 119 172 219.5t119 184.5l50 89l13 16
q8 6 23 8l50 7h14l8 -7l3 -12l-5 -21l-17 -44l-54 -143l-120 -295l-63 -153q-72 -177 -110 -250l-42 -77v0h197q21 0 28 -3l5 -5l2 -8l-4 -11l-14 -24q-5 -11 -19 -12l-46 -1h-188v0l-31 -42l-31 -37v0h210l32 -2l6 -5l3 -7l-4 -14l-10 -18q-9 -15 -21 -17l-41 -1h-226v0
l-81 -57q-88 -60 -190 -90q-71 -22 -165 -33q-66 -9 -143 -8l-61 4l-48 8l-13 5l-5 4l1 16l16 38l6 8l8 3q10 0 24 -6l34 -12l50 -11q37 -6 91 -6q115 -1 203 29q65 20 123 69l45 39v0h-169h-16l-10 10l4 8l22 24q11 11 22 18q7 4 18 4h174v0l33 37l31 42v0h-177z" />
    <glyph glyph-name="brokenbar" unicode="&#xa6;" horiz-adv-x="1020" 
d="M698 -460v919h105v-919h-105zM803 1483v-919h-105v919h105z" />
    <glyph glyph-name="section" unicode="&#xa7;" 
d="M655 644q-15 54 -15 86q0 94 87 166q79 65 180 65q44 0 108 -12l28 -8l9 -6l3 -6l-1 -12l-13 -58l-6 -11l-17 3l-67 30q-37 14 -85 16q-67 -1 -107 -37q-51 -44 -51 -99q1 -48 61 -64l57 -14q52 -12 82 -26q71 -38 71 -133q1 -87 -66 -147q-36 -33 -82 -58l-58 -30
q14 -54 15 -86q-3 -110 -112 -180q-41 -28 -82.5 -40t-92.5 -11q-121 0 -202 38l-14 8l-4 6v7l5 15l21 43l9 13l8 3q7 0 21 -9q37 -26 84 -39q68 -22 116 -21q58 -1 114 34q60 38 61 100q0 47 -51 71q-29 12 -65 21q-47 11 -79 25q-72 30 -73 117q2 136 154 217l49 23v0z
M705 587v0l-49 -12l-56 -18q-80 -34 -80 -99q1 -42 64 -64l59 -17l52 -15l52 -26v0l44 17q32 13 59 33q60 42 61 97q0 52 -53 66l-70 15q-29 4 -83 23v0z" />
    <glyph glyph-name="dieresis" unicode="&#xa8;" 
d="M684.5 697.5q20.5 -20.5 20.5 -47.5q1 -29 -21 -49t-47 -19q-25 -2 -47.5 20.5t-20.5 47.5q-1 25 19 47t49 21q27 0 47.5 -20.5zM885.5 697.5q20.5 -20.5 20.5 -47.5q1 -29 -21 -49t-47 -19q-25 -2 -47.5 20.5t-20.5 47.5q-1 25 19 47t49 21q27 0 47.5 -20.5z" />
    <glyph glyph-name="copyright" unicode="&#xa9;" horiz-adv-x="1020" 
d="M755 1394q140 139 339 139q129 0 241.5 -64.5t176.5 -175.5t64 -240q0 -130 -64.5 -242.5t-175.5 -176.5t-240 -63q-129 -1 -243 63.5t-174 176.5q-65 116 -65 242q1 202 141 341zM687 1052q1 -172 120 -290t288 -118q168 0 287.5 120t120.5 289q-1 109 -54.5 203
t-149.5 148.5t-204 55.5q-169 -1 -288 -119t-120 -289zM1316 971l-4 -37q-27 -172 -203 -170q-169 -1 -234 164q-25 58 -24 131q-1 62 17.5 114.5t55.5 96.5q75 93 174 94q49 -1 110 -28q13 -7 22 -6q11 0 23 14l14 18h40v-217l-40 -7l-22 62q-13 31 -29 58q-39 58 -100 59
q-137 -1 -137 -259q-2 -250 152 -247q107 -2 139 127l6 33h40z" />
    <glyph glyph-name="ordfeminine" unicode="&#xaa;" horiz-adv-x="642" 
d="M645 609l-53 -64q-73 -81 -144 -80q-45 -1 -79.5 27.5t-33.5 78.5q0 100 83 213q88 123 217 153q40 10 80 10q19 0 34 -8l8 -7l3 -7q0 -10 -6 -23l-8 -20l-25 11q-40 16 -61 17q-36 1 -66 -27q-35 -30 -65 -76q-27 -41 -41 -68q-18 -33 -32 -75q-20 -56 -20 -93
q1 -47 45 -49q50 -1 131 105l55 75q70 104 121 210q7 20 30 20h33q21 -2 23 -20q0 -13 -6 -28l-54 -154l-35 -104q-19 -51 -19 -75q-1 -31 26 -29q26 -2 64 30l36 33l24 25q10 10 17 11l9 -5l4 -9q-2 -8 -7 -17l-33 -39q-23 -25 -46 -42q-56 -46 -111 -44q-78 -1 -77 78
q0 27 7 54l20 71z" />
    <glyph glyph-name="guillemotleft" unicode="&#xab;" horiz-adv-x="566" 
d="M361 357q53 60 119 103q110 72 141 72q9 -1 16 -7l3 -8q0 -11 -18 -23l-31 -22q-144 -110 -191 -243q-28 -75 -27 -141q1 -75 57 -110l19 -11l13 -10l3 -6l-6 -12q-10 -7 -23 -7q-67 -2 -121 57q-46 51 -45 126q2 144 91 242zM583 357q53 60 119 103q110 72 141 72
q9 -1 16 -7l3 -8q0 -11 -18 -23l-31 -22q-144 -110 -191 -243q-28 -75 -27 -141q1 -75 57 -110l19 -11l13 -10l3 -6l-6 -12q-10 -7 -23 -7q-67 -2 -121 57q-46 51 -45 126q2 144 91 242z" />
    <glyph glyph-name="logicalnot" unicode="&#xac;" horiz-adv-x="1058" 
d="M545 377l-21 3l-6 5l-3 9v31l10 11l20 3h502l22 -1l6 -4l2 -9v-264v-21l-14 -14h-33l-8 3l-5 8l-2 24v216h-470z" />
    <glyph glyph-name="sfthyphen" unicode="&#xad;" horiz-adv-x="415" 
d="M254 262l4 10l5 5q5 3 21 3h288q15 0 21 -4l4 -14l-9 -37q-4 -13 -10 -18t-21 -4h-291q-20 -1 -21 12l1 10z" />
    <glyph glyph-name="registered" unicode="&#xae;" horiz-adv-x="1020" 
d="M755 1394q140 139 339 139q129 0 241.5 -64.5t176.5 -175.5t64 -240q0 -130 -64.5 -242.5t-175.5 -176.5t-240 -63q-129 -1 -243 63.5t-174 176.5q-65 116 -65 242q1 202 141 341zM687 1052q1 -172 120 -290t288 -118q168 0 287.5 120t120.5 289q-1 109 -54.5 203
t-149.5 148.5t-204 55.5q-169 -1 -288 -119t-120 -289zM880 830q59 7 58 83v311q1 64 -49 72l-40 5v40h255q58 0 109 -8q117 -16 117 -131q1 -94 -106 -129l-37 -9v0l15 -9q36 -24 60 -77q8 -19 16 -43l10 -34q4 -17 12 -26q7 -10 21 -10q23 1 30 34l3 24l1 13h40
q0 -13 -1 -21q-8 -129 -110 -128q-34 0 -58 17q-37 24 -60 122q-6 27 -15 62t-23 50q-17 16 -68 17h-15v-138q0 -45 5 -59q9 -22 49 -27l35 -4v-40h-285v40zM1045 1095h45q53 0 78 17q38 23 38 89q-3 100 -88 100q-65 1 -71 -45l-2 -37v-124z" />
    <glyph glyph-name="glyph113" unicode="&#xaf;" horiz-adv-x="1020" 
d="M1024 1631v-105h-1024v105h1024z" />
    <glyph glyph-name="degree" unicode="&#xb0;" 
d="M910 853q25 -44 25 -92q1 -76 -55 -132t-131 -55q-76 -2 -132.5 54.5t-54.5 132.5q-1 48 25 92q51 94 162 94q109 0 161 -94zM749 882q-52 0 -87.5 -35.5t-34.5 -86.5q-1 -51 34.5 -86.5t87.5 -34.5q50 -1 85.5 34.5t35.5 86.5t-35 86t-86 36z" />
    <glyph glyph-name="plusminus" unicode="&#xb1;" horiz-adv-x="1058" 
d="M1021 -17l-4 -10l-9 -6l-17 -1h-504l-21 3l-6 5l-3 9v32l10 10l20 3h504l22 -1l8 -12v-32zM487 280l-21 2l-6 5l-3 9v33l10 11l20 2h221v193l3 20l6 8l6 2h32l11 -8q4 -8 4 -22v-193h221l22 -1l8 -12v-33q0 -17 -13 -16h-17h-221v-188l-2 -26l-5 -6l-8 -3h-31l-13 6
q-4 5 -3 21v196h-221z" />
    <glyph glyph-name="twosuperior" unicode="&#xb2;" horiz-adv-x="491" 
d="M701 521h20l10 -6l3 -7l-6 -19l-11 -23q-6 -13 -15 -17q-8 -5 -21 -4h-268q-25 1 -27 12q2 11 15 21l62 47l88 74q77 70 114 146q20 38 19 77q1 72 -77 75q-65 -3 -92 -56l-29 -65l-5 -11q-5 -7 -10 -6l-12 3l-25 11l-12 7l-3 5v6l9 22q65 128 186 127q36 0 69 -13
q88 -34 90 -126q-2 -83 -79 -158q-39 -39 -88 -74l-68 -48v0h163z" />
    <glyph glyph-name="threesuperior" unicode="&#xb3;" horiz-adv-x="491" 
d="M372 542l13 15l12 -8l12 -13q52 -59 118 -59q53 0 91 37.5t39 91.5q1 78 -69 81l-23 -2l-18 -1l-10 4l-4 7v10l6 12q8 8 17 13l41 14q102 31 105 103q-3 49 -52 52q-66 -3 -123 -65l-23 -25q-11 -11 -17 -11l-13 5l-21 14l-8 8l-2 7l2 6l11 13q90 91 193 91q56 -2 93 -27
q48 -32 49 -80q0 -63 -97 -105l-40 -17v0l35 -23q57 -39 57 -97q-2 -76 -74 -122q-58 -39 -141 -37q-90 0 -156 35l-12 7l-12 11l3 13z" />
    <glyph glyph-name="acute" unicode="&#xb4;" 
d="M842 753q10 10 19 13q8 2 27 3h69h17l5 -7l-16 -14l-201 -145l-22 -11l-20 -5l-29 -3l-17 -2l-4 8l11 13z" />
    <glyph glyph-name="mu" unicode="&#xb5;" horiz-adv-x="1133" 
d="M418 -320l-8 -43q-19 -73 -88 -72q-72 2 -70 72q0 16 4 39l8 43l235 1121h171l-110 -531q-16 -78 -16 -122q3 -108 96 -109q71 -2 137 78q40 46 67 108q21 48 36 98l19 84l81 394h166l-105 -503l-11 -65q-8 -44 -7 -71q1 -41 13 -65q20 -42 49 -40q58 1 117 137l15 35
l62 -26l-7 -20q-29 -83 -52 -133q-54 -119 -161 -120q-64 -2 -101 72q-26 53 -26 127q0 29 4 75q-36 -64 -68 -111q-106 -161 -241 -163q-105 0 -154 100z" />
    <glyph glyph-name="paragraph" unicode="&#xb6;" 
d="M673 683l-28 15q-79 52 -122 173q-36 102 -35 212q0 183 90.5 310.5t285.5 132.5h89v-70h-70v-1782h-70v1782h-70v-1782h-70v1009z" />
    <glyph glyph-name="periodcentered" unicode="&#xb7;" horiz-adv-x="415" 
d="M568 445q-5 -78 -83 -83q-78 5 -83 83q5 78 83 83q78 -5 83 -83z" />
    <glyph glyph-name="periodcentered" unicode="&#x2219;" horiz-adv-x="415" 
d="M568 445q-5 -78 -83 -83q-78 5 -83 83q5 78 83 83q78 -5 83 -83z" />
    <glyph glyph-name="cedilla" unicode="&#xb8;" 
d="M492 -200q-42 8 -40 46q-1 29 24.5 50.5t56.5 21.5q60 -1 60 -59q-1 -66 -68 -120q-41 -34 -90 -60q-12 -6 -25 -6l-11 12q1 5 7 11l12 8q49 28 87 78l9 15z" />
    <glyph glyph-name="onesuperior" unicode="&#xb9;" horiz-adv-x="491" 
d="M554 785q-9 -7 -14 -6l-9 5l-10 9l-5 10l8 10l75 61l71 61l13 9l12 -1l19 -3l8 -5l3 -8l-3 -13l-139 -446q-6 -17 -14 -22q-6 -3 -21 -5l-38 -4l-13 -1l-11 9l5 18l135 372z" />
    <glyph glyph-name="ordmasculine" unicode="&#xba;" horiz-adv-x="642" 
d="M417 701q18 53 54.5 102.5t83.5 82.5q42 30 92 47q41 14 79 14q63 -2 112.5 -41.5t50.5 -104.5q1 -115 -98 -230q-89 -103 -220 -106q-173 -3 -170 146q-2 37 16 90zM502 572q0 -34 20 -51q26 -21 52 -19q79 0 151 132q60 110 63 200q1 29 -17.5 53t-46.5 23
q-82 -1 -150 -123l-29 -57q-22 -47 -33 -90t-10 -68z" />
    <glyph glyph-name="guillemotright" unicode="&#xbb;" horiz-adv-x="566" 
d="M287 -13q-92 -56 -114 -55q-10 0 -16 7l-3 8q-1 10 18 23l31 22q219 162 218 382q-2 77 -57 112l-19 11l-13 10l-3 6l6 12q9 6 23 7q67 1 120 -59q47 -53 46 -126q3 -217 -237 -360zM509 -13q-92 -56 -114 -55q-10 0 -16 7l-3 8q-1 10 18 23l31 22q81 60 127 122
q39 52 64 121q27 74 27 141q-2 74 -57 110l-19 11l-13 10l-3 6l6 12q9 6 23 7q67 1 120 -59q47 -53 46 -126q3 -217 -237 -360z" />
    <glyph glyph-name="onequarter" unicode="&#xbc;" horiz-adv-x="1058" 
d="M1046 166l72 225l9 23q5 11 15 16l14 7l37 18l16 7l10 -7l-1 -11l-85 -278h64l10 -3l5 -6l-2 -14l-13 -37q-3 -11 -9 -13l-13 -3h-66l-22 -69q-5 -14 -12 -21q-8 -7 -22 -13l-44 -18l-19 -4l-7 6l4 13l38 106h-168l-34 1l-11 6q-4 4 -4 10q0 9 11 28l28 46l187 302
q6 9 14 15l21 10l23 9l10 3q5 0 8 -4l2 -9l-7 -15l-220 -326v0h161zM1009 963q13 25 32 25q8 0 15 -4l10 -9l3 -8q-1 -19 -14 -44l-528 -934q-13 -21 -36 -22l-14 4q-15 6 -14 30l8 20zM461 785q-9 -7 -14 -6l-10 5l-9 9l-5 10l8 10l75 61q51 39 71 61l12 9l12 -1l19 -3
l7 -4l4 -9l-2 -13l-143 -446q-6 -17 -14 -22l-21 -5l-37 -4l-13 -1l-12 9l6 18l138 372z" />
    <glyph glyph-name="onehalf" unicode="&#xbd;" horiz-adv-x="1058" 
d="M1007 963q13 25 32 25q8 0 15 -4l10 -9l3 -8q-1 -19 -14 -44l-528 -934q-13 -21 -36 -22l-14 4q-15 6 -14 30l8 20zM1175 76h20l10 -6l3 -7l-6 -19l-11 -23q-7 -15 -15 -18q-6 -4 -21 -3h-258l-27 2l-12 13l3 6l14 12q28 17 62 46l87 75q41 36 68 69.5t47 73.5t19 79
q0 75 -78 77q-62 -2 -88 -57l-30 -64l-7 -11q-5 -5 -10 -6l-13 3l-24 10l-16 12l10 29q68 130 188 127q60 0 109 -39.5t48 -100.5q-2 -81 -79 -159q-40 -41 -88 -74l-70 -47v0h165zM460 785q-9 -7 -14 -6l-10 5l-9 9l-5 10l8 10l75 61q51 39 71 61l12 9l12 -1l19 -3l7 -4
l4 -9l-2 -13l-139 -446q-6 -17 -14 -22q-6 -3 -21 -5l-38 -4l-13 -1l-12 9l6 18l135 372z" />
    <glyph glyph-name="threequarters" unicode="&#xbe;" horiz-adv-x="1058" 
d="M1096 166l71 225l10 23q6 9 15 16l13 7l37 18l16 7l10 -7l-1 -11l-85 -278h64l10 -3l5 -6l-1 -14l-14 -37q-5 -10 -9 -13l-13 -3h-66l-22 -69q-5 -15 -11 -21q-7 -8 -22 -13l-45 -18l-19 -4l-6 6l3 13l38 106h-168l-34 1l-11 6q-4 4 -4 10q0 8 12 28l28 46l186 302
q6 9 14 15l21 10l24 9l9 3l10 -13l-7 -15l-220 -326v0h162zM1058 963q13 25 33 25q27 1 27 -26q0 -16 -13 -39l-529 -934q-13 -21 -36 -22q-18 -1 -25 15l-2 19l7 20zM325 544l13 15l13 -8l12 -13q54 -59 116 -59q54 0 91.5 38.5t37.5 91.5q-1 78 -68 80l-22 -2l-18 -1
l-10 3l-3 6v11l5 12q6 10 17 14l40 14q30 8 55 27q49 31 49 76q-2 54 -55 52q-52 0 -122 -65l-25 -25q-11 -11 -17 -11l-13 5l-21 14l-8 8l-2 7l2 5l12 14q44 44 100 70q44 21 95 21q56 -2 93 -25q49 -32 50 -80q-2 -66 -97 -107l-40 -17v0l35 -23q56 -37 57 -96
q2 -112 -124 -147q-44 -14 -89 -13q-87 -1 -156 35l-12 7l-11 11l2 13z" />
    <glyph glyph-name="questiondown" unicode="&#xbf;" horiz-adv-x="604" 
d="M-532 592q6 77 84 83q77 -6 83 -83q-6 -78 -83 -84q-78 6 -84 84zM-496 -366l17 -30q1 -19 -17 -45q-52 -80 -122 -147q-109 -107 -213 -108q-46 0 -89 22q-109 54 -110 177q0 134 110 268q32 37 117 126q212 217 292 407q12 26 22 42q8 10 15 11l8 -1l7 -7l3 -9l-3 -14
l-16 -49l-32 -93q-56 -149 -129 -256q-53 -78 -182 -223q-66 -74 -113 -137q-44 -58 -44 -110q-1 -35 31 -67t69 -32q80 0 183 120q49 57 71 93l61 100l15 19l8 3l20 -22z" />
    <glyph glyph-name="Agrave" unicode="&#xc0;" horiz-adv-x="1813" 
d="M1310 351q-147 -163 -320 -269q-210 -127 -544 -129q-136 -1 -237 47l-13 9l-4 8l1 5l4 8l34 41l13 9l13 2q9 -3 24 -10q116 -70 283 -69q113 -1 218 33q119 38 213 107q133 98 257 241q114 130 240 307q88 124 201 296l160 244l147 213q43 62 89 98q15 12 28 12
q54 0 56 -113q0 -68 -15 -150q-25 -135 -80 -321l-95 -308l-29 -91l-29 -93h26l57 4l12 -4l6 -8l-1 -9l-5 -7q-7 -5 -29 -6l-47 -4h-28l-155 -444h-74l-10 28q-35 88 -98 199q-63 110 -115 175l-54 64v0zM1473 458l44 -57q35 -49 77 -112q46 -71 69 -121l33 -80l112 353h-85
q-84 2 -250 17v0zM1439 509v0l30 -6q104 -19 241 -21h109l147 477l65 221q40 137 59 243l1 21l-6 17l-28 -25q-68 -95 -126 -187l-218 -339q-47 -74 -179 -264zM2116 1630l-30 3l-22 2q-6 2 -18 17l-206 244q-9 11 -11 16l3 9l22 1h72q21 0 30 -4q8 -4 18 -19l157 -247
l9 -18l-6 -6z" />
    <glyph glyph-name="Aacute" unicode="&#xc1;" horiz-adv-x="1813" 
d="M1310 351q-147 -163 -320 -269q-210 -127 -544 -129q-136 -1 -237 47l-13 9l-4 8l1 5l4 8l34 41l13 9l13 2q9 -3 24 -10q116 -70 283 -69q113 -1 218 33q119 38 213 107q133 98 257 241q114 130 240 307q88 124 201 296l160 244l147 213q43 62 89 98q15 12 28 12
q54 0 56 -113q0 -68 -15 -150q-25 -135 -80 -321l-95 -308l-29 -91l-29 -93h26l57 4l12 -4l6 -8l-1 -9l-5 -7q-7 -5 -29 -6l-47 -4h-28l-155 -444h-74l-10 28q-35 88 -98 199q-63 110 -115 175l-54 64v0zM1473 458l44 -57q35 -49 77 -112q46 -71 69 -121l33 -80l112 353h-85
q-84 2 -250 17v0zM1439 509v0l30 -6q104 -19 241 -21h109l147 477l65 221q40 137 59 243l1 21l-6 17l-28 -25q-68 -95 -126 -187l-218 -339q-47 -74 -179 -264zM2402 1896l-206 -244l-17 -17l-23 -2l-29 -3l-18 -2l-6 6l8 18l157 247q10 15 18 19q9 4 30 4h73l21 -1l3 -9
q-2 -5 -11 -16z" />
    <glyph glyph-name="Acircumflex" unicode="&#xc2;" horiz-adv-x="1813" 
d="M1310 351q-147 -163 -320 -269q-210 -127 -544 -129q-136 -1 -237 47l-13 9l-4 8l1 5l4 8l34 41l13 9l13 2q9 -3 24 -10q116 -70 283 -69q113 -1 218 33q119 38 213 107q133 98 257 241q114 130 240 307q88 124 201 296l160 244l147 213q43 62 89 98q15 12 28 12
q54 0 56 -113q0 -68 -15 -150q-25 -135 -80 -321l-95 -308l-29 -91l-29 -93h26l57 4l12 -4l6 -8l-1 -9l-5 -7q-7 -5 -29 -6l-47 -4h-28l-155 -444h-74l-10 28q-35 88 -98 199q-63 110 -115 175l-54 64v0zM1473 458l44 -57q35 -49 77 -112q46 -71 69 -121l33 -80l112 353h-85
q-84 2 -250 17v0zM1439 509v0l30 -6q104 -19 241 -21h109l147 477l65 221q40 137 59 243l1 21l-6 17l-28 -25q-68 -95 -126 -187l-218 -339q-47 -74 -179 -264zM2250 1816q-140 -91 -262.5 -139.5t-177.5 -48.5h-9q-14 4 -14 16q0 20 47 34q53 15 147 70t159 112l67 59
q16 14 37 14h41q24 0 32 -22l19 -55q34 -99 118 -194l10 -18q0 -11 -18 -11q-34 0 -196 183v0z" />
    <glyph glyph-name="Atilde" unicode="&#xc3;" horiz-adv-x="1813" 
d="M1310 351q-147 -163 -320 -269q-210 -127 -544 -129q-136 -1 -237 47l-13 9l-4 8l1 5l4 8l34 41l13 9l13 2q9 -3 24 -10q116 -70 283 -69q113 -1 218 33q119 38 213 107q133 98 257 241q114 130 240 307q88 124 201 296l160 244l147 213q43 62 89 98q15 12 28 12
q54 0 56 -113q0 -68 -15 -150q-25 -135 -80 -321l-95 -308l-29 -91l-29 -93h26l57 4l12 -4l6 -8l-1 -9l-5 -7q-7 -5 -29 -6l-47 -4h-28l-155 -444h-74l-10 28q-35 88 -98 199q-63 110 -115 175l-54 64v0zM1473 458l44 -57q35 -49 77 -112q46 -71 69 -121l33 -80l112 353h-85
q-84 2 -250 17v0zM1439 509v0l30 -6q104 -19 241 -21h109l147 477l65 221q40 137 59 243l1 21l-6 17l-28 -25q-68 -95 -126 -187l-218 -339q-47 -74 -179 -264zM1770 1633l6 16q66 175 208 175q39 0 77 -12q49 -15 98 -42q59 -32 87 -44q23 -10 55 -10q82 0 128 83l10 18
q9 16 23 16h5q6 -3 6 -12q0 -43 -64 -118t-137 -75q-31 0 -69 12q-43 14 -84 32l-92 41q-52 23 -99 23q-79 0 -119 -87q-13 -28 -27 -28q-10 0 -12 12z" />
    <glyph glyph-name="Adieresis" unicode="&#xc4;" horiz-adv-x="1813" 
d="M1310 351q-147 -163 -320 -269q-210 -127 -544 -129q-136 -1 -237 47l-13 9l-4 8l1 5l4 8l34 41l13 9l13 2q9 -3 24 -10q116 -70 283 -69q113 -1 218 33q119 38 213 107q133 98 257 241q114 130 240 307q88 124 201 296l160 244l147 213q43 62 89 98q15 12 28 12
q54 0 56 -113q0 -68 -15 -150q-25 -135 -80 -321l-95 -308l-29 -91l-29 -93h26l57 4l12 -4l6 -8l-1 -9l-5 -7q-7 -5 -29 -6l-47 -4h-28l-155 -444h-74l-10 28q-35 88 -98 199q-63 110 -115 175l-54 64v0zM1473 458l44 -57q35 -49 77 -112q46 -71 69 -121l33 -80l112 353h-85
q-84 2 -250 17v0zM1439 509v0l30 -6q104 -19 241 -21h109l147 477l65 221q40 137 59 243l1 21l-6 17l-28 -25q-68 -95 -126 -187l-218 -339q-47 -74 -179 -264zM1931 1809q37 0 64 -26t27 -64q0 -39 -28.5 -65t-61.5 -26q-34 0 -62.5 26t-28.5 65q0 38 26.5 64t63.5 26z
M2275 1809q37 0 64 -26t27 -64q0 -39 -28.5 -65t-61.5 -26q-34 0 -62.5 26t-28.5 65q0 38 26.5 64t63.5 26z" />
    <glyph glyph-name="Aring" unicode="&#xc5;" horiz-adv-x="1813" 
d="M1310 351q-147 -163 -320 -269q-210 -127 -544 -129q-136 -1 -237 47l-13 9l-4 8l1 5l4 8l34 41l13 9l13 2q9 -3 24 -10q116 -70 283 -69q113 -1 218 33q119 38 213 107q133 98 257 241q114 130 240 307q88 124 201 296l160 244l147 213q43 62 89 98q15 12 28 12
q54 0 56 -113q0 -68 -15 -150q-25 -135 -80 -321l-95 -308l-29 -91l-29 -93h26l57 4l12 -4l6 -8l-1 -9l-5 -7q-7 -5 -29 -6l-47 -4h-28l-155 -444h-74l-10 28q-35 88 -98 199q-63 110 -115 175l-54 64v0zM1473 458l44 -57q35 -49 77 -112q46 -71 69 -121l33 -80l112 353h-85
q-84 2 -250 17v0zM1439 509v0l30 -6q104 -19 241 -21h109l147 477l65 221q40 137 59 243l1 21l-6 17l-28 -25q-68 -95 -126 -187l-218 -339q-47 -74 -179 -264zM2013 1755q0 52 42.5 89.5t105.5 37.5t104.5 -38t41.5 -89q0 -50 -42.5 -88.5t-103.5 -38.5q-60 0 -104 38
t-44 89zM2261 1754q0 35 -29.5 58.5t-70.5 23.5t-71.5 -23.5t-30.5 -58.5q0 -34 31 -57t71 -23t70 23t30 57z" />
    <glyph glyph-name="AE" unicode="&#xc6;" horiz-adv-x="1888" 
d="M1551 696q62 49 137 94l141 80q38 21 39 39q0 21 -34 58q-65 67 -64 142q0 106 114 230q86 95 213 151q74 34 141 33q44 1 73 -32t28 -78q-1 -69 -30 -131l-50 -96q-35 -61 -68 -100l-15 -10l-6 2l-14 12l-27 28q-10 10 -10 18q-1 6 7 15l31 35q41 45 76 108
q46 82 47 124q0 53 -61 55q-90 1 -231 -173q-52 -62 -87.5 -124t-34.5 -109q-1 -31 13 -63l37 -92q10 -28 11 -44q-2 -54 -93 -104q-58 -31 -123 -76q-356 -242 -358 -483q0 -80 55 -141.5t139 -60.5q166 0 360 135l55 38q10 7 18 7l10 -7l2 -8l-1 -7l-24 -81
q-4 -14 -11 -21l-19 -12l-59 -27q-154 -67 -303 -67q-152 1 -244 137l-19 29v0l-38 -119h-61q-54 213 -136 379l-56 109v0l-73 -125q-77 -132 -149 -226q-144 -186 -346 -184q-115 -1 -221 40l-111 42q-23 7 -35 17l-9 9l-3 9q-1 10 12 26l25 31q13 14 28 16l16 -4l45 -18
l101 -44q71 -31 168 -31q132 0 204 55q84 65 209 284l148 261l195 359q178 319 285 446q61 72 119 72q55 -4 54 -70q0 -54 -15 -132q-24 -130 -49 -223l-62 -215l-66 -236v0zM1079 466l48 -87q28 -56 58 -127l56 -145l105 334l-108 1q-54 4 -159 24v0zM1040 526v0l61 -15
q97 -25 157 -28l101 -1l75 278l155 564q10 36 10 69l-3 27q-2 6 -8 10h-6q-14 0 -31 -17q-27 -27 -48 -66l-175 -295q-73 -121 -217 -393z" />
    <glyph glyph-name="Ccedilla" unicode="&#xc7;" horiz-adv-x="1133" 
d="M1086 1062q4 15 14 23l22 12q141 57 228 112q167 105 169 183q-1 79 -128 81q-51 0 -99 -13q-321 -87 -590 -427q-275 -346 -276 -671q0 -156 99.5 -258t255.5 -101q94 -1 194 31q131 41 228 103l37 23l13 4q10 -1 17 -11l6 -16l-1 -8l-14 -11l-82 -48q-53 -31 -130 -59
q-70 -26 -140 -40q-87 -19 -168 -18q-133 0 -235 58q-112 63 -149 186q-28 84 -27 180q-2 325 269 666q254 318 578 435q66 24 124 35q51 10 104 10q77 -2 118 -34q55 -42 55 -107q0 -125 -187 -262q-132 -96 -295 -150l-23 -2l-8 6l-2 8l6 21zM778 -224q-65 5 -65 51
q0 30 23.5 50.5t53.5 20.5q65 0 65 -61q0 -45 -44 -99t-110 -88q-8 -4 -14 -4q-16 0 -16 12q0 7 11 15q66 49 96 103z" />
    <glyph glyph-name="Egrave" unicode="&#xc8;" horiz-adv-x="1171" 
d="M1281 109q-5 -18 -12 -26q-9 -10 -31 -18l-106 -36l-122 -34q-162 -41 -304 -42q-181 -1 -284 55q-143 77 -145 238q1 166 166 354q74 83 148 138q63 44 146 86l96 49q12 7 21 16q4 3 4 10l-1 5l-8 12l-24 27q-74 78 -73 136q-1 60 28 108q66 115 214 205q131 79 278 113
q80 18 158 18q193 0 197 -127q-2 -79 -87 -233l-50 -84l-16 -21l-8 -3l-17 14l-26 43q-12 19 -12 28q-2 7 10 22q50 76 89 156q21 43 21 78q-5 80 -108 77q-93 0 -221 -50q-114 -45 -193 -116q-52 -46 -94 -103q-68 -91 -67 -160q2 -43 37 -111l21 -43q10 -25 11 -48
q-2 -46 -57 -80l-91 -53q-74 -41 -134 -86q-81 -59 -142 -135q-119 -148 -120 -291q1 -92 74 -148q63 -48 163 -46q100 -1 212 27q123 30 225 74l175 76l51 22q9 5 19 5l7 -4l2 -8l-4 -21zM1380 1630l-30 3l-22 2q-6 2 -18 17l-206 244q-9 11 -11 16l3 9l22 1h72q21 0 30 -4
q8 -4 18 -19l157 -247l9 -18l-6 -6z" />
    <glyph glyph-name="Eacute" unicode="&#xc9;" horiz-adv-x="1171" 
d="M1281 109q-5 -18 -12 -26q-9 -10 -31 -18l-106 -36l-122 -34q-162 -41 -304 -42q-181 -1 -284 55q-143 77 -145 238q1 166 166 354q74 83 148 138q63 44 146 86l96 49q12 7 21 16q4 3 4 10l-1 5l-8 12l-24 27q-74 78 -73 136q-1 60 28 108q66 115 214 205q131 79 278 113
q80 18 158 18q193 0 197 -127q-2 -79 -87 -233l-50 -84l-16 -21l-8 -3l-17 14l-26 43q-12 19 -12 28q-2 7 10 22q50 76 89 156q21 43 21 78q-5 80 -108 77q-93 0 -221 -50q-114 -45 -193 -116q-52 -46 -94 -103q-68 -91 -67 -160q2 -43 37 -111l21 -43q10 -25 11 -48
q-2 -46 -57 -80l-91 -53q-74 -41 -134 -86q-81 -59 -142 -135q-119 -148 -120 -291q1 -92 74 -148q63 -48 163 -46q100 -1 212 27q123 30 225 74l175 76l51 22q9 5 19 5l7 -4l2 -8l-4 -21zM1653 1896l-206 -244l-17 -17l-23 -2l-29 -3l-18 -2l-6 6l8 18l157 247q10 15 18 19
q9 4 30 4h73l21 -1l3 -9q-2 -5 -11 -16z" />
    <glyph glyph-name="Ecircumflex" unicode="&#xca;" horiz-adv-x="1171" 
d="M1281 109q-5 -18 -12 -26q-9 -10 -31 -18l-106 -36l-122 -34q-162 -41 -304 -42q-181 -1 -284 55q-143 77 -145 238q1 166 166 354q74 83 148 138q63 44 146 86l96 49q12 7 21 16q4 3 4 10l-1 5l-8 12l-24 27q-74 78 -73 136q-1 60 28 108q66 115 214 205q131 79 278 113
q80 18 158 18q193 0 197 -127q-2 -79 -87 -233l-50 -84l-16 -21l-8 -3l-17 14l-26 43q-12 19 -12 28q-2 7 10 22q50 76 89 156q21 43 21 78q-5 80 -108 77q-93 0 -221 -50q-114 -45 -193 -116q-52 -46 -94 -103q-68 -91 -67 -160q2 -43 37 -111l21 -43q10 -25 11 -48
q-2 -46 -57 -80l-91 -53q-74 -41 -134 -86q-81 -59 -142 -135q-119 -148 -120 -291q1 -92 74 -148q63 -48 163 -46q100 -1 212 27q123 30 225 74l175 76l51 22q9 5 19 5l7 -4l2 -8l-4 -21zM1478 1816q-140 -91 -262.5 -139.5t-177.5 -48.5h-9q-14 4 -14 16q0 20 47 34
q53 15 147 70t159 112l67 59q16 14 37 14h41q24 0 32 -22l19 -55q34 -99 118 -194l10 -18q0 -11 -18 -11q-34 0 -196 183v0z" />
    <glyph glyph-name="Edieresis" unicode="&#xcb;" horiz-adv-x="1171" 
d="M1281 109q-5 -18 -12 -26q-9 -10 -31 -18l-106 -36l-122 -34q-162 -41 -304 -42q-181 -1 -284 55q-143 77 -145 238q1 166 166 354q74 83 148 138q63 44 146 86l96 49q12 7 21 16q4 3 4 10l-1 5l-8 12l-24 27q-74 78 -73 136q-1 60 28 108q66 115 214 205q131 79 278 113
q80 18 158 18q193 0 197 -127q-2 -79 -87 -233l-50 -84l-16 -21l-8 -3l-17 14l-26 43q-12 19 -12 28q-2 7 10 22q50 76 89 156q21 43 21 78q-5 80 -108 77q-93 0 -221 -50q-114 -45 -193 -116q-52 -46 -94 -103q-68 -91 -67 -160q2 -43 37 -111l21 -43q10 -25 11 -48
q-2 -46 -57 -80l-91 -53q-74 -41 -134 -86q-81 -59 -142 -135q-119 -148 -120 -291q1 -92 74 -148q63 -48 163 -46q100 -1 212 27q123 30 225 74l175 76l51 22q9 5 19 5l7 -4l2 -8l-4 -21zM1232 1809q37 0 64 -26t27 -64q0 -39 -28.5 -65t-61.5 -26q-34 0 -62.5 26t-28.5 65
q0 38 26.5 64t63.5 26zM1576 1809q37 0 64 -26t27 -64q0 -39 -28.5 -65t-61.5 -26q-34 0 -62.5 26t-28.5 65q0 38 26.5 64t63.5 26z" />
    <glyph glyph-name="Igrave" unicode="&#xcc;" horiz-adv-x="1171" 
d="M1092 500q-148 124 -149 350q-2 232 182 496q39 57 87 107q67 70 124 70q119 -3 118 -198q0 -95 -19.5 -207t-52 -231.5t-78.5 -244.5l-65 -167v0l40 -9q34 -8 78 -10l27 -2l14 -3l5 -3l1 -17q-4 -12 -12 -15l-21 -2l-111 16l-36 5v0l-27 -54q-45 -91 -98 -164
q-188 -265 -516 -264q-133 -1 -302 51q-44 12 -74 32l-12 10l-3 6q-2 9 8 23l20 35l16 17l22 -10q19 -14 58 -31l102 -45q92 -39 188 -38q106 -1 194 47q79 41 135 111q85 105 152 246l33 71v0zM1140 519v0l47 109q38 95 84 240l56 185q66 224 68 341l-4 42q-10 44 -47 46
q-44 -3 -92 -74q-44 -64 -80 -137q-45 -85 -69 -154q-63 -178 -64 -327q-1 -73 25 -149.5t64 -111.5zM1344 1630l-30 3l-22 2q-6 2 -18 17l-206 244q-9 11 -11 16l3 9l22 1h72q21 0 30 -4q8 -4 18 -19l157 -247l9 -18l-6 -6z" />
    <glyph glyph-name="Iacute" unicode="&#xcd;" horiz-adv-x="1171" 
d="M1092 500q-148 124 -149 350q-2 232 182 496q39 57 87 107q67 70 124 70q119 -3 118 -198q0 -95 -19.5 -207t-52 -231.5t-78.5 -244.5l-65 -167v0l40 -9q34 -8 78 -10l27 -2l14 -3l5 -3l1 -17q-4 -12 -12 -15l-21 -2l-111 16l-36 5v0l-27 -54q-45 -91 -98 -164
q-188 -265 -516 -264q-133 -1 -302 51q-44 12 -74 32l-12 10l-3 6q-2 9 8 23l20 35l16 17l22 -10q19 -14 58 -31l102 -45q92 -39 188 -38q106 -1 194 47q79 41 135 111q85 105 152 246l33 71v0zM1140 519v0l47 109q38 95 84 240l56 185q66 224 68 341l-4 42q-10 44 -47 46
q-44 -3 -92 -74q-44 -64 -80 -137q-45 -85 -69 -154q-63 -178 -64 -327q-1 -73 25 -149.5t64 -111.5zM1580 1896l-206 -244l-17 -17l-23 -2l-29 -3l-18 -2l-6 6l8 18l157 247q10 15 18 19q9 4 30 4h73l21 -1l3 -9q-2 -5 -11 -16z" />
    <glyph glyph-name="Icircumflex" unicode="&#xce;" horiz-adv-x="1171" 
d="M1092 500q-148 124 -149 350q-2 232 182 496q39 57 87 107q67 70 124 70q119 -3 118 -198q0 -95 -19.5 -207t-52 -231.5t-78.5 -244.5l-65 -167v0l40 -9q34 -8 78 -10l27 -2l14 -3l5 -3l1 -17q-4 -12 -12 -15l-21 -2l-111 16l-36 5v0l-27 -54q-45 -91 -98 -164
q-188 -265 -516 -264q-133 -1 -302 51q-44 12 -74 32l-12 10l-3 6q-2 9 8 23l20 35l16 17l22 -10q19 -14 58 -31l102 -45q92 -39 188 -38q106 -1 194 47q79 41 135 111q85 105 152 246l33 71v0zM1140 519v0l47 109q38 95 84 240l56 185q66 224 68 341l-4 42q-10 44 -47 46
q-44 -3 -92 -74q-44 -64 -80 -137q-45 -85 -69 -154q-63 -178 -64 -327q-1 -73 25 -149.5t64 -111.5zM1458 1816q-140 -91 -262.5 -139.5t-177.5 -48.5h-9q-14 4 -14 16q0 20 47 34q53 15 147 70t159 112l67 59q16 14 37 14h41q24 0 32 -22l19 -55q34 -99 118 -194l10 -18
q0 -11 -18 -11q-34 0 -196 183v0z" />
    <glyph glyph-name="Idieresis" unicode="&#xcf;" horiz-adv-x="1171" 
d="M1092 500q-148 124 -149 350q-2 232 182 496q39 57 87 107q67 70 124 70q119 -3 118 -198q0 -95 -19.5 -207t-52 -231.5t-78.5 -244.5l-65 -167v0l40 -9q34 -8 78 -10l27 -2l14 -3l5 -3l1 -17q-4 -12 -12 -15l-21 -2l-111 16l-36 5v0l-27 -54q-45 -91 -98 -164
q-188 -265 -516 -264q-133 -1 -302 51q-44 12 -74 32l-12 10l-3 6q-2 9 8 23l20 35l16 17l22 -10q19 -14 58 -31l102 -45q92 -39 188 -38q106 -1 194 47q79 41 135 111q85 105 152 246l33 71v0zM1140 519v0l47 109q38 95 84 240l56 185q66 224 68 341l-4 42q-10 44 -47 46
q-44 -3 -92 -74q-44 -64 -80 -137q-45 -85 -69 -154q-63 -178 -64 -327q-1 -73 25 -149.5t64 -111.5zM1172 1809q37 0 64 -26t27 -64q0 -39 -28.5 -65t-61.5 -26q-34 0 -62.5 26t-28.5 65q0 38 26.5 64t63.5 26zM1516 1809q37 0 64 -26t27 -64q0 -39 -28.5 -65t-61.5 -26
q-34 0 -62.5 26t-28.5 65q0 38 26.5 64t63.5 26z" />
    <glyph glyph-name="Eth" unicode="&#xd0;" horiz-adv-x="1813" 
d="M945 538q-20 -1 -27 4l-7 8v14l11 34l7 11l9 5l28 2h222l7 20l99 270l86 252l29 87v0l-87 61q-96 61 -214 107q-85 32 -170 51q-78 17 -153 17q-54 0 -100 -13q-113 -31 -115 -116q1 -53 85 -172l61 -81l42 -48l7 -13l-4 -9q-8 -9 -16 -11l-38 -15l-16 -5q-23 0 -61 57
l-62 92q-20 27 -39 79t-18 99q-2 110 114 167q76 37 210 39q93 0 203 -19q185 -33 339 -119l70 -43v0l9 32q24 85 42 98l21 10l66 28l14 5l12 -10l-13 -39l-66 -190v0l49 -41q154 -131 256 -280q130 -191 132 -406q0 -152 -79 -281.5t-210 -198.5q-70 -38 -168.5 -57.5
t-188.5 -19.5q-105 -1 -216 26q-63 14 -147 43l-64 22v0l-53 -24q-151 -67 -290 -67q-82 0 -161 23q-91 24 -92 75q-2 51 92 93q66 29 132 41q44 8 100 8q123 -1 305 -52v0l23 23q111 115 194 302l11 25h-212zM396 96l29 -16q58 -29 136 -30q50 -1 127 17q55 11 90 27l26 13
v0l-40 13q-35 11 -70 17q-55 10 -107 10q-53 -1 -100 -11q-35 -8 -66 -25zM1003 165v0l64 -20q77 -23 169.5 -38t167.5 -14q113 0 215 34q90 29 157 96q97 96 97 259q-2 245 -224 534q-61 79 -110 124l-44 38v0l-41 -120l-40 -122l-109 -309l-2 -11h113l25 -3l3 -9l-2 -14
l-9 -31q-3 -12 -9 -15q-9 -6 -26 -6h-126v0l-16 -37q-66 -144 -170 -255z" />
    <glyph glyph-name="Ntilde" unicode="&#xd1;" horiz-adv-x="1208" 
d="M744 389l102 196l123 224q151 272 266 433q164 233 296 234q58 1 92 -59q25 -45 25 -110q-2 -125 -66 -331l-80 -254l-120 -369l-22 -77q-76 -290 -124 -431l-12 -18l-16 11l-56 47q-9 8 -14 18l-2 8l2 13l18 57l137 424l209 607l57 185q28 92 30 163q1 64 -52 66
q-111 -1 -313 -300q-42 -61 -132 -219l-144 -252l-147 -278l-123 -226l-76 -151h-102l14 44l61 197l78 258l70 255l67 244l73 282l27 115q6 29 6 59q0 12 -4 22l-8 12l-8 3l-8 -3l-16 -16l-28 -38l-50 -78q-112 -191 -170 -330l-71 -163l-15 -18l-17 13l-36 45
q-13 14 -12 25l4 16q54 129 169 331q152 266 247 266q61 -2 76 -93q6 -36 6 -64q-1 -127 -98 -492l-73 -258l-57 -193l-57 -193zM887 1633l6 16q66 175 208 175q39 0 77 -12q49 -15 98 -42q59 -32 87 -44q23 -10 55 -10q82 0 128 83l10 18q9 16 23 16h5q6 -3 6 -12
q0 -43 -64 -118t-137 -75q-31 0 -69 12q-43 14 -84 32l-92 41q-52 23 -99 23q-79 0 -119 -87q-13 -28 -27 -28q-10 0 -12 12z" />
    <glyph glyph-name="Ograve" unicode="&#xd2;" horiz-adv-x="1397" 
d="M633 1170q276 350 612 353q144 -2 257 -99q103 -87 156 -231q41 -114 41 -237q-1 -278 -158 -535.5t-398 -389.5q-142 -79 -297 -78q-94 0 -182 40q-83 35 -146 106q-142 155 -143 403q-3 335 258 668zM471 479q-1 -189 80 -315q104 -163 270 -161q231 1 442 205
q170 164 265 421q74 199 75 390q0 174 -84 303q-98 151 -263 151q-321 -1 -564 -351q-220 -318 -221 -643zM1394 1630l-30 3l-22 2q-6 2 -18 17l-206 244q-9 11 -11 16l3 9l22 1h72q21 0 30 -4q8 -4 18 -19l157 -247l9 -18l-6 -6z" />
    <glyph glyph-name="Oacute" unicode="&#xd3;" horiz-adv-x="1397" 
d="M633 1170q276 350 612 353q144 -2 257 -99q103 -87 156 -231q41 -114 41 -237q-1 -278 -158 -535.5t-398 -389.5q-142 -79 -297 -78q-94 0 -182 40q-83 35 -146 106q-142 155 -143 403q-3 335 258 668zM471 479q-1 -189 80 -315q104 -163 270 -161q231 1 442 205
q170 164 265 421q74 199 75 390q0 174 -84 303q-98 151 -263 151q-321 -1 -564 -351q-220 -318 -221 -643zM1441 1896l-206 -244l-17 -17l-23 -2l-29 -3l-18 -2l-6 6l8 18l157 247q10 15 18 19q9 4 30 4h73l21 -1l3 -9q-2 -5 -11 -16z" />
    <glyph glyph-name="Ocircumflex" unicode="&#xd4;" horiz-adv-x="1397" 
d="M633 1170q276 350 612 353q144 -2 257 -99q103 -87 156 -231q41 -114 41 -237q-1 -278 -158 -535.5t-398 -389.5q-142 -79 -297 -78q-94 0 -182 40q-83 35 -146 106q-142 155 -143 403q-3 335 258 668zM471 479q-1 -189 80 -315q104 -163 270 -161q231 1 442 205
q170 164 265 421q74 199 75 390q0 174 -84 303q-98 151 -263 151q-321 -1 -564 -351q-220 -318 -221 -643zM1432 1816q-140 -91 -262.5 -139.5t-177.5 -48.5h-9q-14 4 -14 16q0 20 47 34q53 15 147 70t159 112l67 59q16 14 37 14h41q24 0 32 -22l19 -55q34 -99 118 -194
l10 -18q0 -11 -18 -11q-34 0 -196 183v0z" />
    <glyph glyph-name="Otilde" unicode="&#xd5;" horiz-adv-x="1397" 
d="M633 1170q276 350 612 353q144 -2 257 -99q103 -87 156 -231q41 -114 41 -237q-1 -278 -158 -535.5t-398 -389.5q-142 -79 -297 -78q-94 0 -182 40q-83 35 -146 106q-142 155 -143 403q-3 335 258 668zM471 479q-1 -189 80 -315q104 -163 270 -161q231 1 442 205
q170 164 265 421q74 199 75 390q0 174 -84 303q-98 151 -263 151q-321 -1 -564 -351q-220 -318 -221 -643zM1022 1633l6 16q66 175 208 175q39 0 77 -12q49 -15 98 -42q59 -32 87 -44q23 -10 55 -10q82 0 128 83l10 18q9 16 23 16h5q6 -3 6 -12q0 -43 -64 -118t-137 -75
q-31 0 -69 12q-43 14 -84 32l-92 41q-52 23 -99 23q-79 0 -119 -87q-13 -28 -27 -28q-10 0 -12 12z" />
    <glyph glyph-name="Odieresis" unicode="&#xd6;" horiz-adv-x="1397" 
d="M633 1170q276 350 612 353q144 -2 257 -99q103 -87 156 -231q41 -114 41 -237q-1 -278 -158 -535.5t-398 -389.5q-142 -79 -297 -78q-94 0 -182 40q-83 35 -146 106q-142 155 -143 403q-3 335 258 668zM471 479q-1 -189 80 -315q104 -163 270 -161q231 1 442 205
q170 164 265 421q74 199 75 390q0 174 -84 303q-98 151 -263 151q-321 -1 -564 -351q-220 -318 -221 -643zM1209 1809q37 0 64 -26t27 -64q0 -39 -28.5 -65t-61.5 -26q-34 0 -62.5 26t-28.5 65q0 38 26.5 64t63.5 26zM1553 1809q37 0 64 -26t27 -64q0 -39 -28.5 -65
t-61.5 -26q-34 0 -62.5 26t-28.5 65q0 38 26.5 64t63.5 26z" />
    <glyph glyph-name="multiply" unicode="&#xd7;" horiz-adv-x="1058" 
d="M559 13q-13 -13 -27 -13q-30 -1 -28 31q0 15 11 26l226 226v0l-226 225q-11 10 -11 25q-3 33 29 33q12 -1 26 -14l227 -225v0l227 225q13 13 27 14q19 -2 28 -24l1 -14q-3 -11 -12 -20l-226 -225v0l226 -226q9 -11 12 -20l-1 -14l-9 -14q-10 -10 -19 -9q-15 0 -27 13
l-227 225v0z" />
    <glyph glyph-name="Oslash" unicode="&#xd8;" horiz-adv-x="1397" 
d="M424 240q-12 24 -22 67q-28 110 -27 205q-1 161 77 352q69 168 184 311q278 346 611 348q189 1 311 -154l48 -66v0l221 206l14 11l14 7q7 0 15 -6l18 -15l7 -12q0 -5 -6 -11l-12 -12l-239 -227v0l20 -51q41 -115 41 -236q-1 -391 -289 -712q-119 -133 -268 -214
q-144 -79 -298 -78q-94 0 -181 40q-100 44 -168 133l-18 24v0l-196 -179l-18 -14q-10 -7 -16 -6q-8 0 -15 7l-17 16l-6 11q0 7 8 15l17 16l207 193v0zM1580 1189v0l-1052 -990v0l6 -12q15 -33 44 -64q105 -122 242 -120q141 0 285 84q131 77 227 197q270 334 271 738
q0 60 -13 124zM502 266v0l1054 992v0l-7 17q-21 47 -58 90q-94 108 -236 108q-140 0 -267 -73q-291 -166 -441 -552q-30 -76 -47 -147q-29 -117 -29 -224q1 -93 21 -175z" />
    <glyph glyph-name="Ugrave" unicode="&#xd9;" horiz-adv-x="1284" 
d="M1351 647q-361 -700 -649 -694q-87 0 -140.5 54.5t-52.5 143.5q0 91 24.5 193.5t59.5 219.5l72 237l63 198l61 189l65 208q7 27 8 49q0 14 -8 27l-12 13l-9 3q-31 1 -71 -65q-67 -108 -89 -152l-112 -227l-14 -20l-7 -4l-19 14l-28 31q-13 14 -13 26q-1 11 13 34l38 71
q40 79 96 152q140 189 249 190q84 -3 82 -120q0 -99 -100 -412l-95 -280q-61 -174 -89 -269q-68 -223 -69 -330q0 -57 33 -89q37 -36 88 -35q119 0 227 118q76 81 155 203q315 487 524 1124q6 18 13 24q5 3 26 4h55q24 -1 25 -23l-3 -14l-101 -298l-136 -449
q-91 -306 -118 -413l-44 -176l-65 -254l-5 -15l-7 -6l-9 -1l-16 6l-59 25l-11 8q-5 5 -4 13l1 13q29 165 105 406l102 329l70 221zM1417 1630l-30 3l-22 2q-6 2 -18 17l-206 244q-9 11 -11 16l3 9l22 1h72q21 0 30 -4q8 -4 18 -19l157 -247l9 -18l-6 -6z" />
    <glyph glyph-name="Uacute" unicode="&#xda;" horiz-adv-x="1284" 
d="M1351 647q-361 -700 -649 -694q-87 0 -140.5 54.5t-52.5 143.5q0 91 24.5 193.5t59.5 219.5l72 237l63 198l61 189l65 208q7 27 8 49q0 14 -8 27l-12 13l-9 3q-31 1 -71 -65q-67 -108 -89 -152l-112 -227l-14 -20l-7 -4l-19 14l-28 31q-13 14 -13 26q-1 11 13 34l38 71
q40 79 96 152q140 189 249 190q84 -3 82 -120q0 -99 -100 -412l-95 -280q-61 -174 -89 -269q-68 -223 -69 -330q0 -57 33 -89q37 -36 88 -35q119 0 227 118q76 81 155 203q315 487 524 1124q6 18 13 24q5 3 26 4h55q24 -1 25 -23l-3 -14l-101 -298l-136 -449
q-91 -306 -118 -413l-44 -176l-65 -254l-5 -15l-7 -6l-9 -1l-16 6l-59 25l-11 8q-5 5 -4 13l1 13q29 165 105 406l102 329l70 221zM1607 1896l-206 -244l-17 -17l-23 -2l-29 -3l-18 -2l-6 6l8 18l157 247q10 15 18 19q9 4 30 4h73l21 -1l3 -9q-2 -5 -11 -16z" />
    <glyph glyph-name="Ucircumflex" unicode="&#xdb;" horiz-adv-x="1284" 
d="M1351 647q-361 -700 -649 -694q-87 0 -140.5 54.5t-52.5 143.5q0 91 24.5 193.5t59.5 219.5l72 237l63 198l61 189l65 208q7 27 8 49q0 14 -8 27l-12 13l-9 3q-31 1 -71 -65q-67 -108 -89 -152l-112 -227l-14 -20l-7 -4l-19 14l-28 31q-13 14 -13 26q-1 11 13 34l38 71
q40 79 96 152q140 189 249 190q84 -3 82 -120q0 -99 -100 -412l-95 -280q-61 -174 -89 -269q-68 -223 -69 -330q0 -57 33 -89q37 -36 88 -35q119 0 227 118q76 81 155 203q315 487 524 1124q6 18 13 24q5 3 26 4h55q24 -1 25 -23l-3 -14l-101 -298l-136 -449
q-91 -306 -118 -413l-44 -176l-65 -254l-5 -15l-7 -6l-9 -1l-16 6l-59 25l-11 8q-5 5 -4 13l1 13q29 165 105 406l102 329l70 221zM1495 1816q-140 -91 -262.5 -139.5t-177.5 -48.5h-9q-14 4 -14 16q0 20 47 34q53 15 147 70t159 112l67 59q16 14 37 14h41q24 0 32 -22
l19 -55q34 -99 118 -194l10 -18q0 -11 -18 -11q-34 0 -196 183v0z" />
    <glyph glyph-name="Udieresis" unicode="&#xdc;" horiz-adv-x="1284" 
d="M1351 647q-361 -700 -649 -694q-87 0 -140.5 54.5t-52.5 143.5q0 91 24.5 193.5t59.5 219.5l72 237l63 198l61 189l65 208q7 27 8 49q0 14 -8 27l-12 13l-9 3q-31 1 -71 -65q-67 -108 -89 -152l-112 -227l-14 -20l-7 -4l-19 14l-28 31q-13 14 -13 26q-1 11 13 34l38 71
q40 79 96 152q140 189 249 190q84 -3 82 -120q0 -99 -100 -412l-95 -280q-61 -174 -89 -269q-68 -223 -69 -330q0 -57 33 -89q37 -36 88 -35q119 0 227 118q76 81 155 203q315 487 524 1124q6 18 13 24q5 3 26 4h55q24 -1 25 -23l-3 -14l-101 -298l-136 -449
q-91 -306 -118 -413l-44 -176l-65 -254l-5 -15l-7 -6l-9 -1l-16 6l-59 25l-11 8q-5 5 -4 13l1 13q29 165 105 406l102 329l70 221zM1199 1809q37 0 64 -26t27 -64q0 -39 -28.5 -65t-61.5 -26q-34 0 -62.5 26t-28.5 65q0 38 26.5 64t63.5 26zM1543 1809q37 0 64 -26t27 -64
q0 -39 -28.5 -65t-61.5 -26q-34 0 -62.5 26t-28.5 65q0 38 26.5 64t63.5 26z" />
    <glyph glyph-name="Yacute" unicode="&#xdd;" horiz-adv-x="1246" 
d="M1497 1002q-171 -312 -331 -551q-93 -139 -178 -240q-80 -97 -180 -174q-56 -44 -109 -68q-35 -17 -73 -16q-129 2 -125 149q1 155 96 467q53 178 158 492l95 290q20 62 20 94q0 12 -4 19l-8 8l-10 1q-14 -2 -27 -16l-44 -49q-66 -77 -116 -160q-61 -99 -104 -198
l-13 -28l-10 -12l-17 13l-30 49q-7 9 -6 16l5 16q44 94 107 181q59 83 127 158q72 80 124 80q83 0 85 -130q0 -39 -6 -83q-9 -69 -25 -126q-28 -103 -83 -275l-73 -242l-75 -262q-43 -152 -60 -233q-11 -49 -10 -98q1 -72 47 -71q203 3 713 857l118 204q62 112 99 205
l66 162q5 10 10 14q5 3 21 7l48 9h20l7 -5l3 -7l-2 -19l-87 -302l-79 -259l-75 -239q-78 -243 -122 -371q-68 -196 -159 -354q-150 -260 -415 -331q-92 -25 -198 -24q-59 -1 -120 5l-38 6l-16 9l5 19l19 46l7 11l6 3l16 -4q40 -19 89 -29q69 -16 135 -16q88 -1 153 30
q140 66 235 235q58 103 139 310q93 239 220 642l89 284zM1563 1896l-206 -244l-17 -17l-23 -2l-29 -3l-18 -2l-6 6l8 18l157 247q10 15 18 19q9 4 30 4h73l21 -1l3 -9q-2 -5 -11 -16z" />
    <glyph glyph-name="Thorn" unicode="&#xde;" horiz-adv-x="1095" 
d="M665 1514q16 8 30 9l9 -5l5 -10l-1 -17l-41 -248q-18 -104 -62 -303l-61 -263l-21 -84l77 156q76 150 170 268q67 86 163 158q55 42 113 69q63 30 127 30q110 0 188 -83q68 -72 68 -196q-1 -245 -210 -476q-176 -194 -435 -295q-98 -39 -162 -55l-103 -27l-19 -1l-5 5
l-2 9q1 11 7 26l23 50q6 11 11 15l10 1l80 2q283 34 474 252q210 238 210 498q0 87 -35 146q-47 79 -122 79q-60 0 -122 -37q-203 -122 -386 -447q-57 -99 -92 -179q-124 -285 -192 -509q-56 -189 -95 -284l-9 -15l-6 -4l-7 1l-14 9l-54 47l-17 17v6l5 17l38 107l68 196
q144 415 232 816l60 299q21 118 31 184q1 16 7 25q4 6 14 12z" />
    <glyph glyph-name="germandbls" unicode="&#xdf;" horiz-adv-x="718" 
d="M150 -501q-19 -10 -26 -8q-11 0 -13 10l410 1307l88 233q42 109 86 205q36 81 80 153q86 146 156 149q62 1 62 -148q0 -60 -10.5 -127t-30.5 -137q-29 -103 -60 -161l-101 -197l-41 -87q-17 -38 -16 -64q1 -42 68 -170q36 -72 57 -146q15 -55 15 -103q1 -99 -70 -162
t-166 -61q-53 -1 -92 18q-58 27 -57 69q1 53 61 54q42 1 72 -38l22 -26q10 -9 29 -9q41 2 73 52q21 35 23 91q-1 77 -24 157l-47 141q-29 78 -28 124q0 62 105 283q112 238 151 391l22 98q4 19 4 42q-2 49 -23 48l-9 -2q-20 -12 -41 -57l-49 -103q-11 -24 -65 -170l-68 -185
q-47 -125 -65 -187l-365 -1188q-8 -24 -15 -33q-11 -14 -39 -26z" />
    <glyph glyph-name="agrave" unicode="&#xe0;" horiz-adv-x="680" 
d="M574 138l-58 -68q-79 -83 -154 -85q-43 -1 -74 34q-25 29 -26 78q-1 42 13 80q44 128 134 212q38 37 91 63q42 22 87 30l48 3l44 -6q16 -4 17 -17l-5 -15l-17 -33l-16 10q-36 19 -62 19q-67 -1 -129 -93q-51 -76 -76 -145l-17 -52q-7 -25 -7 -48q0 -52 46 -52
q49 0 108 71l48 62q28 38 63 98l66 114l26 50l9 15q6 7 23 7h36l11 -1l8 -4l4 -5q0 -14 -4 -23l-10 -26l-50 -139l-40 -116l-16 -53l-2 -16q0 -32 25 -34q39 2 89 55l25 25l14 12l11 6l8 -4l3 -10q-3 -11 -14 -23l-61 -64q-63 -66 -125 -65q-73 -3 -72 77q0 35 12 83l15 56z
M790 603l12 -13l-5 -8l-17 2l-28 3l-21 5l-22 11l-201 145l-16 14l5 7h17h69q18 -1 27 -3q8 -3 19 -13z" />
    <glyph glyph-name="aacute" unicode="&#xe1;" horiz-adv-x="680" 
d="M574 138l-58 -68q-79 -83 -154 -85q-43 -1 -74 34q-25 29 -26 78q-1 42 13 80q44 128 134 212q38 37 91 63q42 22 87 30l48 3l44 -6q16 -4 17 -17l-5 -15l-17 -33l-16 10q-36 19 -62 19q-67 -1 -129 -93q-51 -76 -76 -145l-17 -52q-7 -25 -7 -48q0 -52 46 -52
q49 0 108 71l48 62q28 38 63 98l66 114l26 50l9 15q6 7 23 7h36l11 -1l8 -4l4 -5q0 -14 -4 -23l-10 -26l-50 -139l-40 -116l-16 -53l-2 -16q0 -32 25 -34q39 2 89 55l25 25l14 12l11 6l8 -4l3 -10q-3 -11 -14 -23l-61 -64q-63 -66 -125 -65q-73 -3 -72 77q0 35 12 83l15 56z
M767 753q10 10 19 13q8 2 27 3h69h17l5 -7l-16 -14l-201 -145l-22 -11l-20 -5l-29 -3l-17 -2l-4 8l11 13z" />
    <glyph glyph-name="acircumflex" unicode="&#xe2;" horiz-adv-x="680" 
d="M574 138l-58 -68q-79 -83 -154 -85q-43 -1 -74 34q-25 29 -26 78q-1 42 13 80q44 128 134 212q38 37 91 63q42 22 87 30l48 3l44 -6q16 -4 17 -17l-5 -15l-17 -33l-16 10q-36 19 -62 19q-67 -1 -129 -93q-51 -76 -76 -145l-17 -52q-7 -25 -7 -48q0 -52 46 -52
q49 0 108 71l48 62q28 38 63 98l66 114l26 50l9 15q6 7 23 7h36l11 -1l8 -4l4 -5q0 -14 -4 -23l-10 -26l-50 -139l-40 -116l-16 -53l-2 -16q0 -32 25 -34q39 2 89 55l25 25l14 12l11 6l8 -4l3 -10q-3 -11 -14 -23l-61 -64q-63 -66 -125 -65q-73 -3 -72 77q0 35 12 83l15 56z
M688 638q-99 -58 -188 -56l-18 3l-9 12l16 14l52 27q86 51 139 110l11 12l12 8l16 1h48l21 -3l6 -12l10 -25q20 -48 39 -76q13 -24 41 -52q7 -9 8 -15l-9 -11q-24 -1 -92 57l-44 44v0z" />
    <glyph glyph-name="atilde" unicode="&#xe3;" horiz-adv-x="680" 
d="M574 138l-58 -68q-79 -83 -154 -85q-43 -1 -74 34q-25 29 -26 78q-1 42 13 80q44 128 134 212q38 37 91 63q42 22 87 30l48 3l44 -6q16 -4 17 -17l-5 -15l-17 -33l-16 10q-36 19 -62 19q-67 -1 -129 -93q-51 -76 -76 -145l-17 -52q-7 -25 -7 -48q0 -52 46 -52
q49 0 108 71l48 62q28 38 63 98l66 114l26 50l9 15q6 7 23 7h36l11 -1l8 -4l4 -5q0 -14 -4 -23l-10 -26l-50 -139l-40 -116l-16 -53l-2 -16q0 -32 25 -34q39 2 89 55l25 25l14 12l11 6l8 -4l3 -10q-3 -11 -14 -23l-61 -64q-63 -66 -125 -65q-73 -3 -72 77q0 35 12 83l15 56z
M461 600q10 43 49 77t82 34q23 0 44 -9l53 -25q26 -14 52 -20l23 -3q42 1 57 38l11 21l13 8q4 -2 7 -6l4 -15l-3 -14l-13 -27q-51 -80 -123 -77q-25 0 -44 7l-52 24l-33 16q-23 9 -38 10q-42 -1 -59 -33l-9 -17q-4 -7 -12 -7l-11 5z" />
    <glyph glyph-name="adieresis" unicode="&#xe4;" horiz-adv-x="680" 
d="M574 138l-58 -68q-79 -83 -154 -85q-43 -1 -74 34q-25 29 -26 78q-1 42 13 80q44 128 134 212q38 37 91 63q42 22 87 30l48 3l44 -6q16 -4 17 -17l-5 -15l-17 -33l-16 10q-36 19 -62 19q-67 -1 -129 -93q-51 -76 -76 -145l-17 -52q-7 -25 -7 -48q0 -52 46 -52
q49 0 108 71l48 62q28 38 63 98l66 114l26 50l9 15q6 7 23 7h36l11 -1l8 -4l4 -5q0 -14 -4 -23l-10 -26l-50 -139l-40 -116l-16 -53l-2 -16q0 -32 25 -34q39 2 89 55l25 25l14 12l11 6l8 -4l3 -10q-3 -11 -14 -23l-61 -64q-63 -66 -125 -65q-73 -3 -72 77q0 35 12 83l15 56z
M609.5 697.5q20.5 -20.5 20.5 -47.5q1 -29 -21 -49t-47 -19q-25 -2 -47.5 20.5t-20.5 47.5q-1 25 19 47t49 21q27 0 47.5 -20.5zM810.5 697.5q20.5 -20.5 20.5 -47.5q1 -29 -21 -49t-47 -19q-25 -2 -47.5 20.5t-20.5 47.5q-1 25 19 47t49 21q27 0 47.5 -20.5z" />
    <glyph glyph-name="aring" unicode="&#xe5;" horiz-adv-x="680" 
d="M574 138l-58 -68q-79 -83 -154 -85q-43 -1 -74 34q-25 29 -26 78q-1 42 13 80q44 128 134 212q38 37 91 63q42 22 87 30l48 3l44 -6q16 -4 17 -17l-5 -15l-17 -33l-16 10q-36 19 -62 19q-67 -1 -129 -93q-51 -76 -76 -145l-17 -52q-7 -25 -7 -48q0 -52 46 -52
q49 0 108 71l48 62q28 38 63 98l66 114l26 50l9 15q6 7 23 7h36l11 -1l8 -4l4 -5q0 -14 -4 -23l-10 -26l-50 -139l-40 -116l-16 -53l-2 -16q0 -32 25 -34q39 2 89 55l25 25l14 12l11 6l8 -4l3 -10q-3 -11 -14 -23l-61 -64q-63 -66 -125 -65q-73 -3 -72 77q0 35 12 83l15 56z
M792 775q36 -33 36 -80q0 -49 -36 -81t-86 -32t-85 32q-37 35 -37 81t36 79.5t86 33.5t86 -33zM707 763q-73 -5 -78 -68q5 -63 77 -68q73 4 77 68q-5 63 -76 68z" />
    <glyph glyph-name="ae" unicode="&#xe6;" horiz-adv-x="868" 
d="M561 124l-48 -55q-75 -86 -152 -84q-43 -1 -75 35q-26 30 -26 79q-2 87 77 204q67 100 161 149q44 23 87 30l39 3q27 -1 53 -6l13 -6q2 -4 3 -11l-5 -15l-16 -33l-16 10l-32 14q-16 5 -32 5q-84 -1 -158 -142q-30 -52 -45 -96l-17 -52q-7 -25 -7 -48q0 -52 46 -52
q47 0 107 71l48 62q41 55 91 144q37 65 64 118l10 15q8 7 23 7h36l11 -1l10 -8l-2 -10l-9 -22l23 21q40 35 94 35q47 1 80 -26t33 -73q1 -129 -247 -239l-106 -46l2 -15q12 -59 74 -59q68 0 165 77l62 55q9 8 16 9l9 -3q5 -5 5 -11l-3 -11q-31 -43 -114 -100
q-29 -21 -75 -37q-30 -12 -55.5 -17t-50.5 -4q-137 1 -144 124v13l1 11zM678 143l50 23l72 40q35 21 63 45q44 35 59 103l3 32q-1 58 -41 57q-47 0 -107 -96l-44 -77l-31 -64z" />
    <glyph glyph-name="ccedilla" unicode="&#xe7;" horiz-adv-x="529" 
d="M323 -200q-44 7 -41 46q-1 29 24.5 50.5t56.5 21.5q60 -1 60 -59q0 -92 -158 -180q-12 -6 -25 -6l-12 12l8 11l11 8l56 44q23 21 33 34l8 15zM715 384l-4 -14l-12 -7l-9 7l-27 29q-44 44 -83 44q-69 0 -132 -94q-47 -70 -69 -152q-12 -40 -11 -69q3 -77 67 -75
q26 -1 64 16l59 28q42 21 80 47l14 6l11 -6l4 -10q-1 -7 -7 -13l-25 -23q-140 -115 -246 -113q-58 1 -92 39t-34 93q0 72 45 160q40 77 106 131q87 75 190 77q34 0 70 -6q55 -9 55 -33l-3 -23z" />
    <glyph glyph-name="egrave" unicode="&#xe8;" horiz-adv-x="529" 
d="M360 86q13 -58 75 -59q67 1 164 77l62 55q9 8 18 9l9 -3q4 -4 4 -10l-4 -12q-65 -91 -186 -137q-29 -12 -55 -17t-51 -4q-141 1 -143 126q-1 119 112 244.5t238 129.5q43 0 75.5 -26.5t32.5 -71.5q1 -130 -247 -240l-106 -46zM359 143l51 23q169 80 193 188l3 33
q-1 44 -25 53l-16 3q-35 -1 -68 -41l-38 -55l-45 -77l-30 -64zM691 603l12 -13l-5 -8l-17 2l-28 3l-21 5l-22 11l-201 145l-16 14l5 7h17h69q18 -1 27 -3q8 -3 19 -13z" />
    <glyph glyph-name="eacute" unicode="&#xe9;" horiz-adv-x="529" 
d="M360 86q13 -58 75 -59q67 1 164 77l62 55q9 8 18 9l9 -3q4 -4 4 -10l-4 -12q-65 -91 -186 -137q-29 -12 -55 -17t-51 -4q-141 1 -143 126q-1 119 112 244.5t238 129.5q43 0 75.5 -26.5t32.5 -71.5q1 -130 -247 -240l-106 -46zM359 143l51 23q169 80 193 188l3 33
q-1 44 -25 53l-16 3q-35 -1 -68 -41l-38 -55l-45 -77l-30 -64zM726 753q10 10 19 13q8 2 27 3h69h17l5 -7l-16 -14l-201 -145l-22 -11l-20 -5l-29 -3l-17 -2l-4 8l11 13z" />
    <glyph glyph-name="ecircumflex" unicode="&#xea;" horiz-adv-x="529" 
d="M360 86q13 -58 75 -59q67 1 164 77l62 55q9 8 18 9l9 -3q4 -4 4 -10l-4 -12q-65 -91 -186 -137q-29 -12 -55 -17t-51 -4q-141 1 -143 126q-1 119 112 244.5t238 129.5q43 0 75.5 -26.5t32.5 -71.5q1 -130 -247 -240l-106 -46zM359 143l51 23q169 80 193 188l3 33
q-1 44 -25 53l-16 3q-35 -1 -68 -41l-38 -55l-45 -77l-30 -64zM612 638q-99 -58 -188 -56l-18 3l-9 12l16 14l52 27q86 51 139 110l11 12l12 8l16 1h48l21 -3l6 -12l10 -25q20 -48 39 -76q13 -24 41 -52q7 -9 8 -15l-9 -11q-24 -1 -92 57l-44 44v0z" />
    <glyph glyph-name="edieresis" unicode="&#xeb;" horiz-adv-x="529" 
d="M360 86q13 -58 75 -59q67 1 164 77l62 55q9 8 18 9l9 -3q4 -4 4 -10l-4 -12q-65 -91 -186 -137q-29 -12 -55 -17t-51 -4q-141 1 -143 126q-1 119 112 244.5t238 129.5q43 0 75.5 -26.5t32.5 -71.5q1 -130 -247 -240l-106 -46zM359 143l51 23q169 80 193 188l3 33
q-1 44 -25 53l-16 3q-35 -1 -68 -41l-38 -55l-45 -77l-30 -64zM568.5 697.5q20.5 -20.5 20.5 -47.5q1 -29 -21 -49t-47 -19q-25 -2 -47.5 20.5t-20.5 47.5q-1 25 19 47t49 21q27 0 47.5 -20.5zM769.5 697.5q20.5 -20.5 20.5 -47.5q1 -29 -21 -49t-47 -19q-25 -2 -47.5 20.5
t-20.5 47.5q-1 25 19 47t49 21q27 0 47.5 -20.5z" />
    <glyph glyph-name="igrave" unicode="&#xec;" horiz-adv-x="378" 
d="M473 480l21 5q15 -4 15 -19l-3 -15l-100 -305l-12 -42l-3 -23q3 -30 22 -28l8 1q11 5 24 16l48 46l37 41l20 24l11 8l12 -6l7 -11q0 -6 -7 -14q-30 -36 -64 -71q-41 -43 -76 -70q-40 -33 -80 -32q-67 0 -70 71q-1 32 11 73l28 96l63 205q4 14 13 23q9 8 24 13zM615 603
l12 -13l-5 -8l-17 2l-28 3l-21 5l-22 11l-201 145l-16 14l5 7h17h69q18 -1 27 -3q8 -3 19 -13z" />
    <glyph glyph-name="iacute" unicode="&#xed;" horiz-adv-x="378" 
d="M473 480l21 5q15 -4 15 -19l-3 -15l-100 -305l-12 -42l-3 -23q3 -30 22 -28l8 1q11 5 24 16l48 46l37 41l20 24l11 8l12 -6l7 -11q0 -6 -7 -14q-30 -36 -64 -71q-41 -43 -76 -70q-40 -33 -80 -32q-67 0 -70 71q-1 32 11 73l28 96l63 205q4 14 13 23q9 8 24 13zM615 753
q10 10 19 13q8 2 27 3h69h17l5 -7l-16 -14l-201 -145l-22 -11l-20 -5l-29 -3l-17 -2l-4 8l11 13z" />
    <glyph glyph-name="icircumflex" unicode="&#xee;" horiz-adv-x="378" 
d="M473 480l21 5q15 -4 15 -19l-3 -15l-100 -305l-12 -42l-3 -23q3 -30 22 -28l8 1q11 5 24 16l48 46l37 41l20 24l11 8l12 -6l7 -11q0 -6 -7 -14q-30 -36 -64 -71q-41 -43 -76 -70q-40 -33 -80 -32q-67 0 -70 71q-1 32 11 73l28 96l63 205q4 14 13 23q9 8 24 13zM466 638
q-99 -58 -188 -56l-18 3l-9 12l16 14l52 27q86 51 139 110l11 12l12 8l16 1h48l21 -3l6 -12l10 -25q20 -48 39 -76q13 -24 41 -52q7 -9 8 -15l-9 -11q-24 -1 -92 57l-44 44v0z" />
    <glyph glyph-name="idieresis" unicode="&#xef;" horiz-adv-x="378" 
d="M473 480l21 5q15 -4 15 -19l-3 -15l-100 -305l-12 -42l-3 -23q3 -30 22 -28l8 1q11 5 24 16l48 46l37 41l20 24l11 8l12 -6l7 -11q0 -6 -7 -14q-30 -36 -64 -71q-41 -43 -76 -70q-40 -33 -80 -32q-67 0 -70 71q-1 32 11 73l28 96l63 205q4 14 13 23q9 8 24 13z
M457.5 697.5q20.5 -20.5 20.5 -47.5q1 -29 -21 -49t-47 -19q-25 -2 -47.5 20.5t-20.5 47.5q-1 25 19 47t49 21q27 0 47.5 -20.5zM658.5 697.5q20.5 -20.5 20.5 -47.5q1 -29 -21 -49t-47 -19q-25 -2 -47.5 20.5t-20.5 47.5q-1 25 19 47t49 21q27 0 47.5 -20.5z" />
    <glyph glyph-name="eth" unicode="&#xf0;" horiz-adv-x="680" 
d="M967 1143q15 8 27 9q24 -1 22 -21l-4 -13l-12 -11l-157 -88v0l10 -32q42 -151 44 -298q-1 -235 -99 -437q-133 -267 -332 -267q-71 0 -116 38q-49 42 -47 112q-1 117 106 230q114 119 224 120q70 -3 107 -46l11 -16l13 47q27 119 28 276q-1 114 -16 202l-6 28v0l-133 -72
q-21 -11 -32 -11q-23 1 -21 18q-1 8 5 15t17 14l156 87v0l-5 23l-23 107q-18 71 -34 128l-10 32l-9 34l-3 23q-1 24 21 26q13 -1 23 -12l9 -16l9 -25l24 -61l59 -196l7 -24v0zM408 96q0 -18 8 -38l10 -17q13 -15 36 -14q97 0 164 136t66 211q0 64 -66 69q-77 0 -156 -140
q-62 -112 -62 -207z" />
    <glyph glyph-name="ntilde" unicode="&#xf1;" horiz-adv-x="642" 
d="M469 283l72 100q74 100 137 102q38 -1 65 -28t26 -63q-1 -42 -16 -86l-31 -81l-50 -127l-5 -21q0 -26 24 -26q14 0 34 14l49 39l37 34l20 20l11 7l12 -6l5 -6l1 -5q1 -23 -94 -100q-82 -66 -119 -65q-77 1 -75 66q0 36 20 91l31 88l31 88l21 59q6 17 7 32q0 27 -28 32
q-29 -1 -62 -43l-49 -66l-82 -119q-36 -54 -68 -119q-23 -48 -42 -76q-7 -12 -16 -15l-19 -3h-50l-7 7l3 20l4 15l107 386l5 18q4 9 10 14l17 7l59 15l14 3l7 -4l3 -7l-4 -21l-79 -261zM442 600q10 43 49 77t82 34q23 0 44 -9l53 -25q26 -14 52 -20l23 -3q42 1 57 38l11 21
l13 8q4 -2 7 -6l4 -15l-3 -14l-13 -27q-51 -80 -123 -77q-25 0 -44 7l-52 24l-33 16q-23 9 -38 10q-42 -1 -59 -33l-9 -17q-4 -7 -12 -7l-11 5z" />
    <glyph glyph-name="ograve" unicode="&#xf2;" horiz-adv-x="566" 
d="M361 368q118 118 233 117q67 -1 106 -41q46 -46 45 -105q0 -94 -66 -190q-60 -88 -150 -134q-60 -31 -123 -30q-65 0 -111.5 40.5t-45.5 106.5q-1 123 112 236zM354 96q0 -20 8 -38l11 -17l15 -10q9 -5 21 -4q123 -1 209 240q22 62 22 107q0 64 -67 69q-77 0 -156 -141
q-64 -113 -63 -206zM710 603l12 -13l-5 -8l-17 2l-28 3l-21 5l-22 11l-201 145l-16 14l5 7h17h69q18 -1 27 -3q8 -3 19 -13z" />
    <glyph glyph-name="oacute" unicode="&#xf3;" horiz-adv-x="566" 
d="M361 368q118 118 233 117q67 -1 106 -41q46 -46 45 -105q0 -94 -66 -190q-60 -88 -150 -134q-60 -31 -123 -30q-65 0 -111.5 40.5t-45.5 106.5q-1 123 112 236zM354 96q0 -20 8 -38l11 -17l15 -10q9 -5 21 -4q123 -1 209 240q22 62 22 107q0 64 -67 69q-77 0 -156 -141
q-64 -113 -63 -206zM745 753q10 10 19 13q8 2 27 3h69h17l5 -7l-16 -14l-201 -145l-22 -11l-20 -5l-29 -3l-17 -2l-4 8l11 13z" />
    <glyph glyph-name="ocircumflex" unicode="&#xf4;" horiz-adv-x="566" 
d="M361 368q118 118 233 117q67 -1 106 -41q46 -46 45 -105q0 -94 -66 -190q-60 -88 -150 -134q-60 -31 -123 -30q-65 0 -111.5 40.5t-45.5 106.5q-1 123 112 236zM354 96q0 -20 8 -38l11 -17l15 -10q9 -5 21 -4q123 -1 209 240q22 62 22 107q0 64 -67 69q-77 0 -156 -141
q-64 -113 -63 -206zM607 638q-99 -58 -188 -56l-18 3l-9 12l16 14l52 27q86 51 139 110l11 12l12 8l16 1h48l21 -3l6 -12l10 -25q20 -48 39 -76q13 -24 41 -52q7 -9 8 -15l-9 -11q-24 -1 -92 57l-44 44v0z" />
    <glyph glyph-name="otilde" unicode="&#xf5;" horiz-adv-x="566" 
d="M361 368q118 118 233 117q67 -1 106 -41q46 -46 45 -105q0 -94 -66 -190q-60 -88 -150 -134q-60 -31 -123 -30q-65 0 -111.5 40.5t-45.5 106.5q-1 123 112 236zM354 96q0 -20 8 -38l11 -17l15 -10q9 -5 21 -4q123 -1 209 240q22 62 22 107q0 64 -67 69q-77 0 -156 -141
q-64 -113 -63 -206zM404 600q10 43 49 77t82 34q23 0 44 -9l53 -25q26 -14 52 -20l23 -3q42 1 57 38l11 21l13 8q4 -2 7 -6l4 -15l-3 -14l-13 -27q-51 -80 -123 -77q-25 0 -44 7l-52 24l-33 16q-23 9 -38 10q-42 -1 -59 -33l-9 -17q-4 -7 -12 -7l-11 5z" />
    <glyph glyph-name="odieresis" unicode="&#xf6;" horiz-adv-x="566" 
d="M361 368q118 118 233 117q67 -1 106 -41q46 -46 45 -105q0 -94 -66 -190q-60 -88 -150 -134q-60 -31 -123 -30q-65 0 -111.5 40.5t-45.5 106.5q-1 123 112 236zM354 96q0 -20 8 -38l11 -17l15 -10q9 -5 21 -4q123 -1 209 240q22 62 22 107q0 64 -67 69q-77 0 -156 -141
q-64 -113 -63 -206zM598.5 697.5q20.5 -20.5 20.5 -47.5q1 -29 -21 -49t-47 -19q-25 -2 -47.5 20.5t-20.5 47.5q-1 25 19 47t49 21q27 0 47.5 -20.5zM799.5 697.5q20.5 -20.5 20.5 -47.5q1 -29 -21 -49t-47 -19q-25 -2 -47.5 20.5t-20.5 47.5q-1 25 19 47t49 21
q27 0 47.5 -20.5z" />
    <glyph glyph-name="divide" unicode="&#xf7;" horiz-adv-x="1058" 
d="M830 165.5q20 -20.5 20 -46.5q0 -28 -20 -48t-47 -18q-28 -1 -47.5 18.5t-18.5 47.5q-1 26 18.5 46.5t47.5 20.5q27 0 47 -20.5zM1065 267q0 -17 -13 -16h-17h-503l-21 2l-6 5l-3 9v33l10 11l20 2h503l22 -1l8 -12v-33zM830 491q20 -20 20 -46q1 -28 -19.5 -48.5
t-47.5 -18.5q-28 -1 -48 19t-18 48q-1 25 19 45.5t47 20.5t47 -20z" />
    <glyph glyph-name="oslash" unicode="&#xf8;" horiz-adv-x="566" 
d="M734 390q9 -26 9 -51q0 -128 -105 -240q-109 -117 -232 -114q-61 0 -110 41l-12 11v0l-54 -42l-9 -6l-9 -5l-8 4l-10 12l-4 7l6 8l8 7l59 49v0l-5 18q-7 23 -6 46q-1 54 25 108q30 67 83 122.5t117 90.5q54 29 116 29q66 -1 106 -41l8 -8v0l54 41l7 5l4 2l5 -3l12 -13
l4 -7l-2 -5l-5 -4l-58 -47v0zM637 329v0l-280 -235v0l-1 -19l3 -16q3 -10 12 -19l16 -9l22 -4q86 -2 159 126q33 57 53 120l11 38zM359 148v0l280 232v0l-3 17l-7 15q-16 21 -41 29l-20 2q-60 -3 -121 -91q-46 -68 -71 -139l-14 -51z" />
    <glyph glyph-name="ugrave" unicode="&#xf9;" horiz-adv-x="680" 
d="M628 254l-42 -68q-123 -203 -213 -201q-38 -1 -59 26t-20 59q-1 40 16 105l31 125l39 127l10 27q5 9 24 14l47 14l16 3q5 0 9 -4l3 -8l-2 -11l-13 -39l-34 -107l-59 -195q-12 -37 -11 -63q0 -24 28 -29l16 3q20 9 43 35l51 62q33 46 70 104l80 143l35 66l10 16l12 9l17 3
h45l17 -3l7 -6l2 -10l-3 -15l-9 -30l-30 -89l-41 -134l-18 -64l-4 -28q0 -39 29 -38q13 1 30 12l48 39l38 33q11 10 19 11l7 -3l7 -11q-1 -8 -11 -19l-39 -38l-51 -45q-60 -48 -99 -47q-68 -1 -69 83q-1 32 12 81l23 86l24 79zM747 603l12 -13l-5 -8l-17 2l-28 3l-21 5
l-22 11l-201 145l-16 14l5 7h17h69q18 -1 27 -3q8 -3 19 -13z" />
    <glyph glyph-name="uacute" unicode="&#xfa;" horiz-adv-x="680" 
d="M628 254l-42 -68q-123 -203 -213 -201q-38 -1 -59 26t-20 59q-1 40 16 105l31 125l39 127l10 27q5 9 24 14l47 14l16 3q5 0 9 -4l3 -8l-2 -11l-13 -39l-34 -107l-59 -195q-12 -37 -11 -63q0 -24 28 -29l16 3q20 9 43 35l51 62q33 46 70 104l80 143l35 66l10 16l12 9l17 3
h45l17 -3l7 -6l2 -10l-3 -15l-9 -30l-30 -89l-41 -134l-18 -64l-4 -28q0 -39 29 -38q13 1 30 12l48 39l38 33q11 10 19 11l7 -3l7 -11q-1 -8 -11 -19l-39 -38l-51 -45q-60 -48 -99 -47q-68 -1 -69 83q-1 32 12 81l23 86l24 79zM767 753q10 10 19 13q8 2 27 3h69h17l5 -7
l-16 -14l-201 -145l-22 -11l-20 -5l-29 -3l-17 -2l-4 8l11 13z" />
    <glyph glyph-name="ucircumflex" unicode="&#xfb;" horiz-adv-x="680" 
d="M628 254l-42 -68q-123 -203 -213 -201q-38 -1 -59 26t-20 59q-1 40 16 105l31 125l39 127l10 27q5 9 24 14l47 14l16 3q5 0 9 -4l3 -8l-2 -11l-13 -39l-34 -107l-59 -195q-12 -37 -11 -63q0 -24 28 -29l16 3q20 9 43 35l51 62q33 46 70 104l80 143l35 66l10 16l12 9l17 3
h45l17 -3l7 -6l2 -10l-3 -15l-9 -30l-30 -89l-41 -134l-18 -64l-4 -28q0 -39 29 -38q13 1 30 12l48 39l38 33q11 10 19 11l7 -3l7 -11q-1 -8 -11 -19l-39 -38l-51 -45q-60 -48 -99 -47q-68 -1 -69 83q-1 32 12 81l23 86l24 79zM641 638q-99 -58 -188 -56l-18 3l-9 12l16 14
l52 27q86 51 139 110l11 12l12 8l16 1h48l21 -3l6 -12l10 -25q20 -48 39 -76q13 -24 41 -52q7 -9 8 -15l-9 -11q-24 -1 -92 57l-44 44v0z" />
    <glyph glyph-name="udieresis" unicode="&#xfc;" horiz-adv-x="680" 
d="M628 254l-42 -68q-123 -203 -213 -201q-38 -1 -59 26t-20 59q-1 40 16 105l31 125l39 127l10 27q5 9 24 14l47 14l16 3q5 0 9 -4l3 -8l-2 -11l-13 -39l-34 -107l-59 -195q-12 -37 -11 -63q0 -24 28 -29l16 3q20 9 43 35l51 62q33 46 70 104l80 143l35 66l10 16l12 9l17 3
h45l17 -3l7 -6l2 -10l-3 -15l-9 -30l-30 -89l-41 -134l-18 -64l-4 -28q0 -39 29 -38q13 1 30 12l48 39l38 33q11 10 19 11l7 -3l7 -11q-1 -8 -11 -19l-39 -38l-51 -45q-60 -48 -99 -47q-68 -1 -69 83q-1 32 12 81l23 86l24 79zM597.5 697.5q20.5 -20.5 20.5 -47.5
q1 -29 -21 -49t-47 -19q-25 -2 -47.5 20.5t-20.5 47.5q-1 25 19 47t49 21q27 0 47.5 -20.5zM798.5 697.5q20.5 -20.5 20.5 -47.5q1 -29 -21 -49t-47 -19q-25 -2 -47.5 20.5t-20.5 47.5q-1 25 19 47t49 21q27 0 47.5 -20.5z" />
    <glyph glyph-name="yacute" unicode="&#xfd;" horiz-adv-x="604" 
d="M645 308v0l-51 -82l-42 -66q-114 -174 -200 -173q-40 -1 -61 32.5t-19 71.5q-1 34 10 78l24 94l31 109l19 62q3 12 10 19q6 8 21 13l50 17l15 2l9 -4l5 -8l-3 -23l-15 -47l-66 -205l-24 -80q-10 -36 -10 -56q0 -28 32 -33q29 -2 60 36l54 70q40 58 67 102l58 99l45 81
l21 39q6 11 16 15l25 6l24 5l20 3l11 -4l4 -8l-9 -35l-104 -369v0l65 59l14 11l6 1l12 -9l5 -10l-2 -5l-13 -14l-95 -87v0l-36 -99l-41 -121q-29 -84 -71 -160q-79 -148 -177 -145q-72 1 -73 73q0 74 80 185q37 52 93 113l83 87l25 25v0zM515 -111v0l-40 -41l-57 -63
q-110 -137 -111 -218q0 -14 6 -23l9 -8l15 -4q51 -2 90 95l28 80l26 76zM682 753q10 10 19 13q8 2 27 3h69h17l5 -7l-16 -14l-201 -145l-22 -11l-20 -5l-29 -3l-17 -2l-4 8l11 13z" />
    <glyph glyph-name="thorn" unicode="&#xfe;" horiz-adv-x="642" 
d="M444 269q21 44 44 84.5t55 73.5q52 56 125 58q65 1 110 -48q41 -46 42 -113q-2 -126 -79 -228q-85 -113 -209 -111q-35 -1 -70 10q-57 14 -56 42q0 9 7 19l8 9l20 -10l37 -18q21 -10 36 -10q70 -1 133 113q47 82 63 171q5 27 5 55q0 75 -64 77q-84 -1 -167 -161l-58 -121
q-68 -154 -121 -326l-52 -167l-43 -126l-7 -19q-6 -10 -12 -14l-14 -5l-55 -14h-8l-10 4l-4 6l1 12l64 210l80 276l208 707l74 264l82 281l11 42l10 31q10 27 25 37l25 11l67 26l16 3l8 -7l3 -10l-17 -57l-14 -42l-54 -167l-115 -378l-112 -375l-52 -172z" />
    <glyph glyph-name="ydieresis" unicode="&#xff;" horiz-adv-x="604" 
d="M645 308v0l-51 -82l-42 -66q-114 -174 -200 -173q-40 -1 -61 32.5t-19 71.5q-1 34 10 78l24 94l31 109l19 62q3 12 10 19q6 8 21 13l50 17l15 2l9 -4l5 -8l-3 -23l-15 -47l-66 -205l-24 -80q-10 -36 -10 -56q0 -28 32 -33q29 -2 60 36l54 70q40 58 67 102l58 99l45 81
l21 39q6 11 16 15l25 6l24 5l20 3l11 -4l4 -8l-9 -35l-104 -369v0l65 59l14 11l6 1l12 -9l5 -10l-2 -5l-13 -14l-95 -87v0l-36 -99l-41 -121q-29 -84 -71 -160q-79 -148 -177 -145q-72 1 -73 73q0 74 80 185q37 52 93 113l83 87l25 25v0zM515 -111v0l-40 -41l-57 -63
q-110 -137 -111 -218q0 -14 6 -23l9 -8l15 -4q51 -2 90 95l28 80l26 76zM559.5 697.5q20.5 -20.5 20.5 -47.5q1 -29 -21 -49t-47 -19q-25 -2 -47.5 20.5t-20.5 47.5q-1 25 19 47t49 21q27 0 47.5 -20.5zM760.5 697.5q20.5 -20.5 20.5 -47.5q1 -29 -21 -49t-47 -19
q-25 -2 -47.5 20.5t-20.5 47.5q-1 25 19 47t49 21q27 0 47.5 -20.5z" />
    <glyph glyph-name="Amacron" unicode="&#x100;" horiz-adv-x="1813" 
d="M1310 351q-147 -163 -320 -269q-210 -127 -544 -129q-136 -1 -237 47l-13 9l-4 8l1 5l4 8l34 41l13 9l13 2q9 -3 24 -10q116 -70 283 -69q113 -1 218 33q119 38 213 107q133 98 257 241q114 130 240 307q88 124 201 296l160 244l147 213q43 62 89 98q15 12 28 12
q54 0 56 -113q0 -68 -15 -150q-25 -135 -80 -321l-95 -308l-29 -91l-29 -93h26l57 4l12 -4l6 -8l-1 -9l-5 -7q-7 -5 -29 -6l-47 -4h-28l-155 -444h-74l-10 28q-35 88 -98 199q-63 110 -115 175l-54 64v0zM1473 458l44 -57q35 -49 77 -112q46 -71 69 -121l33 -80l112 353h-85
q-84 2 -250 17v0zM1439 509v0l30 -6q104 -19 241 -21h109l147 477l65 221q40 137 59 243l1 21l-6 17l-28 -25q-68 -95 -126 -187l-218 -339q-47 -74 -179 -264zM1883 1650l9 39q2 9 9 12q8 4 22 4h454q16 0 20 -1l8 -7l-3 -14l-10 -33l-8 -20l-27 -2h-455h-15l-7 8z" />
    <glyph glyph-name="amacron" unicode="&#x101;" horiz-adv-x="680" 
d="M574 138l-58 -68q-79 -83 -154 -85q-43 -1 -74 34q-25 29 -26 78q-1 42 13 80q44 128 134 212q38 37 91 63q42 22 87 30l48 3l44 -6q16 -4 17 -17l-5 -15l-17 -33l-16 10q-36 19 -62 19q-67 -1 -129 -93q-51 -76 -76 -145l-17 -52q-7 -25 -7 -48q0 -52 46 -52
q49 0 108 71l48 62q28 38 63 98l66 114l26 50l9 15q6 7 23 7h36l11 -1l8 -4l4 -5q0 -14 -4 -23l-10 -26l-50 -139l-40 -116l-16 -53l-2 -16q0 -32 25 -34q39 2 89 55l25 25l14 12l11 6l8 -4l3 -10q-3 -11 -14 -23l-61 -64q-63 -66 -125 -65q-73 -3 -72 77q0 35 12 83l15 56z
M1000 583h-260l-6 1l-3 5q0 2 2 8l11 35l5 7q5 3 14 3h253q11 0 15 -1l4 -5q0 -4 -1 -7l-12 -36l-8 -9q-4 -1 -14 -1z" />
    <glyph glyph-name="Abreve" unicode="&#x102;" horiz-adv-x="1813" 
d="M1310 351q-147 -163 -320 -269q-210 -127 -544 -129q-136 -1 -237 47l-13 9l-4 8l1 5l4 8l34 41l13 9l13 2q9 -3 24 -10q116 -70 283 -69q113 -1 218 33q119 38 213 107q133 98 257 241q114 130 240 307q88 124 201 296l160 244l147 213q43 62 89 98q15 12 28 12
q54 0 56 -113q0 -68 -15 -150q-25 -135 -80 -321l-95 -308l-29 -91l-29 -93h26l57 4l12 -4l6 -8l-1 -9l-5 -7q-7 -5 -29 -6l-47 -4h-28l-155 -444h-74l-10 28q-35 88 -98 199q-63 110 -115 175l-54 64v0zM1473 458l44 -57q35 -49 77 -112q46 -71 69 -121l33 -80l112 353h-85
q-84 2 -250 17v0zM1439 509v0l30 -6q104 -19 241 -21h109l147 477l65 221q40 137 59 243l1 21l-6 17l-28 -25q-68 -95 -126 -187l-218 -339q-47 -74 -179 -264zM2360 1825h60q9 0 12 -1l5 -6l-2 -6q-44 -70 -133.5 -127t-165.5 -57q-108 0 -108 107q0 77 26 89l7 1h22
q10 0 13 -1l3 -3q0 -9 -1 -11l-16 -34q-9 -19 -9 -41q0 -61 59 -61q67 0 124 66l59 68q4 5 11 10q9 7 34 7z" />
    <glyph glyph-name="abreve" unicode="&#x103;" horiz-adv-x="680" 
d="M574 138l-58 -68q-79 -83 -154 -85q-43 -1 -74 34q-25 29 -26 78q-1 42 13 80q44 128 134 212q38 37 91 63q42 22 87 30l48 3l44 -6q16 -4 17 -17l-5 -15l-17 -33l-16 10q-36 19 -62 19q-67 -1 -129 -93q-51 -76 -76 -145l-17 -52q-7 -25 -7 -48q0 -52 46 -52
q49 0 108 71l48 62q28 38 63 98l66 114l26 50l9 15q6 7 23 7h36l11 -1l8 -4l4 -5q0 -14 -4 -23l-10 -26l-50 -139l-40 -116l-16 -53l-2 -16q0 -32 25 -34q39 2 89 55l25 25l14 12l11 6l8 -4l3 -10q-3 -11 -14 -23l-61 -64q-63 -66 -125 -65q-73 -3 -72 77q0 35 12 83l15 56z
M570 763l10 -4v-6l-4 -7q-23 -33 -25 -77q-3 -49 55 -47q71 1 132 74l48 55q6 8 14 10l17 2h63l15 -1l1 -8l-9 -13l-37 -41q-87 -97 -184 -113q-25 -6 -48 -5q-98 1 -98 91q0 29 8 61l7 20l5 5l9 4h21z" />
    <glyph glyph-name="Aogonek" unicode="&#x104;" horiz-adv-x="1813" 
d="M1310 351q-147 -163 -320 -269q-210 -127 -544 -129q-136 -1 -237 47l-13 9l-4 8l1 5l4 8l34 41l13 9l13 2q9 -3 24 -10q116 -70 283 -69q113 -1 218 33q119 38 213 107q133 98 257 241q114 130 240 307q88 124 201 296l160 244l147 213q43 62 89 98q15 12 28 12
q54 0 56 -113q0 -68 -15 -150q-25 -135 -80 -321l-95 -308l-29 -91l-29 -93h26l57 4l12 -4l6 -8l-1 -9l-5 -7q-7 -5 -29 -6l-47 -4h-28l-155 -444h-74l-10 28q-35 88 -98 199q-63 110 -115 175l-54 64v0zM1473 458l44 -57q35 -49 77 -112q46 -71 69 -121l33 -80l112 353h-85
q-84 2 -250 17v0zM1439 509v0l30 -6q104 -19 241 -21h109l147 477l65 221q40 137 59 243l1 21l-6 17l-28 -25q-68 -95 -126 -187l-218 -339q-47 -74 -179 -264zM1724 54h62l-15 -15q-87 -90 -87 -174q0 -39 32 -39q25 0 65 32.5t52 46.5q14 17 23 17q14 0 14 -12
q0 -23 -67 -79.5t-123 -56.5q-80 0 -80 83q0 104 124 197z" />
    <glyph glyph-name="aogonek" unicode="&#x105;" horiz-adv-x="680" 
d="M574 138l-58 -68q-79 -83 -154 -85q-43 -1 -74 34q-25 29 -26 78q-1 42 13 80q44 128 134 212q38 37 91 63q42 22 87 30l48 3l44 -6q16 -4 17 -17l-5 -15l-17 -33l-16 10q-36 19 -62 19q-67 -1 -129 -93q-51 -76 -76 -145l-17 -52q-7 -25 -7 -48q0 -52 46 -52
q49 0 108 71l48 62q28 38 63 98l66 114l26 50l9 15q6 7 23 7h36l11 -1l8 -4l4 -5q0 -14 -4 -23l-10 -26l-50 -139l-40 -116l-16 -53l-2 -16q0 -32 25 -34q39 2 89 55l25 25l14 12l11 6l8 -4l3 -10q-3 -11 -14 -23l-61 -64q-63 -66 -125 -65q-73 -3 -72 77q0 35 12 83l15 56z
M701 25l-12 -13l-29 -33q-20 -22 -32 -47q-18 -32 -17 -65q-1 -34 28 -35q14 0 27 7l31 21q32 25 43 37l15 14l10 2l11 -11q0 -20 -73 -75q-55 -41 -95 -39q-69 -1 -70 72q2 80 94 154l15 11h54z" />
    <glyph glyph-name="Cacute" unicode="&#x106;" horiz-adv-x="1133" 
d="M1086 1062q4 15 14 23l22 12q141 57 228 112q167 105 169 183q-1 79 -128 81q-51 0 -99 -13q-321 -87 -590 -427q-275 -346 -276 -671q0 -156 99.5 -258t255.5 -101q94 -1 194 31q131 41 228 103l37 23l13 4q10 -1 17 -11l6 -16l-1 -8l-14 -11l-82 -48q-53 -31 -130 -59
q-70 -26 -140 -40q-87 -19 -168 -18q-133 0 -235 58q-112 63 -149 186q-28 84 -27 180q-2 325 269 666q254 318 578 435q66 24 124 35q51 10 104 10q77 -2 118 -34q55 -42 55 -107q0 -125 -187 -262q-132 -96 -295 -150l-23 -2l-8 6l-2 8l6 21zM1628 1896l-206 -244l-17 -17
l-23 -2l-29 -3l-18 -2l-6 6l8 18l157 247q10 15 18 19q9 4 30 4h73l21 -1l3 -9q-2 -5 -11 -16z" />
    <glyph glyph-name="cacute" unicode="&#x107;" horiz-adv-x="529" 
d="M709 384l-4 -14l-12 -7l-9 7l-27 29q-44 44 -83 44q-69 0 -132 -94q-47 -70 -69 -152q-12 -40 -11 -69q3 -77 67 -75q26 -1 64 16l59 28q42 21 80 47l14 6l11 -6l4 -10q-1 -7 -7 -13l-25 -23q-140 -115 -246 -113q-58 1 -92 39t-34 93q0 72 45 160q40 77 106 131
q87 75 190 77q34 0 70 -6q55 -9 55 -33l-3 -23zM716 753q10 10 19 13q8 2 27 3h69h17l5 -7l-16 -14l-201 -145l-22 -11l-20 -5l-29 -3l-17 -2l-4 8l11 13z" />
    <glyph glyph-name="Ccaron" unicode="&#x10c;" horiz-adv-x="1133" 
d="M1086 1062q4 15 14 23l22 12q141 57 228 112q167 105 169 183q-1 79 -128 81q-51 0 -99 -13q-321 -87 -590 -427q-275 -346 -276 -671q0 -156 99.5 -258t255.5 -101q94 -1 194 31q131 41 228 103l37 23l13 4q10 -1 17 -11l6 -16l-1 -8l-14 -11l-82 -48q-53 -31 -130 -59
q-70 -26 -140 -40q-87 -19 -168 -18q-133 0 -235 58q-112 63 -149 186q-28 84 -27 180q-2 325 269 666q254 318 578 435q66 24 124 35q51 10 104 10q77 -2 118 -34q55 -42 55 -107q0 -125 -187 -262q-132 -96 -295 -150l-23 -2l-8 6l-2 8l6 21zM1376 1747
q142 94 263.5 142.5t175.5 48.5h10q14 -4 14 -16q0 -20 -48 -34q-43 -12 -142.5 -70t-163.5 -116l-66 -60q-15 -14 -37 -14h-41q-24 0 -32 22l-20 57q-39 112 -117 197l-10 17q0 12 19 12q34 0 195 -186v0z" />
    <glyph glyph-name="ccaron" unicode="&#x10d;" horiz-adv-x="529" 
d="M709 384l-4 -14l-12 -7l-9 7l-27 29q-44 44 -83 44q-69 0 -132 -94q-47 -70 -69 -152q-12 -40 -11 -69q3 -77 67 -75q26 -1 64 16l59 28q42 21 80 47l14 6l11 -6l4 -10q-1 -7 -7 -13l-25 -23q-140 -115 -246 -113q-58 1 -92 39t-34 93q0 72 45 160q40 77 106 131
q87 75 190 77q34 0 70 -6q55 -9 55 -33l-3 -23zM656 714q51 30 98 42q55 14 99 14l18 -3l9 -12l-16 -14l-55 -27q-88 -44 -147 -110l-12 -12l-12 -6l-14 -3h-45q-16 -2 -20 4l-6 11l-10 25l-35 76q-16 28 -38 52q-9 8 -9 15l3 8l7 3q24 -1 87 -57l40 -42v0z" />
    <glyph glyph-name="Dcaron" unicode="&#x10e;" horiz-adv-x="1813" 
d="M840 67q-156 -67 -290 -67q-74 0 -145 18q-110 27 -110 81q-1 50 92 93q63 28 133 41q45 8 100 8q109 -2 309 -51v0l22 21q86 83 136 178q56 103 113 252l101 269l87 249l30 86v0l-86 61q-175 112 -383 158q-82 18 -159 18q-49 0 -94 -13q-115 -31 -113 -115
q0 -54 85 -173l61 -81l42 -48l7 -14l-4 -9l-16 -10l-38 -15l-18 -4q-12 1 -23 11l-34 45l-64 92q-59 86 -57 178q-2 109 113 167q76 37 210 39q92 0 203 -19q186 -33 338 -119l69 -42v0l12 31l23 72q5 17 19 26l21 10l66 28l17 4l9 -9l-13 -39l-69 -190v0l48 -41
q379 -329 383 -685q0 -154 -78 -282q-81 -132 -213 -200q-71 -38 -169.5 -57.5t-192.5 -19.5q-113 0 -215 26q-68 16 -148 44l-63 21v0zM391 96l29 -16q23 -12 55 -19q44 -13 83 -11q52 -1 128 17q55 11 91 27l26 12v0l-44 15q-99 28 -177 27q-104 -1 -166 -36zM998 166v0
l66 -20q84 -25 169 -38q91 -16 171 -15q240 0 375 130q55 52 79 129q19 59 19 130q-2 179 -103 359t-225 299l-45 40v0l-42 -120l-41 -121q-138 -407 -226 -546q-49 -77 -113 -145zM1581 1747q142 94 263.5 142.5t175.5 48.5h10q14 -4 14 -16q0 -20 -48 -34
q-43 -12 -142.5 -70t-163.5 -116l-66 -60q-15 -14 -37 -14h-41q-24 0 -32 22l-20 57q-39 112 -117 197l-10 17q0 12 19 12q34 0 195 -186v0z" />
    <glyph glyph-name="dcaron" unicode="&#x10f;" horiz-adv-x="793" 
d="M540 70q-74 -86 -156 -85q-130 2 -129 139q-2 126 119 248q111 113 252 113q30 -1 57 -6l23 -6l119 401l127 432l12 28q7 12 20 19l19 10l62 31l17 6q16 -3 18 -21l-1 -10l-19 -53l-43 -126l-75 -224l-77 -252l-81 -256l-65 -216l-36 -121q-7 -20 -6 -37q0 -28 27 -31
q19 -1 39 15l62 52l37 35l15 10l6 -3l6 -6l1 -6q-4 -30 -89 -104q-68 -61 -119 -61q-75 2 -74 93l2 39l6 48zM693 431l-23 6q-25 6 -48 6q-102 0 -183 -107.5t-79 -205.5q-3 -84 65 -84q39 0 86 47q29 27 55 63q59 78 103 200zM1255 1335q-55 15 -59 73q4 70 73 73
q77 -3 79 -89q-2 -68 -52 -143q-31 -47 -69 -84l-11 -9l-9 -3q-16 -1 -15 13l4 10l15 23l35 51q15 23 31 61l7 18z" />
    <glyph glyph-name="Dslash" unicode="&#x110;" horiz-adv-x="1813" 
d="M945 538q-20 -1 -27 4l-7 8v14l11 34l7 11l9 5l28 2h222l7 20l99 270l86 252l29 87v0l-87 61q-96 61 -214 107q-85 32 -170 51q-78 17 -153 17q-54 0 -100 -13q-113 -31 -115 -116q1 -53 85 -172l61 -81l42 -48l7 -13l-4 -9q-8 -9 -16 -11l-38 -15l-16 -5q-23 0 -61 57
l-62 92q-20 27 -39 79t-18 99q-2 110 114 167q76 37 210 39q93 0 203 -19q185 -33 339 -119l70 -43v0l9 32q24 85 42 98l21 10l66 28l14 5l12 -10l-13 -39l-66 -190v0l49 -41q154 -131 256 -280q130 -191 132 -406q0 -152 -79 -281.5t-210 -198.5q-70 -38 -168.5 -57.5
t-188.5 -19.5q-105 -1 -216 26q-63 14 -147 43l-64 22v0l-53 -24q-151 -67 -290 -67q-82 0 -161 23q-91 24 -92 75q-2 51 92 93q66 29 132 41q44 8 100 8q123 -1 305 -52v0l23 23q111 115 194 302l11 25h-212zM396 96l29 -16q58 -29 136 -30q50 -1 127 17q55 11 90 27l26 13
v0l-40 13q-35 11 -70 17q-55 10 -107 10q-53 -1 -100 -11q-35 -8 -66 -25zM1003 165v0l64 -20q77 -23 169.5 -38t167.5 -14q113 0 215 34q90 29 157 96q97 96 97 259q-2 245 -224 534q-61 79 -110 124l-44 38v0l-41 -120l-40 -122l-109 -309l-2 -11h113l25 -3l3 -9l-2 -14
l-9 -31q-3 -12 -9 -15q-9 -6 -26 -6h-126v0l-16 -37q-66 -144 -170 -255z" />
    <glyph glyph-name="dcroat" unicode="&#x111;" horiz-adv-x="680" 
d="M540 70q-71 -86 -155 -85q-131 2 -130 139q-1 42 13 80q41 117 137 198.5t226 82.5q29 0 52 -5l23 -6l42 151h-126l-16 2l-4 8l4 17l6 12q4 6 10 9l12 2h128l65 206l125 426l12 28q8 10 20 19l19 10l62 31l16 5q16 -3 19 -20l-1 -10l-19 -53l-43 -126l-75 -223l-46 -148
l-44 -148h121l11 -2q6 -3 7 -10l-1 -11l-8 -16l-10 -6l-16 -2h-116l-54 -155l-67 -225l-36 -124q-7 -21 -6 -37q-1 -32 24 -31q22 0 42 15l62 52l37 35l15 10l6 -4l7 -11q-3 -20 -61 -79q-83 -85 -148 -86q-75 -2 -73 93l2 39l6 48zM693 432l-23 6q-22 5 -45 5
q-105 0 -183 -107t-82 -205q4 -82 64 -85q57 1 142 111q37 49 63 102q21 43 40 97z" />
    <glyph glyph-name="Emacron" unicode="&#x112;" horiz-adv-x="1171" 
d="M1281 109q-5 -18 -12 -26q-9 -10 -31 -18l-106 -36l-122 -34q-162 -41 -304 -42q-181 -1 -284 55q-143 77 -145 238q1 166 166 354q74 83 148 138q63 44 146 86l96 49q12 7 21 16q4 3 4 10l-1 5l-8 12l-24 27q-74 78 -73 136q-1 60 28 108q66 115 214 205q131 79 278 113
q80 18 158 18q193 0 197 -127q-2 -79 -87 -233l-50 -84l-16 -21l-8 -3l-17 14l-26 43q-12 19 -12 28q-2 7 10 22q50 76 89 156q21 43 21 78q-5 80 -108 77q-93 0 -221 -50q-114 -45 -193 -116q-52 -46 -94 -103q-68 -91 -67 -160q2 -43 37 -111l21 -43q10 -25 11 -48
q-2 -46 -57 -80l-91 -53q-74 -41 -134 -86q-81 -59 -142 -135q-119 -148 -120 -291q1 -92 74 -148q63 -48 163 -46q100 -1 212 27q123 30 225 74l175 76l51 22q9 5 19 5l7 -4l2 -8l-4 -21zM1173 1650l9 39q2 9 9 12q8 4 22 4h454q16 0 20 -1l8 -7l-3 -14l-10 -33l-8 -20
l-27 -2h-455h-15l-7 8z" />
    <glyph glyph-name="emacron" unicode="&#x113;" horiz-adv-x="529" 
d="M360 86q13 -58 75 -59q67 1 164 77l62 55q9 8 18 9l9 -3q4 -4 4 -10l-4 -12q-65 -91 -186 -137q-29 -12 -55 -17t-51 -4q-141 1 -143 126q-1 119 112 244.5t238 129.5q43 0 75.5 -26.5t32.5 -71.5q1 -130 -247 -240l-106 -46zM359 143l51 23q169 80 193 188l3 33
q-1 44 -25 53l-16 3q-35 -1 -68 -41l-38 -55l-45 -77l-30 -64zM925 583h-260l-6 1l-3 5q0 2 2 8l11 35l5 7q5 3 14 3h253q11 0 15 -1l4 -5q0 -4 -1 -7l-12 -36l-8 -9q-4 -1 -14 -1z" />
    <glyph glyph-name="Eoverdot" unicode="&#x116;" horiz-adv-x="1171" 
d="M1281 109q-5 -18 -12 -26q-9 -10 -31 -18l-106 -36l-122 -34q-162 -41 -304 -42q-181 -1 -284 55q-143 77 -145 238q1 166 166 354q74 83 148 138q63 44 146 86l96 49q12 7 21 16q4 3 4 10l-1 5l-8 12l-24 27q-74 78 -73 136q-1 60 28 108q66 115 214 205q131 79 278 113
q80 18 158 18q193 0 197 -127q-2 -79 -87 -233l-50 -84l-16 -21l-8 -3l-17 14l-26 43q-12 19 -12 28q-2 7 10 22q50 76 89 156q21 43 21 78q-5 80 -108 77q-93 0 -221 -50q-114 -45 -193 -116q-52 -46 -94 -103q-68 -91 -67 -160q2 -43 37 -111l21 -43q10 -25 11 -48
q-2 -46 -57 -80l-91 -53q-74 -41 -134 -86q-81 -59 -142 -135q-119 -148 -120 -291q1 -92 74 -148q63 -48 163 -46q100 -1 212 27q123 30 225 74l175 76l51 22q9 5 19 5l7 -4l2 -8l-4 -21zM1438 1809q39 0 65 -26.5t26 -63.5q0 -38 -26 -64.5t-64 -26.5t-64.5 26t-26.5 64
t26 64.5t64 26.5z" />
    <glyph glyph-name="eoverdot" unicode="&#x117;" horiz-adv-x="529" 
d="M360 86q13 -58 75 -59q67 1 164 77l62 55q9 8 18 9l9 -3q4 -4 4 -10l-4 -12q-65 -91 -186 -137q-29 -12 -55 -17t-51 -4q-141 1 -143 126q-1 119 112 244.5t238 129.5q43 0 75.5 -26.5t32.5 -71.5q1 -130 -247 -240l-106 -46zM359 143l51 23q169 80 193 188l3 33
q-1 44 -25 53l-16 3q-35 -1 -68 -41l-38 -55l-45 -77l-30 -64zM647 697.5q21 -20.5 21 -47.5t-21 -47.5t-47 -20.5q-27 0 -47.5 20.5t-20.5 47.5t20.5 47.5t47.5 20.5q26 0 47 -20.5z" />
    <glyph glyph-name="Eogonek" unicode="&#x118;" horiz-adv-x="1171" 
d="M1281 109q-5 -18 -12 -26q-9 -10 -31 -18l-106 -36l-122 -34q-162 -41 -304 -42q-181 -1 -284 55q-143 77 -145 238q1 166 166 354q74 83 148 138q63 44 146 86l96 49q12 7 21 16q4 3 4 10l-1 5l-8 12l-24 27q-74 78 -73 136q-1 60 28 108q66 115 214 205q131 79 278 113
q80 18 158 18q193 0 197 -127q-2 -79 -87 -233l-50 -84l-16 -21l-8 -3l-17 14l-26 43q-12 19 -12 28q-2 7 10 22q50 76 89 156q21 43 21 78q-5 80 -108 77q-93 0 -221 -50q-114 -45 -193 -116q-52 -46 -94 -103q-68 -91 -67 -160q2 -43 37 -111l21 -43q10 -25 11 -48
q-2 -46 -57 -80l-91 -53q-74 -41 -134 -86q-81 -59 -142 -135q-119 -148 -120 -291q1 -92 74 -148q63 -48 163 -46q100 -1 212 27q123 30 225 74l175 76l51 22q9 5 19 5l7 -4l2 -8l-4 -21zM675 -6h62l-15 -15q-87 -90 -87 -174q0 -39 32 -39q25 0 65 32.5t52 46.5
q14 17 23 17q14 0 14 -12q0 -23 -67 -79.5t-123 -56.5q-80 0 -80 83q0 104 124 197z" />
    <glyph glyph-name="eogonek" unicode="&#x119;" horiz-adv-x="529" 
d="M360 86q13 -58 75 -59q67 1 164 77l62 55q9 8 18 9l9 -3q4 -4 4 -10l-4 -12q-65 -91 -186 -137q-29 -12 -55 -17t-51 -4q-141 1 -143 126q-1 119 112 244.5t238 129.5q43 0 75.5 -26.5t32.5 -71.5q1 -130 -247 -240l-106 -46zM359 143l51 23q169 80 193 188l3 33
q-1 44 -25 53l-16 3q-35 -1 -68 -41l-38 -55l-45 -77l-30 -64zM536 25l-12 -13l-29 -33q-20 -22 -32 -47q-18 -32 -17 -65q-1 -34 28 -35q14 0 27 7l31 21q32 25 43 37l15 14l10 2l11 -11q0 -20 -73 -75q-55 -41 -95 -39q-69 -1 -70 72q2 80 94 154l15 11h54z" />
    <glyph glyph-name="Ecaron" unicode="&#x11a;" horiz-adv-x="1171" 
d="M1281 109q-5 -18 -12 -26q-9 -10 -31 -18l-106 -36l-122 -34q-162 -41 -304 -42q-181 -1 -284 55q-143 77 -145 238q1 166 166 354q74 83 148 138q63 44 146 86l96 49q12 7 21 16q4 3 4 10l-1 5l-8 12l-24 27q-74 78 -73 136q-1 60 28 108q66 115 214 205q131 79 278 113
q80 18 158 18q193 0 197 -127q-2 -79 -87 -233l-50 -84l-16 -21l-8 -3l-17 14l-26 43q-12 19 -12 28q-2 7 10 22q50 76 89 156q21 43 21 78q-5 80 -108 77q-93 0 -221 -50q-114 -45 -193 -116q-52 -46 -94 -103q-68 -91 -67 -160q2 -43 37 -111l21 -43q10 -25 11 -48
q-2 -46 -57 -80l-91 -53q-74 -41 -134 -86q-81 -59 -142 -135q-119 -148 -120 -291q1 -92 74 -148q63 -48 163 -46q100 -1 212 27q123 30 225 74l175 76l51 22q9 5 19 5l7 -4l2 -8l-4 -21zM1385 1747q142 94 263.5 142.5t175.5 48.5h10q14 -4 14 -16q0 -20 -48 -34
q-43 -12 -142.5 -70t-163.5 -116l-66 -60q-15 -14 -37 -14h-41q-24 0 -32 22l-20 57q-39 112 -117 197l-10 17q0 12 19 12q34 0 195 -186v0z" />
    <glyph glyph-name="ecaron" unicode="&#x11b;" horiz-adv-x="529" 
d="M360 86q13 -58 75 -59q67 1 164 77l62 55q9 8 18 9l9 -3q4 -4 4 -10l-4 -12q-65 -91 -186 -137q-29 -12 -55 -17t-51 -4q-141 1 -143 126q-1 119 112 244.5t238 129.5q43 0 75.5 -26.5t32.5 -71.5q1 -130 -247 -240l-106 -46zM359 143l51 23q169 80 193 188l3 33
q-1 44 -25 53l-16 3q-35 -1 -68 -41l-38 -55l-45 -77l-30 -64zM624 714q51 30 98 42q55 14 99 14l18 -3l9 -12l-16 -14l-55 -27q-88 -44 -147 -110l-12 -12l-12 -6l-14 -3h-45q-16 -2 -20 4l-6 11l-10 25l-35 76q-16 28 -38 52q-9 8 -9 15l3 8l7 3q24 -1 87 -57l40 -42v0z
" />
    <glyph glyph-name="Gbreve" unicode="&#x11e;" horiz-adv-x="1171" 
d="M1016 11q-133 -60 -247 -58q-201 0 -332 123q-62 56 -88.5 131.5t-24.5 155.5q1 399 356 768q162 168 340 267q220 122 412 125q184 -3 187 -150q1 -108 -118 -248q-91 -109 -205 -188l-45 -29q-14 -9 -20 -8q-9 0 -27 13l-39 27l-17 15l-2 8l12 15l103 71q81 53 175 147
q124 122 124 188q0 88 -125 89q-137 -2 -271 -69q-122 -59 -240 -156q-211 -171 -344 -398q-158 -271 -160 -498q1 -163 114 -262q48 -45 114 -66q60 -22 125 -21q80 0 163 33q61 23 111 63l35 29l15 48l23 89q11 45 25 79q45 111 149 115q38 2 38 -25l-4 -12l-20 -25
q-31 -37 -76 -176l-47 -161l-49 -173q-31 -103 -80 -177q-152 -238 -452 -236q-219 1 -253 33q-5 5 -6 20l-7 63l4 16l15 -2l41 -19q59 -30 132 -47q59 -15 119 -14q199 1 290 175q73 138 126 336zM1574 1825h60q9 0 12 -1l5 -6l-2 -6q-44 -70 -133.5 -127t-165.5 -57
q-108 0 -108 107q0 77 26 89l7 1h22q10 0 13 -1l3 -3q0 -9 -1 -11l-16 -34q-9 -19 -9 -41q0 -61 59 -61q67 0 124 66l59 68q4 5 11 10q9 7 34 7z" />
    <glyph glyph-name="gbreve" unicode="&#x11f;" horiz-adv-x="642" 
d="M637 219v0l-94 -113q-102 -123 -168 -121q-55 0 -87 38.5t-31 90.5q-2 81 61 179q55 85 137 134q92 55 209 58q125 1 123 -38l-4 -15l-8 -18l-20 9l-35 14q-21 5 -46 6q-89 0 -172 -74q-43 -38 -75 -86q-65 -96 -65 -176q-2 -54 40 -54q33 -1 63 22q48 35 87 85l63 85
q39 57 56.5 91.5t39.5 36.5l16 -2l24 -4l15 -4l6 -5l2 -6l-3 -15l-20 -72q-17 -63 -61 -188v0l64 51l16 11l5 1l12 -9l4 -10q-2 -10 -13 -19l-99 -84v0l-12 -31l-49 -132q-12 -34 -43 -99.5t-66 -118.5q-31 -50 -75 -86q-69 -60 -134 -61q-39 0 -64 25.5t-23 62.5
q0 87 101 196q77 84 189 173l55 42v0zM537 -70v0l-43 -34l-79 -70q-111 -107 -144 -173q-18 -33 -17 -71q2 -51 39 -50q40 -1 86 71l49 86l59 120l38 88zM573 763l10 -4v-6l-4 -7q-23 -33 -25 -77q-3 -49 55 -47q71 1 132 74l48 55q6 8 14 10l17 2h63l15 -1l1 -8l-9 -13
l-37 -41q-87 -97 -184 -113q-25 -6 -48 -5q-98 1 -98 91q0 29 8 61l7 20l5 5l9 4h21z" />
    <glyph glyph-name="Gcedilla" unicode="&#x122;" horiz-adv-x="1171" 
d="M1016 11q-133 -60 -247 -58q-201 0 -332 123q-62 56 -88.5 131.5t-24.5 155.5q1 399 356 768q162 168 340 267q220 122 412 125q184 -3 187 -150q1 -108 -118 -248q-91 -109 -205 -188l-45 -29q-14 -9 -20 -8q-9 0 -27 13l-39 27l-17 15l-2 8l12 15l103 71q81 53 175 147
q124 122 124 188q0 88 -125 89q-137 -2 -271 -69q-122 -59 -240 -156q-211 -171 -344 -398q-158 -271 -160 -498q1 -163 114 -262q48 -45 114 -66q60 -22 125 -21q80 0 163 33q61 23 111 63l35 29l15 48l23 89q11 45 25 79q45 111 149 115q38 2 38 -25l-4 -12l-20 -25
q-31 -37 -76 -176l-47 -161l-49 -173q-31 -103 -80 -177q-152 -238 -452 -236q-219 1 -253 33q-5 5 -6 20l-7 63l4 16l15 -2l41 -19q59 -30 132 -47q59 -15 119 -14q199 1 290 175q73 138 126 336zM1402 1724q65 -5 65 -51q0 -30 -23.5 -50.5t-53.5 -20.5q-65 0 -65 61
q0 45 44 99t110 88q8 4 14 4q16 0 16 -12q0 -7 -11 -15q-66 -49 -96 -103z" />
    <glyph glyph-name="gcedilla" unicode="&#x123;" horiz-adv-x="642" 
d="M637 219v0l-94 -113q-102 -123 -168 -121q-55 0 -87 38.5t-31 90.5q-2 81 61 179q55 85 137 134q92 55 209 58q125 1 123 -38l-4 -15l-8 -18l-20 9l-35 14q-21 5 -46 6q-89 0 -172 -74q-43 -38 -75 -86q-65 -96 -65 -176q-2 -54 40 -54q33 -1 63 22q48 35 87 85l63 85
q39 57 56.5 91.5t39.5 36.5l16 -2l24 -4l15 -4l6 -5l2 -6l-3 -15l-20 -72q-17 -63 -61 -188v0l64 51l16 11l5 1l12 -9l4 -10q-2 -10 -13 -19l-99 -84v0l-12 -31l-49 -132q-12 -34 -43 -99.5t-66 -118.5q-31 -50 -75 -86q-69 -60 -134 -61q-39 0 -64 25.5t-23 62.5
q0 87 101 196q77 84 189 173l55 42v0zM537 -70v0l-43 -34l-79 -70q-111 -107 -144 -173q-18 -33 -17 -71q2 -51 39 -50q40 -1 86 71l49 86l59 120l38 88zM682 694q65 -5 65 -51q0 -30 -23.5 -50.5t-53.5 -20.5q-65 0 -65 61q0 45 44 99t110 88q8 4 14 4q16 0 16 -12
q0 -7 -11 -15q-66 -49 -96 -103z" />
    <glyph glyph-name="Itilde" unicode="&#x128;" horiz-adv-x="1171" 
d="M1092 500q-148 124 -149 350q-2 232 182 496q39 57 87 107q67 70 124 70q119 -3 118 -198q0 -95 -19.5 -207t-52 -231.5t-78.5 -244.5l-65 -167v0l40 -9q34 -8 78 -10l27 -2l14 -3l5 -3l1 -17q-4 -12 -12 -15l-21 -2l-111 16l-36 5v0l-27 -54q-45 -91 -98 -164
q-188 -265 -516 -264q-133 -1 -302 51q-44 12 -74 32l-12 10l-3 6q-2 9 8 23l20 35l16 17l22 -10q19 -14 58 -31l102 -45q92 -39 188 -38q106 -1 194 47q79 41 135 111q85 105 152 246l33 71v0zM1140 519v0l47 109q38 95 84 240l56 185q66 224 68 341l-4 42q-10 44 -47 46
q-44 -3 -92 -74q-44 -64 -80 -137q-45 -85 -69 -154q-63 -178 -64 -327q-1 -73 25 -149.5t64 -111.5zM1025 1633l6 16q66 175 208 175q39 0 77 -12q49 -15 98 -42q59 -32 87 -44q23 -10 55 -10q82 0 128 83l10 18q9 16 23 16h5q6 -3 6 -12q0 -43 -64 -118t-137 -75
q-31 0 -69 12q-43 14 -84 32l-92 41q-52 23 -99 23q-79 0 -119 -87q-13 -28 -27 -28q-10 0 -12 12z" />
    <glyph glyph-name="itilde" unicode="&#x129;" horiz-adv-x="378" 
d="M473 480l21 5q15 -4 15 -19l-3 -15l-100 -305l-12 -42l-3 -23q3 -30 22 -28l8 1q11 5 24 16l48 46l37 41l20 24l11 8l12 -6l7 -11q0 -6 -7 -14q-30 -36 -64 -71q-41 -43 -76 -70q-40 -33 -80 -32q-67 0 -70 71q-1 32 11 73l28 96l63 205q4 14 13 23q9 8 24 13zM310 600
q10 43 49 77t82 34q23 0 44 -9l53 -25q26 -14 52 -20l23 -3q42 1 57 38l11 21l13 8q4 -2 7 -6l4 -15l-3 -14l-13 -27q-51 -80 -123 -77q-25 0 -44 7l-52 24l-33 16q-23 9 -38 10q-42 -1 -59 -33l-9 -17q-4 -7 -12 -7l-11 5z" />
    <glyph glyph-name="Imacron" unicode="&#x12a;" horiz-adv-x="1171" 
d="M1092 500q-148 124 -149 350q-2 232 182 496q39 57 87 107q67 70 124 70q119 -3 118 -198q0 -95 -19.5 -207t-52 -231.5t-78.5 -244.5l-65 -167v0l40 -9q34 -8 78 -10l27 -2l14 -3l5 -3l1 -17q-4 -12 -12 -15l-21 -2l-111 16l-36 5v0l-27 -54q-45 -91 -98 -164
q-188 -265 -516 -264q-133 -1 -302 51q-44 12 -74 32l-12 10l-3 6q-2 9 8 23l20 35l16 17l22 -10q19 -14 58 -31l102 -45q92 -39 188 -38q106 -1 194 47q79 41 135 111q85 105 152 246l33 71v0zM1140 519v0l47 109q38 95 84 240l56 185q66 224 68 341l-4 42q-10 44 -47 46
q-44 -3 -92 -74q-44 -64 -80 -137q-45 -85 -69 -154q-63 -178 -64 -327q-1 -73 25 -149.5t64 -111.5zM1123 1650l9 39q2 9 9 12q8 4 22 4h454q16 0 20 -1l8 -7l-3 -14l-10 -33l-8 -20l-27 -2h-455h-15l-7 8z" />
    <glyph glyph-name="imacron" unicode="&#x12b;" horiz-adv-x="378" 
d="M473 480l21 5q15 -4 15 -19l-3 -15l-100 -305l-12 -42l-3 -23q3 -30 22 -28l8 1q11 5 24 16l48 46l37 41l20 24l11 8l12 -6l7 -11q0 -6 -7 -14q-30 -36 -64 -71q-41 -43 -76 -70q-40 -33 -80 -32q-67 0 -70 71q-1 32 11 73l28 96l63 205q4 14 13 23q9 8 24 13zM810 583
h-260l-6 1l-3 5q0 2 2 8l11 35l5 7q5 3 14 3h253q11 0 15 -1l4 -5q0 -4 -1 -7l-12 -36l-8 -9q-4 -1 -14 -1z" />
    <glyph glyph-name="Iogonek" unicode="&#x12e;" horiz-adv-x="1171" 
d="M1092 500q-148 124 -149 350q-2 232 182 496q39 57 87 107q67 70 124 70q119 -3 118 -198q0 -95 -19.5 -207t-52 -231.5t-78.5 -244.5l-65 -167v0l40 -9q34 -8 78 -10l27 -2l14 -3l5 -3l1 -17q-4 -12 -12 -15l-21 -2l-111 16l-36 5v0l-27 -54q-45 -91 -98 -164
q-188 -265 -516 -264q-133 -1 -302 51q-44 12 -74 32l-12 10l-3 6q-2 9 8 23l20 35l16 17l22 -10q19 -14 58 -31l102 -45q92 -39 188 -38q106 -1 194 47q79 41 135 111q85 105 152 246l33 71v0zM1140 519v0l47 109q38 95 84 240l56 185q66 224 68 341l-4 42q-10 44 -47 46
q-44 -3 -92 -74q-44 -64 -80 -137q-45 -85 -69 -154q-63 -178 -64 -327q-1 -73 25 -149.5t64 -111.5zM865 54h62l-15 -15q-87 -90 -87 -174q0 -39 32 -39q25 0 65 32.5t52 46.5q14 17 23 17q14 0 14 -12q0 -23 -67 -79.5t-123 -56.5q-80 0 -80 83q0 104 124 197z" />
    <glyph glyph-name="iogonek" unicode="&#x12f;" horiz-adv-x="378" 
d="M472 480l21 5q15 -4 15 -19l-3 -15l-100 -305l-12 -42l-3 -23q3 -30 22 -28l8 1q11 5 24 16l48 46l37 41l20 24l11 8l12 -6l7 -11q0 -6 -7 -14q-30 -36 -64 -71q-41 -43 -76 -70q-40 -33 -80 -32q-67 0 -70 71q-1 32 11 73l28 96l63 205q4 14 13 23q9 8 24 13zM618 705
q-3 -73 -75 -75q-75 3 -77 75q3 73 77 77q71 -3 75 -77zM411 25l-12 -13l-29 -33q-20 -22 -32 -47q-18 -32 -17 -65q-1 -34 28 -35q14 0 27 7l31 21q32 25 43 37l15 14l10 2l11 -11q0 -20 -73 -75q-55 -41 -95 -39q-69 -1 -70 72q2 80 94 154l15 11h54z" />
    <glyph glyph-name="Idotaccent" unicode="&#x130;" horiz-adv-x="1171" 
d="M1092 500q-148 124 -149 350q-2 232 182 496q39 57 87 107q67 70 124 70q119 -3 118 -198q0 -95 -19.5 -207t-52 -231.5t-78.5 -244.5l-65 -167v0l40 -9q34 -8 78 -10l27 -2l14 -3l5 -3l1 -17q-4 -12 -12 -15l-21 -2l-111 16l-36 5v0l-27 -54q-45 -91 -98 -164
q-188 -265 -516 -264q-133 -1 -302 51q-44 12 -74 32l-12 10l-3 6q-2 9 8 23l20 35l16 17l22 -10q19 -14 58 -31l102 -45q92 -39 188 -38q106 -1 194 47q79 41 135 111q85 105 152 246l33 71v0zM1140 519v0l47 109q38 95 84 240l56 185q66 224 68 341l-4 42q-10 44 -47 46
q-44 -3 -92 -74q-44 -64 -80 -137q-45 -85 -69 -154q-63 -178 -64 -327q-1 -73 25 -149.5t64 -111.5zM1398 1809q39 0 65 -26.5t26 -63.5q0 -38 -26 -64.5t-64 -26.5t-64.5 26t-26.5 64t26 64.5t64 26.5z" />
    <glyph glyph-name="dotlessi" unicode="&#x131;" horiz-adv-x="378" 
d="M473 480l21 5q15 -4 15 -19l-3 -15l-100 -305l-12 -42l-3 -23q3 -30 22 -28l8 1q11 5 24 16l48 46l37 41l20 24l11 8l12 -6l7 -11q0 -6 -7 -14q-30 -36 -64 -71q-41 -43 -76 -70q-40 -33 -80 -32q-67 0 -70 71q-1 32 11 73l28 96l63 205q4 14 13 23q9 8 24 13z" />
    <glyph glyph-name="IJ" unicode="&#x132;" horiz-adv-x="1964" 
d="M1962 429q266 655 266 944q0 93 -45 93q-46 0 -134.5 -173t-88.5 -430q0 -118 38 -183q11 -19 11 -24q0 -13 -38 -48l-34 -31l-23 -14l-9 17q-40 113 -40 243q0 286 122 489.5t218 203.5q118 0 118 -209q0 -140 -34.5 -305t-183.5 -561v0h38q33 0 33 -19q0 -8 -6 -18
l-23 -38q-6 -10 -17 -14q-10 -4 -24 -4h-40v0q-192 -369 -322 -520q-132 -153 -279 -243t-246 -90q-66 0 -110.5 48.5t-44.5 134.5q0 148 129 313.5t313.5 277t455.5 160.5v0zM1923 335v0q-156 -13 -340.5 -113.5t-322 -269.5t-137.5 -288q0 -51 28 -85t68 -34
q66 0 194.5 83t240.5 229q136 178 269 478zM1125 476q-177 122 -177 372q0 131 70.5 293t163 268.5t157.5 106.5q116 0 116 -199q0 -317 -213 -845v0q65 -14 117 -18l27 -2q13 0 18 -6l2 -16q-3 -17 -23 -17q-47 0 -156 22v0q-68 -138 -124 -218q-186 -263 -513 -263
q-115 0 -251 36.5t-140 62.5l9 23l19 34q5 9 10 14q3 3 7 3q7 0 22 -10q40 -27 147 -70t210 -43q189 0 316 158q91 113 186 314v0zM1142 517v0q73 165 131 348l12 40l44 143q67 218 67 340q0 87 -50 87q-69 0 -186 -238t-117 -451q0 -162 88 -258z" />
    <glyph glyph-name="ij" unicode="&#x133;" horiz-adv-x="718" 
d="M634 -28l100 381l12 45q8 29 15 37q3 4 26 15l66 33q14 7 20 7q14 0 14 -14q0 -8 -8 -32l-127 -376v0l63 57q9 8 14 11q2 1 5 1h1l12 -9l5 -9q0 -8 -14 -20l-92 -82v0q-46 -150 -73 -224q-109 -300 -247 -300q-71 0 -71 70q0 126 174 302l83 84q8 8 22 23v0zM603 -108v0
q-86 -83 -146.5 -176t-60.5 -146q0 -35 29 -35q27 0 51 26.5t65 147.5l25 74zM422 465l51 14q15 4 19 4q16 0 16 -18q0 -7 -3 -16l-99 -302q-15 -46 -15 -66q0 -29 23 -29q27 0 79 61q42 49 52 60q7 7 13 8l10 -4q6 -5 6 -11q0 -18 -82.5 -99.5t-143.5 -81.5q-65 0 -65 72
q0 38 11 71l4 12l25 84l62 204q5 16 13 24q9 9 24 13zM542 778q34 0 55 -22.5t21 -53.5t-22 -53t-53 -22q-33 0 -54.5 22t-21.5 53t21 53.5t54 22.5zM893 785q32 0 54 -22t22 -54t-22.5 -53.5t-53.5 -21.5q-30 0 -52.5 21.5t-22.5 53.5t22 54t53 22z" />
    <glyph glyph-name="Kcedilla" unicode="&#x136;" horiz-adv-x="1813" 
d="M240 71q14 12 22 13q7 -1 25 -12q100 -68 294 -69q199 0 363 175q90 95 158 217q119 211 221 581l59 217l53 192l13 43l12 31q6 10 24 20l68 36q14 8 23 8l9 -5q4 -5 4 -11l-5 -22l-11 -36l-56 -190l-82 -295q-41 -148 -99 -300q-64 -170 -132 -285
q-105 -179 -294.5 -302t-400.5 -124q-163 0 -292 46l-24 15l1 8l13 17zM1805 5l-11 -5h-9q-8 3 -17 13l-157 177l-175 202q-98 114 -99 150q-1 16 25 42l80 88l336 395q134 160 343 392l36 40q10 12 23 17q17 6 42 7h57l18 -3l6 -6l-1 -12q-10 -16 -23 -27l-40 -34
l-731 -766l-53 -59q-20 -24 -19 -39q-1 -17 20 -42q66 -86 160 -184q243 -260 248 -288l-2 -8l-9 -11zM1138 -224q-65 5 -65 51q0 30 23.5 50.5t53.5 20.5q65 0 65 -61q0 -45 -44 -99t-110 -88q-8 -4 -14 -4q-16 0 -16 12q0 7 11 15q66 49 96 103z" />
    <glyph glyph-name="kcedilla" unicode="&#x137;" horiz-adv-x="642" 
d="M470 287q48 66 99 117q77 78 167 81q93 -2 93 -95q1 -116 -178 -207l-48 -23l21 -21q29 -28 65 -52l48 -33l9 -10l-11 -18l-28 -29q-13 -11 -23 -12q-24 0 -88 61l-71 68q-10 10 -10 19q0 6 7 13l12 8q35 19 76 53q36 29 61 59q52 59 53 114q1 38 -35 37q-54 0 -161 -116
q-67 -72 -117 -163q-28 -51 -40 -85l-10 -29q-6 -17 -13 -21q-5 -4 -21 -3h-44l-21 2l-6 8l6 26l359 1277l6 20q5 14 15 21l16 8l71 31l19 7l8 -13l-4 -18l-345 -1171zM438 -224q-65 5 -65 51q0 30 23.5 50.5t53.5 20.5q65 0 65 -61q0 -45 -44 -99t-110 -88q-8 -4 -14 -4
q-16 0 -16 12q0 7 11 15q66 49 96 103z" />
    <glyph glyph-name="kra" unicode="&#x138;" horiz-adv-x="642" 
d="M421 186q212 297 340 297q58 0 58 -81q0 -10 -7 -17l-31 -30l-19 -12l-8 8q-4 8 -7 23q-8 36 -37 36q-51 0 -118 -69l-29 -30v0q7 -183 52 -239q16 -20 40 -20q32 0 104 61q10 9 18 9l7 -3l7 -10q0 -20 -65.5 -72t-108.5 -52q-42 0 -65 40q-46 79 -49 217v0
q-27 -34 -34 -46l-37 -62q-34 -57 -35 -59q-22 -43 -29 -56q-11 -19 -35 -19h-50l-7 7q0 8 3 19l4 15l107 385l5 18q4 9 10 14t16 7l59 14l14 4q11 -2 11 -12q0 -4 -5 -21l-79 -264v0z" />
    <glyph glyph-name="Lacute" unicode="&#x139;" horiz-adv-x="1397" 
d="M979 280q49 90 118 326q48 167 80 260q46 137 104 260q130 273 308 371q46 26 96 26q130 -1 129 -186q-1 -78 -36 -206q-49 -175 -70 -195q-8 -8 -20 -10l-52 -13l-15 -2l-9 6l2 17l71 174q30 73 51 152q18 71 19 120q1 96 -65 93q-30 0 -58 -19q-107 -71 -180 -214
q-43 -80 -76 -174l-81 -243l-59 -179q-47 -140 -93 -249q-36 -85 -84 -149l-32 -40v0l84 -31q111 -43 170 -57q51 -15 122 -27l67 -11l18 -6l-7 -21l-43 -60l-15 -16l-9 -4l-16 3l-53 14q-93 22 -184 56q-73 25 -156 63l-49 22v0l-38 -31q-86 -68 -173 -102
q-116 -45 -241 -45q-100 0 -180 33q-106 44 -107 135q-2 124 147 171q77 25 160 25q150 0 360 -62l67 -21v0zM884 154v0l-65 20q-171 51 -321 50q-36 0 -68 -5q-155 -24 -154 -110q-3 -104 219 -106q100 -1 203 38q77 29 137 73zM1928 1896l-206 -244l-17 -17l-23 -2l-29 -3
l-18 -2l-6 6l8 18l157 247q10 15 18 19q9 4 30 4h73l21 -1l3 -9q-2 -5 -11 -16z" />
    <glyph glyph-name="lacute" unicode="&#x13a;" horiz-adv-x="415" 
d="M313 283q-9 -7 -14 -6q-17 -2 -15 19q-1 7 4 12l11 11l68 61v0l34 117q67 231 96 321q33 104 71 201q41 110 89 210q34 74 73 144q96 177 159 175q31 0 50 -39q10 -31 14 -65q-4 -171 -83 -364q-39 -95 -132 -250l-81 -129l-83 -117l-49 -70v0l-53 -160
q-33 -108 -57 -221l-6 -44q1 -14 5 -22l11 -10l14 -4q12 1 24 6l28 16l39 30l36 31l32 28l11 7q4 -1 8 -4l4 -10q0 -11 -10 -22l-46 -47l-57 -50q-70 -55 -121 -53q-82 -1 -83 86q-1 58 20 136l27 105v0zM549 600v0l30 42q59 84 113 182q61 110 114 236q99 234 106 383
l-2 17q-4 21 -21 20q-50 -7 -168 -325l-51 -153l-34 -109l-59 -196zM1012 1773q10 10 19 13q8 2 27 3h69h17l5 -7l-16 -14l-201 -145l-22 -11l-20 -5l-29 -3l-17 -2l-4 8l11 13z" />
    <glyph glyph-name="Lcedilla" unicode="&#x13b;" horiz-adv-x="1397" 
d="M979 280q49 90 118 326q48 167 80 260q46 137 104 260q130 273 308 371q46 26 96 26q130 -1 129 -186q-1 -78 -36 -206q-49 -175 -70 -195q-8 -8 -20 -10l-52 -13l-15 -2l-9 6l2 17l71 174q30 73 51 152q18 71 19 120q1 96 -65 93q-30 0 -58 -19q-107 -71 -180 -214
q-43 -80 -76 -174l-81 -243l-59 -179q-47 -140 -93 -249q-36 -85 -84 -149l-32 -40v0l84 -31q111 -43 170 -57q51 -15 122 -27l67 -11l18 -6l-7 -21l-43 -60l-15 -16l-9 -4l-16 3l-53 14q-93 22 -184 56q-73 25 -156 63l-49 22v0l-38 -31q-86 -68 -173 -102
q-116 -45 -241 -45q-100 0 -180 33q-106 44 -107 135q-2 124 147 171q77 25 160 25q150 0 360 -62l67 -21v0zM884 154v0l-65 20q-171 51 -321 50q-36 0 -68 -5q-155 -24 -154 -110q-3 -104 219 -106q100 -1 203 38q77 29 137 73zM760 -224q-65 5 -65 51q0 30 23.5 50.5
t53.5 20.5q65 0 65 -61q0 -45 -44 -99t-110 -88q-8 -4 -14 -4q-16 0 -16 12q0 7 11 15q66 49 96 103z" />
    <glyph glyph-name="lcedilla" unicode="&#x13c;" horiz-adv-x="415" 
d="M313 283q-9 -7 -14 -6q-17 -2 -15 19q-1 7 4 12l11 11l68 61v0l34 117q67 231 96 321q33 104 71 201q41 110 89 210q34 74 73 144q96 177 159 175q31 0 50 -39q10 -31 14 -65q-4 -171 -83 -364q-39 -95 -132 -250l-81 -129l-83 -117l-49 -70v0l-53 -160
q-33 -108 -57 -221l-6 -44q1 -14 5 -22l11 -10l14 -4q12 1 24 6l28 16l39 30l36 31l32 28l11 7q4 -1 8 -4l4 -10q0 -11 -10 -22l-46 -47l-57 -50q-70 -55 -121 -53q-82 -1 -83 86q-1 58 20 136l27 105v0zM549 600v0l30 42q59 84 113 182q61 110 114 236q99 234 106 383
l-2 17q-4 21 -21 20q-50 -7 -168 -325l-51 -153l-34 -109l-59 -196zM338 -224q-65 5 -65 51q0 30 23.5 50.5t53.5 20.5q65 0 65 -61q0 -45 -44 -99t-110 -88q-8 -4 -14 -4q-16 0 -16 12q0 7 11 15q66 49 96 103z" />
    <glyph glyph-name="Lcaron" unicode="&#x13d;" horiz-adv-x="1397" 
d="M979 280q49 90 118 326q48 167 80 260q46 137 104 260q130 273 308 371q46 26 96 26q130 -1 129 -186q-1 -78 -36 -206q-49 -175 -70 -195q-8 -8 -20 -10l-52 -13l-15 -2l-9 6l2 17l71 174q30 73 51 152q18 71 19 120q1 96 -65 93q-30 0 -58 -19q-107 -71 -180 -214
q-43 -80 -76 -174l-81 -243l-59 -179q-47 -140 -93 -249q-36 -85 -84 -149l-32 -40v0l84 -31q111 -43 170 -57q51 -15 122 -27l67 -11l18 -6l-7 -21l-43 -60l-15 -16l-9 -4l-16 3l-53 14q-93 22 -184 56q-73 25 -156 63l-49 22v0l-38 -31q-86 -68 -173 -102
q-116 -45 -241 -45q-100 0 -180 33q-106 44 -107 135q-2 124 147 171q77 25 160 25q150 0 360 -62l67 -21v0zM884 154v0l-65 20q-171 51 -321 50q-36 0 -68 -5q-155 -24 -154 -110q-3 -104 219 -106q100 -1 203 38q77 29 137 73zM1980 1417q-55 15 -59 73q4 70 73 73
q77 -3 79 -89q-2 -68 -52 -143q-31 -47 -69 -84l-11 -9l-9 -3q-16 -1 -15 13l4 10l15 23l35 51q15 23 31 61l7 18z" />
    <glyph glyph-name="lcaron" unicode="&#x13e;" horiz-adv-x="604" 
d="M313 283q-9 -7 -14 -6q-17 -2 -15 19q-1 7 4 12l11 11l68 61v0l34 117q67 231 96 321q33 104 71 201q41 110 89 210q34 74 73 144q96 177 159 175q31 0 50 -39q10 -31 14 -65q-4 -171 -83 -364q-39 -95 -132 -250l-81 -129l-83 -117l-49 -70v0l-53 -160
q-33 -108 -57 -221l-6 -44q1 -14 5 -22l11 -10l14 -4q12 1 24 6l28 16l39 30l36 31l32 28l11 7q4 -1 8 -4l4 -10q0 -11 -10 -22l-46 -47l-57 -50q-70 -55 -121 -53q-82 -1 -83 86q-1 58 20 136l27 105v0zM549 600v0l30 42q59 84 113 182q61 110 114 236q99 234 106 383
l-2 17q-4 21 -21 20q-50 -7 -168 -325l-51 -153l-34 -109l-59 -196zM1080 1417q-55 15 -59 73q4 70 73 73q77 -3 79 -89q-2 -68 -52 -143q-31 -47 -69 -84l-11 -9l-9 -3q-16 -1 -15 13l4 10l15 23l35 51q15 23 31 61l7 18z" />
    <glyph glyph-name="Ldot" unicode="&#x13f;" horiz-adv-x="1397" 
d="M979 280q49 90 118 326q48 167 80 260q46 137 104 260q130 273 308 371q46 26 96 26q130 -1 129 -186q-1 -78 -36 -206q-49 -175 -70 -195q-8 -8 -20 -10l-52 -13l-15 -2l-9 6l2 17l71 174q30 73 51 152q18 71 19 120q1 96 -65 93q-30 0 -58 -19q-107 -71 -180 -214
q-43 -80 -76 -174l-81 -243l-59 -179q-47 -140 -93 -249q-36 -85 -84 -149l-32 -40v0l84 -31q111 -43 170 -57q51 -15 122 -27l67 -11l18 -6l-7 -21l-43 -60l-15 -16l-9 -4l-16 3l-53 14q-93 22 -184 56q-73 25 -156 63l-49 22v0l-38 -31q-86 -68 -173 -102
q-116 -45 -241 -45q-100 0 -180 33q-106 44 -107 135q-2 124 147 171q77 25 160 25q150 0 360 -62l67 -21v0zM884 154v0l-65 20q-171 51 -321 50q-36 0 -68 -5q-155 -24 -154 -110q-3 -104 219 -106q100 -1 203 38q77 29 137 73zM1862 795q39 0 65 -26.5t26 -63.5
q0 -38 -26 -64.5t-64 -26.5t-64.5 26t-26.5 64t26 64.5t64 26.5z" />
    <glyph glyph-name="ldot" unicode="&#x140;" horiz-adv-x="642" 
d="M313 283q-9 -7 -14 -6q-17 -2 -15 19q-1 7 4 12l11 11l68 61v0l34 117q67 231 96 321q33 104 71 201q41 110 89 210q34 74 73 144q96 177 159 175q31 0 50 -39q10 -31 14 -65q-4 -171 -83 -364q-39 -95 -132 -250l-81 -129l-83 -117l-49 -70v0l-53 -160
q-33 -108 -57 -221l-6 -44q1 -14 5 -22l11 -10l14 -4q12 1 24 6l28 16l39 30l36 31l32 28l11 7q4 -1 8 -4l4 -10q0 -11 -10 -22l-46 -47l-57 -50q-70 -55 -121 -53q-82 -1 -83 86q-1 58 20 136l27 105v0zM549 600v0l30 42q59 84 113 182q61 110 114 236q99 234 106 383
l-2 17q-4 21 -21 20q-50 -7 -168 -325l-51 -153l-34 -109l-59 -196zM839 549.5q21 -20.5 21 -47.5t-21 -47.5t-47 -20.5q-27 0 -47.5 20.5t-20.5 47.5t20.5 47.5t47.5 20.5q26 0 47 -20.5z" />
    <glyph glyph-name="Lslash" unicode="&#x141;" horiz-adv-x="1397" 
d="M1414 760l27 4q32 -1 30 -28l-2 -13q-7 -17 -35 -24l-198 -47v0q-49 -146 -94 -255q-35 -87 -84 -151l-32 -40v0l85 -31q114 -42 170 -57q50 -15 122 -27l67 -11l18 -6l-7 -21l-43 -60l-15 -16l-9 -4l-16 3l-53 14q-157 39 -340 121l-48 22v0l-39 -33q-81 -68 -173 -102
q-62 -24 -139 -36q-56 -10 -102 -9q-101 0 -181 33q-106 44 -106 136q-2 96 111 154q79 41 195 43q139 0 361 -64l67 -21v0l27 46q50 92 103 273l18 66v0l-107 -26l-24 -3q-32 -1 -28 30q0 27 41 35l138 32v0l57 178q47 141 101.5 259t134.5 218q78 98 177 155q45 26 95 26
q131 -1 130 -186q-1 -78 -36 -206q-49 -175 -70 -195q-8 -8 -20 -10l-52 -13l-15 -2l-9 6l2 17l71 174q30 73 51 152q18 70 19 120q1 91 -66 93q-31 0 -58 -18q-46 -29 -85 -74q-60 -67 -97 -140q-45 -85 -74 -172l-81 -242l-19 -57l-16 -48v0zM886 156v0l-67 20
q-176 50 -322 50q-34 0 -67 -5q-155 -22 -154 -111q-3 -105 220 -107q100 -1 202 38q75 28 136 73z" />
    <glyph glyph-name="lslash" unicode="&#x142;" horiz-adv-x="491" 
d="M661 528l25 8q23 -3 21 -19q-1 -14 -11 -21l-25 -12l-140 -56v0l-9 -33l-34 -114q-22 -72 -38 -148q-7 -28 -6 -46q-1 -13 5 -20l11 -10l14 -4q11 -1 24 6l28 16l39 30l36 31l32 28l11 7q4 -1 8 -4l4 -10q0 -11 -10 -22l-46 -47l-57 -50q-70 -55 -121 -53q-82 -1 -83 86
q-1 57 21 139l21 81l22 84v0l-100 -42q-17 -8 -28 -7q-25 -1 -23 20q-1 15 11 21l22 10l132 52v0l9 34q46 175 106 355q69 214 160 411q34 74 73 144q96 177 159 175q31 0 50 -39q15 -31 14 -65q-3 -171 -83 -364q-39 -95 -132 -250l-81 -129l-83 -117l-49 -70l-13 -35v0z
M584 600l23 33q133 195 214 384q123 288 126 422l-4 21q-10 20 -21 20q-42 7 -166 -325l-51 -153l-34 -109l-59 -196z" />
    <glyph glyph-name="Nacute" unicode="&#x143;" horiz-adv-x="1208" 
d="M744 389l102 196l123 224q151 272 266 433q164 233 296 234q58 1 92 -59q25 -45 25 -110q-2 -125 -66 -331l-80 -254l-120 -369l-22 -77q-76 -290 -124 -431l-12 -18l-16 11l-56 47q-9 8 -14 18l-2 8l2 13l18 57l137 424l209 607l57 185q28 92 30 163q1 64 -52 66
q-111 -1 -313 -300q-42 -61 -132 -219l-144 -252l-147 -278l-123 -226l-76 -151h-102l14 44l61 197l78 258l70 255l67 244l73 282l27 115q6 29 6 59q0 12 -4 22l-8 12l-8 3l-8 -3l-16 -16l-28 -38l-50 -78q-112 -191 -170 -330l-71 -163l-15 -18l-17 13l-36 45
q-13 14 -12 25l4 16q54 129 169 331q152 266 247 266q61 -2 76 -93q6 -36 6 -64q-1 -127 -98 -492l-73 -258l-57 -193l-57 -193zM1516 1896l-206 -244l-17 -17l-23 -2l-29 -3l-18 -2l-6 6l8 18l157 247q10 15 18 19q9 4 30 4h73l21 -1l3 -9q-2 -5 -11 -16z" />
    <glyph glyph-name="nacute" unicode="&#x144;" horiz-adv-x="642" 
d="M469 283l72 100q74 100 137 102q38 -1 65 -28t26 -63q-1 -42 -16 -86l-31 -81l-50 -127l-5 -21q0 -26 24 -26q14 0 34 14l49 39l37 34l20 20l11 7l12 -6l5 -6l1 -5q1 -23 -94 -100q-82 -66 -119 -65q-77 1 -75 66q0 36 20 91l31 88l31 88l21 59q6 17 7 32q0 27 -28 32
q-29 -1 -62 -43l-49 -66l-82 -119q-36 -54 -68 -119q-23 -48 -42 -76q-7 -12 -16 -15l-19 -3h-50l-7 7l3 20l4 15l107 386l5 18q4 9 10 14l17 7l59 15l14 3l7 -4l3 -7l-4 -21l-79 -261zM717 753q10 10 19 13q8 2 27 3h69h17l5 -7l-16 -14l-201 -145l-22 -11l-20 -5l-29 -3
l-17 -2l-4 8l11 13z" />
    <glyph glyph-name="Ncedilla" unicode="&#x145;" horiz-adv-x="1208" 
d="M744 389l102 196l123 224q151 272 266 433q164 233 296 234q58 1 92 -59q25 -45 25 -110q-2 -125 -66 -331l-80 -254l-120 -369l-22 -77q-76 -290 -124 -431l-12 -18l-16 11l-56 47q-9 8 -14 18l-2 8l2 13l18 57l137 424l209 607l57 185q28 92 30 163q1 64 -52 66
q-111 -1 -313 -300q-42 -61 -132 -219l-144 -252l-147 -278l-123 -226l-76 -151h-102l14 44l61 197l78 258l70 255l67 244l73 282l27 115q6 29 6 59q0 12 -4 22l-8 12l-8 3l-8 -3l-16 -16l-28 -38l-50 -78q-112 -191 -170 -330l-71 -163l-15 -18l-17 13l-36 45
q-13 14 -12 25l4 16q54 129 169 331q152 266 247 266q61 -2 76 -93q6 -36 6 -64q-1 -127 -98 -492l-73 -258l-57 -193l-57 -193zM813 -224q-65 5 -65 51q0 30 23.5 50.5t53.5 20.5q65 0 65 -61q0 -45 -44 -99t-110 -88q-8 -4 -14 -4q-16 0 -16 12q0 7 11 15q66 49 96 103z
" />
    <glyph glyph-name="ncedilla" unicode="&#x146;" horiz-adv-x="642" 
d="M469 283l72 100q74 100 137 102q38 -1 65 -28t26 -63q-1 -42 -16 -86l-31 -81l-50 -127l-5 -21q0 -26 24 -26q14 0 34 14l49 39l37 34l20 20l11 7l12 -6l5 -6l1 -5q1 -23 -94 -100q-82 -66 -119 -65q-77 1 -75 66q0 36 20 91l31 88l31 88l21 59q6 17 7 32q0 27 -28 32
q-29 -1 -62 -43l-49 -66l-82 -119q-36 -54 -68 -119q-23 -48 -42 -76q-7 -12 -16 -15l-19 -3h-50l-7 7l3 20l4 15l107 386l5 18q4 9 10 14l17 7l59 15l14 3l7 -4l3 -7l-4 -21l-79 -261zM438 -224q-65 5 -65 51q0 30 23.5 50.5t53.5 20.5q65 0 65 -61q0 -45 -44 -99t-110 -88
q-8 -4 -14 -4q-16 0 -16 12q0 7 11 15q66 49 96 103z" />
    <glyph glyph-name="Ncaron" unicode="&#x147;" horiz-adv-x="1208" 
d="M744 389l102 196l123 224q151 272 266 433q164 233 296 234q58 1 92 -59q25 -45 25 -110q-2 -125 -66 -331l-80 -254l-120 -369l-22 -77q-76 -290 -124 -431l-12 -18l-16 11l-56 47q-9 8 -14 18l-2 8l2 13l18 57l137 424l209 607l57 185q28 92 30 163q1 64 -52 66
q-111 -1 -313 -300q-42 -61 -132 -219l-144 -252l-147 -278l-123 -226l-76 -151h-102l14 44l61 197l78 258l70 255l67 244l73 282l27 115q6 29 6 59q0 12 -4 22l-8 12l-8 3l-8 -3l-16 -16l-28 -38l-50 -78q-112 -191 -170 -330l-71 -163l-15 -18l-17 13l-36 45
q-13 14 -12 25l4 16q54 129 169 331q152 266 247 266q61 -2 76 -93q6 -36 6 -64q-1 -127 -98 -492l-73 -258l-57 -193l-57 -193zM1279 1747q142 94 263.5 142.5t175.5 48.5h10q14 -4 14 -16q0 -20 -48 -34q-43 -12 -142.5 -70t-163.5 -116l-66 -60q-15 -14 -37 -14h-41
q-24 0 -32 22l-20 57q-39 112 -117 197l-10 17q0 12 19 12q34 0 195 -186v0z" />
    <glyph glyph-name="ncaron" unicode="&#x148;" horiz-adv-x="642" 
d="M469 283l72 100q74 100 137 102q38 -1 65 -28t26 -63q-1 -42 -16 -86l-31 -81l-50 -127l-5 -21q0 -26 24 -26q14 0 34 14l49 39l37 34l20 20l11 7l12 -6l5 -6l1 -5q1 -23 -94 -100q-82 -66 -119 -65q-77 1 -75 66q0 36 20 91l31 88l31 88l21 59q6 17 7 32q0 27 -28 32
q-29 -1 -62 -43l-49 -66l-82 -119q-36 -54 -68 -119q-23 -48 -42 -76q-7 -12 -16 -15l-19 -3h-50l-7 7l3 20l4 15l107 386l5 18q4 9 10 14l17 7l59 15l14 3l7 -4l3 -7l-4 -21l-79 -261zM681 714q51 30 98 42q55 14 99 14l18 -3l9 -12l-16 -14l-55 -27q-88 -44 -147 -110
l-12 -12l-12 -6l-14 -3h-45q-16 -2 -20 4l-6 11l-10 25l-35 76q-16 28 -38 52q-9 8 -9 15l3 8l7 3q24 -1 87 -57l40 -42v0z" />
    <glyph glyph-name="napostrophe" unicode="&#x149;" 
d="M595 196q146 207 188.5 247t82.5 40q91 0 91 -90q0 -42 -16 -87l-31 -80l-49 -127q-5 -13 -5 -22q0 -25 22 -25q25 0 106 73l31 28l11 6q12 0 12 -14q0 -20 -79 -90t-128 -70q-70 0 -70 62q0 33 20 92l30 88l32 88q17 52 21 61q7 17 7 31q0 32 -28 32q-36 0 -130 -131
t-130 -205q-46 -94 -58 -100q-6 -3 -19 -3h-50l-7 7q0 8 3 19l4 15l107 385l5 18q4 10 10 14t17 7l59 14l13 4l11 -11q0 -5 -5 -21zM543 926q-87 11 -87 78q0 31 21 52t51 21q74 -5 79 -86q0 -102 -120 -227q-12 -13 -20 -13q-14 0 -14 13q0 8 18 32q49 67 72 130z" />
    <glyph glyph-name="Eng" unicode="&#x14a;" horiz-adv-x="1208" 
d="M603 0h-102l14 44q99 312 138 453l70 255l67 243l73 280q33 127 33 174q0 36 -20 36q-24 0 -117 -161t-153 -302q-47 -111 -72 -163l-15 -18l-17 14l-36 44q-11 13 -11 25q0 46 162.5 328.5t256.5 282.5q81 0 81 -156q0 -175 -170 -748l-114 -384q53 100 73 140
q82 159 84 163l18 33q271 509 419.5 698t263.5 189q52 0 84 -46t32 -122q0 -123 -93 -416l-53 -167q-105 -325 -142 -445q-45 -145 -78 -243q-87 -260 -224 -357.5t-278 -97.5q-89 0 -130 23l-11 12l6 11l33 40q10 12 15 17l10 6q7 0 17 -6q56 -32 126 -32q97 0 173 69
t137 264l26 83q65 208 161 483l23 66l124 359q99 286 99 382q0 67 -50 67q-147 0 -445 -517l-129 -224l-15 -26l-146 -278l-122 -225q-19 -35 -76 -150z" />
    <glyph glyph-name="eng" unicode="&#x14b;" horiz-adv-x="604" 
d="M420 191q133 194 180.5 243t90.5 49q39 0 65 -25t26 -62q0 -45 -16 -92l-30 -88l-54 -168q-25 -77 -49 -138q-66 -166 -192 -166q-73 0 -110 37q-3 3 -3 6l3 9l7 13l9 5q8 -1 19 -11q30 -26 67 -26q31 0 51 26.5t64 148.5q21 58 45 131l42 127l35 105l18 61q5 17 5 30
q0 34 -26 34q-35 0 -132.5 -136t-127.5 -201q-28 -60 -41 -83q-11 -20 -35 -20h-50l-7 7q0 8 3 19l4 15l107 386l5 18q7 17 27 21l59 13l13 4l11 -11q0 -4 -5 -21z" />
    <glyph glyph-name="Omacron" unicode="&#x14c;" horiz-adv-x="1397" 
d="M633 1170q276 350 612 353q144 -2 257 -99q103 -87 156 -231q41 -114 41 -237q-1 -278 -158 -535.5t-398 -389.5q-142 -79 -297 -78q-94 0 -182 40q-83 35 -146 106q-142 155 -143 403q-3 335 258 668zM471 479q-1 -189 80 -315q104 -163 270 -161q231 1 442 205
q170 164 265 421q74 199 75 390q0 174 -84 303q-98 151 -263 151q-321 -1 -564 -351q-220 -318 -221 -643zM1069 1650l9 39q2 9 9 12q8 4 22 4h454q16 0 20 -1l8 -7l-3 -14l-10 -33l-8 -20l-27 -2h-455h-15l-7 8z" />
    <glyph glyph-name="omacron" unicode="&#x14d;" horiz-adv-x="566" 
d="M361 368q118 118 233 117q67 -1 106 -41q46 -46 45 -105q0 -94 -66 -190q-60 -88 -150 -134q-60 -31 -123 -30q-65 0 -111.5 40.5t-45.5 106.5q-1 123 112 236zM354 96q0 -20 8 -38l11 -17l15 -10q9 -5 21 -4q123 -1 209 240q22 62 22 107q0 64 -67 69q-77 0 -156 -141
q-64 -113 -63 -206zM963 583h-260l-6 1l-3 5q0 2 2 8l11 35l5 7q5 3 14 3h253q11 0 15 -1l4 -5q0 -4 -1 -7l-12 -36l-8 -9q-4 -1 -14 -1z" />
    <glyph glyph-name="Odblacute" unicode="&#x150;" horiz-adv-x="1397" 
d="M633 1170q276 350 612 353q144 -2 257 -99q103 -87 156 -231q41 -114 41 -237q-1 -278 -158 -535.5t-398 -389.5q-142 -79 -297 -78q-94 0 -182 40q-83 35 -146 106q-142 155 -143 403q-3 335 258 668zM471 479q-1 -189 80 -315q104 -163 270 -161q231 1 442 205
q170 164 265 421q74 199 75 390q0 174 -84 303q-98 151 -263 151q-321 -1 -564 -351q-220 -318 -221 -643zM1417 1896l-206 -244l-18 -17l-22 -2l-30 -3l-18 -2l-6 6l9 18l157 247q15 23 48 23h73l21 -1l3 -9q-2 -5 -11 -16zM1670 1896l-206 -244l-17 -17l-23 -2l-30 -3
l-17 -2l-7 6l9 18l157 247q10 15 18 19q9 4 30 4h73l21 -1l3 -9q-2 -5 -11 -16z" />
    <glyph glyph-name="odblacute" unicode="&#x151;" horiz-adv-x="566" 
d="M361 368q118 118 233 117q67 -1 106 -41q46 -46 45 -105q0 -94 -66 -190q-60 -88 -150 -134q-60 -31 -123 -30q-65 0 -111.5 40.5t-45.5 106.5q-1 123 112 236zM354 96q0 -20 8 -38l11 -17l15 -10q9 -5 21 -4q123 -1 209 240q22 62 22 107q0 64 -67 69q-77 0 -156 -141
q-64 -113 -63 -206zM645 753q10 10 20 13l27 3h68h18l5 -7l-16 -14l-201 -145l-23 -11l-20 -5l-28 -3l-17 -2l-5 8l12 13zM861 753q10 10 19 13q8 2 27 3h69h17l5 -7l-16 -14l-201 -145l-22 -11l-20 -5l-29 -3l-17 -2l-5 8l12 13z" />
    <glyph glyph-name="OE" unicode="&#x152;" horiz-adv-x="2039" 
d="M1260 227l-89 -98q-172 -175 -369 -176q-188 1 -293 167q-81 130 -82 338q0 284 157 560.5t399 427.5q124 77 255 77q70 0 128 -35t94 -89q110 -161 111 -408q0 -128 -34 -261l-14 -52v0l27 22q74 59 128 90l141 80q39 22 39 39q1 20 -34 58q-27 26 -42 58q-24 42 -23 83
q2 140 158 279q151 133 294 136q43 0 70.5 -33.5t26.5 -76.5q-1 -69 -30 -131l-50 -96q-35 -61 -68 -100l-15 -10l-7 2l-13 12l-26 29q-9 10 -9 18q-1 7 7 16l30 34q40 44 76 107q45 81 46 124q0 53 -64 55q-28 0 -54 -13q-52 -25 -91 -62q-119 -113 -187 -225
q-36 -56 -35 -100q-1 -37 22 -71l60 -93q16 -27 17 -48q0 -48 -93 -98q-53 -29 -122 -75q-96 -65 -172 -136q-183 -171 -184 -348q0 -81 56.5 -141.5t139.5 -59.5q161 0 366 135l56 38q10 7 18 7l10 -7l2 -7l-1 -8l-24 -81q-4 -14 -11 -21l-19 -12l-60 -27
q-158 -68 -302 -67q-110 0 -193 66t-98 181l-5 51v0zM523 402q0 -147 54 -253q74 -148 200 -146q144 -2 307 147q117 107 211 276q179 325 180 668q-1 178 -80 290q-28 39 -69.5 64t-89.5 25q-152 -2 -312 -138q-116 -99 -211 -273q-191 -349 -190 -660z" />
    <glyph glyph-name="oe" unicode="&#x153;" horiz-adv-x="868" 
d="M588 51q-87 -67 -183 -66q-66 1 -110 40q-48 43 -46 107q-1 56 26 112q30 67 83 122q113 119 236 119q78 -2 128 -79l11 -21v0l19 16l47 35q71 47 146 49q43 0 76 -26.5t33 -71.5q1 -125 -247 -240l-105 -46l2 -15q12 -59 74 -59q67 1 164 77l62 55q9 8 18 9l9 -3
q4 -4 4 -10l-4 -12q-37 -52 -113 -100q-59 -40 -130 -53q-26 -6 -51 -5q-88 0 -126 64l-8 15v0zM354 96q0 -39 19 -55l16 -10l21 -4q97 0 166 134q67 130 69 213q0 52 -50 66l-21 3q-60 -3 -123 -90q-49 -66 -74 -139q-24 -65 -23 -118zM703 143l50 23l72 40q36 21 62 45
q60 53 62 139q-2 51 -43 53q-34 -2 -65 -41l-39 -55l-45 -77l-30 -64z" />
    <glyph glyph-name="Racute" unicode="&#x154;" horiz-adv-x="1171" 
d="M563 653q54 101 103 180q424 694 723 690q102 -2 158 -77q52 -72 54 -172q0 -82 -31 -168q-34 -98 -100 -188q-97 -135 -242 -227q-165 -105 -305 -127l-217 -36l-16 -5l-8 -7l-3 -10q-1 -9 5 -15l20 -22l62 -60q98 -97 150 -143l185 -165l82 -73l20 -23l-16 -15l-66 -29
q-18 -9 -25 -8q-8 0 -22 12l-63 56l-132 120q-143 128 -241 234q-55 59 -55 110q0 49 46 67q27 11 85 24q291 66 485 229q98 82 179 201q95 141 118 243q9 41 9 83q-4 140 -122 141q-47 0 -84 -15q-93 -36 -169 -107q-197 -180 -448 -600q-73 -120 -134 -241
q-57 -110 -121 -248q-98 -207 -122 -281l-9 -19l-13 -9q-6 -1 -19 9l-52 33q-11 6 -11 17l2 14l25 59q33 71 62 148l133 369q86 239 110 324l72 285l40 168l17 79q2 14 9 22q5 5 16 11l63 27l19 5l7 -4l4 -10l-2 -21l-25 -112q-11 -49 -75 -267l-60 -204l-72 -211l-38 -110
l-36 -106zM1348 1896l-206 -244l-17 -17l-23 -2l-29 -3l-18 -2l-6 6l8 18l157 247q10 15 18 19q9 4 30 4h73l21 -1l3 -9q-2 -5 -11 -16z" />
    <glyph glyph-name="racute" unicode="&#x155;" horiz-adv-x="453" 
d="M426 256l56 96q77 132 137 133q57 -3 55 -107l-2 -45q-2 -23 -7 -34l-10 -12l-19 -15l-47 -29q-13 -9 -19 -8l-7 5l-1 4l1 6l7 20l14 40q8 23 9 40v12l-1 8l-5 9l-9 3l-10 -3q-43 -33 -120 -169q-52 -91 -74 -147l-20 -48l-5 -9q-6 -7 -12 -6h-18h-38l-17 2l-6 4l-2 7
l2 11l22 72l37 134l27 121l11 61q1 18 6 25q3 7 15 12l22 9l48 18l25 9l9 -9l-4 -15l-14 -37l-35 -107l-35 -116zM653 753q10 10 19 13q8 2 27 3h69h17l5 -7l-16 -14l-201 -145l-22 -11l-20 -5l-29 -3l-17 -2l-4 8l11 13z" />
    <glyph glyph-name="Rcedilla" unicode="&#x156;" horiz-adv-x="1171" 
d="M563 653q54 101 103 180q424 694 723 690q102 -2 158 -77q52 -72 54 -172q0 -82 -31 -168q-34 -98 -100 -188q-97 -135 -242 -227q-165 -105 -305 -127l-217 -36l-16 -5l-8 -7l-3 -10q-1 -9 5 -15l20 -22l62 -60q98 -97 150 -143l185 -165l82 -73l20 -23l-16 -15l-66 -29
q-18 -9 -25 -8q-8 0 -22 12l-63 56l-132 120q-143 128 -241 234q-55 59 -55 110q0 49 46 67q27 11 85 24q291 66 485 229q98 82 179 201q95 141 118 243q9 41 9 83q-4 140 -122 141q-47 0 -84 -15q-93 -36 -169 -107q-197 -180 -448 -600q-73 -120 -134 -241
q-57 -110 -121 -248q-98 -207 -122 -281l-9 -19l-13 -9q-6 -1 -19 9l-52 33q-11 6 -11 17l2 14l25 59q33 71 62 148l133 369q86 239 110 324l72 285l40 168l17 79q2 14 9 22q5 5 16 11l63 27l19 5l7 -4l4 -10l-2 -21l-25 -112q-11 -49 -75 -267l-60 -204l-72 -211l-38 -110
l-36 -106zM594 -224q-65 5 -65 51q0 30 23.5 50.5t53.5 20.5q65 0 65 -61q0 -45 -44 -99t-110 -88q-8 -4 -14 -4q-16 0 -16 12q0 7 11 15q66 49 96 103z" />
    <glyph glyph-name="rcedilla" unicode="&#x157;" horiz-adv-x="453" 
d="M426 256l56 96q77 132 137 133q57 -3 55 -107l-2 -45q-2 -23 -7 -34l-10 -12l-19 -15l-47 -29q-13 -9 -19 -8l-7 5l-1 4l1 6l7 20l14 40q8 23 9 40v12l-1 8l-5 9l-9 3l-10 -3q-43 -33 -120 -169q-52 -91 -74 -147l-20 -48l-5 -9q-6 -7 -12 -6h-18h-38l-17 2l-6 4l-2 7
l2 11l22 72l37 134l27 121l11 61q1 18 6 25q3 7 15 12l22 9l48 18l25 9l9 -9l-4 -15l-14 -37l-35 -107l-35 -116zM268 -224q-65 5 -65 51q0 30 23.5 50.5t53.5 20.5q65 0 65 -61q0 -45 -44 -99t-110 -88q-8 -4 -14 -4q-16 0 -16 12q0 7 11 15q66 49 96 103z" />
    <glyph glyph-name="Rcaron" unicode="&#x158;" horiz-adv-x="1171" 
d="M563 653q54 101 103 180q424 694 723 690q102 -2 158 -77q52 -72 54 -172q0 -82 -31 -168q-34 -98 -100 -188q-97 -135 -242 -227q-165 -105 -305 -127l-217 -36l-16 -5l-8 -7l-3 -10q-1 -9 5 -15l20 -22l62 -60q98 -97 150 -143l185 -165l82 -73l20 -23l-16 -15l-66 -29
q-18 -9 -25 -8q-8 0 -22 12l-63 56l-132 120q-143 128 -241 234q-55 59 -55 110q0 49 46 67q27 11 85 24q291 66 485 229q98 82 179 201q95 141 118 243q9 41 9 83q-4 140 -122 141q-47 0 -84 -15q-93 -36 -169 -107q-197 -180 -448 -600q-73 -120 -134 -241
q-57 -110 -121 -248q-98 -207 -122 -281l-9 -19l-13 -9q-6 -1 -19 9l-52 33q-11 6 -11 17l2 14l25 59q33 71 62 148l133 369q86 239 110 324l72 285l40 168l17 79q2 14 9 22q5 5 16 11l63 27l19 5l7 -4l4 -10l-2 -21l-25 -112q-11 -49 -75 -267l-60 -204l-72 -211l-38 -110
l-36 -106zM1127 1747q142 94 263.5 142.5t175.5 48.5h10q14 -4 14 -16q0 -20 -48 -34q-43 -12 -142.5 -70t-163.5 -116l-66 -60q-15 -14 -37 -14h-41q-24 0 -32 22l-20 57q-39 112 -117 197l-10 17q0 12 19 12q34 0 195 -186v0z" />
    <glyph glyph-name="rcaron" unicode="&#x159;" horiz-adv-x="453" 
d="M426 256l56 96q77 132 137 133q57 -3 55 -107l-2 -45q-2 -23 -7 -34l-10 -12l-19 -15l-47 -29q-13 -9 -19 -8l-7 5l-1 4l1 6l7 20l14 40q8 23 9 40v12l-1 8l-5 9l-9 3l-10 -3q-43 -33 -120 -169q-52 -91 -74 -147l-20 -48l-5 -9q-6 -7 -12 -6h-18h-38l-17 2l-6 4l-2 7
l2 11l22 72l37 134l27 121l11 61q1 18 6 25q3 7 15 12l22 9l48 18l25 9l9 -9l-4 -15l-14 -37l-35 -107l-35 -116zM586 714q51 30 98 42q55 14 99 14l18 -3l9 -12l-16 -14l-55 -27q-88 -44 -147 -110l-12 -12l-12 -6l-14 -3h-45q-16 -2 -20 4l-6 11l-10 25l-35 76
q-16 28 -38 52q-9 8 -9 15l3 8l7 3q24 -1 87 -57l40 -42v0z" />
    <glyph glyph-name="Sacute" unicode="&#x15a;" horiz-adv-x="1360" 
d="M260 144l12 12l10 3q6 0 21 -9q51 -34 143 -63q111 -38 223 -59q126 -26 250 -25q166 -1 294 65q169 88 171 233q0 54 -21 101q-28 62 -72 105q-45 43 -119 100q-89 66 -171 136q-89 72 -145 147q-63 79 -62 170q1 211 257 342q113 58 243.5 89.5t244.5 31.5
q77 0 151 -16q143 -31 142 -146q-3 -136 -182 -279q-43 -35 -89 -64q-28 -19 -43 -18q-8 -1 -31 11l-64 30l-14 16l3 6l14 11l61 31q38 17 90 49q60 35 109 76q88 71 87 137q-4 105 -233 106q-77 0 -164 -18q-106 -22 -199 -64q-111 -51 -183 -116q-106 -95 -104 -181
q-1 -59 38 -113q67 -95 236 -215q102 -75 159 -121q98 -85 140 -196q17 -47 17 -98q0 -102 -69 -197q-58 -78 -166 -128q-157 -73 -413 -73q-255 -2 -493 70q-55 16 -102 43l-17 14l13 26zM1787 1896l-206 -244l-17 -17l-23 -2l-29 -3l-18 -2l-6 6l8 18l157 247q10 15 18 19
q9 4 30 4h73l21 -1l3 -9q-2 -5 -11 -16z" />
    <glyph glyph-name="sacute" unicode="&#x15b;" horiz-adv-x="453" 
d="M335 247l-22 -21q-9 -10 -15 -10l-12 6q-5 4 -4 12l4 12l16 19l147 157l19 22l11 22l14 37q26 72 84 73q41 -2 40 -40l-3 -17q-7 -14 -19 -25l-23 -22l-32 -33l21 -39l21 -43q15 -36 25 -76.5t10 -75.5q0 -38 -14 -76q-48 -144 -225 -144q-53 -1 -91 18q-57 29 -56 68
l2 12q14 27 47 27q42 0 77 -38l29 -29q17 -17 43 -16q69 3 81 104l2 45q0 53 -9 106l-16 74l-10 39v0zM688 842q10 10 19 13q8 2 27 3h69h17l5 -7l-16 -14l-201 -145l-22 -11l-20 -5l-29 -3l-17 -2l-4 8l11 13z" />
    <glyph glyph-name="Scedilla" unicode="&#x15e;" horiz-adv-x="1360" 
d="M260 144l12 12l10 3q6 0 21 -9q51 -34 143 -63q111 -38 223 -59q126 -26 250 -25q166 -1 294 65q169 88 171 233q0 54 -21 101q-28 62 -72 105q-45 43 -119 100q-89 66 -171 136q-89 72 -145 147q-63 79 -62 170q1 211 257 342q113 58 243.5 89.5t244.5 31.5
q77 0 151 -16q143 -31 142 -146q-3 -136 -182 -279q-43 -35 -89 -64q-28 -19 -43 -18q-8 -1 -31 11l-64 30l-14 16l3 6l14 11l61 31q38 17 90 49q60 35 109 76q88 71 87 137q-4 105 -233 106q-77 0 -164 -18q-106 -22 -199 -64q-111 -51 -183 -116q-106 -95 -104 -181
q-1 -59 38 -113q67 -95 236 -215q102 -75 159 -121q98 -85 140 -196q17 -47 17 -98q0 -102 -69 -197q-58 -78 -166 -128q-157 -73 -413 -73q-255 -2 -493 70q-55 16 -102 43l-17 14l13 26zM788 -224q-65 5 -65 51q0 30 23.5 50.5t53.5 20.5q65 0 65 -61q0 -45 -44 -99
t-110 -88q-8 -4 -14 -4q-16 0 -16 12q0 7 11 15q66 49 96 103z" />
    <glyph glyph-name="scedilla" unicode="&#x15f;" horiz-adv-x="453" 
d="M324 -200q-44 7 -41 46q-1 29 24.5 50.5t56.5 21.5q60 -1 60 -59q0 -92 -158 -180q-12 -6 -25 -6l-12 12l8 11l11 8l56 44q23 21 33 34l8 15zM336 247l-22 -21q-9 -10 -15 -10l-12 6q-5 4 -4 12l4 12l16 19l147 157l19 22l11 22l14 37q26 72 84 73q41 -2 40 -40l-3 -17
q-7 -14 -19 -25l-23 -22l-32 -33l21 -39l21 -43q15 -36 25 -76.5t10 -75.5q0 -38 -14 -76q-48 -144 -225 -144q-53 -1 -91 18q-57 29 -56 68l2 12q14 27 47 27q42 0 77 -38l29 -29q17 -17 43 -16q69 3 81 104l2 45q0 53 -9 106l-16 74l-10 39v0z" />
    <glyph glyph-name="Scaron" unicode="&#x160;" horiz-adv-x="1360" 
d="M260 144l12 12l10 3q6 0 21 -9q51 -34 143 -63q111 -38 223 -59q126 -26 250 -25q166 -1 294 65q169 88 171 233q0 54 -21 101q-28 62 -72 105q-45 43 -119 100q-89 66 -171 136q-89 72 -145 147q-63 79 -62 170q1 211 257 342q113 58 243.5 89.5t244.5 31.5
q77 0 151 -16q143 -31 142 -146q-3 -136 -182 -279q-43 -35 -89 -64q-28 -19 -43 -18q-8 -1 -31 11l-64 30l-14 16l3 6l14 11l61 31q38 17 90 49q60 35 109 76q88 71 87 137q-4 105 -233 106q-77 0 -164 -18q-106 -22 -199 -64q-111 -51 -183 -116q-106 -95 -104 -181
q-1 -59 38 -113q67 -95 236 -215q102 -75 159 -121q98 -85 140 -196q17 -47 17 -98q0 -102 -69 -197q-58 -78 -166 -128q-157 -73 -413 -73q-255 -2 -493 70q-55 16 -102 43l-17 14l13 26zM1460 1747q142 94 263.5 142.5t175.5 48.5h10q14 -4 14 -16q0 -20 -48 -34
q-43 -12 -142.5 -70t-163.5 -116l-66 -60q-15 -14 -37 -14h-41q-24 0 -32 22l-20 57q-39 112 -117 197l-10 17q0 12 19 12q34 0 195 -186v0z" />
    <glyph glyph-name="scaron" unicode="&#x161;" horiz-adv-x="453" 
d="M335 247l-22 -21q-9 -10 -15 -10l-12 6q-5 4 -4 12l4 12l16 19l147 157l19 22l11 22l14 37q26 72 84 73q41 -2 40 -40l-3 -17q-7 -14 -19 -25l-23 -22l-32 -33l21 -39l21 -43q15 -36 25 -76.5t10 -75.5q0 -38 -14 -76q-48 -144 -225 -144q-53 -1 -91 18q-57 29 -56 68
l2 12q14 27 47 27q42 0 77 -38l29 -29q17 -17 43 -16q69 3 81 104l2 45q0 53 -9 106l-16 74l-10 39v0zM638 803q51 30 98 42q55 14 99 14l18 -3l9 -12l-16 -14l-55 -27q-88 -44 -147 -110l-12 -12l-12 -6l-14 -3h-45q-16 -2 -20 4l-6 11l-10 25l-35 76q-16 28 -38 52
q-9 8 -9 15l3 8l7 3q24 -1 87 -57l40 -42v0z" />
    <glyph glyph-name="Tcedilla" unicode="&#x162;" horiz-adv-x="1208" 
d="M1430 1424q-130 6 -245 6l-148 -3q-419 -14 -427 -133q1 -97 231 -150q44 -11 128 -21l19 -3l20 -9l-16 -25l-39 -38q-15 -15 -32 -14l-17 3l-70 19q-285 80 -283 222q-2 82 94 137q67 38 136 56q168 42 455 51l183 1q148 0 227 -7l49 -6l-50 -248q-181 -822 -421 -1077
q-217 -235 -500 -232q-43 -1 -92 6q-185 22 -287 85l-12 14l4 7l11 13l26 25q14 14 23 14l11 -4l28 -20q33 -26 140 -63q77 -26 152 -27q220 -1 372 161q106 113 208 360q139 337 237 801l18 92zM691 -224q-65 5 -65 51q0 30 23.5 50.5t53.5 20.5q65 0 65 -61q0 -45 -44 -99
t-110 -88q-8 -4 -14 -4q-16 0 -16 12q0 7 11 15q66 49 96 103z" />
    <glyph glyph-name="tcedilla" unicode="&#x163;" horiz-adv-x="378" 
d="M499 906q6 20 14 29q7 6 24 11l37 9l25 3q12 -2 19 -8l4 -10q0 -11 -12 -49l-86 -287h116l18 -7l-2 -17l-6 -15q-5 -7 -10 -9l-18 -2h-110l-98 -306l-31 -109q-12 -36 -11 -59q1 -28 24 -27q34 -1 87 46l58 53q13 12 22 12l6 -2l7 -6l4 -10v-7l-6 -12q-14 -20 -37 -39
l-56 -49q-65 -54 -127 -54q-84 2 -82 87q0 39 14 93l21 78l96 311h-57l-15 1l-5 8l5 16l7 16q2 4 8 7l12 2h57zM281 -200q-42 8 -40 46q-1 29 24.5 50.5t56.5 21.5q60 -1 60 -59q-1 -66 -68 -120q-41 -34 -90 -60q-12 -6 -25 -6l-11 12q1 5 7 11l12 8q49 28 87 78l9 15z" />
    <glyph glyph-name="Tcaron" unicode="&#x164;" horiz-adv-x="1208" 
d="M1430 1424q-130 6 -245 6l-148 -3q-419 -14 -427 -133q1 -97 231 -150q44 -11 128 -21l19 -3l20 -9l-16 -25l-39 -38q-15 -15 -32 -14l-17 3l-70 19q-285 80 -283 222q-2 82 94 137q67 38 136 56q168 42 455 51l183 1q148 0 227 -7l49 -6l-50 -248q-181 -822 -421 -1077
q-217 -235 -500 -232q-43 -1 -92 6q-185 22 -287 85l-12 14l4 7l11 13l26 25q14 14 23 14l11 -4l28 -20q33 -26 140 -63q77 -26 152 -27q220 -1 372 161q106 113 208 360q139 337 237 801l18 92zM1384 1747q142 94 263.5 142.5t175.5 48.5h10q14 -4 14 -16q0 -20 -48 -34
q-43 -12 -142.5 -70t-163.5 -116l-66 -60q-15 -14 -37 -14h-41q-24 0 -32 22l-20 57q-39 112 -117 197l-10 17q0 12 19 12q34 0 195 -186v0z" />
    <glyph glyph-name="tcaron" unicode="&#x165;" horiz-adv-x="453" 
d="M499 906q6 20 14 29q7 6 24 11l37 9l25 3q12 -2 19 -8l4 -10q0 -11 -12 -49l-86 -287h116l18 -7l-2 -17l-6 -15q-5 -7 -10 -9l-18 -2h-110l-98 -306l-31 -109q-12 -36 -11 -59q1 -28 24 -27q34 -1 87 46l58 53q13 12 22 12l6 -2l7 -6l4 -10v-7l-6 -12q-14 -20 -37 -39
l-56 -49q-65 -54 -127 -54q-84 2 -82 87q0 39 14 93l21 78l96 311h-57l-15 1l-5 8l5 16l7 16q2 4 8 7l12 2h57zM760 904q-55 15 -59 73q4 70 73 73q77 -3 79 -89q-2 -68 -52 -143q-31 -47 -69 -84l-11 -9l-9 -3q-16 -1 -15 13l4 10l15 23l35 51q15 23 31 61l7 18z" />
    <glyph glyph-name="Tstroke" unicode="&#x166;" horiz-adv-x="1435" 
d="M1265 432h-167q-29 0 -35 3l-5 15l10 35q4 13 7 16q4 4 12 4h200v0l267 918h-206l-185 -1l-113 -1q-201 0 -333 -37t-132 -102q0 -41 57.5 -73t137.5 -41q22 -3 32 -4q5 -1 8 -3l3 -5q0 -10 -15 -25l-38 -37q-14 -14 -33 -14q-57 0 -134 60t-77 133q0 229 682 243h183
h536l130 1q28 0 49 1q85 4 98 4h16q21 0 21 -15q0 -7 -7 -18q-2 -3 -6 -10l-21 -36q-7 -11 -26 -16q-11 -3 -26 -3l-51 -1h-440l-267 -918v0h163q26 0 30 -9v-11l-9 -35q-2 -6 -5 -11q-5 -7 -28 -7h-173v0l-132 -432h-120l142 432v0z" />
    <glyph glyph-name="tstroke" unicode="&#x167;" horiz-adv-x="415" 
d="M369 414l41 137h-57q-11 0 -15 2l-5 8q0 5 5 16l7 15q6 9 20 9h57l84 302q9 32 37 39l37 9q12 3 23 3q25 0 25 -18q0 -9 -12 -49l-86 -286h116l17 -6l-1 -17q-6 -27 -34 -27h-110l-42 -137h112l15 -3l4 -11q0 -36 -36 -36h-109l-40 -122l-31 -106q-11 -34 -11 -57
q0 -27 24 -27q37 0 86 46l58 54q12 11 22 11q14 0 17 -17v-5q0 -18 -81 -87t-143 -69q-33 0 -58 23t-25 63q0 51 36 167l39 126h-59q-11 0 -15 2l-5 8q0 5 8.5 22.5t22.5 17.5h62z" />
    <glyph glyph-name="Utilde" unicode="&#x168;" horiz-adv-x="1284" 
d="M1351 647q-361 -700 -649 -694q-87 0 -140.5 54.5t-52.5 143.5q0 91 24.5 193.5t59.5 219.5l72 237l63 198l61 189l65 208q7 27 8 49q0 14 -8 27l-12 13l-9 3q-31 1 -71 -65q-67 -108 -89 -152l-112 -227l-14 -20l-7 -4l-19 14l-28 31q-13 14 -13 26q-1 11 13 34l38 71
q40 79 96 152q140 189 249 190q84 -3 82 -120q0 -99 -100 -412l-95 -280q-61 -174 -89 -269q-68 -223 -69 -330q0 -57 33 -89q37 -36 88 -35q119 0 227 118q76 81 155 203q315 487 524 1124q6 18 13 24q5 3 26 4h55q24 -1 25 -23l-3 -14l-101 -298l-136 -449
q-91 -306 -118 -413l-44 -176l-65 -254l-5 -15l-7 -6l-9 -1l-16 6l-59 25l-11 8q-5 5 -4 13l1 13q29 165 105 406l102 329l70 221zM1037 1633l6 16q66 175 208 175q39 0 77 -12q49 -15 98 -42q59 -32 87 -44q23 -10 55 -10q82 0 128 83l10 18q9 16 23 16h5q6 -3 6 -12
q0 -43 -64 -118t-137 -75q-31 0 -69 12q-43 14 -84 32l-92 41q-52 23 -99 23q-79 0 -119 -87q-13 -28 -27 -28q-10 0 -12 12z" />
    <glyph glyph-name="utilde" unicode="&#x169;" horiz-adv-x="680" 
d="M628 254l-42 -68q-123 -203 -213 -201q-38 -1 -59 26t-20 59q-1 40 16 105l31 125l39 127l10 27q5 9 24 14l47 14l16 3q5 0 9 -4l3 -8l-2 -11l-13 -39l-34 -107l-59 -195q-12 -37 -11 -63q0 -24 28 -29l16 3q20 9 43 35l51 62q33 46 70 104l80 143l35 66l10 16l12 9l17 3
h45l17 -3l7 -6l2 -10l-3 -15l-9 -30l-30 -89l-41 -134l-18 -64l-4 -28q0 -39 29 -38q13 1 30 12l48 39l38 33q11 10 19 11l7 -3l7 -11q-1 -8 -11 -19l-39 -38l-51 -45q-60 -48 -99 -47q-68 -1 -69 83q-1 32 12 81l23 86l24 79zM438 600q10 43 49 77t82 34q23 0 44 -9l53 -25
q26 -14 52 -20l23 -3q42 1 57 38l11 21l13 8q4 -2 7 -6l4 -15l-3 -14l-13 -27q-51 -80 -123 -77q-25 0 -44 7l-52 24l-33 16q-23 9 -38 10q-42 -1 -59 -33l-9 -17q-4 -7 -12 -7l-11 5z" />
    <glyph glyph-name="Umacron" unicode="&#x16a;" horiz-adv-x="1284" 
d="M1351 647q-361 -700 -649 -694q-87 0 -140.5 54.5t-52.5 143.5q0 91 24.5 193.5t59.5 219.5l72 237l63 198l61 189l65 208q7 27 8 49q0 14 -8 27l-12 13l-9 3q-31 1 -71 -65q-67 -108 -89 -152l-112 -227l-14 -20l-7 -4l-19 14l-28 31q-13 14 -13 26q-1 11 13 34l38 71
q40 79 96 152q140 189 249 190q84 -3 82 -120q0 -99 -100 -412l-95 -280q-61 -174 -89 -269q-68 -223 -69 -330q0 -57 33 -89q37 -36 88 -35q119 0 227 118q76 81 155 203q315 487 524 1124q6 18 13 24q5 3 26 4h55q24 -1 25 -23l-3 -14l-101 -298l-136 -449
q-91 -306 -118 -413l-44 -176l-65 -254l-5 -15l-7 -6l-9 -1l-16 6l-59 25l-11 8q-5 5 -4 13l1 13q29 165 105 406l102 329l70 221zM1089 1650l9 39q2 9 9 12q8 4 22 4h454q16 0 20 -1l8 -7l-3 -14l-10 -33l-8 -20l-27 -2h-455h-15l-7 8z" />
    <glyph glyph-name="umacron" unicode="&#x16b;" horiz-adv-x="680" 
d="M628 254l-42 -68q-123 -203 -213 -201q-38 -1 -59 26t-20 59q-1 40 16 105l31 125l39 127l10 27q5 9 24 14l47 14l16 3q5 0 9 -4l3 -8l-2 -11l-13 -39l-34 -107l-59 -195q-12 -37 -11 -63q0 -24 28 -29l16 3q20 9 43 35l51 62q33 46 70 104l80 143l35 66l10 16l12 9l17 3
h45l17 -3l7 -6l2 -10l-3 -15l-9 -30l-30 -89l-41 -134l-18 -64l-4 -28q0 -39 29 -38q13 1 30 12l48 39l38 33q11 10 19 11l7 -3l7 -11q-1 -8 -11 -19l-39 -38l-51 -45q-60 -48 -99 -47q-68 -1 -69 83q-1 32 12 81l23 86l24 79zM942 583h-260l-6 1l-3 5q0 2 2 8l11 35l5 7
q5 3 14 3h253q11 0 15 -1l4 -5q0 -4 -1 -7l-12 -36l-8 -9q-4 -1 -14 -1z" />
    <glyph glyph-name="Uring" unicode="&#x16e;" horiz-adv-x="1284" 
d="M1351 647q-361 -700 -649 -694q-87 0 -140.5 54.5t-52.5 143.5q0 91 24.5 193.5t59.5 219.5l72 237l63 198l61 189l65 208q7 27 8 49q0 14 -8 27l-12 13l-9 3q-31 1 -71 -65q-67 -108 -89 -152l-112 -227l-14 -20l-7 -4l-19 14l-28 31q-13 14 -13 26q-1 11 13 34l38 71
q40 79 96 152q140 189 249 190q84 -3 82 -120q0 -99 -100 -412l-95 -280q-61 -174 -89 -269q-68 -223 -69 -330q0 -57 33 -89q37 -36 88 -35q119 0 227 118q76 81 155 203q315 487 524 1124q6 18 13 24q5 3 26 4h55q24 -1 25 -23l-3 -14l-101 -298l-136 -449
q-91 -306 -118 -413l-44 -176l-65 -254l-5 -15l-7 -6l-9 -1l-16 6l-59 25l-11 8q-5 5 -4 13l1 13q29 165 105 406l102 329l70 221zM1199 1755q0 52 42.5 89.5t105.5 37.5t104.5 -38t41.5 -89q0 -50 -42.5 -88.5t-103.5 -38.5q-60 0 -104 38t-44 89zM1447 1754
q0 35 -29.5 58.5t-70.5 23.5t-71.5 -23.5t-30.5 -58.5q0 -34 31 -57t71 -23t70 23t30 57z" />
    <glyph glyph-name="uring" unicode="&#x16f;" horiz-adv-x="680" 
d="M628 254l-42 -68q-123 -203 -213 -201q-38 -1 -59 26t-20 59q-1 40 16 105l31 125l39 127l10 27q5 9 24 14l47 14l16 3q5 0 9 -4l3 -8l-2 -11l-13 -39l-34 -107l-59 -195q-12 -37 -11 -63q0 -24 28 -29l16 3q20 9 43 35l51 62q33 46 70 104l80 143l35 66l10 16l12 9l17 3
h45l17 -3l7 -6l2 -10l-3 -15l-9 -30l-30 -89l-41 -134l-18 -64l-4 -28q0 -39 29 -38q13 1 30 12l48 39l38 33q11 10 19 11l7 -3l7 -11q-1 -8 -11 -19l-39 -38l-51 -45q-60 -48 -99 -47q-68 -1 -69 83q-1 32 12 81l23 86l24 79zM732 775q36 -33 36 -80q0 -49 -36 -81t-86 -32
t-85 32q-37 35 -37 81t36 79.5t86 33.5t86 -33zM647 763q-73 -5 -78 -68q5 -63 77 -68q73 4 77 68q-5 63 -76 68z" />
    <glyph glyph-name="Udblacute" unicode="&#x170;" horiz-adv-x="1284" 
d="M1351 647q-361 -700 -649 -694q-87 0 -140.5 54.5t-52.5 143.5q0 91 24.5 193.5t59.5 219.5l72 237l63 198l61 189l65 208q7 27 8 49q0 14 -8 27l-12 13l-9 3q-31 1 -71 -65q-67 -108 -89 -152l-112 -227l-14 -20l-7 -4l-19 14l-28 31q-13 14 -13 26q-1 11 13 34l38 71
q40 79 96 152q140 189 249 190q84 -3 82 -120q0 -99 -100 -412l-95 -280q-61 -174 -89 -269q-68 -223 -69 -330q0 -57 33 -89q37 -36 88 -35q119 0 227 118q76 81 155 203q315 487 524 1124q6 18 13 24q5 3 26 4h55q24 -1 25 -23l-3 -14l-101 -298l-136 -449
q-91 -306 -118 -413l-44 -176l-65 -254l-5 -15l-7 -6l-9 -1l-16 6l-59 25l-11 8q-5 5 -4 13l1 13q29 165 105 406l102 329l70 221zM1463 1896l-206 -244l-18 -17l-22 -2l-30 -3l-18 -2l-6 6l9 18l157 247q15 23 48 23h73l21 -1l3 -9q-2 -5 -11 -16zM1716 1896l-206 -244
l-17 -17l-23 -2l-30 -3l-17 -2l-7 6l9 18l157 247q10 15 18 19q9 4 30 4h73l21 -1l3 -9q-2 -5 -11 -16z" />
    <glyph glyph-name="udblacute" unicode="&#x171;" horiz-adv-x="680" 
d="M628 254l-42 -68q-123 -203 -213 -201q-38 -1 -59 26t-20 59q-1 40 16 105l31 125l39 127l10 27q5 9 24 14l47 14l16 3q5 0 9 -4l3 -8l-2 -11l-13 -39l-34 -107l-59 -195q-12 -37 -11 -63q0 -24 28 -29l16 3q20 9 43 35l51 62q33 46 70 104l80 143l35 66l10 16l12 9l17 3
h45l17 -3l7 -6l2 -10l-3 -15l-9 -30l-30 -89l-41 -134l-18 -64l-4 -28q0 -39 29 -38q13 1 30 12l48 39l38 33q11 10 19 11l7 -3l7 -11q-1 -8 -11 -19l-39 -38l-51 -45q-60 -48 -99 -47q-68 -1 -69 83q-1 32 12 81l23 86l24 79zM632 753q10 10 20 13l27 3h68h18l5 -7l-16 -14
l-201 -145l-23 -11l-20 -5l-28 -3l-17 -2l-5 8l12 13zM848 753q10 10 19 13q8 2 27 3h69h17l5 -7l-16 -14l-201 -145l-22 -11l-20 -5l-29 -3l-17 -2l-5 8l12 13z" />
    <glyph glyph-name="Uogonek" unicode="&#x172;" horiz-adv-x="1284" 
d="M1351 647q-361 -700 -649 -694q-87 0 -140.5 54.5t-52.5 143.5q0 91 24.5 193.5t59.5 219.5l72 237l63 198l61 189l65 208q7 27 8 49q0 14 -8 27l-12 13l-9 3q-31 1 -71 -65q-67 -108 -89 -152l-112 -227l-14 -20l-7 -4l-19 14l-28 31q-13 14 -13 26q-1 11 13 34l38 71
q40 79 96 152q140 189 249 190q84 -3 82 -120q0 -99 -100 -412l-95 -280q-61 -174 -89 -269q-68 -223 -69 -330q0 -57 33 -89q37 -36 88 -35q119 0 227 118q76 81 155 203q315 487 524 1124q6 18 13 24q5 3 26 4h55q24 -1 25 -23l-3 -14l-101 -298l-136 -449
q-91 -306 -118 -413l-44 -176l-65 -254l-5 -15l-7 -6l-9 -1l-16 6l-59 25l-11 8q-5 5 -4 13l1 13q29 165 105 406l102 329l70 221zM1180 -106h62l-15 -15q-87 -90 -87 -174q0 -39 32 -39q25 0 65 32.5t52 46.5q14 17 23 17q14 0 14 -12q0 -23 -67 -79.5t-123 -56.5
q-80 0 -80 83q0 104 124 197z" />
    <glyph glyph-name="uogonek" unicode="&#x173;" horiz-adv-x="680" 
d="M628 254l-42 -68q-123 -203 -213 -201q-38 -1 -59 26t-20 59q-1 40 16 105l31 125l39 127l10 27q5 9 24 14l47 14l16 3q5 0 9 -4l3 -8l-2 -11l-13 -39l-34 -107l-59 -195q-12 -37 -11 -63q0 -24 28 -29l16 3q20 9 43 35l51 62q33 46 70 104l80 143l35 66l10 16l12 9l17 3
h45l17 -3l7 -6l2 -10l-3 -15l-9 -30l-30 -89l-41 -134l-18 -64l-4 -28q0 -39 29 -38q13 1 30 12l48 39l38 33q11 10 19 11l7 -3l7 -11q-1 -8 -11 -19l-39 -38l-51 -45q-60 -48 -99 -47q-68 -1 -69 83q-1 32 12 81l23 86l24 79zM724 25l-12 -13l-29 -33q-20 -22 -32 -47
q-18 -32 -17 -65q-1 -34 28 -35q14 0 27 7l31 21q32 25 43 37l15 14l10 2l11 -11q0 -20 -73 -75q-55 -41 -95 -39q-69 -1 -70 72q2 80 94 154l15 11h54z" />
    <glyph glyph-name="Ydieresis" unicode="&#x178;" horiz-adv-x="1246" 
d="M1497 1002q-171 -312 -331 -551q-93 -139 -178 -240q-80 -97 -180 -174q-56 -44 -109 -68q-35 -17 -73 -16q-129 2 -125 149q1 155 96 467q53 178 158 492l95 290q20 62 20 94q0 12 -4 19l-8 8l-10 1q-14 -2 -27 -16l-44 -49q-66 -77 -116 -160q-61 -99 -104 -198
l-13 -28l-10 -12l-17 13l-30 49q-7 9 -6 16l5 16q44 94 107 181q59 83 127 158q72 80 124 80q83 0 85 -130q0 -39 -6 -83q-9 -69 -25 -126q-28 -103 -83 -275l-73 -242l-75 -262q-43 -152 -60 -233q-11 -49 -10 -98q1 -72 47 -71q203 3 713 857l118 204q62 112 99 205
l66 162q5 10 10 14q5 3 21 7l48 9h20l7 -5l3 -7l-2 -19l-87 -302l-79 -259l-75 -239q-78 -243 -122 -371q-68 -196 -159 -354q-150 -260 -415 -331q-92 -25 -198 -24q-59 -1 -120 5l-38 6l-16 9l5 19l19 46l7 11l6 3l16 -4q40 -19 89 -29q69 -16 135 -16q88 -1 153 30
q140 66 235 235q58 103 139 310q93 239 220 642l89 284zM1183 1809q37 0 64 -26t27 -64q0 -39 -28.5 -65t-61.5 -26q-34 0 -62.5 26t-28.5 65q0 38 26.5 64t63.5 26zM1527 1809q37 0 64 -26t27 -64q0 -39 -28.5 -65t-61.5 -26q-34 0 -62.5 26t-28.5 65q0 38 26.5 64t63.5 26
z" />
    <glyph glyph-name="Zacute" unicode="&#x179;" horiz-adv-x="1397" 
d="M493 103l247 10l212 5l249 -1l183 -5l73 -5l24 -10v-7l-7 -16l-9 -14l-38 -62q-11 -17 -28 -19l-23 1l-79 8q-134 9 -257 12h-231l-251 -4q-111 -3 -218 -11l-93 -6q-53 -2 -50 32q-2 59 197 247q69 66 174 151.5t225 177.5l286 210q236 170 344 256q153 121 299 258
l57 54v0l-74 20q-90 21 -230 32q-172 13 -335 13q-191 -2 -287 -19q-229 -41 -232 -137q-1 -81 208 -135q66 -18 118 -22l70 -7l21 -7l-9 -26l-36 -52q-15 -20 -27 -20l-16 1l-73 17q-313 89 -315 230q-2 75 89 153q59 51 163 80q128 36 364 37q110 0 241 -9t226 -23
q85 -13 163 -33.5t76 -57.5q-1 -33 -95 -126q-63 -65 -156 -146q-118 -105 -249 -206q-117 -92 -372 -276q-233 -169 -349 -261q-127 -100 -220 -189l-101 -99v0zM1584 1896l-206 -244l-17 -17l-23 -2l-29 -3l-18 -2l-6 6l8 18l157 247q10 15 18 19q9 4 30 4h73l21 -1l3 -9
q-2 -5 -11 -16z" />
    <glyph glyph-name="zacute" unicode="&#x17a;" horiz-adv-x="453" 
d="M411 90l106 3l76 4l15 -1l10 -6l3 -9l-8 -20l-15 -33l-7 -13q-6 -6 -19 -8l-45 -5l-120 -2l-135 7q-19 0 -28 6l-8 8l-2 9q0 12 12 23l25 25l53 51l56 56l209 197v0l-63 -2l-87 -4l-49 -3h-25l-9 4l-4 6q-1 11 6 23l22 41q6 11 17 16q11 4 53 5l105 2l90 -3l44 -4l15 -5
q6 -6 7 -14q0 -10 -5 -17l-16 -19l-90 -87l-246 -231v0h57zM642 753q10 10 19 13q8 2 27 3h69h17l5 -7l-16 -14l-201 -145l-22 -11l-20 -5l-29 -3l-17 -2l-4 8l11 13z" />
    <glyph glyph-name="Zdot" unicode="&#x17b;" horiz-adv-x="1397" 
d="M493 103l247 10l212 5l249 -1l183 -5l73 -5l24 -10v-7l-7 -16l-9 -14l-38 -62q-11 -17 -28 -19l-23 1l-79 8q-134 9 -257 12h-231l-251 -4q-111 -3 -218 -11l-93 -6q-53 -2 -50 32q-2 59 197 247q69 66 174 151.5t225 177.5l286 210q236 170 344 256q153 121 299 258
l57 54v0l-74 20q-90 21 -230 32q-172 13 -335 13q-191 -2 -287 -19q-229 -41 -232 -137q-1 -81 208 -135q66 -18 118 -22l70 -7l21 -7l-9 -26l-36 -52q-15 -20 -27 -20l-16 1l-73 17q-313 89 -315 230q-2 75 89 153q59 51 163 80q128 36 364 37q110 0 241 -9t226 -23
q85 -13 163 -33.5t76 -57.5q-1 -33 -95 -126q-63 -65 -156 -146q-118 -105 -249 -206q-117 -92 -372 -276q-233 -169 -349 -261q-127 -100 -220 -189l-101 -99v0zM1252 1809q39 0 65 -26.5t26 -63.5q0 -38 -26 -64.5t-64 -26.5t-64.5 26t-26.5 64t26 64.5t64 26.5z" />
    <glyph glyph-name="zdot" unicode="&#x17c;" horiz-adv-x="453" 
d="M411 90l106 3l76 4l15 -1l10 -6l3 -9l-8 -20l-15 -33l-7 -13q-6 -6 -19 -8l-45 -5l-120 -2l-135 7q-19 0 -28 6l-8 8l-2 9q0 12 12 23l25 25l53 51l56 56l209 197v0l-63 -2l-87 -4l-49 -3h-25l-9 4l-4 6q-1 11 6 23l22 41q6 11 17 16q11 4 53 5l105 2l90 -3l44 -4l15 -5
q6 -6 7 -14q0 -10 -5 -17l-16 -19l-90 -87l-246 -231v0h57zM607 697.5q21 -20.5 21 -47.5t-21 -47.5t-47 -20.5q-27 0 -47.5 20.5t-20.5 47.5t20.5 47.5t47.5 20.5q26 0 47 -20.5z" />
    <glyph glyph-name="Zcaron" unicode="&#x17d;" horiz-adv-x="1397" 
d="M493 103l247 10l212 5l249 -1l183 -5l73 -5l24 -10v-7l-7 -16l-9 -14l-38 -62q-11 -17 -28 -19l-23 1l-79 8q-134 9 -257 12h-231l-251 -4q-111 -3 -218 -11l-93 -6q-53 -2 -50 32q-2 59 197 247q69 66 174 151.5t225 177.5l286 210q236 170 344 256q153 121 299 258
l57 54v0l-74 20q-90 21 -230 32q-172 13 -335 13q-191 -2 -287 -19q-229 -41 -232 -137q-1 -81 208 -135q66 -18 118 -22l70 -7l21 -7l-9 -26l-36 -52q-15 -20 -27 -20l-16 1l-73 17q-313 89 -315 230q-2 75 89 153q59 51 163 80q128 36 364 37q110 0 241 -9t226 -23
q85 -13 163 -33.5t76 -57.5q-1 -33 -95 -126q-63 -65 -156 -146q-118 -105 -249 -206q-117 -92 -372 -276q-233 -169 -349 -261q-127 -100 -220 -189l-101 -99v0zM1349 1747q142 94 263.5 142.5t175.5 48.5h10q14 -4 14 -16q0 -20 -48 -34q-43 -12 -142.5 -70t-163.5 -116
l-66 -60q-15 -14 -37 -14h-41q-24 0 -32 22l-20 57q-39 112 -117 197l-10 17q0 12 19 12q34 0 195 -186v0z" />
    <glyph glyph-name="zcaron" unicode="&#x17e;" horiz-adv-x="453" 
d="M411 90l106 3l76 4l15 -1l10 -6l3 -9l-8 -20l-15 -33l-7 -13q-6 -6 -19 -8l-45 -5l-120 -2l-135 7q-19 0 -28 6l-8 8l-2 9q0 12 12 23l25 25l53 51l56 56l209 197v0l-63 -2l-87 -4l-49 -3h-25l-9 4l-4 6q-1 11 6 23l22 41q6 11 17 16q11 4 53 5l105 2l90 -3l44 -4l15 -5
q6 -6 7 -14q0 -10 -5 -17l-16 -19l-90 -87l-246 -231v0h57zM586 714q51 30 98 42q55 14 99 14l18 -3l9 -12l-16 -14l-55 -27q-88 -44 -147 -110l-12 -12l-12 -6l-14 -3h-45q-16 -2 -20 4l-6 11l-10 25l-35 76q-16 28 -38 52q-9 8 -9 15l3 8l7 3q24 -1 87 -57l40 -42v0z" />
    <glyph glyph-name="florin" unicode="&#x192;" 
d="M452 232l-32 8l-11 8l11 14l72 60l19 22v0l53 180l82 282q35 116 79 234q46 127 87 211q146 300 242 297q61 0 62 -141q-2 -199 -77 -385q-50 -123 -120 -240q-66 -109 -153 -227l-123 -158v0l-37 -119v0l38 10q43 12 88 38l67 40l14 9l9 4l11 -3q4 -4 4 -9
q1 -25 -79 -65q-63 -33 -105 -46l-56 -15v0l-67 -233l-64 -210l-48 -147l-19 -57l-10 -28q-13 -25 -30 -33l-81 -34q-22 -10 -30 -9l-8 5l-3 12l4 17l61 160l61 174l66 204l54 166v0zM685 543v0l43 58q56 78 110 181q52 98 103 219q127 295 134 464l-1 23l-9 18l-13 -6
q-14 -9 -21 -22q-53 -84 -135 -299q-50 -125 -103 -290z" />
    <glyph glyph-name="circumflex" unicode="&#x2c6;" 
d="M693 638q-99 -58 -188 -56l-18 3l-9 12l16 14l52 27q86 51 139 110l11 12l12 8l16 1h48l21 -3l6 -12l10 -25q20 -48 39 -76q13 -24 41 -52q7 -9 8 -15l-9 -11q-24 -1 -92 57l-44 44v0z" />
    <glyph glyph-name="caron" unicode="&#x2c7;" 
d="M775 714q51 30 98 42q55 14 99 14l18 -3l9 -12l-16 -14l-55 -27q-88 -44 -147 -110l-12 -12l-12 -6l-14 -3h-45q-16 -2 -20 4l-6 11l-10 25l-35 76q-16 28 -38 52q-9 8 -9 15l3 8l7 3q24 -1 87 -57l40 -42v0z" />
    <glyph glyph-name="macron" unicode="&#x2c9;" 
d="M875 583h-260l-6 1l-3 5q0 2 2 8l11 35l5 7q5 3 14 3h253q11 0 15 -1l4 -5q0 -4 -1 -7l-12 -36l-8 -9q-4 -1 -14 -1z" />
    <glyph glyph-name="breve" unicode="&#x2d8;" 
d="M620 763l10 -4v-6l-4 -7q-23 -33 -25 -77q-3 -49 55 -47q71 1 132 74l48 55q6 8 14 10l17 2h63l15 -1l1 -8l-9 -13l-37 -41q-87 -97 -184 -113q-25 -6 -48 -5q-98 1 -98 91q0 29 8 61l7 20l5 5l9 4h21z" />
    <glyph glyph-name="dotaccent" unicode="&#x2d9;" 
d="M797 697.5q21 -20.5 21 -47.5t-21 -47.5t-47 -20.5q-27 0 -47.5 20.5t-20.5 47.5t20.5 47.5t47.5 20.5q26 0 47 -20.5z" />
    <glyph glyph-name="ring" unicode="&#x2da;" 
d="M842 775q36 -33 36 -80q0 -49 -36 -81t-86 -32t-85 32q-37 35 -37 81t36 79.5t86 33.5t86 -33zM757 763q-73 -5 -78 -68q5 -63 77 -68q73 4 77 68q-5 63 -76 68z" />
    <glyph glyph-name="ogonek" unicode="&#x2db;" 
d="M776 25l-12 -13l-29 -33q-20 -22 -32 -47q-18 -32 -17 -65q-1 -34 28 -35q14 0 27 7l31 21q32 25 43 37l15 14l10 2l11 -11q0 -20 -73 -75q-55 -41 -95 -39q-69 -1 -70 72q2 80 94 154l15 11h54z" />
    <glyph glyph-name="tilde" unicode="&#x2dc;" 
d="M536 600q10 43 49 77t82 34q23 0 44 -9l53 -25q26 -14 52 -20l23 -3q42 1 57 38l11 21l13 8q4 -2 7 -6l4 -15l-3 -14l-13 -27q-51 -80 -123 -77q-25 0 -44 7l-52 24l-33 16q-23 9 -38 10q-42 -1 -59 -33l-9 -17q-4 -7 -12 -7l-11 5z" />
    <glyph glyph-name="hungarumlaut" unicode="&#x2dd;" 
d="M749 753q10 10 20 13l27 3h68h18l5 -7l-16 -14l-201 -145l-23 -11l-20 -5l-28 -3l-17 -2l-5 8l12 13zM965 753q10 10 19 13q8 2 27 3h69h17l5 -7l-16 -14l-201 -145l-22 -11l-20 -5l-29 -3l-17 -2l-5 8l12 13z" />
    <glyph glyph-name="pi" unicode="&#x3c0;" horiz-adv-x="1246" 
d="M457 698q33 52 72 89q84 82 284 84l211 -3l136 -1l163 2l140 6l46 3l-30 -160h-312q-31 -141 -31 -245q0 -183 46 -350q14 -55 15 -90q0 -64 -88 -64q-137 1 -135 205q-1 105 22 212q29 142 81 332h-152l-121 -589q-13 -63 -29 -100q-26 -58 -105 -60q-83 -3 -85 63
q1 35 36 126l216 560h-97q-84 0 -134 -26q-44 -23 -104 -87l-42 -46l-62 42z" />
    <glyph glyph-name="afii10023" unicode="&#x401;" horiz-adv-x="1171" 
d="M1281 109q-5 -18 -12 -26q-9 -10 -31 -18l-106 -36l-122 -34q-162 -41 -304 -42q-181 -1 -284 55q-143 77 -145 238q1 166 166 354q74 83 148 138q63 44 146 86l96 49q12 7 21 16q4 3 4 10l-1 5l-8 12l-24 27q-74 78 -73 136q-1 60 28 108q66 115 214 205q131 79 278 113
q80 18 158 18q193 0 197 -127q-2 -79 -87 -233l-50 -84l-16 -21l-8 -3l-17 14l-26 43q-12 19 -12 28q-2 7 10 22q50 76 89 156q21 43 21 78q-5 80 -108 77q-93 0 -221 -50q-114 -45 -193 -116q-52 -46 -94 -103q-68 -91 -67 -160q2 -43 37 -111l21 -43q10 -25 11 -48
q-2 -46 -57 -80l-91 -53q-74 -41 -134 -86q-81 -59 -142 -135q-119 -148 -120 -291q1 -92 74 -148q63 -48 163 -46q100 -1 212 27q123 30 225 74l175 76l51 22q9 5 19 5l7 -4l2 -8l-4 -21zM1368.5 1747.5q20.5 -20.5 20.5 -47.5q1 -29 -21 -49t-47 -19q-25 -2 -47.5 20.5
t-20.5 47.5q-1 25 19 47t49 21q27 0 47.5 -20.5zM1569.5 1747.5q20.5 -20.5 20.5 -47.5q1 -29 -21 -49t-47 -19q-25 -2 -47.5 20.5t-20.5 47.5q-1 25 19 47t49 21q27 0 47.5 -20.5z" />
    <glyph glyph-name="afii10051" unicode="&#x402;" horiz-adv-x="1888" 
d="M1509 1409q-69 -212 -98 -311l-30 -101l-55 -185q-82 -281 -139 -509q94 237 298.5 442t359.5 205q115 0 183.5 -77.5t68.5 -199.5q0 -164 -92.5 -343t-248.5 -319q-163 -146 -373.5 -225.5t-297.5 -79.5q-6 0 -9 2l-7 10q0 8 8 24l22 44q5 10 11 12q3 1 8 1h2l38 -1h2
q144 0 301.5 70.5t279.5 221.5q103 128 169 300.5t66 305.5q0 81 -38.5 142.5t-107.5 61.5q-119 0 -274 -147.5t-290 -386t-160 -365.5l-5 -25q-2 -9 -5 -14q-5 -8 -12 -8q-8 0 -21 6l-58 26q-15 7 -15 20q0 5 2 13q24 93 41 162q144 579 288 1004l26 77l52 155
q-104 6 -155 6q-241 0 -391 -35t-150 -95q0 -58 110.5 -106.5t269.5 -60.5q12 -1 20 -3l22 -15l-16 -22l-39 -40q-16 -16 -33 -16q-28 0 -150 44t-170 92t-48 107q0 110 178.5 176.5t467.5 66.5h51h72q45 0 360 -21q85 -6 128 -7l128 -4q32 -1 39 -1h1l40 1h1q8 0 12 -3
l3 -8q0 -7 -12 -33.5t-24 -35.5q-29 -22 -86 -22q-54 0 -295 14z" />
    <glyph glyph-name="afii10052" unicode="&#x403;" horiz-adv-x="1851" 
d="M1721 1416q-63 -315 -120 -507q-155 -525 -334 -723q-210 -232 -483 -232q-107 0 -223.5 26.5t-175.5 63.5l-12 15l4 8q5 7 10 12l25 25q14 14 25 14q10 0 44 -26q116 -88 281 -88q236 0 379 158q193 213 356 781q50 173 111 475l-134 3q-89 2 -153 2q-317 0 -444 -32.5
t-127 -107.5q0 -97 233 -145l78 -16q40 -8 49 -9q14 -1 21 -2l19 -10l-15 -25l-39 -39q-3 -3 -15 -8q-9 -4 -18 -4q-56 0 -214 69.5t-158 170.5q0 251 822 251q369 0 575 -14q59 -4 103 -4q43 0 50 -3l6 -6l-4 -11l-26 -58l-5 -11q-2 -4 -6 -5q-7 -2 -14 -2h-2l-218 6l-82 2
q-105 3 -169 6zM1776 1803q10 10 19 13q8 2 27 3h69h17l5 -7l-16 -14l-201 -145l-22 -11l-20 -5l-29 -3l-17 -2l-4 8l11 13z" />
    <glyph glyph-name="afii10053" unicode="&#x404;" horiz-adv-x="1208" 
d="M543 510h491q13 0 16 -10v-10l-10 -41l-5 -10q-4 -3 -9 -3h-493q-1 -8 -1 -12l-2 -46q0 -157 100 -259t262 -102q114 0 241 42.5t188 79.5q42 25 50 25q23 0 23 -28q0 -26 -180 -104t-363 -78q-192 0 -304 107t-112 312v2l1 49v12h-124l-6 4l-1 5q0 4 1 9l8 36
q4 20 19 20h112q33 227 216 472.5t419 389.5t444 144q80 0 125.5 -41t45.5 -100q0 -88 -84 -174.5t-221.5 -162t-189.5 -75.5q-18 0 -18 13v0l6 21l17 59q4 15 14 23q7 6 23 12q176 67 291 151.5t115 144.5q0 79 -132 79q-137 0 -338.5 -111.5t-401.5 -366.5t-233 -478z" />
    <glyph glyph-name="afii10054" unicode="&#x405;" horiz-adv-x="1360" 
d="M260 144l12 12l10 3q6 0 21 -9q51 -34 143 -63q111 -38 223 -59q126 -26 250 -25q166 -1 294 65q169 88 171 233q0 54 -21 101q-28 62 -72 105q-45 43 -119 100q-89 66 -171 136q-89 72 -145 147q-63 79 -62 170q1 211 257 342q113 58 243.5 89.5t244.5 31.5
q77 0 151 -16q143 -31 142 -146q-3 -136 -182 -279q-43 -35 -89 -64q-28 -19 -43 -18q-8 -1 -31 11l-64 30l-14 16l3 6l14 11l61 31q38 17 90 49q60 35 109 76q88 71 87 137q-4 105 -233 106q-77 0 -164 -18q-106 -22 -199 -64q-111 -51 -183 -116q-106 -95 -104 -181
q-1 -59 38 -113q67 -95 236 -215q102 -75 159 -121q98 -85 140 -196q17 -47 17 -98q0 -102 -69 -197q-58 -78 -166 -128q-157 -73 -413 -73q-255 -2 -493 70q-55 16 -102 43l-17 14l13 26z" />
    <glyph glyph-name="afii10055" unicode="&#x406;" horiz-adv-x="1171" 
d="M1092 500q-148 124 -149 350q-2 232 182 496q39 57 87 107q67 70 124 70q119 -3 118 -198q0 -95 -19.5 -207t-52 -231.5t-78.5 -244.5l-65 -167v0l40 -9q34 -8 78 -10l27 -2l14 -3l5 -3l1 -17q-4 -12 -12 -15l-21 -2l-111 16l-36 5v0l-27 -54q-45 -91 -98 -164
q-188 -265 -516 -264q-133 -1 -302 51q-44 12 -74 32l-12 10l-3 6q-2 9 8 23l20 35l16 17l22 -10q19 -14 58 -31l102 -45q92 -39 188 -38q106 -1 194 47q79 41 135 111q85 105 152 246l33 71v0zM1140 519v0l47 109q38 95 84 240l56 185q66 224 68 341l-4 42q-10 44 -47 46
q-44 -3 -92 -74q-44 -64 -80 -137q-45 -85 -69 -154q-63 -178 -64 -327q-1 -73 25 -149.5t64 -111.5z" />
    <glyph glyph-name="afii10056" unicode="&#x407;" horiz-adv-x="1171" 
d="M1092 500q-148 124 -149 350q-2 232 182 496q39 57 87 107q67 70 124 70q119 -3 118 -198q0 -95 -19.5 -207t-52 -231.5t-78.5 -244.5l-65 -167v0l40 -9q34 -8 78 -10l27 -2l14 -3l5 -3l1 -17q-4 -12 -12 -15l-21 -2l-111 16l-36 5v0l-27 -54q-45 -91 -98 -164
q-188 -265 -516 -264q-133 -1 -302 51q-44 12 -74 32l-12 10l-3 6q-2 9 8 23l20 35l16 17l22 -10q19 -14 58 -31l102 -45q92 -39 188 -38q106 -1 194 47q79 41 135 111q85 105 152 246l33 71v0zM1140 519v0l47 109q38 95 84 240l56 185q66 224 68 341l-4 42q-10 44 -47 46
q-44 -3 -92 -74q-44 -64 -80 -137q-45 -85 -69 -154q-63 -178 -64 -327q-1 -73 25 -149.5t64 -111.5zM1308.5 1747.5q20.5 -20.5 20.5 -47.5q1 -29 -21 -49t-47 -19q-25 -2 -47.5 20.5t-20.5 47.5q-1 25 19 47t49 21q27 0 47.5 -20.5zM1509.5 1747.5q20.5 -20.5 20.5 -47.5
q1 -29 -21 -49t-47 -19q-25 -2 -47.5 20.5t-20.5 47.5q-1 25 19 47t49 21q27 0 47.5 -20.5z" />
    <glyph glyph-name="afii10057" unicode="&#x408;" horiz-adv-x="1020" 
d="M1095 623q193 499 191 757q0 90 -44 93q-39 1 -103 -111q-47 -83 -67 -139q-53 -138 -54 -348q-1 -94 23 -163l14 -29l13 -25l-3 -9l-36 -38l-34 -32l-23 -14l-10 17q-40 105 -40 252q-1 91 18 193q28 164 104 290q124 204 220 206q117 -2 118 -210q-1 -97 -18 -211
t-50 -232q-27 -95 -79 -236l-72 -191v0h39q14 0 23 -4l8 -7l2 -9l-7 -17l-23 -38q-6 -11 -16 -14q-11 -5 -26 -4h-39v0l-66 -127q-69 -131 -124 -216q-63 -99 -133 -180q-104 -123 -221 -205q-82 -59 -171 -97q-74 -33 -136 -32q-73 0 -118 57q-38 48 -38 128q-1 47 14 98
q56 203 297 399q201 162 448 226q46 12 143 29v0zM979 337v0l-28 -3q-125 -19 -271 -90q-179 -86 -317 -238q-186 -203 -187 -342q-2 -47 23 -82q29 -40 74 -39q24 -1 52 10q39 14 81 37q86 46 159 110q82 70 145 156q116 158 218 367z" />
    <glyph glyph-name="afii10058" unicode="&#x409;" horiz-adv-x="2507" 
d="M200 34l34 40q8 10 19 10t29 -10q129 -70 261 -70q266 0 450 139q147 111 299.5 292t462.5 653q175 267 247 360.5t102 93.5q57 0 57 -104q0 -167 -93 -467l-104 -335q-56 -180 -56 -307q0 -120 87.5 -222.5t229.5 -102.5q192 0 317 156.5t125 366.5q0 243 -193 243
q-109 0 -207.5 -60.5t-163.5 -160.5q-15 -24 -26 -37q-8 -11 -18 -12l-8 2l-7 10q0 29 78 119.5t183 139.5t214 49q112 0 177.5 -70t65.5 -199q0 -239 -174.5 -418t-405.5 -179q-162 0 -265.5 111.5t-103.5 288.5q0 154 48 305l94 295q126 395 126 480q0 7 -2 11l-5 4
q-11 0 -28 -24l-50 -70q-56 -78 -213 -329q-249 -397 -415.5 -600.5t-327.5 -308.5q-249 -163 -556 -163q-149 0 -224 29l-49 19q-16 6 -16 18q0 8 5 14z" />
    <glyph glyph-name="afii10059" unicode="&#x40a;" horiz-adv-x="2270" 
d="M1738 717q-173 -37 -420 -118v0q-104 -225 -169 -322t-148 -166q-190 -157 -425 -157q-107 0 -243 41.5t-136 69.5q0 7 7 15l37 43q6 7 13 7t17 -6l29 -17q176 -103 318 -103q186 0 305 109q133 122 276 445v0l-208 -87q-26 -11 -35 -11q-12 0 -12 12q0 8 5 12l15 7
l46 24l209 92v0l249 759l17 52q6 11 13 17t22 11l57 20q11 4 21 4q13 0 13 -15q0 -8 -4 -20l-270 -781v0q163 53 336 95q30 7 79 20v0q12 23 37 72l76 150q36 70 136.5 229t163.5 236q22 27 36 34l36 18q16 8 26 8q13 0 13 -11q0 -9 -46 -74q-213 -301 -355 -640v0
q142 25 247 25q189 0 298.5 -110t109.5 -279q0 -188 -138.5 -330.5t-336.5 -142.5q-193 0 -291 123t-98 320q0 163 72 320v0zM1840 731v0q-79 -186 -79 -340q0 -181 83 -284t225 -103q167 0 266.5 135t99.5 321q0 306 -323 306q-95 0 -272 -35z" />
    <glyph glyph-name="afii10060" unicode="&#x40b;" horiz-adv-x="1888" 
d="M1502 1412q-194 -601 -299 -1018l-23 -91q92 232 293.5 439.5t393.5 207.5q104 0 162 -69t58 -167q0 -74 -55 -256q-124 -408 -138 -483q-2 -10 -5 -14q-5 -7 -13 -7t-19 5l-59 26q-6 3 -10 7q-5 5 -5 14q0 16 32 128l44 154l5 18l77 254q27 89 27 161q0 179 -136 179
q-144 0 -304.5 -165t-290.5 -410q-119 -224 -143 -350q-2 -9 -5 -14q-5 -7 -13 -7q-9 0 -20 5l-58 26q-6 3 -10 7q-5 6 -5 13q0 6 2 14l41 161l62 244q107 410 226 762l26 77l52 155q-85 5 -138 5q-252 0 -405 -35.5t-153 -98.5q0 -52 94 -99.5t286 -69.5q10 -1 20 -3
l22 -10l-16 -25l-39 -37q-16 -15 -33 -15q-28 0 -151 44.5t-170 92.5t-47 106q0 109 178.5 176t541.5 67h49q68 -2 360 -21q89 -6 128 -7l128 -4h75q14 0 18 -3l3 -8q0 -6 -12 -29.5t-24 -32.5q-28 -20 -93 -20q-39 0 -107 3l-181 8z" />
    <glyph glyph-name="afii10061" unicode="&#x40c;" horiz-adv-x="1813" 
d="M1487 1470l66 40q10 6 19 6q18 0 18 -20q0 -8 -3 -18l-69 -225l-83 -294q-98 -349 -211.5 -551t-304 -328t-430.5 -126q-102 0 -197 23t-102 36v9q1 2 15 16l31 31q16 16 25 16q4 0 12 -6q1 -1 12 -10q77 -65 267 -65q184 0 317.5 105t245 307t209.5 556l60 216l66 232
q7 24 12 31t25 19zM2447 1288l-55 -27l-20 -6q-14 3 -36 73q-24 77 -72 77q-59 0 -205 -129t-569 -623l-30 -35q-22 -26 -22 -39q0 -27 94 -130l175 -191q160 -175 160 -199q0 -3 -1 -5q-3 -6 -9 -11l-50 -39q-5 -4 -13 -4h-4q-16 6 -176 191l-174 201q-101 117 -101 150
q0 19 25 46l80 86l461 531q254 293 428 293q115 0 127 -143q1 -12 1 -25q0 -35 -14 -42zM2042 1803q10 10 19 13q8 2 27 3h69h17l5 -7l-16 -14l-201 -145l-22 -11l-20 -5l-29 -3l-17 -2l-4 8l11 13z" />
    <glyph glyph-name="afii10062" unicode="&#x40e;" horiz-adv-x="1246" 
d="M1587 1210q-68 -109 -122 -190q-186 -278 -374 -442t-317 -164q-63 0 -99 42.5t-36 109.5q0 124 95 414q99 304 117 372l16 62q6 23 6 37q0 26 -23 26q-44 0 -148 -168.5t-145 -259.5q-6 -14 -13 -24l-12 -10l-14 12l-31 48q-6 9 -6 17q0 43 145.5 239t219.5 196
q34 0 63 -32t29 -98q0 -114 -103 -443q-97 -309 -97 -412q0 -78 62 -78q95 0 266 158t354 420q136 195 224 397q6 13 10 16q5 4 20 6l62 9l16 -1l2 -11q0 -32 -170 -597q-153 -507 -234 -641.5t-213.5 -200t-300.5 -65.5q-120 0 -203 18l-37 8l-17 8l2 12l17 50l6 6l6 2
q6 0 16 -4q121 -50 278 -50q133 0 218.5 75t154 222t201.5 558q46 143 109 351v0zM510 1734l56 16q4 1 5 1h1l5 -1l4 -7q0 -5 -3 -12q-19 -42 -19 -68q0 -37 24 -37q44 0 122 86q20 22 21 23q5 6 11 6l8 -3q5 -5 5 -10q0 -21 -74 -87.5t-122 -66.5q-32 0 -54 24.5t-22 61.5
q0 65 32 74z" />
    <glyph glyph-name="afii10145" unicode="&#x40f;" horiz-adv-x="1284" 
d="M551 -504l-37 44l-7 9l-5 9q0 5 1 7q7 11 33 19q112 34 204 112t173 240l9 18q11 21 28 21q25 0 25 -21q0 -45 -69 -173.5t-155.5 -212t-171.5 -83.5q-19 0 -28 11zM1448 846q-239 -488 -410 -690t-336 -202q-82 0 -137 54t-55 146q0 165 165 650l16 47l51 151
q141 415 141 446q0 43 -32 43q-31 0 -73 -66l-95 -151l-120 -226l-21 -23l-19 14l-28 31q-13 14 -13 26q0 11 12 33l38 71q77 143 173.5 242t168.5 99q83 0 83 -117q0 -132 -192 -686q-158 -456 -158 -593q0 -54 34 -88t86 -34q155 0 340.5 257t367.5 660q81 179 114 275
l79 228q9 27 40 27h54q26 0 26 -22q0 -5 -4 -14q-43 -99 -101 -300q-10 -36 -24 -81q-189 -627 -228 -782l-44 -177l-65 -256q-3 -11 -5 -14q-5 -7 -13 -7q-7 0 -19 5l-58 25q-7 3 -11 8q-5 6 -5 13q0 6 54.5 223t75.5 283l78 250l23 74q38 121 46 148z" />
    <glyph glyph-name="afii10017" unicode="&#x410;" horiz-adv-x="1813" 
d="M1310 351q-147 -163 -320 -269q-210 -127 -544 -129q-136 -1 -237 47l-13 9l-4 8l1 5l4 8l34 41l13 9l13 2q9 -3 24 -10q116 -70 283 -69q113 -1 218 33q119 38 213 107q133 98 257 241q114 130 240 307q88 124 201 296l160 244l147 213q43 62 89 98q15 12 28 12
q54 0 56 -113q0 -68 -15 -150q-25 -135 -80 -321l-95 -308l-29 -91l-29 -93h26l57 4l12 -4l6 -8l-1 -9l-5 -7q-7 -5 -29 -6l-47 -4h-28l-155 -444h-74l-10 28q-35 88 -98 199q-63 110 -115 175l-54 64v0zM1473 458l44 -57q35 -49 77 -112q46 -71 69 -121l33 -80l112 353h-85
q-84 2 -250 17v0zM1439 509v0l30 -6q104 -19 241 -21h109l147 477l65 221q40 137 59 243l1 21l-6 17l-28 -25q-68 -95 -126 -187l-218 -339q-47 -74 -179 -264z" />
    <glyph glyph-name="afii10018" unicode="&#x411;" horiz-adv-x="1888" 
d="M1391 837q161 113 325 113q120 0 187.5 -78t67.5 -199q0 -299 -270 -596q-146 -160 -288 -228.5t-226 -68.5q-16 0 -16 14q0 8 8 27l22 51q5 12 11 14l11 1h8l56 -3q203 0 383 286.5t180 521.5q0 79 -38.5 143.5t-134.5 64.5q-133 0 -302 -128v0q-19 -67 -28 -96l-26 -88
q-59 -198 -92 -338l-11 -46q-29 -119 -50 -186q-20 -64 -84 -64q-73 0 -116.5 64.5t-43.5 153.5q0 297 304 546l11 9v0q58 209 142 459l78 231q-104 6 -155 6q-241 0 -391 -35t-150 -95q0 -58 110.5 -106.5t269.5 -60.5q12 -1 20 -3l22 -15l-16 -22l-39 -40q-16 -16 -33 -16
q-28 0 -150 44t-170 92t-48 107q0 110 178.5 176.5t467.5 66.5h51h72q45 0 360 -21q85 -6 128 -7l128 -4q32 -1 39 -1h1l40 1h1q8 0 12 -3l3 -8q0 -8 -14.5 -39t-43.5 -43q-21 -9 -64 -9q-54 0 -295 14l-224 13l-99 -317q-30 -97 -38 -122l-41 -133v0zM1217 650v0
q-114 -106 -174 -232t-60 -238q0 -74 17 -111.5t32 -37.5l9 7q3 5 5 14q4 18 21 79l101 359l41 133q4 12 8 27z" />
    <glyph glyph-name="afii10019" unicode="&#x412;" horiz-adv-x="1095" 
d="M772 963q-78 -272 -153 -469q-41 -107 -82.5 -189.5t-90.5 -155.5q-47 -68 -89 -115l-63 -62q-21 -20 -35 -19q-19 0 -27 39l-6 53q-1 47 9 100q14 91 42 179q73 238 225 466q54 82 114 161l81 102v0l24 97l38 148l33 135q3 18 9 25q5 6 21 16l67 37l21 12l8 -3l4 -6
l-1 -18l-84 -300v0l114 102q263 222 421 225q72 -2 119 -54t47 -122q1 -139 -133 -312q-88 -112 -254 -230q-74 -53 -118 -73q-28 -13 -44 -26l-8 -9l-2 -7q0 -8 10 -17l16 -11l77 -32q48 -19 89 -46q49 -33 81 -84q35 -57 35 -114q-3 -126 -114 -249q-94 -106 -227 -147
q-103 -31 -270 -34l-159 -3l-33 1l-20 6l-6 6l7 16l45 54q11 13 32 14l27 -1h57l108 -3q203 0 292 41q165 75 165 230q-2 127 -128 196l-74 37l-52 25q-55 28 -54 71q0 40 57 72l44 26q195 118 295 235q163 189 163 336q1 111 -104 115q-52 0 -103 -26q-83 -42 -167 -105
q-108 -81 -269 -238v0zM657 909v0l-66 -92q-63 -90 -110 -179q-46 -84 -90.5 -190.5t-68.5 -191.5q-27 -91 -37 -173v-27l5 -10l10 5l10 15l39 65l50 90q49 96 92 195q83 192 144 409z" />
    <glyph glyph-name="afii10020" unicode="&#x413;" horiz-adv-x="1851" 
d="M1721 1416q-63 -315 -120 -507q-155 -525 -334 -723q-210 -232 -483 -232q-107 0 -223.5 26.5t-175.5 63.5l-12 15l4 8q5 7 10 12l25 25q14 14 25 14q10 0 44 -26q116 -88 281 -88q236 0 379 158q193 213 356 781q50 173 111 475l-134 3q-89 2 -153 2q-317 0 -444 -32.5
t-127 -107.5q0 -97 233 -145l78 -16q40 -8 49 -9q14 -1 21 -2l19 -10l-15 -25l-39 -39q-3 -3 -15 -8q-9 -4 -18 -4q-56 0 -214 69.5t-158 170.5q0 251 822 251q369 0 575 -14q59 -4 103 -4q43 0 50 -3l6 -6l-4 -11l-26 -58l-5 -11q-2 -4 -6 -5q-7 -2 -14 -2h-2l-218 6l-82 2
q-105 3 -169 6z" />
    <glyph glyph-name="afii10021" unicode="&#x414;" horiz-adv-x="1813" 
d="M840 67q-156 -67 -290 -67q-74 0 -145 18q-110 27 -110 81q-1 50 92 93q63 28 133 41q45 8 100 8q109 -2 309 -51v0l22 21q86 83 136 178q56 103 113 252l101 269l87 249l30 86v0l-86 61q-175 112 -383 158q-82 18 -159 18q-49 0 -94 -13q-115 -31 -113 -115
q0 -54 85 -173l61 -81l42 -48l7 -14l-4 -9l-16 -10l-38 -15l-18 -4q-12 1 -23 11l-34 45l-64 92q-59 86 -57 178q-2 109 113 167q76 37 210 39q92 0 203 -19q186 -33 338 -119l69 -42v0l12 31l23 72q5 17 19 26l21 10l66 28l17 4l9 -9l-13 -39l-69 -190v0l48 -41
q379 -329 383 -685q0 -154 -78 -282q-81 -132 -213 -200q-71 -38 -169.5 -57.5t-192.5 -19.5q-113 0 -215 26q-68 16 -148 44l-63 21v0zM391 96l29 -16q23 -12 55 -19q44 -13 83 -11q52 -1 128 17q55 11 91 27l26 12v0l-44 15q-99 28 -177 27q-104 -1 -166 -36zM998 166v0
l66 -20q84 -25 169 -38q91 -16 171 -15q240 0 375 130q55 52 79 129q19 59 19 130q-2 179 -103 359t-225 299l-45 40v0l-42 -120l-41 -121q-138 -407 -226 -546q-49 -77 -113 -145z" />
    <glyph glyph-name="afii10022" unicode="&#x415;" horiz-adv-x="1171" 
d="M1281 109q-5 -18 -12 -26q-9 -10 -31 -18l-106 -36l-122 -34q-162 -41 -304 -42q-181 -1 -284 55q-143 77 -145 238q1 166 166 354q74 83 148 138q63 44 146 86l96 49q12 7 21 16q4 3 4 10l-1 5l-8 12l-24 27q-74 78 -73 136q-1 60 28 108q66 115 214 205q131 79 278 113
q80 18 158 18q193 0 197 -127q-2 -79 -87 -233l-50 -84l-16 -21l-8 -3l-17 14l-26 43q-12 19 -12 28q-2 7 10 22q50 76 89 156q21 43 21 78q-5 80 -108 77q-93 0 -221 -50q-114 -45 -193 -116q-52 -46 -94 -103q-68 -91 -67 -160q2 -43 37 -111l21 -43q10 -25 11 -48
q-2 -46 -57 -80l-91 -53q-74 -41 -134 -86q-81 -59 -142 -135q-119 -148 -120 -291q1 -92 74 -148q63 -48 163 -46q100 -1 212 27q123 30 225 74l175 76l51 22q9 5 19 5l7 -4l2 -8l-4 -21z" />
    <glyph glyph-name="afii10024" unicode="&#x416;" horiz-adv-x="1768" 
d="M815 412l94 10l13 -2l3 -8l-5 -10q-6 -4 -20 -6l-93 -14v0l-87 -327q-1 -5 -6 -10q-4 -4 -10 -4h-4q-5 1 -9 4l-62 44q-13 9 -16 15l-1 7q1 7 5 20l76 248v0h-30q-164 0 -299.5 38.5t-135.5 86.5q0 45 132.5 75.5t258.5 30.5q60 0 139 -3v0l184 601q4 15 9 24q4 8 11 14
t18 11l59 26q5 2 12 2q24 0 24 -24q0 -12 -5 -28l-198 -632v0q230 -10 389 -80v0l293 921q2 5 7 15q5 9 11 14t13 8l83 35q5 2 10 2q20 0 20 -15q0 -6 -3 -14q-4 -10 -7 -20l-322 -996v0q135 -84 204 -186.5t99 -230.5v0l405 1341q3 10 8 16q15 17 64.5 42t64.5 25
q22 0 22 -18q0 -7 -5 -18q-43 -91 -80 -217l-400 -1349q-10 -32 -18 -40q-3 -3 -13 -3h-4l-73 19q-7 2 -12 9q-4 6 -4 12q0 8 4 24q5 21 5 57q0 279 -282 467v0l-115 -394q-4 -15 -8 -21q-5 -8 -13 -8t-20 6l-60 30q-5 3 -10 8q-4 4 -4 11t12 46l114 375v0q-168 73 -392 76
v0l-40 -138v0zM701 408v0l44 152v0h-27q-217 0 -346 -52l-29 -21l20 -17q43 -22 117.5 -39.5t99.5 -17.5l79 -3q23 -1 42 -2z" />
    </font>
</defs>
</svg>
