<?xml version="1.0" standalone="no"?>
<!DOCTYPE svg PUBLIC "-//W3C//DTD SVG 1.1//EN" "http://www.w3.org/Graphics/SVG/1.1/DTD/svg11.dtd" >
<svg xmlns="http://www.w3.org/2000/svg">
<metadata></metadata>
<defs>
<font id="istok_webitalic" horiz-adv-x="1110" >
<font-face units-per-em="2048" ascent="1638" descent="-410" />
<missing-glyph horiz-adv-x="682" />
<glyph horiz-adv-x="0" />
<glyph unicode="&#xd;" horiz-adv-x="682" />
<glyph unicode=" "  horiz-adv-x="682" />
<glyph unicode="&#x09;" horiz-adv-x="682" />
<glyph unicode="&#xa0;" horiz-adv-x="682" />
<glyph unicode="!" horiz-adv-x="600" d="M89 45l29 122q10 45 55 45h112q45 0 35 -45l-29 -122q-10 -45 -55 -45h-112q-45 0 -35 45zM199 435l197 944q11 55 63 55h104q50 0 37 -55l-239 -944q-11 -45 -55 -45h-72q-45 0 -35 45z" />
<glyph unicode="&#x22;" horiz-adv-x="828" d="M253 869l104 545q11 55 49 55h104q38 0 23 -55l-146 -545q-13 -45 -46 -45h-64q-33 0 -24 45zM603 869l104 545q11 55 49 55h104q38 0 23 -55l-146 -545q-13 -45 -46 -45h-64q-33 0 -24 45z" />
<glyph unicode="#" horiz-adv-x="1390" d="M126 410l9 50q6 35 51 35h215l76 432h-215q-44 0 -38 35l8 50q6 35 52 35h215l58 330q8 45 43 45h62q35 0 27 -45l-58 -330h336l58 330q8 45 43 45h62q35 0 27 -45l-58 -330h215q44 0 38 -35l-8 -50q-6 -35 -52 -35h-215l-76 -432h215q45 0 39 -35l-9 -50q-6 -35 -51 -35 h-215l-58 -330q-8 -45 -43 -45h-62q-35 0 -27 45l58 330h-336l-58 -330q-8 -45 -43 -45h-62q-35 0 -27 45l58 330h-215q-45 0 -39 35zM533 495h336l76 432h-336z" />
<glyph unicode="$" d="M34 185l44 51q32 37 86 -14q70 -66 129 -81t121 -19l125 541q-40 22 -86 51q-55 34 -94 77t-67.5 105t-28.5 173q0 161 98.5 248t184.5 108.5t175 25.5l28 120q10 45 45 45h50q35 0 25 -45l-29 -125q56 -8 123 -36t106 -67q45 -45 17 -80l-48 -59q-26 -32 -64 4 q-41 38 -93.5 56.5t-76.5 24.5l-117 -505q63 -30 125 -74q52 -37 85.5 -75.5t57.5 -99t24 -150.5q0 -141 -97.5 -244t-192 -134t-190.5 -36l-31 -136q-10 -45 -45 -45h-50q-35 0 -25 45l32 137q-108 7 -187 37.5t-139 89.5q-51 50 -20 86zM449 1084q0 -58 14 -112.5 t71 -99.5q22 -17 46 -33l107 462q-93 -6 -165.5 -64t-72.5 -153zM535 125q75 14 161.5 81.5t86.5 175.5q0 50 -13.5 103t-83.5 97q-19 13 -40 24z" />
<glyph unicode="%" horiz-adv-x="1782" d="M121 1052q0 168 113 311.5t262 143.5q143 0 199 -86.5t56 -228.5q0 -168 -113 -311.5t-262 -143.5q-143 0 -199 86.5t-56 228.5zM191 -40q-27 23 2 56l1280 1496q29 35 56 12l38 -33q25 -22 -4 -56l-1278 -1497q-31 -35 -58 -12zM281 1032q0 -80 20 -130t85 -50 q80 0 142.5 110t62.5 250q0 80 -20 130t-85 50q-80 0 -142.5 -110t-62.5 -250zM1006 258q0 168 113 311.5t262 143.5q143 0 199 -86.5t56 -228.5q0 -168 -113 -311.5t-262 -143.5q-143 0 -199 86.5t-56 228.5zM1166 238q0 -80 20 -130t85 -50q80 0 142.5 110t62.5 250 q0 80 -20 130t-85 50q-80 0 -142.5 -110t-62.5 -250z" />
<glyph unicode="&#x26;" horiz-adv-x="1354" d="M71 290q0 103 91.5 238t334.5 289q-25 51 -60.5 139.5t-35.5 200.5q0 120 87 213.5t281 93.5q106 0 202 -64t96 -221q0 -95 -101.5 -196t-246.5 -190l235 -387q49 42 109.5 124t80.5 129q19 45 54 29l67 -30q41 -18 24 -57q-38 -87 -121 -181.5t-138 -139.5l135 -222 q35 -58 -31 -58h-81q-58 0 -84 43l-80 130q-114 -91 -200.5 -147t-239.5 -56q-172 0 -275 77t-103 243zM266 307q0 -92 47.5 -142t169.5 -50q92 0 171 53t162 125l-245 405q-153 -92 -229 -196.5t-76 -194.5zM581 1143q0 -91 19.5 -140t43.5 -92q132 89 187.5 155t55.5 129 q0 56 -35 93t-109 37q-66 0 -114 -44.5t-48 -137.5z" />
<glyph unicode="'" horiz-adv-x="478" d="M253 869l104 545q11 55 49 55h104q38 0 23 -55l-146 -545q-13 -45 -46 -45h-64q-33 0 -24 45z" />
<glyph unicode="(" horiz-adv-x="670" d="M90 316q0 287 151.5 588.5t472.5 592.5q43 39 70 14l32 -30q28 -26 -7 -58q-122 -109 -322.5 -431.5t-200.5 -705.5q0 -241 31 -397t73 -232q23 -41 -4 -59l-37 -24q-30 -19 -66 26q-94 118 -143.5 332t-49.5 384z" />
<glyph unicode=")" horiz-adv-x="670" d="M-135 -393q-28 26 7 58q122 109 322.5 431.5t200.5 705.5q0 241 -31 397t-73 232q-23 41 4 59l37 24q30 19 66 -26q94 -118 143.5 -332t49.5 -384q0 -287 -151.5 -588.5t-472.5 -592.5q-43 -39 -70 -14z" />
<glyph unicode="*" horiz-adv-x="940" d="M193 859q-24 71 66 106l235 92l-193 93q-73 35 -16 106l8 10q57 70 116 17l155 -139l27 232q10 88 91 88h12q81 0 51 -88l-81 -232l219 139q83 53 108 -17l4 -10q25 -71 -66 -106l-235 -93l193 -92q74 -35 16 -106l-8 -10q-57 -70 -116 -18l-155 140l-26 -232 q-11 -88 -92 -88h-12q-81 0 -50 88l80 232l-219 -140q-83 -52 -108 18z" />
<glyph unicode="+" horiz-adv-x="1280" d="M127 700v50q0 35 45 35h454v454q0 45 35 45h50q35 0 35 -45v-454h456q45 0 45 -35v-50q0 -35 -45 -35h-456v-456q0 -45 -35 -45h-50q-35 0 -35 45v456h-454q-45 0 -45 35z" />
<glyph unicode="," horiz-adv-x="600" d="M35 -241q-14 15 13 35q35 26 74 88.5t52 117.5h-52q-46 0 -35 45l29 122q11 45 55 45h116q46 0 35 -45l-29 -122q-30 -127 -67.5 -192t-115.5 -127q-26 -20 -38 -7z" />
<glyph unicode="-" horiz-adv-x="680" d="M56 518l16 70q8 35 53 35h478q45 0 37 -35l-16 -70q-8 -35 -53 -35h-478q-45 0 -37 35z" />
<glyph unicode="." horiz-adv-x="600" d="M89 45l29 122q10 45 55 45h112q45 0 35 -45l-29 -122q-10 -45 -55 -45h-112q-45 0 -35 45z" />
<glyph unicode="/" horiz-adv-x="840" d="M-192 -332l1124 1771q27 43 57 28l47 -24q28 -14 2 -55l-1124 -1771q-27 -43 -55 -29l-47 24q-30 15 -4 56z" />
<glyph unicode="0" d="M104 440q0 365 144 688.5t469 323.5q190 0 278.5 -135t88.5 -335q0 -365 -144 -688.5t-469 -323.5q-190 0 -278.5 135t-88.5 335zM290 410q0 -100 44 -198t149 -98q195 0 305 274t110 624q0 100 -44 198t-149 98q-195 0 -305 -274t-110 -624z" />
<glyph unicode="1" horiz-adv-x="827" d="M302 1148q-11 30 35 46q70 24 163 92t144 118q37 36 64 36h85q46 0 36 -45l-312 -1350q-10 -45 -55 -45h-86q-45 0 -35 45l248 1074q3 14 16 60h-4q-34 -40 -106.5 -79t-118.5 -52q-34 -10 -45 20z" />
<glyph unicode="2" d="M-16 45l11 48q9 38 50 72l483 395q215 176 307 294t92 247q0 78 -51 139.5t-172 61.5q-125 0 -203 -72t-120 -173q-22 -54 -63 -38l-75 29q-33 13 -8 86q41 120 170 219t301 99q212 0 314.5 -94.5t102.5 -253.5q0 -195 -133.5 -333t-320.5 -286l-403 -319l-1 -4 q41 2 81 2h531q54 0 44 -45l-17 -74q-10 -45 -65 -45h-810q-55 0 -45 45z" />
<glyph unicode="3" d="M30 224l57 58q30 32 79 -25q56 -65 129.5 -101t149.5 -36q146 0 249 92t103 229q0 129 -51 192t-165 63h-108q-46 0 -38 33l17 74q8 35 53 35h71q132 0 232.5 92.5t100.5 200.5q0 81 -57 126t-163 45q-98 0 -174.5 -45t-115.5 -87q-42 -45 -73 -9l-54 62q-28 31 30 80 q70 59 176.5 104t223.5 45q198 0 296.5 -90t98.5 -244q0 -126 -115 -227.5t-211 -112.5l-1 -4q100 -27 161.5 -117t61.5 -230q0 -151 -138 -304t-424 -153q-152 0 -248.5 57t-143.5 121q-36 49 -9 76z" />
<glyph unicode="4" d="M36 399l20 88q8 32 40 69l745 848q31 36 64 36h91q46 0 36 -45l-202 -877h171q45 0 34 -45l-17 -74q-10 -45 -54 -45h-172l-72 -309q-10 -45 -55 -45h-86q-45 0 -35 45l72 309h-545q-45 0 -35 45zM255 518h399l127 555q7 30 16 60h-2z" />
<glyph unicode="5" d="M46 245l67 49q36 28 76 -31q24 -36 88.5 -89.5t191.5 -53.5q149 0 240.5 108t91.5 273q0 129 -55.5 182t-167.5 53q-47 0 -95.5 -13.5t-126.5 -64.5q-50 -33 -88 -33h-47q-44 0 -34 45l163 707q10 45 55 45h690q45 0 35 -45l-17 -74q-10 -45 -56 -45h-559l-91 -395 q-5 -24 -16 -60h4q45 43 114.5 63t123.5 20q207 0 285.5 -114.5t78.5 -291.5q0 -219 -152 -364.5t-385 -145.5q-178 0 -275.5 68.5t-135.5 130.5q-34 53 -3 76z" />
<glyph unicode="6" d="M116 449q0 415 179 709t495 294q102 0 185.5 -34t131.5 -89q39 -45 14 -66l-62 -50q-37 -31 -72 13q-27 34 -85 55t-134 21q-156 0 -280.5 -157.5t-179.5 -401.5h2q57 78 152.5 117t185.5 39q168 0 270 -98.5t102 -290.5q0 -207 -136.5 -373.5t-370.5 -166.5 q-189 0 -293 127.5t-104 351.5zM305 384q0 -123 56 -193.5t159 -70.5q125 0 214.5 129t89.5 275q0 106 -59 164t-159 58q-132 0 -216.5 -120.5t-84.5 -241.5z" />
<glyph unicode="7" horiz-adv-x="1100" d="M242 39l14 59q90 381 282 645.5t453 514.5l1 2q-31 -2 -61 -2h-628q-45 0 -34 45l17 74q10 45 55 45h834q45 0 35 -45l-16 -69q-8 -31 -53 -72q-252 -227 -438 -509t-258 -594l-22 -94q-10 -45 -55 -45h-91q-45 0 -35 45z" />
<glyph unicode="8" d="M57 350q0 160 117 278.5t229 143.5v3q-76 48 -112 112t-36 161q0 165 135 284.5t337 119.5q205 0 297.5 -93t92.5 -231q0 -158 -110 -253t-204 -109v-2q94 -35 140.5 -116t46.5 -188q0 -202 -148.5 -346t-368.5 -144q-194 0 -305 96t-111 284zM252 356q0 -113 54 -174.5 t178 -61.5q131 0 220.5 96t89.5 230q0 94 -41.5 166t-151.5 72q-148 0 -248.5 -99t-100.5 -229zM443 1068q0 -129 50 -175.5t121 -46.5q124 0 219.5 75t95.5 187q0 88 -50.5 141t-162.5 53q-114 0 -193.5 -78t-79.5 -156z" />
<glyph unicode="9" d="M78 159l62 50q37 31 72 -13q27 -34 85 -55t134 -21q156 0 280.5 157.5t179.5 401.5h-2q-57 -78 -152.5 -117t-185.5 -39q-168 0 -270 98.5t-102 290.5q0 207 136.5 373.5t370.5 166.5q189 0 293 -127.5t104 -351.5q0 -415 -179 -709t-495 -294q-102 0 -185.5 34 t-131.5 89q-39 45 -14 66zM375 898q0 -106 59 -164t159 -58q132 0 216.5 120.5t84.5 241.5q0 123 -56 193.5t-159 70.5q-125 0 -214.5 -129t-89.5 -275z" />
<glyph unicode=":" horiz-adv-x="600" d="M89 45l29 122q10 45 55 45h112q45 0 35 -45l-29 -122q-10 -45 -55 -45h-112q-45 0 -35 45zM282 883l29 122q10 45 55 45h112q45 0 35 -45l-29 -122q-10 -45 -55 -45h-112q-45 0 -35 45z" />
<glyph unicode=";" horiz-adv-x="600" d="M35 -241q-14 15 13 35q35 26 74 88.5t52 117.5h-52q-46 0 -35 45l29 122q11 45 55 45h116q46 0 35 -45l-29 -122q-30 -127 -67.5 -192t-115.5 -127q-26 -20 -38 -7zM282 883l29 122q10 45 55 45h112q45 0 35 -45l-29 -122q-10 -45 -55 -45h-112q-45 0 -35 45z" />
<glyph unicode="&#x3c;" horiz-adv-x="1280" d="M152 719v32q0 20 25 34l952 550q39 23 57 -8l25 -43q18 -30 -22 -53l-859 -495v-2l859 -495q40 -23 22 -53l-25 -43q-18 -31 -57 -8l-952 550q-25 14 -25 34z" />
<glyph unicode="=" horiz-adv-x="1280" d="M127 530v50q0 35 45 35h1030q45 0 45 -35v-50q0 -35 -45 -35h-1030q-45 0 -45 35zM127 870v50q0 35 45 35h1030q45 0 45 -35v-50q0 -35 -45 -35h-1030q-45 0 -45 35z" />
<glyph unicode="&#x3e;" horiz-adv-x="1280" d="M163 186q-18 30 22 53l859 495v2l-859 495q-40 23 -22 53l25 43q18 31 57 8l952 -550q25 -14 25 -34v-32q0 -20 -25 -34l-952 -550q-39 -23 -57 8z" />
<glyph unicode="?" horiz-adv-x="1016" d="M251 1170q-34 19 4 86q42 73 147 140.5t268 67.5q198 0 287.5 -81t89.5 -250q0 -159 -231 -365t-258 -330l-5 -23q-10 -45 -56 -45h-86q-44 0 -34 45l8 37q38 176 252 373.5t214 318.5q0 98 -53.5 134t-133.5 36q-88 0 -167.5 -51t-106.5 -104q-27 -52 -68 -29zM277 45 l29 122q10 45 55 45h112q45 0 35 -45l-29 -122q-10 -45 -55 -45h-112q-45 0 -35 45z" />
<glyph unicode="@" horiz-adv-x="1992" d="M120 551q0 381 260 651.5t680 270.5q306 0 559 -178.5t253 -578.5q0 -294 -141 -449.5t-371 -155.5q-130 0 -166 57t-36 164h-2q-38 -89 -130 -155t-183 -66q-134 0 -215.5 96t-81.5 260q0 206 131.5 390.5t328.5 184.5q191 0 235 -176h4l23 106q7 34 42 34h110 q35 0 27 -35l-131 -591q-22 -98 4 -123.5t71 -25.5q146 0 252.5 111.5t106.5 373.5q0 304 -194 470.5t-494 166.5q-342 0 -581 -218.5t-239 -598.5q0 -332 228.5 -540t549.5 -208q150 0 302.5 54.5t283.5 160.5q27 22 43 0l39 -54q17 -24 -10 -42q-163 -115 -322.5 -177 t-344.5 -62q-359 0 -625 238t-266 645zM717 447q0 -123 44.5 -169.5t123.5 -46.5q101 0 188.5 142.5t103.5 208.5q15 64 15 145q0 69 -41 133t-121 64q-134 0 -223.5 -144t-89.5 -333z" />
<glyph unicode="A" horiz-adv-x="1360" d="M-59 66l770 1307q36 61 80 61h140q41 0 52 -61l226 -1307q2 -11 2 -21q0 -45 -44 -45h-91q-53 0 -61 49l-57 331h-615l-195 -331q-29 -49 -83 -49h-112q-29 0 -29 21q0 16 17 45zM441 544h488l-70 400q-13 72 -21 157.5t-8 159.5h-4q-18 -71 -56 -145t-95 -172z" />
<glyph unicode="B" horiz-adv-x="1338" d="M63 55l305 1324q13 55 63 55h370q273 0 379 -100.5t106 -249.5q0 -139 -95.5 -221.5t-237.5 -112.5v-3q103 -21 183.5 -100.5t80.5 -215.5q0 -167 -151 -299t-496 -132h-470q-40 0 -40 35q0 9 3 20zM280 164h296q210 0 323 71t113 204q0 121 -102.5 173t-278.5 52h-236z M429 808h271q142 0 266.5 76t124.5 192q0 103 -73 148.5t-252 45.5h-231z" />
<glyph unicode="C" horiz-adv-x="1392" d="M110 580q0 395 210.5 639.5t587.5 244.5q184 0 298 -64t161 -170q8 -18 8 -32q0 -30 -31 -48l-78 -46q-7 -4 -14 -4q-19 0 -38 32q-30 54 -109 115t-214 61q-250 0 -413 -183t-163 -568q0 -182 96 -306.5t326 -124.5q136 0 230.5 71.5t146.5 143.5q30 42 57 42 q11 0 21 -7l90 -58q15 -9 15 -26q0 -21 -23 -54q-79 -115 -213 -191.5t-351 -76.5q-302 0 -451 172.5t-149 437.5z" />
<glyph unicode="D" horiz-adv-x="1406" d="M63 55l305 1324q13 55 63 55h319q358 0 496 -175t138 -411q0 -340 -210 -594t-655 -254h-419q-40 0 -40 35q0 9 3 20zM280 164h268q332 0 481.5 212t149.5 484q0 172 -81.5 292t-393.5 120h-168z" />
<glyph unicode="E" horiz-adv-x="1270" d="M63 55l305 1324q13 55 63 55h875q47 0 47 -32q0 -6 -2 -13l-17 -74q-11 -45 -66 -45h-733l-102 -444h673q46 0 46 -31q0 -6 -2 -14l-17 -74q-10 -45 -65 -45h-673l-115 -498h763q46 0 46 -31q0 -6 -2 -14l-17 -74q-10 -45 -65 -45h-905q-40 0 -40 35q0 9 3 20z" />
<glyph unicode="F" horiz-adv-x="1166" d="M63 55l305 1324q13 55 63 55h815q47 0 47 -32q0 -6 -2 -13l-17 -74q-11 -45 -66 -45h-673l-109 -474h587q46 0 46 -31q0 -6 -2 -14l-17 -74q-10 -45 -65 -45h-587l-133 -577q-13 -55 -63 -55h-92q-40 0 -40 35q0 9 3 20z" />
<glyph unicode="G" horiz-adv-x="1470" d="M110 580q0 395 210.5 639.5t595.5 244.5q194 0 308 -66t158 -150q10 -19 10 -35q0 -27 -29 -46l-76 -50q-8 -6 -17 -6q-19 0 -36 31q-25 43 -109 104.5t-226 61.5q-257 0 -420.5 -183t-163.5 -568q0 -182 96 -306.5t326 -124.5q130 0 240 40t162 96l57 248h-297 q-47 0 -47 32q0 6 2 13l17 74q11 45 66 45h434q46 0 46 -31q0 -7 -2 -14l-109 -472q-142 -106 -270 -146.5t-326 -40.5q-302 0 -451 172.5t-149 437.5z" />
<glyph unicode="H" horiz-adv-x="1422" d="M63 55l305 1324q13 55 63 55h92q40 0 40 -35q0 -9 -3 -20l-127 -551h698l127 551q13 55 63 55h92q40 0 40 -35q0 -9 -3 -20l-305 -1324q-13 -55 -63 -55h-92q-40 0 -40 35q0 9 3 20l140 609h-698l-140 -609q-13 -55 -63 -55h-92q-40 0 -40 35q0 9 3 20z" />
<glyph unicode="I" horiz-adv-x="532" d="M63 55l305 1324q13 55 63 55h92q40 0 39 -35q0 -9 -2 -20l-305 -1324q-13 -55 -63 -55h-92q-40 0 -40 35q0 9 3 20z" />
<glyph unicode="J" horiz-adv-x="824" d="M-50 94l36 71q15 30 38 30q17 0 38 -16q70 -53 132 -53q97 0 152 65t83 187l231 1001q13 55 63 55h92q40 0 40 -35q0 -9 -3 -20l-225 -978q-40 -176 -132 -303.5t-320 -127.5q-116 0 -212 59q-21 13 -21 34q0 14 8 31z" />
<glyph unicode="K" horiz-adv-x="1328" d="M63 55l305 1324q13 55 63 55h92q40 0 40 -35q0 -9 -3 -20l-130 -565q-5 -22 -21 -80h4l799 661q47 39 79 39h143q42 0 42 -17q0 -16 -39 -49l-628 -518l354 -784q10 -21 10 -36q0 -30 -43 -30h-107q-43 0 -61 39l-307 684l-304 -252l-96 -416q-13 -55 -63 -55h-92 q-40 0 -40 35q0 9 3 20z" />
<glyph unicode="L" horiz-adv-x="1136" d="M63 55l305 1324q13 55 63 55h92q40 0 40 -35q0 -9 -3 -20l-280 -1215h663q46 0 46 -31q0 -6 -2 -14l-17 -74q-10 -45 -65 -45h-805q-40 0 -40 35q0 9 3 20z" />
<glyph unicode="M" horiz-adv-x="1708" d="M63 55l305 1324q13 55 63 55h201q38 0 43 -60l79 -897q7 -82 10 -146.5t3 -124.5h6q27 63 59 125t78 146l493 897q33 60 71 60h225q40 0 40 -35q0 -9 -3 -20l-305 -1324q-13 -55 -63 -55h-92q-40 0 -40 35q0 9 3 20l242 1049q10 45 20 80h-4l-628 -1123q-34 -61 -80 -61 h-110q-46 0 -52 61l-110 1123h-4q-8 -44 -16 -80l-242 -1049q-13 -55 -63 -55h-92q-40 0 -40 35q0 9 3 20z" />
<glyph unicode="N" horiz-adv-x="1438" d="M63 55l305 1324q13 55 63 55h121q71 0 89 -50l388 -1060h4q9 46 17 80l224 975q13 55 63 55h92q40 0 40 -35q0 -9 -3 -20l-305 -1324q-13 -55 -63 -55h-82q-70 0 -88 50l-413 1125h-4q-8 -44 -16 -80l-240 -1040q-13 -55 -63 -55h-92q-40 0 -40 35q0 9 3 20z" />
<glyph unicode="O" horiz-adv-x="1514" d="M110 580q0 400 214 642t554 242q305 0 461 -162.5t156 -447.5q0 -400 -214 -642t-554 -242q-305 0 -461 162.5t-156 447.5zM315 556q0 -205 106.5 -317.5t316.5 -112.5q220 0 386 183.5t166 568.5q0 205 -106.5 317.5t-316.5 112.5q-220 0 -386 -183.5t-166 -568.5z" />
<glyph unicode="P" horiz-adv-x="1298" d="M63 55l305 1324q13 55 63 55h410q234 0 355.5 -105t121.5 -284q0 -181 -145.5 -325t-499.5 -144h-298l-120 -521q-13 -55 -63 -55h-92q-40 0 -40 35q0 9 3 20zM413 740h311q207 0 303 78.5t96 206.5q0 136 -75 190.5t-242 54.5h-271z" />
<glyph unicode="Q" horiz-adv-x="1514" d="M110 580q0 400 214 642t554 242q305 0 461 -162.5t156 -447.5q0 -400 -214 -642q-185 -209 -464 -238q1 -123 52.5 -167t166.5 -44q51 0 116 13q40 7 43 -15l12 -90q3 -24 -28 -28q-122 -20 -175 -20q-205 0 -292 84.5t-87 267.5q-230 23 -359 157q-156 163 -156 448z M315 556q0 -205 106.5 -317.5t316.5 -112.5q220 0 386 183.5t166 568.5q0 205 -106.5 317.5t-316.5 112.5q-220 0 -386 -183.5t-166 -568.5z" />
<glyph unicode="R" horiz-adv-x="1384" d="M63 55l305 1324q13 55 63 55h453q252 0 360 -108t108 -270q0 -165 -137.5 -274t-333.5 -125l-1 -2q85 -76 109 -118.5t46 -103.5l131 -367q7 -20 7 -33q0 -33 -40 -33h-93q-48 0 -61 39l-116 357q-24 74 -95.5 149.5t-208.5 75.5h-174l-130 -566q-13 -55 -63 -55h-92 q-40 0 -40 35q0 9 3 20zM423 785h309q180 0 302.5 62t122.5 191q0 144 -89.5 188t-235.5 44h-297z" />
<glyph unicode="S" horiz-adv-x="1217" d="M64 198l57 70q13 16 31 16q24 0 55 -29q65 -61 141 -95t194 -34q100 0 169 28.5t122.5 83t53.5 135.5q0 43 -12.5 89t-52 81t-87.5 54q-55 22 -117 42.5t-138 58.5q-64 32 -110 81t-73 117t-27 145q0 141 90 250.5t201 141t206 31.5q133 0 223 -33t164 -90q30 -23 30 -47 q0 -16 -13 -33l-58 -75q-10 -13 -25 -13q-19 0 -44 21q-36 30 -118 65t-171 35q-57 0 -123 -19t-118 -77.5t-52 -142.5q0 -44 12 -84.5t44.5 -70.5t69.5 -48q58 -28 119.5 -48t111.5 -40q80 -32 146.5 -83t95.5 -128.5t29 -147.5q0 -141 -76 -236t-187 -147t-301 -52 q-164 0 -271 40t-171 102q-31 31 -31 57q0 15 11 29z" />
<glyph unicode="T" horiz-adv-x="1240" d="M218 1307l19 82q10 45 65 45h1058q47 0 47 -32q0 -6 -2 -13l-19 -82q-11 -45 -66 -45h-433l-278 -1207q-13 -55 -63 -55h-92q-40 0 -40 35q0 9 3 20l278 1207h-433q-46 0 -46 31q0 6 2 14z" />
<glyph unicode="U" horiz-adv-x="1402" d="M176 547l192 832q13 55 63 55h92q40 0 40 -35q0 -9 -3 -20l-185 -802q-33 -146 -33 -239q0 -86 28 -126q59 -86 240 -86q146 0 262.5 85.5t180.5 365.5l185 802q13 55 63 55h92q40 0 40 -35q0 -9 -3 -20l-192 -832q-73 -317 -234 -447t-430 -130q-199 0 -335 130 q-88 85 -88 248q0 88 25 199z" />
<glyph unicode="V" horiz-adv-x="1338" d="M242 1368q-1 10 -1 18q0 48 43 48h90q55 0 61 -49l118 -895q8 -59 15 -157t7 -160h4q26 63 81.5 164t86.5 153l532 895q29 49 83 49h114q29 0 29 -21q0 -16 -17 -45l-789 -1307q-37 -61 -80 -61h-140q-43 0 -52 61z" />
<glyph unicode="W" horiz-adv-x="1888" d="M240 1374v8q0 52 40 52h107q31 0 32 -46l23 -961v-40q0 -39 -1 -77q-2 -56 -2 -137h5q24 59 50.5 117t61.5 136l439 954q25 54 76 54h135q51 0 52 -54l18 -954v-53v-63q-1 -66 -1 -137h5q27 60 63 133.5t57 120.5l434 961q21 46 54 46h132q24 0 24 -21q0 -15 -12 -39 l-633 -1297q-38 -77 -92 -77h-125q-50 0 -52 84l-26 959q-1 34 -1 61q-1 34 1 56q2 42 3 99h-2q-21 -61 -37 -103.5t-49 -112.5l-453 -959q-40 -84 -90 -84h-125q-53 0 -56 77z" />
<glyph unicode="X" horiz-adv-x="1298" d="M-45 66l638 686l-299 616q-11 22 -11 36q0 30 44 30h98q43 0 61 -39l235 -522l456 522q34 39 79 39h138q33 0 33 -17q0 -16 -30 -49l-591 -641l326 -661q11 -22 11 -37q0 -29 -44 -29h-105q-44 0 -61 39l-254 568l-497 -568q-34 -39 -79 -39h-145q-33 0 -33 17t30 49z " />
<glyph unicode="Y" horiz-adv-x="1302" d="M250 1368q-8 19 -8 32q0 34 50 34h93q44 0 61 -49l156 -437q14 -40 37.5 -109.5t37.5 -129.5h4q42 60 82.5 112t102.5 127l358 437q40 49 83 49h125q38 0 38 -20q0 -16 -26 -46l-681 -778l-123 -535q-13 -55 -63 -55h-92q-40 0 -40 35q0 9 3 20l123 535z" />
<glyph unicode="Z" horiz-adv-x="1216" d="M-45 45l11 48q10 45 51 89l1010 1086l1 4q-41 -2 -81 -2h-622q-46 0 -46 32q0 6 2 13l17 74q10 45 65 45h922q47 0 47 -32q0 -6 -2 -13l-7 -31q-7 -30 -35 -61l-1034 -1131l-1 -4q28 2 81 2h680q46 0 46 -32q0 -6 -2 -13l-17 -74q-10 -45 -65 -45h-976q-47 0 -47 32 q0 6 2 13z" />
<glyph unicode="[" horiz-adv-x="658" d="M-34 -363l419 1814q10 45 55 45h328q45 0 37 -35l-14 -60q-8 -35 -53 -35h-197l-379 -1644h197q45 0 37 -35l-14 -60q-8 -35 -53 -35h-328q-45 0 -35 45z" />
<glyph unicode="\" horiz-adv-x="840" d="M147 1394q-12 46 23 55l47 12q37 9 47 -28l466 -1771q12 -46 -25 -56l-46 -12q-35 -9 -45 29z" />
<glyph unicode="]" horiz-adv-x="658" d="M-137 -373l14 60q8 35 53 35h197l379 1644h-197q-45 0 -37 35l14 60q8 35 53 35h328q45 0 35 -45l-419 -1814q-10 -45 -55 -45h-328q-45 0 -37 35z" />
<glyph unicode="^" horiz-adv-x="866" d="M183 979l263 421q21 34 65 34h42q44 0 65 -34l263 -421q23 -37 -6 -56l-49 -32q-29 -19 -54 20l-239 379h-2l-239 -379q-25 -39 -54 -20l-49 32q-29 19 -6 56z" />
<glyph unicode="_" horiz-adv-x="1100" d="M-219 -295q0 35 45 35h1058q45 0 45 -35v-60q0 -35 -45 -35h-1058q-45 0 -45 35v60z" />
<glyph unicode="`" horiz-adv-x="614" d="M369 1383q-38 52 22 52h101q54 0 75 -37l112 -195q30 -53 -19 -53h-64q-56 0 -77 29z" />
<glyph unicode="a" horiz-adv-x="1099" d="M66 339q0 275 186.5 501.5t391.5 226.5q90 0 148 -37.5t86 -87.5h2l21 63q15 45 49 45h84q37 0 37 -30q0 -7 -2 -15l-222 -960q-10 -45 -55 -45h-81q-37 0 -37 31q0 6 2 14l25 120h-2q-49 -65 -130.5 -123.5t-181.5 -58.5q-145 0 -233 87.5t-88 268.5zM252 332 q0 -66 35.5 -142.5t145.5 -76.5q90 0 199 119t139 248l67 290q0 90 -57.5 128.5t-142.5 38.5q-140 0 -263 -179.5t-123 -425.5z" />
<glyph unicode="b" horiz-adv-x="1119" d="M32 45l320 1386q10 45 55 45h86q37 0 37 -30q0 -7 -2 -15l-112 -485q-7 -29 -16 -61h2q44 79 137 130.5t173 51.5q190 0 264.5 -116.5t74.5 -279.5q0 -255 -161 -471.5t-379 -216.5q-111 0 -173 33.5t-113 101.5h-2l-23 -73q-14 -45 -49 -45h-84q-37 0 -37 30q0 7 2 15z M265 290q10 -100 65 -138.5t167 -38.5q152 0 260 169.5t108 395.5q0 104 -45 181.5t-158 77.5q-98 0 -199.5 -117.5t-132.5 -249.5z" />
<glyph unicode="c" horiz-adv-x="1026" d="M68 402q0 265 163.5 465t428.5 200q162 0 231 -56.5t100 -124.5q6 -13 6 -23q0 -19 -20 -29l-66 -35q-10 -5 -19 -5q-21 0 -34 30q-14 32 -64 72.5t-147 40.5q-156 0 -274.5 -140t-118.5 -410q0 -122 58.5 -198t188.5 -76q103 0 169 53.5t94 95.5q23 35 53 14l63 -46 q29 -21 5 -55q-29 -40 -127 -116t-270 -76q-234 0 -327 133.5t-93 285.5z" />
<glyph unicode="d" horiz-adv-x="1119" d="M70 379q0 255 161 471.5t379 216.5q111 0 173 -33.5t113 -101.5h2q3 24 12 61l101 438q10 45 55 45h86q37 0 37 -30q0 -7 -2 -15l-320 -1386q-10 -45 -55 -45h-84q-30 0 -30 30q0 7 1 15l22 120h-2q-44 -79 -137 -130.5t-173 -51.5q-190 0 -264.5 116.5t-74.5 279.5z M256 372q0 -104 45 -181.5t158 -77.5q98 0 199.5 117.5t132.5 249.5l65 280q-10 100 -65 138.5t-167 38.5q-152 0 -260 -169.5t-108 -395.5z" />
<glyph unicode="e" horiz-adv-x="1078" d="M68 396q0 300 156.5 485.5t427.5 185.5q155 0 250.5 -88.5t95.5 -200.5q0 -148 -141.5 -218t-350.5 -112l-246 -49q-6 -38 -6 -40q0 -99 54 -172t189 -73q115 0 185 42t95 76q23 30 42 30q11 0 21 -9l59 -51q19 -17 -6 -56q-23 -36 -124 -99.5t-296 -63.5 q-213 0 -309 123.5t-96 289.5zM265 538l205 40q140 27 246 74.5t106 133.5q0 68 -61.5 109.5t-141.5 41.5q-121 0 -215.5 -92t-138.5 -307z" />
<glyph unicode="f" horiz-adv-x="652" d="M-5 -355l294 1273h-107q-45 0 -37 35l14 62q8 35 53 35h107l35 149q38 167 143 230.5t221 63.5q69 0 109.5 -7t93.5 -31q12 -5 12 -15q0 -8 -6 -17l-50 -79q-12 -20 -37 -8q-19 10 -49 18.5t-67 8.5q-83 0 -129 -40t-72 -153l-28 -120h183q45 0 37 -35l-14 -62 q-8 -35 -53 -35h-183l-294 -1273q-10 -45 -55 -45h-86q-37 0 -37 30q0 7 2 15z" />
<glyph unicode="g" horiz-adv-x="1119" d="M-16 -298q-10 16 -10 30q0 16 14 30l50 48q11 11 23 11q15 0 33 -19q38 -40 96 -64.5t164 -24.5q124 0 208.5 67.5t121.5 230.5l21 93q6 27 16 61h-2q-44 -79 -137 -130.5t-173 -51.5q-190 0 -264.5 116.5t-74.5 279.5q0 255 161 471.5t379 216.5q111 0 173 -33.5 t113 -101.5h2l23 73q14 45 49 45h84q37 0 37 -30q0 -7 -2 -15l-234 -1013q-47 -205 -160 -307t-372 -102q-135 0 -221 32.5t-118 86.5zM256 372q0 -104 45 -181.5t158 -77.5q98 0 199.5 117.5t132.5 249.5l65 280q-10 100 -65 138.5t-167 38.5q-152 0 -260 -169.5 t-108 -395.5z" />
<glyph unicode="h" horiz-adv-x="1128" d="M32 45l320 1386q10 45 56 45h86q36 0 36 -30q0 -7 -2 -15l-112 -486q-6 -28 -15 -60h4q59 73 153.5 127.5t214.5 54.5q170 -1 232 -103q37 -62 38 -150q0 -59 -17 -130l-148 -639q-10 -45 -55 -45h-86q-37 0 -37 30q0 7 2 15l137 591q22 95 22 156q0 64 -25 92 q-48 52 -158 53q-120 0 -218.5 -116.5t-133.5 -266.5l-118 -509q-10 -45 -55 -45h-86q-37 0 -37 30q0 7 2 15z" />
<glyph unicode="i" horiz-adv-x="460" d="M32 45l222 960q10 45 55 45h86q37 0 37 -30q0 -7 -2 -15l-222 -960q-10 -45 -55 -45h-86q-37 0 -37 30q0 7 2 15zM319 1285l20 86q10 45 55 45h86q37 0 37 -30q0 -7 -2 -15l-20 -86q-11 -45 -56 -45h-86q-36 0 -36 29q0 7 2 16z" />
<glyph unicode="j" horiz-adv-x="466" d="M-300 -365l25 81q8 26 29 15q35 -18 91 -18q59 0 101 57t83 236l231 999q10 45 55 45h86q37 0 37 -30q0 -7 -2 -15l-253 -1098q-45 -194 -136 -259t-200 -65q-99 0 -137 20q-12 6 -12 20q0 5 2 12zM325 1285l20 86q10 45 55 45h86q37 0 37 -30q0 -7 -2 -15l-20 -86 q-11 -45 -56 -45h-86q-36 0 -36 29q0 7 2 16z" />
<glyph unicode="k" horiz-adv-x="1003" d="M32 45l320 1386q10 45 56 45h86q36 0 36 -30q0 -7 -2 -15l-189 -820q-7 -29 -16 -60h2l505 473q28 26 59 26h111q42 0 42 -18q0 -15 -29 -41l-409 -380l228 -552q7 -16 7 -28q0 -31 -47 -31h-81q-33 0 -48 37l-186 454l-211 -198l-58 -248q-11 -45 -55 -45h-86 q-37 0 -37 30q0 7 2 15z" />
<glyph unicode="l" horiz-adv-x="460" d="M32 45l289 1248q4 20 18 38l100 127q27 35 39 35h35q24 0 24 -22q0 -6 -2 -13l-327 -1413q-10 -45 -55 -45h-86q-37 0 -37 30q0 7 2 15z" />
<glyph unicode="m" horiz-adv-x="1678" d="M32 45l222 960q10 45 55 45h84q37 0 37 -30q0 -7 -2 -15l-27 -120h4q59 72 148.5 127t179.5 55q110 0 172.5 -69.5t62.5 -164.5h4q63 82 159.5 158t211.5 76q140 -1 207 -103q42 -64 41 -156q0 -57 -15 -124l-148 -639q-10 -45 -55 -45h-86q-37 0 -37 30q0 7 2 15 l135 581q26 114 26 181q0 48 -13 72q-32 58 -142 58q-90 0 -189.5 -120.5t-132.5 -262.5l-118 -509q-10 -45 -55 -45h-86q-37 0 -37 30q0 7 2 15l135 581q26 114 26 181q0 48 -13 72q-32 58 -142 58q-90 0 -188.5 -116.5t-133.5 -266.5l-118 -509q-10 -45 -55 -45h-86 q-37 0 -37 30q0 7 2 15z" />
<glyph unicode="n" horiz-adv-x="1128" d="M32 45l222 960q10 45 55 45h84q37 0 37 -30q0 -7 -2 -15l-27 -120h4q59 73 153.5 127.5t214.5 54.5q170 -1 232 -103q37 -62 38 -150q0 -59 -17 -130l-148 -639q-10 -45 -55 -45h-86q-37 0 -37 30q0 7 2 15l137 591q22 95 22 156q0 64 -25 92q-48 52 -158 53 q-120 0 -218.5 -116.5t-133.5 -266.5l-118 -509q-10 -45 -55 -45h-86q-37 0 -37 30q0 7 2 15z" />
<glyph unicode="o" horiz-adv-x="1148" d="M68 402q0 264 163.5 464.5t428.5 200.5q234 0 327 -134.5t93 -284.5q0 -264 -163.5 -464.5t-428.5 -200.5q-234 0 -327 134.5t-93 284.5zM254 387q0 -125 58.5 -199.5t188.5 -74.5q156 0 274.5 141.5t118.5 408.5q0 125 -58.5 199.5t-188.5 74.5q-156 0 -274.5 -141.5 t-118.5 -408.5z" />
<glyph unicode="p" horiz-adv-x="1119" d="M-60 -355l314 1360q10 45 55 45h84q30 0 30 -30q0 -7 -1 -15l-22 -120h2q44 79 137 130.5t173 51.5q190 0 264.5 -116.5t74.5 -279.5q0 -255 -161 -471.5t-379 -216.5q-111 0 -173 33.5t-113 101.5h-2q-4 -28 -12 -61l-95 -412q-10 -45 -55 -45h-86q-37 0 -37 30 q0 7 2 15zM265 290q10 -100 65 -138.5t167 -38.5q152 0 260 169.5t108 395.5q0 104 -45 181.5t-158 77.5q-98 0 -199.5 -117.5t-132.5 -249.5z" />
<glyph unicode="q" horiz-adv-x="1119" d="M70 379q0 255 161 471.5t379 216.5q111 0 173 -33.5t113 -101.5h2l23 73q14 45 49 45h84q37 0 37 -30q0 -7 -2 -15l-314 -1360q-10 -45 -55 -45h-86q-37 0 -37 30q0 7 2 15l106 459q9 37 16 61h-2q-44 -79 -137 -130.5t-173 -51.5q-190 0 -264.5 116.5t-74.5 279.5z M256 372q0 -104 45 -181.5t158 -77.5q98 0 199.5 117.5t132.5 249.5l65 280q-10 100 -65 138.5t-167 38.5q-152 0 -260 -169.5t-108 -395.5z" />
<glyph unicode="r" horiz-adv-x="722" d="M32 45l222 960q10 45 55 45h84q37 0 37 -30q0 -7 -2 -15l-37 -160h4q72 113 147.5 167.5t178.5 54.5q59 0 83 -11q13 -5 13 -17q0 -6 -3 -13l-33 -82q-7 -18 -29 -14q-34 7 -69 7q-109 0 -221 -141.5t-147 -291.5l-107 -459q-10 -45 -55 -45h-86q-37 0 -37 30q0 7 2 15z " />
<glyph unicode="s" horiz-adv-x="937" d="M20 157l50 59q9 10 22 10q18 0 43 -19q57 -43 122.5 -68.5t137.5 -25.5q54 0 107.5 14.5t88.5 57.5t35 86t-12.5 73t-43.5 51t-62 33q-42 16 -96.5 38t-101.5 44q-46 22 -82 63t-53 89.5t-17 103.5q0 82 50 160.5t144.5 109.5t205.5 31q96 0 173 -27.5t131 -72.5 q16 -13 16 -28q0 -13 -12 -26l-50 -56q-8 -8 -19 -8q-18 0 -45 19q-40 28 -92 46t-107 18q-48 0 -101.5 -14t-85.5 -50t-32 -86q0 -36 10 -66t35.5 -50.5t54.5 -33.5q52 -24 100.5 -41t88.5 -35q70 -30 114 -70t59.5 -89t15.5 -106q0 -111 -69.5 -184t-158.5 -98.5 t-204 -25.5q-143 0 -228.5 39.5t-123.5 79.5q-17 18 -17 34q0 11 9 21z" />
<glyph unicode="t" horiz-adv-x="757" d="M146 953l14 62q8 35 53 35h118l21 90q5 19 19 38l99 127q27 35 39 35h35q30 0 22 -35l-59 -255h213q38 0 38 -25q0 -4 -1 -10l-14 -62q-8 -35 -53 -35h-213l-147 -637q-12 -52 -11 -86q-1 -35 11 -51q24 -32 60 -31q46 0 95 17.5t66 28.5q22 14 29 -6l26 -72 q6 -18 -11 -29q-41 -26 -119.5 -47.5t-167.5 -21.5q-88 0 -138 75q-31 46 -31 115q0 44 12 97l150 648h-118q-38 0 -38 25q0 5 1 10z" />
<glyph unicode="u" horiz-adv-x="1120" d="M104 366l148 639q10 45 55 45h86q37 0 37 -30q0 -7 -2 -15l-136 -591q-22 -95 -22 -157q0 -65 25 -92q48 -52 153 -52q147 0 230 116.5t118 266.5l118 509q10 45 55 45h86q37 0 37 -30q0 -7 -2 -15l-222 -960q-10 -45 -55 -45h-84q-37 0 -37 30q0 7 2 15l28 120h-4 q-59 -73 -154.5 -127.5t-210.5 -54.5q-160 1 -225 103q-40 63 -40 154q0 57 16 126z" />
<glyph unicode="v" horiz-adv-x="986" d="M156 1001q-1 6 -1 11q0 38 39 38h99q32 0 36 -39l60 -660q4 -40 7 -91t3 -96h4q18 45 34.5 75.5t61.5 111.5l364 660q22 39 54 39h119q27 0 27 -18q0 -12 -11 -31l-545 -940q-35 -61 -68 -61h-132q-33 0 -40 61z" />
<glyph unicode="w" horiz-adv-x="1444" d="M156 1001q-2 49 38 49h97q36 0 36 -39l-3 -660q0 -45 -1 -98t-1 -84h4q11 28 38 87.5t45 94.5l328 660q19 39 54 39h90q35 0 36 -39l24 -660v-39v-46q-1 -48 -1 -97h4q13 29 41.5 91t42.5 91l299 660q18 39 54 39h113q25 0 25 -19q0 -11 -9 -30l-465 -940 q-30 -61 -68 -61h-120q-38 0 -40 61l-17 661v43v49q2 34 5 59h-2q-9 -25 -26 -66t-39 -85l-323 -661q-30 -61 -68 -61h-120q-38 0 -40 61z" />
<glyph unicode="x" horiz-adv-x="968" d="M-56 59l452 506l-193 426q-8 17 -8 29q0 30 47 30h74q36 0 47 -26l148 -348l287 348q21 26 59 26h109q37 0 37 -18q0 -15 -24 -41l-400 -449l221 -483q8 -17 8 -29q0 -30 -48 -30h-78q-36 0 -47 26l-170 405l-338 -405q-22 -26 -59 -26h-112q-36 0 -36 18q0 15 24 41z " />
<glyph unicode="y" horiz-adv-x="1128" d="M0 -306q-14 19 -14 36q0 18 16 32l56 52q32 29 50 0q30 -48 87 -74.5t170 -26.5q121 0 206.5 68.5t122.5 228.5q23 102 37 155h-4q-59 -73 -150 -127.5t-218 -54.5q-170 0 -232 103q-37 61 -37 150q0 59 16 130l148 639q10 45 55 45h86q37 0 37 -30q0 -7 -2 -15 l-136 -591q-22 -96 -22 -157q0 -65 24 -92q48 -52 158 -52q106 0 211.5 113.5t141.5 269.5l117 509q10 45 55 45h86q37 0 37 -30q0 -7 -2 -15l-234 -1014q-47 -205 -158 -306.5t-374 -101.5q-171 0 -236 33t-98 78z" />
<glyph unicode="z" horiz-adv-x="950" d="M-57 35l12 51q8 34 53 80l737 752v2q-30 -2 -60 -2h-469q-45 0 -37 35l14 62q8 35 53 35h702q38 0 38 -25q0 -4 -1 -10l-11 -47q-7 -28 -55 -78l-740 -758v-2q30 2 60 2h521q45 0 37 -35l-14 -62q-8 -35 -53 -35h-750q-38 0 -38 25q0 5 1 10z" />
<glyph unicode="{" horiz-adv-x="776" d="M91 524l9 40q11 45 46 45q64 0 159 64.5t140 257.5l54 235q39 170 100 250t287 80q45 0 37 -35l-14 -60q-8 -35 -53 -35q-98 0 -125.5 -41.5t-49.5 -135.5l-67 -286q-54 -234 -156 -293t-173 -65l-1 -2q75 -19 138.5 -108.5t26.5 -249.5l-66 -286q-22 -95 -13 -136 t107 -41q45 0 37 -35l-14 -60q-8 -35 -53 -35q-180 0 -222.5 99t-12.5 231l54 235q41 176 -9.5 249t-140.5 73q-35 0 -25 45z" />
<glyph unicode="|" horiz-adv-x="590" d="M232 -395v1846q0 45 35 45h60q35 0 35 -45v-1846q0 -45 -35 -45h-60q-35 0 -35 45z" />
<glyph unicode="}" horiz-adv-x="776" d="M-136 -373l14 60q8 35 53 35q98 0 125.5 41.5t49.5 135.5l67 286q54 234 156 293t173 65l1 2q-75 19 -138.5 108.5t-26.5 249.5l66 286q22 95 13 136t-107 41q-45 0 -37 35l14 60q8 35 53 35q180 0 222.5 -99t12.5 -231l-54 -235q-41 -176 9.5 -249t140.5 -73 q35 0 25 -45l-9 -40q-11 -45 -46 -45q-64 0 -159 -64.5t-140 -257.5l-54 -235q-39 -170 -100 -250t-287 -80q-45 0 -37 35z" />
<glyph unicode="~" horiz-adv-x="1280" d="M135 671q35 110 116 174.5t196 64.5t278.5 -120t238.5 -120q69 0 113 45t69 101q13 30 37 21l43 -15q24 -8 13 -43q-35 -110 -116 -174.5t-196 -64.5t-278.5 120t-238.5 120q-69 0 -113 -45t-69 -101q-13 -30 -37 -21l-43 15q-24 8 -13 43z" />
<glyph unicode="&#xa2;" d="M118 402q0 265 158.5 459t401.5 205l43 186q10 45 45 45h50q35 0 25 -45l-44 -190q95 -12 154 -60t90 -116q16 -36 -14 -52l-66 -35q-34 -18 -53 25q-14 32 -54 64.5t-87 42.5l-189 -817q85 6 146.5 56t89.5 92q23 35 53 14l63 -46q29 -21 5 -55q-29 -40 -125.5 -115 t-261.5 -77l-43 -185q-10 -45 -45 -45h-50q-35 0 -25 45l45 193q-149 25 -230.5 142t-81.5 269zM304 387q0 -122 47 -183t109 -79l187 808q-126 -19 -234.5 -147.5t-108.5 -398.5z" />
<glyph unicode="&#xa3;" d="M-31 45l14 57q10 41 51 73q54 41 135 124t106 193l31 136h-158q-44 0 -34 45l17 74q10 45 56 45h157l51 221q57 247 175 343t321 96q108 0 178.5 -36.5t107.5 -80.5q26 -32 -1 -61l-41 -44q-29 -32 -66 2q-31 28 -82 49t-120 21q-114 0 -186.5 -63t-104.5 -204l-56 -243 h285q44 0 34 -45l-17 -74q-10 -45 -54 -45h-286l-31 -133q-31 -133 -96.5 -217t-117.5 -112v-4q27 2 81 2h571q54 0 44 -45l-17 -74q-10 -45 -65 -45h-837q-56 0 -45 45z" />
<glyph unicode="&#xa5;" d="M99 305l14 59q11 45 55 45h273l42 181h-273q-44 0 -34 45l13 59q10 45 56 45h186l-220 629q-23 66 42 66h80q47 0 61 -49l125 -437q23 -80 37.5 -129.5t28.5 -109.5h4q42 60 80 111t96 128l327 437q37 49 83 49h104q66 0 12 -66l-510 -629h176q44 0 34 -45l-13 -59 q-10 -45 -56 -45h-263l-42 -181h263q46 0 35 -45l-14 -59q-11 -45 -55 -45h-263l-50 -215q-10 -45 -55 -45h-86q-45 0 -35 45l50 215h-273q-46 0 -35 45z" />
<glyph unicode="&#xa8;" horiz-adv-x="614" d="M193 1285l20 86q10 45 55 45h86q45 0 35 -45l-20 -86q-11 -45 -56 -45h-86q-45 0 -34 45zM599 1285l20 86q10 45 55 45h86q45 0 35 -45l-20 -86q-11 -45 -56 -45h-86q-45 0 -34 45z" />
<glyph unicode="&#xa9;" horiz-adv-x="1654" d="M100 717q0 152 59.5 290t159.5 238t238 159.5t290 59.5t290 -59.5t238 -159.5t159.5 -238t59.5 -290t-59.5 -290t-159.5 -238t-238 -159.5t-290 -59.5t-290 59.5t-238 159.5t-159.5 238t-59.5 290zM200 717q0 -132 51.5 -251.5t138 -206t206 -140t251.5 -53.5t251.5 53.5 t206 140t138 206t51.5 251.5t-51.5 251.5t-138 206t-206 140t-251.5 53.5t-251.5 -53.5t-206 -140t-138 -206t-51.5 -251.5zM450 717q0 203 103 318t292 115q110 0 184.5 -38t105.5 -103q16 -34 -5 -46l-58 -32q-23 -13 -41 22q-19 37 -59 64.5t-122 27.5q-145 0 -207.5 -83 t-62.5 -245t62.5 -245t207.5 -83q84 0 130.5 34.5t69.5 76.5q18 33 42 20l60 -33q21 -12 3 -47q-34 -67 -113.5 -111.5t-196.5 -44.5q-188 0 -291.5 115t-103.5 318z" />
<glyph unicode="&#xab;" horiz-adv-x="1032" d="M120 517q-14 23 11 46l411 380q28 26 45 8l45 -49q16 -17 -13 -44l-359 -334l205 -334q16 -26 -8 -44l-49 -36q-25 -18 -41 8zM470 517q-14 23 11 46l411 380q28 26 45 8l45 -49q16 -17 -13 -44l-359 -334l205 -334q16 -26 -8 -44l-49 -36q-25 -18 -41 8z" />
<glyph unicode="&#xad;" horiz-adv-x="680" d="M56 518l16 70q8 35 53 35h478q45 0 37 -35l-16 -70q-8 -35 -53 -35h-478q-45 0 -37 35z" />
<glyph unicode="&#xae;" horiz-adv-x="1654" d="M100 717q0 152 59.5 290t159.5 238t238 159.5t290 59.5t290 -59.5t238 -159.5t159.5 -238t59.5 -290t-59.5 -290t-159.5 -238t-238 -159.5t-290 -59.5t-290 59.5t-238 159.5t-159.5 238t-59.5 290zM200 717q0 -132 51.5 -251.5t138 -206t206 -140t251.5 -53.5t251.5 53.5 t206 140t138 206t51.5 251.5t-51.5 251.5t-138 206t-206 140t-251.5 53.5t-251.5 -53.5t-206 -140t-138 -206t-51.5 -251.5zM560 315v768q0 32 29 32h280q168 0 243 -63t75 -165q0 -90 -58.5 -152.5t-174.5 -76.5v-1q57 -35 77 -59t44 -64l131 -212q24 -39 -11 -39h-76 q-26 0 -40 23l-116 197q-23 39 -75.5 84.5t-125.5 45.5h-82v-318q0 -32 -29 -32h-62q-29 0 -29 32zM680 743h149q113 0 173 32.5t60 108.5q0 70 -55 95.5t-150 25.5h-177v-262z" />
<glyph unicode="&#xb4;" horiz-adv-x="614" d="M330 1203l166 195q32 37 87 37h121q59 0 6 -52l-206 -204q-30 -29 -85 -29h-84q-50 0 -5 53z" />
<glyph unicode="&#xb8;" horiz-adv-x="614" d="M-85 -359l13 38q11 32 40 17q24 -12 86 -12q48 0 79 19t31 52q0 25 -24.5 40.5t-73.5 15.5h-28q-22 0 -18 25q7 42 18 55l89 109q18 22 45 22h69q32 0 14 -22l-78 -96l-1 -3q67 -13 90 -43t23 -89q0 -82 -70 -133.5t-168 -51.5q-69 0 -125 21q-21 8 -11 36z" />
<glyph unicode="&#xbb;" horiz-adv-x="1032" d="M59 178q-16 17 13 44l359 334l-205 334q-16 26 8 44l49 36q25 18 41 -8l247 -399q14 -23 -11 -46l-411 -380q-28 -26 -45 -8zM409 178q-16 17 13 44l359 334l-205 334q-16 26 8 44l49 36q25 18 41 -8l247 -399q14 -23 -11 -46l-411 -380q-28 -26 -45 -8z" />
<glyph unicode="&#xc0;" horiz-adv-x="1360" d="M-59 66l770 1307q36 61 80 61h140q41 0 52 -61l226 -1307q11 -66 -42 -66h-91q-53 0 -61 49l-57 331h-615l-195 -331q-29 -49 -83 -49h-112q-51 0 -12 66zM441 544h488l-70 400q-13 72 -21 157.5t-8 159.5h-4q-18 -71 -56 -145t-95 -172zM619 1733q-56 52 21 52h145 q49 0 76 -37l111 -155q38 -53 -20 -53h-82q-46 0 -76 29z" />
<glyph unicode="&#xc1;" horiz-adv-x="1360" d="M-59 66l770 1307q36 61 80 61h140q41 0 52 -61l226 -1307q11 -66 -42 -66h-91q-53 0 -61 49l-57 331h-615l-195 -331q-29 -49 -83 -49h-112q-51 0 -12 66zM441 544h488l-70 400q-13 72 -21 157.5t-8 159.5h-4q-18 -71 -56 -145t-95 -172zM824 1593l155 155q37 37 86 37 h169q77 0 7 -52l-221 -164q-40 -29 -86 -29h-106q-57 0 -4 53z" />
<glyph unicode="&#xc2;" horiz-adv-x="1360" d="M-59 66l770 1307q36 61 80 61h140q41 0 52 -61l226 -1307q11 -66 -42 -66h-91q-53 0 -61 49l-57 331h-615l-195 -331q-29 -49 -83 -49h-112q-51 0 -12 66zM441 544h488l-70 400q-13 72 -21 157.5t-8 159.5h-4q-18 -71 -56 -145t-95 -172zM529 1589q-8 32 38 51l248 104 q43 18 68 18h70q25 0 60 -18l234 -122q35 -19 14 -51l-28 -41q-21 -32 -59 -13l-257 132h-2l-319 -132q-45 -19 -53 13z" />
<glyph unicode="&#xc3;" horiz-adv-x="1360" d="M-59 66l770 1307q36 61 80 61h140q41 0 52 -61l226 -1307q11 -66 -42 -66h-91q-53 0 -61 49l-57 331h-615l-195 -331q-29 -49 -83 -49h-112q-51 0 -12 66zM441 544h488l-70 400q-13 72 -21 157.5t-8 159.5h-4q-18 -71 -56 -145t-95 -172zM544 1620q28 65 85.5 108 t146.5 43q75 0 159 -49t128 -49q48 0 81 27t49 52q19 29 38 18l42 -25q23 -13 9 -45q-28 -65 -85.5 -108t-146.5 -43q-75 0 -159 49t-128 49q-48 0 -81 -27t-49 -52q-19 -29 -38 -18l-42 25q-23 13 -9 45z" />
<glyph unicode="&#xc4;" horiz-adv-x="1360" d="M-59 66l770 1307q36 61 80 61h140q41 0 52 -61l226 -1307q11 -66 -42 -66h-91q-53 0 -61 49l-57 331h-615l-195 -331q-29 -49 -83 -49h-112q-51 0 -12 66zM441 544h488l-70 400q-13 72 -21 157.5t-8 159.5h-4q-18 -71 -56 -145t-95 -172zM568 1595l21 92q11 45 56 45h92 q45 0 34 -45l-21 -92q-10 -45 -55 -45h-92q-45 0 -35 45zM1046 1595l21 92q11 45 56 45h92q45 0 34 -45l-21 -92q-10 -45 -55 -45h-92q-45 0 -35 45z" />
<glyph unicode="&#xc5;" horiz-adv-x="1360" d="M-59 66l770 1307q36 61 80 61h140q41 0 52 -61l226 -1307q11 -66 -42 -66h-91q-53 0 -61 49l-57 331h-615l-195 -331q-29 -49 -83 -49h-112q-51 0 -12 66zM441 544h488l-70 400q-13 72 -21 157.5t-8 159.5h-4q-18 -71 -56 -145t-95 -172zM709 1647q0 75 52 124t130 49 t130 -50t52 -123t-52 -123t-130 -50t-130 49t-52 124zM787 1647q0 -42 29 -70.5t75 -28.5t75 28.5t29 70.5t-29 70.5t-75 28.5t-75 -28.5t-29 -70.5z" />
<glyph unicode="&#xc6;" horiz-adv-x="1957" d="M-59 66l924 1316q37 52 79 52h1049q55 0 45 -45l-17 -74q-10 -45 -66 -45h-693l-102 -444h633q54 0 44 -45l-17 -74q-10 -45 -65 -45h-633l-115 -498h723q54 0 44 -45l-17 -74q-10 -45 -65 -45h-865q-50 0 -37 55l75 325h-474l-232 -331q-34 -49 -78 -49h-127 q-59 0 -13 66zM506 544h397l167 726h-72q-30 -59 -66.5 -115t-68.5 -102z" />
<glyph unicode="&#xc7;" horiz-adv-x="1392" d="M110 580q0 395 210.5 639.5t587.5 244.5q184 0 298 -64t161 -170q23 -53 -23 -80l-78 -46q-27 -16 -52 28q-30 54 -109 115t-214 61q-250 0 -413 -183t-163 -568q0 -182 96 -306.5t326 -124.5q136 0 230.5 71.5t146.5 143.5q42 58 78 35l90 -58q33 -21 -8 -80 q-79 -115 -213 -191.5t-351 -76.5q-302 0 -451 172.5t-149 437.5zM419 -359l13 38q11 32 40 17q24 -12 86 -12q48 0 79 19t31 52q0 25 -24.5 40.5t-73.5 15.5h-28q-22 0 -18 25q7 42 18 55l89 109q18 22 45 22h69q32 0 14 -22l-78 -96l-1 -3q67 -13 90 -43t23 -89 q0 -82 -70 -133.5t-168 -51.5q-69 0 -125 21q-21 8 -11 36z" />
<glyph unicode="&#xc8;" horiz-adv-x="1270" d="M63 55l305 1324q13 55 63 55h875q55 0 45 -45l-17 -74q-11 -45 -66 -45h-733l-102 -444h673q55 0 44 -45l-17 -74q-10 -45 -65 -45h-673l-115 -498h763q55 0 44 -45l-17 -74q-10 -45 -65 -45h-905q-50 0 -37 55zM644 1733q-56 52 21 52h145q49 0 76 -37l111 -155 q38 -53 -20 -53h-82q-46 0 -76 29z" />
<glyph unicode="&#xc9;" horiz-adv-x="1270" d="M63 55l305 1324q13 55 63 55h875q55 0 45 -45l-17 -74q-11 -45 -66 -45h-733l-102 -444h673q55 0 44 -45l-17 -74q-10 -45 -65 -45h-673l-115 -498h763q55 0 44 -45l-17 -74q-10 -45 -65 -45h-905q-50 0 -37 55zM849 1593l155 155q37 37 86 37h169q77 0 7 -52l-221 -164 q-40 -29 -86 -29h-106q-57 0 -4 53z" />
<glyph unicode="&#xca;" horiz-adv-x="1270" d="M63 55l305 1324q13 55 63 55h875q55 0 45 -45l-17 -74q-11 -45 -66 -45h-733l-102 -444h673q55 0 44 -45l-17 -74q-10 -45 -65 -45h-673l-115 -498h763q55 0 44 -45l-17 -74q-10 -45 -65 -45h-905q-50 0 -37 55zM554 1589q-8 32 38 51l248 104q43 18 68 18h70 q25 0 60 -18l234 -122q35 -19 14 -51l-28 -41q-21 -32 -59 -13l-257 132h-2l-319 -132q-45 -19 -53 13z" />
<glyph unicode="&#xcb;" horiz-adv-x="1270" d="M63 55l305 1324q13 55 63 55h875q55 0 45 -45l-17 -74q-11 -45 -66 -45h-733l-102 -444h673q55 0 44 -45l-17 -74q-10 -45 -65 -45h-673l-115 -498h763q55 0 44 -45l-17 -74q-10 -45 -65 -45h-905q-50 0 -37 55zM593 1595l21 92q11 45 56 45h92q45 0 34 -45l-21 -92 q-10 -45 -55 -45h-92q-45 0 -35 45zM1071 1595l21 92q11 45 56 45h92q45 0 34 -45l-21 -92q-10 -45 -55 -45h-92q-45 0 -35 45z" />
<glyph unicode="&#xcc;" horiz-adv-x="532" d="M63 55l305 1324q13 55 63 55h92q50 0 37 -55l-305 -1324q-13 -55 -63 -55h-92q-50 0 -37 55zM234 1733q-56 52 21 52h145q49 0 76 -37l111 -155q38 -53 -20 -53h-82q-46 0 -76 29z" />
<glyph unicode="&#xcd;" horiz-adv-x="532" d="M63 55l305 1324q13 55 63 55h92q50 0 37 -55l-305 -1324q-13 -55 -63 -55h-92q-50 0 -37 55zM439 1593l155 155q37 37 86 37h169q77 0 7 -52l-221 -164q-40 -29 -86 -29h-106q-57 0 -4 53z" />
<glyph unicode="&#xce;" horiz-adv-x="532" d="M63 55l305 1324q13 55 63 55h92q50 0 37 -55l-305 -1324q-13 -55 -63 -55h-92q-50 0 -37 55zM144 1589q-8 32 38 51l248 104q43 18 68 18h70q25 0 60 -18l234 -122q35 -19 14 -51l-28 -41q-21 -32 -59 -13l-257 132h-2l-319 -132q-45 -19 -53 13z" />
<glyph unicode="&#xcf;" horiz-adv-x="532" d="M63 55l305 1324q13 55 63 55h92q50 0 37 -55l-305 -1324q-13 -55 -63 -55h-92q-50 0 -37 55zM226 1595l21 92q11 45 56 45h92q45 0 34 -45l-21 -92q-10 -45 -55 -45h-92q-45 0 -35 45zM620 1595l21 92q11 45 56 45h92q45 0 34 -45l-21 -92q-10 -45 -55 -45h-92 q-45 0 -35 45z" />
<glyph unicode="&#xd0;" horiz-adv-x="1446" d="M81 699l17 74q10 45 66 45h115l129 561q13 55 63 55h319q358 0 496 -175t138 -411q0 -340 -210 -594t-655 -254h-419q-50 0 -37 55l138 599h-115q-55 0 -45 45zM320 164h268q332 0 481.5 212t149.5 484q0 172 -81.5 292t-393.5 120h-168l-105 -454h321q55 0 44 -45 l-17 -74q-10 -45 -65 -45h-321z" />
<glyph unicode="&#xd1;" horiz-adv-x="1438" d="M63 55l305 1324q13 55 63 55h121q71 0 89 -50l388 -1060h4q9 46 17 80l224 975q13 55 63 55h92q50 0 37 -55l-305 -1324q-13 -55 -63 -55h-82q-70 0 -88 50l-413 1125h-4q-8 -44 -16 -80l-240 -1040q-13 -55 -63 -55h-92q-50 0 -37 55zM612 1620q28 65 85.5 108t146.5 43 q75 0 159 -49t128 -49q48 0 81 27t49 52q19 29 38 18l42 -25q23 -13 9 -45q-28 -65 -85.5 -108t-146.5 -43q-75 0 -159 49t-128 49q-48 0 -81 -27t-49 -52q-19 -29 -38 -18l-42 25q-23 13 -9 45z" />
<glyph unicode="&#xd2;" horiz-adv-x="1514" d="M110 580q0 400 214 642t554 242q305 0 461 -162.5t156 -447.5q0 -400 -214 -642t-554 -242q-305 0 -461 162.5t-156 447.5zM315 556q0 -205 106.5 -317.5t316.5 -112.5q220 0 386 183.5t166 568.5q0 205 -106.5 317.5t-316.5 112.5q-220 0 -386 -183.5t-166 -568.5z M629 1733q-56 52 21 52h145q49 0 76 -37l111 -155q38 -53 -20 -53h-82q-46 0 -76 29z" />
<glyph unicode="&#xd3;" horiz-adv-x="1514" d="M110 580q0 400 214 642t554 242q305 0 461 -162.5t156 -447.5q0 -400 -214 -642t-554 -242q-305 0 -461 162.5t-156 447.5zM315 556q0 -205 106.5 -317.5t316.5 -112.5q220 0 386 183.5t166 568.5q0 205 -106.5 317.5t-316.5 112.5q-220 0 -386 -183.5t-166 -568.5z M834 1593l155 155q37 37 86 37h169q77 0 7 -52l-221 -164q-40 -29 -86 -29h-106q-57 0 -4 53z" />
<glyph unicode="&#xd4;" horiz-adv-x="1514" d="M110 580q0 400 214 642t554 242q305 0 461 -162.5t156 -447.5q0 -400 -214 -642t-554 -242q-305 0 -461 162.5t-156 447.5zM315 556q0 -205 106.5 -317.5t316.5 -112.5q220 0 386 183.5t166 568.5q0 205 -106.5 317.5t-316.5 112.5q-220 0 -386 -183.5t-166 -568.5z M539 1589q-8 32 38 51l248 104q43 18 68 18h70q25 0 60 -18l234 -122q35 -19 14 -51l-28 -41q-21 -32 -59 -13l-257 132h-2l-319 -132q-45 -19 -53 13z" />
<glyph unicode="&#xd5;" horiz-adv-x="1514" d="M110 580q0 400 214 642t554 242q305 0 461 -162.5t156 -447.5q0 -400 -214 -642t-554 -242q-305 0 -461 162.5t-156 447.5zM315 556q0 -205 106.5 -317.5t316.5 -112.5q220 0 386 183.5t166 568.5q0 205 -106.5 317.5t-316.5 112.5q-220 0 -386 -183.5t-166 -568.5z M554 1620q28 65 85.5 108t146.5 43q75 0 159 -49t128 -49q48 0 81 27t49 52q19 29 38 18l42 -25q23 -13 9 -45q-28 -65 -85.5 -108t-146.5 -43q-75 0 -159 49t-128 49q-48 0 -81 -27t-49 -52q-19 -29 -38 -18l-42 25q-23 13 -9 45z" />
<glyph unicode="&#xd6;" horiz-adv-x="1514" d="M110 580q0 400 214 642t554 242q305 0 461 -162.5t156 -447.5q0 -400 -214 -642t-554 -242q-305 0 -461 162.5t-156 447.5zM315 556q0 -205 106.5 -317.5t316.5 -112.5q220 0 386 183.5t166 568.5q0 205 -106.5 317.5t-316.5 112.5q-220 0 -386 -183.5t-166 -568.5z M575 1595l21 92q11 45 56 45h92q45 0 34 -45l-21 -92q-10 -45 -55 -45h-92q-45 0 -35 45zM1053 1595l21 92q11 45 56 45h92q45 0 34 -45l-21 -92q-10 -45 -55 -45h-92q-45 0 -35 45z" />
<glyph unicode="&#xd9;" horiz-adv-x="1402" d="M176 547l192 832q13 55 63 55h92q50 0 37 -55l-185 -802q-64 -280 -5 -365.5t240 -85.5q146 0 262.5 85.5t180.5 365.5l185 802q13 55 63 55h92q50 0 37 -55l-192 -832q-73 -317 -234 -447t-430 -130q-199 0 -335 130t-63 447zM669 1733q-56 52 21 52h145q49 0 76 -37 l111 -155q38 -53 -20 -53h-82q-46 0 -76 29z" />
<glyph unicode="&#xda;" horiz-adv-x="1402" d="M176 547l192 832q13 55 63 55h92q50 0 37 -55l-185 -802q-64 -280 -5 -365.5t240 -85.5q146 0 262.5 85.5t180.5 365.5l185 802q13 55 63 55h92q50 0 37 -55l-192 -832q-73 -317 -234 -447t-430 -130q-199 0 -335 130t-63 447zM874 1593l155 155q37 37 86 37h169 q77 0 7 -52l-221 -164q-40 -29 -86 -29h-106q-57 0 -4 53z" />
<glyph unicode="&#xdb;" horiz-adv-x="1402" d="M176 547l192 832q13 55 63 55h92q50 0 37 -55l-185 -802q-64 -280 -5 -365.5t240 -85.5q146 0 262.5 85.5t180.5 365.5l185 802q13 55 63 55h92q50 0 37 -55l-192 -832q-73 -317 -234 -447t-430 -130q-199 0 -335 130t-63 447zM579 1589q-8 32 38 51l248 104q43 18 68 18 h70q25 0 60 -18l234 -122q35 -19 14 -51l-28 -41q-21 -32 -59 -13l-257 132h-2l-319 -132q-45 -19 -53 13z" />
<glyph unicode="&#xdc;" horiz-adv-x="1402" d="M176 547l192 832q13 55 63 55h92q50 0 37 -55l-185 -802q-64 -280 -5 -365.5t240 -85.5q146 0 262.5 85.5t180.5 365.5l185 802q13 55 63 55h92q50 0 37 -55l-192 -832q-73 -317 -234 -447t-430 -130q-199 0 -335 130t-63 447zM618 1595l21 92q11 45 56 45h92 q45 0 34 -45l-21 -92q-10 -45 -55 -45h-92q-45 0 -35 45zM1096 1595l21 92q11 45 56 45h92q45 0 34 -45l-21 -92q-10 -45 -55 -45h-92q-45 0 -35 45z" />
<glyph unicode="&#xdd;" horiz-adv-x="1302" d="M250 1368q-27 66 42 66h93q44 0 61 -49l156 -437q14 -40 37.5 -109.5t37.5 -129.5h4q42 60 82.5 112t102.5 127l358 437q40 49 83 49h125q70 0 12 -66l-681 -778l-123 -535q-13 -55 -63 -55h-92q-50 0 -37 55l123 535zM824 1593l155 155q37 37 86 37h169q77 0 7 -52 l-221 -164q-40 -29 -86 -29h-106q-57 0 -4 53z" />
<glyph unicode="&#xdf;" horiz-adv-x="1216" d="M-60 -355l345 1494q47 202 182.5 278t321.5 76q183 0 268 -83.5t85 -206.5q0 -137 -88 -229t-260 -187l-1 -3q163 -26 228 -132t65 -230q0 -177 -135 -308t-326 -131q-96 0 -152 13.5t-99 51.5q-22 19 1 54l38 58q22 33 64 -2q17 -14 59 -29.5t95 -15.5q101 0 185 86 t84 213q0 161 -75 211t-203 50q-12 0 -14 25l-10 114q-2 20 22 33l92 49q94 50 174 122.5t80 171.5q0 87 -40 131t-152 44q-102 0 -194.5 -55t-125.5 -198l-338 -1465q-10 -45 -55 -45h-86q-45 0 -35 45z" />
<glyph unicode="&#xe0;" horiz-adv-x="1099" d="M66 339q0 275 186.5 501.5t391.5 226.5q90 0 148 -37.5t86 -87.5h2l21 63q15 45 49 45h84q45 0 35 -45l-222 -960q-10 -45 -55 -45h-81q-44 0 -35 45l25 120h-2q-49 -65 -130.5 -123.5t-181.5 -58.5q-145 0 -233 87.5t-88 268.5zM252 332q0 -66 35.5 -142.5t145.5 -76.5 q90 0 199 119t139 248l67 290q0 90 -57.5 128.5t-142.5 38.5q-140 0 -263 -179.5t-123 -425.5zM468 1383q-38 52 22 52h101q54 0 75 -37l112 -195q30 -53 -19 -53h-64q-56 0 -77 29z" />
<glyph unicode="&#xe1;" horiz-adv-x="1099" d="M66 339q0 275 186.5 501.5t391.5 226.5q90 0 148 -37.5t86 -87.5h2l21 63q15 45 49 45h84q45 0 35 -45l-222 -960q-10 -45 -55 -45h-81q-44 0 -35 45l25 120h-2q-49 -65 -130.5 -123.5t-181.5 -58.5q-145 0 -233 87.5t-88 268.5zM252 332q0 -66 35.5 -142.5t145.5 -76.5 q90 0 199 119t139 248l67 290q0 90 -57.5 128.5t-142.5 38.5q-140 0 -263 -179.5t-123 -425.5zM579 1203l166 195q32 37 87 37h121q59 0 6 -52l-206 -204q-30 -29 -85 -29h-84q-50 0 -5 53z" />
<glyph unicode="&#xe2;" horiz-adv-x="1099" d="M66 339q0 275 186.5 501.5t391.5 226.5q90 0 148 -37.5t86 -87.5h2l21 63q15 45 49 45h84q45 0 35 -45l-222 -960q-10 -45 -55 -45h-81q-44 0 -35 45l25 120h-2q-49 -65 -130.5 -123.5t-181.5 -58.5q-145 0 -233 87.5t-88 268.5zM252 332q0 -66 35.5 -142.5t145.5 -76.5 q90 0 199 119t139 248l67 290q0 90 -57.5 128.5t-142.5 38.5q-140 0 -263 -179.5t-123 -425.5zM374 1190q-17 26 25 55l234 163q37 26 62 26h50q25 0 50 -26l174 -179q28 -29 -1 -55l-25 -23q-29 -27 -57 2l-172 179h-2l-256 -179q-40 -28 -57 -2z" />
<glyph unicode="&#xe3;" horiz-adv-x="1099" d="M66 339q0 275 186.5 501.5t391.5 226.5q90 0 148 -37.5t86 -87.5h2l21 63q15 45 49 45h84q45 0 35 -45l-222 -960q-10 -45 -55 -45h-81q-44 0 -35 45l25 120h-2q-49 -65 -130.5 -123.5t-181.5 -58.5q-145 0 -233 87.5t-88 268.5zM252 332q0 -66 35.5 -142.5t145.5 -76.5 q90 0 199 119t139 248l67 290q0 90 -57.5 128.5t-142.5 38.5q-140 0 -263 -179.5t-123 -425.5zM371 1219q21 71 71.5 116t130.5 45q68 0 138 -55t109 -55q43 0 64 22t37 60q13 30 37 20l39 -17q22 -10 12 -44q-21 -71 -71.5 -116t-130.5 -45q-68 0 -138 55t-109 55 q-43 0 -64 -22t-37 -60q-13 -30 -37 -20l-39 17q-22 10 -12 44z" />
<glyph unicode="&#xe4;" horiz-adv-x="1099" d="M66 339q0 275 186.5 501.5t391.5 226.5q90 0 148 -37.5t86 -87.5h2l21 63q15 45 49 45h84q45 0 35 -45l-222 -960q-10 -45 -55 -45h-81q-44 0 -35 45l25 120h-2q-49 -65 -130.5 -123.5t-181.5 -58.5q-145 0 -233 87.5t-88 268.5zM252 332q0 -66 35.5 -142.5t145.5 -76.5 q90 0 199 119t139 248l67 290q0 90 -57.5 128.5t-142.5 38.5q-140 0 -263 -179.5t-123 -425.5zM407 1285l20 86q10 45 55 45h86q45 0 35 -45l-20 -86q-11 -45 -56 -45h-86q-45 0 -34 45zM813 1285l20 86q10 45 55 45h86q45 0 35 -45l-20 -86q-11 -45 -56 -45h-86 q-45 0 -34 45z" />
<glyph unicode="&#xe5;" horiz-adv-x="1099" d="M66 339q0 275 186.5 501.5t391.5 226.5q90 0 148 -37.5t86 -87.5h2l21 63q15 45 49 45h84q45 0 35 -45l-222 -960q-10 -45 -55 -45h-81q-44 0 -35 45l25 120h-2q-49 -65 -130.5 -123.5t-181.5 -58.5q-145 0 -233 87.5t-88 268.5zM252 332q0 -66 35.5 -142.5t145.5 -76.5 q90 0 199 119t139 248l67 290q0 90 -57.5 128.5t-142.5 38.5q-140 0 -263 -179.5t-123 -425.5zM479 1313q0 75 52.5 127.5t127.5 52.5t127.5 -52.5t52.5 -127.5t-52.5 -127.5t-127.5 -52.5t-127.5 52.5t-52.5 127.5zM555 1313q0 -44 30 -74t74 -30t74 30t30 74t-30 74 t-74 30t-74 -30t-30 -74z" />
<glyph unicode="&#xe6;" horiz-adv-x="1698" d="M35 220q0 182 165.5 290t564.5 128l16 68q25 106 -10.5 168.5t-156.5 62.5q-92 0 -155 -24.5t-134 -92.5q-29 -28 -51 -3l-47 55q-24 28 15 60q88 72 196 103.5t192 31.5q106 0 180 -31.5t111 -112.5h2q39 40 133 92t236 52q154 0 240 -92.5t86 -196.5 q0 -142 -117.5 -212.5t-361.5 -120.5l-224 -46q-6 -38 -6 -40q0 -103 55 -174t173 -71q98 0 167.5 45t92.5 73q37 45 63 21l56 -51q23 -21 -6 -56q-31 -38 -121 -100.5t-276 -62.5q-117 0 -205.5 48t-132.5 151h-2q-94 -92 -204 -145.5t-206 -53.5q-187 0 -257.5 63.5 t-70.5 173.5zM217 242q0 -62 36.5 -93t124.5 -31q100 0 191.5 41.5t164.5 118.5q-25 100 5 229q-325 -21 -423.5 -95t-98.5 -170zM920 538l183 37q200 40 269.5 82.5t69.5 128.5q0 68 -44.5 109.5t-138.5 41.5q-107 0 -201 -92t-138 -307z" />
<glyph unicode="&#xe7;" horiz-adv-x="1026" d="M68 402q0 265 163.5 465t428.5 200q162 0 231 -56.5t100 -124.5q16 -36 -14 -52l-66 -35q-34 -18 -53 25q-14 32 -64 72.5t-147 40.5q-156 0 -274.5 -140t-118.5 -410q0 -122 58.5 -198t188.5 -76q103 0 169 53.5t94 95.5q23 35 53 14l63 -46q29 -21 5 -55 q-29 -40 -127 -116t-270 -76q-234 0 -327 133.5t-93 285.5zM205 -359l13 38q11 32 40 17q24 -12 86 -12q48 0 79 19t31 52q0 25 -24.5 40.5t-73.5 15.5h-28q-22 0 -18 25q7 42 18 55l89 109q18 22 45 22h69q32 0 14 -22l-78 -96l-1 -3q67 -13 90 -43t23 -89 q0 -82 -70 -133.5t-168 -51.5q-69 0 -125 21q-21 8 -11 36z" />
<glyph unicode="&#xe8;" horiz-adv-x="1078" d="M68 396q0 300 156.5 485.5t427.5 185.5q155 0 250.5 -88.5t95.5 -200.5q0 -148 -141.5 -218t-350.5 -112l-246 -49q-6 -38 -6 -40q0 -99 54 -172t189 -73q115 0 185 42t95 76q35 47 63 21l59 -51q19 -17 -6 -56q-23 -36 -124 -99.5t-296 -63.5q-213 0 -309 123.5 t-96 289.5zM265 538l205 40q140 27 246 74.5t106 133.5q0 68 -61.5 109.5t-141.5 41.5q-121 0 -215.5 -92t-138.5 -307zM476 1383q-38 52 22 52h101q54 0 75 -37l112 -195q30 -53 -19 -53h-64q-56 0 -77 29z" />
<glyph unicode="&#xe9;" horiz-adv-x="1078" d="M68 396q0 300 156.5 485.5t427.5 185.5q155 0 250.5 -88.5t95.5 -200.5q0 -148 -141.5 -218t-350.5 -112l-246 -49q-6 -38 -6 -40q0 -99 54 -172t189 -73q115 0 185 42t95 76q35 47 63 21l59 -51q19 -17 -6 -56q-23 -36 -124 -99.5t-296 -63.5q-213 0 -309 123.5 t-96 289.5zM265 538l205 40q140 27 246 74.5t106 133.5q0 68 -61.5 109.5t-141.5 41.5q-121 0 -215.5 -92t-138.5 -307zM587 1203l166 195q32 37 87 37h121q59 0 6 -52l-206 -204q-30 -29 -85 -29h-84q-50 0 -5 53z" />
<glyph unicode="&#xea;" horiz-adv-x="1078" d="M68 396q0 300 156.5 485.5t427.5 185.5q155 0 250.5 -88.5t95.5 -200.5q0 -148 -141.5 -218t-350.5 -112l-246 -49q-6 -38 -6 -40q0 -99 54 -172t189 -73q115 0 185 42t95 76q35 47 63 21l59 -51q19 -17 -6 -56q-23 -36 -124 -99.5t-296 -63.5q-213 0 -309 123.5 t-96 289.5zM265 538l205 40q140 27 246 74.5t106 133.5q0 68 -61.5 109.5t-141.5 41.5q-121 0 -215.5 -92t-138.5 -307zM382 1190q-17 26 25 55l234 163q37 26 62 26h50q25 0 50 -26l174 -179q28 -29 -1 -55l-25 -23q-29 -27 -57 2l-172 179h-2l-256 -179q-40 -28 -57 -2z " />
<glyph unicode="&#xeb;" horiz-adv-x="1078" d="M68 396q0 300 156.5 485.5t427.5 185.5q155 0 250.5 -88.5t95.5 -200.5q0 -148 -141.5 -218t-350.5 -112l-246 -49q-6 -38 -6 -40q0 -99 54 -172t189 -73q115 0 185 42t95 76q35 47 63 21l59 -51q19 -17 -6 -56q-23 -36 -124 -99.5t-296 -63.5q-213 0 -309 123.5 t-96 289.5zM265 538l205 40q140 27 246 74.5t106 133.5q0 68 -61.5 109.5t-141.5 41.5q-121 0 -215.5 -92t-138.5 -307zM415 1285l20 86q10 45 55 45h86q45 0 35 -45l-20 -86q-11 -45 -56 -45h-86q-45 0 -34 45zM821 1285l20 86q10 45 55 45h86q45 0 35 -45l-20 -86 q-11 -45 -56 -45h-86q-45 0 -34 45z" />
<glyph unicode="&#xec;" horiz-adv-x="460" d="M32 45l222 960q10 45 55 45h86q45 0 35 -45l-222 -960q-10 -45 -55 -45h-86q-45 0 -35 45zM180 1383q-38 52 22 52h101q54 0 75 -37l112 -195q30 -53 -19 -53h-64q-56 0 -77 29z" />
<glyph unicode="&#xed;" horiz-adv-x="460" d="M32 45l222 960q10 45 55 45h86q45 0 35 -45l-222 -960q-10 -45 -55 -45h-86q-45 0 -35 45zM291 1203l166 195q32 37 87 37h121q59 0 6 -52l-206 -204q-30 -29 -85 -29h-84q-50 0 -5 53z" />
<glyph unicode="&#xee;" horiz-adv-x="460" d="M32 45l222 960q10 45 55 45h86q45 0 35 -45l-222 -960q-10 -45 -55 -45h-86q-45 0 -35 45zM86 1190q-17 26 25 55l234 163q37 26 62 26h50q25 0 50 -26l174 -179q28 -29 -1 -55l-25 -23q-29 -27 -57 2l-172 179h-2l-256 -179q-40 -28 -57 -2z" />
<glyph unicode="&#xef;" horiz-adv-x="460" d="M32 45l222 960q10 45 55 45h86q45 0 35 -45l-222 -960q-10 -45 -55 -45h-86q-45 0 -35 45zM152 1285l20 86q10 45 55 45h86q45 0 35 -45l-20 -86q-11 -45 -56 -45h-86q-45 0 -34 45zM486 1285l20 86q10 45 55 45h86q45 0 35 -45l-20 -86q-11 -45 -56 -45h-86 q-45 0 -34 45z" />
<glyph unicode="&#xf1;" horiz-adv-x="1128" d="M32 45l222 960q10 45 55 45h84q45 0 35 -45l-27 -120h4q59 73 153.5 127.5t214.5 54.5q170 0 232 -102.5t21 -280.5l-148 -639q-10 -45 -55 -45h-86q-45 0 -35 45l137 591q45 196 -3 248.5t-158 52.5q-120 0 -218.5 -116.5t-133.5 -266.5l-118 -509q-10 -45 -55 -45h-86 q-45 0 -35 45zM418 1219q21 71 71.5 116t130.5 45q68 0 138 -55t109 -55q43 0 64 22t37 60q13 30 37 20l39 -17q22 -10 12 -44q-21 -71 -71.5 -116t-130.5 -45q-68 0 -138 55t-109 55q-43 0 -64 -22t-37 -60q-13 -30 -37 -20l-39 17q-22 10 -12 44z" />
<glyph unicode="&#xf2;" horiz-adv-x="1148" d="M68 402q0 264 163.5 464.5t428.5 200.5q234 0 327 -134.5t93 -284.5q0 -264 -163.5 -464.5t-428.5 -200.5q-234 0 -327 134.5t-93 284.5zM254 387q0 -125 58.5 -199.5t188.5 -74.5q156 0 274.5 141.5t118.5 408.5q0 125 -58.5 199.5t-188.5 74.5q-156 0 -274.5 -141.5 t-118.5 -408.5zM484 1383q-38 52 22 52h101q54 0 75 -37l112 -195q30 -53 -19 -53h-64q-56 0 -77 29z" />
<glyph unicode="&#xf3;" horiz-adv-x="1148" d="M68 402q0 264 163.5 464.5t428.5 200.5q234 0 327 -134.5t93 -284.5q0 -264 -163.5 -464.5t-428.5 -200.5q-234 0 -327 134.5t-93 284.5zM254 387q0 -125 58.5 -199.5t188.5 -74.5q156 0 274.5 141.5t118.5 408.5q0 125 -58.5 199.5t-188.5 74.5q-156 0 -274.5 -141.5 t-118.5 -408.5zM595 1203l166 195q32 37 87 37h121q59 0 6 -52l-206 -204q-30 -29 -85 -29h-84q-50 0 -5 53z" />
<glyph unicode="&#xf4;" horiz-adv-x="1148" d="M68 402q0 264 163.5 464.5t428.5 200.5q234 0 327 -134.5t93 -284.5q0 -264 -163.5 -464.5t-428.5 -200.5q-234 0 -327 134.5t-93 284.5zM254 387q0 -125 58.5 -199.5t188.5 -74.5q156 0 274.5 141.5t118.5 408.5q0 125 -58.5 199.5t-188.5 74.5q-156 0 -274.5 -141.5 t-118.5 -408.5zM390 1190q-17 26 25 55l234 163q37 26 62 26h50q25 0 50 -26l174 -179q28 -29 -1 -55l-25 -23q-29 -27 -57 2l-172 179h-2l-256 -179q-40 -28 -57 -2z" />
<glyph unicode="&#xf5;" horiz-adv-x="1148" d="M68 402q0 264 163.5 464.5t428.5 200.5q234 0 327 -134.5t93 -284.5q0 -264 -163.5 -464.5t-428.5 -200.5q-234 0 -327 134.5t-93 284.5zM254 387q0 -125 58.5 -199.5t188.5 -74.5q156 0 274.5 141.5t118.5 408.5q0 125 -58.5 199.5t-188.5 74.5q-156 0 -274.5 -141.5 t-118.5 -408.5zM387 1219q21 71 71.5 116t130.5 45q68 0 138 -55t109 -55q43 0 64 22t37 60q13 30 37 20l39 -17q22 -10 12 -44q-21 -71 -71.5 -116t-130.5 -45q-68 0 -138 55t-109 55q-43 0 -64 -22t-37 -60q-13 -30 -37 -20l-39 17q-22 10 -12 44z" />
<glyph unicode="&#xf6;" horiz-adv-x="1148" d="M68 402q0 264 163.5 464.5t428.5 200.5q234 0 327 -134.5t93 -284.5q0 -264 -163.5 -464.5t-428.5 -200.5q-234 0 -327 134.5t-93 284.5zM254 387q0 -125 58.5 -199.5t188.5 -74.5q156 0 274.5 141.5t118.5 408.5q0 125 -58.5 199.5t-188.5 74.5q-156 0 -274.5 -141.5 t-118.5 -408.5zM440 1285l20 86q10 45 55 45h86q45 0 35 -45l-20 -86q-11 -45 -56 -45h-86q-45 0 -34 45zM846 1285l20 86q10 45 55 45h86q45 0 35 -45l-20 -86q-11 -45 -56 -45h-86q-45 0 -34 45z" />
<glyph unicode="&#xf9;" horiz-adv-x="1120" d="M104 366l148 639q10 45 55 45h86q45 0 35 -45l-136 -591q-45 -197 3 -249t153 -52q147 0 230 116.5t118 266.5l118 509q10 45 55 45h86q45 0 35 -45l-222 -960q-10 -45 -55 -45h-84q-45 0 -35 45l28 120h-4q-59 -73 -154.5 -127.5t-210.5 -54.5q-160 0 -225 102.5 t-24 280.5zM509 1383q-38 52 22 52h101q54 0 75 -37l112 -195q30 -53 -19 -53h-64q-56 0 -77 29z" />
<glyph unicode="&#xfa;" horiz-adv-x="1120" d="M104 366l148 639q10 45 55 45h86q45 0 35 -45l-136 -591q-45 -197 3 -249t153 -52q147 0 230 116.5t118 266.5l118 509q10 45 55 45h86q45 0 35 -45l-222 -960q-10 -45 -55 -45h-84q-45 0 -35 45l28 120h-4q-59 -73 -154.5 -127.5t-210.5 -54.5q-160 0 -225 102.5 t-24 280.5zM620 1203l166 195q32 37 87 37h121q59 0 6 -52l-206 -204q-30 -29 -85 -29h-84q-50 0 -5 53z" />
<glyph unicode="&#xfb;" horiz-adv-x="1120" d="M104 366l148 639q10 45 55 45h86q45 0 35 -45l-136 -591q-45 -197 3 -249t153 -52q147 0 230 116.5t118 266.5l118 509q10 45 55 45h86q45 0 35 -45l-222 -960q-10 -45 -55 -45h-84q-45 0 -35 45l28 120h-4q-59 -73 -154.5 -127.5t-210.5 -54.5q-160 0 -225 102.5 t-24 280.5zM415 1190q-17 26 25 55l234 163q37 26 62 26h50q25 0 50 -26l174 -179q28 -29 -1 -55l-25 -23q-29 -27 -57 2l-172 179h-2l-256 -179q-40 -28 -57 -2z" />
<glyph unicode="&#xfc;" horiz-adv-x="1120" d="M104 366l148 639q10 45 55 45h86q45 0 35 -45l-136 -591q-45 -197 3 -249t153 -52q147 0 230 116.5t118 266.5l118 509q10 45 55 45h86q45 0 35 -45l-222 -960q-10 -45 -55 -45h-84q-45 0 -35 45l28 120h-4q-59 -73 -154.5 -127.5t-210.5 -54.5q-160 0 -225 102.5 t-24 280.5zM444 1285l20 86q10 45 55 45h86q45 0 35 -45l-20 -86q-11 -45 -56 -45h-86q-45 0 -34 45zM850 1285l20 86q10 45 55 45h86q45 0 35 -45l-20 -86q-11 -45 -56 -45h-86q-45 0 -34 45z" />
<glyph unicode="&#xfd;" horiz-adv-x="1128" d="M0 -306q-29 40 2 68l56 52q32 29 50 0q30 -48 87 -74.5t170 -26.5q121 0 206.5 68.5t122.5 228.5q23 102 37 155h-4q-59 -73 -150 -127.5t-218 -54.5q-170 0 -232 102.5t-21 280.5l148 639q10 45 55 45h86q45 0 35 -45l-136 -591q-45 -197 2.5 -249t157.5 -52 q106 0 211.5 113.5t141.5 269.5l117 509q10 45 55 45h86q45 0 35 -45l-234 -1014q-47 -205 -158 -306.5t-374 -101.5q-171 0 -236 33t-98 78zM626 1203l166 195q32 37 87 37h121q59 0 6 -52l-206 -204q-30 -29 -85 -29h-84q-50 0 -5 53z" />
<glyph unicode="&#xfe;" horiz-adv-x="1119" d="M-60 -355l412 1786q10 45 55 45h86q45 0 35 -45l-112 -485q-7 -29 -16 -61h2q44 79 137 130.5t173 51.5q190 0 264.5 -116.5t74.5 -279.5q0 -255 -161 -471.5t-379 -216.5q-111 0 -173 33.5t-113 101.5h-2q-4 -28 -12 -61l-95 -412q-10 -45 -55 -45h-86q-45 0 -35 45z M265 290q10 -100 65 -138.5t167 -38.5q152 0 260 169.5t108 395.5q0 104 -45 181.5t-158 77.5q-98 0 -199.5 -117.5t-132.5 -249.5z" />
<glyph unicode="&#xff;" horiz-adv-x="1128" d="M0 -306q-29 40 2 68l56 52q32 29 50 0q30 -48 87 -74.5t170 -26.5q121 0 206.5 68.5t122.5 228.5q23 102 37 155h-4q-59 -73 -150 -127.5t-218 -54.5q-170 0 -232 102.5t-21 280.5l148 639q10 45 55 45h86q45 0 35 -45l-136 -591q-45 -197 2.5 -249t157.5 -52 q106 0 211.5 113.5t141.5 269.5l117 509q10 45 55 45h86q45 0 35 -45l-234 -1014q-47 -205 -158 -306.5t-374 -101.5q-171 0 -236 33t-98 78zM450 1285l20 86q10 45 55 45h86q45 0 35 -45l-20 -86q-11 -45 -56 -45h-86q-45 0 -34 45zM856 1285l20 86q10 45 55 45h86 q45 0 35 -45l-20 -86q-11 -45 -56 -45h-86q-45 0 -34 45z" />
<glyph unicode="&#x131;" horiz-adv-x="460" d="M32 45l222 960q10 45 55 45h86q45 0 35 -45l-222 -960q-10 -45 -55 -45h-86q-45 0 -35 45z" />
<glyph unicode="&#x178;" horiz-adv-x="1302" d="M250 1368q-27 66 42 66h93q44 0 61 -49l156 -437q14 -40 37.5 -109.5t37.5 -129.5h4q42 60 82.5 112t102.5 127l358 437q40 49 83 49h125q70 0 12 -66l-681 -778l-123 -535q-13 -55 -63 -55h-92q-50 0 -37 55l123 535zM568 1595l21 92q11 45 56 45h92q45 0 34 -45 l-21 -92q-10 -45 -55 -45h-92q-45 0 -35 45zM1046 1595l21 92q11 45 56 45h92q45 0 34 -45l-21 -92q-10 -45 -55 -45h-92q-45 0 -35 45z" />
<glyph unicode="&#x2c6;" horiz-adv-x="614" d="M164 1190q-17 26 25 55l234 163q37 26 62 26h50q25 0 50 -26l174 -179q28 -29 -1 -55l-25 -23q-29 -27 -57 2l-172 179h-2l-256 -179q-40 -28 -57 -2z" />
<glyph unicode="&#x2da;" horiz-adv-x="614" d="M310 1313q0 75 52.5 127.5t127.5 52.5t127.5 -52.5t52.5 -127.5t-52.5 -127.5t-127.5 -52.5t-127.5 52.5t-52.5 127.5zM386 1313q0 -44 30 -74t74 -30t74 30t30 74t-30 74t-74 30t-74 -30t-30 -74z" />
<glyph unicode="&#x2dc;" horiz-adv-x="614" d="M160 1219q21 71 71.5 116t130.5 45q68 0 138 -55t109 -55q43 0 64 22t37 60q13 30 37 20l39 -17q22 -10 12 -44q-21 -71 -71.5 -116t-130.5 -45q-68 0 -138 55t-109 55q-43 0 -64 -22t-37 -60q-13 -30 -37 -20l-39 17q-22 10 -12 44z" />
<glyph unicode="&#x401;" horiz-adv-x="1270" d="M63 55l305 1324q13 55 63 55h875q55 0 45 -45l-17 -74q-11 -45 -66 -45h-733l-102 -444h673q55 0 44 -45l-17 -74q-10 -45 -65 -45h-673l-115 -498h763q55 0 44 -45l-17 -74q-10 -45 -65 -45h-905q-50 0 -37 55zM593 1595l21 92q11 45 56 45h92q45 0 34 -45l-21 -92 q-10 -45 -55 -45h-92q-45 0 -35 45zM1071 1595l21 92q11 45 56 45h92q45 0 34 -45l-21 -92q-10 -45 -55 -45h-92q-45 0 -35 45z" />
<glyph unicode="&#x402;" horiz-adv-x="1600" d="M220 1315l17 74q10 45 66 45h1058q54 0 44 -45l-17 -74q-10 -45 -65 -45h-463l-97 -419q-11 -47 -21 -80h4q80 35 162 66t189 31q199 0 296 -107t97 -279q0 -242 -126 -380t-358 -138q-87 0 -153 18q-40 10 -26 49l27 81q8 24 54 16q44 -7 86 -7q164 0 227.5 97t63.5 230 q0 137 -47 201.5t-176 64.5q-59 0 -161.5 -20t-186.5 -57l-135 -582q-13 -55 -63 -55h-92q-50 0 -37 55l281 1215h-403q-55 0 -45 45z" />
<glyph unicode="&#x403;" horiz-adv-x="1106" d="M63 55l305 1324q13 55 63 55h795q55 0 45 -45l-17 -74q-11 -45 -66 -45h-653l-280 -1215q-13 -55 -63 -55h-92q-50 0 -37 55zM694 1593l155 155q37 37 86 37h169q77 0 7 -52l-221 -164q-40 -29 -86 -29h-106q-57 0 -4 53z" />
<glyph unicode="&#x404;" horiz-adv-x="1382" d="M110 580q0 395 204.5 639.5t593.5 244.5q184 0 289.5 -52.5t161.5 -154.5q28 -50 -16 -81l-73 -53q-26 -18 -55 23q-36 53 -112.5 107.5t-211.5 54.5q-250 0 -380.5 -146.5t-169.5 -328.5h683q54 0 44 -45l-17 -74q-10 -45 -65 -45h-667q-4 -54 -4 -112 q0 -182 88.5 -306.5t333.5 -124.5q136 0 228 65t150 132q47 54 81 28l85 -65q30 -24 -15 -79q-90 -108 -214.5 -172.5t-341.5 -64.5q-314 0 -457 172.5t-143 437.5z" />
<glyph unicode="&#x405;" horiz-adv-x="1217" d="M64 198l57 70q31 38 86 -13q65 -61 141 -95t194 -34q100 0 169 28.5t122.5 83t53.5 135.5q0 43 -12.5 89t-52 81t-87.5 54q-55 22 -117 42.5t-138 58.5q-64 32 -110 81t-73 117t-27 145q0 141 90 250.5t201 141t206 31.5q133 0 223 -33t164 -90q49 -38 17 -80l-58 -75 q-23 -30 -69 8q-36 30 -118 65t-171 35q-57 0 -123 -19t-118 -77.5t-52 -142.5q0 -44 12 -84.5t44.5 -70.5t69.5 -48q58 -28 119.5 -48t111.5 -40q80 -32 146.5 -83t95.5 -128.5t29 -147.5q0 -141 -76 -236t-187 -147t-301 -52q-164 0 -271 40t-171 102q-50 49 -20 86z" />
<glyph unicode="&#x406;" horiz-adv-x="532" d="M63 55l305 1324q13 55 63 55h92q50 0 37 -55l-305 -1324q-13 -55 -63 -55h-92q-50 0 -37 55z" />
<glyph unicode="&#x407;" horiz-adv-x="532" d="M63 55l305 1324q13 55 63 55h92q50 0 37 -55l-305 -1324q-13 -55 -63 -55h-92q-50 0 -37 55zM226 1595l21 92q11 45 56 45h92q45 0 34 -45l-21 -92q-10 -45 -55 -45h-92q-45 0 -35 45zM620 1595l21 92q11 45 56 45h92q45 0 34 -45l-21 -92q-10 -45 -55 -45h-92 q-45 0 -35 45z" />
<glyph unicode="&#x408;" horiz-adv-x="824" d="M-50 94l36 71q26 52 76 14q70 -53 132 -53q97 0 152 65t83 187l231 1001q13 55 63 55h92q50 0 37 -55l-225 -978q-40 -176 -132 -303.5t-320 -127.5q-116 0 -212 59q-35 21 -13 65z" />
<glyph unicode="&#x409;" horiz-adv-x="2250" d="M-67 29l25 83q11 37 57 23q26 -8 77 -8q169 0 271.5 263.5t199.5 686.5l69 302q13 55 63 55h770q50 0 37 -55l-127 -551h268q292 0 399 -106.5t107 -267.5q0 -184 -160 -319t-497 -135h-450q-50 0 -37 55l280 1215h-512l-57 -249q-144 -628 -272.5 -839.5t-364.5 -211.5 q-88 0 -125 13q-31 11 -21 46zM1222 164h276q215 0 330.5 74t115.5 206q0 141 -93 180.5t-278 39.5h-236z" />
<glyph unicode="&#x40a;" horiz-adv-x="2198" d="M63 55l305 1324q13 55 63 55h92q50 0 37 -55l-127 -551h698l127 551q13 55 63 55h92q50 0 37 -55l-127 -551h268q292 0 399 -106.5t107 -267.5q0 -184 -160 -319t-497 -135h-450q-50 0 -37 55l140 609h-698l-140 -609q-13 -55 -63 -55h-92q-50 0 -37 55zM1170 164h276 q215 0 330.5 74t115.5 206q0 141 -93 180.5t-278 39.5h-236z" />
<glyph unicode="&#x40b;" horiz-adv-x="1630" d="M220 1315l17 74q10 45 65 45h1058q55 0 45 -45l-17 -74q-11 -45 -66 -45h-463l-96 -419q-10 -42 -21 -80h4q104 41 202.5 69t254.5 28t237.5 -102t49.5 -244l-107 -467q-13 -55 -63 -55h-92q-50 0 -37 55l96 419q32 141 -3.5 190.5t-146.5 49.5q-54 0 -192 -19t-232 -58 l-134 -582q-13 -55 -63 -55h-92q-50 0 -37 55l280 1215h-403q-55 0 -44 45z" />
<glyph unicode="&#x40c;" horiz-adv-x="1270" d="M63 55l305 1324q13 55 63 55h92q50 0 37 -55l-130 -566h42q114 0 185.5 57t150.5 144l348 381q36 39 79 39h137q65 0 3 -66l-408 -436q-71 -76 -150.5 -131.5t-107.5 -65.5l-1 -1q57 -26 119 -91t92 -137l186 -440q28 -66 -33 -66h-107q-47 0 -61 39l-136 369 q-40 108 -125.5 176.5t-192.5 68.5h-57l-138 -598q-13 -55 -63 -55h-92q-50 0 -37 55zM773 1593l155 155q37 37 86 37h169q77 0 7 -52l-221 -164q-40 -29 -86 -29h-106q-57 0 -4 53z" />
<glyph unicode="&#x40e;" horiz-adv-x="1316" d="M77 65l41 82q18 38 58 14q56 -34 116 -34q81 0 136 34t91 88l42 63l-299 1056q-19 66 42 66h86q47 0 61 -49l176 -639q17 -61 32 -137.5t24 -137.5h4q34 78 80.5 154.5t84.5 136.5l393 623q31 49 83 49h118q55 0 12 -66l-677 -1037q-118 -182 -222.5 -271.5t-279.5 -89.5 q-125 0 -191 44q-28 18 -11 51zM576 1761l6 58q5 48 59 48h83q42 0 38 -48l-3 -32q-5 -55 37 -79t123 -24q131 0 213 58.5t121 112.5q25 35 53 16l39 -27q25 -17 -2 -55q-95 -133 -191 -187t-265 -54q-155 0 -237.5 61t-73.5 152z" />
<glyph unicode="&#x40f;" horiz-adv-x="1410" d="M63 55l305 1324q13 55 63 55h92q50 0 37 -55l-280 -1215h686l280 1215q13 55 63 55h92q50 0 37 -55l-305 -1324q-13 -55 -63 -55h-402l-74 -320q-11 -50 -51 -50h-86q-40 0 -29 50l74 320h-402q-50 0 -37 55z" />
<glyph unicode="&#x410;" horiz-adv-x="1360" d="M-59 66l770 1307q36 61 80 61h140q41 0 52 -61l226 -1307q11 -66 -42 -66h-91q-53 0 -61 49l-57 331h-615l-195 -331q-29 -49 -83 -49h-112q-51 0 -12 66zM441 544h488l-70 400q-13 72 -21 157.5t-8 159.5h-4q-18 -71 -56 -145t-95 -172z" />
<glyph unicode="&#x411;" horiz-adv-x="1330" d="M63 55l305 1324q13 55 63 55h835q55 0 45 -45l-17 -74q-10 -45 -66 -45h-693l-101 -438h278q310 0 408 -113t98 -256q0 -191 -160.5 -327t-497.5 -136h-460q-50 0 -37 55zM280 164h286q215 0 331 76.5t116 211.5q0 120 -80.5 168t-290.5 48h-246z" />
<glyph unicode="&#x412;" horiz-adv-x="1338" d="M63 55l305 1324q13 55 63 55h370q273 0 379 -100.5t106 -249.5q0 -139 -95.5 -221.5t-237.5 -112.5v-3q103 -21 183.5 -100.5t80.5 -215.5q0 -167 -151 -299t-496 -132h-470q-50 0 -37 55zM280 164h296q210 0 323 71t113 204q0 121 -102.5 173t-278.5 52h-236zM429 808 h271q142 0 266.5 76t124.5 192q0 103 -73 148.5t-252 45.5h-231z" />
<glyph unicode="&#x413;" horiz-adv-x="1106" d="M63 55l305 1324q13 55 63 55h795q55 0 45 -45l-17 -74q-11 -45 -66 -45h-653l-280 -1215q-13 -55 -63 -55h-92q-50 0 -37 55z" />
<glyph unicode="&#x414;" horiz-adv-x="1522" d="M-140 -320l99 429q13 55 63 55h82q218 205 302 454t140 489l62 272q13 55 63 55h770q50 0 37 -55l-280 -1215h128q50 0 37 -55l-99 -429q-11 -50 -51 -50h-86q-40 0 -29 50l74 320h-1072l-74 -320q-11 -50 -51 -50h-86q-40 0 -29 50zM314 164h692l255 1106h-512l-50 -219 q-103 -450 -207 -641t-178 -246z" />
<glyph unicode="&#x415;" horiz-adv-x="1270" d="M63 55l305 1324q13 55 63 55h875q55 0 45 -45l-17 -74q-11 -45 -66 -45h-733l-102 -444h673q55 0 44 -45l-17 -74q-10 -45 -65 -45h-673l-115 -498h763q55 0 44 -45l-17 -74q-10 -45 -65 -45h-905q-50 0 -37 55z" />
<glyph unicode="&#x416;" horiz-adv-x="1928" d="M-45 66l382 440q114 131 183.5 173.5t127.5 54.5l1 1q-24 10 -76 64t-88 133l-198 436q-30 66 33 66h97q44 0 61 -39l164 -381q39 -91 100 -146t164 -55h30l130 566q13 55 63 55h92q50 0 37 -55l-130 -566h30q99 0 168 56t148 145l340 381q35 39 79 39h137q64 0 3 -66 l-400 -436q-75 -82 -150.5 -134.5t-103.5 -62.5l-1 -1q54 -12 104 -54.5t103 -173.5l178 -440q27 -66 -33 -66h-107q-47 0 -61 39l-128 369q-39 112 -122.5 178.5t-175.5 66.5h-45l-138 -598q-13 -55 -63 -55h-92q-50 0 -37 55l138 598h-45q-86 0 -184.5 -67.5 t-187.5 -177.5l-298 -369q-31 -39 -79 -39h-147q-60 0 -3 66z" />
<glyph unicode="&#x417;" horiz-adv-x="1272" d="M40 241l77 62q37 29 79 -25q35 -44 128 -98t260 -54q169 0 264 94.5t95 210.5q0 115 -78.5 179.5t-193.5 64.5h-160q-55 0 -45 43l16 70q10 45 65 45h154q162 0 246.5 84.5t84.5 178.5q0 110 -93 161t-205 51q-101 0 -206.5 -40.5t-153.5 -84.5q-47 -43 -73 -8l-58 77 q-29 38 30 81q88 64 197 97.5t269 33.5q242 0 365 -105t123 -249q0 -153 -97.5 -241.5t-226.5 -114.5l-1 -4q103 -21 174.5 -108t71.5 -215q0 -166 -142 -311.5t-429 -145.5q-208 0 -340 67.5t-188 127.5q-45 47 -9 76z" />
<glyph unicode="&#x418;" horiz-adv-x="1452" d="M63 55l305 1324q13 55 63 55h92q50 0 37 -55l-233 -1009q-10 -45 -20 -80h4l893 1094q41 50 111 50h128q50 0 37 -55l-305 -1324q-13 -55 -63 -55h-92q-50 0 -37 55l233 1009q10 45 20 80h-4l-892 -1094q-41 -50 -112 -50h-128q-50 0 -37 55z" />
<glyph unicode="&#x419;" horiz-adv-x="1452" d="M63 55l305 1324q13 55 63 55h92q50 0 37 -55l-233 -1009q-10 -45 -20 -80h4l893 1094q41 50 111 50h128q50 0 37 -55l-305 -1324q-13 -55 -63 -55h-92q-50 0 -37 55l233 1009q10 45 20 80h-4l-892 -1094q-41 -50 -112 -50h-128q-50 0 -37 55zM632 1761l6 58q5 48 59 48 h83q42 0 38 -48l-3 -32q-5 -55 37 -79t123 -24q131 0 213 58.5t121 112.5q25 35 53 16l39 -27q25 -17 -2 -55q-95 -133 -191 -187t-265 -54q-155 0 -237.5 61t-73.5 152z" />
<glyph unicode="&#x41a;" horiz-adv-x="1270" d="M63 55l305 1324q13 55 63 55h92q50 0 37 -55l-130 -566h42q114 0 185.5 57t150.5 144l348 381q36 39 79 39h137q65 0 3 -66l-408 -436q-71 -76 -150.5 -131.5t-107.5 -65.5l-1 -1q57 -26 119 -91t92 -137l186 -440q28 -66 -33 -66h-107q-47 0 -61 39l-136 369 q-40 108 -125.5 176.5t-192.5 68.5h-57l-138 -598q-13 -55 -63 -55h-92q-50 0 -37 55z" />
<glyph unicode="&#x41b;" horiz-adv-x="1474" d="M-67 29l25 83q11 37 57 23q26 -8 77 -8q169 0 271.5 263.5t199.5 686.5l69 302q13 55 63 55h770q50 0 37 -55l-305 -1324q-13 -55 -63 -55h-92q-50 0 -37 55l280 1215h-512l-57 -249q-144 -628 -272.5 -839.5t-364.5 -211.5q-88 0 -125 13q-31 11 -21 46z" />
<glyph unicode="&#x41c;" horiz-adv-x="1708" d="M63 55l305 1324q13 55 63 55h201q38 0 43 -60l79 -897q7 -82 10 -146.5t3 -124.5h6q27 63 59 125t78 146l493 897q33 60 71 60h225q50 0 37 -55l-305 -1324q-13 -55 -63 -55h-92q-50 0 -37 55l242 1049q10 45 20 80h-4l-628 -1123q-34 -61 -80 -61h-110q-46 0 -52 61 l-110 1123h-4q-8 -44 -16 -80l-242 -1049q-13 -55 -63 -55h-92q-50 0 -37 55z" />
<glyph unicode="&#x41d;" horiz-adv-x="1422" d="M63 55l305 1324q13 55 63 55h92q50 0 37 -55l-127 -551h698l127 551q13 55 63 55h92q50 0 37 -55l-305 -1324q-13 -55 -63 -55h-92q-50 0 -37 55l140 609h-698l-140 -609q-13 -55 -63 -55h-92q-50 0 -37 55z" />
<glyph unicode="&#x41e;" horiz-adv-x="1514" d="M110 580q0 400 214 642t554 242q305 0 461 -162.5t156 -447.5q0 -400 -214 -642t-554 -242q-305 0 -461 162.5t-156 447.5zM315 556q0 -205 106.5 -317.5t316.5 -112.5q220 0 386 183.5t166 568.5q0 205 -106.5 317.5t-316.5 112.5q-220 0 -386 -183.5t-166 -568.5z" />
<glyph unicode="&#x41f;" horiz-adv-x="1416" d="M63 55l305 1324q13 55 63 55h976q50 0 37 -55l-305 -1324q-13 -55 -63 -55h-92q-50 0 -37 55l280 1215h-692l-280 -1215q-13 -55 -63 -55h-92q-50 0 -37 55z" />
<glyph unicode="&#x420;" horiz-adv-x="1298" d="M63 55l305 1324q13 55 63 55h410q234 0 355.5 -105t121.5 -284q0 -181 -145.5 -325t-499.5 -144h-298l-120 -521q-13 -55 -63 -55h-92q-50 0 -37 55zM413 740h311q207 0 303 78.5t96 206.5q0 136 -75 190.5t-242 54.5h-271z" />
<glyph unicode="&#x421;" horiz-adv-x="1392" d="M110 580q0 395 210.5 639.5t587.5 244.5q184 0 298 -64t161 -170q23 -53 -23 -80l-78 -46q-27 -16 -52 28q-30 54 -109 115t-214 61q-250 0 -413 -183t-163 -568q0 -182 96 -306.5t326 -124.5q136 0 230.5 71.5t146.5 143.5q42 58 78 35l90 -58q33 -21 -8 -80 q-79 -115 -213 -191.5t-351 -76.5q-302 0 -451 172.5t-149 437.5z" />
<glyph unicode="&#x422;" horiz-adv-x="1240" d="M218 1307l19 82q10 45 65 45h1058q55 0 45 -45l-19 -82q-11 -45 -66 -45h-433l-278 -1207q-13 -55 -63 -55h-92q-50 0 -37 55l278 1207h-433q-55 0 -44 45z" />
<glyph unicode="&#x423;" horiz-adv-x="1316" d="M77 65l41 82q18 38 58 14q56 -34 116 -34q81 0 136 34t91 88l42 63l-299 1056q-19 66 42 66h86q47 0 61 -49l176 -639q17 -61 32 -137.5t24 -137.5h4q34 78 80.5 154.5t84.5 136.5l393 623q31 49 83 49h118q55 0 12 -66l-677 -1037q-118 -182 -222.5 -271.5t-279.5 -89.5 q-125 0 -191 44q-28 18 -11 51z" />
<glyph unicode="&#x424;" horiz-adv-x="1728" d="M122 650q0 267 196 438.5t518 171.5h103l29 124q13 55 62 55h92q50 0 38 -55l-29 -124h43q263 0 396 -121.5t133 -328.5q0 -267 -196 -438.5t-518 -171.5h-103l-36 -157q-13 -55 -63 -55h-92q-50 0 -37 55l36 157h-43q-263 0 -396 121.5t-133 328.5zM327 630 q0 -139 92 -209.5t290 -70.5h20l175 760h-80q-205 0 -351 -122t-146 -358zM921 350h80q205 0 351 122t146 358q0 139 -92 209.5t-290 70.5h-20z" />
<glyph unicode="&#x425;" horiz-adv-x="1298" d="M-45 66l638 686l-299 616q-32 66 33 66h98q43 0 61 -39l235 -522l456 522q34 39 79 39h138q64 0 3 -66l-591 -641l326 -661q33 -66 -33 -66h-105q-44 0 -61 39l-254 568l-497 -568q-34 -39 -79 -39h-145q-64 0 -3 66z" />
<glyph unicode="&#x426;" horiz-adv-x="1486" d="M63 55l305 1324q13 55 63 55h92q50 0 37 -55l-280 -1215h686l280 1215q13 55 63 55h92q50 0 37 -55l-280 -1215h132q50 0 37 -55l-99 -429q-11 -50 -51 -50h-86q-40 0 -29 50l74 320h-1036q-50 0 -37 55z" />
<glyph unicode="&#x427;" horiz-adv-x="1286" d="M211 912l107 467q13 55 63 55h92q50 0 37 -55l-96 -419q-32 -141 3.5 -190.5t146.5 -49.5q54 0 192 19t232 58l134 582q13 55 63 55h92q50 0 37 -55l-305 -1324q-13 -55 -63 -55h-92q-50 0 -37 55l121 528q10 42 21 80h-4q-104 -41 -202.5 -69t-248.5 -28 q-162 0 -243.5 102t-49.5 244z" />
<glyph unicode="&#x428;" horiz-adv-x="2040" d="M63 55l305 1324q13 55 63 55h92q50 0 37 -55l-280 -1215h562l280 1215q13 55 63 55h92q50 0 37 -55l-280 -1215h562l280 1215q13 55 63 55h92q50 0 37 -55l-305 -1324q-13 -55 -63 -55h-1600q-50 0 -37 55z" />
<glyph unicode="&#x429;" horiz-adv-x="2116" d="M63 55l305 1324q13 55 63 55h92q50 0 37 -55l-280 -1215h562l280 1215q13 55 63 55h92q50 0 37 -55l-280 -1215h562l280 1215q13 55 63 55h92q50 0 37 -55l-280 -1215h132q50 0 37 -55l-99 -429q-11 -50 -51 -50h-86q-40 0 -29 50l74 320h-1666q-50 0 -37 55z" />
<glyph unicode="&#x42a;" horiz-adv-x="1700" d="M220 1315l17 74q10 45 65 45h613q50 0 37 -55l-127 -551h268q292 0 399 -106.5t107 -267.5q0 -184 -160 -319t-497 -135h-450q-50 0 -37 55l280 1215h-471q-55 0 -44 45zM672 164h276q215 0 330.5 74t115.5 206q0 141 -93 180.5t-278 39.5h-236z" />
<glyph unicode="&#x42b;" horiz-adv-x="1770" d="M63 55l305 1324q13 55 63 55h92q50 0 37 -55l-127 -551h268q292 0 399 -106.5t107 -267.5q0 -184 -160 -319t-497 -135h-450q-50 0 -37 55zM280 164h276q215 0 330.5 74t115.5 206q0 141 -93 180.5t-278 39.5h-236zM1301 55l305 1324q13 55 63 55h92q50 0 37 -55 l-305 -1324q-13 -55 -63 -55h-92q-50 0 -37 55z" />
<glyph unicode="&#x42c;" horiz-adv-x="1308" d="M63 55l305 1324q13 55 63 55h92q50 0 37 -55l-127 -551h268q292 0 399 -106.5t107 -267.5q0 -184 -160 -319t-497 -135h-450q-50 0 -37 55zM280 164h276q215 0 330.5 74t115.5 206q0 141 -93 180.5t-278 39.5h-236z" />
<glyph unicode="&#x42d;" horiz-adv-x="1352" d="M55 191q-35 56 8 85l75 51q43 29 72 -18q33 -54 115.5 -118.5t244.5 -64.5q182 0 338 126t207 416h-693q-56 0 -45 45l18 74q11 45 65 45h670q26 206 -78 341t-314 135q-132 0 -225 -45t-138 -90q-43 -43 -71 -17l-61 55q-37 34 12 85q63 66 183 117t307 51 q263 0 425.5 -145t162.5 -491t-201.5 -602t-561.5 -256q-219 0 -337.5 63t-177.5 158z" />
<glyph unicode="&#x42e;" horiz-adv-x="2023" d="M63 55l305 1324q13 55 63 55h92q50 0 37 -55l-127 -551h210q47 232 225.5 434t518.5 202q305 0 461 -162.5t156 -447.5q0 -400 -214 -642t-554 -242q-305 0 -461 162.5t-156 447.5q0 43 2 84h-226l-140 -609q-13 -55 -63 -55h-92q-50 0 -37 55zM824 556 q0 -205 106.5 -317.5t316.5 -112.5q220 0 386 183.5t166 568.5q0 205 -106.5 317.5t-316.5 112.5q-220 0 -386 -183.5t-166 -568.5z" />
<glyph unicode="&#x42f;" horiz-adv-x="1363" d="M15 66l326 359q19 21 107 101t159 110v2q-135 24 -238 115t-103 221q0 226 173 343t451 117h464q50 0 37 -55l-305 -1324q-13 -55 -63 -55h-92q-50 0 -37 55l129 558h-101q-112 0 -206.5 -69t-169.5 -156l-306 -349q-34 -39 -79 -39h-143q-63 0 -3 66zM471 996 q0 -108 63 -163.5t306 -55.5h220l114 493h-308q-166 0 -280.5 -66t-114.5 -208z" />
<glyph unicode="&#x430;" horiz-adv-x="1099" d="M66 339q0 275 186.5 501.5t391.5 226.5q90 0 148 -37.5t86 -87.5h2l21 63q15 45 49 45h84q45 0 35 -45l-222 -960q-10 -45 -55 -45h-81q-44 0 -35 45l25 120h-2q-49 -65 -130.5 -123.5t-181.5 -58.5q-145 0 -233 87.5t-88 268.5zM252 332q0 -66 35.5 -142.5t145.5 -76.5 q90 0 199 119t139 248l67 290q0 90 -57.5 128.5t-142.5 38.5q-140 0 -263 -179.5t-123 -425.5z" />
<glyph unicode="&#x431;" horiz-adv-x="1148" d="M74 452q0 150 68.5 362t128 306.5t119 151.5t153.5 103.5t193 54.5q121 10 176 11t103 19q42 16 54 35t46 19h24q35 0 29 -35q-10 -53 -62.5 -108.5t-156.5 -75.5q-45 -9 -133 -15t-156.5 -12.5t-119.5 -33.5q-197 -103 -286 -412l7 -4q22 58 143.5 153.5t255.5 95.5 q234 0 327 -134.5t93 -284.5q0 -264 -163.5 -464.5t-428.5 -200.5q-234 0 -324 133.5t-90 335.5zM254 387q0 -125 58.5 -199.5t188.5 -74.5q156 0 274.5 141.5t118.5 408.5q0 125 -58.5 199.5t-188.5 74.5q-156 0 -274.5 -141.5t-118.5 -408.5z" />
<glyph unicode="&#x432;" horiz-adv-x="1060" d="M72 404q0 212 130 437.5t454 225.5q113 0 201 -53.5t88 -165.5q0 -86 -44.5 -154t-192.5 -124v-2q104 -13 158 -85.5t54 -177.5q0 -151 -123 -236.5t-351 -85.5q-162 0 -268 96.5t-106 324.5zM258 357q0 -109 42 -176.5t172 -67.5q106 0 184 43.5t78 165.5 q0 74 -53 116.5t-133 42.5q-62 0 -140 -18.5t-144 -32.5q-6 -38 -6 -73zM276 569q295 61 394 109t99 158q0 48 -45 74.5t-101 26.5q-103 0 -202 -83.5t-145 -284.5z" />
<glyph unicode="&#x433;" horiz-adv-x="904" d="M20 226q0 70 22 113t69 97t137 93q65 28 142 57t140 62q60 31 81 54.5t29.5 51.5t8.5 52q0 30 -10.5 54t-42.5 50.5t-97 26.5q-71 0 -135 -23.5t-106 -55.5q-33 -25 -52 -4l-40 46q-20 23 18 56q54 46 144 78.5t191 32.5q119 0 180 -39.5t93.5 -93t32.5 -113.5 q0 -85 -20.5 -133t-69.5 -92t-132 -82q-65 -30 -126.5 -51t-142.5 -62q-62 -31 -85 -56t-33 -51.5t-10 -61.5t14 -61.5t44 -42t108 -15.5q60 0 144 30.5t156 89.5q30 25 52 3l46 -46q27 -27 -2 -53q-96 -89 -196 -121.5t-222 -32.5q-140 0 -204 37.5t-95 86.5t-31 119z" />
<glyph unicode="&#x434;" horiz-adv-x="1155" d="M68 402q0 252 168.5 458.5t433.5 206.5q94 0 166.5 -37.5t102.5 -82.5h4q2 34 2 81q0 145 -62.5 240t-191.5 95q-65 0 -131 -23.5t-98 -51.5q-34 -30 -56 2l-30 43q-25 35 6 60q48 39 136 69.5t192 30.5q188 0 299.5 -125.5t111.5 -379.5q0 -535 -180.5 -770t-452.5 -235 q-226 0 -323 116.5t-97 302.5zM254 387q0 -144 61 -209t186 -65q136 0 272.5 141.5t136.5 408.5q0 107 -61.5 190.5t-191.5 83.5q-156 0 -279.5 -146t-123.5 -404z" />
<glyph unicode="&#x435;" horiz-adv-x="1078" d="M68 396q0 300 156.5 485.5t427.5 185.5q155 0 250.5 -88.5t95.5 -200.5q0 -148 -141.5 -218t-350.5 -112l-246 -49q-6 -38 -6 -40q0 -99 54 -172t189 -73q115 0 185 42t95 76q35 47 63 21l59 -51q19 -17 -6 -56q-23 -36 -124 -99.5t-296 -63.5q-213 0 -309 123.5 t-96 289.5zM265 538l205 40q140 27 246 74.5t106 133.5q0 68 -61.5 109.5t-141.5 41.5q-121 0 -215.5 -92t-138.5 -307z" />
<glyph unicode="&#x436;" horiz-adv-x="1458" d="M-41 59l271 325q71 85 116.5 116.5t99.5 51.5l1 2q-41 12 -69.5 54t-53.5 98l-127 285q-26 59 39 59h75q37 0 47 -26l104 -264q14 -36 68.5 -91t107.5 -55h25l90 391q10 45 55 45h86q45 0 35 -45l-90 -391h25q53 0 114.5 53.5t95.5 92.5l226 264q22 26 59 26h107 q67 0 13 -59l-259 -285q-41 -45 -104.5 -94.5t-88.5 -57.5l-1 -2q46 -20 77.5 -52.5t62.5 -115.5l121 -325q22 -59 -40 -59h-79q-35 0 -48 37l-110 321q-27 80 -70.5 102t-105.5 22h-26l-101 -437q-10 -45 -55 -45h-86q-45 0 -35 45l101 437h-26q-62 0 -97 -22t-99 -102 l-258 -321q-30 -37 -66 -37h-115q-61 0 -12 59z" />
<glyph unicode="&#x437;" horiz-adv-x="982" d="M27 119q-26 33 2 55l60 49q27 22 53 -10q15 -18 79.5 -59t164.5 -41q132 0 206 68.5t74 151.5q0 89 -58 119.5t-161 30.5h-114q-45 0 -37 35l13 60q8 35 54 35h101q122 0 194 53t72 134q0 63 -57 100t-165 37q-70 0 -131 -23.5t-89 -49.5q-36 -34 -55 -16l-50 48 q-32 31 7 66q48 44 126 74.5t228 30.5q196 0 279 -74.5t83 -173.5q0 -123 -82.5 -189t-135.5 -79v-3q74 -16 119 -71.5t45 -152.5q0 -132 -126 -236.5t-339 -104.5q-168 0 -255 56.5t-105 79.5z" />
<glyph unicode="&#x438;" horiz-adv-x="1120" d="M104 366l148 639q10 45 55 45h86q45 0 35 -45l-136 -591q-45 -197 3 -249t153 -52q147 0 230 116.5t118 266.5l118 509q10 45 55 45h86q45 0 35 -45l-222 -960q-10 -45 -55 -45h-84q-45 0 -35 45l28 120h-4q-59 -73 -154.5 -127.5t-210.5 -54.5q-160 0 -225 102.5 t-24 280.5z" />
<glyph unicode="&#x439;" horiz-adv-x="1120" d="M104 366l148 639q10 45 55 45h86q45 0 35 -45l-136 -591q-45 -197 3 -249t153 -52q147 0 230 116.5t118 266.5l118 509q10 45 55 45h86q45 0 35 -45l-222 -960q-10 -45 -55 -45h-84q-45 0 -35 45l28 120h-4q-59 -73 -154.5 -127.5t-210.5 -54.5q-160 0 -225 102.5 t-24 280.5zM404 1360l5 45q5 45 56 45h76q35 0 34 -45l-1 -34q-2 -66 42 -83.5t99 -17.5q95 0 173.5 58t135.5 116q27 28 53 12l40 -24q26 -15 -9 -56q-90 -104 -183 -167t-248 -63q-143 0 -213 63t-60 151z" />
<glyph unicode="&#x43a;" horiz-adv-x="989" d="M32 45l222 960q10 45 55 45h86q45 0 35 -45l-90 -391h41q53 0 119 53t101 93l230 264q23 26 59 26h107q68 0 13 -59l-270 -291q-27 -29 -95.5 -81.5t-103.5 -64.5l-1 -2q53 -19 86.5 -50.5t66.5 -117.5l125 -325q23 -59 -40 -59h-80q-35 0 -48 37l-113 321 q-26 75 -75 99.5t-111 24.5h-42l-101 -437q-10 -45 -55 -45h-86q-45 0 -35 45z" />
<glyph unicode="&#x43b;" horiz-adv-x="1136" d="M-70 22l29 83q7 20 29 14t42 -6q108 0 189 153.5t135 393.5l21 94q30 134 129.5 215t344.5 81h222q45 0 35 -45l-222 -960q-10 -45 -55 -45h-86q-45 0 -35 45l202 873h-36q-174 0 -252.5 -50t-107.5 -177l-19 -84q-68 -301 -173.5 -462.5t-299.5 -161.5q-63 0 -82 9 q-18 8 -10 30z" />
<glyph unicode="&#x43c;" horiz-adv-x="1422" d="M32 45l222 960q10 45 55 45h180q31 0 36 -39l77 -660q2 -21 9 -77t7 -106h4q24 50 56 106l44 77l381 660q23 39 54 39h200q45 0 35 -45l-222 -960q-10 -45 -55 -45h-86q-45 0 -35 45l175 755q7 29 16 60h-2l-485 -799q-37 -61 -68 -61h-78q-31 0 -40 61l-115 799h-2 q-5 -29 -12 -60l-175 -755q-10 -45 -55 -45h-86q-45 0 -35 45z" />
<glyph unicode="&#x43d;" horiz-adv-x="1120" d="M32 45l222 960q10 45 55 45h86q45 0 35 -45l-90 -391h484l90 391q10 45 55 45h86q45 0 35 -45l-222 -960q-10 -45 -55 -45h-86q-45 0 -35 45l101 437h-484l-101 -437q-10 -45 -55 -45h-86q-45 0 -35 45z" />
<glyph unicode="&#x43e;" horiz-adv-x="1148" d="M68 402q0 264 163.5 464.5t428.5 200.5q234 0 327 -134.5t93 -284.5q0 -264 -163.5 -464.5t-428.5 -200.5q-234 0 -327 134.5t-93 284.5zM254 387q0 -125 58.5 -199.5t188.5 -74.5q156 0 274.5 141.5t118.5 408.5q0 125 -58.5 199.5t-188.5 74.5q-156 0 -274.5 -141.5 t-118.5 -408.5z" />
<glyph unicode="&#x43f;" horiz-adv-x="1128" d="M32 45l222 960q10 45 55 45h84q45 0 35 -45l-27 -120h4q59 73 153.5 127.5t214.5 54.5q170 0 232 -102.5t21 -280.5l-148 -639q-10 -45 -55 -45h-86q-45 0 -35 45l137 591q45 196 -3 248.5t-158 52.5q-120 0 -218.5 -116.5t-133.5 -266.5l-118 -509q-10 -45 -55 -45h-86 q-45 0 -35 45z" />
<glyph unicode="&#x440;" horiz-adv-x="1119" d="M-60 -355l314 1360q10 45 55 45h84q37 0 29 -45l-22 -120h2q44 79 137 130.5t173 51.5q190 0 264.5 -116.5t74.5 -279.5q0 -255 -161 -471.5t-379 -216.5q-111 0 -173 33.5t-113 101.5h-2q-4 -28 -12 -61l-95 -412q-10 -45 -55 -45h-86q-45 0 -35 45zM265 290 q10 -100 65 -138.5t167 -38.5q152 0 260 169.5t108 395.5q0 104 -45 181.5t-158 77.5q-98 0 -199.5 -117.5t-132.5 -249.5z" />
<glyph unicode="&#x441;" horiz-adv-x="1026" d="M68 402q0 265 163.5 465t428.5 200q162 0 231 -56.5t100 -124.5q16 -36 -14 -52l-66 -35q-34 -18 -53 25q-14 32 -64 72.5t-147 40.5q-156 0 -274.5 -140t-118.5 -410q0 -122 58.5 -198t188.5 -76q103 0 169 53.5t94 95.5q23 35 53 14l63 -46q29 -21 5 -55 q-29 -40 -127 -116t-270 -76q-234 0 -327 133.5t-93 285.5z" />
<glyph unicode="&#x442;" horiz-adv-x="1678" d="M32 45l222 960q10 45 55 45h84q45 0 35 -45l-27 -120h4q59 72 148.5 127t179.5 55q110 0 172.5 -69.5t62.5 -164.5h4q63 82 159.5 158t211.5 76q140 0 207 -102.5t26 -280.5l-148 -639q-10 -45 -55 -45h-86q-45 0 -35 45l135 581q45 195 13 253t-142 58 q-90 0 -189.5 -120.5t-132.5 -262.5l-118 -509q-10 -45 -55 -45h-86q-45 0 -35 45l135 581q45 195 13 253t-142 58q-90 0 -188.5 -116.5t-133.5 -266.5l-118 -509q-10 -45 -55 -45h-86q-45 0 -35 45z" />
<glyph unicode="&#x443;" horiz-adv-x="1128" d="M0 -306q-29 40 2 68l56 52q32 29 50 0q30 -48 87 -74.5t170 -26.5q121 0 206.5 68.5t122.5 228.5q23 102 37 155h-4q-59 -73 -150 -127.5t-218 -54.5q-170 0 -232 102.5t-21 280.5l148 639q10 45 55 45h86q45 0 35 -45l-136 -591q-45 -197 2.5 -249t157.5 -52 q106 0 211.5 113.5t141.5 269.5l117 509q10 45 55 45h86q45 0 35 -45l-234 -1014q-47 -205 -158 -306.5t-374 -101.5q-171 0 -236 33t-98 78z" />
<glyph unicode="&#x444;" horiz-adv-x="1638" d="M70 415q0 229 163 440.5t364 211.5q93 0 144 -35.5t83 -106.5h2q5 29 12 60l95 410q10 45 55 45h86q45 0 35 -45l-99 -430q-5 -24 -16 -60h2q48 79 120 120.5t153 41.5q149 0 225 -114.5t76 -317.5q0 -229 -163 -440.5t-364 -211.5q-93 0 -144 35.5t-83 106.5h-2 q-5 -32 -12 -60l-97 -420q-10 -45 -55 -45h-86q-45 0 -35 45l101 440q5 23 16 60h-2q-48 -79 -120 -120.5t-153 -41.5q-149 0 -225 114.5t-76 317.5zM256 405q0 -180 52 -236t108 -56q91 0 179.5 102t119.5 237l70 303q0 81 -43.5 131.5t-109.5 50.5q-176 0 -276 -174.5 t-100 -357.5zM855 295q0 -81 43.5 -131.5t109.5 -50.5q176 0 276 174.5t100 357.5q0 180 -52 236t-108 56q-91 0 -179.5 -102t-119.5 -237z" />
<glyph unicode="&#x445;" horiz-adv-x="968" d="M-56 59l452 506l-193 426q-27 59 39 59h74q36 0 47 -26l148 -348l287 348q21 26 59 26h109q66 0 13 -59l-400 -449l221 -483q27 -59 -40 -59h-78q-36 0 -47 26l-170 405l-338 -405q-22 -26 -59 -26h-112q-65 0 -12 59z" />
<glyph unicode="&#x446;" horiz-adv-x="1132" d="M104 366l148 639q10 45 55 45h86q45 0 35 -45l-136 -591q-45 -197 3 -249t153 -52q147 0 230 116.5t118 266.5l118 509q10 45 55 45h86q45 0 35 -45l-173 -749q-13 -56 -13 -90t44 -34h61q45 0 35 -45l-90 -392q-10 -45 -51 -45h-74q-39 0 -29 45l70 305h-22 q-69 0 -97.5 39t-28.5 126h-4q-59 -73 -154.5 -127.5t-210.5 -54.5q-160 0 -225 102.5t-24 280.5z" />
<glyph unicode="&#x447;" horiz-adv-x="1060" d="M147 706l69 299q10 45 55 45h86q45 0 35 -45l-63 -271q-28 -124 10.5 -157.5t119.5 -33.5q105 0 182 12t121 50l92 400q10 45 55 45h86q45 0 35 -45l-222 -960q-10 -45 -55 -45h-86q-45 0 -35 45l84 364q6 27 16 60h-4q-29 -25 -127.5 -40.5t-196.5 -15.5q-136 0 -213 76 t-44 217z" />
<glyph unicode="&#x448;" horiz-adv-x="1678" d="M104 366l148 639q10 45 55 45h86q45 0 35 -45l-135 -581q-45 -195 -13 -253t142 -58q90 0 189.5 120.5t132.5 262.5l118 509q10 45 55 45h86q45 0 35 -45l-135 -581q-45 -195 -13 -253t142 -58q90 0 188.5 116.5t133.5 266.5l118 509q10 45 55 45h86q45 0 35 -45 l-222 -960q-10 -45 -55 -45h-84q-45 0 -35 45l27 120h-4q-59 -72 -148.5 -127t-179.5 -55q-110 0 -172.5 69.5t-62.5 164.5h-4q-63 -82 -159.5 -158t-211.5 -76q-140 0 -207 102.5t-26 280.5z" />
<glyph unicode="&#x449;" horiz-adv-x="1690" d="M104 366l148 639q10 45 55 45h86q45 0 35 -45l-135 -581q-45 -195 -13 -253t142 -58q90 0 189.5 120.5t132.5 262.5l118 509q10 45 55 45h86q45 0 35 -45l-135 -581q-45 -195 -13 -253t142 -58q90 0 188.5 116.5t133.5 266.5l118 509q10 45 55 45h86q45 0 35 -45 l-173 -749q-13 -56 -13 -90t44 -34h61q45 0 35 -45l-90 -392q-10 -45 -51 -45h-74q-39 0 -29 45l70 305h-22q-69 0 -97.5 39t-28.5 126h-5q-59 -72 -148.5 -127t-179.5 -55q-110 0 -172.5 69.5t-62.5 164.5h-4q-63 -82 -159.5 -158t-211.5 -76q-140 0 -207 102.5t-26 280.5z " />
<glyph unicode="&#x44a;" horiz-adv-x="1285" d="M150 955l14 60q8 35 53 35h446q45 0 35 -45l-82 -356q-10 -39 -18 -61h2q46 50 105 71t149 21q162 0 239 -93t77 -233q0 -146 -115 -258.5t-375 -112.5q-176 0 -256.5 124.5t-31.5 336.5l110 476h-315q-45 0 -37 35zM552 370q-29 -126 18.5 -191.5t146.5 -65.5 q125 0 196 65.5t71 187.5q0 76 -45 130t-139 54q-102 0 -166.5 -54t-81.5 -126z" />
<glyph unicode="&#x44b;" horiz-adv-x="1432" d="M124 444l130 561q10 45 55 45h86q45 0 35 -45l-82 -356q-10 -39 -18 -61h2q46 50 105 71t149 21q162 0 239 -93t77 -233q0 -146 -115 -258.5t-375 -112.5q-176 0 -256.5 124.5t-31.5 336.5zM284 370q-29 -126 18.5 -191.5t146.5 -65.5q125 0 196 65.5t71 187.5 q0 76 -45 130t-139 54q-102 0 -166.5 -54t-81.5 -126zM1004 45l222 960q10 45 55 45h86q45 0 35 -45l-222 -960q-10 -45 -55 -45h-86q-45 0 -35 45z" />
<glyph unicode="&#x44c;" horiz-adv-x="1017" d="M124 444l130 561q10 45 55 45h86q45 0 35 -45l-82 -356q-10 -39 -18 -61h2q46 50 105 71t149 21q162 0 239 -93t77 -233q0 -146 -115 -258.5t-375 -112.5q-176 0 -256.5 124.5t-31.5 336.5zM284 370q-29 -126 18.5 -191.5t146.5 -65.5q125 0 196 65.5t71 187.5 q0 76 -45 130t-139 54q-102 0 -166.5 -54t-81.5 -126z" />
<glyph unicode="&#x44d;" horiz-adv-x="1026" d="M16 154q-18 36 7 54l56 41q30 22 61 -24q26 -39 82 -75.5t147 -36.5q146 0 248.5 97t138.5 272h-458q-45 0 -37 35l14 60q8 35 53 35h444q13 145 -45.5 235t-202.5 90q-86 0 -154 -28.5t-100 -62.5q-34 -36 -54 -17l-52 47q-32 28 4 65q50 53 146 89.5t223 36.5 q225 0 323 -125t98 -297q0 -256 -160 -459t-442 -203q-150 0 -232 58.5t-108 112.5z" />
<glyph unicode="&#x44e;" horiz-adv-x="1559" d="M32 45l222 960q10 45 55 45h86q45 0 35 -45l-90 -391h168q33 144 176.5 298.5t386.5 154.5q234 0 327 -134.5t93 -284.5q0 -264 -163.5 -464.5t-428.5 -200.5q-234 0 -327 134.5t-93 284.5q0 41 4 80h-174l-101 -437q-10 -45 -55 -45h-86q-45 0 -35 45zM665 387 q0 -125 58.5 -199.5t188.5 -74.5q156 0 274.5 141.5t118.5 408.5q0 125 -58.5 199.5t-188.5 74.5q-156 0 -274.5 -141.5t-118.5 -408.5z" />
<glyph unicode="&#x44f;" horiz-adv-x="1084" d="M-11 59l247 255q31 32 95.5 83t104.5 63l1 2q-139 26 -188.5 94t-49.5 157q0 161 109.5 249t343.5 88h367q45 0 35 -45l-222 -960q-10 -45 -55 -45h-86q-45 0 -35 45l90 387h-84q-56 0 -109.5 -34t-124.5 -110l-233 -251q-34 -37 -66 -37h-128q-69 0 -12 59zM385 728 q0 -98 60.5 -132t179.5 -34h151l82 357h-190q-142 0 -212.5 -45.5t-70.5 -145.5z" />
<glyph unicode="&#x451;" horiz-adv-x="1078" d="M68 396q0 300 156.5 485.5t427.5 185.5q155 0 250.5 -88.5t95.5 -200.5q0 -148 -141.5 -218t-350.5 -112l-246 -49q-6 -38 -6 -40q0 -99 54 -172t189 -73q115 0 185 42t95 76q35 47 63 21l59 -51q19 -17 -6 -56q-23 -36 -124 -99.5t-296 -63.5q-213 0 -309 123.5 t-96 289.5zM265 538l205 40q140 27 246 74.5t106 133.5q0 68 -61.5 109.5t-141.5 41.5q-121 0 -215.5 -92t-138.5 -307zM415 1285l20 86q10 45 55 45h86q45 0 35 -45l-20 -86q-11 -45 -56 -45h-86q-45 0 -34 45zM821 1285l20 86q10 45 55 45h86q45 0 35 -45l-20 -86 q-11 -45 -56 -45h-86q-45 0 -34 45z" />
<glyph unicode="&#x452;" horiz-adv-x="1156" d="M122 45l202 873h-137q-45 0 -37 35l14 62q8 35 53 35h137l88 381q10 45 56 45h86q44 0 34 -45l-88 -381h433q45 0 37 -35l-14 -62q-8 -35 -53 -35h-433l-69 -300q-7 -29 -16 -60h4q29 46 118.5 98t181.5 52q166 0 229.5 -89t63.5 -257q0 -236 -174 -455t-347 -308 q-33 -17 -47 7l-32 56q-13 22 20 45q103 72 248.5 262t145.5 405q0 94 -27 149t-118 55q-112 0 -208 -95.5t-123 -213.5l-52 -224q-10 -45 -55 -45h-86q-45 0 -35 45z" />
<glyph unicode="&#x453;" horiz-adv-x="868" d="M32 45l222 960q10 45 55 45h604q45 0 37 -35l-14 -62q-8 -35 -53 -35h-473l-202 -873q-10 -45 -55 -45h-86q-45 0 -35 45zM496 1203l166 195q32 37 87 37h121q59 0 6 -52l-206 -204q-30 -29 -85 -29h-84q-50 0 -5 53z" />
<glyph unicode="&#x454;" horiz-adv-x="1026" d="M68 402q0 274 163.5 469.5t428.5 195.5q162 0 228.5 -47.5t103.5 -112.5q19 -35 -9 -53l-63 -41q-32 -21 -55 20q-18 31 -69.5 67.5t-148.5 36.5q-159 0 -249 -107t-119 -218h461q45 0 37 -35l-14 -60q-8 -35 -53 -35h-452q-4 -45 -4 -95q0 -122 54 -198t193 -76 q107 0 170 46t94 85q26 33 54 9l59 -51q27 -23 0 -55q-32 -37 -125 -100.5t-265 -63.5q-234 0 -327 127.5t-93 291.5z" />
<glyph unicode="&#x455;" horiz-adv-x="937" d="M20 157l50 59q21 24 65 -9q57 -43 122.5 -68.5t137.5 -25.5q54 0 107.5 14.5t88.5 57.5t35 86t-12.5 73t-43.5 51t-62 33q-42 16 -96.5 38t-101.5 44q-46 22 -82 63t-53 89.5t-17 103.5q0 82 50 160.5t144.5 109.5t205.5 31q96 0 173 -27.5t131 -72.5q30 -25 4 -54 l-50 -56q-19 -21 -64 11q-40 28 -92 46t-107 18q-48 0 -101.5 -14t-85.5 -50t-32 -86q0 -36 10 -66t35.5 -50.5t54.5 -33.5q52 -24 100.5 -41t88.5 -35q70 -30 114 -70t59.5 -89t15.5 -106q0 -111 -69.5 -184t-158.5 -98.5t-204 -25.5q-143 0 -228.5 39.5t-123.5 79.5 q-29 31 -8 55z" />
<glyph unicode="&#x456;" horiz-adv-x="460" d="M32 45l222 960q10 45 55 45h86q45 0 35 -45l-222 -960q-10 -45 -55 -45h-86q-45 0 -35 45zM319 1285l20 86q10 45 55 45h86q45 0 35 -45l-20 -86q-11 -45 -56 -45h-86q-45 0 -34 45z" />
<glyph unicode="&#x457;" horiz-adv-x="460" d="M32 45l222 960q10 45 55 45h86q45 0 35 -45l-222 -960q-10 -45 -55 -45h-86q-45 0 -35 45zM152 1285l20 86q10 45 55 45h86q45 0 35 -45l-20 -86q-11 -45 -56 -45h-86q-45 0 -34 45zM486 1285l20 86q10 45 55 45h86q45 0 35 -45l-20 -86q-11 -45 -56 -45h-86 q-45 0 -34 45z" />
<glyph unicode="&#x458;" horiz-adv-x="466" d="M-300 -365l25 81q8 26 29 15q35 -18 91 -18q59 0 101 57t83 236l231 999q10 45 55 45h86q45 0 35 -45l-253 -1098q-45 -194 -136 -259t-200 -65q-99 0 -137 20q-17 9 -10 32zM325 1285l20 86q10 45 55 45h86q45 0 35 -45l-20 -86q-11 -45 -56 -45h-86q-45 0 -34 45z" />
<glyph unicode="&#x459;" horiz-adv-x="1693" d="M-70 22l29 83q7 20 29 14t42 -6q108 0 189 153.5t135 393.5l21 94q30 134 129.5 215t344.5 81h222q45 0 35 -45l-82 -356q-10 -39 -18 -61h2q46 50 105 71t149 21q162 0 239 -93t77 -233q0 -146 -115 -258.5t-375 -112.5q-176 0 -256.5 124.5t-31.5 336.5l110 474h-36 q-174 0 -252.5 -50t-107.5 -177l-19 -84q-68 -301 -173.5 -462.5t-299.5 -161.5q-63 0 -82 9q-18 8 -10 30zM960 370q-29 -126 18.5 -191.5t146.5 -65.5q125 0 196 65.5t71 187.5q0 76 -45 130t-139 54q-102 0 -166.5 -54t-81.5 -126z" />
<glyph unicode="&#x45a;" horiz-adv-x="1677" d="M32 45l222 960q10 45 55 45h86q45 0 35 -45l-90 -391h484l90 391q10 45 55 45h86q45 0 35 -45l-82 -356q-10 -39 -18 -61h2q46 50 105 71t149 21q162 0 239 -93t77 -233q0 -146 -115 -258.5t-375 -112.5q-176 0 -256.5 124.5t-31.5 336.5l9 38h-484l-101 -437 q-10 -45 -55 -45h-86q-45 0 -35 45zM944 370q-29 -126 18.5 -191.5t146.5 -65.5q125 0 196 65.5t71 187.5q0 76 -45 130t-139 54q-102 0 -166.5 -54t-81.5 -126z" />
<glyph unicode="&#x45b;" horiz-adv-x="1180" d="M122 45l202 873h-137q-45 0 -37 35l14 62q8 35 53 35h137l88 381q10 45 56 45h86q44 0 34 -45l-88 -381h433q45 0 37 -35l-14 -62q-8 -35 -53 -35h-433l-70 -300q-7 -30 -16 -60h4q28 42 123 96t210 54q155 0 225 -92.5t30 -267.5l-70 -303q-10 -45 -55 -45h-86 q-45 0 -35 45l64 275q36 156 1.5 207t-129.5 51q-129 0 -224 -95t-123 -217l-51 -221q-10 -45 -55 -45h-86q-45 0 -35 45z" />
<glyph unicode="&#x45c;" horiz-adv-x="989" d="M32 45l222 960q10 45 55 45h86q45 0 35 -45l-90 -391h41q53 0 119 53t101 93l230 264q23 26 59 26h107q68 0 13 -59l-270 -291q-27 -29 -95.5 -81.5t-103.5 -64.5l-1 -2q53 -19 86.5 -50.5t66.5 -117.5l125 -325q23 -59 -40 -59h-80q-35 0 -48 37l-113 321 q-26 75 -75 99.5t-111 24.5h-42l-101 -437q-10 -45 -55 -45h-86q-45 0 -35 45zM547 1203l166 195q32 37 87 37h121q59 0 6 -52l-206 -204q-30 -29 -85 -29h-84q-50 0 -5 53z" />
<glyph unicode="&#x45e;" horiz-adv-x="1128" d="M0 -306q-29 40 2 68l56 52q32 29 50 0q30 -48 87 -74.5t170 -26.5q121 0 206.5 68.5t122.5 228.5q23 102 37 155h-4q-59 -73 -150 -127.5t-218 -54.5q-170 0 -232 102.5t-21 280.5l148 639q10 45 55 45h86q45 0 35 -45l-136 -591q-45 -197 2.5 -249t157.5 -52 q106 0 211.5 113.5t141.5 269.5l117 509q10 45 55 45h86q45 0 35 -45l-234 -1014q-47 -205 -158 -306.5t-374 -101.5q-171 0 -236 33t-98 78zM414 1360l5 45q5 45 56 45h76q35 0 34 -45l-1 -34q-2 -66 42 -83.5t99 -17.5q95 0 173.5 58t135.5 116q27 28 53 12l40 -24 q26 -15 -9 -56q-90 -104 -183 -167t-248 -63q-143 0 -213 63t-60 151z" />
<glyph unicode="&#x45f;" horiz-adv-x="1108" d="M104 366l148 639q10 45 55 45h86q45 0 35 -45l-136 -591q-45 -197 3 -249t153 -52q147 0 230 116.5t118 266.5l118 509q10 45 55 45h86q45 0 35 -45l-222 -960q-10 -45 -55 -45h-84q-45 0 -35 45l28 120h-4q-59 -73 -154.5 -127.5t-210.5 -54.5q-160 0 -225 102.5 t-24 280.5zM317 -305l36 157q11 45 51 45h74q40 0 29 -45l-36 -157q-11 -45 -51 -45h-74q-40 0 -29 45z" />
<glyph unicode="&#x462;" horiz-adv-x="1632" d="M171 1105l17 74q11 45 66 45h403l40 175q13 55 63 55h92q50 0 37 -55l-40 -175h403q55 0 44 -45l-17 -74q-10 -45 -65 -45h-403l-54 -232h268q292 0 399 -106.5t107 -267.5q0 -184 -160 -319t-497 -135h-450q-50 0 -37 55l232 1005h-403q-55 0 -45 45zM604 164h276 q215 0 330.5 74t115.5 206q0 141 -93 180.5t-278 39.5h-236z" />
<glyph unicode="&#x463;" horiz-adv-x="1628" d="M32 45l222 960q10 45 55 45h84q45 0 35 -45l-32 -140h4q52 73 147.5 137.5t185.5 64.5q155 0 217.5 -90.5t31.5 -227.5l-23 -100q-10 -39 -18 -61h2q46 50 105 71t149 21q162 0 239 -93t77 -233q0 -146 -115 -258.5t-375 -112.5q-176 0 -256.5 124.5t-31.5 336.5l49 212 q40 174 5 227.5t-108 53.5q-91 0 -211 -138t-158 -303l-104 -451q-10 -45 -55 -45h-86q-45 0 -35 45zM895 370q-29 -126 18.5 -191.5t146.5 -65.5q125 0 196 65.5t71 187.5q0 76 -45 130t-139 54q-102 0 -166.5 -54t-81.5 -126z" />
<glyph unicode="&#x46a;" horiz-adv-x="1928" d="M-45 66l382 440q119 137 241 211.5t307 89.5l1 1l-369 560q-43 66 40 66h1236q84 0 10 -66l-627 -560l-1 -1q179 -15 267 -89.5t143 -211.5l178 -440q27 -66 -33 -66h-97q-47 0 -61 39l-128 369q-39 112 -127.5 178.5t-180.5 66.5h-45l-138 -598q-13 -55 -63 -55h-92 q-50 0 -37 55l138 598h-45q-92 0 -182.5 -67.5t-179.5 -177.5l-298 -369q-31 -39 -79 -39h-157q-60 0 -3 66zM784 1270l242 -389h2l422 389l1 4q-42 -4 -82 -4h-504q-40 0 -80 4z" />
<glyph unicode="&#x46b;" horiz-adv-x="1458" d="M-41 59l271 325q95 114 179 166t211 57l1 2l-250 382q-39 59 39 59h882q79 0 13 -59l-426 -382l-1 -2q125 -5 192 -75.5t96 -147.5l121 -325q22 -59 -40 -59h-77q-35 0 -48 37l-110 321q-27 79 -71.5 101.5t-106.5 22.5h-26l-101 -437q-10 -45 -55 -45h-86q-45 0 -35 45 l101 437h-26q-62 0 -96 -22.5t-98 -101.5l-258 -321q-30 -37 -66 -37h-117q-61 0 -12 59zM602 918l143 -237h2l253 237v2q-30 -2 -60 -2h-278q-30 0 -60 2v-2z" />
<glyph unicode="&#x472;" horiz-adv-x="1514" d="M110 580q0 400 214 642t554 242q305 0 461 -162.5t156 -447.5q0 -400 -214 -642t-554 -242q-305 0 -461 162.5t-156 447.5zM315 556q0 -205 106.5 -317.5t316.5 -112.5q220 0 361 156t176 382h-956q-4 -52 -4 -108zM341 828h948q1 25 1 50q0 205 -106.5 317.5 t-316.5 112.5q-220 0 -353.5 -147.5t-172.5 -332.5z" />
<glyph unicode="&#x473;" horiz-adv-x="1148" d="M68 402q0 264 163.5 464.5t428.5 200.5q234 0 327 -134.5t93 -284.5q0 -264 -163.5 -464.5t-428.5 -200.5q-234 0 -327 134.5t-93 284.5zM254 387q0 -125 58.5 -199.5t188.5 -74.5q136 0 243.5 108.5t133.5 260.5h-620q-4 -45 -4 -95zM281 614h612q1 24 1 49 q0 125 -58.5 199.5t-188.5 74.5t-233.5 -98.5t-132.5 -224.5z" />
<glyph unicode="&#x474;" horiz-adv-x="1440" d="M242 1368q-10 66 42 66h90q54 0 61 -49l118 -895q7 -52 14.5 -158t7.5 -159h4q25 59 80.5 161t87.5 156l327 548q99 167 194.5 296.5t304.5 129.5q70 0 117 -17q33 -12 21 -46l-29 -83q-14 -41 -57 -23q-29 12 -68 12q-85 0 -189 -155t-153 -236l-516 -855 q-37 -61 -80 -61h-140q-43 0 -52 61z" />
<glyph unicode="&#x475;" horiz-adv-x="1038" d="M156 1001q-6 49 38 49h99q32 0 36 -39l60 -660q7 -76 8.5 -109t1.5 -78h4q18 45 46 96.5t50 90.5l229 414q90 164 162.5 233t221.5 69q36 0 68 -12q16 -7 10 -30l-22 -81q-6 -21 -29 -14q-24 7 -43 7q-76 0 -150 -122t-80 -133l-359 -621q-35 -61 -68 -61h-132 q-33 0 -40 61z" />
<glyph unicode="&#x490;" horiz-adv-x="1084" d="M63 55l305 1324q13 55 63 55h670l75 326q12 50 52 50h86q40 0 28 -50l-100 -435q-13 -55 -63 -55h-644l-280 -1215q-13 -55 -63 -55h-92q-50 0 -37 55z" />
<glyph unicode="&#x491;" horiz-adv-x="846" d="M32 45l222 960q10 45 55 45h481l63 271q10 45 50 45h74q40 0 30 -45l-83 -358q-10 -45 -55 -45h-459l-202 -873q-10 -45 -55 -45h-86q-45 0 -35 45z" />
<glyph unicode="&#x492;" horiz-adv-x="1194" d="M91 699l17 74q10 45 66 45h149l129 561q13 55 63 55h795q55 0 45 -45l-17 -74q-10 -45 -66 -45h-653l-104 -452h446q55 0 44 -45l-17 -74q-10 -45 -65 -45h-446l-138 -599q-13 -55 -63 -55h-92q-50 0 -37 55l138 599h-149q-55 0 -45 45z" />
<glyph unicode="&#x493;" horiz-adv-x="942" d="M41 525l15 62q8 35 53 35h121l88 383q10 45 55 45h604q45 0 37 -35l-14 -62q-8 -35 -53 -35h-473l-68 -296h296q45 0 37 -35l-15 -62q-8 -35 -53 -35h-296l-103 -445q-10 -45 -55 -45h-86q-45 0 -35 45l103 445h-121q-45 0 -37 35z" />
<glyph unicode="&#x494;" horiz-adv-x="1322" d="M63 55l305 1324q13 55 63 55h795q55 0 45 -45l-17 -74q-10 -45 -66 -45h-653l-104 -451q-10 -45 -20 -80h4q95 53 171 72t172 19q192 0 305.5 -113t113.5 -338q0 -299 -191 -534t-481 -235q-144 0 -206 28q-33 15 -21 46l33 83q17 42 62 25q70 -25 145 -25 q199 0 326.5 198.5t127.5 428.5q0 146 -76 214t-214 68q-58 0 -133 -17t-172 -74l-122 -530q-13 -55 -63 -55h-92q-50 0 -37 55z" />
<glyph unicode="&#x495;" d="M32 45l222 960q10 45 55 45h604q45 0 37 -35l-14 -62q-8 -35 -53 -35h-473l-70 -302q-7 -29 -16 -60h4q52 44 119 64t151 20q176 0 263 -107t87 -287q0 -237 -153 -450t-467 -213q-105 0 -174 32q-30 14 -15 49l26 60q16 37 63 14q54 -25 123 -25q192 0 301.5 169 t109.5 373q0 141 -58.5 198t-154.5 57q-69 0 -136.5 -27t-120.5 -77l-84 -361q-10 -45 -55 -45h-86q-45 0 -35 45z" />
<glyph unicode="&#x496;" horiz-adv-x="2024" d="M-45 66l382 440q114 131 183.5 173.5t127.5 54.5l1 1q-24 10 -76 64t-88 133l-198 436q-30 66 33 66h97q44 0 61 -39l164 -381q39 -91 100 -146t164 -55h30l130 566q13 55 63 55h92q50 0 37 -55l-130 -566h30q99 0 168 56t148 145l340 381q35 39 79 39h137q64 0 3 -66 l-400 -436q-75 -82 -150.5 -134.5t-103.5 -62.5l-1 -1q54 -12 104 -54.5t103 -173.5l139 -342h139q50 0 37 -55l-99 -429q-12 -50 -51 -50h-86q-40 0 -29 50l74 320h-86q-47 0 -61 39l-128 369q-39 112 -122.5 178.5t-175.5 66.5h-45l-138 -598q-13 -55 -63 -55h-92 q-50 0 -37 55l138 598h-45q-86 0 -184.5 -67.5t-187.5 -177.5l-298 -369q-31 -39 -79 -39h-147q-60 0 -3 66z" />
<glyph unicode="&#x497;" horiz-adv-x="1544" d="M-41 59l271 325q71 85 116.5 116.5t99.5 51.5l1 2q-41 12 -69.5 54t-53.5 98l-127 285q-26 59 39 59h75q37 0 47 -26l104 -264q14 -36 68.5 -91t107.5 -55h25l90 391q10 45 55 45h86q45 0 35 -45l-90 -391h25q53 0 114.5 53.5t95.5 92.5l226 264q22 26 59 26h107 q67 0 13 -59l-259 -285q-41 -45 -104.5 -94.5t-88.5 -57.5l-1 -2q46 -20 77.5 -52.5t62.5 -115.5l93 -252h121q45 0 35 -45l-90 -392q-10 -45 -51 -45h-74q-40 0 -29 45l70 305h-73q-35 0 -48 37l-110 321q-27 80 -70.5 102t-105.5 22h-26l-101 -437q-10 -45 -55 -45h-86 q-45 0 -35 45l101 437h-26q-62 0 -97 -22t-99 -102l-258 -321q-30 -37 -66 -37h-115q-61 0 -12 59z" />
<glyph unicode="&#x498;" horiz-adv-x="1272" d="M40 241l77 62q37 29 79 -25q35 -44 128 -98t260 -54q169 0 264 94.5t95 210.5q0 115 -78.5 179.5t-193.5 64.5h-160q-55 0 -45 43l16 70q10 45 65 45h154q162 0 246.5 84.5t84.5 178.5q0 110 -93 161t-205 51q-101 0 -206.5 -40.5t-153.5 -84.5q-47 -43 -73 -8l-58 77 q-29 38 30 81q88 64 197 97.5t269 33.5q242 0 365 -105t123 -249q0 -153 -97.5 -241.5t-226.5 -114.5l-1 -4q103 -21 174.5 -108t71.5 -215q0 -166 -136.5 -306t-392.5 -150q-42 -51 -68.5 -103t-26.5 -92q0 -34 17 -48.5t54 -14.5q29 0 56 7q24 6 26 -21l7 -77 q2 -24 -20 -28q-54 -11 -116 -11q-104 0 -145 44.5t-41 100.5q0 50 22 110t86 137q-137 13 -251 71.5t-170 118.5q-45 47 -9 76z" />
<glyph unicode="&#x499;" horiz-adv-x="982" d="M27 119q-26 33 2 55l60 49q27 22 53 -10q15 -18 79.5 -59t164.5 -41q132 0 206 68.5t74 151.5q0 89 -58 119.5t-161 30.5h-114q-45 0 -37 35l13 60q8 35 54 35h101q122 0 194 53t72 134q0 63 -57 100t-165 37q-70 0 -131 -23.5t-89 -49.5q-36 -34 -55 -16l-50 48 q-32 31 7 66q48 44 126 74.5t228 30.5q196 0 279 -74.5t83 -173.5q0 -123 -82.5 -189t-135.5 -79v-3q74 -16 119 -71.5t45 -152.5q0 -132 -114.5 -227t-277.5 -111q-51 -59 -79.5 -114.5t-28.5 -95.5q0 -34 17 -48.5t54 -14.5q29 0 56 7q24 6 26 -21l7 -77q2 -24 -20 -28 q-54 -11 -116 -11q-104 0 -145 44.5t-41 100.5q0 50 23 112t95 147q-110 8 -186.5 58.5t-94.5 73.5z" />
<glyph unicode="&#x49a;" horiz-adv-x="1364" d="M63 55l305 1324q13 55 63 55h92q50 0 37 -55l-130 -566h42q114 0 185.5 57t150.5 144l348 381q36 39 79 39h137q65 0 3 -66l-408 -436q-71 -76 -150.5 -131.5t-107.5 -65.5l-1 -1q57 -26 119 -91t92 -137l145 -342h139q50 0 37 -55l-99 -429q-12 -50 -51 -50h-86 q-40 0 -29 50l74 320h-84q-47 0 -61 39l-136 369q-40 108 -125.5 176.5t-192.5 68.5h-57l-138 -598q-13 -55 -63 -55h-92q-50 0 -37 55z" />
<glyph unicode="&#x49b;" horiz-adv-x="1074" d="M32 45l222 960q10 45 55 45h86q45 0 35 -45l-90 -391h41q53 0 119 53t101 93l230 264q23 26 59 26h107q68 0 13 -59l-270 -291q-27 -29 -95.5 -81.5t-103.5 -64.5l-1 -2q53 -19 86.5 -50.5t66.5 -117.5l96 -252h121q45 0 35 -45l-90 -392q-10 -45 -51 -45h-74 q-40 0 -29 45l70 305h-73q-35 0 -48 37l-113 321q-26 75 -75 99.5t-111 24.5h-42l-101 -437q-10 -45 -55 -45h-86q-45 0 -35 45z" />
<glyph unicode="&#x4a0;" horiz-adv-x="1620" d="M220 1315l17 74q10 45 65 45h571q50 0 37 -55l-130 -566h42q114 0 185.5 57t150.5 144l348 381q36 39 79 39h137q65 0 3 -66l-408 -436q-71 -76 -150.5 -131.5t-107.5 -65.5l-1 -1q57 -26 119 -91t92 -137l186 -440q28 -66 -33 -66h-107q-47 0 -61 39l-136 369 q-40 108 -125.5 176.5t-192.5 68.5h-57l-138 -598q-13 -55 -63 -55h-92q-50 0 -37 55l280 1215h-429q-55 0 -44 45z" />
<glyph unicode="&#x4a1;" horiz-adv-x="1229" d="M150 955l14 60q8 35 53 35h418q45 0 35 -45l-90 -391h41q53 0 119 53t101 93l230 264q23 26 59 26h107q68 0 13 -59l-270 -291q-27 -29 -95.5 -81.5t-103.5 -64.5l-1 -2q53 -19 86.5 -50.5t66.5 -117.5l125 -325q23 -59 -40 -59h-80q-35 0 -48 37l-113 321 q-26 75 -75 99.5t-111 24.5h-42l-101 -437q-10 -45 -55 -45h-86q-45 0 -35 45l202 875h-287q-45 0 -37 35z" />
<glyph unicode="&#x4a2;" horiz-adv-x="1498" d="M63 55l305 1324q13 55 63 55h92q50 0 37 -55l-127 -551h698l127 551q13 55 63 55h92q50 0 37 -55l-280 -1215h132q50 0 37 -55l-99 -429q-12 -50 -51 -50h-86q-40 0 -29 50l74 320h-158q-50 0 -37 55l140 609h-698l-140 -609q-13 -55 -63 -55h-92q-50 0 -37 55z" />
<glyph unicode="&#x4a3;" horiz-adv-x="1200" d="M32 45l222 960q10 45 55 45h86q45 0 35 -45l-90 -391h484l90 391q10 45 55 45h86q45 0 35 -45l-202 -873h121q45 0 35 -45l-90 -392q-10 -45 -51 -45h-74q-39 0 -29 45l70 305h-143q-45 0 -35 45l101 437h-484l-101 -437q-10 -45 -55 -45h-86q-45 0 -35 45z" />
<glyph unicode="&#x4a4;" horiz-adv-x="1944" d="M63 55l305 1324q13 55 63 55h92q50 0 37 -55l-127 -551h698l127 551q13 55 63 55h743q55 0 45 -45l-17 -74q-10 -45 -66 -45h-601l-280 -1215q-13 -55 -63 -55h-92q-50 0 -37 55l140 609h-698l-140 -609q-13 -55 -63 -55h-92q-50 0 -37 55z" />
<glyph unicode="&#x4a5;" horiz-adv-x="1498" d="M32 45l222 960q10 45 55 45h86q45 0 35 -45l-90 -391h484l90 391q10 45 55 45h574q45 0 37 -35l-14 -62q-8 -35 -53 -35h-443l-202 -873q-10 -45 -55 -45h-86q-45 0 -35 45l101 437h-484l-101 -437q-10 -45 -55 -45h-86q-45 0 -35 45z" />
<glyph unicode="&#x4aa;" horiz-adv-x="1392" d="M110 580q0 395 210.5 639.5t587.5 244.5q184 0 298 -64t161 -170q23 -53 -23 -80l-78 -46q-27 -16 -52 28q-30 54 -109 115t-214 61q-250 0 -413 -183t-163 -568q0 -182 96 -306.5t326 -124.5q136 0 230.5 71.5t146.5 143.5q42 58 78 35l90 -58q33 -21 -8 -80 q-79 -115 -213 -191.5t-351 -76.5q-302 0 -451 172.5t-149 437.5zM419 -359l13 38q11 32 40 17q24 -12 86 -12q48 0 79 19t31 52q0 25 -24.5 40.5t-73.5 15.5h-28q-22 0 -18 25q7 42 18 55l89 109q18 22 45 22h69q32 0 14 -22l-78 -96l-1 -3q67 -13 90 -43t23 -89 q0 -82 -70 -133.5t-168 -51.5q-69 0 -125 21q-21 8 -11 36z" />
<glyph unicode="&#x4ab;" horiz-adv-x="1026" d="M68 402q0 265 163.5 465t428.5 200q162 0 231 -56.5t100 -124.5q16 -36 -14 -52l-66 -35q-34 -18 -53 25q-14 32 -64 72.5t-147 40.5q-156 0 -274.5 -140t-118.5 -410q0 -122 58.5 -198t188.5 -76q103 0 169 53.5t94 95.5q23 35 53 14l63 -46q29 -21 5 -55 q-29 -40 -127 -116t-270 -76q-234 0 -327 133.5t-93 285.5zM205 -359l13 38q11 32 40 17q24 -12 86 -12q48 0 79 19t31 52q0 25 -24.5 40.5t-73.5 15.5h-28q-22 0 -18 25q7 42 18 55l89 109q18 22 45 22h69q32 0 14 -22l-78 -96l-1 -3q67 -13 90 -43t23 -89 q0 -82 -70 -133.5t-168 -51.5q-69 0 -125 21q-21 8 -11 36z" />
<glyph unicode="&#x4ae;" horiz-adv-x="1302" d="M250 1368q-27 66 42 66h93q44 0 61 -49l156 -437q14 -40 37.5 -109.5t37.5 -129.5h4q42 60 82.5 112t102.5 127l358 437q40 49 83 49h125q70 0 12 -66l-681 -778l-123 -535q-13 -55 -63 -55h-92q-50 0 -37 55l123 535z" />
<glyph unicode="&#x4af;" horiz-adv-x="986" d="M156 1001q-6 49 38 49h99q33 0 36 -39l60 -660q6 -68 8 -105t2 -82h4q18 45 34.5 75t61.5 112l364 660q22 39 54 39h119q45 0 16 -49l-598 -1031l-75 -325q-10 -45 -55 -45h-86q-45 0 -35 45l75 325z" />
<glyph unicode="&#x4b0;" horiz-adv-x="1302" d="M168 479l17 74q10 45 65 45h323q-9 11 -16 26l-307 744q-27 66 42 66h93q44 0 61 -49l156 -437q14 -40 37.5 -109.5t37.5 -129.5h4q42 60 82.5 112t102.5 127l358 437q40 49 83 49h125q70 0 12 -66l-651 -744q-13 -15 -28 -26h323q55 0 45 -45l-17 -74q-10 -45 -66 -45 h-323l-87 -379q-13 -55 -63 -55h-92q-50 0 -37 55l87 379h-323q-55 0 -44 45z" />
<glyph unicode="&#x4b1;" horiz-adv-x="986" d="M-7 -97l14 62q8 35 53 35h225q-13 21 -16 41l-113 960q-6 49 38 49h99q33 0 36 -39l60 -660q6 -68 8 -105t2 -82h4q18 45 34.5 75t61.5 112l364 660q22 39 54 39h119q45 0 16 -49l-558 -961q-12 -20 -33 -40h225q45 0 37 -35l-14 -62q-8 -35 -53 -35h-225l-52 -223 q-10 -45 -55 -45h-86q-45 0 -35 45l52 223h-225q-45 0 -37 35z" />
<glyph unicode="&#x4b2;" horiz-adv-x="1393" d="M-45 66l638 686l-299 616q-32 66 33 66h98q43 0 61 -39l235 -522l456 522q34 39 79 39h138q64 0 3 -66l-591 -641l278 -563h148q50 0 37 -55l-99 -429q-12 -50 -51 -50h-86q-41 0 -29 50l74 320h-84q-44 0 -61 39l-254 568l-497 -568q-34 -39 -79 -39h-145q-64 0 -3 66z " />
<glyph unicode="&#x4b3;" horiz-adv-x="1094" d="M-56 59l452 506l-193 426q-27 59 39 59h74q36 0 47 -26l148 -348l287 348q21 26 59 26h109q66 0 13 -59l-400 -449l188 -410h128q45 0 35 -45l-90 -392q-10 -45 -51 -45h-74q-39 0 -29 45l70 305h-74q-36 0 -47 26l-170 405l-338 -405q-22 -26 -59 -26h-112q-65 0 -12 59 z" />
<glyph unicode="&#x4b6;" horiz-adv-x="1362" d="M211 912l107 467q13 55 63 55h92q50 0 37 -55l-96 -419q-32 -141 3.5 -190.5t146.5 -49.5q54 0 192 19t232 58l134 582q13 55 63 55h92q50 0 37 -55l-280 -1215h132q50 0 37 -55l-99 -429q-12 -50 -51 -50h-86q-40 0 -29 50l74 320h-158q-50 0 -37 55l121 528 q10 42 21 80h-4q-104 -41 -202.5 -69t-248.5 -28q-162 0 -243.5 102t-49.5 244z" />
<glyph unicode="&#x4b7;" horiz-adv-x="1140" d="M147 706l69 299q10 45 55 45h86q45 0 35 -45l-63 -271q-28 -124 10.5 -157.5t119.5 -33.5q105 0 182 12t121 50l92 400q10 45 55 45h86q45 0 35 -45l-202 -873h121q45 0 35 -45l-90 -392q-10 -45 -51 -45h-74q-40 0 -29 45l70 305h-143q-45 0 -35 45l84 364l16 60h-4 q-29 -25 -127.5 -40.5t-196.5 -15.5q-136 0 -213 76t-44 217z" />
<glyph unicode="&#x4ba;" horiz-adv-x="1290" d="M63 55l305 1324q13 55 63 55h92q50 0 37 -55l-121 -528q-8 -36 -21 -80h4q104 41 202.5 69t250.5 28q162 0 244.5 -103.5t50.5 -242.5l-107 -467q-13 -55 -63 -55h-92q-50 0 -37 55l96 419q32 138 -4.5 189t-147.5 51q-56 0 -194 -19t-232 -58l-134 -582q-13 -55 -63 -55 h-92q-50 0 -37 55z" />
<glyph unicode="&#x4bb;" horiz-adv-x="1128" d="M32 45l320 1386q10 45 56 45h86q44 0 34 -45l-112 -486q-6 -28 -15 -60h4q59 73 153.5 127.5t214.5 54.5q170 0 232 -102.5t21 -280.5l-148 -639q-10 -45 -55 -45h-86q-45 0 -35 45l137 591q45 196 -3 248.5t-158 52.5q-120 0 -218.5 -116.5t-133.5 -266.5l-118 -509 q-10 -45 -55 -45h-86q-45 0 -35 45z" />
<glyph unicode="&#x4c0;" horiz-adv-x="532" d="M63 55l305 1324q13 55 63 55h92q50 0 37 -55l-305 -1324q-13 -55 -63 -55h-92q-50 0 -37 55z" />
<glyph unicode="&#x4c1;" horiz-adv-x="1928" d="M-45 66l382 440q114 131 183.5 173.5t127.5 54.5l1 1q-24 10 -76 64t-88 133l-198 436q-30 66 33 66h97q44 0 61 -39l164 -381q39 -91 100 -146t164 -55h30l130 566q13 55 63 55h92q50 0 37 -55l-130 -566h30q99 0 168 56t148 145l340 381q35 39 79 39h137q64 0 3 -66 l-400 -436q-75 -82 -150.5 -134.5t-103.5 -62.5l-1 -1q54 -12 104 -54.5t103 -173.5l178 -440q27 -66 -33 -66h-107q-47 0 -61 39l-128 369q-39 112 -122.5 178.5t-175.5 66.5h-45l-138 -598q-13 -55 -63 -55h-92q-50 0 -37 55l138 598h-45q-86 0 -184.5 -67.5 t-187.5 -177.5l-298 -369q-31 -39 -79 -39h-147q-60 0 -3 66zM902 1784q-14 48 21 58l52 15q34 10 50 -28q26 -60 69.5 -95.5t141.5 -35.5q84 0 154.5 45t111.5 96q26 32 57 13l45 -28q31 -20 5 -62q-66 -108 -174.5 -161t-215.5 -53q-111 0 -196.5 57t-120.5 179z" />
<glyph unicode="&#x4c2;" horiz-adv-x="1458" d="M-41 59l271 325q71 85 116.5 116.5t99.5 51.5l1 2q-41 12 -69.5 54t-53.5 98l-127 285q-26 59 39 59h75q37 0 47 -26l104 -264q14 -36 68.5 -91t107.5 -55h25l90 391q10 45 55 45h86q45 0 35 -45l-90 -391h25q53 0 114.5 53.5t95.5 92.5l226 264q22 26 59 26h107 q67 0 13 -59l-259 -285q-41 -45 -104.5 -94.5t-88.5 -57.5l-1 -2q46 -20 77.5 -52.5t62.5 -115.5l121 -325q22 -59 -40 -59h-79q-35 0 -48 37l-110 321q-27 80 -70.5 102t-105.5 22h-26l-101 -437q-10 -45 -55 -45h-86q-45 0 -35 45l101 437h-26q-62 0 -97 -22t-99 -102 l-258 -321q-30 -37 -66 -37h-115q-61 0 -12 59zM616 1370q-15 41 18 53l48 18q31 11 44 -22q27 -67 62 -105t112 -38q90 0 144.5 42.5t93.5 103.5q19 31 46 15l45 -27q31 -18 8 -55q-64 -112 -160.5 -160.5t-195.5 -48.5q-106 0 -164 52t-101 172z" />
<glyph unicode="&#x4c3;" horiz-adv-x="1322" d="M63 55l305 1324q13 55 63 55h92q50 0 37 -55l-130 -566h42q114 0 175.5 46.5t160.5 154.5l348 381q36 39 79 39h137q65 0 3 -66l-408 -436q-45 -48 -109.5 -102.5t-92.5 -64.5l-1 -1q199 -68 295.5 -206t96.5 -306q0 -252 -176 -447t-437 -195q-118 0 -180 19 q-33 10 -21 46l27 81q14 42 62 25q40 -14 126 -14q151 0 272.5 136.5t121.5 345.5q0 180 -124.5 292t-361.5 112h-72l-138 -598q-13 -55 -63 -55h-92q-50 0 -37 55z" />
<glyph unicode="&#x4c4;" horiz-adv-x="1046" d="M32 45l222 960q10 45 55 45h86q45 0 35 -45l-90 -391h41q70 0 128 53.5t92 92.5l230 264q23 26 59 26h107q68 0 13 -59l-270 -291q-27 -30 -81 -76t-91 -60v-2q155 -52 224.5 -164.5t69.5 -265.5q0 -204 -149 -376.5t-397 -172.5q-82 0 -148 17q-28 7 -15 49l19 62 q9 30 63 14q41 -12 99 -12q155 0 248.5 133t93.5 313q0 129 -75.5 226t-249.5 97h-42l-101 -437q-10 -45 -55 -45h-86q-45 0 -35 45z" />
<glyph unicode="&#x4c7;" horiz-adv-x="1422" d="M63 55l305 1324q13 55 63 55h92q50 0 37 -55l-127 -551h698l127 551q13 55 63 55h92q50 0 37 -55l-320 -1388q-52 -227 -159 -317.5t-275 -90.5q-84 0 -166 35q-38 16 -19 62l29 71q17 41 68 17q61 -29 107 -29q71 0 131.5 57.5t102.5 241.5l144 626h-698l-140 -609 q-13 -55 -63 -55h-92q-50 0 -37 55z" />
<glyph unicode="&#x4c8;" horiz-adv-x="1120" d="M32 45l222 960q10 45 55 45h86q45 0 35 -45l-90 -391h484l90 391q10 45 55 45h86q45 0 35 -45l-254 -1098q-45 -194 -136 -259t-200 -65q-99 0 -137 20q-17 9 -10 32l25 81q8 26 29 15q35 -18 91 -18q59 0 101 57t83 236l111 476h-484l-101 -437q-10 -45 -55 -45h-86 q-45 0 -35 45z" />
<glyph unicode="&#x4cb;" horiz-adv-x="1286" d="M211 912l107 467q13 55 63 55h92q50 0 37 -55l-96 -419q-32 -140 4 -190t146 -50q54 0 192 19t232 58l134 582q13 55 63 55h92q50 0 37 -55l-305 -1324q-13 -55 -63 -55h-158l-74 -320q-12 -50 -51 -50h-86q-41 0 -29 50l99 429q13 55 63 55h132l96 419q10 42 21 80h-4 q-104 -41 -202.5 -69t-248.5 -28q-162 0 -244 102.5t-49 243.5z" />
<glyph unicode="&#x4cc;" horiz-adv-x="1060" d="M147 706l69 299q10 45 55 45h86q45 0 35 -45l-63 -271q-28 -124 10.5 -157.5t119.5 -33.5q105 0 182 12t121 50l92 400q10 45 55 45h86q45 0 35 -45l-222 -960q-10 -45 -55 -45h-143l-61 -265q-10 -45 -51 -45h-74q-40 0 -29 45l81 352q10 45 55 45h121l64 277 q6 27 16 60h-4q-29 -25 -127.5 -40.5t-196.5 -15.5q-136 0 -213 76t-44 217z" />
<glyph unicode="&#x4cf;" horiz-adv-x="532" d="M32 45l320 1386q10 45 56 45h86q45 0 34 -45l-320 -1386q-10 -45 -55 -45h-86q-45 0 -35 45z" />
<glyph unicode="&#x4d2;" horiz-adv-x="1360" d="M-59 66l770 1307q36 61 80 61h140q41 0 52 -61l226 -1307q11 -66 -42 -66h-91q-53 0 -61 49l-57 331h-615l-195 -331q-29 -49 -83 -49h-112q-51 0 -12 66zM441 544h488l-70 400q-13 72 -21 157.5t-8 159.5h-4q-18 -71 -56 -145t-95 -172zM568 1595l21 92q11 45 56 45h92 q45 0 34 -45l-21 -92q-10 -45 -55 -45h-92q-45 0 -35 45zM1046 1595l21 92q11 45 56 45h92q45 0 34 -45l-21 -92q-10 -45 -55 -45h-92q-45 0 -35 45z" />
<glyph unicode="&#x4d3;" horiz-adv-x="1099" d="M66 339q0 275 186.5 501.5t391.5 226.5q90 0 148 -37.5t86 -87.5h2l21 63q15 45 49 45h84q45 0 35 -45l-222 -960q-10 -45 -55 -45h-81q-44 0 -35 45l25 120h-2q-49 -65 -130.5 -123.5t-181.5 -58.5q-145 0 -233 87.5t-88 268.5zM252 332q0 -66 35.5 -142.5t145.5 -76.5 q90 0 199 119t139 248l67 290q0 90 -57.5 128.5t-142.5 38.5q-140 0 -263 -179.5t-123 -425.5zM407 1285l20 86q10 45 55 45h86q45 0 35 -45l-20 -86q-11 -45 -56 -45h-86q-45 0 -34 45zM813 1285l20 86q10 45 55 45h86q45 0 35 -45l-20 -86q-11 -45 -56 -45h-86 q-45 0 -34 45z" />
<glyph unicode="&#x4d4;" horiz-adv-x="1957" d="M-59 66l924 1316q37 52 79 52h1049q55 0 45 -45l-17 -74q-10 -45 -66 -45h-693l-102 -444h633q54 0 44 -45l-17 -74q-10 -45 -65 -45h-633l-115 -498h723q54 0 44 -45l-17 -74q-10 -45 -65 -45h-865q-50 0 -37 55l75 325h-474l-232 -331q-34 -49 -78 -49h-127 q-59 0 -13 66zM506 544h397l167 726h-72q-30 -59 -66.5 -115t-68.5 -102z" />
<glyph unicode="&#x4d5;" horiz-adv-x="1722" d="M66 339q0 275 183 501.5t389 226.5q104 0 172 -54.5t97 -141.5h2q66 83 168.5 139.5t238.5 56.5q154 0 240 -92.5t86 -196.5q0 -142 -137.5 -216.5t-341.5 -116.5l-224 -46q-6 -38 -6 -40q0 -109 47.5 -177t180.5 -68q98 0 167.5 45t92.5 73q37 45 63 21l56 -51 q23 -21 -6 -56q-31 -38 -121 -100.5t-276 -62.5q-161 0 -243 77.5t-112 206.5h-2q-90 -149 -190 -216.5t-209 -67.5q-145 0 -230 87.5t-85 268.5zM252 332q0 -66 32.5 -142.5t142.5 -76.5q87 0 188 106.5t137 260.5l67 290q-18 91 -69 129t-118 38q-130 0 -255 -179.5 t-125 -425.5zM944 538l183 37q180 36 259.5 80.5t79.5 130.5q0 68 -44.5 109.5t-138.5 41.5q-107 0 -201 -92t-138 -307z" />
<glyph unicode="&#x4d6;" horiz-adv-x="1270" d="M63 55l305 1324q13 55 63 55h875q55 0 45 -45l-17 -74q-11 -45 -66 -45h-733l-102 -444h673q55 0 44 -45l-17 -74q-10 -45 -65 -45h-673l-115 -498h763q55 0 44 -45l-17 -74q-10 -45 -65 -45h-905q-50 0 -37 55zM614 1784q-14 48 21 58l52 15q34 10 50 -28 q26 -60 69.5 -95.5t141.5 -35.5q84 0 154.5 45t111.5 96q26 32 57 13l45 -28q31 -20 5 -62q-66 -108 -174.5 -161t-215.5 -53q-111 0 -196.5 57t-120.5 179z" />
<glyph unicode="&#x4d7;" horiz-adv-x="1078" d="M68 396q0 300 156.5 485.5t427.5 185.5q155 0 250.5 -88.5t95.5 -200.5q0 -148 -141.5 -218t-350.5 -112l-246 -49q-6 -38 -6 -40q0 -99 54 -172t189 -73q115 0 185 42t95 76q35 47 63 21l59 -51q19 -17 -6 -56q-23 -36 -124 -99.5t-296 -63.5q-213 0 -309 123.5 t-96 289.5zM265 538l205 40q140 27 246 74.5t106 133.5q0 68 -61.5 109.5t-141.5 41.5q-121 0 -215.5 -92t-138.5 -307zM413 1370q-15 41 18 53l48 18q31 11 44 -22q27 -67 62 -105t112 -38q90 0 144.5 42.5t93.5 103.5q19 31 46 15l45 -27q31 -18 8 -55 q-64 -112 -160.5 -160.5t-195.5 -48.5q-106 0 -164 52t-101 172z" />
<glyph unicode="&#x4d8;" horiz-adv-x="1464" d="M87 547q0 98 25 208q15 63 74 65h1054q1 42 1 83q0 135 -87.5 270t-321.5 135q-134 0 -202 -26.5t-173 -90.5q-55 -34 -79 0l-46 64q-24 34 32 72q83 57 210.5 97t290.5 40q242 0 411 -148.5t169 -468.5q0 -350 -200.5 -613.5t-569.5 -263.5q-318 0 -453 187t-135 390z M290 530q0 -133 89 -268.5t316 -135.5q184 0 326 126t206 404h-922q-15 -65 -15 -126z" />
<glyph unicode="&#x4d9;" horiz-adv-x="1086" d="M76 297q0 141 122.5 214t377.5 119l255 46q1 18 1 39q0 91 -48 156t-195 65q-81 0 -160 -36t-121 -75q-44 -40 -65 -16l-48 54q-22 24 11 55q58 54 164 101.5t243 47.5q223 0 314 -123.5t91 -289.5q0 -300 -156.5 -485.5t-427.5 -185.5q-166 0 -262 86.5t-96 227.5z M249 300q0 -88 55.5 -137.5t162.5 -49.5q121 0 219 105t142 320l-216 -39q-124 -22 -243.5 -60.5t-119.5 -138.5z" />
<glyph unicode="&#x4da;" horiz-adv-x="1464" d="M87 547q0 98 25 208q15 63 74 65h1054q1 42 1 83q0 135 -87.5 270t-321.5 135q-134 0 -202 -26.5t-173 -90.5q-55 -34 -79 0l-46 64q-24 34 32 72q83 57 210.5 97t290.5 40q242 0 411 -148.5t169 -468.5q0 -350 -200.5 -613.5t-569.5 -263.5q-318 0 -453 187t-135 390z M290 530q0 -133 89 -268.5t316 -135.5q184 0 326 126t206 404h-922q-15 -65 -15 -126zM565 1595l21 92q11 45 56 45h92q45 0 34 -45l-21 -92q-10 -45 -55 -45h-92q-45 0 -35 45zM1043 1595l21 92q11 45 56 45h92q45 0 34 -45l-21 -92q-10 -45 -55 -45h-92q-45 0 -35 45z" />
<glyph unicode="&#x4db;" horiz-adv-x="1086" d="M76 297q0 141 122.5 214t377.5 119l255 46q1 18 1 39q0 91 -48 156t-195 65q-81 0 -160 -36t-121 -75q-44 -40 -65 -16l-48 54q-22 24 11 55q58 54 164 101.5t243 47.5q223 0 314 -123.5t91 -289.5q0 -300 -156.5 -485.5t-427.5 -185.5q-166 0 -262 86.5t-96 227.5z M249 300q0 -88 55.5 -137.5t162.5 -49.5q121 0 219 105t142 320l-216 -39q-124 -22 -243.5 -60.5t-119.5 -138.5zM372 1285l20 86q10 45 55 45h86q45 0 35 -45l-20 -86q-11 -45 -56 -45h-86q-45 0 -34 45zM778 1285l20 86q10 45 55 45h86q45 0 35 -45l-20 -86 q-11 -45 -56 -45h-86q-45 0 -34 45z" />
<glyph unicode="&#x4dc;" horiz-adv-x="1928" d="M-45 66l382 440q114 131 183.5 173.5t127.5 54.5l1 1q-24 10 -76 64t-88 133l-198 436q-30 66 33 66h97q44 0 61 -39l164 -381q39 -91 100 -146t164 -55h30l130 566q13 55 63 55h92q50 0 37 -55l-130 -566h30q99 0 168 56t148 145l340 381q35 39 79 39h137q64 0 3 -66 l-400 -436q-75 -82 -150.5 -134.5t-103.5 -62.5l-1 -1q54 -12 104 -54.5t103 -173.5l178 -440q27 -66 -33 -66h-107q-47 0 -61 39l-128 369q-39 112 -122.5 178.5t-175.5 66.5h-45l-138 -598q-13 -55 -63 -55h-92q-50 0 -37 55l138 598h-45q-86 0 -184.5 -67.5 t-187.5 -177.5l-298 -369q-31 -39 -79 -39h-147q-60 0 -3 66zM882 1595l21 92q11 45 56 45h92q45 0 34 -45l-21 -92q-10 -45 -55 -45h-92q-45 0 -35 45zM1360 1595l21 92q11 45 56 45h92q45 0 34 -45l-21 -92q-10 -45 -55 -45h-92q-45 0 -35 45z" />
<glyph unicode="&#x4dd;" horiz-adv-x="1458" d="M-41 59l271 325q71 85 116.5 116.5t99.5 51.5l1 2q-41 12 -69.5 54t-53.5 98l-127 285q-26 59 39 59h75q37 0 47 -26l104 -264q14 -36 68.5 -91t107.5 -55h25l90 391q10 45 55 45h86q45 0 35 -45l-90 -391h25q53 0 114.5 53.5t95.5 92.5l226 264q22 26 59 26h107 q67 0 13 -59l-259 -285q-41 -45 -104.5 -94.5t-88.5 -57.5l-1 -2q46 -20 77.5 -52.5t62.5 -115.5l121 -325q22 -59 -40 -59h-79q-35 0 -48 37l-110 321q-27 80 -70.5 102t-105.5 22h-26l-101 -437q-10 -45 -55 -45h-86q-45 0 -35 45l101 437h-26q-62 0 -97 -22t-99 -102 l-258 -321q-30 -37 -66 -37h-115q-61 0 -12 59zM615 1285l20 86q10 45 55 45h86q45 0 35 -45l-20 -86q-11 -45 -56 -45h-86q-45 0 -34 45zM1021 1285l20 86q10 45 55 45h86q45 0 35 -45l-20 -86q-11 -45 -56 -45h-86q-45 0 -34 45z" />
<glyph unicode="&#x4de;" horiz-adv-x="1272" d="M40 241l77 62q37 29 79 -25q35 -44 128 -98t260 -54q169 0 264 94.5t95 210.5q0 115 -78.5 179.5t-193.5 64.5h-160q-55 0 -45 43l16 70q10 45 65 45h154q162 0 246.5 84.5t84.5 178.5q0 110 -93 161t-205 51q-101 0 -206.5 -40.5t-153.5 -84.5q-47 -43 -73 -8l-58 77 q-29 38 30 81q88 64 197 97.5t269 33.5q242 0 365 -105t123 -249q0 -153 -97.5 -241.5t-226.5 -114.5l-1 -4q103 -21 174.5 -108t71.5 -215q0 -166 -142 -311.5t-429 -145.5q-208 0 -340 67.5t-188 127.5q-45 47 -9 76zM466 1595l21 92q11 45 56 45h92q45 0 34 -45l-21 -92 q-10 -45 -55 -45h-92q-45 0 -35 45zM944 1595l21 92q11 45 56 45h92q45 0 34 -45l-21 -92q-10 -45 -55 -45h-92q-45 0 -35 45z" />
<glyph unicode="&#x4df;" horiz-adv-x="982" d="M27 119q-26 33 2 55l60 49q27 22 53 -10q15 -18 79.5 -59t164.5 -41q132 0 206 68.5t74 151.5q0 89 -58 119.5t-161 30.5h-114q-45 0 -37 35l13 60q8 35 54 35h101q122 0 194 53t72 134q0 63 -57 100t-165 37q-70 0 -131 -23.5t-89 -49.5q-36 -34 -55 -16l-50 48 q-32 31 7 66q48 44 126 74.5t228 30.5q196 0 279 -74.5t83 -173.5q0 -123 -82.5 -189t-135.5 -79v-3q74 -16 119 -71.5t45 -152.5q0 -132 -126 -236.5t-339 -104.5q-168 0 -255 56.5t-105 79.5zM322 1285l20 86q10 45 55 45h86q45 0 35 -45l-20 -86q-11 -45 -56 -45h-86 q-45 0 -34 45zM728 1285l20 86q10 45 55 45h86q45 0 35 -45l-20 -86q-11 -45 -56 -45h-86q-45 0 -34 45z" />
<glyph unicode="&#x4e0;" horiz-adv-x="1257" d="M57 240l71 57q38 31 81 -21q51 -62 122 -106t216 -44q182 0 281.5 102t99.5 234q0 96 -62 152.5t-228 56.5h-113q-55 0 -45 43l16 70q12 51 44 80l447 404v4q-40 -2 -81 -2h-560q-54 0 -44 45l17 74q10 45 65 45h866q55 0 45 -45l-10 -45q-9 -38 -34 -61l-500 -446v-4 q164 0 272 -98.5t108 -257.5q0 -191 -153 -349t-452 -158q-208 0 -307 61.5t-157 131.5q-40 49 -5 77z" />
<glyph unicode="&#x4e1;" horiz-adv-x="982" d="M-91 -266q-23 39 2 55l62 41q30 20 62 -19q25 -31 74 -64.5t153 -33.5q162 0 250 106.5t88 277.5q0 103 -64 156t-182 53h-83q-45 0 -37 35l16 68q7 31 40 63l461 446v2q-30 -2 -60 -2h-475q-45 0 -37 35l14 62q8 35 53 35h702q45 0 37 -35l-12 -51q-7 -32 -55 -78 l-459 -448v-4q144 0 234 -94.5t90 -228.5q0 -222 -132.5 -375t-388.5 -153q-164 0 -245 52.5t-108 98.5z" />
<glyph unicode="&#x4e2;" horiz-adv-x="1452" d="M63 55l305 1324q13 55 63 55h92q50 0 37 -55l-233 -1009q-10 -45 -20 -80h4l893 1094q41 50 111 50h128q50 0 37 -55l-305 -1324q-13 -55 -63 -55h-92q-50 0 -37 55l233 1009q10 45 20 80h-4l-892 -1094q-41 -50 -112 -50h-128q-50 0 -37 55zM609 1598l11 50q10 40 55 40 h640q45 0 35 -40l-11 -50q-9 -40 -54 -40h-640q-45 0 -36 40z" />
<glyph unicode="&#x4e3;" horiz-adv-x="1120" d="M104 366l148 639q10 45 55 45h86q45 0 35 -45l-136 -591q-45 -197 3 -249t153 -52q147 0 230 116.5t118 266.5l118 509q10 45 55 45h86q45 0 35 -45l-222 -960q-10 -45 -55 -45h-84q-45 0 -35 45l28 120h-4q-59 -73 -154.5 -127.5t-210.5 -54.5q-160 0 -225 102.5 t-24 280.5zM424 1275l10 40q8 35 53 35h528q45 0 37 -35l-10 -40q-8 -35 -53 -35h-528q-45 0 -37 35z" />
<glyph unicode="&#x4e4;" horiz-adv-x="1452" d="M63 55l305 1324q13 55 63 55h92q50 0 37 -55l-233 -1009q-10 -45 -20 -80h4l893 1094q41 50 111 50h128q50 0 37 -55l-305 -1324q-13 -55 -63 -55h-92q-50 0 -37 55l233 1009q10 45 20 80h-4l-892 -1094q-41 -50 -112 -50h-128q-50 0 -37 55zM644 1595l21 92q11 45 56 45 h92q45 0 34 -45l-21 -92q-10 -45 -55 -45h-92q-45 0 -35 45zM1122 1595l21 92q11 45 56 45h92q45 0 34 -45l-21 -92q-10 -45 -55 -45h-92q-45 0 -35 45z" />
<glyph unicode="&#x4e5;" horiz-adv-x="1120" d="M104 366l148 639q10 45 55 45h86q45 0 35 -45l-136 -591q-45 -197 3 -249t153 -52q147 0 230 116.5t118 266.5l118 509q10 45 55 45h86q45 0 35 -45l-222 -960q-10 -45 -55 -45h-84q-45 0 -35 45l28 120h-4q-59 -73 -154.5 -127.5t-210.5 -54.5q-160 0 -225 102.5 t-24 280.5zM471 1285l20 86q10 45 55 45h86q45 0 35 -45l-20 -86q-11 -45 -56 -45h-86q-45 0 -34 45zM877 1285l20 86q10 45 55 45h86q45 0 35 -45l-20 -86q-11 -45 -56 -45h-86q-45 0 -34 45z" />
<glyph unicode="&#x4e6;" horiz-adv-x="1514" d="M110 580q0 400 214 642t554 242q305 0 461 -162.5t156 -447.5q0 -400 -214 -642t-554 -242q-305 0 -461 162.5t-156 447.5zM315 556q0 -205 106.5 -317.5t316.5 -112.5q220 0 386 183.5t166 568.5q0 205 -106.5 317.5t-316.5 112.5q-220 0 -386 -183.5t-166 -568.5z M575 1595l21 92q11 45 56 45h92q45 0 34 -45l-21 -92q-10 -45 -55 -45h-92q-45 0 -35 45zM1053 1595l21 92q11 45 56 45h92q45 0 34 -45l-21 -92q-10 -45 -55 -45h-92q-45 0 -35 45z" />
<glyph unicode="&#x4e7;" horiz-adv-x="1148" d="M68 402q0 264 163.5 464.5t428.5 200.5q234 0 327 -134.5t93 -284.5q0 -264 -163.5 -464.5t-428.5 -200.5q-234 0 -327 134.5t-93 284.5zM254 387q0 -125 58.5 -199.5t188.5 -74.5q156 0 274.5 141.5t118.5 408.5q0 125 -58.5 199.5t-188.5 74.5q-156 0 -274.5 -141.5 t-118.5 -408.5zM440 1285l20 86q10 45 55 45h86q45 0 35 -45l-20 -86q-11 -45 -56 -45h-86q-45 0 -34 45zM846 1285l20 86q10 45 55 45h86q45 0 35 -45l-20 -86q-11 -45 -56 -45h-86q-45 0 -34 45z" />
<glyph unicode="&#x4e8;" horiz-adv-x="1514" d="M110 580q0 400 214 642t554 242q305 0 461 -162.5t156 -447.5q0 -400 -214 -642t-554 -242q-305 0 -461 162.5t-156 447.5zM315 556q0 -205 106.5 -317.5t316.5 -112.5q220 0 361 156t176 382h-956q-4 -52 -4 -108zM341 828h948q1 25 1 50q0 205 -106.5 317.5 t-316.5 112.5q-220 0 -353.5 -147.5t-172.5 -332.5z" />
<glyph unicode="&#x4e9;" horiz-adv-x="1148" d="M68 402q0 264 163.5 464.5t428.5 200.5q234 0 327 -134.5t93 -284.5q0 -264 -163.5 -464.5t-428.5 -200.5q-234 0 -327 134.5t-93 284.5zM254 387q0 -125 58.5 -199.5t188.5 -74.5q136 0 243.5 108.5t133.5 260.5h-620q-4 -45 -4 -95zM281 614h612q1 24 1 49 q0 125 -58.5 199.5t-188.5 74.5t-233.5 -98.5t-132.5 -224.5z" />
<glyph unicode="&#x4ea;" horiz-adv-x="1514" d="M110 580q0 400 214 642t554 242q305 0 461 -162.5t156 -447.5q0 -400 -214 -642t-554 -242q-305 0 -461 162.5t-156 447.5zM315 556q0 -205 106.5 -317.5t316.5 -112.5q220 0 361 156t176 382h-956q-4 -52 -4 -108zM341 828h948q1 25 1 50q0 205 -106.5 317.5 t-316.5 112.5q-220 0 -353.5 -147.5t-172.5 -332.5zM578 1595l21 92q11 45 56 45h92q45 0 34 -45l-21 -92q-10 -45 -55 -45h-92q-45 0 -35 45zM1056 1595l21 92q11 45 56 45h92q45 0 34 -45l-21 -92q-10 -45 -55 -45h-92q-45 0 -35 45z" />
<glyph unicode="&#x4eb;" horiz-adv-x="1148" d="M68 402q0 264 163.5 464.5t428.5 200.5q234 0 327 -134.5t93 -284.5q0 -264 -163.5 -464.5t-428.5 -200.5q-234 0 -327 134.5t-93 284.5zM254 387q0 -125 58.5 -199.5t188.5 -74.5q136 0 243.5 108.5t133.5 260.5h-620q-4 -45 -4 -95zM281 614h612q1 24 1 49 q0 125 -58.5 199.5t-188.5 74.5t-233.5 -98.5t-132.5 -224.5zM419 1285l20 86q10 45 55 45h86q45 0 35 -45l-20 -86q-11 -45 -56 -45h-86q-45 0 -34 45zM825 1285l20 86q10 45 55 45h86q45 0 35 -45l-20 -86q-11 -45 -56 -45h-86q-45 0 -34 45z" />
<glyph unicode="&#x4ec;" horiz-adv-x="1352" d="M55 191q-35 56 8 85l75 51q43 29 72 -18q33 -54 115.5 -118.5t244.5 -64.5q182 0 338 126t207 416h-693q-56 0 -45 45l18 74q11 45 65 45h670q26 206 -78 341t-314 135q-132 0 -225 -45t-138 -90q-43 -43 -71 -17l-61 55q-37 34 12 85q63 66 183 117t307 51 q263 0 425.5 -145t162.5 -491t-201.5 -602t-561.5 -256q-219 0 -337.5 63t-177.5 158zM445 1595l21 92q11 45 56 45h92q45 0 34 -45l-21 -92q-10 -45 -55 -45h-92q-45 0 -35 45zM923 1595l21 92q11 45 56 45h92q45 0 34 -45l-21 -92q-10 -45 -55 -45h-92q-45 0 -35 45z" />
<glyph unicode="&#x4ed;" horiz-adv-x="1026" d="M16 154q-18 36 7 54l56 41q30 22 61 -24q26 -39 82 -75.5t147 -36.5q146 0 248.5 97t138.5 272h-458q-45 0 -37 35l14 60q8 35 53 35h444q13 145 -45.5 235t-202.5 90q-86 0 -154 -28.5t-100 -62.5q-34 -36 -54 -17l-52 47q-32 28 4 65q50 53 146 89.5t223 36.5 q225 0 323 -125t98 -297q0 -256 -160 -459t-442 -203q-150 0 -232 58.5t-108 112.5zM296 1285l20 86q10 45 55 45h86q45 0 35 -45l-20 -86q-11 -45 -56 -45h-86q-45 0 -34 45zM702 1285l20 86q10 45 55 45h86q45 0 35 -45l-20 -86q-11 -45 -56 -45h-86q-45 0 -34 45z" />
<glyph unicode="&#x4ee;" horiz-adv-x="1316" d="M77 65l41 82q18 38 58 14q56 -34 116 -34q81 0 136 34t91 88l42 63l-299 1056q-19 66 42 66h86q47 0 61 -49l176 -639q17 -61 32 -137.5t24 -137.5h4q34 78 80.5 154.5t84.5 136.5l393 623q31 49 83 49h118q55 0 12 -66l-677 -1037q-118 -182 -222.5 -271.5t-279.5 -89.5 q-125 0 -191 44q-28 18 -11 51zM547 1598l11 50q10 40 55 40h640q45 0 35 -40l-11 -50q-9 -40 -54 -40h-640q-45 0 -36 40z" />
<glyph unicode="&#x4ef;" horiz-adv-x="1128" d="M0 -306q-29 40 2 68l56 52q32 29 50 0q30 -48 87 -74.5t170 -26.5q121 0 206.5 68.5t122.5 228.5q23 102 37 155h-4q-59 -73 -150 -127.5t-218 -54.5q-170 0 -232 102.5t-21 280.5l148 639q10 45 55 45h86q45 0 35 -45l-136 -591q-45 -197 2.5 -249t157.5 -52 q106 0 211.5 113.5t141.5 269.5l117 509q10 45 55 45h86q45 0 35 -45l-234 -1014q-47 -205 -158 -306.5t-374 -101.5q-171 0 -236 33t-98 78zM430 1275l10 40q8 35 53 35h528q45 0 37 -35l-10 -40q-8 -35 -53 -35h-528q-45 0 -37 35z" />
<glyph unicode="&#x4f0;" horiz-adv-x="1316" d="M77 65l41 82q18 38 58 14q56 -34 116 -34q81 0 136 34t91 88l42 63l-299 1056q-19 66 42 66h86q47 0 61 -49l176 -639q17 -61 32 -137.5t24 -137.5h4q34 78 80.5 154.5t84.5 136.5l393 623q31 49 83 49h118q55 0 12 -66l-677 -1037q-118 -182 -222.5 -271.5t-279.5 -89.5 q-125 0 -191 44q-28 18 -11 51zM611 1595l21 92q11 45 56 45h92q45 0 34 -45l-21 -92q-10 -45 -55 -45h-92q-45 0 -35 45zM1089 1595l21 92q11 45 56 45h92q45 0 34 -45l-21 -92q-10 -45 -55 -45h-92q-45 0 -35 45z" />
<glyph unicode="&#x4f1;" horiz-adv-x="1128" d="M0 -306q-29 40 2 68l56 52q32 29 50 0q30 -48 87 -74.5t170 -26.5q121 0 206.5 68.5t122.5 228.5q23 102 37 155h-4q-59 -73 -150 -127.5t-218 -54.5q-170 0 -232 102.5t-21 280.5l148 639q10 45 55 45h86q45 0 35 -45l-136 -591q-45 -197 2.5 -249t157.5 -52 q106 0 211.5 113.5t141.5 269.5l117 509q10 45 55 45h86q45 0 35 -45l-234 -1014q-47 -205 -158 -306.5t-374 -101.5q-171 0 -236 33t-98 78zM434 1285l20 86q10 45 55 45h86q45 0 35 -45l-20 -86q-11 -45 -56 -45h-86q-45 0 -34 45zM840 1285l20 86q10 45 55 45h86 q45 0 35 -45l-20 -86q-11 -45 -56 -45h-86q-45 0 -34 45z" />
<glyph unicode="&#x4f2;" horiz-adv-x="1316" d="M77 65l41 82q18 38 58 14q56 -34 116 -34q81 0 136 34t91 88l42 63l-299 1056q-19 66 42 66h86q47 0 61 -49l176 -639q17 -61 32 -137.5t24 -137.5h4q34 78 80.5 154.5t84.5 136.5l393 623q31 49 83 49h118q55 0 12 -66l-677 -1037q-118 -182 -222.5 -271.5t-279.5 -89.5 q-125 0 -191 44q-28 18 -11 51zM670 1593l149 155q35 37 86 37h131q73 0 7 -52l-210 -164q-38 -29 -82 -29h-77q-55 0 -4 53zM1040 1593l149 155q35 37 86 37h131q73 0 7 -52l-210 -164q-38 -29 -82 -29h-77q-55 0 -4 53z" />
<glyph unicode="&#x4f3;" horiz-adv-x="1128" d="M0 -306q-29 40 2 68l56 52q32 29 50 0q30 -48 87 -74.5t170 -26.5q121 0 206.5 68.5t122.5 228.5q23 102 37 155h-4q-59 -73 -150 -127.5t-218 -54.5q-170 0 -232 102.5t-21 280.5l148 639q10 45 55 45h86q45 0 35 -45l-136 -591q-45 -197 2.5 -249t157.5 -52 q106 0 211.5 113.5t141.5 269.5l117 509q10 45 55 45h86q45 0 35 -45l-234 -1014q-47 -205 -158 -306.5t-374 -101.5q-171 0 -236 33t-98 78zM512 1203l126 195q24 37 87 37h107q54 0 6 -52l-188 -204q-27 -29 -81 -29h-52q-39 0 -5 53zM812 1203l126 195q24 37 87 37h107 q54 0 6 -52l-188 -204q-27 -29 -81 -29h-52q-39 0 -5 53z" />
<glyph unicode="&#x4f4;" horiz-adv-x="1286" d="M211 912l107 467q13 55 63 55h92q50 0 37 -55l-96 -419q-32 -141 3.5 -190.5t146.5 -49.5q54 0 192 19t232 58l134 582q13 55 63 55h92q50 0 37 -55l-305 -1324q-13 -55 -63 -55h-92q-50 0 -37 55l121 528q10 42 21 80h-4q-104 -41 -202.5 -69t-248.5 -28 q-162 0 -243.5 102t-49.5 244zM541 1595l21 92q11 45 56 45h92q45 0 34 -45l-21 -92q-10 -45 -55 -45h-92q-45 0 -35 45zM1019 1595l21 92q11 45 56 45h92q45 0 34 -45l-21 -92q-10 -45 -55 -45h-92q-45 0 -35 45z" />
<glyph unicode="&#x4f5;" horiz-adv-x="1060" d="M147 706l69 299q10 45 55 45h86q45 0 35 -45l-63 -271q-28 -124 10.5 -157.5t119.5 -33.5q105 0 182 12t121 50l92 400q10 45 55 45h86q45 0 35 -45l-222 -960q-10 -45 -55 -45h-86q-45 0 -35 45l84 364q6 27 16 60h-4q-29 -25 -127.5 -40.5t-196.5 -15.5q-136 0 -213 76 t-44 217zM397 1285l20 86q10 45 55 45h86q45 0 35 -45l-20 -86q-11 -45 -56 -45h-86q-45 0 -34 45zM803 1285l20 86q10 45 55 45h86q45 0 35 -45l-20 -86q-11 -45 -56 -45h-86q-45 0 -34 45z" />
<glyph unicode="&#x4f8;" horiz-adv-x="1770" d="M63 55l305 1324q13 55 63 55h92q50 0 37 -55l-127 -551h268q292 0 399 -106.5t107 -267.5q0 -184 -160 -319t-497 -135h-450q-50 0 -37 55zM280 164h276q215 0 330.5 74t115.5 206q0 141 -93 180.5t-278 39.5h-236zM803 1595l21 92q11 45 56 45h92q45 0 34 -45l-21 -92 q-10 -45 -55 -45h-92q-45 0 -35 45zM1281 1595l21 92q11 45 56 45h92q45 0 34 -45l-21 -92q-10 -45 -55 -45h-92q-45 0 -35 45zM1301 55l305 1324q13 55 63 55h92q50 0 37 -55l-305 -1324q-13 -55 -63 -55h-92q-50 0 -37 55z" />
<glyph unicode="&#x4f9;" horiz-adv-x="1432" d="M124 444l130 561q10 45 55 45h86q45 0 35 -45l-82 -356q-10 -39 -18 -61h2q46 50 105 71t149 21q162 0 239 -93t77 -233q0 -146 -115 -258.5t-375 -112.5q-176 0 -256.5 124.5t-31.5 336.5zM284 370q-29 -126 18.5 -191.5t146.5 -65.5q125 0 196 65.5t71 187.5 q0 76 -45 130t-139 54q-102 0 -166.5 -54t-81.5 -126zM602 1285l20 86q10 45 55 45h86q45 0 35 -45l-20 -86q-11 -45 -56 -45h-86q-45 0 -34 45zM1004 45l222 960q10 45 55 45h86q45 0 35 -45l-222 -960q-10 -45 -55 -45h-86q-45 0 -35 45zM1008 1285l20 86q10 45 55 45h86 q45 0 35 -45l-20 -86q-11 -45 -56 -45h-86q-45 0 -34 45z" />
<glyph unicode="&#x2000;" horiz-adv-x="938" />
<glyph unicode="&#x2001;" horiz-adv-x="1877" />
<glyph unicode="&#x2002;" horiz-adv-x="938" />
<glyph unicode="&#x2003;" horiz-adv-x="1877" />
<glyph unicode="&#x2004;" horiz-adv-x="625" />
<glyph unicode="&#x2005;" horiz-adv-x="469" />
<glyph unicode="&#x2006;" horiz-adv-x="312" />
<glyph unicode="&#x2007;" horiz-adv-x="312" />
<glyph unicode="&#x2008;" horiz-adv-x="234" />
<glyph unicode="&#x2009;" horiz-adv-x="375" />
<glyph unicode="&#x200a;" horiz-adv-x="104" />
<glyph unicode="&#x2010;" horiz-adv-x="680" d="M56 518l16 70q8 35 53 35h478q45 0 37 -35l-16 -70q-8 -35 -53 -35h-478q-45 0 -37 35z" />
<glyph unicode="&#x2011;" horiz-adv-x="680" d="M56 518l16 70q8 35 53 35h478q45 0 37 -35l-16 -70q-8 -35 -53 -35h-478q-45 0 -37 35z" />
<glyph unicode="&#x2012;" horiz-adv-x="680" d="M56 518l16 70q8 35 53 35h478q45 0 37 -35l-16 -70q-8 -35 -53 -35h-478q-45 0 -37 35z" />
<glyph unicode="&#x2013;" horiz-adv-x="1032" d="M44 523v60q0 35 45 35h862q45 0 45 -35v-60q0 -35 -45 -35h-862q-45 0 -45 35z" />
<glyph unicode="&#x2014;" horiz-adv-x="2056" d="M44 523v60q0 35 45 35h1886q45 0 45 -35v-60q0 -35 -45 -35h-1886q-45 0 -45 35z" />
<glyph unicode="&#x2018;" horiz-adv-x="498" d="M260 1015l29 122q30 127 67.5 192t115.5 127q26 20 38 7l37 -40q14 -15 -13 -35q-35 -26 -74 -88.5t-52 -117.5h52q46 0 35 -45l-29 -122q-11 -45 -55 -45h-116q-46 0 -35 45z" />
<glyph unicode="&#x2019;" horiz-adv-x="498" d="M274 1016q-14 15 13 35q35 26 74 88.5t52 117.5h-52q-46 0 -35 45l29 122q11 45 55 45h116q46 0 35 -45l-29 -122q-30 -127 -67.5 -192t-115.5 -127q-26 -20 -38 -7z" />
<glyph unicode="&#x201a;" horiz-adv-x="498" d="M-16 -241q-14 15 13 35q35 26 74 88.5t52 117.5h-52q-46 0 -35 45l29 122q11 45 55 45h116q46 0 35 -45l-29 -122q-30 -127 -67.5 -192t-115.5 -127q-26 -20 -38 -7z" />
<glyph unicode="&#x201c;" horiz-adv-x="760" d="M226 1015l29 122q30 127 67.5 192t115.5 127q26 20 38 7l37 -40q14 -15 -13 -35q-35 -26 -74 -88.5t-52 -117.5h52q46 0 35 -45l-29 -122q-11 -45 -55 -45h-116q-46 0 -35 45zM556 1015l29 122q30 127 67.5 192t115.5 127q26 20 38 7l37 -40q14 -15 -13 -35 q-35 -26 -74 -88.5t-52 -117.5h52q46 0 35 -45l-29 -122q-11 -45 -55 -45h-116q-46 0 -35 45z" />
<glyph unicode="&#x201d;" horiz-adv-x="760" d="M240 1016q-14 15 13 35q35 26 74 88.5t52 117.5h-52q-46 0 -35 45l29 122q11 45 55 45h116q46 0 35 -45l-29 -122q-30 -127 -67.5 -192t-115.5 -127q-26 -20 -38 -7zM570 1016q-14 15 13 35q35 26 74 88.5t52 117.5h-52q-46 0 -35 45l29 122q11 45 55 45h116q46 0 35 -45 l-29 -122q-30 -127 -67.5 -192t-115.5 -127q-26 -20 -38 -7z" />
<glyph unicode="&#x201e;" horiz-adv-x="760" d="M-50 -241q-14 15 13 35q35 26 74 88.5t52 117.5h-52q-46 0 -35 45l29 122q11 45 55 45h116q46 0 35 -45l-29 -122q-30 -127 -67.5 -192t-115.5 -127q-26 -20 -38 -7zM280 -241q-14 15 13 35q35 26 74 88.5t52 117.5h-52q-46 0 -35 45l29 122q11 45 55 45h116q46 0 35 -45 l-29 -122q-30 -127 -67.5 -192t-115.5 -127q-26 -20 -38 -7z" />
<glyph unicode="&#x2022;" horiz-adv-x="1024" d="M342 694q0 87 61.5 148.5t148.5 61.5t148.5 -61.5t61.5 -148.5t-61.5 -148.5t-148.5 -61.5t-148.5 61.5t-61.5 148.5z" />
<glyph unicode="&#x2026;" horiz-adv-x="2048" d="M140 45l29 122q10 45 55 45h112q45 0 35 -45l-29 -122q-10 -45 -55 -45h-112q-45 0 -35 45zM813 45l29 122q10 45 55 45h112q45 0 35 -45l-29 -122q-10 -45 -55 -45h-112q-45 0 -35 45zM1486 45l29 122q10 45 55 45h112q45 0 35 -45l-29 -122q-10 -45 -55 -45h-112 q-45 0 -35 45z" />
<glyph unicode="&#x202f;" horiz-adv-x="375" />
<glyph unicode="&#x2039;" horiz-adv-x="682" d="M120 517q-14 23 11 46l411 380q28 26 45 8l45 -49q16 -17 -13 -44l-359 -334l205 -334q16 -26 -8 -44l-49 -36q-25 -18 -41 8z" />
<glyph unicode="&#x203a;" horiz-adv-x="682" d="M59 178q-16 17 13 44l359 334l-205 334q-16 26 8 44l49 36q25 18 41 -8l247 -399q14 -23 -11 -46l-411 -380q-28 -26 -45 -8z" />
<glyph unicode="&#x205f;" horiz-adv-x="469" />
<glyph unicode="&#x20ac;" d="M27 549l19 62q11 35 59 35h38q11 79 29 152h-71q-42 0 -31 35l20 62q11 35 59 35h64q30 132 196.5 327t442.5 195q78 0 168 -30t147 -115q39 -58 11 -80l-49 -38q-38 -29 -78 20q-37 45 -85.5 69t-137.5 24q-162 0 -279 -147t-131 -225h400q42 0 31 -35l-20 -62 q-11 -35 -59 -35h-400q-22 -74 -33 -152h437q42 0 31 -35l-19 -62q-11 -35 -59 -35h-402q-1 -25 -1 -50q0 -122 56.5 -233t194.5 -111q64 0 132.5 37.5t114.5 85.5q51 54 78 17l41 -56q28 -38 -14 -79q-57 -55 -143 -105t-234 -50q-193 0 -307.5 130.5t-114.5 315.5 q0 50 3 98h-73q-42 0 -31 35z" />
<glyph unicode="&#x2122;" horiz-adv-x="1598" d="M202 1360v52q0 22 29 22h516q29 0 29 -22v-52q0 -22 -29 -22h-198v-547q0 -29 -28 -29h-64q-28 0 -28 29v547h-198q-29 0 -29 22zM849 791v614q0 29 29 29h132q20 0 29 -25l147 -422q10 -28 18 -55t16 -59h2q8 32 16 59t18 55l147 422q9 25 29 25h132q29 0 29 -29v-614 q0 -29 -29 -29h-63q-28 0 -28 29v483q0 19 1 38h-1l-185 -511q-14 -39 -35 -39h-64q-21 0 -35 39l-185 511h-1q1 -19 1 -38v-483q0 -29 -28 -29h-63q-29 0 -29 29z" />
<glyph unicode="&#x25fc;" horiz-adv-x="1050" d="M0 0v1050h1050v-1050h-1050z" />
</font>
</defs>
</svg>
